<svg width="1400" height="2000" viewBox="0 0 1400 2000" fill="none" xmlns="http://www.w3.org/2000/svg">
<rect width="1399.32" height="2000" fill="#141414"/>
<path d="M257.742 682.802C254.585 680.717 241.779 706.986 223.015 707.403C218.972 707.157 215.017 706.116 211.378 704.337C207.739 702.558 204.487 700.078 201.81 697.038C205.185 699.276 208.974 700.815 212.954 701.562C216.935 702.309 221.024 702.249 224.981 701.386C232.544 699.01 238.928 693.86 242.851 686.971C248.807 677.917 246.603 675.058 251.13 664.158C258.1 648.075 272.872 641.225 271.204 638.604C270.311 637.174 266.379 640.152 259.291 638.604C255.096 637.823 251.187 635.931 247.973 633.124C246.425 631.635 245.829 630.265 243.744 629.073C243.744 629.073 239.634 626.81 237.252 627.822C234.869 628.835 232.784 635.923 235.465 644.322C228.85 635.647 225.785 624.78 226.892 613.928C227.998 603.075 233.193 593.05 241.421 585.888C249.478 578.095 260.023 573.392 271.204 572.605C288.478 572.069 292.827 582.671 305.693 578.561C311.18 576.724 316.159 573.622 320.227 569.507C322.537 567.148 324.538 564.507 326.184 561.645C325.152 567.638 322.858 573.344 319.453 578.383C314.687 585.054 311.173 585.531 309.029 590.891C305.395 599.826 309.684 612.812 315.462 614.003C319.87 614.897 324.635 608.642 328.507 603.46C333.992 596.051 337.794 587.533 339.645 578.502C340.641 588.647 338.566 598.857 333.689 607.808C327.137 619.126 319.214 621.627 314.449 634.851C313.913 636.221 309.803 647.956 314.926 652.721C318.619 656.176 325.111 654.448 327.911 653.674C341.73 649.981 349.116 636.638 351.737 631.575C349.749 639.54 346.162 647.018 341.194 653.555C330.055 667.97 318.559 668.327 315.402 679.704C314.294 684.05 314.489 688.626 315.961 692.862C317.433 697.098 320.118 700.808 323.682 703.531C327.014 705.754 330.893 707.018 334.896 707.186C338.898 707.354 342.869 706.419 346.376 704.484C342.187 707.267 337.458 709.134 332.498 709.964C327.499 710.916 322.348 710.707 317.443 709.354C312.537 708.002 308.008 705.54 304.204 702.161C289.193 685.661 311.947 648.968 300.272 641.165C296.46 638.604 291.159 640.569 285.679 642.535C280.325 644.51 275.583 647.854 271.925 652.233C268.267 656.612 265.821 661.874 264.831 667.493C263.52 676.607 268.345 678.156 268.226 686.852C268.226 702.935 250.952 720.745 232.844 724.677C217.476 728.012 211.757 719.256 193.59 722.175C182.876 724.051 172.86 728.761 164.581 735.815C168.092 730.487 172.619 725.903 177.903 722.326C183.188 718.748 189.125 716.248 195.377 714.967C203.895 713.836 205.741 716.993 217.237 716.099C223.194 715.623 240.528 714.312 251.071 701.208C257.027 693.762 259.887 683.993 257.742 682.802ZM296.758 604.413C296.758 601.673 297.711 588.688 289.491 582.552C275.612 572.188 248.39 590.594 249.403 598.158C249.403 600.005 251.428 601.256 251.309 604.115C251.19 606.974 248.033 609.238 245.353 610.786C246.414 609.492 247.062 607.907 247.211 606.239C247.359 604.571 247.003 602.897 246.186 601.435C245.233 599.826 243.029 597.563 241.481 598.099C238.919 598.992 238.443 607.332 239.992 613.169C243.268 625.082 258.457 639.021 275.374 634.613C289.67 630.503 296.103 615.194 296.758 604.413Z" fill="#ECECEC"/>
<path d="M1011.25 682.802C1008.03 680.717 995.228 706.986 976.524 707.403C972.481 707.157 968.526 706.116 964.887 704.337C961.248 702.558 957.996 700.078 955.319 697.038C958.693 699.276 962.483 700.815 966.463 701.562C970.444 702.309 974.533 702.249 978.49 701.386C986.033 698.974 992.405 693.833 996.36 686.971C1002.32 677.917 1000.05 675.058 1004.64 664.158C1011.55 648.075 1026.38 641.225 1024.71 638.604C1023.76 637.174 1019.89 640.152 1012.8 638.604C1008.63 637.813 1004.74 635.921 1001.54 633.124C1000.05 631.635 999.457 630.265 997.313 629.073C997.313 629.073 993.262 626.81 990.82 627.822C988.378 628.835 986.412 635.923 989.033 644.322C982.446 635.637 979.398 624.776 980.504 613.932C981.609 603.088 986.786 593.066 994.99 585.888C1003.12 578.031 1013.79 573.323 1025.07 572.605C1042.29 572.069 1046.63 582.671 1059.5 578.561C1065.01 576.728 1070 573.627 1074.09 569.507C1076.38 567.131 1078.38 564.492 1080.05 561.645C1078.95 567.678 1076.58 573.406 1073.08 578.442C1068.32 585.114 1064.74 585.59 1062.6 590.951C1059.02 599.886 1063.31 612.871 1069.03 614.063C1073.5 614.956 1078.2 608.702 1082.13 603.519C1087.61 596.11 1091.39 587.59 1093.21 578.561C1094.21 588.706 1092.13 598.915 1087.26 607.868C1080.65 619.185 1072.78 621.687 1067.96 634.911C1067.48 636.281 1063.37 648.015 1068.49 652.781C1072.13 656.235 1078.62 654.508 1081.48 653.734C1095.3 650.04 1102.68 636.698 1105.31 631.635C1103.26 639.592 1099.66 647.063 1094.7 653.614C1083.56 668.029 1072.13 668.387 1068.97 679.764C1067.85 684.109 1068.05 688.688 1069.52 692.925C1070.99 697.163 1073.68 700.873 1077.25 703.59C1080.58 705.813 1084.46 707.078 1088.46 707.246C1092.47 707.414 1096.44 706.479 1099.94 704.543C1095.76 707.326 1091.03 709.194 1086.07 710.023C1081.07 710.985 1075.91 710.781 1071.01 709.427C1066.1 708.074 1061.57 705.608 1057.77 702.22C1042.76 685.72 1065.52 649.028 1053.84 641.225C1050.03 638.663 1044.67 640.629 1039.19 642.595C1033.84 644.58 1029.1 647.927 1025.45 652.304C1021.79 656.682 1019.34 661.938 1018.34 667.553C1017.09 676.666 1021.91 678.215 1021.79 686.912C1021.79 702.995 1004.52 720.805 986.055 724.736C970.746 728.072 965.028 719.316 946.86 722.234C936.265 724.096 926.356 728.742 918.149 735.696C921.653 730.361 926.178 725.772 931.464 722.194C936.749 718.616 942.69 716.119 948.945 714.848C957.403 713.717 959.25 716.874 970.806 715.98C976.762 715.503 994.096 714.193 1004.64 701.089C1010.42 693.762 1013.04 683.993 1011.25 682.802ZM1050.27 604.413C1050.27 601.673 1051.16 588.688 1043 582.552C1029.12 572.188 1001.9 590.594 1002.85 598.158C1002.85 600.005 1004.94 601.256 1004.82 604.115C1004.7 606.974 1001.54 609.238 998.861 610.786C999.894 609.477 1000.52 607.896 1000.67 606.235C1000.82 604.574 1000.48 602.906 999.695 601.435C998.742 599.826 996.538 597.563 994.99 598.099C992.369 598.992 991.892 607.332 993.5 613.169C996.777 625.082 1011.97 639.021 1028.82 634.613C1043.18 630.503 1049.61 615.194 1050.27 604.413Z" fill="#ECECEC"/>
<path d="M655.347 400.521C650.304 396.998 644.284 395.144 638.133 395.22C624.79 395.756 620.978 407.133 606.503 407.609C597.985 408.026 596.079 404.274 589.288 406.418C586.01 407.709 583.023 409.644 580.506 412.11C577.989 414.576 575.993 417.522 574.635 420.773C568.679 433.104 570.704 449.067 575.648 450.556C578.984 451.569 580.89 445.553 587.025 445.374C594.59 445.374 598.938 454.011 602.572 452.343C605.133 451.152 603.584 446.387 606.979 442.098C609.342 439.208 612.62 437.212 616.272 436.439C614.693 437.439 613.346 438.764 612.319 440.325C611.291 441.886 610.609 443.648 610.315 445.493C609.481 453.833 620.561 461.993 630.389 463.363C634.939 463.537 639.472 462.704 643.663 460.922C647.854 459.141 651.6 456.455 654.632 453.058C659.042 448.732 662.404 443.455 664.461 437.631C663.805 440.252 658.504 460.444 640.634 467.414C634.837 469.815 628.501 470.617 622.288 469.737C611.983 468.069 609.779 462.351 600.785 461.219C597.003 460.871 593.19 461.283 589.569 462.428C585.948 463.574 582.592 465.431 579.698 467.89C564.271 481.293 573.086 508.157 574.397 512.207C576.66 518.998 578.745 525.074 584.106 527.456C592.445 531.09 597.151 520.547 612.4 520.249C621.454 520.249 623.003 523.763 639.443 524.597C643.825 525.032 648.248 524.771 652.547 523.823C658.461 522.232 663.899 519.227 668.392 515.066C667.259 517.235 665.836 519.238 664.163 521.023C653.739 531.983 637.716 529.303 637.596 531.685C637.477 534.068 651.177 538.178 662.197 533.889C663.984 533.175 665.354 532.4 665.414 532.4C659.554 537.57 652.078 540.539 644.268 540.799C632.355 539.965 631.044 527.635 619.846 526.503C607.575 525.312 604.716 538.774 590.063 539.429C579.281 539.846 573.623 531.924 566.236 535.617C563.164 537.773 559.639 539.199 555.931 539.786C554.471 540.01 552.984 540.01 551.524 539.786C561.412 533.353 566.236 523.704 563.854 515.96C562.722 512.148 559.267 507.621 555.395 507.502C549.141 507.502 544.137 518.819 542.47 525.371C541.879 527.851 541.56 530.388 541.516 532.936C540.765 524.502 542.244 516.018 545.805 508.335C548.867 503.076 552.27 498.022 555.991 493.206C561.531 484.45 570.466 470.452 565.581 463.423C564.094 461.504 561.99 460.158 559.625 459.611C550.094 456.811 540.385 464.793 540.027 464.257C546.196 460.726 551.815 456.311 556.706 451.152C567.309 438.048 565.224 419.88 564.33 412.256C563.018 401.126 559.122 390.458 552.953 381.103C556.541 385.242 560.715 388.834 565.343 391.765C579.52 400.878 595.543 402.308 596.258 400.342C596.615 399.27 592.028 397.9 587.621 391.884C585.803 389.426 584.395 386.69 583.451 383.783C596.317 399.508 605.193 402.01 611.09 401.057C616.987 400.104 621.514 394.684 635.154 392.361C638.269 391.627 641.511 391.627 644.625 392.361C649.028 393.773 652.813 396.654 655.347 400.521Z" fill="#ECECEC"/>
<path d="M635.15 227.778C630.328 226.582 625.297 226.498 620.437 227.529C615.577 228.561 611.015 230.683 607.094 233.734C602.357 237.621 598.773 242.73 596.73 248.507C595.206 244.538 595.08 240.168 596.372 236.117C601.138 223.549 624.488 217.711 643.31 220.63C656.832 222.655 663.086 228.314 673.868 224.68C674.523 224.68 685.781 220.63 685.424 214.256C685.214 212.792 684.676 211.395 683.851 210.167C683.026 208.94 681.935 207.915 680.658 207.168C682.26 207.311 683.808 207.82 685.182 208.657C686.556 209.493 687.719 210.635 688.581 211.993C690.665 216.877 683.994 220.987 681.85 231.53C679.705 242.074 684.351 243.741 681.85 250.472C677.918 260.241 666.601 259.526 665.946 264.768C664.695 275.192 708.118 281.506 712.109 302.712C712.837 308.469 711.439 314.293 708.178 319.092C709.63 314.853 709.857 310.291 708.833 305.928C705.676 293.717 692.095 286.748 690.129 288.654C688.164 290.56 690.665 297.887 698.766 310.217C701.655 316.169 702.653 322.862 701.626 329.397C699.66 342.025 679.11 353.76 651.352 354.415C655.343 353.998 671.306 351.854 678.991 338.809C680.777 335.83 682.981 332.197 681.611 330.172C676.489 322.309 632.172 359.955 599.946 344.468C591.131 340.179 578.443 330.053 579.039 319.748C579.009 317.559 579.494 315.393 580.457 313.427C581.419 311.461 582.831 309.749 584.578 308.43C586.304 307.548 588.252 307.196 590.178 307.418C588.737 308.655 587.57 310.178 586.75 311.891C585.929 313.603 585.474 315.467 585.412 317.365C585.819 320.254 587.063 322.96 588.989 325.151C590.915 327.342 593.44 328.922 596.253 329.695C609.417 333.388 620.08 317.782 634.614 322.786C636.267 323.374 637.847 324.154 639.32 325.109C636.514 324.916 633.7 325.351 631.083 326.381C628.466 327.411 626.111 329.011 624.19 331.065C621.926 333.924 620.02 338.809 621.628 340.655C627.168 347.267 683.101 322.786 680.837 299.555C679.527 286.152 659.453 275.073 643.608 273.822C632.935 273.443 622.369 276.064 613.111 281.387C608.851 283.613 604.854 286.31 601.197 289.429C603.164 285.89 605.587 282.626 608.405 279.719C629.372 258.097 663.503 265.9 666.243 254.88C667.256 250.83 663.503 246.779 660.763 243.861C649.565 231.947 627.704 235.224 615.136 240.704C613.084 241.649 611.095 242.724 609.179 243.92C611.21 240.35 613.922 237.213 617.161 234.687C622.479 230.905 628.667 228.528 635.15 227.778Z" fill="#ECECEC"/>
<path d="M296.339 286.033C299.427 286.646 302.61 286.614 305.685 285.937C308.76 285.261 311.662 283.955 314.208 282.101C317.472 278.836 319.846 274.791 321.108 270.35C322.369 265.909 322.475 261.22 321.416 256.726C319.152 244.813 310.813 241.894 310.158 229.624C310.007 225.926 310.532 222.232 311.707 218.723C311.116 221.712 311.116 224.788 311.707 227.777C311.743 230.485 312.758 233.088 314.566 235.104C315.974 235.798 317.523 236.158 319.093 236.158C320.663 236.158 322.212 235.798 323.62 235.104C333.15 231.649 334.759 221.344 345.242 216.281C350.892 213.929 357.117 213.327 363.112 214.554C386.939 217.234 410.229 239.81 414.101 265.542C414.715 270.288 414.715 275.093 414.101 279.838C406.417 261.611 402.664 257.56 400.639 258.037C396.827 258.99 396.29 276.8 400.639 291.513C404.57 304.511 411.65 316.337 421.249 325.942C399.626 316.054 381.995 314.029 377.646 320.581C374.132 326.002 379.314 337.617 384.199 344.407C388.41 349.323 393.281 353.633 398.673 357.214C398.256 357.929 387.832 351.734 374.132 346.433C359.24 340.476 351.795 337.855 343.217 337.498C332.205 337.392 321.305 339.71 311.29 344.288C302.117 348.101 294.194 353.283 293.896 352.747C293.599 352.211 315.995 341.191 314.864 329.933C314.506 326.299 311.528 320.7 308.49 321.177C307.319 321.445 306.207 321.93 305.214 322.606C301.725 324.513 297.674 325.125 293.777 324.334C300.103 322.653 305.682 318.898 309.622 313.671C315.578 304.915 316.889 291.989 312.838 289.369C310.992 288.177 309.265 289.369 304.261 289.011C301.378 288.852 298.613 287.812 296.339 286.033ZM367.818 261.551C364.17 257.567 362.059 252.415 361.861 247.017C361.861 238.678 367.818 235.104 365.971 228.194C365.404 226.152 364.356 224.276 362.916 222.722C361.476 221.167 359.684 219.98 357.692 219.259C350.365 216.877 342.8 223.846 339.822 226.348C327.432 237.784 327.909 256.548 327.909 260.777C328.504 274.298 333.865 275.49 333.15 287.165C332.436 303.307 322.131 308.787 325.049 315.041C329.16 323.976 356.083 326.419 372.702 313.612C386.283 303.069 387.117 286.212 388.904 252.497C389.44 242.371 388.904 234.627 384.199 231.53C382.048 230.638 379.693 230.355 377.392 230.712C375.091 231.07 372.933 232.053 371.154 233.555C364.959 238.559 363.112 249.936 367.758 261.551H367.818ZM404.689 313.254C407.489 309.442 396.648 293.598 390.572 295.027C388.249 295.563 386.76 298.661 386.522 300.984C385.866 306.404 391.525 310.336 392.478 311.11C396.529 313.85 402.843 315.518 404.63 313.254H404.689Z" fill="#ECECEC"/>
<path d="M217.057 1188.58C217.891 1173.51 221.822 1116.2 241.3 1080.29C259.706 1046.33 288.059 1038.59 305.87 1068.37C349.234 1140.51 314.209 1410.52 349.234 1442.45C351.086 1444.29 353.592 1445.32 356.203 1445.32C358.814 1445.32 361.32 1444.29 363.172 1442.45C397.184 1411.53 371.452 1153.19 413.922 1095C423.691 1081.6 426.908 1092.79 441.442 1074.57C464.256 1046.04 476.824 993.141 483.853 953.291C482.84 962.345 481.291 976.045 479.207 992.545C468.366 1076.95 461.992 1101.25 457.286 1140.51C447.339 1222.95 451.33 1321.65 462.23 1330.11C468.187 1334.51 475.931 1315.81 483.615 1290.91C493.332 1258.03 500.658 1224.48 505.535 1190.54C505.118 1197.81 504.344 1209.9 503.093 1224.73C488.856 1394.08 452.342 1434.58 449.483 1535.37C447.101 1624.12 471.88 1721.75 493.026 1722.76C509.704 1723.54 526.621 1670.11 537.045 1597.97C524.179 1721.75 490.048 1793.95 462.647 1784.42C433.222 1774.17 418.39 1671.95 417.496 1665.28C405.94 1581.89 420.951 1529.95 431.673 1381.99C443.586 1222.23 438.344 1110.13 435.962 1109.53C431.971 1108.64 438.404 1419.28 382.65 1481.05C366.865 1498.5 342.145 1500.64 328.505 1468.78C294.493 1389.55 341.014 1180.59 302.594 1104.89C301.045 1101.91 288.417 1077.01 278.052 1087.02C257.383 1107.51 265.424 1248.68 262.029 1515.89C259.885 1718.3 253.452 1759.99 241.241 1775.78C218.725 1805.56 182.866 1739.5 164.937 1702.51C168.689 1709.06 191.324 1747.07 212.232 1726.34C240.168 1698.46 240.287 1590.05 240.347 1561.1C240.347 1499.45 231.71 1426.84 221.762 1425.83C213.185 1424.99 205.144 1475.03 202.404 1498.2C199.989 1519.29 199.153 1540.54 199.902 1561.76C197.935 1551.34 196.543 1540.82 195.732 1530.25C191.92 1479.85 201.153 1436.55 208.598 1403.07C243.087 1246.89 254.405 1200.25 248.329 1157.48C247.674 1152.54 244.993 1133.66 239.751 1131.21C229.446 1125.79 217.712 1185.06 217.057 1188.58ZM414.041 1132.94C405.047 1131.15 385.212 1399.56 393.729 1406.23C397.959 1409.51 409.455 1350.36 414.756 1303.48C423.929 1221.81 419.164 1133.95 414.041 1132.94ZM432.626 1572.78C429.171 1573.97 422.262 1667.19 442.693 1718.06C456.035 1751.36 477.122 1756.6 478.432 1748.44C479.743 1740.28 464.851 1727.23 451.508 1683.81C434.592 1627.64 435.426 1571.88 432.626 1572.78Z" fill="#ECECEC"/>
<path d="M921.724 1188.58C922.558 1173.51 926.489 1116.2 945.908 1080.29C964.373 1046.33 992.726 1038.59 1010.48 1068.37C1054.02 1140.75 1018.82 1410.52 1053.6 1442.45C1055.45 1444.28 1057.94 1445.32 1060.54 1445.32C1063.14 1445.32 1065.64 1444.28 1067.48 1442.45C1101.55 1411.53 1075.82 1153.19 1118.29 1095C1128.06 1081.6 1131.28 1092.79 1145.81 1074.57C1168.62 1046.04 1181.19 993.141 1188.16 953.291C1187.21 962.345 1185.6 976.045 1183.58 992.545C1173.15 1077.07 1166.66 1101.37 1161.95 1140.63C1152.01 1223.07 1155.7 1321.77 1166.84 1330.22C1172.79 1334.63 1180.6 1315.93 1188.22 1291.03C1198 1258.16 1205.34 1224.61 1210.2 1190.66C1209.78 1197.93 1209.01 1210.02 1207.76 1224.85C1193.46 1394.2 1157.01 1434.7 1154.15 1535.49C1151.71 1624.24 1176.55 1721.87 1197.69 1722.88C1214.37 1723.66 1231.29 1670.23 1241.65 1598.09C1228.79 1721.87 1194.71 1794.06 1167.31 1784.53C1137.89 1774.29 1123.06 1672.07 1122.16 1665.4C1110.61 1582.01 1125.62 1530.07 1136.34 1382.11C1147.9 1222.35 1142.95 1110.25 1140.63 1109.65C1136.64 1108.76 1143.07 1419.39 1087.32 1481.16C1071.53 1498.62 1046.81 1500.76 1033.11 1468.89C999.16 1389.67 1045.62 1180.71 1007.2 1105.01C1005.71 1102.03 993.084 1077.13 982.719 1087.14C962.05 1107.63 970.091 1248.8 966.696 1516.01C964.135 1718.12 957.94 1759.46 945.729 1775.48C923.272 1805.26 887.354 1739.2 869.484 1702.21C873.237 1708.77 895.872 1746.77 916.78 1726.04C944.716 1698.16 944.835 1589.75 944.835 1560.8C944.835 1499.15 936.258 1426.54 926.31 1425.53C917.733 1424.7 909.632 1474.73 906.892 1497.9C904.507 1519 903.671 1540.24 904.39 1561.46C902.479 1551.03 901.107 1540.52 900.28 1529.95C896.408 1479.56 905.701 1436.25 913.087 1402.78C947.635 1246.59 958.952 1199.95 952.877 1157.19C952.162 1152.24 949.541 1133.36 944.24 1130.92C934.113 1125.79 922.379 1185.06 921.724 1188.58ZM1118.71 1132.94C1109.65 1131.15 1089.88 1399.56 1098.4 1406.23C1102.57 1409.51 1114.12 1350.36 1119.36 1303.48C1128.6 1221.81 1123.59 1133.95 1118.71 1132.94ZM1137.35 1572.78C1133.96 1573.97 1126.99 1667.19 1147.48 1718.06C1160.82 1751.36 1181.91 1756.6 1183.22 1748.44C1184.53 1740.28 1169.58 1727.23 1156.24 1683.81C1139.2 1627.64 1140.09 1571.88 1137.35 1572.78Z" fill="#ECECEC"/>
<path d="M711.872 358.049C711.638 356.058 711.853 354.039 712.503 352.143C713.152 350.246 714.219 348.519 715.625 347.089C720.628 343.217 728.133 347.863 731.052 344.349C733.018 341.966 731.707 337.797 729.444 332.078C726.742 324.732 725.982 316.812 727.24 309.086C728.047 315.649 730.212 321.973 733.596 327.654C736.98 333.335 741.51 338.25 746.897 342.085C750.352 344.349 761.669 351.675 773.344 347.685C792.465 341.251 792.286 311.528 792.286 309.979C792.286 307.12 792.286 296.517 786.985 294.552C782.934 293.003 779.42 297.947 773.285 300.508C762.503 304.916 741.595 294.016 735.401 278.588C728.134 260.718 742.429 246.72 733.494 230.28C729.224 223.252 722.627 217.942 714.85 215.269C722.832 215.269 732.72 216.222 738.26 223.013C748.684 235.939 734.626 258.753 744.872 267.032C747.858 268.746 751.161 269.835 754.581 270.235C758.001 270.634 761.466 270.335 764.767 269.355C767.614 268.525 770.417 267.551 773.165 266.437C759.048 276.622 756.546 280.852 757.38 282.758C758.214 284.664 765.898 285.736 771.617 282.46C775.005 280.013 777.575 276.599 778.989 272.666C780.402 268.733 780.594 264.464 779.539 260.42C782.393 266.316 782.82 273.095 780.73 279.303C779.42 282.638 776.442 286.927 777.514 287.88C778.586 288.833 779.241 287.88 779.718 287.582C787.64 284.306 794.788 255.834 794.788 255.834C799.014 240.073 806.615 225.419 817.066 212.887C813.811 220.134 810.947 227.551 808.488 235.105C801.221 257.68 794.55 278.171 803.127 287.463C807.439 290.987 810.832 295.504 813.015 300.627C814.349 304.45 814.915 308.499 814.683 312.541C813.253 306.107 810.573 300.627 807.535 300.627C803.246 300.627 797.885 310.098 800.149 316.412C801.638 320.582 805.51 320.701 808.25 325.645C810.233 329.477 810.802 333.885 809.858 338.094C806.046 329.338 802.829 327.789 800.804 327.73C793.954 327.73 793.06 343.515 780.015 352.926C771.822 357.886 762.071 359.607 752.675 357.751C736.592 355.309 730.457 346.315 721.164 349.591C717.184 351.254 713.901 354.242 711.872 358.049Z" fill="#ECECEC"/>
<path d="M547.052 293.658C549.681 289.974 551.168 285.598 551.327 281.075C551.486 276.552 550.31 272.082 547.946 268.223C546.159 265.721 541.989 260.837 538.534 262.267C532.578 264.59 531.148 290.56 543.478 301.342C548.958 306.167 553.068 304.439 558.131 309.264C565.577 316.293 565.577 328.385 564.386 337.618C562.063 325.704 557.298 315.995 551.698 315.519C543.24 314.804 530.076 334.58 537.283 345.957C542.406 353.998 555.153 353.522 555.928 353.462C553.667 354.216 551.329 354.715 548.958 354.951C543.405 355.513 537.798 354.695 532.637 352.569C517.21 344.885 540.917 276.622 522.809 249.698C517.719 241.68 510.269 235.437 501.484 231.828C496.183 229.803 488.975 227.063 483.614 229.386C462.171 238.559 477.658 324.215 459.014 354.475C454.828 361.107 449.645 367.055 443.646 372.106C438.455 376.642 432.366 380.031 425.776 382.054C419.081 383.998 412.027 384.365 405.166 383.126C411.299 381.961 417.289 380.144 423.036 377.706C431.273 374.881 438.515 369.729 443.884 362.874C446.624 358.942 449.066 353.641 447.756 352.509C446.445 351.377 440.012 358.466 430.958 359.419C424.991 359.674 419.138 357.724 414.518 353.939C421.109 355.922 428.161 355.755 434.651 353.462C457.048 345.004 464.97 308.311 454.01 291.394C453.117 290.024 449.662 284.723 445.671 285.08C441.68 285.438 436.796 293.598 434.889 305.929C434.328 299.106 435.389 292.248 437.987 285.914C443.527 272.75 453.474 269.653 463.124 251.366C466.042 245.767 468.008 240.644 465.804 237.666C464.974 236.819 463.967 236.166 462.854 235.754C461.742 235.342 460.553 235.181 459.371 235.283C453.414 235.283 447.875 241.24 445.016 250.175C445.332 246.557 446.175 243.005 447.517 239.632C452.765 228.788 461.454 219.986 472.23 214.598C483.005 209.211 495.26 207.541 507.083 209.849C528.051 214.614 538.415 232.424 544.193 242.312C548.363 249.52 559.025 267.747 552.234 285.259C550.912 288.289 549.167 291.117 547.052 293.658ZM521.498 233.139C523.107 231.531 514.589 211.278 499.936 211.278C488.022 210.802 478.075 223.787 479.445 226.051C480.815 228.314 488.678 221.404 500.65 223.072C513.576 224.561 520.188 234.33 521.498 233.139Z" fill="#ECECEC"/>
<path d="M913.503 208.838C908.468 212.482 904.382 217.283 901.59 222.836C898.778 227.868 897.398 233.575 897.599 239.336C898.016 247.734 903.556 260.66 913.384 261.316C921.962 261.852 928.216 252.678 928.812 251.785C927.92 255.056 926.381 258.115 924.285 260.779C920.165 265.275 914.791 268.429 908.857 269.833C889.617 276.981 882.767 333.093 893.489 337.679C898.791 340.002 910.406 330.472 913.206 319.035C914.492 312.988 913.672 306.682 910.882 301.165C913.22 303.561 915.063 306.395 916.303 309.504C918.751 315.766 918.751 322.721 916.303 328.982C912.669 337.262 905.76 338.632 906.117 344.589C906.223 345.781 906.593 346.934 907.201 347.964C907.809 348.995 908.64 349.876 909.632 350.545C914.337 353.107 923.689 347.567 932.505 336.25C923.57 351.498 911.061 362.28 900.995 360.076C887.473 357.336 876.036 331.246 880.206 312.066C881.516 306.109 884.852 298.842 881.159 293.183C880.046 291.342 878.407 289.876 876.454 288.974C874.501 288.071 872.322 287.774 870.199 288.12C867.589 289.332 865.506 291.447 864.335 294.075C863.163 296.702 862.982 299.665 863.825 302.416C864.637 304.78 866.125 306.854 868.105 308.379C870.086 309.904 872.471 310.813 874.964 310.994C871.271 311.526 867.506 310.836 864.242 309.028C855.963 304.024 857.869 292.766 849.589 289.252C848.232 288.638 846.76 288.321 845.271 288.321C843.781 288.321 842.309 288.638 840.952 289.252C839.463 290.265 839.463 291.218 838.152 292.826C836.006 295.289 833.004 296.844 829.754 297.174C838.569 286.81 837.199 274.48 831.958 270.965C827.669 268.046 819.33 269.953 812.658 276.267C814.981 274.063 838.391 250.653 831.838 224.146C830.499 218.881 828.153 213.925 824.929 209.553C829.286 212.574 833.009 216.419 835.889 220.87C849.946 243.029 835.532 265.962 846.909 277.041C855.427 285.321 875.917 283.951 884.733 274.301C896.646 261.256 881.755 239.038 895.336 220.692C900.064 215.005 906.394 210.875 913.503 208.838Z" fill="#ECECEC"/>
<path d="M563.673 578.088C563.103 582.031 561.702 585.807 559.563 589.168C554.305 596.315 546.538 601.209 537.821 602.868C530.437 604.522 522.86 605.143 515.305 604.714C492.372 605.548 477.838 606.025 471.643 614.96C470.154 617.044 470.392 617.938 468.725 636.046C467.176 652.188 463.9 660.706 467.057 662.374C470.214 664.042 475.456 655.226 488.62 646.172C497.435 640.216 510.957 630.804 519.773 634.259C531.388 639.203 535.081 667.08 524.419 686.796C519.506 695.002 512.44 701.705 503.986 706.178C495.533 710.652 486.016 712.724 476.468 712.171C468.189 712.171 455.62 710.682 450.14 701.986C438.227 683.461 471.286 649.448 459.671 629.851C458.896 628.541 456.275 623.895 452.821 623.895C448.055 623.895 444.124 632.293 443.171 638.369C442.54 642.565 443.041 646.853 444.622 650.791C446.204 654.728 448.808 658.172 452.165 660.766C446.534 658.871 441.734 655.082 438.584 650.044C435.331 643.037 434.988 635.026 437.631 627.766C441.265 615.853 449.127 612.815 447.043 607.156C446.168 605.296 444.812 603.702 443.116 602.539C441.42 601.377 439.444 600.689 437.393 600.545C434.459 600.64 431.577 601.35 428.935 602.629C431.392 599.987 434.625 598.193 438.167 597.507C445.256 595.899 448.294 599.651 455.322 600.366C460.471 600.63 465.605 599.602 470.255 597.376C474.905 595.149 478.925 591.795 481.948 587.619C485.614 582.517 487.686 576.444 487.905 570.166C488.718 572.361 489.161 574.676 489.215 577.016C489.215 588.036 479.03 594.469 480.638 596.792C482.246 599.115 488.262 595.839 502.796 590.835C517.33 585.832 518.76 586.428 524.955 582.794C530.461 579.578 535.459 575.564 539.787 570.881C537.303 576.275 533.71 581.085 529.244 584.998C519.415 593.516 509.289 593.575 509.468 595.601C509.646 597.626 527.338 602.213 543.897 595.124C551.922 591.36 558.762 585.468 563.673 578.088ZM511.791 695.791C513.042 696.625 519.713 691.681 520.547 684.831C521.083 680.184 518.939 674.526 515.901 673.99C512.863 673.453 510.6 681.554 503.988 683.103C500.547 683.582 497.053 682.73 494.219 680.72C497.564 680.74 500.862 679.921 503.809 678.338C508.542 675.2 512.054 670.532 513.757 665.114C516.794 658.324 521.679 647.244 517.986 643.79C510.242 636.642 471.286 660.528 473.907 673.573C474.92 678.338 481.591 681.793 480.4 684.116C479.208 686.439 471.107 682.686 467.831 686.201C464.555 689.715 466.223 697.756 470.869 702.045C481.233 711.635 506.609 698.829 509.051 692.157C510.438 688.457 512.857 685.232 516.02 682.865C511.195 692.991 511.136 695.374 511.791 695.791Z" fill="#ECECEC"/>
<path d="M666.366 587.376C661.89 584.226 656.529 582.579 651.057 582.67C639.144 583.087 635.749 593.034 622.882 593.69C615.318 594.047 613.65 590.711 607.574 592.617C604.669 593.781 602.022 595.506 599.783 597.693C597.545 599.881 595.76 602.487 594.529 605.365C589.168 616.384 591.015 630.561 595.422 631.931C598.341 632.884 600.069 627.523 605.549 627.344C612.28 627.344 616.151 635.028 619.428 633.301C621.691 632.229 620.321 628.238 623.299 624.187C625.406 621.592 628.358 619.821 631.639 619.184C630.176 620.029 628.92 621.189 627.962 622.58C627.004 623.971 626.368 625.558 626.099 627.225C625.325 634.612 635.213 641.879 643.969 643.01C647.988 643.199 652 642.508 655.724 640.985C659.449 639.463 662.796 637.145 665.532 634.195C669.506 630.431 672.563 625.805 674.467 620.673C673.93 622.937 669.165 640.926 653.201 647.24C648.026 649.387 642.369 650.107 636.821 649.324C627.648 647.835 625.742 642.712 617.7 641.759C614.332 641.428 610.932 641.786 607.706 642.81C604.481 643.834 601.497 645.503 598.937 647.716C585.177 659.629 592.98 683.456 594.231 687.149C596.197 693.105 598.043 698.645 602.868 700.73C610.254 704.006 614.424 694.773 628.005 694.356C636.106 694.356 637.476 697.454 651.831 698.228C655.815 698.615 659.836 698.373 663.745 697.513C669.101 696.118 674.018 693.393 678.04 689.591C676.998 691.548 675.717 693.368 674.228 695.011C664.936 704.78 650.402 702.398 650.402 704.542C650.402 706.686 662.315 710.499 672.263 706.508C673.871 705.852 675.122 705.138 675.122 705.197C669.925 709.788 663.289 712.421 656.358 712.643C645.577 711.928 644.445 700.73 634.557 699.896C623.657 698.824 621.155 710.856 608.05 711.392C598.401 711.809 593.397 704.721 586.964 708.056C584.188 709.938 581.039 711.197 577.731 711.749C576.448 711.942 575.143 711.942 573.86 711.749C582.616 705.793 586.905 697.454 584.82 690.723C583.748 687.327 580.71 683.277 577.314 683.217C571.656 683.217 567.248 693.284 565.759 699.122C565.265 701.073 564.966 703.068 564.865 705.078C564.156 697.663 565.388 690.191 568.439 683.396C571.24 678.711 574.344 674.214 577.731 669.934C582.675 662.131 590.598 649.682 586.249 643.368C584.898 641.634 582.979 640.432 580.829 639.972C572.37 637.53 563.733 644.619 563.436 644.142C568.902 640.895 573.877 636.884 578.208 632.229C587.679 620.316 585.832 604.352 585.058 597.561C583.852 587.674 580.387 578.197 574.932 569.863C578.129 573.535 581.841 576.725 585.951 579.334C598.579 587.435 612.816 588.686 613.471 587.018C614.126 585.35 609.659 584.814 605.787 579.453C604.158 577.268 602.891 574.834 602.034 572.246C613.471 586.244 621.393 588.448 626.635 587.614C631.877 586.78 636.285 582.015 648.198 579.87C650.966 579.278 653.828 579.278 656.597 579.87C660.64 581.135 664.102 583.795 666.366 587.376Z" fill="#ECECEC"/>
<path d="M740.105 585.767C735.284 584.554 730.249 584.46 725.387 585.492C720.524 586.525 715.962 588.656 712.049 591.724C707.312 595.61 703.728 600.719 701.685 606.496C700.161 602.527 700.035 598.157 701.328 594.106C706.093 581.538 729.443 575.7 748.266 578.56C761.787 580.644 768.041 586.303 778.823 582.67C779.478 582.67 790.438 578.56 790.379 572.246C790.167 570.79 789.636 569.399 788.822 568.173C788.008 566.947 786.933 565.917 785.673 565.157C787.266 565.304 788.804 565.816 790.167 566.653C791.531 567.489 792.683 568.628 793.536 569.982C795.621 574.866 788.949 578.977 786.805 589.46C784.66 599.944 789.307 601.731 786.805 608.462C782.873 618.231 771.556 617.516 770.901 622.758C769.65 633.182 813.073 639.496 817.064 660.701C817.792 666.458 816.394 672.282 813.133 677.082C814.593 672.867 814.841 668.326 813.848 663.977C810.691 651.766 797.11 644.797 795.144 646.643C793.178 648.49 795.68 655.936 803.781 668.266C806.67 674.218 807.667 680.911 806.64 687.446C804.675 700.074 784.124 711.809 756.367 712.404C760.357 711.987 776.321 709.903 784.005 696.858C785.792 693.879 787.996 690.246 786.626 688.161C781.503 680.358 737.186 717.944 704.961 702.516C696.145 698.228 683.458 688.101 684.053 677.796C684.023 675.608 684.509 673.442 685.471 671.476C686.434 669.51 687.846 667.798 689.593 666.479C691.319 665.597 693.267 665.244 695.192 665.466C693.756 666.695 692.591 668.208 691.771 669.91C690.951 671.612 690.493 673.466 690.427 675.354C690.79 678.228 691.979 680.934 693.851 683.144C695.723 685.354 698.196 686.973 700.97 687.804C714.134 691.437 724.797 675.89 739.331 680.894C741.005 681.432 742.591 682.215 744.036 683.217C741.23 683.024 738.417 683.459 735.8 684.489C733.183 685.52 730.828 687.12 728.907 689.174C726.643 692.033 724.737 696.917 726.345 698.764C731.885 705.316 787.817 680.894 785.554 657.663C784.243 644.261 764.17 633.182 748.325 631.931C737.661 631.568 727.105 634.166 717.827 639.436C713.576 641.7 709.582 644.416 705.914 647.537C707.887 644.003 710.31 640.739 713.122 637.828C734.089 616.205 768.22 624.008 770.96 612.929C771.973 608.938 768.22 604.888 765.48 601.969C754.282 590.056 732.421 593.332 719.853 598.812C717.79 599.735 715.799 600.81 713.896 602.029C715.807 598.378 718.418 595.14 721.58 592.498C727.071 588.694 733.453 586.375 740.105 585.767Z" fill="#ECECEC"/>
<path d="M216.342 263.639C216.342 263.639 230.638 260.661 233.616 255.955C235.105 248.807 217.176 235.167 199.246 236.179C192.748 235.811 186.354 237.942 181.377 242.136C167.14 256.611 190.609 289.789 183.164 334.285C182.449 338.931 180.662 349.95 172.561 354.358C171.02 355.192 169.348 355.756 167.617 356.026C170.959 352.475 173.338 348.128 174.526 343.398C175.367 341.113 175.747 338.683 175.645 336.25C175.542 333.817 174.96 331.428 173.931 329.221C171.727 325.707 168.987 325.469 165.77 321.001C164.042 318.44 162.828 315.568 162.196 312.543C163.805 314.27 168.153 318.5 170.714 317.308C171.259 317.04 171.738 316.655 172.119 316.182C172.5 315.709 172.773 315.158 172.918 314.568C176.611 304.502 162.732 260.959 172.561 243.506C175.624 238.452 180.012 234.333 185.248 231.593C208.36 217.476 230.935 233.975 251.784 220.752C257.768 216.963 262.624 211.634 265.841 205.324C265.58 208.857 264.941 212.352 263.935 215.748C260.361 228.138 254.583 230.461 255.715 235.286C257.502 243.089 273.585 241.243 278.648 251.607C279.492 253.574 279.927 255.691 279.927 257.832C279.927 259.972 279.492 262.09 278.648 264.056C277.456 255.121 272.036 249.105 267.032 249.046C262.029 248.986 256.251 255.777 255.774 262.269C254.821 275.136 273.644 281.569 273.108 296.818C272.949 299.16 272.385 301.458 271.44 303.608C269.415 289.908 267.449 286.572 265.901 286.513C259.944 286.513 246.899 336.191 261.493 345.364C266.735 348.58 274.299 346.019 279.66 343.458C265.782 356.145 259.348 357.396 255.834 355.371C251.009 352.75 249.877 342.028 248.388 322.014C248.003 315.276 245.618 308.806 241.538 303.429L240.764 302.536C237.606 299.692 233.883 297.547 229.838 296.244C225.794 294.94 221.519 294.506 217.295 294.971C217.295 294.971 241.121 293.899 243.921 286.215C246.72 278.531 238.679 268.345 230.518 264.712C226.019 262.889 221.064 262.514 216.342 263.639ZM214.078 233.38C214.078 234.452 226.766 233.082 236.296 242.136C240.883 246.484 242.253 251.011 244.874 250.535C247.495 250.058 250.116 243.625 248.329 239.336C243.98 228.674 214.257 231.831 214.078 233.38Z" fill="#ECECEC"/>
<path d="M1155.22 585.767C1150.4 584.554 1145.37 584.46 1140.5 585.492C1135.64 586.525 1131.08 588.656 1127.17 591.724C1122.43 595.61 1118.84 600.719 1116.8 606.496C1115.25 602.533 1115.12 598.153 1116.44 594.106C1121.15 581.538 1144.56 575.7 1163.38 578.56C1176.9 580.644 1183.16 586.303 1193.94 582.67C1194.53 582.67 1205.55 578.56 1205.5 572.246C1205.27 570.786 1204.73 569.393 1203.91 568.167C1203.08 566.942 1202 565.914 1200.73 565.157C1202.33 565.291 1203.87 565.797 1205.23 566.635C1206.6 567.473 1207.75 568.619 1208.59 569.982C1210.74 574.866 1204.07 578.977 1201.92 589.46C1199.78 599.944 1204.36 601.731 1201.92 608.462C1197.99 618.231 1186.67 617.516 1186.02 622.758C1184.77 633.182 1228.19 639.496 1232.18 660.701C1232.91 666.458 1231.51 672.282 1228.25 677.082C1229.68 672.837 1229.89 668.274 1228.84 663.918C1225.75 651.707 1212.17 644.737 1210.2 646.584C1208.24 648.43 1210.74 655.876 1218.84 668.206C1221.73 674.158 1222.72 680.851 1221.7 687.387C1219.67 700.015 1199.12 711.749 1171.42 712.345C1175.41 711.928 1191.38 709.843 1199.06 696.798C1200.85 693.82 1202.99 690.186 1201.68 688.101C1196.56 680.298 1152.24 717.884 1120.02 702.457C1111.2 698.168 1098.51 688.042 1099.05 677.737C1099.05 675.546 1099.55 673.384 1100.52 671.42C1101.49 669.457 1102.91 667.745 1104.65 666.419C1106.38 665.537 1108.32 665.185 1110.25 665.407C1108.81 666.635 1107.65 668.148 1106.83 669.85C1106.01 671.552 1105.55 673.406 1105.48 675.295C1105.83 678.191 1107.01 680.923 1108.9 683.148C1110.79 685.372 1113.29 686.992 1116.09 687.804C1129.25 691.437 1139.91 675.89 1154.45 680.894C1156.12 681.432 1157.71 682.215 1159.15 683.217C1156.35 683.024 1153.53 683.459 1150.92 684.489C1148.3 685.52 1145.94 687.12 1144.02 689.174C1141.76 692.033 1139.85 696.917 1141.4 698.764C1147 705.316 1202.87 680.894 1200.61 657.663C1199.36 644.261 1179.29 633.182 1163.44 631.931C1152.76 631.579 1142.19 634.176 1132.88 639.436C1128.64 641.709 1124.65 644.424 1120.97 647.537C1122.92 643.989 1125.35 640.723 1128.18 637.828C1149.15 616.205 1183.28 624.008 1186.02 612.929C1187.03 608.938 1183.22 604.888 1180.54 601.969C1169.34 590.056 1147.48 593.332 1134.91 598.812C1132.84 599.723 1130.85 600.798 1128.95 602.029C1130.86 598.36 1133.5 595.118 1136.7 592.498C1142.19 588.694 1148.57 586.375 1155.22 585.767Z" fill="#ECECEC"/>
<path d="M582.316 903.556C595.599 899.446 598.101 856.559 587.32 851.853C581.899 849.53 573.858 857.035 573.024 857.81C570.24 860.67 568.165 864.143 566.966 867.949C565.766 871.756 565.474 875.791 566.114 879.73C565.474 878.752 564.973 877.689 564.625 876.573C563.849 871.679 564.078 866.679 565.296 861.876C566.515 857.073 568.698 852.569 571.713 848.637C575.203 844.07 579.36 840.054 584.044 836.723C588.934 833.338 593.004 828.901 595.957 823.738C598.379 819.236 599.078 814.005 597.922 809.025C596.451 803.193 593.567 797.813 589.524 793.359C584.739 789.046 578.622 786.502 572.19 786.152C574.457 784.988 576.943 784.312 579.488 784.169C582.032 784.025 584.578 784.417 586.962 785.318C590.06 786.926 591.37 789.488 592.502 789.011C593.634 788.535 593.991 780.612 590.179 775.43C587.903 773.029 585.113 771.176 582.018 770.01C578.922 768.844 575.603 768.396 572.309 768.699C575.999 766.259 580.416 765.166 584.818 765.602C594.17 766.912 598.578 776.919 601.318 775.847C603.105 775.132 603.641 769.89 599.828 753.093C602.846 759.081 605.164 765.397 606.738 771.916C615.673 808.489 597.148 836.366 604.653 840.833C609.836 843.931 623 833.149 629.909 822.964C633.952 816.755 636.664 809.775 637.874 802.465C639.084 795.155 638.765 787.674 636.938 780.493C638.249 782.686 639.346 785 640.214 787.403C643.848 797.946 640.929 805.273 642.18 805.749C644.801 806.583 664.636 779.6 654.093 762.862C650.562 758.085 645.456 754.709 639.678 753.331C643.22 753.22 646.742 753.9 649.988 755.322C653.234 756.744 656.122 758.872 658.441 761.551C662.909 768.401 659.454 777.277 662.551 778.408C665.649 779.54 669.402 770.367 678.217 767.329C684.451 765.737 691.058 766.589 696.683 769.712C691.287 768.334 685.603 768.604 680.362 770.486C664.696 776.443 667.317 795.146 649.745 815.756C635.687 832.256 617.46 839.583 618.413 841.429C619.366 843.276 622.464 839.88 628.122 838.451C647.6 833.626 669.104 842.799 674.584 852.687C675.481 854.341 676.218 856.076 676.788 857.869C678.07 862.034 678.355 866.441 677.622 870.736C677.622 869.008 676.311 854.951 666.006 849.947C664.219 849.113 661.42 847.684 659.573 848.875C655.046 851.853 662.135 869.723 664.755 876.335C671.784 894.205 676.669 906.118 687.45 909.751C697.278 912.849 706.332 906.892 706.63 907.845C703.335 910.996 699.299 913.264 694.895 914.441C690.491 915.617 685.861 915.664 681.434 914.576C672.142 911.479 669.163 902.008 667.734 902.663C665.053 903.973 670.116 938.403 686.557 939.832C695.73 940.785 706.869 931.493 711.813 916.78C706.273 936.377 695.968 949.66 685.961 949.482C674.763 949.482 666.9 932.506 662.135 922.975C644.265 885.448 657.846 858.405 642.716 848.815C633.543 842.859 618.115 846.194 609.836 853.998C591.608 871.212 610.491 905.165 596.433 913.564C585.533 920.235 559.324 908.5 551.044 888.129C547.944 880.015 547.527 871.122 549.853 862.754C550.321 872.506 553.889 881.855 560.038 889.439C562.183 892.239 573.739 906.177 582.316 903.556Z" fill="#ECECEC"/>
<path d="M856.676 712.406C857.629 711.75 867.696 704.186 866.267 695.251C866.192 694.103 865.883 692.984 865.361 691.959C864.839 690.935 864.113 690.028 863.229 689.294C860.857 688.353 858.246 688.198 855.779 688.852C853.313 689.506 851.122 690.935 849.528 692.928C860.548 679.141 868.288 663.029 872.164 645.811C873.593 639.497 881.992 600.898 865.909 591.189C861.63 589.066 856.751 588.477 852.09 589.521C835.352 591.665 830.586 606.557 811.883 612.156C807.241 613.504 802.419 614.127 797.587 614.003C805.428 610.64 812.501 605.715 818.375 599.528C828.166 588.876 834.157 575.283 835.411 560.87C835.551 563.801 836.283 566.674 837.562 569.315C838.842 571.957 840.643 574.311 842.857 576.238C849.886 581.658 858.94 579.514 865.016 578.025C877.124 574.602 887.657 567.06 894.799 556.7C882.885 625.32 880.503 646.049 881.635 646.049C882.766 646.049 883.719 627.524 897.42 618.291C902.84 614.658 909.333 613.05 909.333 609.476C909.333 605.902 905.699 604.472 902.602 602.983C912.568 604.621 921.627 609.751 928.156 617.458C939.533 632.289 935.72 654.21 938.163 654.269C939.652 654.269 941.022 646.049 941.439 641.641C941.945 636.258 941.583 630.827 940.367 625.559L941.558 627.524C952.875 647.479 948.587 681.491 928.99 697.931C917.732 707.402 904.21 708.713 878.775 711.155C871.443 712.036 864.062 712.454 856.676 712.406ZM879.967 680.3C886.757 685.065 905.997 663.085 915.349 669.399C921.305 673.33 918.625 685.124 921.961 685.661C925.296 686.197 928.87 678.334 930.896 671.007C934.053 659.63 935.363 637.531 922.914 631.158C912.788 626.035 899.743 634.493 897.717 635.804C879.014 648.015 873.414 675.892 879.967 680.3ZM880.264 685.72C878.478 687.805 882.052 695.906 888.127 698.884C897.896 703.709 914.038 695.727 915.349 686.137C915.766 683.159 914.932 678.751 912.311 677.56C907.367 675.356 901.768 686.792 890.569 687.031C884.792 687.15 881.575 684.171 880.264 685.72Z" fill="#ECECEC"/>
<path d="M854.534 466.757C857.72 467.361 860.996 467.308 864.161 466.601C867.326 465.894 870.313 464.549 872.94 462.647C876.36 459.244 878.847 455.019 880.162 450.376C881.476 445.734 881.574 440.832 880.445 436.141C878.063 423.87 869.366 420.653 868.532 407.847C868.368 403.988 868.913 400.132 870.14 396.47C869.549 399.599 869.549 402.811 870.14 405.941C870.226 408.876 871.393 411.676 873.416 413.803C874.886 414.542 876.507 414.927 878.152 414.927C879.796 414.927 881.418 414.542 882.887 413.803C892.835 410.229 894.503 399.508 905.463 394.206C911.285 391.802 917.685 391.16 923.869 392.36C948.827 395.159 973.011 418.747 977.061 445.612C977.737 450.552 977.737 455.562 977.061 460.503C969.079 441.442 965.148 437.272 963.004 437.808C959.072 438.761 958.536 457.346 963.004 472.655C967.146 486.159 974.552 498.434 984.567 508.394C961.991 498.089 943.585 495.885 939.058 502.795C935.365 508.454 940.786 520.665 945.849 527.515C950.275 532.634 955.363 537.141 960.978 540.917C960.561 541.691 949.661 534.961 935.365 529.659C919.818 523.703 912.015 520.724 903.08 520.367C891.604 520.278 880.244 522.676 869.783 527.396C860.252 531.446 851.913 536.807 851.913 536.271C851.913 535.735 874.965 524.358 873.833 512.445C873.416 508.632 870.319 502.795 867.162 503.331C865.941 503.593 864.786 504.099 863.767 504.82C860.122 506.777 855.912 507.408 851.854 506.607C858.464 504.852 864.295 500.93 868.413 495.468C874.906 486.355 875.978 472.833 871.749 470.093C869.842 468.902 868.055 470.093 862.814 469.736C859.82 469.582 856.94 468.545 854.534 466.757ZM929.051 441.204C925.34 436.999 923.231 431.621 923.094 426.014C923.094 417.318 929.051 413.506 927.383 406.358C926.799 404.227 925.709 402.269 924.205 400.651C922.701 399.033 920.828 397.803 918.746 397.065C911.122 394.564 903.199 401.831 900.34 404.511C887.414 416.424 887.951 435.962 888.427 440.251C889.023 454.368 894.384 455.619 893.907 467.77C893.133 484.687 882.411 490.346 885.449 496.898C889.738 506.25 917.793 508.811 934.948 495.409C949.125 484.389 950.018 466.817 951.924 431.614C952.46 421.07 951.924 412.791 946.921 409.753C944.683 408.823 942.233 408.525 939.838 408.893C937.443 409.261 935.195 410.279 933.34 411.838C926.192 417.199 924.226 429.112 929.051 441.204ZM967.59 495.17C970.449 491.18 959.191 474.62 952.818 476.109C950.376 476.705 948.886 479.922 948.589 482.066C947.874 488.023 953.831 491.835 954.962 492.669C959.132 495.766 965.863 497.494 967.59 495.17Z" fill="#ECECEC"/>
<path d="M702.88 433.934C703.781 426.265 707.678 419.263 713.721 414.456C717.825 411.369 722.73 409.525 727.851 409.145C732.973 408.765 738.096 409.864 742.611 412.312C762.089 425.297 746.304 473.784 761.91 479.502C763.844 480.143 765.933 480.143 767.867 479.502C783.116 473.963 771.619 427.561 790.621 417.077C794.969 414.695 796.577 416.72 802.951 413.444C811.596 408.585 818.289 400.881 821.893 391.643C821.416 393.251 820.761 395.753 819.808 398.671C815.162 413.861 812.243 418.209 810.158 425.297C805.691 440.07 807.359 457.82 812.362 459.369C814.924 460.143 818.319 456.748 821.893 452.281C826.024 446.836 829.335 440.815 831.721 434.411C831.721 435.721 831.185 437.866 830.649 440.368C824.276 470.746 807.955 478.073 806.823 496.121C805.751 512.085 816.83 529.597 826.301 529.776C833.806 529.776 841.371 520.365 846.017 507.379C840.061 529.597 824.99 542.583 812.72 540.855C800.449 539.128 792.884 520.663 792.527 519.531C787.345 504.58 794.076 495.228 798.841 468.661C804.023 439.951 801.819 419.817 800.747 419.698C799.675 419.579 801.879 475.333 776.921 486.412C773.06 488.267 768.771 489.046 764.505 488.669C760.238 488.291 756.153 486.771 752.677 484.268C737.428 470.031 758.277 432.505 740.764 418.745C740.109 418.209 734.45 413.742 729.804 415.588C720.512 419.281 724.145 444.656 722.597 492.607C721.465 528.883 718.725 536.328 713.245 539.188C703.595 544.846 687.572 532.933 679.53 526.202C681.198 527.393 691.443 534.244 700.676 530.491C713.185 525.487 713.245 506.009 713.304 500.708C713.304 489.629 709.432 476.882 704.965 476.405C700.498 475.928 697.519 485.28 696.268 489.509C695.198 493.221 694.835 497.1 695.196 500.946C694.286 499.064 693.664 497.056 693.35 494.99C692.515 486.897 694.63 478.774 699.306 472.116C714.734 444.061 719.797 435.721 717.176 428.037C717.176 427.144 715.687 423.808 713.304 423.272C708.42 422.676 703.178 433.279 702.88 433.934ZM791.038 423.927C786.987 423.63 778.112 471.58 781.924 473.01C783.83 473.605 788.953 463.003 791.336 454.544C795.446 439.891 793.301 424.106 791.038 423.927ZM799.377 503.15C797.828 503.15 794.731 520.126 803.904 529.24C809.861 535.197 819.332 536.15 819.987 534.72C820.642 533.291 814.03 530.908 808.074 522.807C800.211 512.8 800.568 502.733 799.377 503.15Z" fill="#ECECEC"/>
<path d="M1141.7 541.034C1145.19 541.034 1148.01 538.207 1148.01 534.72C1148.01 531.233 1145.19 528.406 1141.7 528.406C1138.21 528.406 1135.38 531.233 1135.38 534.72C1135.38 538.207 1138.21 541.034 1141.7 541.034Z" fill="#ECECEC"/>
<path d="M1060.87 341.129C1057.18 344.346 1048.96 351.494 1043.48 349.052C1033.94 344.882 1046.93 319.269 1042.16 276.619C1039.25 250.649 1031.26 230.932 1042.94 217.53C1045.28 214.963 1048.06 212.844 1051.16 211.276C1046.81 210.889 1042.44 211.779 1038.59 213.837C1019.29 225.035 1041.57 263.694 1024.59 306.939C1014.59 332.492 994.035 351.613 985.517 348.992C979.561 347.026 973.902 331.658 972.055 322.843C972.055 322.247 972.055 321.83 971.758 321.532C965.444 290.022 981.526 266.434 972.83 241.952C970.995 237.052 968.575 232.392 965.622 228.073C960.849 221.563 955.033 215.887 948.408 211.276C952.291 215.503 955.651 220.183 958.415 225.214C975.272 255.652 970.328 300.982 943.881 318.077C940.202 320.439 936.185 322.227 931.968 323.379C935.643 324.122 939.452 323.855 942.987 322.604C947.216 320.937 948.17 318.673 950.135 318.911C955.02 319.626 960.678 334.815 954.543 341.546C950.612 345.776 944.476 343.81 934.827 350.064C932.706 351.476 930.713 353.07 928.87 354.83C941.713 352.106 954.984 352.106 967.826 354.83C978.786 357.331 985.1 361.561 994.929 359.535C1002.01 357.623 1008.42 353.788 1013.45 348.456C1025.84 337.138 1029.77 324.63 1031.92 325.285C1032.87 325.642 1032.46 328.204 1032.28 331.956C1032.1 335.709 1031.56 352.685 1038.23 357.272C1043.77 361.084 1054.02 357.272 1060.09 353.46C1082.25 338.985 1079.81 302.173 1078.92 302.054C1078.02 301.935 1078.2 325.94 1060.87 341.129Z" fill="#ECECEC"/>
<path d="M289.669 522.989C285.976 526.205 277.756 533.353 272.216 530.911C262.745 526.741 275.731 501.485 270.965 458.538C268.047 432.508 260.065 412.792 271.74 399.389C274.07 396.893 276.862 394.87 279.96 393.433C275.596 392.998 271.201 393.869 267.332 395.934C248.092 407.133 270.37 445.791 253.393 489.036C243.386 514.59 222.836 533.71 214.318 531.09C208.362 529.124 202.703 513.756 200.856 504.94C200.856 504.344 200.856 503.928 200.558 503.63C194.244 472.119 210.327 448.531 201.571 424.05C199.746 419.052 197.326 414.292 194.364 409.873C189.576 403.427 183.76 397.812 177.149 393.254C181.018 397.493 184.377 402.171 187.156 407.192C204.013 437.631 199.069 482.96 172.622 500.056C168.935 502.416 164.921 504.222 160.709 505.417C164.39 506.135 168.197 505.847 171.728 504.583C176.017 502.974 176.97 500.651 178.936 500.949C183.82 501.604 189.479 516.853 183.344 523.525C179.412 527.754 173.277 525.788 163.627 532.043C161.495 533.438 159.501 535.034 157.671 536.808C170.517 534.115 183.781 534.115 196.627 536.808C207.587 539.31 213.901 543.539 223.73 541.514C230.736 539.624 237.072 535.806 242.016 530.494C254.406 519.236 258.337 506.668 260.482 507.382C261.435 507.382 261.018 510.301 260.839 513.994C260.66 517.687 260.124 534.723 266.796 539.31C272.335 543.182 282.581 539.31 288.657 535.497C310.875 521.023 308.432 484.271 307.539 484.092C306.645 483.913 306.765 507.799 289.669 522.989Z" fill="#ECECEC"/>
<path d="M1213.42 341.133C1209.78 344.35 1201.5 351.498 1196.02 349.055C1186.55 344.886 1199.54 319.272 1194.77 276.623C1191.85 250.652 1183.81 230.936 1195.55 217.534C1197.87 214.954 1200.66 212.833 1203.77 211.279C1199.4 210.899 1195.01 211.788 1191.14 213.841C1171.9 225.039 1194.18 263.697 1177.2 306.942C1167.19 332.496 1146.64 351.617 1138.12 348.996C1131.87 347.03 1126.51 331.662 1124.66 322.846C1124.66 322.251 1124.66 321.834 1124.37 321.536C1117.99 290.026 1134.13 266.437 1125.38 241.956C1123.55 237.064 1121.15 232.406 1118.23 228.077C1113.44 221.581 1107.63 215.908 1101.02 211.279C1104.9 215.507 1108.26 220.187 1111.02 225.218C1127.88 255.656 1122.94 300.986 1096.49 318.081C1092.8 320.428 1088.79 322.214 1084.57 323.383C1088.25 324.126 1092.06 323.858 1095.59 322.608C1099.88 320.94 1100.84 318.677 1102.74 318.915C1107.69 319.63 1113.35 334.819 1107.21 341.55C1103.28 345.779 1097.14 343.814 1087.49 350.068C1085.36 351.464 1083.37 353.059 1081.54 354.833C1094.38 352.111 1107.65 352.111 1120.49 354.833C1131.45 357.335 1137.77 361.564 1147.6 359.539C1154.67 357.626 1161.09 353.792 1166.12 348.46C1178.51 337.142 1182.44 324.633 1184.59 325.289C1185.54 325.646 1185.06 328.207 1184.94 331.96C1184.82 335.713 1184.23 352.689 1190.9 357.276C1196.44 361.088 1206.69 357.276 1212.76 353.463C1234.86 338.989 1232.42 302.177 1231.52 302.058C1230.63 301.939 1230.81 325.944 1213.42 341.133Z" fill="#ECECEC"/>
<path d="M1146.29 219.261C1160.41 216.818 1166.78 199.961 1180.84 200.795C1184.86 201.135 1188.69 202.647 1191.86 205.144C1189.39 200.883 1185.67 197.492 1181.2 195.434C1174.58 193.054 1167.3 193.331 1160.88 196.209C1147.48 201.331 1146.59 210.683 1136.64 212.53C1133.34 212.977 1129.97 212.726 1126.77 211.792C1123.57 210.858 1120.6 209.263 1118.06 207.109C1131.1 219.022 1140.33 220.273 1146.29 219.261Z" fill="#ECECEC"/>
<path d="M933.695 769.53C947.812 767.148 954.186 750.231 968.243 751.124C972.268 751.476 976.111 752.963 979.323 755.413C976.832 751.166 973.086 747.795 968.601 745.764C961.989 743.358 954.698 743.636 948.289 746.538C934.946 751.601 934.053 761.012 924.105 762.859C920.797 763.262 917.442 762.983 914.246 762.041C911.05 761.098 908.081 759.512 905.521 757.379C918.565 769.292 927.739 770.543 933.695 769.53Z" fill="#ECECEC"/>
<path d="M848.278 891.939C844.644 895.096 836.364 902.244 830.884 899.801C821.354 895.691 834.399 870.376 829.574 827.429C826.655 801.458 818.673 781.682 830.408 768.28C832.704 765.693 835.474 763.57 838.568 762.025C834.223 761.592 829.848 762.463 826 764.527C806.76 775.726 829.038 814.384 812.061 857.629C802.054 883.183 781.444 902.303 772.927 899.682C766.97 897.717 761.371 882.349 759.465 873.533C759.465 872.997 759.465 872.52 759.465 872.282C753.091 840.712 769.233 817.183 760.477 792.702C758.642 787.795 756.244 783.117 753.329 778.763C748.501 772.332 742.668 766.721 736.055 762.145C739.947 766.379 743.325 771.057 746.122 776.083C762.979 806.521 758.035 851.851 731.588 868.946C727.889 871.285 723.878 873.089 719.675 874.307C723.356 875.026 727.163 874.738 730.694 873.473C734.983 871.865 735.877 869.542 737.842 869.84C742.727 870.555 748.445 885.744 742.25 892.415C738.378 896.644 732.243 894.679 722.593 900.933C720.446 902.331 718.45 903.948 716.637 905.758C729.476 903.006 742.753 903.006 755.593 905.758C766.553 908.2 772.867 912.489 782.695 910.404C789.788 908.524 796.208 904.684 801.22 899.325C813.61 888.067 817.542 875.499 819.686 876.213C820.639 876.213 820.162 879.132 820.043 882.825C819.924 886.518 819.328 903.554 826 908.141C831.54 912.012 841.785 908.141 847.92 904.328C870.019 889.854 867.577 853.102 866.683 852.923C865.79 852.744 865.671 876.69 848.278 891.939Z" fill="#ECECEC"/>
<path d="M837.974 1685.66C829.933 1703.53 811.884 1742.54 799.554 1729.08C778.527 1706.27 807.298 1567.18 796.695 1331C790.262 1188.04 772.571 1079.63 798.482 1005.95C802.445 993.526 808.488 981.864 816.352 971.461C809.084 970.329 798.482 971.461 788.534 985.34C746.004 1046.93 795.206 1259.34 757.679 1497.19C735.58 1637.65 690.191 1742.84 671.368 1728.31C657.549 1717.64 645.695 1633 641.585 1584.63C641.585 1581.54 641.168 1579.09 641.049 1577.6C626.991 1404.27 662.552 1274.65 643.253 1140.03C639.484 1114.25 634.214 1088.72 627.468 1063.55C618.262 1031.78 605.473 1001.17 589.346 972.295C598.469 997.279 605.892 1022.85 611.564 1048.84C648.733 1216.28 638.011 1465.44 579.398 1559.44C572.697 1570.85 563.811 1580.83 553.249 1588.8C557.249 1590.78 561.781 1591.41 566.17 1590.61C570.56 1589.8 574.572 1587.6 577.611 1584.34C587.499 1575.34 589.346 1562.65 593.456 1564.2C604.297 1568.07 616.865 1651.65 603.224 1688.4C594.587 1711.75 581.066 1700.79 559.741 1735.39C554.654 1743.76 550.252 1752.53 546.577 1761.6C584.223 1743.38 612.874 1750.82 632.59 1761.96C656.834 1775.54 670.772 1798.95 692.514 1787.57C710.741 1778.1 722.773 1750.82 733.436 1726.7C760.776 1664.75 769.175 1595.65 774.179 1599.58C776.323 1601.31 775.311 1615.61 775.013 1636.16C774.596 1660.88 773.404 1750.05 787.998 1775.24C799.911 1796.39 822.844 1776.2 836.306 1754.28C885.21 1674.76 879.789 1472.53 878.002 1471.58C876.215 1470.62 876.335 1601.97 837.974 1685.66Z" fill="#ECECEC"/>
<path d="M1119.96 521.973C1116.27 525.19 1108.05 532.338 1102.57 529.896C1093.04 525.726 1106.08 500.113 1101.26 457.464C1098.34 431.493 1090.36 411.776 1102.09 398.374C1104.38 395.759 1107.15 393.614 1110.25 392.06C1105.9 391.681 1101.54 392.57 1097.68 394.621C1078.44 405.82 1100.66 444.478 1083.75 487.723C1073.68 513.277 1053.13 532.398 1044.61 529.777C1038.36 527.811 1032.7 512.443 1031.15 503.627V502.317C1024.78 470.806 1040.92 447.218 1032.16 422.737C1030.33 417.829 1027.93 413.152 1025.01 408.798C1020.17 402.401 1014.34 396.812 1007.74 392.239C1011.63 396.477 1015 401.155 1017.81 406.177C1034.6 436.615 1029.72 481.945 1003.27 499.041C999.585 501.387 995.571 503.174 991.359 504.342C995.035 505.085 998.843 504.818 1002.38 503.568C1006.61 501.9 1007.56 499.636 1009.53 499.874C1014.41 500.589 1020.07 515.779 1013.93 522.51C1010 526.739 1003.87 524.714 994.218 531.027C992.097 532.439 990.104 534.033 988.262 535.793C1001.1 533.069 1014.38 533.069 1027.22 535.793C1038.18 538.295 1044.49 542.524 1054.38 540.439C1061.46 538.555 1067.87 534.739 1072.91 529.419C1085.24 518.102 1089.17 505.593 1091.31 506.248C1092.26 506.605 1091.85 509.167 1091.73 512.919C1091.61 516.672 1090.95 533.648 1097.68 538.235C1103.22 542.047 1113.47 538.235 1119.6 534.423C1141.7 519.948 1139.26 483.136 1138.37 483.017C1137.47 482.898 1137.36 506.784 1119.96 521.973Z" fill="#ECECEC"/>
<path d="M1052.77 400.101C1066.89 397.659 1073.26 380.801 1087.32 381.635C1091.36 381.977 1095.21 383.488 1098.4 385.984C1095.95 381.754 1092.27 378.368 1087.85 376.274C1081.24 373.9 1073.96 374.178 1067.54 377.049C1054.2 382.171 1053.31 391.523 1043.36 393.37C1040.05 393.817 1036.69 393.566 1033.49 392.632C1030.29 391.698 1027.32 390.103 1024.77 387.949C1037.64 399.863 1046.81 401.113 1052.77 400.101Z" fill="#ECECEC"/>
<path d="M514.413 468.844C512.754 470.586 510.71 471.913 508.444 472.72C506.178 473.527 503.755 473.791 501.368 473.491C494.578 471.465 492.851 461.577 492.672 460.505C492.096 455.786 492.785 450.999 494.669 446.634C496.553 442.269 499.564 438.484 503.394 435.666C507.742 432.747 511.733 432.509 515.307 427.565C517.023 425.238 518.24 422.582 518.881 419.762C517.35 422.244 515.26 424.334 512.778 425.865C510.296 427.396 507.49 428.325 504.585 428.578C496.841 428.578 492.672 416.367 489.455 406.479C486.9 399.24 485.357 391.683 484.869 384.022C484.65 394.79 481.698 405.325 476.291 414.639C478.804 413.682 481.581 413.682 484.094 414.639C491.897 418.213 493.267 434.356 488.74 445.554C482.188 461.875 461.519 470.274 457.826 466.64C456.754 465.509 456.634 462.888 459.851 456.276C456.967 460.123 453.604 463.585 449.844 466.581C442.279 472.538 439.182 471.525 437.931 471.108C425.541 465.568 445.793 406.479 427.626 395.4C423.276 392.694 418.21 391.365 413.092 391.587C408.376 391.94 403.728 392.922 399.272 394.506C415.593 390.873 421.967 396.353 423.516 397.782C433.285 407.075 430.366 431.437 419.823 446.626C412.139 457.706 400.881 464.794 401.953 477.184C402.103 479.216 402.524 481.219 403.204 483.14C403.37 476.755 406.02 470.686 410.59 466.224C412.377 464.675 417.5 460.267 422.503 461.756C425.012 463.156 427.007 465.322 428.196 467.937C429.386 470.552 429.708 473.479 429.115 476.29C427.387 486.238 414.938 486.714 406.361 499.044C402.015 505.562 399.637 513.192 399.511 521.024C400.459 517.899 401.779 514.9 403.442 512.089C406.361 507.205 410.232 500.712 416.308 500.176C418.088 500.155 419.848 500.548 421.45 501.323C423.053 502.098 424.453 503.235 425.541 504.644C430.008 510.6 427.03 520.488 422.027 525.968C419.109 528.909 415.407 530.95 411.363 531.847C407.318 532.745 403.101 532.462 399.213 531.031C395.588 529.64 392.342 527.416 389.734 524.54C387.127 521.664 385.232 518.215 384.202 514.472C384.804 520.875 387.53 526.892 391.946 531.567C396.904 536.434 403.434 539.377 410.365 539.868C417.295 540.359 424.175 538.367 429.77 534.248C435.542 528.185 438.707 520.102 438.586 511.732C439.241 499.819 433.999 496.007 436.978 487.25C439.141 481.455 443.389 476.676 448.891 473.848C457.23 469.381 474.325 469.917 480.997 478.554C483.022 481.234 482.843 482.962 483.499 498.151C484.511 521.977 485.405 525.73 488.026 529.78C493.506 538.06 503.632 541.694 504.525 540.443C505.419 539.192 499.522 535.797 495.829 528.53C493.331 523.062 492.118 517.094 492.283 511.085C492.448 505.076 493.987 499.184 496.782 493.862C503.811 480.758 512.329 481.651 520.013 466.938C523.293 460.443 525.103 453.305 525.314 446.031C524.784 454.763 520.874 462.946 514.413 468.844Z" fill="#ECECEC"/>
<path d="M543.061 893.903C543.119 896.292 542.456 898.643 541.16 900.65C539.864 902.658 537.995 904.23 535.794 905.161C529.837 906.829 523.881 900.813 522.392 895.809C521.79 892.886 521.797 889.87 522.412 886.949C523.027 884.028 524.237 881.266 525.966 878.833C532.577 867.873 538.534 835.528 539.844 753.327C538.515 760.474 535.037 767.046 529.875 772.165C524.713 777.284 518.113 780.708 510.955 781.978C503.637 782.672 496.302 780.844 490.166 776.796C491.189 780.16 492.92 783.266 495.242 785.907C497.563 788.547 500.423 790.66 503.628 792.105C511.015 794.487 515.125 789.365 520.069 792.105C529.718 797.227 529.956 827.308 517.031 835.528C511.074 839.4 506.488 835.528 497.136 839.996C486.116 845.297 484.091 854.768 480.338 853.815C474.381 852.445 481.291 830.584 470.033 815.931C463.293 808.041 453.996 802.77 443.765 801.04C446.981 802.588 450.793 804.971 450.734 807.711C450.734 811.404 443.884 813.072 438.344 816.825C424.286 826.355 423.274 845.595 422.142 845.357C421.01 845.118 423.572 823.794 435.604 753.268C429.486 761.979 421.074 768.824 411.301 773.043C415.308 789.46 416.696 806.408 415.411 823.258C414.905 829.62 414.01 835.946 412.731 842.2L412.135 844.821C403.26 883.717 394.265 885.742 394.265 885.742C386.343 887.529 378.301 867.515 359.836 838.09C336.01 799.967 315.042 767.385 289.548 767.027C282.996 767.027 272.036 768.933 258.395 782.514C271.737 789.606 283.162 799.826 291.693 812.297C301.085 824.493 306.604 839.225 307.537 854.589C308.192 874.008 300.508 902.242 285.796 906.293C260.361 913.262 238.619 840.77 208.36 845.118C178.934 849.109 165.353 921.244 166.664 921.78C167.974 922.316 184.533 851.194 211.755 850.301C238.202 849.407 252.319 914.87 282.222 911.773C287.16 910.851 291.843 908.88 295.953 905.992C300.064 903.104 303.506 899.368 306.048 895.035C315.579 879.428 310.039 858.759 314.03 857.985C316.71 857.449 319.986 866.264 320.88 867.813C324.373 876.705 325.661 886.311 324.633 895.809L326.956 877.522C326.349 861.42 320.865 845.882 311.23 832.967C286.808 796.751 271.321 784.659 274.716 777.69C277.456 771.733 290.978 774.414 293.36 774.771C313.792 778.166 327.075 794.666 338.511 810.987C357.906 838.909 374.185 868.871 387.058 900.336C387.449 898.001 388.372 895.786 389.756 893.865C391.14 891.944 392.948 890.367 395.04 889.257C396.311 888.64 397.706 888.32 399.12 888.32C400.533 888.32 401.928 888.64 403.2 889.257C404.109 889.978 404.859 890.879 405.402 891.904C405.946 892.93 406.271 894.056 406.357 895.213C407.846 904.446 397.422 912.19 396.529 913.083C404.223 913.31 411.923 913.031 419.581 912.249C447.994 909.509 462.17 908.556 471.165 898.668C480.159 888.78 473.845 881.93 486.95 860.427C495.23 846.905 500.59 844.88 503.986 844.642C507.215 844.424 510.441 845.119 513.295 846.646C516.149 848.173 518.517 850.471 520.128 853.279C526.859 867.098 501.424 883.062 507.262 899.681C509.126 904.052 512.255 907.766 516.246 910.345C520.237 912.924 524.908 914.251 529.659 914.155C535.198 913.798 543.835 910.641 545.325 903.672C545.882 900.245 545.069 896.736 543.061 893.903ZM456.452 885.981C455.142 895.809 438.582 903.85 428.516 899.085C422.202 895.988 418.509 887.648 420.355 885.504C422.202 883.36 425.061 886.993 431.017 886.874C442.514 886.874 448.232 874.961 453.295 877.165C456.095 878.416 456.988 882.943 456.452 885.981ZM472.416 870.434C470.331 877.939 466.102 885.981 463.243 885.504C460.383 885.028 462.409 872.757 456.452 868.766C446.862 862.273 427.026 884.908 420.117 879.964C413.207 875.02 419.045 846.727 438.284 834.218C440.429 832.848 453.831 824.151 464.255 829.452C477.121 835.945 475.692 858.699 472.475 870.434H472.416Z" fill="#ECECEC"/>
<path d="M1186.73 845.238C1156.24 841.128 1134.55 913.382 1109.3 906.412C1094.65 902.362 1086.96 874.187 1087.62 854.709C1088.61 839.412 1094.13 824.756 1103.46 812.596C1111.99 800.126 1123.42 789.907 1136.76 782.813C1123.06 769.232 1112.16 767.266 1105.55 767.326C1075.41 767.743 1047.47 809.975 1035.32 838.448C1025.25 862.274 1023.4 882.288 1003.45 894.916C999.281 897.597 990.048 903.494 983.734 900.098C973.012 894.142 987.189 870.315 982.423 827.726C979.505 801.755 971.523 781.979 983.257 768.577C985.541 765.977 988.314 763.852 991.418 762.322C987.073 761.889 982.697 762.76 978.849 764.824C959.61 776.022 981.828 814.681 964.851 857.926C954.844 883.479 934.294 902.6 925.776 899.979C919.522 898.014 914.161 882.646 912.314 873.83C912.314 873.294 912.314 872.817 912.314 872.579C905.941 841.009 922.023 817.48 913.327 792.999C911.492 788.092 909.093 783.414 906.179 779.06C901.351 772.629 895.518 767.017 888.905 762.441C892.777 766.691 896.154 771.368 898.971 776.38C915.769 806.818 910.885 852.148 884.437 869.243C880.738 871.582 876.728 873.386 872.524 874.604C876.206 875.322 880.013 875.034 883.544 873.77C887.773 872.162 888.726 869.839 890.692 870.137C895.576 870.851 901.235 886.041 895.1 892.712C891.168 896.941 885.033 894.976 875.383 901.23C873.259 902.659 871.265 904.273 869.427 906.055C882.266 903.301 895.544 903.301 908.383 906.055C919.343 908.497 925.657 912.786 935.545 910.701C942.638 908.821 949.058 904.981 954.07 899.622C966.4 888.364 970.332 875.795 972.476 876.51C973.429 876.51 973.012 879.429 972.833 883.122C972.655 886.815 972.119 903.851 978.79 908.438C985.461 913.024 998.447 905.876 1000.65 904.625C1029.3 888.602 1025.01 857.985 1057 811.285C1071.3 790.497 1084.94 777.929 1102.15 775.129C1104.59 774.712 1118.11 772.389 1120.85 777.988C1124.25 784.957 1108.94 797.049 1084.34 833.265C1074.67 846.185 1069.18 861.753 1068.62 877.88C1069.39 883.837 1070.16 889.793 1070.88 896.107C1069.88 886.61 1071.17 877.011 1074.63 868.111C1075.29 866.563 1078.86 857.747 1081.48 858.283C1085.53 859.117 1079.99 879.727 1089.46 895.393C1092.04 899.699 1095.49 903.414 1099.59 906.298C1103.7 909.182 1108.37 911.169 1113.29 912.131C1143.07 915.169 1157.31 849.705 1183.76 850.659C1210.2 851.612 1227.66 922.674 1228.79 922.138C1229.92 921.602 1216.16 849.289 1186.73 845.238Z" fill="#ECECEC"/>
</svg>
