<svg width="1400" height="2000" viewBox="0 0 1400 2000" fill="none" xmlns="http://www.w3.org/2000/svg">
<rect width="1399.32" height="2000" fill="#141414"/>
<path d="M889.707 206.513C886.362 212.077 883.669 218.009 881.683 224.19C874.323 247.176 879.39 277.522 893.206 283.012C896.996 284.041 900.938 284.389 904.85 284.038C911.453 284.502 918.071 283.385 924.156 280.78C931.818 276.376 931.637 266.663 935.075 256.949C942.134 237.282 958.001 214.718 979.539 207.056C990.672 203.114 1002.68 202.341 1014.23 204.824C1005.78 206.091 982.495 210.133 982.012 217.614C981.65 223.164 994.078 231.068 1003.79 228.896C1010.31 227.387 1012.06 222.139 1020.56 214.899C1026.76 209.657 1033.85 205.571 1041.5 202.833C1028.59 213.648 1018.18 227.129 1010.97 242.349C1004.56 256.574 1000.78 271.843 999.81 287.416C997.336 308.652 994.44 333.87 1007.23 342.136C1011.14 344.437 1015.72 345.332 1020.2 344.67C1017.65 346.295 1014.79 347.375 1011.8 347.842C1008.81 348.309 1005.75 348.154 1002.83 347.384C992.449 343.765 991.907 330.251 983.219 329.285C980.285 328.956 977.333 329.714 974.92 331.415C972.508 333.116 970.803 335.642 970.127 338.516C970.267 340.659 971.01 342.719 972.269 344.459C973.529 346.199 975.254 347.548 977.246 348.35C972.494 348.935 967.677 348.69 963.008 347.626C950.842 344.363 940.456 336.427 934.11 325.545C926.81 312.031 932.722 304.731 925.422 297.672C921.33 294.482 916.404 292.541 911.235 292.081C906.066 291.62 900.875 292.661 896.283 295.078C878.184 304.248 873.78 334.956 884.217 344.127C886.438 345.773 889.016 346.871 891.742 347.333C894.468 347.794 897.264 347.605 899.903 346.781C894.714 351.668 888.44 355.951 882.95 354.322C874.202 351.728 872.935 335.68 868.652 336.223C866.6 336.223 864.187 340.205 861.774 354.322C859.944 351.92 858.651 349.152 857.985 346.206C857.319 343.26 857.294 340.205 857.913 337.249C860.145 331.216 865.937 331.216 869.979 323.735C874.866 315.047 873.357 302.68 868.471 300.206C866.48 299.12 865.092 299.905 860.447 300.568C855.838 301.051 851.198 300.012 847.234 297.612C860.326 296.466 866.178 291.579 869.014 288.08C879.933 274.204 865.394 254.174 874.081 229.439C877.327 220.629 882.694 212.755 889.707 206.513ZM994.621 263.284C991.907 262.439 988.588 274.445 978.815 275.35C976.175 275.6 973.519 275.098 971.153 273.902C974.341 272.698 977.214 270.785 979.555 268.308C981.896 265.831 983.644 262.855 984.667 259.604C985.781 255.583 985.658 251.319 984.313 247.37C982.967 243.42 980.463 239.967 977.126 237.463C973.406 235.56 969.243 234.691 965.073 234.946C960.902 235.201 956.877 236.57 953.416 238.911C927.353 255.381 933.627 327.777 953.536 333.81C966.266 337.913 983.702 314.203 984.848 312.212C1000.05 291.036 998.362 264.37 994.621 263.284Z" fill="#ECECEC"/>
<path d="M699.667 355.289C719.938 350.222 735.865 336.527 739.726 319.091C741.077 313.306 741.239 307.308 740.202 301.459C739.165 295.61 736.951 290.032 733.693 285.065C730.893 280.78 726.587 277.702 721.627 276.438C716.786 275.625 711.818 276.705 707.751 279.454C711.334 274.931 716.288 271.692 721.869 270.224C731.039 268.172 736.831 273.3 741.838 269.862C744.553 267.991 744.854 265.156 746.363 253.572C747.221 243.169 748.854 232.844 751.249 222.683C752.54 215.662 755.662 209.107 760.299 203.679C764.689 199.459 770.097 196.447 775.996 194.935C781.895 193.423 788.085 193.463 793.963 195.052C798.79 196.44 802.832 198.973 802.591 199.577C796.896 198.136 791.024 197.527 785.155 197.767C776.407 198.913 767.056 204.403 767.056 209.833C767.219 211.591 768.064 213.215 769.409 214.358C776.528 220.813 792.696 213.332 801.022 210.255C803.108 209.432 805.126 208.443 807.055 207.299C818.578 201.266 829.981 197.224 840.357 200.783C843.331 201.776 846.064 203.379 848.381 205.489C841.639 203.441 834.468 203.253 827.628 204.946C821.098 206.572 815.108 209.879 810.253 214.539C807.184 217.037 805.056 220.505 804.219 224.372C803.888 226.197 803.948 228.07 804.395 229.87C804.843 231.669 805.667 233.353 806.814 234.81C810.936 240.37 815.582 245.522 820.69 250.194C829.691 258.436 835.999 269.201 838.789 281.083C841.443 303.586 811.761 314.023 813.088 340.267C813.445 346.686 815.416 352.912 818.819 358.366C814.075 355.635 810.22 351.592 807.719 346.722C804.971 339.999 804.217 332.627 805.547 325.486C806.271 317.764 806.452 310.042 806.693 302.38C806.693 299.303 806.271 298.88 803.616 299.966C799.986 301.523 796.029 302.166 792.093 301.837C785.638 301.173 783.406 295.381 774.537 291.098C765.668 286.814 751.249 287.116 747.449 292.968C745.458 296.045 747.449 298.518 748.112 306.784C748.955 315.015 747.667 323.325 744.372 330.916C739.193 339.837 730.966 346.586 721.205 349.92C714.37 352.883 707.093 354.697 699.667 355.289ZM749.319 281.023C752.637 282.169 757.101 276.679 759.635 274.145C773.029 261.053 794.687 272.154 801.867 263.286C809.046 254.417 797.583 222.864 782.199 220.632C762.23 217.736 743.587 264.009 746.423 276.196C746.604 277.282 747.268 280.299 749.319 281.023ZM812.605 313.903C814.053 314.325 816.768 310.705 822.138 303.466C829.619 293.511 830.342 290.615 830.644 288.624C831.247 284.642 830.644 278.127 827.507 276.558C824.37 274.99 819.362 279.816 818.518 280.721C815.369 283.923 813.266 288.003 812.485 292.425C810.795 300.328 809.529 312.937 812.605 313.903ZM795.954 271.671C788.594 271.309 782.742 279.152 783.888 283.436C785.517 289.831 803.435 292.485 806.572 287.357C807.004 285.627 807.066 283.825 806.753 282.07C806.441 280.314 805.761 278.644 804.759 277.169C803.757 275.694 802.454 274.448 800.937 273.511C799.42 272.574 797.722 271.967 795.954 271.732V271.671Z" fill="#ECECEC"/>
<path d="M1046.75 1178.44C1047.29 1163.11 1049.7 1104.71 1061.59 1068.15C1072.93 1033.52 1090.31 1025.92 1101.17 1056.09C1127.89 1129.81 1106.29 1404.67 1127.59 1437.19C1131.75 1443.23 1135.62 1437.86 1136.16 1437.19C1157.03 1405.7 1141.23 1142.48 1167.29 1083.17C1173.32 1069.54 1175.19 1080.94 1184.12 1062.36C1198.12 1033.34 1205.84 979.406 1210.12 938.804C1209.52 948.034 1208.55 962.031 1207.29 978.803C1200.89 1064.95 1196.91 1089.69 1194.02 1129.63C1187.98 1213.61 1190.21 1314.18 1197.03 1322.69C1200.59 1327.21 1205.48 1308.09 1210.12 1282.75C1213.74 1263.38 1219.05 1230.2 1223.58 1180.19C1223.58 1187.61 1222.85 1199.97 1222.13 1215.12C1213.38 1387.6 1191 1428.87 1189.31 1531.61C1187.86 1622.11 1203.06 1721.47 1216.04 1722.49C1226.23 1723.28 1236.61 1668.86 1242.94 1595.38C1235.1 1721.47 1214.17 1795.01 1197.39 1785.3C1179.29 1774.86 1170.24 1670.67 1169.7 1664.22C1162.64 1579.33 1171.81 1526.36 1178.39 1375.6C1185.51 1212.7 1182.49 1098.62 1181.04 1098.08C1178.57 1097.11 1182.55 1413.54 1148.34 1476.59C1138.69 1494.39 1123.49 1496.56 1115.16 1464.1C1094.29 1383.38 1122.83 1170.47 1099.24 1093.31C1098.33 1090.29 1090.61 1064.95 1084.21 1075.21C1071.54 1096.08 1076.49 1239.91 1074.38 1512C1072.81 1717.97 1069.07 1760.08 1061.59 1776.43C1047.77 1806.6 1025.81 1739.39 1014.83 1701.8C1017.13 1708.38 1031 1747.17 1043.79 1725.93C1060.93 1697.52 1060.99 1587.17 1061.05 1557.55C1061.05 1494.75 1055.74 1420.78 1049.64 1419.76C1043.55 1418.73 1039.45 1469.83 1037.58 1493.48C1035.71 1520.27 1035.77 1543.62 1036.07 1558.22C1035.23 1550.92 1034.14 1540.12 1033.54 1526.12C1032.16 1482.77 1034.79 1439.39 1041.38 1396.53C1062.56 1237.44 1069.49 1189.9 1065.51 1146.28C1065.09 1141.27 1063.46 1122.15 1060.26 1119.55C1054.35 1114.67 1047.17 1175.06 1046.75 1178.44ZM1167.41 1121.79C1161.86 1119.98 1149.73 1393.27 1154.98 1400.21C1157.52 1403.53 1164.57 1343.32 1167.83 1295.54C1173.56 1212.46 1170.67 1122.93 1167.53 1121.91L1167.41 1121.79ZM1178.87 1569.92C1176.76 1571.13 1172.48 1666.09 1184.91 1717.97C1193.11 1751.88 1206.02 1757.18 1206.99 1748.86C1207.95 1740.53 1198.6 1727.26 1190.46 1683.04C1180.08 1625.97 1180.62 1569.14 1178.99 1570.04L1178.87 1569.92Z" fill="#ECECEC"/>
<path d="M477.109 1069.42C468.361 1046.25 461.362 1042.45 456.596 1043.17C440.669 1045.71 436.144 1100.97 418.83 1104.35C408.694 1106.34 406.763 1087.94 398.317 1098.32C387.518 1112.43 382.209 1157.14 380.821 1169.08C373.642 1230.38 375.874 1309.29 381.907 1317.19C385.829 1322.2 387.94 1292.52 395.482 1291.73C404.471 1290.77 409.659 1334.39 414.063 1326C417.08 1319.97 415.21 1297.89 419.252 1275.32C422.329 1258.25 426.974 1251.19 430.353 1247.51C425.761 1261.96 423.282 1277 422.992 1292.16C421.967 1333.36 435.058 1373.66 447.124 1379.88C461.121 1387.3 471.86 1345.37 476.023 1329.02C481.914 1304.28 485.948 1279.13 488.089 1253.79C487.304 1266.52 480.909 1366.24 459.492 1401.35C456.958 1405.58 448.21 1419.82 437.592 1412.82C425.526 1404.73 422.751 1376.26 411.952 1370.59C402.902 1366.12 393.249 1380.36 386.854 1403.35C368.393 1469.71 378.951 1602.44 380.52 1622.4C383.174 1655.95 385.648 1686.11 392.103 1697.82C402.058 1715.92 407.608 1663.67 425.828 1662.16C436.627 1661.26 438.437 1679.48 458.044 1683.82C460.771 1684.77 463.719 1684.89 466.512 1684.16C469.306 1683.43 471.818 1681.88 473.73 1679.72C482.78 1670.31 489.114 1649.92 492.795 1635.98C491.599 1646.11 489.887 1656.18 487.666 1666.14C475.299 1720.44 456.114 1707.23 456.053 1718.93C455.993 1730.64 472.222 1751.03 485.314 1729.85C487.485 1726.35 489.175 1722.37 489.175 1722.55C489.175 1722.73 476.807 1767.5 463.957 1764C449.598 1760.02 448.21 1698.9 434.817 1693.41C420.217 1687.38 416.718 1754.11 399.222 1757.18C386.372 1759.35 379.615 1720.14 370.988 1738.48C368.333 1744.15 364.955 1756.1 358.922 1759.05C358.083 1759.46 357.147 1759.62 356.22 1759.53C355.293 1759.43 354.41 1759.08 353.673 1758.51C366.045 1720.93 371.043 1681.31 368.393 1641.83C367.006 1622.89 362.903 1600.5 358.318 1599.6C350.777 1598.63 344.865 1655.71 342.874 1688.16C342.029 1702.46 341.727 1714.59 341.667 1722.55C340.678 1682.27 342.269 1641.97 346.433 1601.89C349.812 1572.21 352.044 1570.34 358.499 1527.2C364.955 1484.07 375.874 1415.05 369.841 1379.88C369.344 1373.05 366.8 1366.53 362.541 1361.17C351.199 1347.36 339.616 1386.75 339.254 1384.1C338.892 1381.45 351.32 1360.33 359.103 1319.37C371.772 1254.63 369.298 1164.74 368.212 1127.09C366.952 1075.59 362.398 1024.23 354.578 973.311C358.204 991.206 363.145 1008.81 369.359 1025.98C386.251 1070.93 405.557 1077.92 406.22 1068.21C406.703 1062.9 401.153 1056.14 395.904 1026.4C393.31 1011.62 391.802 997.141 390.897 986.221C406.04 1064.11 416.899 1076.42 424.139 1071.77C431.378 1067.12 437.049 1040.58 453.037 1028.94C459.734 1023.99 463.353 1027.85 464.319 1028.94C471.015 1036.84 475.238 1058.32 477.109 1069.42Z" fill="#ECECEC"/>
<path d="M579.55 1107.79C579.55 1104.11 558.494 1086.79 541.964 1141.63C534.746 1168.44 530.1 1195.87 528.088 1223.56C525.982 1200.71 525.82 1177.72 527.605 1154.85C533.638 1084.92 565.251 1052.29 590.469 1068.57C608.568 1080.1 617.015 1111.41 631.434 1091.2C642.094 1073.8 647.479 1053.68 646.939 1033.28C646.931 1019.95 644.772 1006.71 640.544 994.066C644.887 997.807 649.472 1005.17 651.101 1020.79C653.937 1047.88 645.068 1070.81 642.112 1129.09C639.397 1183.38 645.43 1196.96 642.112 1234.36C636.863 1288.66 621.66 1284.62 620.816 1313.82C619.126 1371.67 677.285 1406.73 682.654 1524.49C683.758 1554.76 681.981 1585.06 677.345 1614.99C679.308 1590.72 679.611 1566.35 678.25 1542.05C674.087 1474.11 655.867 1435.62 653.213 1445.94C651.162 1453.84 653.937 1497.28 664.796 1565.76C668.779 1601.1 670.05 1636.7 668.597 1672.24C665.943 1742.34 638.432 1807.62 601.269 1811C606.578 1808.65 627.995 1796.88 638.311 1724.67C640.664 1708.08 643.56 1687.74 641.811 1676.4C634.933 1632.78 575.447 1842.91 532.371 1755.86C520.305 1732.09 503.594 1675.8 504.318 1618.79C504.318 1611.97 504.921 1571.55 511.738 1555.92C514.513 1549.53 517.409 1549.47 519.28 1550.25C514.789 1568.26 512.639 1586.77 512.885 1605.33C512.885 1637.07 520.366 1665.66 527.424 1673.93C545.041 1694.26 559.339 1608.11 578.826 1635.5C581.37 1639.57 583.397 1643.95 584.859 1648.53C581.661 1648.11 570.681 1647.99 564.527 1680.14C561.511 1695.95 558.977 1723.1 561.089 1733.41C568.569 1769.97 643.439 1635.62 640.423 1505.31C638.673 1430.86 611.766 1369.26 590.59 1362.32C571.888 1356.29 555.357 1391.94 549.686 1404.25C543.229 1418.75 537.825 1433.69 533.518 1448.96C535.388 1435.68 538.465 1415.65 543.231 1395.32C571.345 1275.27 617.075 1318.34 620.755 1257.11C621.086 1236.67 618.609 1216.29 613.395 1196.54C598.373 1129.03 569.112 1148.27 552.28 1178.98C549.158 1184.65 546.398 1190.51 544.015 1196.54C546.248 1179.23 549.818 1162.13 554.694 1145.37C566.579 1107.55 579.61 1110.75 579.55 1107.79Z" fill="#ECECEC"/>
<path d="M1240.95 451.82C1240.53 451.096 1240.16 450.492 1239.86 450.07C1240.98 454.83 1241.31 459.743 1240.83 464.61C1240.47 468.591 1239.2 476.012 1237.87 476.012C1236.54 476.012 1239.14 456.163 1228.82 442.77C1222.94 435.807 1214.77 431.166 1205.78 429.678C1208.61 431.006 1211.81 433.057 1211.81 435.711C1211.81 438.366 1205.78 440.417 1200.95 443.735C1188.58 452.061 1187.74 468.953 1186.71 468.772C1185.69 468.591 1187.98 449.829 1198.78 387.93C1193.4 395.546 1186.03 401.536 1177.48 405.244C1180.98 419.667 1182.18 434.55 1181.04 449.346C1180.56 455.722 1179.62 462.054 1178.2 468.29C1174.71 483.839 1167.72 498.387 1157.75 510.823C1159.18 509.096 1161.11 507.854 1163.27 507.271C1165.43 506.687 1167.72 506.79 1169.82 507.565C1170.61 508.185 1171.26 508.96 1171.74 509.842C1172.21 510.724 1172.51 511.694 1172.59 512.693C1173.92 520.837 1164.81 527.655 1163.97 528.258C1170.73 528.42 1177.5 528.158 1184.24 527.474C1207.16 525.302 1219.35 524.095 1229.55 515.408C1237.93 507.38 1243.56 496.898 1245.6 485.471C1247.65 474.044 1246.02 462.261 1240.95 451.82ZM1216.82 504.307C1215.61 512.934 1201.01 520.174 1192.2 515.83C1186.71 513.115 1183.51 505.815 1185.08 503.764C1186.65 501.713 1189.18 505.031 1194.43 504.91C1204.51 504.91 1209.58 494.413 1214.04 496.404C1216.64 497.671 1217.36 501.652 1217 504.307H1216.82ZM1230.99 490.672C1229.18 497.248 1225.44 504.307 1222.97 503.885C1220.5 503.462 1222.19 492.723 1216.94 489.224C1208.49 483.493 1191.18 503.402 1185.02 499.058C1178.87 494.714 1184.12 469.919 1201.01 458.938C1202.88 457.672 1214.64 450.07 1223.81 454.715C1235.04 460.507 1233.83 480.416 1230.99 490.672Z" fill="#ECECEC"/>
<path d="M360.428 516.734C357.862 511.438 356.035 505.815 354.998 500.022C353.758 492.015 353.881 483.856 355.36 475.89C362.177 442.588 397.591 427.143 392.101 414.353C391.424 413.116 390.502 412.029 389.393 411.158C388.283 410.287 387.008 409.65 385.646 409.285C375.39 406.088 357.17 431.065 355.481 433.417C357.888 424.757 362.122 416.711 367.898 409.822C373.673 402.934 380.856 397.361 388.964 393.479C391.317 392.453 413.82 382.921 432.885 392.091C439.907 396.31 447.158 400.137 454.603 403.554C460.38 405.927 466.482 407.411 472.703 407.958C468 410.074 464.317 413.952 462.446 418.757C460.954 422.561 460.849 426.768 462.151 430.641C463.453 434.514 466.078 437.804 469.565 439.933C472.669 441.145 476.115 441.145 479.218 439.933C478.847 440.365 478.444 440.768 478.012 441.14C473.83 443.405 468.958 444.042 464.335 442.928C459.712 441.814 455.665 439.028 452.975 435.107C449.898 428.531 457.68 423.403 455.267 416.103C452.854 408.803 440.366 404.037 432.1 404.037C407.063 404.037 374.907 440.657 382.086 474.382C385.948 492.481 401.875 514.2 422.93 514.381C428.931 514.257 434.812 512.677 440.066 509.776C445.321 506.875 449.792 502.741 453.095 497.73C455.917 493.173 457.788 488.094 458.597 482.796C459.406 477.498 459.135 472.091 457.801 466.901C457.106 464.242 456.157 461.656 454.965 459.179C460.277 464.752 463.949 471.683 465.577 479.208C467.206 486.733 466.728 494.561 464.196 501.832C456.474 521.862 434.031 525.964 427.998 527.05C410.321 530.308 387.818 525.059 378.165 510.339C369.719 497.428 373.459 480.837 368.874 480.174C365.616 479.691 362.057 488.077 361.212 490.007C357.912 498.566 357.635 507.996 360.428 516.734Z" fill="#ECECEC"/>
<path d="M591.313 466.539C593.895 462.897 595.351 458.578 595.501 454.117C595.651 449.656 594.489 445.248 592.158 441.442C590.408 438.968 586.125 434.142 582.927 435.409C576.894 437.701 575.627 463.281 587.754 473.96C593.183 478.665 597.225 476.976 602.233 481.742C609.533 488.68 609.593 500.565 608.266 509.735C605.913 497.669 601.268 488.379 595.717 487.896C587.392 487.232 574.421 506.719 581.54 518.061C586.607 525.964 598.975 525.542 599.639 525.482C597.493 526.143 595.292 526.607 593.063 526.869C587.582 527.42 582.049 526.611 576.954 524.516C561.751 516.975 585.099 449.646 567.241 423.041C562.244 415.143 554.904 409.005 546.246 405.485C540.998 403.494 533.879 400.779 528.57 403.071C507.454 412.121 522.536 496.523 504.437 526.628C500.329 533.14 495.242 538.98 489.355 543.943C484.227 548.425 478.2 551.757 471.678 553.716C465.072 555.622 458.118 555.994 451.347 554.802C457.358 553.658 463.225 551.857 468.842 549.433C476.956 546.636 484.097 541.569 489.415 534.833C492.13 530.972 494.483 525.783 493.216 524.637C491.949 523.491 485.554 530.67 476.625 531.454C470.754 531.673 465.005 529.742 460.457 526.025C466.953 528 473.913 527.83 480.305 525.542C502.386 517.216 510.47 481.079 499.37 464.367C498.465 463.04 495.086 457.791 491.165 458.334C487.243 458.877 482.356 466.539 480.547 478.605C479.975 471.863 481.009 465.082 483.563 458.817C489.053 445.846 498.827 442.769 508.359 424.79C511.255 419.24 513.185 414.233 511.013 411.276C510.195 410.444 509.203 409.801 508.108 409.395C507.013 408.988 505.843 408.827 504.679 408.923C498.646 408.923 493.337 414.957 490.501 423.584C490.824 420.024 491.657 416.529 492.975 413.207C498.121 402.475 506.681 393.752 517.313 388.403C527.946 383.054 540.052 381.381 551.736 383.645C572.43 388.29 582.686 405.907 588.357 415.62C592.459 422.739 603.017 440.718 596.26 457.851C595.046 460.974 593.379 463.901 591.313 466.539ZM566.095 406.872C567.724 405.304 559.278 385.576 544.859 385.033C532.793 384.55 523.321 397.4 524.588 399.572C525.855 401.744 533.758 394.987 545.522 396.616C558.312 398.547 564.828 408.2 566.095 406.993V406.872Z" fill="#ECECEC"/>
<path d="M667.932 502.737C664.915 500.746 652.849 525.482 635.233 525.904C631.421 525.687 627.691 524.711 624.262 523.033C620.832 521.355 617.773 519.008 615.263 516.131C618.435 518.259 622.007 519.721 625.762 520.426C629.516 521.131 633.375 521.066 637.103 520.233C644.176 517.931 650.149 513.097 653.875 506.659C659.908 498.152 657.374 495.196 661.657 485.181C668.173 470.038 682.109 463.583 680.541 461.049C679.696 459.661 676.016 462.437 669.259 461.049C665.345 460.278 661.703 458.488 658.701 455.861C657.253 454.413 656.71 453.146 654.719 452C654.719 452 650.919 449.888 648.686 450.853C646.454 451.819 644.463 458.515 646.997 466.418C641.101 458.594 638.172 448.931 638.732 439.149C639.59 428.486 644.463 418.546 652.367 411.337C660.027 403.962 670.051 399.538 680.661 398.848C696.89 398.366 700.993 408.32 713.119 404.459C721.32 401.637 728.235 395.963 732.606 388.472C731.583 394.27 729.251 399.758 725.789 404.52C721.324 410.553 718.006 411.216 715.955 416.224C712.576 424.67 716.618 436.917 721.988 438.003C726.211 438.848 730.615 432.935 734.054 428.109C739.218 421.12 742.8 413.091 744.551 404.58C745.379 414.188 743.275 423.822 738.518 432.211C732.485 442.89 724.884 445.182 720.419 457.671C719.997 458.938 716.075 469.737 720.962 474.503C724.341 477.761 730.494 476.132 733.028 475.408C738.097 473.708 742.755 470.968 746.703 467.363C750.651 463.757 753.802 459.367 755.954 454.473C754.075 461.975 750.688 469.016 745.999 475.166C735.502 488.741 724.703 489.103 721.867 499.781C720.774 503.899 720.931 508.249 722.317 512.277C723.702 516.306 726.255 519.831 729.65 522.405C732.785 524.498 736.435 525.689 740.201 525.849C743.968 526.009 747.706 525.13 751.007 523.31C747.077 525.938 742.636 527.707 737.975 528.498C733.264 529.387 728.411 529.185 723.789 527.91C719.167 526.634 714.898 524.318 711.309 521.138C697.192 505.573 718.609 471.064 707.629 463.643C704.009 461.29 699.002 463.1 693.813 464.971C688.775 466.839 684.314 469.994 680.874 474.122C677.434 478.25 675.135 483.207 674.206 488.499C673 497.066 677.524 498.514 677.404 506.598C677.404 521.802 661.175 538.574 644.041 542.314C629.622 545.451 624.192 537.186 607.119 539.901C597.154 541.679 587.832 546.048 580.091 552.57C583.394 547.542 587.658 543.216 592.638 539.841C597.618 536.466 603.216 534.108 609.11 532.902C617.134 531.877 618.883 534.773 629.743 533.928C635.776 533.506 651.643 532.299 661.597 519.931C667.268 513.114 669.621 504.004 667.932 502.737ZM704.673 428.893C704.673 426.299 705.578 414.052 697.856 408.26C684.764 398.487 659.425 415.862 660.029 422.981C660.029 424.73 661.959 425.937 661.838 428.41C661.718 430.884 658.762 433.237 655.805 434.443C656.799 433.221 657.405 431.729 657.545 430.159C657.685 428.59 657.352 427.014 656.59 425.635C655.685 424.127 653.634 422.015 652.125 422.558C649.712 423.403 649.29 431.246 650.738 436.676C653.814 447.837 668.173 461.109 684.04 456.947C698.037 453.568 704.07 439.149 704.673 428.893Z" fill="#ECECEC"/>
<path d="M782.501 519.326C794.929 515.464 797.282 475.465 787.207 471.061C782.199 468.889 774.658 475.888 773.874 476.672C771.294 479.353 769.369 482.594 768.249 486.141C767.129 489.689 766.845 493.448 767.418 497.124C766.824 496.206 766.357 495.212 766.031 494.168C765.292 489.562 765.499 484.855 766.64 480.332C767.781 475.81 769.832 471.567 772.667 467.864C775.946 463.691 779.83 460.031 784.19 457.004C788.786 453.891 792.605 449.763 795.351 444.938C797.643 440.76 798.31 435.883 797.221 431.243C795.85 425.787 793.157 420.752 789.379 416.583C784.909 412.575 779.205 410.212 773.21 409.886C775.318 408.793 777.633 408.157 780.004 408.022C782.374 407.887 784.747 408.255 786.965 409.102C789.921 410.61 791.068 412.963 792.154 412.541C793.24 412.119 793.602 404.638 790.042 399.871C787.878 397.637 785.229 395.931 782.3 394.885C779.37 393.839 776.239 393.481 773.15 393.838C776.552 391.545 780.652 390.52 784.733 390.943C793.541 392.149 797.583 401.5 800.178 400.475C801.807 399.811 802.289 395.045 798.79 379.299C801.611 384.883 803.777 390.774 805.245 396.855C813.571 430.942 796.316 457.185 803.315 461.107C808.141 464.003 820.388 453.988 826.844 444.697C830.621 438.904 833.15 432.388 834.272 425.564C835.394 418.74 835.083 411.757 833.359 405.06C834.619 407.113 835.651 409.298 836.436 411.576C839.875 421.409 837.1 428.287 838.306 428.649C840.78 429.433 859.301 404.215 849.166 388.65C846.008 384.182 841.37 380.976 836.074 379.6C839.373 379.52 842.65 380.165 845.673 381.489C848.696 382.813 851.391 384.784 853.57 387.262C857.733 393.657 854.535 401.923 857.431 403.009C860.327 404.095 863.766 395.467 872.031 392.692C877.848 391.167 884.028 391.945 889.286 394.864C884.254 393.63 878.973 393.882 874.082 395.588C859.422 401.199 862.016 418.574 845.425 437.819C832.334 453.203 815.26 460.262 816.225 461.951C817.191 463.641 820.026 460.564 825.275 459.237C843.374 454.651 863.585 463.218 868.653 472.509C869.49 474.048 870.177 475.665 870.704 477.336C871.907 481.241 872.176 485.374 871.488 489.402C871.488 487.773 870.281 474.681 860.629 469.975C859 469.191 856.345 467.924 854.596 469.01C850.372 471.785 857.009 488.436 859.422 494.59C865.998 511.181 870.523 522.583 880.598 525.781C890.673 528.978 898.214 523.126 898.697 524.031C895.588 526.917 891.808 528.981 887.699 530.035C883.589 531.088 879.282 531.098 875.168 530.064C866.481 527.168 863.705 518.3 862.378 519.024C859.905 520.23 864.61 552.145 879.934 553.714C888.501 554.558 898.878 545.871 903.524 532.176C898.335 550.275 888.743 562.824 879.391 562.703C868.954 562.703 861.292 546.836 857.431 537.968C841.021 502.916 853.449 477.637 839.332 468.708C830.765 463.279 816.346 466.295 808.624 473.595C791.611 489.643 809.288 521.377 796.136 529.461C786 535.494 761.446 524.755 753.904 505.691C751.026 498.128 750.625 489.847 752.758 482.041C753.179 491.011 756.408 499.622 761.989 506.656C763.798 508.768 774.537 521.799 782.501 519.326Z" fill="#ECECEC"/>
<path d="M909.135 458.215C912.161 458.83 915.282 458.815 918.302 458.171C921.322 457.528 924.178 456.269 926.691 454.475C929.948 451.239 932.32 447.22 933.577 442.804C934.834 438.388 934.935 433.723 933.87 429.257C931.578 417.553 923.312 414.536 922.709 402.289C922.543 398.627 923.055 394.966 924.217 391.49C923.654 394.46 923.654 397.509 924.217 400.479C924.313 403.266 925.455 405.916 927.415 407.9C928.813 408.587 930.351 408.944 931.909 408.944C933.468 408.944 935.005 408.587 936.404 407.9C945.876 404.521 947.505 394.265 957.942 389.258C963.489 386.938 969.602 386.329 975.498 387.508C999.208 390.163 1022.31 412.666 1026.18 438.246C1026.84 442.949 1026.84 447.721 1026.18 452.423C1018.57 434.324 1014.83 430.282 1012.84 430.765C1009.04 431.67 1008.5 449.407 1012.84 464.007C1016.72 476.959 1023.77 488.738 1033.35 498.274C1011.82 488.441 994.321 486.208 989.977 492.965C986.418 498.335 991.606 509.918 996.493 516.494C1000.65 521.397 1005.49 525.683 1010.85 529.224C1010.49 530.008 1000.11 523.794 986.719 518.545C971.878 512.874 964.458 510.039 955.951 509.677C945.01 509.556 934.176 511.842 924.217 516.374C915.107 520.235 907.204 525.363 906.902 524.82C906.601 524.277 928.863 513.297 927.777 502.136C927.415 498.516 924.459 492.965 921.744 493.448C920.568 493.695 919.457 494.189 918.486 494.896C914.994 496.759 910.965 497.356 907.083 496.585C913.387 494.905 918.937 491.142 922.83 485.907C928.863 477.28 930.069 464.429 926.027 461.775C924.217 460.568 922.528 461.775 917.521 461.413C914.466 461.219 911.543 460.104 909.135 458.215ZM980.204 434.083C976.548 430.143 974.41 425.033 974.171 419.664C974.171 411.338 980.204 407.598 978.273 400.901C977.712 398.86 976.668 396.983 975.23 395.429C973.791 393.875 972 392.69 970.008 391.972C962.768 389.62 955.227 396.558 952.512 399.091C940.446 410.494 940.446 429.257 940.929 433.299C941.532 446.752 946.962 447.899 946.117 459.542C945.393 475.651 935.197 481.02 938.093 487.294C942.135 496.163 968.922 498.576 985.271 485.846C998.785 475.349 999.63 458.577 1001.38 425.033C1001.92 415.019 1001.38 406.934 996.674 404.219C994.549 403.32 992.216 403.03 989.936 403.382C987.656 403.733 985.518 404.713 983.763 406.21C977.429 411.037 975.558 422.379 980.204 433.902V434.083ZM1016.88 485.484C1019.66 481.684 1008.86 465.937 1002.83 467.385C1000.47 467.928 999.027 471.005 998.786 473.418C998.122 478.848 1003.73 482.709 1004.82 483.494C1008.8 485.907 1015.38 487.536 1016.88 485.303V485.484Z" fill="#ECECEC"/>
<path d="M979.175 653.982C982.214 654.571 985.341 654.526 988.362 653.852C991.383 653.177 994.232 651.886 996.731 650.06C999.989 646.825 1002.36 642.806 1003.62 638.39C1004.87 633.974 1004.98 629.309 1003.91 624.842C1001.68 613.138 993.353 610.061 992.749 597.875C992.584 594.213 993.095 590.552 994.258 587.076C993.719 590.048 993.719 593.093 994.258 596.065C994.368 598.831 995.509 601.456 997.455 603.425C998.848 604.13 1000.39 604.498 1001.95 604.498C1003.51 604.498 1005.05 604.13 1006.44 603.425C1015.92 599.986 1017.55 589.79 1027.98 584.783C1033.53 582.463 1039.64 581.854 1045.54 583.033C1069.31 585.688 1092.35 608.131 1096.22 633.771C1096.84 638.456 1096.84 643.203 1096.22 647.888C1088.55 629.789 1084.81 625.808 1082.82 626.29C1079.02 627.195 1078.54 644.932 1082.82 659.532C1086.7 672.484 1093.75 684.263 1103.33 693.8C1081.8 683.966 1064.3 681.734 1059.96 688.43C1056.46 693.86 1061.59 705.444 1066.47 712.02C1070.66 716.912 1075.52 721.197 1080.89 724.749C1080.47 725.473 1070.09 719.32 1056.76 714.071C1041.92 708.038 1034.56 705.504 1025.99 705.202C1015.05 705.081 1004.22 707.367 994.258 711.899C985.148 715.7 977.305 720.828 976.943 720.345C976.581 719.863 998.963 708.822 997.817 697.661C997.455 694.041 994.499 688.491 991.784 688.913C990.632 689.176 989.544 689.669 988.587 690.361C985.115 692.284 981.064 692.885 977.184 692.05C983.483 690.395 989.034 686.651 992.93 681.432C998.963 672.745 1000.17 659.955 996.128 657.3C994.258 656.154 992.568 657.3 987.561 656.938C984.525 656.857 981.591 655.822 979.175 653.982ZM1050.24 629.85C1046.68 625.851 1044.65 620.722 1044.51 615.37C1044.51 607.045 1050.55 603.304 1048.55 596.608C1048 594.581 1046.96 592.719 1045.53 591.176C1044.1 589.632 1042.33 588.454 1040.35 587.739C1033.11 585.386 1025.57 592.324 1022.79 594.858C1010.73 606.2 1010.73 625.023 1011.21 629.005C1011.81 642.459 1017.24 643.665 1016.4 655.249C1015.74 671.357 1005.48 676.787 1008.37 683.001C1012.42 691.93 1039.2 694.343 1055.55 681.613C1069.07 671.116 1069.91 654.344 1071.72 620.8C1072.26 610.785 1071.72 602.701 1067.02 599.986C1064.88 599.082 1062.54 598.789 1060.25 599.141C1057.96 599.492 1055.81 600.474 1054.04 601.977C1047.71 606.743 1045.84 618.085 1050.49 629.427L1050.24 629.85ZM1086.92 681.251C1089.7 677.45 1078.9 661.704 1072.87 663.152C1070.58 663.755 1069.13 666.832 1068.83 669.185C1068.16 674.554 1073.83 678.476 1074.86 679.26C1079.14 681.613 1085.54 683.302 1087.17 681.07L1086.92 681.251Z" fill="#ECECEC"/>
<path d="M353.552 837.449C356.602 838.008 359.732 837.948 362.758 837.275C365.784 836.601 368.644 835.327 371.169 833.528C374.401 830.276 376.752 826.254 377.997 821.842C379.243 817.429 379.343 812.772 378.288 808.31C376.056 796.606 367.73 793.529 367.127 781.342C366.941 777.655 367.473 773.967 368.695 770.483C368.125 773.472 368.125 776.543 368.695 779.532C368.806 782.299 369.946 784.924 371.893 786.893C373.292 787.58 374.829 787.937 376.387 787.937C377.946 787.937 379.483 787.58 380.882 786.893C390.354 783.454 391.983 773.198 402.42 768.19C407.967 765.87 414.081 765.261 419.976 766.441C443.746 769.095 466.792 791.598 470.654 817.178C471.273 821.884 471.273 826.651 470.654 831.356C462.992 813.257 459.251 809.215 457.26 809.697C453.459 810.663 452.977 828.34 457.26 843C461.182 855.915 468.228 867.664 477.773 877.207C456.235 867.434 438.739 865.141 434.395 871.898C430.896 877.328 436.024 888.851 440.911 895.427C445.091 900.348 449.945 904.653 455.33 908.217C454.907 908.941 444.531 902.727 431.198 897.478C416.175 891.807 408.755 888.851 400.007 888.851C389.044 888.769 378.195 891.075 368.213 895.608C359.163 899.409 351.26 904.537 350.898 903.994C350.536 903.451 372.918 892.531 371.772 881.31C371.41 877.69 368.454 872.139 365.739 872.622C364.578 872.859 363.485 873.354 362.542 874.07C359.05 875.933 355.021 876.53 351.139 875.759C357.454 873.933 362.976 870.047 366.825 864.719C372.858 856.031 374.065 843.181 370.023 840.587C368.213 839.38 366.463 840.587 361.456 840.225C358.611 840.071 355.869 839.108 353.552 837.449ZM424.622 813.317C421.093 809.323 419.067 804.225 418.89 798.898C418.89 790.573 424.923 786.832 422.932 780.136C422.392 778.1 421.361 776.228 419.931 774.682C418.501 773.137 416.715 771.964 414.727 771.267C407.488 768.854 399.946 775.852 397.171 778.326C385.105 789.728 385.105 808.491 385.588 812.533C386.191 825.987 391.621 827.193 390.837 838.777C390.113 854.885 379.856 860.254 382.752 866.529C386.855 875.397 413.581 877.871 429.931 865.141C443.445 854.644 444.35 837.872 446.099 804.328C446.642 794.253 446.099 786.229 441.393 783.514C439.261 782.622 436.925 782.33 434.639 782.671C432.352 783.011 430.203 783.97 428.422 785.445C421.846 790.211 420.036 801.553 424.622 813.076V813.317ZM461.302 864.719C464.078 860.918 453.278 845.172 447.245 846.62C444.953 847.163 443.505 850.239 443.203 852.653C442.54 858.082 448.211 862.004 449.236 862.788C453.278 865.081 459.734 866.71 461.302 864.719Z" fill="#ECECEC"/>
<path d="M762.834 837.449C765.874 838.006 768.994 837.946 772.01 837.272C775.026 836.599 777.876 835.325 780.39 833.528C783.632 830.283 785.989 826.261 787.235 821.846C788.481 817.432 788.576 812.771 787.509 808.31C785.277 796.606 777.012 793.529 776.348 781.342C776.193 777.656 776.725 773.974 777.916 770.483C777.317 773.469 777.317 776.546 777.916 779.532C777.997 782.305 779.142 784.941 781.114 786.893C782.513 787.58 784.05 787.937 785.609 787.937C787.167 787.937 788.705 787.58 790.103 786.893C799.575 783.454 801.144 773.198 811.581 768.19C817.128 765.87 823.241 765.261 829.137 766.441C852.907 769.095 876.014 791.598 879.875 817.178C880.473 821.885 880.473 826.649 879.875 831.356C872.273 813.257 868.533 809.215 866.481 809.697C862.741 810.663 862.198 828.34 866.481 843C870.432 855.916 877.497 867.663 887.054 877.207C865.516 867.434 847.96 865.141 843.677 871.898C840.117 877.328 845.305 888.851 850.132 895.427C854.312 900.348 859.167 904.653 864.551 908.217C864.129 908.941 853.812 902.727 840.419 897.478C825.577 891.807 818.157 888.972 809.65 888.61C798.707 888.533 787.879 890.838 777.916 895.367C768.807 899.167 760.903 904.295 760.602 903.752C760.3 903.21 782.562 892.29 781.476 881.068C781.114 877.448 778.098 871.898 775.443 872.381C774.263 872.615 773.15 873.11 772.185 873.829C768.693 875.692 764.665 876.289 760.783 875.518C767.074 873.845 772.62 870.105 776.529 864.9C782.562 856.212 783.769 843.362 779.726 840.768C777.917 839.561 776.227 840.768 771.22 840.406C768.186 840.312 765.256 839.279 762.834 837.449ZM833.843 813.317C830.205 809.366 828.07 804.263 827.81 798.898C827.81 790.573 833.843 786.832 831.912 780.136C831.351 778.101 830.307 776.231 828.868 774.687C827.429 773.143 825.638 771.969 823.647 771.267C816.407 768.854 808.866 775.852 806.151 778.326C793.783 789.728 794.085 808.491 794.568 812.533C795.111 825.987 800.239 827.193 799.756 838.777C799.032 854.885 788.836 860.254 791.672 866.529C795.774 875.397 822.561 877.871 838.91 865.141C852.364 854.644 853.269 837.872 855.019 804.328C855.562 794.253 855.019 786.229 850.313 783.514C848.18 782.622 845.845 782.33 843.558 782.671C841.272 783.011 839.122 783.97 837.342 785.445C831.128 790.211 829.258 801.553 833.843 813.076V813.317ZM870.584 864.719C873.299 860.918 862.56 845.172 856.527 846.62C854.174 847.163 852.726 850.239 852.485 852.653C851.821 858.082 857.432 862.004 858.518 862.788C862.5 865.081 868.955 866.71 870.584 864.719Z" fill="#ECECEC"/>
<path d="M1111.9 439.39C1125.06 424.066 1142.73 432.995 1158.36 416.344C1165.44 408.192 1169.84 398.062 1170.97 387.325C1168.45 395.594 1163.56 402.94 1156.9 408.444C1150.23 413.948 1142.1 417.367 1133.5 418.274C1126.43 418.57 1119.39 417.201 1112.95 414.277C1106.5 411.354 1100.83 406.957 1096.4 401.442C1092.1 406.886 1086.59 411.245 1080.3 414.169C1074.02 417.092 1067.13 418.499 1060.2 418.274C1051.6 417.414 1043.46 414.002 1036.81 408.476C1030.17 402.95 1025.33 395.563 1022.92 387.265C1024.02 398.008 1028.42 408.146 1035.53 416.284C1051.09 432.935 1068.83 424.006 1081.98 439.33C1084.7 442.527 1087.29 458.877 1092.42 491.334C1094.89 507.02 1096.1 515.889 1091.63 518.966C1087.17 522.043 1080.59 518.604 1076.31 516.07C1083.01 525.3 1090.31 529.946 1094.41 528.136C1095.61 527.469 1096.52 526.369 1096.94 525.059C1097.41 526.342 1098.31 527.427 1099.48 528.136C1103.46 530.067 1110.76 525.421 1117.58 516.07C1113.29 518.604 1106.35 522.103 1102.25 518.966C1098.15 515.829 1098.93 506.9 1101.41 491.334C1106.41 458.937 1109.01 442.407 1111.9 439.39Z" fill="#ECECEC"/>
<path d="M842.29 1222.36C841.445 1253.73 838.428 1323.53 825.156 1383.74C823.949 1388.99 804.885 1472.67 776.53 1474.9C756.198 1476.53 748.174 1434.9 740.331 1460.36C731.402 1490.1 732.066 1581.02 733.876 1626.63C736.229 1711.39 737.436 1753.75 734.479 1768.83C727.36 1805.03 706.969 1808.16 696.351 1764.12C692.491 1746.26 690.21 1728.09 689.533 1709.82C690.559 1716.22 695.566 1747.83 705.702 1755.25C707.632 1756.7 716.018 1762.01 722.112 1742.7C728.929 1720.99 727.481 1684.55 726.998 1542.47C726.998 1455.23 726.998 1423.56 723.741 1419.21C719.095 1413.18 711.674 1465.31 710.528 1471.7C704.561 1512.99 702.018 1554.7 702.927 1596.4C701.599 1578.85 699.97 1550.55 700.091 1515.86C700.634 1376.5 729.412 1307.12 722.232 1236.35C719.517 1209.99 712.278 1188.09 705.943 1191.59C698.583 1195.51 692.429 1225.55 692.55 1262.66C692.188 1259.28 691.705 1254.57 691.464 1248.72C688.809 1182.36 718.733 1065.98 746.907 1070.14C771.039 1073.7 785.76 1135 794.508 1102.18C798.852 1086.13 800.058 1051.86 797.585 1025.14C794.81 996.237 788.415 984.111 786.846 981.336C799.395 991.713 804.281 1012.35 806.514 1028.63C810.616 1059.46 806.091 1082.39 809.772 1130.11C812.185 1160.7 818.158 1203.89 824.13 1202.51C830.103 1201.12 835.231 1161 836.8 1104.47C837.77 1144.88 836.663 1185.32 833.481 1225.61C827.448 1298.79 814.719 1350.32 816.468 1356.95C817.434 1360.69 821.958 1346.46 823.165 1342.59C834.688 1307.06 839.876 1256.14 842.29 1222.36ZM788.596 1261.81C777.374 1314.96 765.067 1305.25 746.364 1371.79C743.71 1381.39 735.686 1409.8 737.134 1420.9C738.582 1432 747.45 1413.36 760.12 1411.85C779.848 1409.5 785.881 1450.83 793.784 1436.65C810.496 1406.48 805.428 1182.36 799.334 1179.46C796.74 1178.44 797.706 1218.55 788.596 1261.81ZM734.781 1351.76C737.737 1367.33 756.802 1324.62 769.592 1282.2C777.012 1257.65 784.071 1233.94 782.804 1209.81C781.778 1190.92 775.625 1175.84 770.014 1175.9C761.93 1175.9 755.836 1210.71 744.072 1280.39C736.893 1323.23 733.333 1344.1 734.781 1351.76ZM775.082 1137.29C774.358 1127.52 743.348 1127.03 733.997 1198.77C728.989 1237.38 731.342 1288.36 734.479 1291.55C737.617 1294.75 740.512 1234.42 755.595 1183.56C766.273 1146.88 775.444 1142.66 775.082 1137.29Z" fill="#ECECEC"/>
<path d="M158.684 293.695C158.021 291.575 157.477 289.42 157.055 287.239C156.695 283.191 157.233 279.113 158.631 275.296C160.028 271.479 162.25 268.018 165.139 265.158C170.004 260.176 175.453 255.801 181.368 252.127C190.598 245.611 192.891 243.741 193.977 240.061C195.545 234.45 193.193 227.03 189.09 225.763C185.893 224.677 182.333 227.693 177.567 231.796C174.161 234.788 171.142 238.193 168.578 241.931C172.133 233.941 177.808 227.077 184.988 222.083C199.105 212.49 219.195 210.74 232.528 219.488C245.861 228.236 247.49 243.319 251.592 242.173C255.695 241.026 256.841 230.589 252.256 222.686C250.558 219.818 248.125 217.455 245.208 215.843C242.292 214.231 238.997 213.427 235.665 213.516C242.06 212.709 248.524 214.347 253.764 218.101C264.684 226.728 265.046 245.792 258.892 257.919C252.739 270.045 240.431 271.553 240.793 279.155C241.095 289.894 264.201 293.152 264.925 305.459C264.749 311.825 262.987 318.046 259.797 323.558C258.892 325.066 257.746 326.756 258.289 327.661C258.832 328.566 264.322 327.299 266.615 326.092C272.584 322.931 277.165 317.662 279.465 311.311C277.319 319.893 273.411 327.935 267.989 334.925C262.568 341.915 255.751 347.7 247.973 351.913C231.744 360.179 212.378 359.998 204.957 355.835C204.293 355.473 201.94 354.568 198.924 353.361C194.397 352.11 189.584 352.385 185.229 354.146C177.272 355.822 169.054 355.822 161.097 354.146C152.442 351.988 144.781 346.945 139.378 339.847C143.254 343.709 148.154 346.38 153.499 347.545C158.845 348.71 164.412 348.321 169.543 346.423C183.238 340.39 189.573 322.291 185.048 314.267C182.695 309.923 178.593 310.527 173.887 304.976C169.806 299.541 167.68 292.887 167.854 286.093C169.784 295.022 173.887 301.779 178.412 301.96C184.445 301.96 189.512 290.859 189.512 281.508C189.512 280.12 189.512 268.477 182.574 265.279C175.636 262.082 166.828 269.14 162.665 275.596C159.227 280.963 157.815 287.38 158.684 293.695ZM253.583 308.777C252.135 297.314 224.021 281.508 205.319 295.867C190.598 307.269 190.176 331.642 198.683 338.46C212.438 349.138 255.876 324.101 253.825 308.777H253.583ZM202.423 282.715C214.489 290.256 248.214 270.286 246.102 251.162C244.654 238.13 226.736 224.978 213.705 229.262C205.078 232.158 201.337 241.811 199.407 246.637C194.882 258.763 194.279 277.526 202.664 282.715H202.423Z" fill="#ECECEC"/>
<path d="M158.684 470.04C158.021 467.92 157.477 465.765 157.055 463.584C156.699 459.536 157.24 455.459 158.637 451.643C160.034 447.827 162.254 444.365 165.139 441.503C170.004 436.521 175.453 432.146 181.368 428.472C190.598 421.956 192.891 420.086 193.977 416.406C195.545 410.735 193.193 403.314 189.09 402.047C185.893 401.022 182.333 404.038 177.567 408.08C174.271 411.133 171.336 414.554 168.819 418.276C172.365 410.264 178.041 403.378 185.229 398.367C192.112 393.52 200.22 390.706 208.627 390.247C217.033 389.789 225.399 391.703 232.769 395.773C245.68 404.28 247.49 419.603 251.592 418.518C255.695 417.432 256.841 406.934 252.256 399.031C250.556 396.17 248.12 393.816 245.203 392.214C242.285 390.612 238.992 389.82 235.665 389.921C242.055 389.054 248.534 390.674 253.764 394.446C264.684 403.133 265.046 422.198 258.892 434.324C252.739 446.45 240.431 447.898 240.793 455.56C241.095 466.299 264.201 469.557 264.925 481.804C264.742 488.169 262.98 494.388 259.797 499.903C258.892 501.351 257.746 503.101 258.289 503.945C258.832 504.79 264.322 503.644 266.615 502.437C272.584 499.276 277.165 494.007 279.465 487.656C277.307 496.21 273.392 504.22 267.971 511.179C262.549 518.138 255.739 523.893 247.973 528.077C231.744 536.343 212.378 536.162 204.957 532.059C202.998 531.113 200.983 530.287 198.924 529.586C194.397 528.334 189.584 528.61 185.229 530.37C177.269 532.01 169.057 532.01 161.097 530.37C152.475 528.243 144.823 523.269 139.378 516.253C143.246 520.127 148.146 522.806 153.494 523.972C158.843 525.138 164.414 524.741 169.543 522.829C183.238 516.796 189.573 498.998 185.048 490.733C182.695 486.389 178.593 486.992 173.887 481.442C169.806 476.007 167.68 469.353 167.854 462.559C169.784 471.427 173.887 478.184 178.412 478.365C184.445 478.365 189.512 467.264 189.512 457.974C189.512 456.526 189.512 444.882 182.574 441.684C175.636 438.487 166.828 445.606 162.665 452.001C159.241 457.351 157.83 463.745 158.684 470.04ZM253.583 485.122C252.135 473.72 224.021 457.853 205.319 472.212C190.598 483.674 190.176 507.987 198.683 514.805C212.438 525.483 255.876 500.446 253.825 485.122H253.583ZM202.423 459.06C214.489 466.601 248.214 446.993 246.102 427.507C244.654 414.475 226.736 401.323 213.705 405.667C205.078 408.503 201.337 418.156 199.407 422.982C194.882 435.108 194.279 453.871 202.664 459.06H202.423Z" fill="#ECECEC"/>
<path d="M636.139 843.483C635.448 841.371 634.904 839.214 634.51 837.027C634.151 832.979 634.689 828.901 636.086 825.084C637.484 821.267 639.706 817.806 642.594 814.946C647.459 809.964 652.908 805.589 658.823 801.915C668.054 795.399 670.346 793.529 671.432 789.849C673.001 784.238 670.588 776.817 666.546 775.551C662.503 774.284 659.789 777.541 654.962 781.584C651.555 784.557 648.553 787.965 646.033 791.719C649.589 783.729 655.264 776.865 662.443 771.87C676.56 762.278 696.65 760.528 709.923 769.276C723.196 778.024 724.704 793.408 728.746 792.021C732.788 790.633 734.055 780.437 729.47 772.534C727.77 769.673 725.334 767.319 722.417 765.717C719.499 764.115 716.206 763.323 712.879 763.424C719.269 762.563 725.746 764.182 730.978 767.949C741.898 776.576 742.26 795.641 736.106 807.767C729.47 820.798 717.645 821.402 718.007 829.003C718.007 839.802 741.415 843 742.139 855.307C742.029 861.675 740.284 867.907 737.072 873.406C736.167 874.915 734.96 876.604 735.563 877.509C736.167 878.414 741.596 877.147 743.829 876.001C749.798 872.84 754.379 867.571 756.679 861.22C754.556 869.692 750.706 877.634 745.37 884.548C740.034 891.462 733.327 897.199 725.669 901.4C709.44 909.665 690.135 909.484 682.714 905.321C681.99 904.959 679.698 904.054 676.681 902.848C672.151 901.623 667.346 901.898 662.986 903.632C655.029 905.308 646.811 905.308 638.854 903.632C630.229 901.55 622.582 896.566 617.195 889.515C621.059 893.395 625.959 896.079 631.309 897.245C636.659 898.412 642.232 898.011 647.36 896.091C661.055 890.057 667.33 871.958 662.805 863.934C660.452 859.591 656.41 860.254 651.704 854.644C647.589 849.227 645.459 842.56 645.671 835.76C647.662 844.689 651.704 851.446 656.289 851.627C662.322 851.627 667.39 840.526 667.39 831.175C667.39 829.788 667.39 818.144 660.452 814.946C653.514 811.749 644.706 818.807 640.483 825.263C636.874 830.609 635.331 837.084 636.139 843.483ZM731.039 858.565C729.53 847.163 701.477 831.296 682.774 845.654C667.993 857.057 667.571 881.43 676.078 888.248C689.592 898.926 733.03 873.889 731.039 858.686V858.565ZM679.818 832.502C691.884 840.044 725.669 820.436 723.558 800.95C722.11 787.918 704.131 774.766 691.1 779.05C682.473 781.946 679.034 791.598 676.862 796.425C672.156 808.551 671.493 827.314 679.818 832.502Z" fill="#ECECEC"/>
<path d="M587.453 293.689C586.762 291.578 586.218 289.421 585.824 287.234C585.465 283.186 586.003 279.108 587.4 275.291C588.798 271.474 591.02 268.013 593.909 265.153C598.773 260.171 604.222 255.796 610.137 252.122C619.368 245.606 621.661 243.736 622.747 240.056C624.315 234.445 621.962 227.024 617.86 225.757C613.757 224.491 611.103 227.688 606.276 231.791C602.87 234.764 599.868 238.172 597.347 241.926C600.903 233.936 606.578 227.072 613.757 222.077C627.875 212.485 647.965 210.735 661.237 219.483C674.51 228.231 676.018 243.253 680.06 242.228C684.102 241.202 685.369 230.644 680.784 222.741C679.087 219.873 676.654 217.51 673.737 215.898C670.82 214.286 667.525 213.482 664.193 213.571C670.588 212.77 677.05 214.407 682.293 218.156C693.212 226.783 693.574 245.847 687.421 257.974C681.267 270.1 668.96 271.609 669.322 279.21C669.623 289.949 692.73 293.207 693.454 305.514C693.335 311.881 691.591 318.111 688.386 323.613C687.481 325.122 686.274 326.811 686.878 327.716C687.481 328.621 692.911 327.354 695.143 326.147C700.991 322.976 705.46 317.754 707.692 311.487C705.575 320.025 701.703 328.029 696.322 334.988C690.942 341.947 684.171 347.71 676.441 351.908C660.212 360.173 640.906 359.992 633.485 355.83C632.761 355.468 630.469 354.563 627.452 353.356C622.926 352.1 618.111 352.376 613.757 354.14C605.801 355.817 597.582 355.817 589.625 354.14C580.964 351.997 573.299 346.95 567.906 339.842C571.778 343.71 576.678 346.385 582.025 347.551C587.372 348.716 592.941 348.323 598.071 346.418C611.766 340.385 618.041 322.286 613.576 314.262C611.163 309.918 607.121 310.522 602.415 304.971C598.3 299.554 596.17 292.888 596.382 286.088C598.373 295.017 602.415 301.774 607 301.955C613.033 301.955 618.101 290.854 618.101 281.503C618.101 280.115 618.101 268.471 611.163 265.274C604.225 262.076 595.417 269.135 591.194 275.59C587.859 280.996 586.535 287.404 587.453 293.689ZM682.353 308.772C680.845 297.309 652.791 281.503 634.089 295.861C619.308 307.264 618.885 331.637 627.392 338.455C640.966 349.133 684.344 324.096 682.353 308.772ZM631.132 282.709C643.198 290.251 676.983 270.281 674.872 251.157C673.424 238.125 655.446 224.973 642.414 229.257C633.787 232.152 630.046 241.805 628.176 246.632C623.229 258.758 622.807 277.521 631.132 282.709Z" fill="#ECECEC"/>
<path d="M344.983 264.371C344.983 264.371 359.523 261.355 362.479 256.588C363.806 249.349 345.707 235.533 327.608 236.559C321.026 236.186 314.551 238.344 309.509 242.592C295.09 257.252 318.92 290.856 311.379 335.923C310.595 340.629 308.785 351.79 300.58 356.254C299.019 357.099 297.326 357.67 295.573 357.943C298.958 354.347 301.367 349.944 302.571 345.153C303.422 342.838 303.807 340.378 303.704 337.914C303.6 335.449 303.01 333.03 301.968 330.795C299.796 327.235 296.96 326.994 293.702 322.469C291.909 319.885 290.638 316.974 289.962 313.902C291.591 315.652 295.693 319.935 298.589 318.729C299.141 318.457 299.627 318.067 300.012 317.588C300.398 317.109 300.674 316.551 300.821 315.953C304.562 305.758 290.505 261.656 300.459 243.979C303.586 238.858 308.05 234.687 313.37 231.913C336.718 217.675 359.583 234.327 380.759 220.933C386.696 217.039 391.503 211.65 394.695 205.308C394.427 208.905 393.78 212.464 392.765 215.926C389.145 228.414 383.293 230.767 384.439 235.654C386.249 243.557 402.538 241.687 407.666 252.184C408.54 254.182 408.991 256.339 408.991 258.519C408.991 260.699 408.54 262.856 407.666 264.854C406.46 255.744 400.97 249.65 395.962 249.59C390.955 249.53 384.982 256.468 384.5 262.983C383.534 276.015 402.599 282.53 402.056 297.975C401.933 300.354 401.36 302.688 400.366 304.853C398.315 290.977 396.324 287.598 394.756 287.538C388.723 287.538 375.51 337.853 390.291 347.144C395.6 350.402 403.262 347.808 408.692 345.214C394.695 358.064 388.119 359.391 384.56 357.28C379.673 354.625 378.527 343.766 377.019 323.495C376.628 316.67 374.213 310.117 370.081 304.672C369.85 304.345 369.587 304.042 369.296 303.767C366.102 300.955 362.348 298.851 358.283 297.592C354.217 296.334 349.932 295.951 345.707 296.467C345.707 296.467 369.839 295.381 372.614 287.598C375.39 279.816 367.305 269.499 359.04 265.819C354.604 263.944 349.708 263.44 344.983 264.371ZM342.751 233.723C342.751 234.809 355.541 233.422 365.194 242.592C369.839 246.996 371.227 251.581 373.881 251.159C376.536 250.736 379.19 244.1 377.441 239.756C373.037 229.017 342.872 232.155 342.751 233.723Z" fill="#ECECEC"/>
<path d="M894.716 622.853C894.716 622.853 909.195 619.837 912.212 615.071C913.72 607.771 895.561 594.016 877.401 594.981C870.824 594.644 864.362 596.798 859.302 601.014C844.883 615.674 868.654 649.278 861.112 694.345C860.328 698.99 858.578 710.212 850.373 714.676C848.809 715.512 847.117 716.083 845.366 716.365C848.797 712.784 851.249 708.379 852.485 703.575C854.174 698.916 853.957 693.778 851.882 689.277C849.649 685.718 846.874 685.476 843.616 680.952C841.8 678.38 840.528 675.465 839.876 672.385C841.505 674.134 845.607 678.418 848.503 677.211C849.055 676.939 849.541 676.55 849.926 676.07C850.312 675.591 850.588 675.033 850.735 674.436C854.476 664.24 840.419 620.139 850.373 602.462C853.476 597.343 857.92 593.171 863.224 590.396C886.632 576.097 909.497 592.809 930.613 579.416C936.57 575.527 941.398 570.138 944.609 563.79C944.316 567.364 943.669 570.901 942.679 574.348C939.059 586.897 933.207 589.249 934.353 594.136C936.163 602.039 952.452 600.169 957.58 610.667C958.435 612.659 958.876 614.804 958.876 616.971C958.876 619.139 958.435 621.284 957.58 623.276C956.374 614.226 950.884 608.072 945.816 608.012C940.748 607.952 934.896 614.89 934.414 621.466C933.448 634.497 952.513 641.013 951.97 656.457C951.808 658.83 951.237 661.157 950.281 663.335C948.229 649.459 946.238 646.081 944.67 646.02C938.637 646.02 925.364 696.336 940.205 705.627C945.514 708.884 953.176 706.29 958.606 703.696C944.549 716.546 938.033 717.813 934.474 715.762C929.587 713.108 928.441 702.248 926.872 681.977C926.544 675.15 924.145 668.585 919.995 663.154L919.21 662.249C916.012 659.368 912.241 657.197 908.145 655.876C904.048 654.556 899.718 654.116 895.44 654.587C895.44 654.587 919.572 653.501 922.408 645.719C925.243 637.936 917.099 627.619 908.834 623.939C904.349 622.144 899.422 621.765 894.716 622.853ZM892.424 592.206C892.424 593.292 905.274 592.206 914.927 601.074C919.572 605.478 920.96 610.063 923.614 609.581C926.269 609.098 928.924 602.582 927.114 598.239C922.83 587.198 892.725 590.637 892.544 592.206H892.424Z" fill="#ECECEC"/>
<path d="M1243.97 272.578C1243.54 271.794 1243.12 271.191 1242.88 270.768C1244 275.692 1244.32 280.764 1243.85 285.79C1243.48 289.893 1242.16 297.857 1240.77 297.857C1239.38 297.857 1242.1 277.284 1231.42 263.408C1225.33 256.214 1216.88 251.423 1207.59 249.894C1210.48 251.281 1213.62 253.393 1213.62 255.927C1213.62 258.461 1207.59 260.814 1202.4 264.192C1189.61 272.88 1188.7 290.376 1187.68 290.134C1186.65 289.893 1188.94 270.587 1199.74 206.456C1194.19 214.411 1186.55 220.676 1177.66 224.555C1181.3 239.488 1182.54 254.903 1181.34 270.225C1180.87 276.828 1179.88 283.383 1178.39 289.833C1174.77 305.931 1167.52 320.993 1157.21 333.874C1158.72 332.036 1160.76 330.72 1163.06 330.113C1165.36 329.507 1167.78 329.64 1170 330.495C1170.82 331.151 1171.5 331.965 1171.99 332.887C1172.49 333.809 1172.8 334.822 1172.9 335.865C1174.22 344.19 1164.75 351.249 1163.91 351.913C1170.92 352.075 1177.93 351.813 1184.9 351.128C1208.67 348.836 1221.1 347.629 1231.78 339.062C1250.66 323.014 1254.58 291.22 1243.97 272.578ZM1219.17 326.875C1217.96 335.804 1202.82 343.285 1193.71 338.941C1188.04 336.106 1184.66 328.565 1186.35 326.875C1188.04 325.186 1190.57 328.203 1196 328.082C1206.5 328.082 1211.69 317.162 1216.27 319.274C1218.81 319.998 1219.53 324.161 1219.17 326.936V326.875ZM1233.65 312.698C1231.78 319.575 1227.62 326.875 1225.32 326.453C1223.03 326.031 1224.54 314.87 1219.29 311.19C1210.54 305.157 1192.56 325.85 1186.23 321.385C1179.9 316.921 1185.32 291.22 1202.76 279.818C1204.69 278.611 1216.88 270.648 1226.35 275.474C1237.87 281.507 1236.61 302.14 1233.65 312.758V312.698Z" fill="#ECECEC"/>
<path d="M1029.55 339.846C1026.91 334.376 1025.02 328.571 1023.94 322.592C1022.65 314.245 1022.78 305.741 1024.3 297.434C1031.42 262.986 1068.35 247.058 1062.37 233.786C1061.67 232.5 1060.71 231.369 1059.56 230.457C1058.41 229.545 1057.09 228.872 1055.68 228.477C1045.06 225.219 1026.18 251.101 1024.49 253.453C1027.01 244.5 1031.41 236.186 1037.39 229.061C1043.37 221.936 1050.8 216.164 1059.18 212.127C1061.65 211.041 1084.94 201.207 1104.66 210.679C1111.92 215.105 1119.41 219.133 1127.11 222.745C1133.05 225.131 1139.31 226.654 1145.69 227.27C1140.81 229.437 1136.99 233.451 1135.07 238.431C1132.3 246.395 1135.07 257.194 1142.43 260.331C1145.65 261.608 1149.23 261.608 1152.45 260.331C1152.05 260.783 1151.63 261.206 1151.18 261.598C1146.87 263.96 1141.84 264.651 1137.06 263.538C1132.27 262.425 1128.06 259.586 1125.24 255.565C1122.1 248.748 1130.12 243.499 1127.59 235.897C1125.06 228.296 1112.21 223.831 1103.46 223.831C1077.58 223.831 1044.27 261.779 1051.69 296.65C1055.68 315.473 1072.21 337.856 1093.93 338.037C1100.19 337.943 1106.33 336.329 1111.82 333.334C1117.32 330.338 1122.01 326.051 1125.48 320.842C1128.39 316.121 1130.32 310.861 1131.15 305.377C1131.98 299.893 1131.69 294.298 1130.31 288.928C1129.62 286.171 1128.63 283.5 1127.35 280.964C1132.86 286.716 1136.67 293.879 1138.36 301.662C1140.06 309.445 1139.56 317.545 1136.94 325.066C1128.98 345.819 1105.99 350.042 1099.66 351.189C1081.56 354.507 1058.09 349.077 1048.07 333.874C1039.33 320.48 1043.19 303.286 1038.48 302.683C1035.1 302.2 1031.42 310.888 1030.52 312.879C1027.23 321.514 1026.89 330.998 1029.55 339.846Z" fill="#ECECEC"/>
<path d="M348.182 624C348.182 624 362.661 620.923 365.677 616.218C367.186 608.918 349.026 595.162 330.867 596.128C324.29 595.791 317.827 597.945 312.768 602.161C298.349 616.821 322.179 650.425 314.638 695.492C313.854 700.137 312.044 711.359 303.839 715.763C302.29 716.633 300.591 717.206 298.831 717.452C302.244 713.875 304.657 709.464 305.83 704.662C306.679 702.357 307.063 699.907 306.96 697.452C306.856 694.998 306.267 692.589 305.226 690.364C303.055 686.804 300.219 686.502 296.961 681.978C295.16 679.398 293.888 676.486 293.221 673.411C294.85 675.221 299.254 679.444 301.848 678.237C302.391 677.968 302.871 677.587 303.255 677.119C303.64 676.651 303.921 676.107 304.08 675.522C307.821 665.266 293.764 621.225 303.718 603.488C306.833 598.379 311.274 594.209 316.569 591.422C339.977 577.124 362.842 593.835 384.018 580.381C389.955 576.487 394.762 571.098 397.954 564.756C397.686 568.353 397.039 571.912 396.024 575.374C392.404 587.862 386.552 590.276 387.698 595.102C389.508 603.005 405.797 601.135 410.925 611.633C411.795 613.631 412.245 615.787 412.245 617.967C412.245 620.147 411.795 622.303 410.925 624.302C409.719 615.192 404.229 609.099 398.859 609.038C393.49 608.978 388.241 616.157 387.939 622.733C386.974 635.704 406.038 642.28 405.495 657.665C405.362 660.061 404.789 662.413 403.806 664.603C401.755 650.727 399.764 647.288 398.196 647.227C392.162 647.227 378.95 697.603 393.731 706.834C399.04 710.152 406.702 707.497 411.83 704.964C397.773 717.814 391.257 719.081 387.698 717.03C382.811 714.375 381.665 703.455 380.157 683.245C379.771 676.401 377.356 669.827 373.219 664.361L372.434 663.456C369.227 660.593 365.453 658.436 361.358 657.126C357.263 655.817 352.938 655.384 348.664 655.855C348.664 655.855 372.796 654.769 375.632 646.986C378.467 639.204 370.323 628.887 362.058 625.147C357.645 623.409 352.819 623.011 348.182 624ZM345.708 593.232C345.708 594.257 358.498 593.232 368.151 602.1C372.796 606.504 374.184 611.09 376.839 610.607C379.493 610.124 382.148 603.609 380.338 599.204C376.175 588.586 346.07 591.724 345.708 593.232Z" fill="#ECECEC"/>
<path d="M746.001 686.139C739.063 683.906 733.935 694.283 712.698 701.462C710.149 702.972 707.278 703.856 704.321 704.043C701.364 704.229 698.405 703.713 695.686 702.536C692.967 701.359 690.565 699.554 688.677 697.27C686.79 694.987 685.47 692.288 684.826 689.396C681.749 681.252 684.222 672.202 689.29 654.465C694.056 637.633 696.53 635.461 698.883 634.375C705.278 631.6 713.543 635.883 718.007 640.408C721.15 644.119 723.176 648.646 723.849 653.462C724.521 658.278 723.814 663.187 721.808 667.617C722.993 665.736 723.926 663.708 724.583 661.584C726.282 656.38 726.532 650.812 725.307 645.476C724.478 639.717 722.054 634.304 718.309 629.85C715.156 626.251 711.4 623.23 707.208 620.921C704.299 619.072 701.897 616.525 700.222 613.512C698.547 610.499 697.651 607.114 697.616 603.667C697.538 597.605 699.684 591.724 703.649 587.136C707.751 581.888 712.336 577.001 716.62 571.933C717.275 571.046 717.841 570.096 718.309 569.098C707.013 582.064 691.661 590.825 674.751 593.954C662.189 596.287 649.304 596.287 636.742 593.954C619.919 590.774 604.659 582.018 593.425 569.098C593.894 570.096 594.46 571.046 595.115 571.933C599.398 577.001 603.983 581.888 608.146 587.136C612.115 591.721 614.262 597.604 614.179 603.667C614.155 607.117 613.264 610.505 611.588 613.52C609.911 616.535 607.504 619.08 604.586 620.921C600.395 623.23 596.639 626.251 593.486 629.85C589.741 634.304 587.317 639.717 586.487 645.476C585.287 650.814 585.536 656.376 587.211 661.584C587.868 663.708 588.801 665.736 589.986 667.617C587.981 663.187 587.273 658.278 587.946 653.462C588.619 648.646 590.644 644.119 593.787 640.408C598.252 635.763 606.517 631.479 612.912 634.375C615.265 635.461 617.738 637.633 622.505 654.465C627.572 672.202 630.046 681.252 626.969 689.396C626.325 692.288 625.005 694.987 623.117 697.27C621.23 699.554 618.828 701.359 616.109 702.536C613.39 703.713 610.431 704.229 607.474 704.043C604.517 703.856 601.646 702.972 599.096 701.462C578.101 694.283 572.792 683.906 565.854 686.139C558.916 688.371 553.788 701.462 557.951 709.667C563.381 721.009 582.083 715.7 595.416 729.697C600.521 735.224 603.898 742.123 605.129 749.546C605.247 745.176 604.76 740.811 603.681 736.575C601.835 732.409 601.088 727.839 601.51 723.302C601.712 721.513 602.448 719.827 603.62 718.461C604.793 717.094 606.348 716.112 608.086 715.64C618.356 712.967 628.863 711.31 639.457 710.693L656.229 710.21L673.001 710.693C683.615 711.312 694.142 712.969 704.433 715.64C706.163 716.115 707.71 717.1 708.872 718.466C710.035 719.833 710.758 721.518 710.949 723.302C711.371 727.839 710.623 732.409 708.777 736.575C707.694 740.809 707.226 745.178 707.389 749.546C708.474 742.174 711.681 735.277 716.62 729.697C729.832 715.519 748.655 721.009 754.085 709.667C757.705 701.462 752.697 688.371 746.001 686.139ZM593.667 720.889C591.566 719.242 589.348 717.75 587.03 716.424C579.368 712.141 575.809 712.322 573.456 708.883C571.103 705.444 570.862 699.592 573.456 697.903C576.05 696.214 581.118 697.903 595.115 709.969C594.113 711.582 593.466 713.391 593.216 715.273C592.966 717.156 593.12 719.07 593.667 720.889ZM678.551 707.857C678.07 708.157 677.527 708.345 676.964 708.408C676.4 708.47 675.829 708.406 675.294 708.219C668.892 707.41 662.438 707.087 655.988 707.254C649.537 707.087 643.084 707.41 636.682 708.219C636.146 708.402 635.576 708.464 635.013 708.401C634.45 708.339 633.908 708.153 633.424 707.857C633.01 707.385 632.707 706.825 632.54 706.219C632.373 705.613 632.345 704.977 632.459 704.358C634.329 676.365 626.426 648.553 623.892 620.62C623.289 614.587 622.505 606.925 627.09 602.521C631.876 599.317 637.674 597.986 643.379 598.78H668.657C674.343 597.984 680.123 599.316 684.886 602.521C689.471 606.683 688.687 614.587 688.144 620.62C685.489 648.553 677.646 676.365 679.517 704.358C679.63 704.977 679.603 705.613 679.436 706.219C679.268 706.825 678.966 707.385 678.551 707.857ZM738.882 708.943C736.529 712.382 732.849 712.201 725.307 716.485C722.925 717.83 720.628 719.321 718.43 720.949C719.075 719.138 719.323 717.209 719.156 715.294C718.99 713.378 718.413 711.521 717.465 709.848C731.461 697.782 736.951 696.395 739.123 697.782C741.295 699.17 741.174 705.324 738.761 708.883L738.882 708.943Z" fill="#ECECEC"/>
<path d="M333.643 862.485C326.705 860.252 321.577 870.629 300.401 877.809C295.53 880.195 289.963 880.752 284.715 879.377C281.816 878.064 279.237 876.138 277.154 873.732C275.071 871.326 273.534 868.498 272.649 865.441C269.572 857.296 271.985 848.247 277.053 830.51C281.88 813.677 284.293 811.506 286.646 810.48C293.041 807.644 301.366 811.928 305.831 816.513C308.974 820.224 310.999 824.751 311.672 829.567C312.345 834.383 311.637 839.292 309.632 843.722C310.776 841.819 311.707 839.796 312.407 837.689C314.067 832.476 314.297 826.913 313.07 821.581C312.296 815.806 309.865 810.378 306.072 805.955C302.936 802.339 299.176 799.314 294.971 797.026C292.118 795.234 289.75 792.766 288.077 789.84C286.404 786.915 285.477 783.623 285.379 780.254C285.296 774.191 287.443 768.308 291.412 763.724C295.575 758.475 300.099 753.588 304.443 748.521C305.055 747.605 305.619 746.659 306.132 745.685C300.277 752.492 293.248 758.193 285.379 762.517C278.357 766.31 270.784 768.977 262.936 770.421C256.704 771.693 250.352 772.279 243.992 772.17C237.613 772.282 231.24 771.696 224.988 770.421C217.14 768.977 209.567 766.31 202.545 762.517C194.515 758.199 187.34 752.455 181.369 745.564C181.883 746.538 182.447 747.485 183.059 748.4C187.402 753.468 191.927 758.354 196.09 763.603C200.059 768.188 202.206 774.07 202.123 780.134C202.111 783.579 201.231 786.965 199.565 789.981C197.899 792.997 195.501 795.544 192.591 797.388C188.386 799.676 184.626 802.701 181.49 806.317C177.697 810.74 175.266 816.168 174.492 821.943C173.265 827.275 173.495 832.838 175.155 838.051C175.855 840.158 176.786 842.181 177.93 844.084C175.925 839.654 175.217 834.745 175.89 829.929C176.563 825.113 178.588 820.586 181.731 816.875C186.196 812.229 194.521 807.946 200.916 810.842C203.269 811.867 205.682 814.039 210.509 830.872C215.577 848.609 217.99 857.658 214.973 865.803C214.07 868.851 212.527 871.671 210.446 874.075C208.365 876.478 205.795 878.409 202.907 879.739C197.66 881.114 192.093 880.557 187.221 878.171C166.226 870.991 160.917 860.614 153.979 862.847C147.041 865.079 141.913 878.171 146.136 886.375C151.506 897.718 170.268 892.409 183.601 906.405C188.54 911.985 191.748 918.882 192.832 926.254C192.965 921.887 192.498 917.523 191.444 913.283C189.598 909.117 188.851 904.547 189.273 900.01C189.463 898.226 190.187 896.541 191.349 895.174C192.511 893.808 194.058 892.823 195.788 892.348C206.059 889.681 216.567 888.024 227.16 887.401L243.992 886.918L260.764 887.401C271.357 888.024 281.865 889.681 292.136 892.348C293.869 892.827 295.42 893.812 296.592 895.177C297.763 896.541 298.501 898.224 298.712 900.01C299.081 904.551 298.314 909.112 296.48 913.283C295.426 917.523 294.959 921.887 295.092 926.254C296.176 918.882 299.384 911.985 304.322 906.405C317.535 892.228 336.418 897.718 341.788 886.375C345.709 877.809 340.641 864.717 333.643 862.485ZM181.611 897.235C179.412 895.606 177.115 894.115 174.733 892.77C167.071 888.487 163.511 888.668 161.098 885.229C158.685 881.79 158.564 875.938 161.098 874.249C163.632 872.56 168.76 874.249 182.757 886.315C181.805 887.951 181.211 889.77 181.013 891.652C180.816 893.534 181.019 895.437 181.611 897.235ZM266.495 884.143C266.012 884.439 265.47 884.625 264.907 884.687C264.344 884.75 263.774 884.688 263.238 884.505C256.836 883.695 250.382 883.373 243.932 883.54C237.481 883.37 231.027 883.692 224.626 884.505C224.08 884.689 223.5 884.751 222.927 884.689C222.354 884.626 221.802 884.44 221.308 884.143C220.92 883.655 220.635 883.093 220.469 882.492C220.304 881.891 220.26 881.262 220.343 880.644C222.213 852.651 214.31 824.839 211.776 796.906C211.233 790.873 210.388 783.211 214.973 778.806C219.765 775.613 225.558 774.283 231.262 775.066H256.541C262.245 774.283 268.039 775.613 272.83 778.806C277.415 782.969 276.571 790.873 276.028 796.906C273.313 824.839 265.59 852.651 267.28 880.644C267.387 881.25 267.373 881.872 267.239 882.472C267.104 883.073 266.851 883.641 266.495 884.143ZM326.826 885.229C324.473 888.668 320.793 888.487 313.191 892.77C310.809 894.115 308.512 895.606 306.313 897.235C306.968 895.428 307.226 893.501 307.07 891.586C306.913 889.671 306.347 887.811 305.408 886.134C319.405 874.068 324.835 872.68 327.067 874.068C329.299 875.456 329.058 881.67 326.705 885.229H326.826Z" fill="#ECECEC"/>
<path d="M422.207 645.839C425.34 646.43 428.561 646.377 431.672 645.682C434.784 644.987 437.722 643.665 440.306 641.797C443.626 638.474 446.04 634.357 447.317 629.837C448.595 625.317 448.694 620.545 447.606 615.976C445.313 603.91 436.807 600.893 436.203 588.405C436.028 584.639 436.56 580.874 437.772 577.304C437.178 580.352 437.178 583.486 437.772 586.535C437.847 589.374 439.014 592.075 441.03 594.076C442.456 594.779 444.025 595.144 445.615 595.144C447.205 595.144 448.774 594.779 450.2 594.076C459.913 590.577 461.542 580.079 472.281 574.951C477.992 572.53 484.303 571.899 490.38 573.141C514.512 575.856 538.644 598.902 542.324 625.086C542.984 629.91 542.984 634.801 542.324 639.625C534.542 621.044 530.681 616.941 528.629 617.484C524.768 618.389 524.225 636.549 528.629 651.51C532.628 664.748 539.841 676.79 549.624 686.562C527.604 676.548 509.686 674.496 505.281 681.133C501.662 686.683 506.91 698.447 511.918 705.265C516.204 710.286 521.18 714.673 526.699 718.296C526.276 719.02 515.658 712.685 501.722 707.316C486.519 701.283 478.977 698.568 470.23 698.266C459.037 698.155 447.957 700.503 437.772 705.144C428.421 709.005 420.336 714.254 420.035 713.711C419.733 713.168 442.538 701.645 441.392 690.484C441.03 686.804 437.953 681.133 434.936 681.615C433.734 681.837 432.598 682.332 431.618 683.063C428.047 685.013 423.9 685.633 419.914 684.813C426.354 683.111 432.03 679.284 436.022 673.953C442.417 665.024 443.443 651.933 439.34 649.218C437.47 648.011 435.721 649.218 430.593 648.856C427.551 648.749 424.619 647.694 422.207 645.839ZM494.905 620.923C491.224 616.855 489.088 611.624 488.872 606.142C488.872 597.575 494.905 594.076 493.034 586.897C492.458 584.82 491.39 582.913 489.92 581.338C488.449 579.762 486.62 578.565 484.588 577.847C477.168 575.374 469.445 582.493 466.489 585.087C453.88 596.731 454.423 615.795 454.423 620.078C455.026 633.834 460.456 635.101 459.792 646.925C459.008 663.456 448.571 668.946 451.527 675.341C455.69 684.451 483.08 686.985 499.791 673.953C513.607 663.154 514.512 646.02 516.322 611.632C516.865 601.376 516.322 593.533 511.496 590.335C509.308 589.427 506.912 589.138 504.571 589.499C502.23 589.861 500.034 590.86 498.223 592.387C492.129 597.515 490.501 609.098 494.905 620.923ZM532.732 673.531C535.567 669.61 524.527 653.501 518.373 655.01C515.96 655.553 514.512 658.69 514.21 661.043C513.547 666.593 519.278 670.575 520.243 671.359C524.225 674.134 530.862 675.824 532.732 673.531Z" fill="#ECECEC"/>
<path d="M1020.62 888.849C1016.94 892.106 1008.56 899.346 1003.01 896.873C993.353 892.649 1006.57 866.707 1001.68 823.511C998.782 797.207 990.638 777.237 1002.52 763.663C1004.85 761.028 1007.65 758.858 1010.79 757.268C1006.38 756.884 1001.96 757.785 998.059 759.862C978.572 771.204 1001.14 810.359 983.941 854.159C973.806 880.04 952.992 899.406 944.304 896.39C937.969 894.459 932.6 878.894 930.67 869.965C930.67 869.362 930.67 868.94 930.67 868.638C924.214 836.723 940.564 812.832 931.695 788.037C929.837 783.066 927.407 778.329 924.455 773.919C919.546 767.44 913.641 761.779 906.96 757.147C910.914 761.426 914.337 766.166 917.155 771.265C934.229 802.094 929.222 848.005 902.435 865.32C898.7 867.696 894.634 869.506 890.369 870.689C894.092 871.442 897.949 871.171 901.53 869.905C905.874 868.216 906.779 865.923 908.77 866.164C913.717 866.888 919.508 882.273 913.234 889.09C909.313 893.373 903.099 891.322 893.325 897.717C891.154 899.115 889.132 900.732 887.292 902.544C900.3 899.788 913.74 899.788 926.748 902.544C937.849 905.077 944.244 909.361 954.198 907.249C961.367 905.341 967.863 901.476 972.961 896.088C985.51 884.625 989.492 871.956 991.664 872.62C992.629 872.982 992.146 875.576 992.025 879.377C991.905 883.178 991.302 900.372 998.059 905.017C1003.61 908.878 1013.99 905.017 1020.2 901.156C1042.58 886.496 1040.11 849.212 1039.2 849.031C1038.3 848.85 1038.24 873.525 1020.62 888.849Z" fill="#ECECEC"/>
<path d="M952.568 765.478C966.867 763.004 973.382 745.931 987.62 746.775C991.692 747.12 995.572 748.651 998.782 751.18C996.268 746.855 992.473 743.419 987.922 741.346C981.22 738.941 973.848 739.222 967.349 742.13C953.835 747.318 952.93 756.79 942.855 758.661C939.509 759.084 936.112 758.815 932.874 757.871C929.636 756.926 926.626 755.326 924.032 753.17C937.245 765.237 946.596 766.443 952.568 765.478Z" fill="#ECECEC"/>
<path d="M547.271 340.507C543.53 343.704 535.205 350.944 529.654 348.47C520.001 344.308 533.214 318.667 528.327 275.169C525.371 248.865 517.286 228.835 529.172 215.261C531.512 212.736 534.319 210.688 537.437 209.228C533.036 208.789 528.604 209.671 524.707 211.762C505.22 223.104 527.724 262.258 510.59 306.058C500.394 331.94 479.58 351.306 470.953 348.651C464.92 346.66 459.188 331.095 457.318 322.166C457.318 321.623 457.318 321.141 457.318 320.899C450.863 288.924 467.212 265.094 458.344 240.298C456.485 235.328 454.056 230.59 451.104 226.181C446.214 219.667 440.306 213.983 433.608 209.349C437.53 213.653 440.951 218.389 443.804 223.466C460.817 254.295 455.87 300.206 429.083 317.521C425.337 319.889 421.275 321.717 417.017 322.951C420.72 323.53 424.509 323.113 427.998 321.744C432.281 320.115 433.246 317.762 435.237 318.064C440.184 318.788 445.916 334.172 439.702 340.929C435.72 345.212 429.506 343.222 419.732 349.556C417.58 351.003 415.561 352.638 413.699 354.443C426.703 351.653 440.151 351.653 453.155 354.443C464.256 356.917 470.651 361.26 480.666 359.149C487.85 357.244 494.352 353.355 499.429 347.927C511.917 336.525 515.899 323.795 518.071 324.519C519.036 324.821 518.614 327.475 518.433 331.276C518.252 335.077 517.709 352.211 524.466 356.856C530.076 360.778 540.453 356.856 546.667 352.995C569.05 338.335 566.576 301.111 565.671 300.93C564.766 300.749 564.827 325.062 547.271 340.507Z" fill="#ECECEC"/>
<path d="M1241.07 884.323C1237.33 887.52 1229 894.76 1223.39 892.286C1213.8 888.124 1226.95 862.483 1222.13 818.985C1219.17 792.681 1211.09 772.651 1222.91 759.077C1225.27 756.548 1228.1 754.5 1231.24 753.044C1226.82 752.633 1222.37 753.513 1218.45 755.578C1198.96 766.92 1221.52 806.074 1204.33 849.874C1194.19 875.756 1173.38 895.122 1164.75 892.467C1158.72 890.476 1152.99 874.911 1151.12 865.982L1150.82 864.715C1144.42 832.74 1160.71 808.91 1151.84 784.114C1149.98 779.144 1147.55 774.406 1144.6 769.997C1139.75 763.468 1133.86 757.781 1127.17 753.165C1131.09 757.458 1134.49 762.196 1137.3 767.282C1154.38 798.171 1149.37 844.022 1122.58 861.337C1118.85 863.727 1114.78 865.557 1110.52 866.767C1114.24 867.497 1118.1 867.205 1121.68 865.922C1126.02 864.293 1126.99 861.94 1128.98 862.242C1133.92 862.966 1139.65 878.35 1133.44 885.107C1129.46 889.39 1123.25 887.4 1113.47 893.795C1111.31 895.205 1109.29 896.821 1107.44 898.621C1120.44 895.833 1133.89 895.833 1146.89 898.621C1158 901.095 1164.39 905.438 1174.34 903.327C1181.54 901.437 1188.04 897.546 1193.11 892.105C1205.66 880.703 1209.64 867.973 1211.81 868.697C1212.78 868.697 1212.35 871.653 1212.17 875.454C1211.99 879.255 1211.45 896.389 1218.2 901.034C1223.82 904.956 1234.19 901.034 1240.35 897.173C1262.79 882.513 1260.32 845.289 1259.35 845.108C1258.39 844.927 1258.63 868.878 1241.07 884.323Z" fill="#ECECEC"/>
<path d="M994.322 1671.15C989.254 1689.25 978.033 1730.16 970.19 1716.22C957.098 1692.57 975.016 1548.26 968.38 1303.32C964.398 1155.21 953.357 1042.63 969.526 966.194C971.82 953.854 975.609 941.841 980.808 930.418C976.283 929.271 969.526 930.418 963.433 944.776C936.948 1008.67 967.596 1229.05 944.248 1475.68C930.432 1621.38 902.016 1730.46 890.433 1715.44C881.806 1704.4 874.445 1616.68 871.912 1566.36C871.912 1563.16 871.912 1560.69 871.55 1559.06C862.802 1379.28 884.943 1244.86 872.937 1105.25C869.257 1062.48 863.103 1025.86 863.103 1025.86C857.629 993.72 849.744 962.038 839.514 931.081C843.255 947.853 848.564 974.519 853.33 1010.48C876.617 1184.47 869.8 1442.8 833.3 1540.42C829.581 1551.4 824.078 1561.69 817.011 1570.88C820.691 1573.6 826.362 1575.47 832.214 1566.24C838.066 1557.01 839.333 1543.8 842.048 1545.36C848.805 1549.41 856.588 1635.86 848.081 1674.23C842.712 1698.36 834.265 1687.08 820.932 1722.92C817.719 1731.84 814.981 1740.92 812.728 1750.13C836.256 1731.24 854.054 1738.96 866.361 1750.49C881.444 1764.61 890.131 1788.86 903.706 1777.09C915.048 1767.2 922.589 1738.96 929.225 1713.93C946.239 1649.68 951.668 1578.18 954.624 1582.11C955.952 1583.86 955.288 1598.7 955.107 1619.99C955.107 1645.63 954.142 1738.12 963.191 1764.3C970.853 1786.2 984.91 1765.27 993.357 1742.52C1023.82 1660.05 1020.51 1450.28 1019.24 1449.32C1017.97 1448.35 1018.21 1584.4 994.322 1671.15Z" fill="#ECECEC"/>
<path d="M323.326 1402.62C320.129 1413.24 313.553 1435.14 306.856 1426.75C298.289 1416.2 296.117 1364.61 295.936 1359.06C294.126 1312.61 299.797 1256.5 309.39 1229.59C314.819 1214.15 319.887 1212.88 324.533 1187.36C326.791 1174.23 328.242 1160.97 328.876 1147.67C328.394 1150.92 321.395 1195.21 310.777 1193.94C300.159 1192.67 296.238 1130.17 291.834 1078.53C287.611 1029.24 286.404 986.342 285.801 958.711C285.801 983.446 284.835 1016.99 281.879 1054.58C279.888 1080.4 277.354 1101.87 275.001 1118.71C279.647 1112.67 282.784 1114.73 284.896 1118.71C294.669 1137.23 296.358 1221.27 290.929 1279.97C282.724 1365.1 256.661 1408.84 252.016 1389.77C250.688 1384.16 250.447 1370.28 254.549 1335.96C251.377 1354.07 247.146 1371.97 241.88 1389.59C232.469 1420.3 228.547 1415.41 227.34 1413.18C211.715 1384.46 237.174 1075.93 214.369 1018.08C211.715 1011.32 204.717 996.236 195.969 998.227C189.513 999.736 183.179 1007.1 178.654 1013.67C199.166 994.728 207.19 1023.02 209.181 1030.68C221.247 1079.25 217.748 1206.31 204.475 1285.64C194.822 1343.38 180.645 1380.12 181.61 1444.91C181.61 1458.25 182.636 1469.05 183.239 1475.5C183.239 1462.53 184.325 1419.39 192.53 1389.11C194.762 1380.9 201.217 1357.07 207.492 1365.64C213.766 1374.21 217.084 1411.43 215.817 1441.53C213.646 1493.42 198.02 1495.83 187.16 1560.2C181.463 1597.78 178.579 1635.74 178.533 1673.75C179.318 1662.71 180.765 1645.75 183.48 1627.05C187.16 1601.71 192.047 1567.81 199.709 1566.12C204.234 1565.09 208.759 1575.35 211.293 1589.46C216.964 1620.72 213.223 1672.24 206.949 1700.77C199.408 1734.8 187.402 1740.29 178.171 1727.26C163.692 1706.87 159.529 1645.75 159.228 1640.69C159.699 1670.67 162.971 1700.54 169.001 1729.91C181.61 1783.31 204.294 1787.71 216.662 1744.09C226.979 1707.59 227.823 1645.57 228.064 1626.57C228.909 1565.57 222.333 1544.4 226.013 1498.79C229.633 1454.08 239.346 1432.42 241.096 1428.62C251.593 1405.34 273.071 1408.17 281.457 1453.36C284.051 1467.18 283.81 1476.16 284.594 1555.56C285.921 1678.81 287.007 1699.57 290.627 1720.5C297.444 1763.64 309.993 1781.74 311.079 1776.13C312.044 1771.36 305.046 1751.99 300.22 1714.89C293.8 1654.71 294.184 1594 301.366 1533.9C310.234 1465.43 320.973 1470.19 330.566 1393.33C334.886 1357.11 337.122 1320.67 337.262 1284.19C336.78 1305.97 334.608 1364.79 323.326 1402.62Z" fill="#ECECEC"/>
<path d="M601.508 864.235C604.103 864.235 607.541 848.911 609.713 834.07C612.447 841.666 613.052 849.865 611.463 857.78C608.627 872.38 605.068 890.841 591.554 900.856C583.892 906.527 573.455 906.889 553.003 907.311C530.319 907.914 518.976 908.276 510.772 901.278C498.162 889.996 500.636 868.7 496.111 868.76C493.638 868.76 491.707 875.758 490.802 878.956C489.436 883.866 489.189 889.02 490.078 894.038C488.653 892.075 487.553 889.896 486.82 887.583C483.623 877.508 488.208 866.829 492.19 857.84C495.568 850.239 498.826 845.774 498.223 838.112C498.223 836.966 497.74 832.984 495.93 832.501C494.12 832.019 490.621 837.026 489.897 838.534C486.581 844.216 484.949 850.723 485.191 857.297C484.928 856.814 484.706 856.309 484.528 855.789C480.606 845.895 486.157 835.277 489.053 829.183C499.128 808.43 506.548 792.985 502.205 779.954C499.852 772.835 494.422 767.345 495.387 766.56C496.353 765.776 500.455 769.034 503.411 773.076C507.347 779.002 509.194 786.072 508.66 793.166C506.85 837.931 499.791 871.595 512.823 884.265C516.858 887.81 521.904 890.002 527.249 890.533C532.595 891.063 537.972 889.905 542.626 887.221C562.897 871.595 523.924 810.421 550.831 777.721C555.461 772.377 561.32 768.236 567.904 765.655C566.244 766.957 564.672 768.368 563.199 769.879C553.716 780.457 548.194 793.995 547.573 808.188C546.789 816.092 546.306 833.346 551.374 834.794C553.968 835.518 557.407 831.958 558.674 829.787C559.941 827.615 561.328 823.331 560.061 803.181C559.929 801.535 559.929 799.88 560.061 798.234C564.752 808.409 566.467 819.703 565.008 830.812C560.665 860.133 550.228 868.277 555.899 878.352C557.612 881.247 560.047 883.647 562.965 885.318C565.884 886.989 569.187 887.873 572.55 887.885C575.412 887.515 578.17 886.571 580.658 885.11C583.146 883.648 585.313 881.698 587.029 879.378C594.45 870.329 591.192 859.047 587.693 823.934C585.159 798.777 585.762 793.769 587.693 788.219C592.594 776.26 601.6 766.441 613.092 760.527C606.777 765.91 601.956 772.829 599.095 780.617C594.691 793.407 595.536 809.938 600.724 811.627C605.007 813.015 612.368 804.206 615.565 796.665C617.39 792.317 618.235 787.621 618.039 782.91C619.998 787.83 620.562 793.195 619.668 798.415C618.099 806.499 613.635 807.706 607.602 817.539C601.111 828.025 597.897 840.209 598.371 852.531C598.733 856.151 599.638 864.114 601.508 864.235Z" fill="#ECECEC"/>
</svg>
