<svg width="1400" height="2000" viewBox="0 0 1400 2000" fill="none" xmlns="http://www.w3.org/2000/svg">
<rect width="1399.32" height="2000" transform="translate(0.0078125)" fill="#141414"/>
<path d="M911.326 542.892C929.559 538.305 943.615 526.071 947.321 510.544C948.458 505.323 948.523 499.925 947.512 494.678C946.501 489.431 944.435 484.444 941.439 480.019C938.884 476.111 934.926 473.332 930.382 472.256C926.053 471.586 921.63 472.55 917.972 474.961C921.145 470.891 925.567 467.978 930.559 466.668C938.793 464.845 944.027 469.433 948.556 466.315C950.967 464.669 951.261 462.14 952.614 451.729C953.355 442.417 954.81 433.176 956.966 424.086C958.1 417.778 960.902 411.888 965.083 407.03C969.045 403.153 973.952 400.38 979.317 398.987C984.683 397.594 990.319 397.63 995.667 399.09C998.83 399.69 1001.74 401.227 1004.02 403.501C998.907 402.216 993.64 401.662 988.374 401.854C980.492 402.913 971.847 407.736 971.905 412.676C971.976 413.464 972.206 414.23 972.58 414.927C972.954 415.625 973.465 416.239 974.082 416.735C980.434 422.616 994.961 415.794 1002.43 413.088C1004.35 412.326 1006.21 411.441 1008.02 410.441C1018.37 405.03 1028.6 401.384 1037.95 404.56C1040.6 405.493 1043.03 406.932 1045.13 408.795C1039.24 406.984 1032.97 406.782 1026.97 408.209C1020.97 409.636 1015.46 412.64 1011.02 416.911C1008.11 419.098 1006.04 422.209 1005.14 425.733C1004.85 427.37 1004.9 429.049 1005.31 430.661C1005.72 432.273 1006.46 433.781 1007.49 435.085C1011.19 440.086 1015.36 444.716 1019.96 448.906C1028.01 456.299 1033.62 465.957 1036.07 476.608C1038.43 496.782 1011.84 506.016 1013.02 529.541C1013.37 535.297 1015.15 540.874 1018.19 545.774C1013.91 543.331 1010.44 539.693 1008.19 535.305C1005.74 529.268 1005.07 522.656 1006.25 516.249C1006.9 509.368 1007.08 502.428 1007.31 495.546C1007.31 492.782 1006.9 492.37 1004.49 493.37C1001.26 494.806 997.712 495.374 994.196 495.017C988.315 494.488 986.374 489.136 978.434 485.43C970.494 481.725 957.555 481.843 954.143 487.077C952.379 489.841 954.143 492.076 954.731 499.487C955.404 506.895 954.147 514.352 951.085 521.131C946.425 529.102 939.057 535.134 930.323 538.128C924.305 540.777 917.882 542.387 911.326 542.892ZM955.908 476.255C958.907 477.314 962.848 472.373 965.142 470.374C976.905 458.611 996.608 468.55 1002.96 460.61C1009.31 452.67 999.078 424.322 985.315 422.322C967.671 419.675 950.673 461.257 953.202 472.197C953.438 472.903 954.085 475.608 955.908 476.255ZM1012.72 505.663C1013.96 506.074 1016.43 502.84 1021.25 496.37C1027.96 487.43 1028.6 484.607 1028.84 483.019C1029.37 479.49 1028.84 473.55 1026.07 472.315C1023.31 471.08 1018.78 475.255 1017.96 476.02C1015.22 478.931 1013.41 482.599 1012.78 486.548C1011.02 493.606 1009.9 504.839 1012.72 505.721V505.663ZM997.725 468.198C991.138 467.903 985.962 474.902 986.903 478.784C988.315 484.666 1004.55 486.842 1007.19 482.313C1007.54 480.762 1007.56 479.158 1007.26 477.597C1006.97 476.036 1006.36 474.552 1005.47 473.233C1004.59 471.914 1003.45 470.788 1002.12 469.922C1000.78 469.057 999.29 468.47 997.725 468.198Z" fill="#ECECEC"/>
<path d="M684.186 356.445C683.899 354.314 684.105 352.145 684.789 350.106C685.472 348.066 686.614 346.211 688.127 344.682C693.302 340.683 701.066 345.506 704.066 341.859C706.065 339.389 704.771 335.095 702.419 329.155C699.604 321.527 698.814 313.3 700.125 305.276C700.921 312.092 703.144 318.663 706.651 324.561C710.157 330.459 714.868 335.552 720.475 339.507C724.063 341.859 735.826 349.446 747.941 345.388C767.703 338.683 767.527 307.864 767.468 306.335C767.468 303.335 767.468 292.396 762.057 290.337C757.881 288.691 754.176 293.866 747.824 296.219C736.708 300.865 715.005 289.514 708.594 273.516C701.007 254.754 715.828 240.521 706.595 223.465C702.165 216.18 695.316 210.684 687.244 207.938C695.537 207.938 705.889 208.938 711.535 215.995C722.357 229.346 707.771 252.813 718.416 261.577C721.503 263.359 724.92 264.492 728.46 264.907C732 265.322 735.587 265.009 739.002 263.988C743.766 262.753 748.235 260.577 747.706 260.989C733.061 271.517 730.473 275.928 731.356 277.869C732.238 279.809 740.178 280.986 746.059 277.575C749.586 275.056 752.262 271.524 753.733 267.448C755.203 263.371 755.399 258.944 754.293 254.754C757.252 260.846 757.716 267.852 755.587 274.281C754.176 277.751 751.117 282.221 752.176 283.162C753.235 284.103 753.999 283.162 754.47 282.868C762.88 279.986 770.115 250.578 770.115 250.578C774.467 234.224 782.357 219.025 793.229 206.056C789.812 213.517 786.846 221.177 784.348 228.993C776.761 252.519 769.879 273.575 778.466 283.221C782.989 286.963 786.506 291.774 788.7 297.219C790.1 301.116 790.68 305.261 790.406 309.393C788.994 302.747 786.171 297.336 782.995 297.16C778.584 297.16 772.997 306.982 775.349 313.51C776.878 317.863 780.878 317.921 783.76 323.038C785.79 327.031 786.372 331.604 785.406 335.978C781.466 326.92 778.113 325.273 775.996 325.215C768.938 325.215 767.997 341.624 754.47 351.328C746.001 356.484 735.903 358.269 726.18 356.328C709.535 353.857 703.183 344.565 693.479 347.917C689.523 349.654 686.255 352.653 684.186 356.445Z" fill="#ECECEC"/>
<path d="M728.466 1768.83C728.218 1766.76 728.439 1764.67 729.111 1762.71C729.783 1760.74 730.889 1758.95 732.347 1757.47C737.523 1753.47 745.287 1758.3 748.286 1754.65C750.345 1752.18 748.992 1747.83 746.639 1741.95C743.863 1734.31 743.074 1726.09 744.346 1718.07C745.177 1724.88 747.422 1731.44 750.936 1737.34C754.45 1743.23 759.157 1748.33 764.754 1752.3C768.342 1754.65 780.046 1762.24 792.162 1758.18C811.924 1751.48 811.747 1720.66 811.747 1719.13C811.747 1716.13 811.747 1705.19 806.278 1703.13C802.102 1701.48 798.396 1706.66 792.103 1709.01C780.928 1713.66 759.285 1702.31 752.815 1686.31C745.287 1667.55 760.108 1653.31 750.815 1636.26C746.393 1628.99 739.569 1623.5 731.524 1620.73C739.817 1620.73 750.109 1621.73 755.815 1628.79C766.578 1642.14 751.992 1665.61 762.637 1674.37C765.729 1676.14 769.147 1677.26 772.684 1677.67C776.221 1678.09 779.805 1677.78 783.222 1676.78C786.183 1675.94 789.09 1674.92 791.927 1673.72C777.341 1684.31 774.694 1688.72 775.576 1690.6C776.459 1692.48 784.457 1693.78 790.339 1690.6C793.857 1688.06 796.526 1684.52 797.996 1680.44C799.465 1676.35 799.666 1671.92 798.573 1667.72C801.528 1673.84 801.971 1680.87 799.808 1687.31C798.396 1690.78 795.397 1695.19 796.456 1696.19C797.514 1697.19 798.279 1696.19 798.691 1696.19C806.925 1692.84 814.394 1663.25 814.394 1663.25C818.71 1646.91 826.582 1631.73 837.45 1618.79C834.058 1626.26 831.093 1633.92 828.568 1641.73C820.981 1665.25 814.1 1686.31 822.687 1695.9C827.192 1699.68 830.705 1704.5 832.921 1709.95C834.304 1713.85 834.904 1717.99 834.685 1722.13C833.215 1715.48 830.392 1710.07 827.275 1709.89C822.805 1709.89 817.276 1719.72 819.57 1726.24C821.099 1730.54 825.451 1730.65 828.039 1735.77C830.046 1739.77 830.627 1744.34 829.686 1748.71C825.687 1739.59 822.393 1738.01 820.276 1737.95C813.218 1737.95 812.218 1754.3 798.749 1764.06C790.258 1769.22 780.143 1771 770.401 1769.06C753.756 1766.53 747.404 1757.3 737.758 1760.65C733.835 1762.26 730.564 1765.14 728.466 1768.83Z" fill="#ECECEC"/>
<path d="M1036.66 1118.63C1036.66 1103.81 1037.78 1085.93 1043.84 1076.52C1053.43 1061.7 1067.78 1079.46 1073.25 1065.99C1077.01 1056.82 1074.54 1040.76 1070.25 1018.94C1065.01 989.743 1063.56 959.991 1065.95 930.423C1066.78 943.304 1072.13 1016.41 1103.65 1057.4C1110.24 1065.99 1131.94 1094.22 1154.29 1079.05C1190.82 1054.17 1190.52 939.775 1190.46 934.011C1190.46 923.013 1189.99 882.254 1180.41 874.667C1172.64 868.786 1165.88 887.665 1154.18 897.428C1133.53 914.543 1093.54 872.609 1081.6 813.206C1067.66 743.569 1095.07 690.635 1077.95 627.409C1069.25 595.238 1053.6 578.593 1042.25 569.712C1057.6 568.947 1076.66 573.417 1087.13 599.531C1107.07 649.289 1080.13 736.276 1099.77 768.859C1109.07 784.21 1127 783.21 1137.83 777.681C1143.43 774.328 1148.79 770.595 1153.88 766.507C1126.89 805.795 1122.06 822.028 1123.65 829.144C1125.53 837.32 1140.06 840.907 1150.88 828.144C1163.17 813.794 1169.47 780.21 1166.12 743.392C1172.88 778.328 1171.41 801.148 1168.47 815.911C1165.88 828.791 1160.23 845.318 1162.23 849.024C1163.23 850.847 1165.59 848.494 1166.41 847.789C1181.58 835.32 1195.35 725.689 1195.35 725.689C1201.4 673.097 1214.82 621.619 1235.22 572.77C1231.99 590.003 1227.52 615.235 1221.64 645.524C1212.87 692.576 1194.35 809.912 1211.34 846.73C1217.7 860.551 1225.22 870.962 1230.28 898.84C1232.84 913.734 1233.9 928.846 1233.46 943.951C1230.75 919.249 1225.58 899.252 1219.75 898.605C1211.58 897.664 1201.29 935.011 1205.58 959.243C1208.4 975.299 1215.87 975.711 1221.17 994.532C1224.94 1010.27 1225.95 1026.55 1224.17 1042.64C1216.87 1008.76 1210.76 1002.82 1206.52 1002.65C1193.46 1002.12 1191.7 1063.35 1166.76 1099.58C1161.52 1108.22 1153.45 1114.77 1143.91 1118.13C1134.38 1121.49 1123.98 1121.44 1114.48 1117.98C1083.66 1108.75 1071.95 1074.11 1054.07 1086.81C1045.19 1093.28 1039.84 1108.04 1036.66 1118.63Z" fill="#ECECEC"/>
<path d="M891.562 203C886.422 206.7 882.246 211.582 879.387 217.233C876.582 222.323 875.181 228.068 875.329 233.878C875.741 242.347 881.21 255.463 891.326 256.11C899.972 256.698 906.324 247.405 906.971 246.464C906.077 249.783 904.516 252.885 902.384 255.58C898.203 260.104 892.782 263.295 886.798 264.756C867.271 271.99 860.331 328.805 871.212 333.451C876.564 335.804 888.327 326.099 891.15 314.572C892.455 308.423 891.625 302.012 888.797 296.398C892.322 300.071 894.712 304.682 895.682 309.678C896.652 314.675 896.161 319.846 894.267 324.57C890.562 332.922 883.622 334.334 883.975 340.391C884.033 341.634 884.383 342.846 884.996 343.929C885.609 345.012 886.468 345.936 887.504 346.626C892.326 349.214 901.737 343.626 910.735 332.157C901.619 347.567 888.974 358.506 878.74 356.448C865.095 353.684 853.509 327.041 857.743 307.867C859.096 301.632 862.448 294.457 858.743 288.752C857.617 286.883 855.955 285.395 853.973 284.483C851.99 283.57 849.779 283.275 847.627 283.635C844.94 284.807 842.787 286.94 841.59 289.616C840.393 292.293 840.239 295.319 841.157 298.104C841.976 300.498 843.486 302.597 845.495 304.136C847.505 305.674 849.924 306.584 852.45 306.749C848.708 307.333 844.879 306.65 841.569 304.808C833.159 299.692 835.158 288.282 826.748 284.811C825.377 284.167 823.881 283.832 822.366 283.832C820.851 283.832 819.355 284.167 817.984 284.811C816.514 285.87 816.455 286.811 815.22 288.458C813.03 290.976 809.956 292.556 806.633 292.869C815.632 282.4 814.161 269.931 808.927 266.344C804.575 263.403 796.105 265.344 789.4 271.696C791.694 269.461 815.455 245.758 808.75 218.762C807.405 213.449 805.027 208.453 801.751 204.059C806.209 207.194 809.99 211.194 812.868 215.822C827.101 238.23 812.515 261.462 824.042 272.637C832.688 281.047 853.45 279.636 862.331 269.872C874.447 256.639 859.331 234.172 873.035 215.763C877.752 209.705 884.221 205.249 891.562 203Z" fill="#ECECEC"/>
<path d="M1007.55 1002.06C994.488 993.532 984.49 1032.88 944.966 1059.99C930.321 1070.05 922.675 1070.81 915.559 1065.87C900.326 1054.99 894.444 1023.41 892.562 1013.35C886.681 982.416 891.386 948.304 900.914 881.314C909.913 817.676 914.559 809.501 918.97 805.619C930.733 794.973 946.613 811.089 954.965 828.733C966.728 853.965 969.492 894.076 962.14 931.483C964.36 924.415 966.089 917.203 967.316 909.898C970.501 889.739 970.936 869.241 968.61 848.965C967.384 828.789 962.957 808.936 955.494 790.151C950.73 779.682 951.201 778.917 934.615 756.391C923.146 740.864 916.97 719.573 916.617 691.224C916.284 669.842 920.286 648.614 928.38 628.821C936.203 609.06 944.731 590.592 952.906 571.418C954.151 567.913 955.192 564.339 956.023 560.714C946.329 584.113 932.902 605.784 916.265 624.881C904.749 637.985 890.3 648.183 874.094 654.641C851.119 663.501 825.669 663.501 802.693 654.641C786.488 648.183 772.038 637.985 760.523 624.881C743.886 605.784 730.458 584.113 720.764 560.714C721.595 564.339 722.636 567.913 723.881 571.418C732.057 590.592 740.585 609.06 748.407 628.821C756.502 648.614 760.503 669.842 760.17 691.224C759.699 719.573 753.642 740.864 742.173 756.391C725.587 778.917 726.057 779.917 721.293 790.151C713.831 808.936 709.403 828.789 708.178 848.965C705.851 869.241 706.286 889.739 709.472 909.898C710.698 917.203 712.427 924.415 714.647 931.483C707.295 894.076 709.942 853.965 721.823 828.733C730.174 811.089 745.819 794.973 757.817 805.619C762.229 809.501 766.875 817.676 775.874 881.314C785.402 948.304 789.989 982.416 784.225 1013.35C782.343 1023.41 776.462 1054.99 761.229 1065.87C754.112 1070.93 746.466 1070.17 731.821 1059.99C692.298 1032.88 682.299 993.532 669.242 1002.06C656.185 1010.59 647.187 1059.88 654.48 1090.87C664.655 1133.75 700.12 1113.04 725.058 1166.51C735.062 1190.37 741.025 1215.73 742.702 1241.55C742.994 1225.14 742.13 1208.73 740.114 1192.44C737.585 1172.51 733.939 1160.27 735.997 1142.33C737.585 1127.87 740.938 1117.51 748.289 1113.46C766.545 1103.59 786.5 1097.27 807.104 1094.81C819.514 1093.87 830.218 1093.34 838.629 1092.93C847.04 1092.52 857.744 1093.87 870.154 1094.81C890.758 1097.27 910.713 1103.59 928.969 1113.46C936.32 1117.51 939.673 1127.87 941.261 1142.33C943.319 1159.98 939.673 1172.51 937.144 1192.44C935.128 1208.73 934.264 1225.14 934.556 1241.55C936.139 1215.75 942.003 1190.39 951.906 1166.51C976.726 1113.04 1012.19 1133.75 1022.48 1090.87C1029.6 1059.88 1020.19 1010.35 1007.55 1002.06ZM721.176 1133.28C717.259 1127.41 712.956 1121.81 708.295 1116.51C693.827 1100.34 687.122 1100.99 682.652 1087.81C678.182 1074.64 677.888 1052.52 682.24 1046.64C686.593 1040.76 696.591 1045.88 722.94 1091.46C718.176 1105.34 719.823 1119.87 721.176 1133.28ZM880.799 1083.81C880.504 1084.33 880.106 1084.78 879.629 1085.14C879.153 1085.49 878.609 1085.75 878.03 1085.89C877.451 1086.02 876.85 1086.04 876.264 1085.94C875.679 1085.83 875.12 1085.61 874.624 1085.28C862.791 1082.18 850.553 1080.91 838.335 1081.52C826.117 1080.91 813.879 1082.18 802.046 1085.28C801.067 1085.85 799.905 1086.02 798.807 1085.74C797.709 1085.47 796.761 1084.77 796.165 1083.81C794.55 1079.6 793.926 1075.07 794.341 1070.58C797.87 964.713 783.108 859.846 778.226 754.332C777.167 731.336 775.638 702.516 784.108 686.872C789.989 676.167 798.929 672.756 814.691 672.756H862.214C877.976 672.756 886.857 676.167 892.797 686.872C901.443 702.516 899.914 731.336 898.679 754.332C893.797 859.846 879.035 964.831 882.564 1070.58C882.998 1075.07 882.394 1079.6 880.799 1083.81ZM994.018 1087.81C989.548 1100.99 982.843 1100.34 968.375 1116.51C963.714 1121.81 959.411 1127.41 955.494 1133.28C956.847 1119.87 958.494 1105.34 953.73 1091.34C980.079 1045.76 990.312 1040.58 994.43 1046.52C998.547 1052.46 998.488 1074.52 994.018 1087.81Z" fill="#ECECEC"/>
<path d="M617.01 263.11C630.832 246.936 649.417 256.464 665.827 238.82C673.283 230.277 677.906 219.633 679.06 208.354C676.441 217.025 671.333 224.736 664.369 230.529C657.405 236.322 648.893 239.941 639.889 240.937C632.461 241.265 625.059 239.838 618.285 236.773C611.51 233.707 605.553 229.089 600.895 223.292C596.392 228.98 590.622 233.537 584.046 236.6C577.47 239.663 570.27 241.148 563.018 240.937C553.984 240.031 545.428 236.445 538.447 230.639C531.467 224.832 526.383 217.072 523.848 208.354C524.952 219.646 529.581 230.305 537.081 238.82C553.432 256.464 572.37 246.936 585.839 263.11C588.72 266.463 591.72 283.578 596.896 317.749C599.484 334.217 600.719 343.51 596.013 346.745C591.308 349.98 584.25 346.333 579.898 343.745C586.956 353.391 594.602 358.331 598.778 356.214C600.038 355.537 600.986 354.399 601.424 353.038C601.842 354.47 602.788 355.689 604.071 356.449C608.247 358.567 615.834 353.626 622.892 343.981C618.363 346.568 611.129 349.862 606.835 346.98C602.542 344.098 603.365 334.453 605.953 317.984C611.423 283.578 614.128 266.463 617.01 263.11Z" fill="#ECECEC"/>
<path d="M618.369 639.522C605.841 623.465 595.842 621.113 589.02 621.113C566.317 622.877 559.613 661.166 535.087 663.46C520.618 664.871 517.442 652.108 505.679 659.46C490.211 669.223 482.683 700.219 480.683 708.512C470.449 750.8 473.978 805.439 482.506 810.732C488.094 814.202 491.329 793.617 501.856 793.088C514.737 792.382 522.089 822.495 528.382 816.613C532.734 812.555 530.087 797.146 535.851 781.325C537.091 777.226 539.133 773.415 541.859 770.113C544.586 766.811 547.941 764.085 551.731 762.092C545.403 771.224 541.738 781.935 541.145 793.029C539.674 821.554 558.789 849.491 575.257 853.784C595.313 858.901 610.546 829.847 616.428 818.496C624.616 802.037 630.4 784.488 633.602 766.386C632.543 775.208 623.427 844.256 592.784 868.606C588.632 872.414 583.601 875.133 578.14 876.519C572.679 877.905 566.96 877.914 561.495 876.546C543.85 870.664 540.262 851.255 524.853 847.491C511.973 844.374 498.151 854.314 489.035 870.194C462.686 916.128 477.683 1008.17 479.977 1021.94C483.741 1045.46 487.329 1066.05 496.504 1074.16C510.679 1086.63 518.677 1050.64 544.674 1049.46C560.142 1048.87 562.73 1061.22 590.726 1064.46C598.286 1065.94 606.12 1064.95 613.075 1061.64C626.014 1055.11 635.131 1040.99 640.365 1031.35C638.718 1038.66 636.415 1045.8 633.484 1052.7C615.84 1090.22 588.373 1081.16 588.255 1089.28C588.138 1097.4 611.428 1111.51 630.132 1096.81C633.131 1094.45 635.601 1091.69 635.601 1091.81C635.601 1091.93 617.957 1122.92 599.607 1120.51C579.021 1117.75 577.081 1075.4 557.966 1071.58C537.028 1067.4 532.264 1113.63 507.15 1115.75C488.741 1117.27 479.154 1090.1 466.803 1102.81C462.98 1106.75 457.863 1115.04 449.158 1117.1C446.679 1117.66 444.092 1117.52 441.689 1116.69C458.713 1093.4 466.298 1064.53 462.921 1035.88C460.862 1022.76 455.04 1007.23 448.511 1006.82C437.748 1006.17 429.279 1045.7 426.456 1068.16C425.469 1076.07 424.88 1084.02 424.691 1091.98C423.312 1063.96 425.626 1035.88 431.573 1008.47C436.337 987.941 439.513 986.588 449.217 956.71C458.922 926.832 473.861 878.957 465.568 854.608C464.785 851.865 463.46 849.307 461.672 847.085C459.884 844.862 457.669 843.021 455.157 841.669C438.924 832.023 422.397 859.313 421.809 857.49C421.221 855.667 438.748 841.022 450.158 812.673C468.273 767.797 464.744 705.571 463.215 679.457C461.164 643.23 454.483 607.415 443.336 572.885C448.839 585.854 455.91 598.1 464.391 609.35C488.564 640.463 515.913 645.286 517.325 638.757C517.972 635.111 510.09 630.288 502.562 609.82C499.374 600.755 496.993 591.426 495.446 581.942C517.383 635.817 532.499 644.345 542.497 641.11C552.496 637.875 560.906 619.525 583.668 611.703C586.185 610.505 588.938 609.884 591.725 609.884C594.513 609.884 597.266 610.505 599.783 611.703C609.958 616.937 615.84 631.817 618.369 639.522Z" fill="#ECECEC"/>
<path d="M1114.12 1639.73C1109.45 1636.51 1103.91 1634.8 1098.24 1634.85C1085.94 1635.32 1082.41 1645.61 1068.83 1646.26C1060.95 1646.61 1059.24 1643.2 1052.95 1645.2C1049.93 1646.38 1047.17 1648.15 1044.85 1650.42C1042.52 1652.68 1040.68 1655.39 1039.42 1658.38C1033.83 1669.79 1035.77 1684.49 1040.42 1685.96C1043.42 1686.84 1045.18 1681.31 1050.89 1681.2C1057.83 1681.2 1061.83 1689.14 1065.24 1687.55C1067.59 1686.49 1066.18 1682.31 1069.3 1678.14C1071.45 1675.43 1074.5 1673.58 1077.89 1672.9C1076.34 1673.76 1075.01 1674.96 1073.99 1676.41C1072.97 1677.85 1072.29 1679.51 1072 1681.25C1071.24 1688.96 1081.47 1696.49 1090.53 1697.61C1094.72 1697.78 1098.9 1697.02 1102.77 1695.38C1106.63 1693.74 1110.09 1691.27 1112.88 1688.14C1116.99 1684.2 1120.16 1679.4 1122.17 1674.08C1121.58 1676.49 1116.64 1695.08 1100.06 1701.66C1094.7 1703.86 1088.85 1704.59 1083.12 1703.78C1073.65 1702.25 1071.65 1696.96 1063.3 1695.96C1059.84 1695.59 1056.33 1695.93 1053 1696.94C1049.67 1697.95 1046.57 1699.61 1043.89 1701.84C1029.66 1714.19 1038.01 1739.01 1039.01 1742.72C1041.07 1749.01 1042.95 1754.48 1047.95 1756.77C1055.65 1760.18 1059.71 1750.42 1074 1750.13C1082.41 1750.13 1083.77 1753.36 1098.94 1754.19C1102.99 1754.59 1107.09 1754.33 1111.06 1753.42C1116.58 1751.96 1121.65 1749.15 1125.82 1745.25C1124.77 1747.28 1123.45 1749.16 1121.88 1750.83C1112.29 1760.95 1097.47 1758.54 1097.41 1760.71C1097.35 1762.89 1109.94 1766.6 1120.06 1762.71C1121.7 1762.07 1123 1761.36 1123.06 1761.36C1117.63 1766.12 1110.74 1768.86 1103.53 1769.12C1092.41 1768.36 1091.35 1756.95 1081 1755.95C1069.65 1754.77 1067.06 1767.24 1053.48 1767.71C1043.54 1768.12 1038.3 1760.77 1031.66 1764.24C1028.8 1766.2 1025.55 1767.51 1022.13 1768.07C1020.78 1768.26 1019.42 1768.26 1018.07 1768.07C1027.19 1762.18 1031.6 1753.24 1029.42 1746.3C1028.36 1742.77 1025.19 1738.6 1021.66 1738.48C1015.78 1738.48 1011.25 1748.95 1009.9 1755.01C1009.37 1757.11 1009.06 1759.26 1008.95 1761.42C1008.21 1753.72 1009.49 1745.95 1012.66 1738.89C1015.5 1734.06 1018.65 1729.4 1022.07 1724.95C1027.19 1716.96 1035.42 1704.02 1030.95 1697.43C1029.48 1695.59 1027.39 1694.36 1025.07 1693.96C1016.31 1691.37 1007.43 1698.72 1007.01 1698.25C1012.68 1694.97 1017.85 1690.89 1022.36 1686.14C1032.19 1674.08 1030.25 1657.32 1029.42 1650.26C1028.2 1640.01 1024.62 1630.18 1018.95 1621.56C1022.27 1625.35 1026.12 1628.66 1030.36 1631.38C1043.42 1639.79 1058.24 1641.08 1058.89 1639.32C1059.54 1637.56 1054.95 1637.03 1050.89 1631.5C1049.22 1629.21 1047.93 1626.67 1047.07 1623.97C1058.83 1638.5 1067.12 1640.79 1072.53 1639.97C1077.94 1639.14 1082.53 1634.09 1094.88 1631.97C1097.74 1631.28 1100.73 1631.28 1103.59 1631.97C1107.91 1633.21 1111.65 1635.97 1114.12 1639.73Z" fill="#ECECEC"/>
<path d="M1001.37 1263.61C996.709 1260.38 991.16 1258.67 985.489 1258.73C973.197 1259.2 969.668 1269.49 956.082 1270.14C948.201 1270.49 946.495 1267.08 940.202 1269.08C937.19 1270.27 934.445 1272.05 932.123 1274.31C929.801 1276.58 927.95 1279.27 926.675 1282.25C921.146 1293.66 923.028 1308.37 927.674 1309.84C930.674 1310.78 932.438 1305.19 938.143 1305.07C945.084 1305.07 949.083 1313.01 952.494 1311.48C954.847 1310.37 953.435 1306.19 956.552 1302.01C958.724 1299.33 961.758 1297.48 965.139 1296.78C963.615 1297.67 962.3 1298.87 961.285 1300.31C960.27 1301.75 959.579 1303.4 959.258 1305.13C958.493 1312.84 968.727 1320.36 977.785 1321.48C981.978 1321.65 986.157 1320.89 990.022 1319.25C993.886 1317.62 997.34 1315.14 1000.13 1312.01C1004.24 1308.08 1007.42 1303.28 1009.43 1297.96C1008.84 1300.37 1003.9 1318.95 987.371 1325.54C982.01 1327.73 976.167 1328.46 970.433 1327.66C960.905 1326.13 958.67 1320.84 950.553 1319.84C947.09 1319.48 943.59 1319.81 940.258 1320.82C936.925 1321.83 933.827 1323.5 931.145 1325.72C916.911 1338.13 925.263 1362.89 926.263 1366.59C928.321 1372.89 930.262 1378.36 935.203 1380.65C942.907 1384.06 946.966 1374.3 961.317 1374C969.668 1374 971.08 1377.24 986.254 1378.06C990.288 1378.46 994.36 1378.2 998.311 1377.3C1003.84 1375.86 1008.92 1373.05 1013.07 1369.12C1012.03 1371.16 1010.7 1373.04 1009.13 1374.71C999.546 1384.83 984.725 1382.41 984.666 1384.59C984.607 1386.77 997.194 1390.47 1007.31 1386.59C1008.96 1385.94 1010.25 1385.24 1010.31 1385.24C1004.9 1390.02 997.997 1392.77 990.783 1393C979.667 1392.24 978.608 1380.83 968.257 1379.83C956.964 1378.65 954.376 1391.12 940.731 1391.59C930.792 1392 925.616 1384.71 918.911 1388.12C916.055 1390.08 912.802 1391.38 909.383 1391.94C908.037 1392.13 906.671 1392.13 905.325 1391.94C914.441 1386.06 918.852 1377.12 916.735 1370.18C915.617 1366.65 912.441 1362.48 908.913 1362.36C903.031 1362.36 898.502 1372.83 897.15 1378.89C896.629 1380.99 896.314 1383.13 896.208 1385.3C895.468 1377.59 896.745 1369.83 899.914 1362.77C902.758 1357.93 905.901 1353.28 909.324 1348.83C914.441 1340.83 922.675 1327.89 918.205 1321.36C916.716 1319.54 914.635 1318.29 912.324 1317.84C903.56 1315.25 894.679 1322.6 894.268 1322.13C899.91 1318.95 905.077 1314.99 909.618 1310.37C919.44 1298.25 917.499 1281.49 916.735 1274.43C915.499 1264.18 911.895 1254.35 906.207 1245.73C909.529 1249.52 913.37 1252.83 917.617 1255.55C930.674 1263.96 945.495 1265.26 946.142 1263.49C946.789 1261.73 942.202 1261.2 938.143 1255.67C936.491 1253.39 935.201 1250.87 934.32 1248.2C946.083 1262.67 954.376 1265.02 959.787 1264.14C965.198 1263.26 969.786 1258.26 982.137 1256.14C984.998 1255.45 987.981 1255.45 990.842 1256.14C995.122 1257.31 998.85 1259.96 1001.37 1263.61Z" fill="#ECECEC"/>
<path d="M635.6 531.835C632.819 526.259 630.839 520.319 629.719 514.19C628.394 505.723 628.513 497.092 630.072 488.665C637.247 453.376 674.771 437.496 668.654 423.968C667.963 422.664 667.011 421.516 665.858 420.595C664.705 419.674 663.374 419.001 661.949 418.616C651.127 415.264 631.954 441.554 630.248 443.906C632.817 434.813 637.293 426.37 643.377 419.139C649.462 411.909 657.016 406.057 665.537 401.971C668.007 400.913 691.651 390.855 711.648 400.501C719.055 404.834 726.693 408.761 734.527 412.264C740.529 414.747 746.876 416.295 753.347 416.852C748.406 419.09 744.526 423.16 742.526 428.203C739.702 436.261 742.526 447.259 749.995 450.494C753.273 451.736 756.892 451.736 760.17 450.494C759.822 450.965 759.406 451.381 758.935 451.729C752.171 457.257 736.291 453.552 732.586 445.847C729.41 438.907 737.526 433.555 734.997 425.909C732.468 418.263 719.353 413.382 710.648 413.382C684.358 413.382 650.598 451.905 658.126 487.371C662.185 506.427 678.947 529.188 701.061 529.364C707.428 529.25 713.67 527.583 719.246 524.508C724.822 521.433 729.562 517.043 733.056 511.72C736.798 505.698 738.94 498.821 739.279 491.74C739.619 484.658 738.145 477.608 734.997 471.255C740.574 477.102 744.431 484.373 746.143 492.27C747.855 500.166 747.356 508.382 744.702 516.013C736.585 537.128 713.295 541.363 706.884 542.539C688.298 545.95 664.655 540.422 654.48 524.895C645.599 511.367 649.539 493.899 644.775 493.252C641.305 492.782 637.541 501.604 636.718 503.662C633.086 512.639 632.69 522.599 635.6 531.835Z" fill="#ECECEC"/>
<path d="M788.928 530.835C801.985 526.777 804.455 484.724 793.869 480.136C788.575 477.784 780.635 485.194 779.812 486.018C777.091 488.835 775.064 492.247 773.89 495.983C772.716 499.719 772.428 503.677 773.048 507.544C772.428 506.551 771.934 505.484 771.578 504.368C770.817 499.54 771.04 494.608 772.233 489.868C773.425 485.128 775.563 480.677 778.518 476.784C781.948 472.382 786.035 468.534 790.634 465.374C795.467 462.036 799.487 457.654 802.397 452.552C804.8 448.173 805.471 443.052 804.279 438.201C802.854 432.474 800.047 427.183 796.104 422.792C791.405 418.575 785.41 416.086 779.106 415.734C781.326 414.59 783.764 413.93 786.258 413.798C788.752 413.666 791.246 414.066 793.575 414.97C796.633 416.499 797.868 419.028 798.986 418.557C800.103 418.087 800.515 410.264 796.751 405.265C794.512 402.884 791.758 401.047 788.699 399.895C785.641 398.743 782.359 398.307 779.106 398.619C782.717 396.236 787.032 395.157 791.34 395.561C800.515 396.913 804.808 406.677 807.514 405.618C809.278 404.971 809.807 399.736 806.043 383.327C809.026 389.198 811.315 395.395 812.866 401.795C821.629 437.613 803.455 464.962 810.807 469.373C815.924 472.373 828.805 461.845 835.568 452.141C839.548 446.048 842.215 439.195 843.399 432.015C844.584 424.836 844.261 417.488 842.45 410.441C843.723 412.609 844.786 414.893 845.626 417.263C849.213 427.615 846.332 434.908 847.625 435.261C850.154 436.025 869.622 409.559 858.977 393.149C855.653 388.465 850.777 385.11 845.214 383.68C848.687 383.58 852.139 384.251 855.322 385.644C858.505 387.038 861.34 389.119 863.623 391.738C867.975 398.443 864.623 407.147 867.622 408.265C870.622 409.382 874.621 400.325 883.032 397.619C889.12 396.002 895.598 396.825 901.088 399.913C895.82 398.552 890.263 398.819 885.149 400.678C869.74 406.559 872.328 424.85 855.036 445.083C841.273 461.257 823.394 468.609 824.335 470.255C824.805 470.961 828.334 468.726 833.863 467.374C852.978 462.551 874.092 471.549 879.444 481.254C880.33 482.887 881.058 484.6 881.62 486.371C882.827 490.453 883.108 494.753 882.444 498.957C882.444 497.31 881.15 483.489 871.034 478.607C869.269 477.725 866.505 476.372 864.741 477.549C860.271 480.43 867.27 498.016 869.799 504.486C876.68 522.13 881.562 533.893 892.089 537.246C901.676 540.245 910.557 534.422 910.851 535.363C907.625 538.458 903.668 540.686 899.348 541.838C895.029 542.989 890.488 543.028 886.149 541.951C877.033 538.951 874.386 529.658 872.681 530.188C870.152 531.423 873.269 563.653 891.207 566.653C901.147 568.3 913.204 560.772 918.909 547.244C912.145 564.889 900.971 576.652 890.619 576.122C879.327 575.358 872.21 560.183 867.505 550.067C850.272 513.249 863.329 486.782 848.508 477.372C839.509 471.491 824.335 474.784 816.218 482.43C798.574 499.369 816.924 532.658 803.103 541.245C792.398 547.832 766.696 536.305 758.58 516.308C755.55 508.351 755.138 499.636 757.403 491.429C757.858 500.997 761.361 510.168 767.402 517.601C769.225 519.719 780.518 533.423 788.928 530.835Z" fill="#ECECEC"/>
<path d="M807.754 1264.43C802.752 1263.19 797.532 1263.11 792.496 1264.2C787.459 1265.29 782.739 1267.53 778.7 1270.73C773.791 1274.74 770.086 1280.03 767.995 1286.02C766.38 1281.92 766.235 1277.39 767.584 1273.2C772.465 1260.14 796.991 1254.14 816.224 1257.08C830.221 1259.26 836.691 1265.08 847.866 1261.32C848.513 1261.32 859.629 1257.14 859.629 1250.49C859.389 1248.99 858.822 1247.56 857.968 1246.3C857.114 1245.04 855.995 1243.98 854.688 1243.2C856.344 1243.35 857.942 1243.88 859.36 1244.75C860.777 1245.61 861.976 1246.8 862.864 1248.2C865.04 1253.26 858.159 1257.55 855.924 1268.37C853.689 1279.2 858.453 1281.08 855.924 1288.08C851.807 1298.19 840.102 1297.43 839.455 1302.9C838.161 1313.66 883.096 1320.54 887.272 1342.19C888.02 1348.15 886.555 1354.17 883.155 1359.13C884.68 1354.75 884.904 1350.03 883.802 1345.54C880.626 1332.83 866.51 1325.66 864.452 1327.89C862.393 1330.13 865.04 1337.48 873.45 1350.24C876.415 1356.42 877.44 1363.35 876.391 1370.12C874.333 1383.24 852.865 1395.41 824.34 1396C828.457 1395.59 844.984 1393.36 852.924 1379.89C854.806 1376.83 857.041 1373.01 855.688 1370.89C850.336 1362.77 804.402 1402 771.054 1385.71C761.937 1381.3 748.763 1370.77 749.351 1360.13C749.328 1357.84 749.849 1355.58 750.872 1353.53C751.894 1351.49 753.389 1349.72 755.233 1348.36C757.037 1347.41 759.091 1347.04 761.114 1347.3C759.622 1348.59 758.409 1350.16 757.549 1351.93C756.689 1353.7 756.201 1355.63 756.115 1357.6C756.555 1360.59 757.857 1363.39 759.862 1365.66C761.867 1367.92 764.489 1369.56 767.407 1370.36C780.993 1374.18 792.051 1358.13 807.107 1363.18C808.851 1363.8 810.511 1364.63 812.048 1365.65C809.157 1365.39 806.244 1365.79 803.526 1366.8C800.807 1367.82 798.353 1369.44 796.344 1371.54C793.992 1374.48 792.051 1379.53 793.639 1381.47C799.52 1388.3 857.335 1363.24 854.983 1338.89C853.63 1325.01 832.868 1313.54 816.459 1312.19C805.385 1311.83 794.429 1314.56 784.816 1320.07C780.388 1322.4 776.21 1325.18 772.348 1328.37C774.431 1324.73 776.96 1321.37 779.876 1318.37C801.579 1295.96 836.926 1304.02 839.749 1292.61C840.808 1288.43 836.926 1284.2 833.868 1281.2C822.105 1268.61 799.638 1272.2 786.816 1277.9C784.601 1278.86 782.459 1279.98 780.405 1281.25C782.505 1277.56 785.302 1274.3 788.639 1271.67C794.281 1267.65 800.865 1265.16 807.754 1264.43Z" fill="#ECECEC"/>
<path d="M1042.3 1283.55C1043.23 1275.94 1047.09 1269 1053.07 1264.2C1057.15 1261.13 1062.02 1259.3 1067.11 1258.93C1072.19 1258.55 1077.28 1259.65 1081.77 1262.08C1101.12 1275.02 1085.47 1323.07 1100.88 1328.78C1102.88 1329.46 1105.06 1329.46 1107.06 1328.78C1122.23 1323.25 1110.76 1277.19 1129.64 1266.84C1134 1264.43 1135.52 1266.43 1141.88 1263.2C1150.46 1258.38 1157.12 1250.73 1160.7 1241.55C1160.29 1243.2 1159.58 1245.61 1158.64 1248.55C1153.99 1263.61 1151.17 1267.96 1149.05 1274.96C1144.64 1289.66 1146.29 1307.25 1151.23 1308.78C1153.82 1309.54 1157.11 1306.19 1160.76 1301.78C1164.81 1296.39 1168.08 1290.45 1170.46 1284.13C1170.46 1285.43 1169.93 1287.6 1169.4 1290.02C1163.05 1320.19 1146.82 1327.42 1145.88 1345.42C1144.82 1361.24 1155.82 1378.65 1165.23 1378.83C1172.64 1378.83 1180.17 1369.42 1184.75 1356.59C1178.87 1378.65 1163.87 1391.47 1151.7 1389.82C1138.64 1388 1132.05 1369.77 1131.64 1368.59C1126.53 1353.77 1133.17 1344.48 1137.94 1318.13C1143.11 1289.66 1140.94 1269.67 1139.88 1269.55C1138.82 1269.43 1140.94 1324.72 1116.35 1335.77C1112.52 1337.62 1108.26 1338.39 1104.02 1338.01C1099.79 1337.63 1095.73 1336.1 1092.3 1333.6C1077.18 1319.48 1097.82 1282.19 1080.53 1268.9C1079.83 1268.37 1074.24 1263.9 1069.65 1265.73C1060.42 1269.37 1063.77 1294.54 1062.54 1342.18C1061.36 1378.24 1058.65 1385.59 1053.24 1388.47C1043.24 1393.71 1027.25 1381.94 1019.31 1375.36C1021.01 1376.53 1031.07 1383.36 1040.36 1379.59C1052.77 1374.65 1052.83 1355.3 1052.83 1350.18C1052.83 1339.24 1049.01 1326.25 1044.6 1326.07C1040.19 1325.89 1037.19 1334.83 1035.95 1339.01C1034.91 1342.68 1034.54 1346.5 1034.83 1350.3C1033.97 1348.43 1033.36 1346.45 1033.01 1344.42C1032.19 1336.39 1034.28 1328.34 1038.89 1321.72C1054.24 1293.9 1059.24 1285.6 1056.54 1277.96C1056.24 1277.08 1055.07 1273.78 1052.71 1273.25C1047.83 1272.31 1042.6 1282.9 1042.3 1283.55ZM1129.82 1273.61C1125.82 1273.31 1117 1321.13 1120.82 1322.31C1122.64 1322.89 1127.76 1312.37 1130.11 1304.01C1134.23 1289.43 1132.11 1273.96 1129.82 1273.61ZM1138.11 1352.01C1136.58 1352.01 1133.53 1368.83 1142.58 1377.94C1148.46 1383.83 1157.93 1384.77 1158.58 1383.36C1159.23 1381.94 1152.7 1379.53 1146.82 1371.59C1138.94 1361.77 1139.29 1351.83 1138.11 1352.01Z" fill="#ECECEC"/>
<path d="M860.982 1663.02C861.912 1655.41 865.773 1648.47 871.745 1643.67C875.824 1640.6 880.697 1638.78 885.785 1638.4C890.873 1638.02 895.962 1639.12 900.447 1641.55C919.797 1654.49 904.152 1702.54 919.62 1708.25C921.532 1708.86 923.59 1708.86 925.502 1708.25C940.617 1702.72 929.148 1656.67 948.028 1646.31C952.38 1643.9 953.909 1645.9 960.261 1642.67C968.849 1637.85 975.5 1630.2 979.082 1621.02C978.67 1622.67 977.965 1625.08 977.082 1628.02C972.436 1643.08 969.554 1647.43 967.437 1654.43C963.026 1669.13 964.672 1686.72 969.613 1688.25C972.201 1689.01 975.494 1685.66 979.141 1681.25C983.192 1675.86 986.46 1669.92 988.845 1663.61C988.845 1664.9 988.316 1667.02 987.787 1669.49C981.435 1699.72 965.261 1706.89 964.261 1724.89C963.202 1740.71 974.2 1758.12 983.611 1758.3C991.021 1758.3 998.55 1748.89 1003.14 1736.07C997.256 1758.12 982.258 1771 970.083 1769.3C957.026 1767.47 950.439 1749.24 950.028 1748.12C944.911 1733.24 951.557 1723.95 956.321 1697.6C961.496 1669.13 959.32 1649.14 958.262 1649.02C957.203 1648.9 959.32 1704.19 934.736 1715.24C930.904 1717.09 926.643 1717.86 922.407 1717.48C918.172 1717.1 914.119 1715.57 910.68 1713.07C895.565 1698.95 916.209 1661.66 898.917 1648.37C898.27 1647.84 892.624 1643.37 888.037 1645.2C878.862 1648.9 882.155 1674.02 880.92 1721.66C879.744 1757.71 877.038 1765.06 871.627 1767.94C861.629 1773.18 845.69 1761.47 837.75 1754.89C839.397 1756 849.513 1762.83 858.747 1759.06C871.157 1754.12 871.216 1734.77 871.216 1729.65C871.216 1718.71 867.393 1705.78 862.982 1705.6C858.57 1705.42 855.571 1714.36 854.336 1718.48C853.295 1722.17 852.917 1726.01 853.218 1729.83C852.374 1727.95 851.762 1725.98 851.395 1723.95C850.574 1715.92 852.661 1707.87 857.277 1701.25C872.627 1673.43 877.626 1665.13 874.921 1657.49C874.568 1656.61 873.392 1653.31 871.039 1652.78C866.51 1651.78 861.276 1662.14 860.982 1663.02ZM948.498 1653.08C944.499 1653.08 935.677 1700.6 939.5 1701.78C941.382 1702.36 946.499 1691.84 948.851 1683.48C952.909 1668.9 951.086 1653.25 948.498 1653.08ZM956.968 1731.48C955.438 1731.48 952.38 1748.3 961.496 1757.42C967.378 1763.3 976.788 1764.24 977.494 1762.83C978.2 1761.41 971.613 1759 965.731 1751.06C957.615 1741.3 958.026 1731.3 956.968 1731.48Z" fill="#ECECEC"/>
<path d="M1087.53 1443.35C1084.3 1448.69 1081.71 1454.39 1079.83 1460.35C1072.77 1482.34 1077.59 1511.46 1090.88 1516.69C1094.52 1517.7 1098.31 1518.02 1102.06 1517.63C1108.37 1518.12 1114.71 1517.07 1120.53 1514.57C1127.88 1510.34 1127.7 1500.99 1131.06 1491.69C1137.76 1472.87 1152.99 1451.35 1173.58 1443.82C1184.29 1440.07 1195.83 1439.34 1206.93 1441.7C1198.75 1442.94 1176.46 1446.82 1175.99 1453.99C1175.7 1459.35 1187.75 1466.87 1196.87 1464.76C1203.16 1463.35 1204.81 1458.29 1212.93 1451.41C1218.88 1446.42 1225.7 1442.55 1233.04 1440C1220.64 1450.37 1210.61 1463.29 1203.63 1477.87C1197.49 1491.52 1193.87 1506.17 1192.93 1521.1C1190.58 1541.45 1187.81 1565.62 1200.05 1573.56C1203.81 1575.76 1208.2 1576.61 1212.51 1575.98C1210.06 1577.53 1207.31 1578.57 1204.44 1579.02C1201.56 1579.48 1198.63 1579.34 1195.81 1578.62C1185.93 1575.09 1185.4 1562.15 1177.05 1560.98C1174.24 1560.71 1171.43 1561.46 1169.14 1563.09C1166.84 1564.72 1165.2 1567.12 1164.52 1569.86C1164.65 1571.9 1165.36 1573.87 1166.55 1575.53C1167.75 1577.2 1169.39 1578.49 1171.28 1579.27C1166.73 1579.83 1162.12 1579.61 1157.64 1578.62C1145.97 1575.48 1136.01 1567.85 1129.94 1557.39C1122.94 1544.45 1128.59 1537.51 1121.64 1530.69C1117.72 1527.63 1113 1525.77 1108.04 1525.33C1103.08 1524.89 1098.11 1525.89 1093.71 1528.22C1076.06 1537.04 1072.12 1566.45 1081.94 1575.27C1084.08 1576.83 1086.54 1577.87 1089.15 1578.31C1091.75 1578.74 1094.42 1578.57 1096.94 1577.8C1092 1582.45 1085.94 1586.56 1080.71 1584.97C1072.36 1582.5 1071.12 1567.33 1067.06 1567.33C1065.07 1567.33 1062.71 1571.15 1060.42 1584.97C1058.67 1582.67 1057.44 1580.02 1056.81 1577.2C1056.18 1574.38 1056.17 1571.45 1056.77 1568.62C1058.83 1562.74 1064.42 1562.74 1068.54 1555.63C1073.18 1547.27 1071.77 1535.45 1067.12 1533.04C1065.18 1532.04 1063.83 1532.75 1059.36 1533.39C1054.95 1533.88 1050.5 1532.89 1046.71 1530.57C1059.3 1529.45 1064.89 1524.98 1067.65 1521.45C1078.06 1508.1 1064.12 1488.93 1072.48 1465.23C1075.59 1456.79 1080.76 1449.27 1087.53 1443.35ZM1188.11 1497.75C1185.46 1496.99 1182.22 1508.52 1172.93 1509.52C1170.4 1509.75 1167.85 1509.26 1165.58 1508.1C1168.65 1506.97 1171.42 1505.14 1173.68 1502.77C1175.93 1500.39 1177.61 1497.53 1178.58 1494.4C1179.65 1490.55 1179.52 1486.46 1178.22 1482.68C1176.92 1478.9 1174.5 1475.6 1171.28 1473.23C1167.73 1471.4 1163.74 1470.56 1159.75 1470.8C1155.76 1471.04 1151.9 1472.34 1148.58 1474.58C1123.59 1489.99 1129.64 1559.51 1148.58 1565.57C1160.82 1569.51 1177.28 1546.8 1178.64 1544.86C1193.28 1524.4 1191.69 1498.81 1188.11 1497.75Z" fill="#ECECEC"/>
<path d="M338.825 1741.77C335.708 1739.72 323.004 1765.71 304.477 1766.12C300.473 1765.9 296.555 1764.87 292.95 1763.12C289.346 1761.36 286.126 1758.9 283.48 1755.89C286.817 1758.11 290.569 1759.64 294.511 1760.38C298.452 1761.12 302.503 1761.05 306.418 1760.18C313.866 1757.8 320.158 1752.73 324.062 1745.95C329.944 1736.95 327.709 1733.89 332.238 1723.37C339.119 1707.43 353.764 1700.66 352.117 1698.02C351.176 1696.6 347.353 1699.55 340.354 1698.02C336.248 1697.19 332.421 1695.33 329.238 1692.6C328.086 1691.01 326.674 1689.62 325.062 1688.49C325.062 1688.49 321.063 1686.25 318.652 1687.31C316.24 1688.37 314.24 1695.31 316.887 1703.66C310.695 1695.42 307.612 1685.25 308.182 1674.96C309.037 1663.69 314.171 1653.16 322.533 1645.55C330.592 1637.92 341.092 1633.37 352.176 1632.73C369.232 1632.26 373.526 1642.73 386.289 1638.61C391.715 1636.75 396.643 1633.67 400.698 1629.61C402.992 1627.3 404.969 1624.69 406.58 1621.85C405.57 1627.85 403.284 1633.57 399.875 1638.61C395.17 1645.26 391.641 1645.67 389.523 1650.96C385.995 1659.85 390.229 1672.67 395.875 1673.84C400.287 1674.73 404.992 1668.55 408.815 1663.37C414.261 1656.02 418.035 1647.57 419.872 1638.61C420.831 1648.65 418.783 1658.74 413.99 1667.61C407.462 1678.84 399.64 1681.25 394.876 1694.37C394.405 1695.72 390.347 1707.31 395.405 1712.01C398.993 1715.43 405.462 1713.72 408.285 1712.95C413.503 1711.13 418.286 1708.24 422.334 1704.47C426.383 1700.71 429.609 1696.15 431.811 1691.08C429.839 1698.97 426.277 1706.37 421.342 1712.84C410.344 1727.07 398.993 1727.48 395.875 1738.72C394.782 1743.01 394.973 1747.52 396.427 1751.71C397.881 1755.89 400.532 1759.55 404.051 1762.24C407.353 1764.44 411.192 1765.68 415.153 1765.85C419.114 1766.01 423.044 1765.09 426.518 1763.18C422.387 1765.99 417.689 1767.86 412.755 1768.65C407.806 1769.58 402.71 1769.36 397.857 1768.02C393.004 1766.67 388.524 1764.23 384.759 1760.89C369.938 1744.54 392.405 1708.25 380.878 1700.54C377.113 1698.02 371.82 1699.9 366.409 1701.9C360.99 1703.8 356.176 1707.11 352.465 1711.5C348.753 1715.88 346.278 1721.18 345.295 1726.84C344.001 1735.83 348.824 1737.36 348.706 1745.95C348.706 1761.89 331.591 1779.53 313.417 1783.41C298.243 1786.77 292.538 1778.06 274.54 1780.94C264.074 1782.82 254.281 1787.41 246.133 1794.24C253.185 1783.64 264.131 1776.24 276.599 1773.65C285.009 1772.53 286.892 1775.59 298.302 1774.71C304.183 1774.3 321.298 1773 331.767 1760.01C338.119 1752.54 340.648 1743.01 338.825 1741.77ZM377.466 1664.08C377.466 1661.37 378.407 1648.49 370.291 1642.44C356.528 1632.14 329.591 1650.43 330.532 1657.9C330.532 1659.73 332.591 1660.96 332.473 1663.79C332.355 1666.61 329.238 1668.84 326.592 1670.37C327.624 1669.07 328.252 1667.5 328.398 1665.85C328.544 1664.2 328.203 1662.54 327.415 1661.08C326.474 1659.49 324.298 1657.32 322.769 1657.85C320.181 1658.73 319.71 1666.96 321.298 1672.73C324.474 1684.49 339.59 1698.37 356.587 1694.02C370.467 1690.02 376.819 1674.84 377.466 1664.08Z" fill="#ECECEC"/>
<path d="M161.023 479.373C160.356 477.293 159.825 475.171 159.435 473.021C159.089 469.075 159.615 465.1 160.977 461.38C162.34 457.66 164.504 454.285 167.316 451.495C172.074 446.655 177.384 442.391 183.138 438.791C192.136 432.498 194.371 430.616 195.43 427.028C196.959 421.558 194.665 414.324 190.666 413.03C186.666 411.736 184.079 414.971 179.373 418.911C176.052 421.81 173.126 425.132 170.669 428.792C174.093 421.012 179.56 414.305 186.49 409.383C200.253 400.091 219.838 398.385 232.777 406.913C245.717 415.441 247.187 430.086 251.128 429.028C255.068 427.969 256.303 417.794 251.833 410.03C250.176 407.241 247.801 404.946 244.957 403.384C242.113 401.823 238.903 401.051 235.659 401.149C241.895 400.339 248.206 401.938 253.304 405.619C263.949 414.03 264.302 432.615 258.303 444.437C252.304 456.259 240.306 457.67 240.659 465.14C240.659 475.609 263.479 478.785 264.184 490.783C264.069 496.99 262.368 503.063 259.244 508.428C258.362 509.898 257.185 511.545 257.774 512.368C258.362 513.192 263.655 512.368 265.831 510.898C271.665 507.834 276.136 502.692 278.359 496.488C276.309 504.748 272.57 512.493 267.377 519.235C262.184 525.977 255.65 531.569 248.187 535.659C232.307 543.717 213.486 543.599 206.252 539.541C205.605 539.188 203.311 538.247 200.37 537.129C195.957 535.905 191.264 536.173 187.019 537.894C179.259 539.493 171.254 539.493 163.493 537.894C155.096 535.838 147.649 530.984 142.379 524.131C146.16 527.892 150.94 530.489 156.152 531.615C161.365 532.74 166.79 532.348 171.786 530.483C185.137 524.602 191.254 507.31 186.902 499.194C184.549 494.959 180.609 495.547 176.021 490.136C172.017 484.851 169.942 478.355 170.14 471.727C172.08 480.432 176.021 487.019 180.491 487.195C186.372 487.195 191.313 476.315 191.313 467.257C191.313 465.904 191.313 454.494 184.549 451.436C177.785 448.378 169.198 455.2 165.14 461.493C161.65 466.759 160.188 473.111 161.023 479.373ZM253.539 494.018C252.069 482.902 224.72 467.492 206.487 481.432C192.077 492.606 191.666 516.309 200.017 523.014C213.192 533.365 255.539 508.957 253.539 494.018ZM203.605 468.669C215.368 476.021 248.304 456.553 246.246 437.85C244.834 425.205 227.308 412.324 214.604 416.559C206.193 419.382 202.841 428.733 200.723 433.497C196.136 445.319 195.489 463.611 203.605 468.669Z" fill="#ECECEC"/>
<path d="M208.133 886.254C207.015 877.961 205.662 870.492 205.192 862.728C203.427 835.336 208.415 807.93 219.719 782.916C227.75 766.193 237.613 750.412 249.127 735.865C265.712 712.339 269.888 705.516 271.829 691.695C274.652 671.345 270.359 644.643 263.007 639.82C257.125 636.115 250.832 646.995 242.186 662.17C235.694 673.88 230.299 686.166 226.071 698.87C229.777 682.402 238.363 650.583 255.479 626.939C280.887 592.297 317.058 585.769 340.995 617.647C364.521 648.348 367.639 703.752 374.932 699.987C380.813 696.811 384.46 658.111 376.225 629.41C370.344 608.648 358.581 596.062 346.348 596.415C353.17 595.238 367.168 594.944 378.519 612.941C398.163 644.172 398.81 712.927 387.694 757.038C375.931 804.09 354.405 806.207 354.817 833.85C355.346 872.727 396.928 884.49 398.046 928.954C397.968 951.336 394.902 973.608 388.929 995.179C386.91 999.808 385.985 1004.84 386.224 1009.88C387.871 1014.88 396.634 1008.71 401.104 1004.41C405.574 1000.12 416.572 986.475 424.277 950.892C422.63 964.419 410.985 1052.82 368.403 1096.34C338.996 1126.28 304.413 1125.75 290.944 1110.63C287.482 1107.41 283.807 1104.42 279.946 1101.69C271.535 1095.4 263.36 1099.93 255.243 1104.52C248.393 1107.44 241.02 1108.95 233.57 1108.95C226.12 1108.95 218.748 1107.44 211.897 1104.52C203.31 1100.87 188.371 1090.28 172.844 1053.35C188.488 1082.75 209.897 1092.11 227.424 1076.87C252.126 1055.76 263.419 990.768 255.302 960.714C251.067 945.01 243.539 947.186 235.246 927.072C226.306 905.839 224.248 878.961 224.013 858.788C227.483 891.018 235.129 915.485 243.069 916.132C253.538 917.014 263.066 875.903 263.066 842.143C263.066 837.144 263.066 795.091 250.597 783.328C238.128 771.565 222.248 797.561 214.661 821.087C208.569 842.237 206.358 864.316 208.133 886.254ZM379.049 940.834C376.343 899.664 325.762 842.202 292.532 893.782C265.948 934.953 265.183 1023.17 280.769 1047.99C304.413 1086.81 382.636 996.238 379.049 940.834ZM286.827 846.73C308.765 874.021 369.168 801.855 365.521 732.512C362.933 685.46 330.585 637.761 307.118 653.406C291.591 663.816 284.886 698.635 281.475 716.22C273.005 759.861 271.712 827.792 286.827 846.554V846.73Z" fill="#ECECEC"/>
<path d="M343.587 479.373C342.947 477.285 342.417 475.165 341.999 473.021C341.653 469.075 342.179 465.1 343.541 461.38C344.904 457.66 347.068 454.285 349.88 451.495C354.638 446.655 359.948 442.391 365.702 438.791C374.7 432.498 376.935 430.616 377.994 427.028C379.523 421.558 377.229 414.324 373.23 413.03C369.23 411.736 366.643 414.971 361.996 418.911C358.66 421.812 355.714 425.134 353.233 428.792C356.705 420.991 362.235 414.281 369.23 409.383C382.993 400.091 402.578 398.385 415.577 406.913C428.575 415.441 429.927 430.086 433.927 429.028C437.926 427.969 439.044 417.794 434.574 410.03C432.916 407.241 430.542 404.946 427.698 403.384C424.853 401.823 421.643 401.051 418.4 401.149C424.636 400.339 430.946 401.938 436.044 405.619C446.69 414.03 447.043 432.615 441.043 444.437C435.044 456.259 423.046 457.67 423.399 465.14C423.399 475.609 446.219 478.785 446.925 490.783C446.753 496.989 445.035 503.054 441.926 508.428C441.043 509.898 439.926 511.545 440.455 512.368C440.985 513.192 446.337 512.368 448.572 510.898C454.377 507.798 458.837 502.668 461.099 496.488C459.02 504.743 455.262 512.481 450.061 519.22C444.86 525.96 438.327 531.555 430.868 535.659C415.047 543.717 396.168 543.599 388.933 539.541C388.286 539.188 385.993 538.247 383.052 537.129C378.639 535.909 373.946 536.178 369.701 537.894C361.941 539.493 353.936 539.493 346.175 537.894C337.784 535.825 330.341 530.974 325.061 524.131C328.841 527.892 333.622 530.489 338.834 531.615C344.046 532.74 349.472 532.348 354.468 530.483C367.819 524.602 373.936 507.31 369.583 499.194C367.29 494.959 363.29 495.547 358.703 490.136C354.749 484.825 352.679 478.347 352.821 471.727C354.762 480.432 358.703 487.019 363.173 487.195C369.054 487.195 373.994 476.315 373.994 467.257C373.994 465.904 373.994 454.494 367.231 451.436C360.467 448.378 351.88 455.2 347.822 461.493C344.291 466.743 342.786 473.097 343.587 479.373ZM436.103 494.018C434.691 482.902 407.284 467.492 389.051 481.432C374.7 492.606 374.23 516.309 382.581 523.014C395.756 533.365 438.103 508.957 436.103 494.018ZM386.463 468.669C398.226 476.021 431.104 456.553 429.045 437.85C427.634 425.205 409.989 412.324 397.226 416.559C388.816 419.382 385.463 428.733 383.287 433.497C378.758 445.319 378.053 463.611 386.463 468.669Z" fill="#ECECEC"/>
<path d="M1248.92 477.313C1251.49 484.262 1252.22 491.76 1251.04 499.075C1250.28 504.668 1248.16 509.989 1244.85 514.565C1241.55 519.141 1237.17 522.83 1232.1 525.306C1224.16 528.541 1214.81 526.953 1214.04 523.777C1213.63 522.013 1215.57 520.248 1218.51 515.955C1220.74 512.342 1221.83 508.139 1221.63 503.898C1220.39 506.192 1211.75 521.542 1196.04 523.718C1177.05 526.247 1162.58 507.309 1157.4 493.664C1151.17 477.196 1153.93 456.669 1160.75 454.376C1167.58 452.082 1178.4 472.02 1189.57 468.609C1191.88 467.962 1193.93 466.629 1195.46 464.786C1189.05 463.864 1183.11 460.919 1178.49 456.379C1173.88 451.84 1170.84 445.945 1169.81 439.554C1169.01 434.765 1169.45 429.85 1171.08 425.279C1172.72 420.707 1175.5 416.631 1179.16 413.441C1190.57 404.736 1211.39 408.5 1223.98 426.733C1222.75 423.733 1213.1 401.795 1195.75 399.972C1189.89 399.568 1184.05 401.12 1179.16 404.383C1155.64 418.381 1156.11 452.905 1147.52 452.905C1138.93 452.905 1139.52 420.087 1116.35 406.442C1111.45 403.194 1105.63 401.644 1099.76 402.03C1082.12 403.854 1072.77 425.556 1071.53 428.791C1084.12 410.617 1104.88 406.794 1116.35 415.499C1120.01 418.706 1122.78 422.792 1124.42 427.372C1126.06 431.952 1126.5 436.874 1125.7 441.672C1124.67 448.055 1121.63 453.942 1117.02 458.471C1112.4 463.001 1106.46 465.935 1100.06 466.844C1101.6 468.682 1103.64 470.031 1105.94 470.726C1117.35 473.961 1127.35 453.964 1134.76 456.493C1142.17 459.022 1144.35 479.254 1138.11 495.723C1132.94 509.426 1118.47 528.306 1099.47 525.777C1083.77 523.718 1075.12 508.132 1073.89 505.956C1073.73 510.1 1074.82 514.195 1077 517.719C1079.94 522.013 1081.88 523.601 1081.47 525.542C1080.71 528.718 1071.36 530.306 1063.42 527.071C1058.34 524.595 1053.96 520.905 1050.66 516.329C1047.35 511.753 1045.23 506.433 1044.48 500.839C1043.29 493.524 1044.02 486.027 1046.6 479.078C1042.14 484.631 1039.46 491.392 1038.89 498.487C1037.77 519.425 1057.89 538.599 1076 543.068C1105.41 550.185 1138.99 521.778 1147.58 488.253C1147.58 487.312 1147.99 486.312 1148.23 485.371C1148.2 485.645 1148.2 485.921 1148.23 486.195C1156.81 519.66 1190.69 548.127 1219.8 541.01C1237.92 536.54 1258.03 517.484 1256.92 496.428C1256.21 489.404 1253.42 482.75 1248.92 477.313Z" fill="#ECECEC"/>
<path d="M1252.8 530.833C1249.97 528.422 1241.03 531.48 1239.51 536.303C1238.98 538.421 1239.8 541.185 1241.21 541.655C1242.62 542.126 1245.92 537.244 1247.09 537.656C1248.27 538.068 1247.92 543.537 1244.15 558.947C1254.8 539.068 1254.97 532.892 1252.8 530.833Z" fill="#ECECEC"/>
<path d="M530.38 1706.25C529.713 1704.17 529.182 1702.05 528.792 1699.9C528.442 1695.96 528.967 1691.99 530.33 1688.28C531.692 1684.57 533.858 1681.2 536.673 1678.43C541.415 1673.55 546.727 1669.27 552.494 1665.67C561.493 1659.37 563.728 1657.49 564.787 1653.9C566.316 1648.43 564.022 1641.2 560.023 1639.9C556.023 1638.61 553.435 1641.85 548.73 1645.79C545.409 1648.69 542.483 1652.01 540.026 1655.67C543.498 1647.87 549.028 1641.16 556.023 1636.26C569.786 1626.97 589.371 1625.26 602.311 1633.79C615.25 1642.32 616.72 1656.96 620.661 1655.9C624.601 1654.84 625.836 1644.67 621.367 1636.91C619.709 1634.12 617.335 1631.82 614.49 1630.26C611.646 1628.7 608.436 1627.93 605.192 1628.02C611.428 1627.21 617.739 1628.81 622.837 1632.49C633.482 1640.9 633.835 1659.49 627.836 1671.31C621.837 1683.13 609.839 1684.55 610.192 1692.01C610.192 1702.48 633.012 1705.66 633.718 1717.66C633.602 1723.86 631.901 1729.94 628.777 1735.3C627.895 1736.77 626.719 1738.42 627.307 1739.24C627.895 1740.07 633.188 1739.24 635.364 1737.77C641.199 1734.71 645.67 1729.57 647.892 1723.36C645.839 1731.63 642.092 1739.38 636.888 1746.12C631.684 1752.86 625.137 1758.45 617.661 1762.53C601.84 1770.59 583.019 1770.47 575.785 1766.42C575.079 1766.06 572.844 1765.12 569.904 1764C565.491 1762.78 560.797 1763.05 556.553 1764.77C548.792 1766.37 540.787 1766.37 533.027 1764.77C524.629 1762.71 517.183 1757.86 511.912 1751.01C515.693 1754.77 520.473 1757.36 525.685 1758.49C530.898 1759.62 536.324 1759.22 541.32 1757.36C554.671 1751.48 560.787 1734.19 556.435 1726.07C554.082 1721.83 550.142 1722.42 545.554 1717.01C541.551 1711.73 539.475 1705.23 539.673 1698.6C541.614 1707.31 545.554 1713.89 550.024 1714.07C555.906 1714.07 560.846 1703.19 560.846 1694.13C560.846 1692.78 560.846 1681.37 554.082 1678.31C547.319 1675.25 538.732 1682.08 534.615 1688.37C531.103 1693.63 529.6 1699.97 530.38 1706.25ZM622.896 1720.95C621.425 1709.84 594.076 1694.43 575.844 1708.37C561.434 1719.54 561.022 1743.24 569.315 1749.95C582.549 1760.24 624.895 1735.83 622.896 1720.95ZM572.962 1695.6C584.725 1702.95 617.661 1683.49 615.603 1664.78C614.191 1652.14 596.664 1639.26 583.96 1643.49C575.55 1646.32 572.197 1655.67 570.08 1660.43C565.492 1672.19 564.845 1690.49 572.962 1695.54V1695.6Z" fill="#ECECEC"/>
<path d="M273.303 1305.48C273.303 1305.48 287.419 1302.48 290.359 1297.84C291.83 1290.78 274.126 1277.37 256.423 1278.31C250.004 1277.93 243.685 1280.04 238.779 1284.19C224.722 1298.48 247.954 1331.24 240.602 1375.18C239.837 1379.71 238.073 1390.59 230.074 1394.94C228.553 1395.76 226.902 1396.32 225.192 1396.59C228.519 1393.1 230.872 1388.8 232.015 1384.12C232.843 1381.87 233.218 1379.48 233.117 1377.09C233.016 1374.7 232.441 1372.35 231.427 1370.18C229.309 1366.71 226.545 1366.42 223.369 1362C221.621 1359.49 220.382 1356.65 219.723 1353.65C221.311 1355.36 225.31 1359.53 228.133 1358.36C228.662 1358.1 229.13 1357.72 229.505 1357.27C229.88 1356.81 230.154 1356.28 230.309 1355.71C233.956 1345.71 220.252 1302.78 229.956 1285.49C233.023 1280.51 237.37 1276.45 242.543 1273.72C265.304 1259.84 287.595 1276.14 308.239 1263.02C313.982 1259.26 318.645 1254.07 321.766 1247.96C321.505 1251.47 320.874 1254.94 319.884 1258.31C316.355 1270.49 310.65 1272.84 311.768 1277.55C313.532 1285.25 329.412 1283.43 334.412 1293.66C335.26 1295.61 335.698 1297.71 335.698 1299.84C335.698 1301.96 335.26 1304.06 334.412 1306.01C333.235 1297.13 327.883 1291.19 322.943 1291.13C318.002 1291.07 312.297 1297.84 311.827 1304.19C310.886 1316.89 329.471 1323.3 328.942 1338.3C328.822 1340.62 328.263 1342.9 327.295 1345.01C325.295 1331.48 323.354 1328.19 321.825 1328.13C315.944 1328.13 303.063 1377.24 317.473 1386.24C322.649 1389.47 330.118 1386.88 335.117 1384.35C321.414 1396.94 315.062 1398.18 311.591 1396.12C306.827 1393.53 305.71 1382.88 304.24 1363.18C304.03 1356.69 301.947 1350.4 298.24 1345.07C298.016 1344.75 297.759 1344.45 297.476 1344.18C294.353 1341.4 290.685 1339.3 286.705 1338.02C282.726 1336.73 278.522 1336.29 274.362 1336.71C274.362 1336.71 297.888 1335.66 300.593 1328.07C303.299 1320.48 295.417 1310.42 287.36 1306.84C282.923 1304.96 278.017 1304.48 273.303 1305.48ZM271.127 1275.61C271.127 1276.61 283.596 1275.25 293.006 1284.25C297.535 1288.49 298.887 1293.02 301.475 1292.54C304.063 1292.07 306.651 1285.72 304.887 1281.43C300.652 1270.96 271.244 1273.96 271.127 1275.61Z" fill="#ECECEC"/>
<path d="M661.131 1366.06C654.368 1363.89 649.369 1374 628.666 1381C623.929 1383.3 618.531 1383.84 613.433 1382.53C610.624 1381.23 608.124 1379.34 606.096 1377C604.069 1374.66 602.56 1371.91 601.67 1368.95C598.67 1360.95 601.082 1352.18 606.022 1334.89C610.962 1317.6 613.08 1316.37 615.374 1315.31C618.72 1314.43 622.245 1314.52 625.544 1315.56C628.843 1316.6 631.78 1318.55 634.018 1321.19C637.082 1324.81 639.056 1329.22 639.712 1333.91C640.368 1338.61 639.678 1343.39 637.723 1347.71C638.844 1345.97 639.753 1344.09 640.429 1342.13C642.085 1337.05 642.329 1331.62 641.134 1326.42C640.354 1320.8 637.987 1315.52 634.312 1311.19C631.249 1307.65 627.585 1304.69 623.49 1302.43C620.63 1300.66 618.258 1298.21 616.594 1295.29C614.929 1292.37 614.024 1289.08 613.962 1285.72C613.895 1279.83 615.987 1274.12 619.843 1269.67C623.902 1264.55 628.313 1259.79 632.489 1254.85C633.115 1253.97 633.665 1253.05 634.135 1252.08C628.3 1258.78 621.307 1264.38 613.491 1268.61C606.658 1272.28 599.298 1274.88 591.671 1276.31C579.425 1278.59 566.864 1278.59 554.618 1276.31C546.991 1274.88 539.631 1272.28 532.797 1268.61C524.982 1264.38 517.989 1258.78 512.154 1252.08C512.624 1253.05 513.174 1253.97 513.8 1254.85C517.976 1259.79 522.446 1264.55 526.504 1269.67C530.36 1274.12 532.452 1279.83 532.386 1285.72C532.379 1289.09 531.517 1292.4 529.881 1295.34C528.246 1298.28 525.89 1300.76 523.034 1302.54C518.938 1304.78 515.289 1307.75 512.271 1311.31C508.933 1315.64 506.662 1320.7 505.64 1326.07C504.618 1331.45 504.875 1336.99 506.39 1342.24C507.066 1344.21 507.974 1346.08 509.095 1347.83C507.14 1343.51 506.45 1338.73 507.106 1334.03C507.762 1329.34 509.737 1324.92 512.8 1321.31C517.153 1316.72 525.269 1312.6 531.445 1315.42C533.739 1316.48 536.15 1318.54 540.855 1335.01C545.56 1351.48 548.148 1361.06 545.149 1369.06C544.258 1372.03 542.75 1374.77 540.722 1377.12C538.695 1379.46 536.194 1381.34 533.386 1382.65C528.287 1383.96 522.889 1383.42 518.153 1381.12C497.685 1374.12 492.509 1364.01 485.746 1366.18C478.982 1368.36 474.277 1381.12 478.041 1389.12C483.334 1400.18 501.567 1395 514.565 1408.65C519.404 1414.08 522.552 1420.8 523.622 1428C523.717 1423.72 523.263 1419.45 522.27 1415.29C520.452 1411.26 519.703 1406.82 520.094 1402.41C520.291 1400.67 521.008 1399.02 522.151 1397.69C523.294 1396.36 524.811 1395.4 526.504 1394.94C536.509 1392.3 546.757 1390.69 557.088 1390.12C563.499 1390.12 568.851 1389.71 573.439 1389.65C578.026 1389.59 583.378 1389.65 589.789 1390.12C600.14 1390.69 610.406 1392.31 620.432 1394.94C622.118 1395.41 623.626 1396.37 624.759 1397.7C625.892 1399.03 626.598 1400.67 626.784 1402.41C627.195 1406.82 626.466 1411.25 624.666 1415.29C623.614 1419.44 623.159 1423.72 623.314 1428C624.361 1420.81 627.489 1414.08 632.312 1408.65C645.193 1394.82 663.602 1400.18 668.836 1389.12C672.6 1381 667.66 1368.06 661.131 1366.06ZM512.624 1399.94C510.513 1398.34 508.292 1396.88 505.978 1395.59C498.45 1391.41 494.98 1391.59 492.686 1388.18C490.392 1384.77 490.216 1379.18 492.686 1377.53C495.156 1375.89 500.155 1377.53 513.8 1389.3C512.863 1390.89 512.273 1392.66 512.07 1394.49C511.868 1396.33 512.056 1398.18 512.624 1399.94ZM595.376 1387.18C594.907 1387.47 594.378 1387.65 593.828 1387.72C593.279 1387.78 592.723 1387.71 592.201 1387.53C585.96 1386.74 579.668 1386.43 573.38 1386.59C567.091 1386.43 560.8 1386.74 554.559 1387.53C554.036 1387.71 553.481 1387.77 552.932 1387.71C552.383 1387.65 551.854 1387.47 551.383 1387.18C550.979 1386.72 550.684 1386.17 550.521 1385.58C550.358 1384.99 550.331 1384.37 550.442 1383.77C552.265 1356.48 544.56 1329.36 542.09 1302.13C541.502 1296.25 540.738 1288.78 545.207 1284.49C549.874 1281.36 555.526 1280.07 561.087 1280.84H585.731C591.274 1280.07 596.908 1281.36 601.552 1284.49C606.022 1288.55 605.257 1295.96 604.728 1302.13C602.199 1329.36 594.553 1356.48 596.318 1383.77C596.428 1384.37 596.401 1384.99 596.238 1385.58C596.075 1386.17 595.781 1386.72 595.376 1387.18ZM654.191 1388.18C651.898 1391.59 648.31 1391.41 640.958 1395.59C638.635 1396.9 636.396 1398.35 634.253 1399.94C634.882 1398.18 635.124 1396.3 634.961 1394.43C634.799 1392.56 634.237 1390.75 633.312 1389.12C646.957 1377.36 652.309 1376 654.427 1377.36C656.544 1378.71 656.426 1384.77 654.074 1388.18H654.191Z" fill="#ECECEC"/>
<path d="M345.286 1332.01C348.34 1332.59 351.48 1332.53 354.514 1331.86C357.548 1331.18 360.411 1329.89 362.93 1328.07C366.167 1324.83 368.52 1320.82 369.766 1316.41C371.012 1312 371.108 1307.35 370.047 1302.9C367.812 1291.13 359.519 1288.19 358.931 1276.02C358.76 1272.35 359.279 1268.68 360.46 1265.2C359.881 1268.17 359.881 1271.22 360.46 1274.19C360.534 1276.96 361.671 1279.6 363.636 1281.55C365.027 1282.23 366.556 1282.59 368.106 1282.59C369.656 1282.59 371.186 1282.23 372.576 1281.55C382.045 1278.14 383.692 1267.9 394.102 1262.9C399.671 1260.55 405.822 1259.93 411.747 1261.14C435.273 1263.78 458.799 1286.25 462.386 1311.78C463.03 1316.48 463.03 1321.25 462.386 1325.95C454.799 1307.84 451.035 1303.84 449.035 1304.37C445.271 1305.25 444.742 1322.95 449.035 1337.54C452.937 1350.46 459.991 1362.2 469.562 1371.71C448.035 1361.95 430.567 1359.95 426.274 1366.42C422.745 1371.83 427.862 1383.3 432.744 1389.94C436.9 1394.85 441.732 1399.15 447.094 1402.71C446.683 1403.41 436.331 1397.24 422.745 1392C407.983 1386.12 400.572 1383.47 392.044 1383.18C381.133 1383.07 370.331 1385.36 360.401 1389.88C351.285 1393.65 343.404 1398.76 343.11 1398.24C342.816 1397.71 365.048 1386.47 363.93 1375.59C363.577 1372 360.578 1366.48 357.637 1366.95C356.465 1367.16 355.358 1367.64 354.402 1368.36C350.921 1370.26 346.878 1370.86 342.992 1370.06C349.27 1368.4 354.803 1364.67 358.696 1359.48C364.93 1350.77 365.93 1338.01 361.931 1335.36C360.107 1334.19 358.402 1335.36 353.402 1335.01C350.451 1334.88 347.615 1333.83 345.286 1332.01ZM415.864 1307.72C412.275 1303.75 410.194 1298.65 409.982 1293.31C409.982 1284.96 415.864 1281.55 414.041 1274.55C413.479 1272.52 412.437 1270.66 411.004 1269.13C409.57 1267.59 407.787 1266.43 405.806 1265.73C398.572 1263.31 391.044 1270.25 388.162 1272.78C375.87 1284.13 376.399 1302.72 376.399 1306.9C376.987 1320.31 382.281 1321.54 381.634 1333.07C380.869 1349.18 370.694 1354.54 373.576 1360.77C377.634 1369.65 404.336 1372.12 420.628 1359.42C434.096 1348.89 434.979 1332.19 436.743 1298.66C437.272 1288.66 436.743 1281.02 432.038 1277.9C429.905 1277.01 427.57 1276.73 425.288 1277.09C423.006 1277.44 420.864 1278.41 419.099 1279.9C413.629 1284.9 411.747 1296.19 416.334 1307.72H415.864ZM452.505 1359.01C455.27 1355.18 444.507 1339.48 438.507 1340.95C436.155 1341.48 434.743 1344.54 434.449 1346.83C433.802 1352.24 439.39 1356.12 440.331 1356.89C444.918 1359.59 451.153 1361.24 452.976 1359.01H452.505Z" fill="#ECECEC"/>
<path d="M1236.04 1571.8C1233.21 1569.38 1224.27 1572.5 1222.75 1577.32C1222.22 1579.38 1223.04 1582.15 1224.45 1582.62C1225.86 1583.09 1229.16 1578.21 1230.33 1578.68C1231.51 1579.15 1231.16 1584.56 1227.39 1599.91C1238.04 1580.09 1238.21 1573.91 1236.04 1571.8Z" fill="#ECECEC"/>
<path d="M295.355 1243.2C294.708 1243.2 277.71 1217.14 294.649 1194.5C314.352 1168.44 371.108 1157.56 367.991 1152.92C367.773 1152.71 367.512 1152.55 367.227 1152.45C360.228 1148.92 325.468 1152.15 317.175 1152.92C242.01 1159.92 195.546 1178.27 170.844 1190.79C174.49 1187.85 240.128 1136.51 361.286 1137.86C391.648 1138.17 421.89 1141.7 451.508 1148.39C377.225 1155.86 336.643 1176.85 344.583 1193.68C350.464 1206.09 383.107 1217.73 416.513 1220.44C490.385 1226.32 531.32 1187.26 606.721 1190.03C642.009 1191.26 688.356 1201.79 741.995 1240.55C704.898 1215.09 661.278 1200.8 616.307 1199.38C549.847 1198.56 537.437 1231.96 446.332 1236.08C421.395 1237.2 368.403 1239.55 344.112 1219.61C332.996 1210.44 327.644 1196.09 317.528 1196.62C310.941 1196.62 306.412 1202.85 303.177 1207.67C296.881 1218.39 294.143 1230.83 295.355 1243.2Z" fill="#ECECEC"/>
<path d="M1175.93 1223.97C1178.03 1217.43 1178.75 1210.53 1178.05 1203.69C1177.35 1196.86 1175.25 1190.25 1171.87 1184.27C1158.93 1163.86 1127.17 1157.51 1128.59 1153.57C1128.59 1153.57 1128.59 1153.57 1128.94 1153.15C1132.41 1149.92 1151.46 1151.04 1155.99 1151.33C1185.08 1152.29 1213.43 1160.69 1238.33 1175.74C1223.87 1162.7 1206.82 1152.86 1188.29 1146.86C1169.77 1140.86 1150.18 1138.84 1130.82 1140.92C1114.35 1142.53 1098.24 1146.78 1083.12 1153.51C1123.88 1156.27 1147.82 1171.62 1144.88 1185.68C1142.88 1196.03 1126.29 1207.03 1108.53 1210.73C1069.18 1218.91 1043.83 1188.74 1003.13 1194.32C984.372 1196.91 960.199 1207.5 934.614 1241.38C934.203 1241.96 959.611 1206.09 998.723 1202.38C1034.54 1198.74 1044.19 1225.44 1093.77 1224.73C1107.29 1224.73 1136.11 1224.14 1147.41 1206.73C1152.52 1198.79 1154.17 1187.09 1159.7 1186.86C1163.23 1186.86 1166.23 1191.44 1168.4 1195.21C1172.9 1204.16 1175.46 1213.96 1175.93 1223.97Z" fill="#ECECEC"/>
<path d="M597.021 522.131C593.434 525.307 585.258 532.365 579.847 529.954C570.496 525.837 583.317 500.899 578.553 458.494C575.73 432.851 567.79 413.324 579.377 400.149C581.645 397.581 584.379 395.465 587.434 393.915C583.14 393.544 578.831 394.422 575.024 396.444C556.027 407.443 578.024 445.613 561.262 488.313C551.381 513.544 531.09 532.424 522.679 529.836C516.798 527.895 510.916 512.721 509.387 504.016L509.093 502.781C502.859 471.61 518.739 448.378 510.093 424.205C508.281 419.359 505.913 414.741 503.035 410.442C498.288 404.111 492.548 398.59 486.038 394.092C489.86 398.254 493.176 402.854 495.918 407.795C512.563 437.909 507.681 482.608 481.568 499.488C477.923 501.812 473.961 503.595 469.805 504.781C473.401 505.481 477.12 505.196 480.568 503.958C484.802 502.37 485.744 500.076 487.684 500.37C492.507 501.076 498.095 516.074 492.037 522.661C488.155 526.837 482.097 524.896 472.569 531.071C470.475 532.465 468.507 534.039 466.688 535.776C479.371 533.118 492.469 533.118 505.152 535.776C515.974 538.247 522.209 542.423 531.913 540.423C538.923 538.581 545.266 534.788 550.205 529.483C562.438 518.367 566.32 505.957 568.437 506.663C569.378 506.957 568.908 509.545 568.79 513.192C568.672 516.838 568.084 533.659 574.672 538.188C580.141 542.011 590.257 538.188 596.257 534.424C618.077 520.132 615.665 483.843 614.783 483.667C613.901 483.49 614.195 507.134 597.021 522.131Z" fill="#ECECEC"/>
<path d="M1196.69 280.635C1166.64 276.518 1145.17 347.919 1120.23 341.037C1105.7 337.038 1098.12 309.16 1098.76 289.986C1099.72 274.876 1105.17 260.397 1114.41 248.404C1122.82 236.077 1134.1 225.984 1147.29 218.997C1133.41 205.293 1122.82 203.528 1116.29 203.528C1092.77 203.881 1073.06 233.406 1046.95 273.694C1028.54 302.161 1017.54 325.04 1007.48 322.864C1003.54 322.04 1000.48 316.982 999.073 313.336C996.721 306.807 1002.31 296.75 1006.72 296.985C1009.9 296.985 1012.6 302.573 1014.13 309.219C1014.4 305.086 1013.82 300.942 1012.42 297.044C1010.23 291.599 1006.71 286.788 1002.19 283.046C993.31 273.4 1000.19 252.168 1007.78 228.819C1010.28 221.002 1013.24 213.342 1016.66 205.881C1005.76 218.902 997.873 234.164 993.545 250.58C993.545 250.58 986.134 279.988 977.9 283.458C977.429 283.458 976.194 284.281 975.665 283.752C975.136 283.222 977.606 278.341 979.017 274.871C981.146 268.447 980.703 261.449 977.782 255.344C978.865 259.541 978.652 263.966 977.172 268.039C975.692 272.112 973.014 275.642 969.49 278.164C963.608 281.576 955.786 280.635 954.786 278.458C953.786 276.282 956.491 272.106 971.136 261.579C971.666 261.167 967.196 263.343 962.432 264.578C959.017 265.599 955.43 265.912 951.89 265.497C948.35 265.082 944.933 263.949 941.846 262.167C931.201 253.403 945.787 229.936 934.965 216.585C929.084 209.527 919.026 208.351 910.675 208.528C918.746 211.274 925.595 216.77 930.025 224.055C939.259 241.111 924.437 255.344 932.024 274.106C938.435 290.104 960.138 301.455 971.254 296.809C977.606 294.221 981.311 289.045 985.487 290.927C990.663 292.986 990.898 303.925 990.898 306.925C990.898 308.454 990.898 339.273 971.372 345.978C959.256 350.095 947.493 342.508 943.905 340.096C938.298 336.141 933.587 331.049 930.081 325.151C926.574 319.253 924.351 312.682 923.555 305.866C922.278 313.891 923.068 322.11 925.849 329.745C928.202 335.626 929.495 339.979 927.496 342.449C924.496 346.096 916.733 341.273 911.557 345.272C910.102 346.755 908.994 348.543 908.313 350.505C907.631 352.468 907.393 354.558 907.616 356.623C909.76 352.782 913.138 349.777 917.203 348.095C926.908 344.684 933.26 353.977 949.904 356.506C959.627 358.447 969.725 356.662 978.194 351.506C991.427 341.978 992.898 324.981 999.779 325.393C1003.6 325.393 1003.66 331.274 1007.19 332.215C1017.31 334.98 1034.66 293.868 1068.18 247.345C1080.36 230.407 1093.18 214.821 1112.7 211.586C1115.12 211.233 1128.47 208.88 1131.17 214.468C1134.52 221.349 1119.41 233.289 1095.12 269.048C1085.6 281.801 1080.19 297.143 1079.59 313.042L1081.88 331.098C1080.84 321.724 1082.09 312.237 1085.53 303.455C1086.18 301.926 1089.71 293.221 1092.29 293.75C1096.29 294.515 1090.82 314.924 1100.18 330.333C1102.7 334.602 1106.1 338.284 1110.16 341.134C1114.21 343.983 1118.83 345.936 1123.7 346.86C1153.11 349.918 1167.17 285.281 1193.28 286.163C1220.28 287.104 1236.63 357.329 1237.8 356.741C1238.98 356.153 1225.75 284.575 1196.69 280.635Z" fill="#ECECEC"/>
<path d="M518.563 263.696C511.035 260.461 508.271 249.522 511.094 241.464C513.026 236.436 516.846 232.363 521.739 230.113C515.278 229.497 508.939 227.952 502.919 225.525C495.09 221.941 487.471 217.916 480.098 213.468C460.042 203.822 436.399 213.821 433.929 214.938C425.403 219.017 417.846 224.868 411.76 232.099C405.675 239.33 401.202 247.776 398.64 256.873C400.404 254.462 419.519 228.231 430.341 231.583C431.773 231.95 433.113 232.611 434.277 233.522C435.441 234.433 436.404 235.575 437.105 236.876C442.986 250.463 402.992 266.754 398.463 301.573C396.934 313.336 400.345 321.687 397.581 322.746C392.876 324.51 382.172 302.337 363.763 273.989C336.531 231.759 318.005 204.116 294.596 203.528C288.068 203.528 277.246 205.41 263.777 218.82C276.971 225.951 288.249 236.16 296.655 248.58C305.897 260.55 311.346 275.011 312.3 290.104C312.947 309.336 305.359 337.156 290.832 341.155C265.718 348.036 244.251 276.459 214.373 280.811C185.142 284.987 171.791 356.447 172.908 356.447C174.026 356.447 190.553 286.81 217.431 285.869C243.545 284.987 257.484 349.566 287.009 346.566C291.881 345.645 296.5 343.694 300.558 340.844C304.615 337.994 308.017 334.31 310.535 330.039C319.946 314.63 314.476 294.221 318.475 293.397C321.063 292.868 324.357 301.573 325.18 303.161C328.629 311.92 329.901 321.386 328.885 330.745L331.179 312.747C330.592 296.939 325.264 281.672 315.887 268.93C291.773 233.171 276.481 221.232 279.834 214.409C282.539 208.822 295.89 211.115 298.243 211.527C318.946 214.938 332.179 232.171 342.825 247.287C375.231 293.221 395.758 336.862 400.757 334.921C402.757 334.156 400.757 327.451 405.345 316.865C406.521 314.277 410.167 306.043 413.402 306.513C418.166 307.16 414.285 324.569 423.166 338.156C433.282 353.624 456.925 359.152 475.511 355.8C481.922 354.624 505.271 350.33 513.329 329.274C516.002 321.636 516.51 313.407 514.797 305.497C513.085 297.588 509.218 290.306 503.624 284.458C504.91 287.049 505.916 289.769 506.624 292.574C508.039 298.029 508.331 303.714 507.482 309.285C506.633 314.856 504.66 320.196 501.683 324.981C498.193 330.308 493.453 334.7 487.876 337.776C482.3 340.851 476.056 342.516 469.688 342.625C447.574 342.625 430.811 319.688 426.753 300.632C419.225 265.343 452.985 226.584 479.334 226.701C488.038 226.701 500.919 230.995 503.624 239.17C506.33 247.345 497.743 252.227 501.272 259.108C504.977 267.107 520.798 270.871 527.562 265.284C528.036 264.898 528.47 264.464 528.856 263.99C525.512 265.203 521.832 265.098 518.563 263.696Z" fill="#ECECEC"/>
<path d="M1028.18 1536.98C1034.06 1537.45 1038.95 1547.51 1041.42 1559.86C1042.65 1550.27 1042.59 1537.8 1034.89 1530.45C1029.65 1525.45 1025.42 1527.27 1019.71 1522.27C1006.95 1511.1 1007.95 1484.22 1014.6 1481.81C1017.89 1480.57 1022.54 1485.69 1024.36 1488.28C1026.8 1492.28 1028.01 1496.91 1027.84 1501.6C1027.68 1506.28 1026.14 1510.81 1023.42 1514.63C1025.61 1511.87 1027.37 1508.8 1028.65 1505.51C1035.71 1487.46 1024.65 1468.52 1020.3 1461.05C1014.42 1450.81 1003.6 1432.35 981.896 1427.46C969.608 1425.04 956.862 1426.78 945.677 1432.42C934.491 1438.05 925.505 1447.26 920.14 1458.58C918.726 1462.05 917.834 1465.72 917.494 1469.46C920.493 1460.46 926.257 1454.23 932.374 1453.99C933.629 1453.81 934.909 1453.93 936.112 1454.32C937.316 1454.72 938.412 1455.39 939.314 1456.28C941.608 1459.4 939.608 1464.69 936.55 1470.52C926.61 1489.34 915.082 1491.51 910.495 1506.28C907.848 1514.86 910.495 1517.28 908.495 1519.16C895.379 1530.21 825.213 1427.94 741.108 1427.99C719.474 1428.4 698.348 1434.62 679.941 1445.99C723.169 1453.11 756.4 1476.22 762.281 1505.28C765.249 1517.89 763.382 1531.15 757.047 1542.45C745.284 1561.44 721.346 1565.09 717.229 1565.97C655.885 1575.33 614.244 1488.51 570.192 1504.22C556.371 1509.1 548.548 1521.86 527.845 1521.86C513.024 1521.86 509.554 1515.39 496.262 1514.63C474.559 1513.39 464.443 1528.69 436.329 1545.8C415.391 1558.5 389.278 1574.56 359.87 1571.8C330.463 1569.03 297.232 1546.56 295.174 1521.86C291.527 1476.69 393.747 1428.58 416.803 1449.05C423.449 1454.93 422.684 1465.69 422.331 1469.64C418.92 1517.1 336.579 1546.51 337.873 1548.15C342.755 1554.39 509.495 1467.34 509.377 1467.11C501.437 1470.28 432.918 1505.81 423.155 1495.22C418.92 1490.63 423.684 1475.22 434.094 1466.28C456.562 1447.05 499.144 1462.75 507.731 1466.28C449.617 1440.26 385.283 1431.36 322.287 1440.64C222.89 1456.28 184.543 1512.33 179.838 1519.57C192 1507.38 205.293 1496.37 219.538 1486.69C242.728 1469.37 269.698 1457.8 298.232 1452.93C310.936 1451.05 334.58 1449.34 336.521 1455.52C338.462 1461.69 312.583 1470.28 285.058 1500.98C285.058 1500.98 259.885 1529.1 263.943 1545.74C264.825 1549.62 270.824 1561.74 271.295 1563.09C270.425 1557.39 270.012 1551.63 270.06 1545.86C269.851 1539.31 271.117 1532.8 273.765 1526.8C274.236 1525.8 280.764 1512.45 286.116 1513.28C293.527 1514.45 287.587 1540.74 299.408 1558.45C317.523 1585.68 370.339 1580.21 374.691 1579.8C444.093 1572.5 464.972 1514.28 501.79 1526.16C520.258 1532.04 520.611 1548.68 556.018 1567.33C568.098 1573.66 580.893 1578.51 594.13 1581.79C557.606 1570.03 535.609 1550.74 537.785 1536.39C539.844 1523.04 562.84 1511.98 583.543 1511.86C631.183 1511.57 642.358 1569.03 695.291 1574.97C720.876 1577.8 751.812 1568.09 763.928 1547.86C778.867 1522.74 760.987 1488.16 767.81 1485.69C772.809 1483.87 785.454 1501.45 791.865 1517.98C798.276 1534.51 799.511 1552.68 801.04 1576.27C801.04 1576.27 801.04 1579.85 801.04 1580.74C801.393 1578.56 809.862 1531.39 791.512 1498.81C767.104 1455.64 704.643 1454.64 706.466 1442.87C707.701 1434.93 736.403 1430.29 761.987 1433.88C769.574 1434.93 795.218 1439.23 833.506 1467.87C877.264 1500.51 899.437 1536.33 909.318 1530.92C916.141 1527.21 911.73 1507.39 917.847 1505.69C921.493 1504.87 925.845 1511.57 926.434 1512.28C937.844 1529.92 929.609 1567.86 906.378 1576.56C899.691 1578.95 892.416 1579.13 885.616 1577.09C890.335 1581.09 896.374 1583.18 902.555 1582.97C911.965 1582.09 918.199 1574.27 920.199 1575.8C922.199 1577.33 919.082 1582.5 916.2 1586.56C910.666 1593.68 903.159 1599.02 894.615 1601.91C888.713 1604.54 882.54 1606.51 876.206 1607.79C883.334 1609.05 890.655 1608.67 897.614 1606.67C904.438 1604.57 910.747 1601.06 916.141 1596.38C922.325 1591.16 927.679 1585.04 932.021 1578.21C951.253 1546.56 935.315 1457.81 957.547 1448.29C963.134 1445.93 970.604 1448.76 976.073 1450.87C985.172 1454.6 992.896 1461.05 998.188 1469.34C1016.89 1497.28 992.306 1568.03 1008.36 1575.91C1013.69 1578.14 1019.5 1578.99 1025.24 1578.38C1027.72 1578.15 1030.16 1577.66 1032.54 1576.91C1031.54 1576.91 1018.48 1577.44 1013.19 1569.09C1005.77 1556.74 1019.42 1536.21 1028.18 1536.98ZM996.894 1451.93C995.6 1453.17 988.777 1443.05 975.368 1441.17C962.958 1439.46 954.488 1446.23 953.371 1444.29C952.253 1442.34 962.134 1428.52 974.603 1428.94C989.777 1429.52 998.658 1450.4 996.894 1451.93Z" fill="#ECECEC"/>
<path d="M507.502 1466.52L509.149 1467.23L507.502 1466.52Z" fill="#ECECEC"/>
</svg>
