<svg width="1400" height="2000" viewBox="0 0 1400 2000" fill="none" xmlns="http://www.w3.org/2000/svg">
<rect width="1399.32" height="2000" fill="#141414"/>
<path d="M643.346 656.258C642.768 654.452 642.299 652.614 641.94 650.752C641.631 647.302 642.09 643.826 643.285 640.575C644.48 637.324 646.382 634.378 648.852 631.95C652.988 627.774 657.633 624.134 662.675 621.114C670.524 615.256 672.457 613.968 673.394 610.688C674.742 605.885 672.75 599.559 669.236 598.446C665.721 597.333 663.378 600.144 659.395 603.717C656.506 606.279 653.949 609.191 651.781 612.386C654.82 605.575 659.661 599.723 665.78 595.458C671.632 591.313 678.536 588.905 685.696 588.511C692.857 588.117 699.983 589.754 706.254 593.233C717.266 600.496 718.848 613.558 722.303 612.621C725.759 611.683 726.814 602.78 722.889 595.986C721.444 593.516 719.359 591.483 716.853 590.101C714.348 588.719 711.515 588.041 708.656 588.137C714.037 587.475 719.471 588.854 723.885 592.003C733.14 599.383 733.432 615.432 728.219 625.975C723.006 636.519 712.463 637.69 712.639 644.016C712.639 653.212 732.554 655.731 733.14 666.45C733.03 671.926 731.539 677.285 728.805 682.031C728.044 683.319 726.989 684.784 727.517 685.545C728.044 686.306 732.437 685.545 734.545 684.198C739.619 681.487 743.517 677.004 745.499 671.604C743.709 678.834 740.436 685.613 735.889 691.512C731.341 697.41 725.618 702.3 719.082 705.87C705.258 712.958 688.799 712.782 682.415 709.267C680.723 708.456 678.982 707.751 677.202 707.159C673.333 706.067 669.212 706.294 665.487 707.803C658.706 709.213 651.708 709.213 644.927 707.803C637.661 705.965 631.223 701.736 626.652 695.795C629.935 699.159 634.119 701.501 638.703 702.54C643.286 703.58 648.072 703.271 652.483 701.653C664.198 696.674 669.528 681.328 665.663 674.24C663.671 670.55 660.215 671.077 656.174 666.333C652.621 661.723 650.742 656.043 650.843 650.225C652.542 657.84 656.115 663.58 659.864 663.756C664.842 663.756 669.353 654.267 669.353 646.183C669.353 644.953 669.353 635.054 663.495 632.301C657.638 629.548 650.082 635.64 646.509 641.146C643.728 645.662 642.609 651.006 643.346 656.258ZM724.236 669.086C722.948 659.362 699.05 645.656 683.235 658.074C670.641 667.856 670.29 688.591 677.377 694.39C688.916 703.644 726.228 682.323 724.236 669.261V669.086ZM680.599 646.886C690.966 653.329 719.668 636.343 717.852 620.001C716.622 608.872 701.334 597.684 690.205 601.374C687.234 602.807 684.61 604.87 682.516 607.419C680.423 609.968 678.909 612.942 678.08 616.135C674.039 626.971 673.511 642.669 680.599 647.062V646.886Z" fill="#ECECEC"/>
<path d="M743.803 830.279C743.225 828.474 742.756 826.635 742.397 824.774C742.079 821.314 742.534 817.827 743.729 814.565C744.925 811.303 746.831 808.347 749.309 805.913C753.457 801.682 758.098 797.966 763.132 794.842C770.981 788.985 772.973 787.696 773.851 784.416C775.198 779.613 773.207 773.287 769.693 772.174C766.178 771.061 763.835 773.873 759.852 777.446C756.964 780.008 754.406 782.92 752.238 786.115C755.277 779.304 760.118 773.451 766.237 769.187C772.089 765.042 778.993 762.634 786.153 762.24C793.314 761.846 800.44 763.483 806.711 766.961C817.723 774.224 819.305 787.228 822.76 786.349C826.216 785.47 827.271 776.45 823.346 769.714C821.901 767.28 819.828 765.278 817.345 763.918C814.862 762.558 812.06 761.89 809.23 761.982C814.611 761.321 820.045 762.7 824.459 765.848C833.772 773.229 834.065 789.278 828.794 799.763C823.522 810.247 813.037 811.477 813.213 817.862C813.213 827.058 833.187 829.577 833.714 840.296C833.604 845.771 832.114 851.131 829.379 855.876C828.618 857.165 827.622 858.629 828.091 859.391C828.559 860.152 833.011 859.098 835.178 858.043C840.251 855.333 844.15 850.85 846.131 845.45C844.315 852.676 841.026 859.45 836.47 865.346C831.914 871.242 826.19 876.134 819.656 879.716C805.833 886.745 789.373 886.628 783.047 883.113C782.462 882.762 780.47 882 777.834 881.004C773.965 879.926 769.848 880.152 766.12 881.649C759.359 883.061 752.379 883.061 745.619 881.649C738.255 879.853 731.724 875.596 727.109 869.583C730.392 872.946 734.576 875.288 739.16 876.328C743.743 877.367 748.528 877.059 752.94 875.44C764.655 870.403 769.985 855.115 766.178 848.027C764.128 844.337 760.672 844.864 756.631 840.12C753.078 835.511 751.199 829.83 751.3 824.012C752.999 831.627 756.631 837.367 760.379 837.543C765.3 837.543 769.81 828.054 769.81 819.97C769.81 818.74 769.81 808.841 763.952 806.088C758.095 803.336 750.539 809.427 746.966 814.875C744.136 819.479 743.016 824.932 743.803 830.279ZM824.693 843.107C823.405 833.384 799.507 819.678 783.692 832.095C771.157 841.877 770.747 862.612 777.834 868.411C789.608 877.49 826.685 856.169 824.928 843.107H824.693ZM781.056 820.908C791.482 827.351 820.125 810.364 818.309 794.022C817.079 782.893 801.791 771.706 790.662 775.396C787.693 776.832 785.071 778.896 782.978 781.444C780.885 783.993 779.37 786.965 778.537 790.156C774.73 800.465 774.144 816.515 781.29 820.908H781.056Z" fill="#ECECEC"/>
<path d="M552.149 830.282C551.589 828.475 551.139 826.637 550.801 824.776C550.476 821.321 550.921 817.836 552.106 814.575C553.292 811.313 555.187 808.355 557.655 805.915C561.816 801.7 566.455 797.985 571.478 794.845C579.327 788.987 581.318 787.699 582.256 784.418C583.603 779.615 581.553 773.289 578.097 772.177C574.641 771.064 572.239 773.875 568.198 777.448C565.309 780.01 562.751 782.922 560.583 786.117C563.623 779.306 568.463 773.454 574.582 769.189C580.422 765.067 587.304 762.672 594.441 762.279C601.578 761.885 608.682 763.509 614.94 766.964C625.952 774.227 627.533 787.23 630.989 786.351C634.445 785.473 635.499 776.452 631.575 769.716C630.129 767.282 628.057 765.281 625.574 763.921C623.091 762.561 620.288 761.892 617.458 761.985C622.84 761.317 628.276 762.697 632.688 765.851C642.001 773.231 642.294 789.28 637.022 799.765C631.75 810.25 621.266 811.48 621.5 817.864C621.5 827.06 641.415 829.579 641.942 840.298C641.833 845.774 640.342 851.133 637.608 855.879C636.846 857.167 635.851 858.632 636.319 859.393C636.788 860.155 641.298 859.1 643.407 858.046C648.48 855.335 652.379 850.853 654.36 845.452C652.547 852.672 649.265 859.441 644.72 865.337C640.175 871.232 634.464 876.128 627.943 879.718C614.061 886.747 597.602 886.63 591.276 883.115C590.69 882.764 588.699 882.003 586.063 881.007C582.193 879.928 578.076 880.155 574.348 881.651C567.587 883.063 560.608 883.063 553.847 881.651C546.489 879.842 539.963 875.588 535.338 869.585C538.62 872.948 542.805 875.291 547.388 876.33C551.971 877.369 556.757 877.061 561.169 875.442C572.884 870.405 578.214 855.117 574.407 848.03C572.357 844.34 568.901 844.867 564.918 840.122C561.34 835.526 559.458 829.837 559.587 824.014C561.228 831.629 564.859 837.369 568.608 837.545C573.528 837.545 578.038 828.056 578.038 819.973C578.038 818.743 578.038 808.844 572.181 806.091C566.323 803.338 558.767 809.43 555.194 814.877C552.405 819.496 551.327 824.949 552.149 830.282ZM633.039 843.11C631.809 833.386 607.852 819.68 592.037 832.098C579.503 841.879 579.093 862.615 586.18 868.413C597.778 877.492 634.796 856.172 633.039 843.11ZM589.402 820.91C599.828 827.353 628.47 810.367 626.655 794.025C625.424 782.896 610.137 771.708 599.008 775.398C596.039 776.834 593.417 778.898 591.324 781.446C589.23 783.995 587.715 786.967 586.883 790.159C582.9 800.468 582.256 816.517 589.402 820.91Z" fill="#ECECEC"/>
<path d="M332.257 1274.97C335.303 1277.02 345.377 1282.35 353.168 1254.71C362.422 1222.2 363.359 1162.16 361.661 1124.2C359.025 1063.64 349.126 1048.06 348.423 984.621C348.423 960.899 349.302 941.218 350.239 928.625C349.77 938.816 349.243 955.451 350.239 975.484C350.207 988.291 351.483 1001.07 354.046 1013.62C357.443 1024.39 362.422 1017.25 364.765 1013.62C376.07 996.043 377.944 943.034 390.362 917.027C397.508 902.208 404.127 904.492 411.273 907.948C439.564 921.713 467.035 1038.04 471.604 1170.48C472.717 1201.05 472.365 1226.88 471.604 1243.81C462.525 1150.09 458.073 1129.3 455.672 1131.82C451.162 1136.62 450.576 1228.35 455.672 1303.91C459.435 1363.44 467.639 1422.61 480.214 1480.92C454.559 1430.13 433.707 1419.18 428.611 1453.39C424.393 1481.39 430.544 1541.25 436.342 1575.22C443.899 1619.97 453.915 1637.9 453.446 1641.18C452.977 1644.46 440.618 1613 424.159 1585.88C406.587 1556.59 397.684 1541.66 387.55 1539.96C370.74 1537.21 356.682 1562.22 349.77 1574.69C338.934 1594.43 329.562 1620.97 329.152 1618.27C328.567 1613.94 355.335 1558.76 353.988 1501.13C353.578 1482.38 350.063 1453.68 346.49 1456.08C345.026 1457.08 344.147 1459.66 342.624 1463.58C340.047 1470.26 335.888 1476.41 329.035 1472.25C333.018 1467.45 341.746 1454.03 347.779 1417.31C355.218 1372.38 356.389 1306.02 351.586 1292.49C349.419 1286.63 347.427 1291.72 341.453 1290.61C339.637 1289.91 336.123 1286.86 332.257 1274.97ZM416.837 1149.1C412.253 1124.43 409.939 1099.39 409.926 1074.3C409.926 1031.25 416.837 1012.56 414.787 977.299C413.499 955.803 409.399 937.645 404.947 931.26C396.337 919.018 387.375 954.69 384.095 967.986C369.393 1026.85 370.037 1123.15 370.271 1144.88C370.974 1214.52 377.124 1220.62 376.48 1280.71C375.66 1364 363.477 1392 366.874 1424.34C371.736 1470.26 403.6 1482.91 423.105 1417.07C439.154 1362.72 440.208 1275.91 442.317 1102.3C442.903 1050.4 442.317 1009.52 436.46 994.637C431.657 982.161 424.745 992.119 420.996 1004.83C413.557 1030.66 411.39 1089.35 416.837 1149.1ZM460.533 1415.08C463.814 1395.34 450.986 1313.86 443.84 1321.36C441.028 1324.23 439.33 1340.16 438.978 1351.76C438.379 1369.45 440.837 1387.1 446.241 1403.95C450.927 1418.13 458.601 1426.62 460.533 1415.08Z" fill="#ECECEC"/>
<path d="M363.067 465.135C366.114 465.663 369.236 465.583 372.252 464.9C375.267 464.216 378.118 462.942 380.639 461.152C383.928 457.868 386.322 453.798 387.594 449.327C388.865 444.857 388.971 440.136 387.903 435.613C385.618 423.899 377.184 420.677 376.598 408.318C376.419 404.604 376.936 400.889 378.121 397.365C377.537 400.383 377.537 403.484 378.121 406.502C378.227 409.297 379.376 411.951 381.342 413.941C382.764 414.639 384.327 415.002 385.911 415.002C387.495 415.002 389.058 414.639 390.48 413.941C400.086 410.485 401.667 400.118 412.269 395.022C417.825 392.714 423.939 392.102 429.841 393.264C453.915 395.959 477.228 418.686 481.152 444.634C481.787 449.396 481.787 454.222 481.152 458.984C473.42 440.592 469.437 436.551 467.622 437.078C463.756 438.015 463.229 455.939 467.622 470.699C471.563 483.793 478.687 495.707 488.357 505.375C466.567 495.476 448.819 493.309 444.485 499.986C440.912 505.492 446.125 517.207 451.045 523.826C455.256 528.822 460.169 533.182 465.63 536.77C465.22 537.532 454.735 531.264 440.912 525.934C425.917 520.077 418.42 517.265 409.809 516.972C398.719 516.827 387.735 519.148 377.652 523.767C368.456 527.633 360.431 532.787 360.08 532.26C359.729 531.733 382.338 520.545 381.225 509.299C380.815 505.668 377.828 500.045 374.782 500.513C373.597 500.762 372.478 501.261 371.502 501.978C367.924 503.92 363.77 504.522 359.787 503.676C366.16 501.98 371.773 498.182 375.719 492.899C382.045 484.113 383.041 471.109 378.999 468.473C377.125 467.302 375.426 468.473 370.33 468.122C367.687 467.789 365.18 466.758 363.067 465.135ZM434.996 440.475C431.41 436.417 429.34 431.243 429.139 425.832C429.139 417.455 434.996 413.765 433.297 406.854C432.719 404.799 431.656 402.913 430.199 401.354C428.742 399.795 426.932 398.608 424.921 397.892C417.6 395.49 409.985 402.519 407.349 405.038C394.814 416.753 395.634 435.379 395.634 439.655C396.22 453.303 401.492 454.474 400.906 466.248C400.203 482.531 389.836 487.978 392.764 494.304C396.864 503.325 423.984 506.019 440.502 492.899C453.798 482.297 454.677 465.31 456.785 431.337C457.313 421.204 456.785 413.18 451.982 410.251C449.822 409.355 447.457 409.067 445.145 409.418C442.832 409.769 440.659 410.746 438.862 412.242C431.95 417.338 430.076 428.819 434.762 440.475H434.996ZM472.132 492.547C474.885 488.681 463.99 472.691 457.898 474.155C455.555 474.741 454.091 477.845 453.798 480.012C453.095 485.46 458.836 489.443 459.656 490.204C463.756 493.133 470.257 494.773 471.897 492.547H472.132Z" fill="#ECECEC"/>
<path d="M865.753 272.951C879.049 257.37 896.973 266.449 912.612 249.521C919.795 241.315 924.257 231.083 925.381 220.234C922.858 228.597 917.931 236.032 911.213 241.615C904.495 247.198 896.284 250.68 887.601 251.63C880.458 251.91 873.35 250.508 866.849 247.537C860.348 244.566 854.635 240.11 850.172 234.526C845.848 240.029 840.295 244.442 833.958 247.412C827.621 250.382 820.676 251.827 813.681 251.63C804.98 250.752 796.74 247.294 790.019 241.7C783.298 236.106 778.402 228.631 775.959 220.234C777.067 231.076 781.507 241.307 788.67 249.521C804.484 266.391 822.408 257.312 835.529 272.951C838.282 276.172 840.917 292.69 846.13 325.667C848.649 341.599 849.879 350.503 845.31 353.666C840.742 356.829 834.181 353.256 829.788 350.737C836.583 360.05 843.963 364.795 847.946 362.803C849.167 362.132 850.088 361.022 850.524 359.699C850.988 361.006 851.901 362.106 853.101 362.803C857.142 364.795 864.464 360.05 871.259 350.737C866.924 353.256 859.954 356.594 855.795 353.666C851.636 350.737 852.456 341.599 854.917 325.667C860.305 292.69 862.941 276.172 865.753 272.951Z" fill="#ECECEC"/>
<path d="M310.702 446.036C323.998 430.514 341.922 439.593 357.561 422.606C364.707 414.382 369.145 404.156 370.271 393.319C367.766 401.681 362.852 409.119 356.143 414.703C349.434 420.287 341.227 423.769 332.55 424.715C325.394 425.016 318.267 423.63 311.745 420.669C305.223 417.708 299.488 413.255 295.004 407.67C290.667 413.155 285.111 417.552 278.775 420.511C272.44 423.47 265.502 424.909 258.513 424.715C249.799 423.856 241.543 420.406 234.809 414.81C228.075 409.214 223.172 401.728 220.732 393.319C221.883 404.161 226.341 414.385 233.502 422.606C249.258 439.476 267.24 430.397 280.361 446.036C283.114 449.316 285.749 465.775 290.962 498.752C293.481 514.626 294.653 523.588 290.084 526.751C285.515 529.914 278.955 526.341 274.62 523.763C281.415 533.135 288.737 537.821 292.778 535.83C293.999 535.158 294.92 534.049 295.356 532.725C295.791 534.049 296.712 535.158 297.933 535.83C301.916 537.821 309.296 533.135 316.091 523.763C311.698 526.341 304.727 529.621 300.569 526.751C296.41 523.88 297.23 514.626 299.749 498.752C305.313 465.775 307.949 449.316 310.702 446.036Z" fill="#ECECEC"/>
<path d="M581.554 233.59C576.75 232.357 571.727 232.245 566.873 233.26C562.019 234.276 557.462 236.392 553.555 239.447C548.802 243.314 545.213 248.424 543.188 254.208C541.657 250.25 541.533 245.887 542.836 241.849C547.581 229.255 570.893 223.456 589.695 226.326C603.167 228.435 609.435 234.058 620.212 230.427C620.798 230.427 631.927 226.327 631.927 220.001C631.699 218.545 631.156 217.157 630.337 215.933C629.517 214.709 628.441 213.679 627.183 212.913C628.775 213.071 630.311 213.591 631.671 214.433C633.032 215.276 634.181 216.419 635.032 217.775C637.14 222.636 630.463 226.737 628.354 237.221C626.245 247.706 630.814 249.405 628.354 256.141C624.43 265.922 613.125 265.161 612.481 270.433C611.192 280.859 654.537 287.126 658.52 308.33C659.263 314.056 657.865 319.855 654.595 324.613C656.025 320.385 656.248 315.841 655.24 311.493C652.135 299.31 638.605 292.398 636.613 293.921C634.622 295.444 637.14 303.175 645.223 315.476C648.104 321.421 649.105 328.102 648.094 334.63C646.102 347.223 625.543 358.996 597.896 359.582C601.879 359.172 617.811 357.063 625.484 344.06C627.241 341.073 629.408 337.441 628.12 335.391C622.965 327.542 578.742 365.322 546.585 349.683C537.799 345.407 525.147 335.274 525.674 325.023C525.687 322.81 526.225 320.632 527.243 318.667C528.261 316.702 529.731 315.006 531.532 313.719C533.317 312.739 535.38 312.389 537.389 312.723C535.937 313.942 534.758 315.454 533.931 317.16C533.103 318.866 532.645 320.727 532.586 322.622C532.989 325.508 534.231 328.213 536.157 330.399C538.083 332.586 540.61 334.159 543.422 334.922C556.543 338.613 567.203 323.208 581.729 328.011C583.393 328.569 584.97 329.358 586.415 330.354C583.62 330.154 580.815 330.575 578.202 331.588C575.59 332.601 573.233 334.18 571.303 336.211C569.077 339.081 567.144 343.943 568.726 345.817C574.583 352.377 630.053 328.245 627.827 304.815C626.538 291.402 606.506 280.332 590.691 279.102C580.043 278.761 569.506 281.355 560.233 286.599C556.043 288.855 552.114 291.566 548.518 294.682C550.479 291.155 552.902 287.904 555.723 285.018C576.692 263.404 610.723 271.194 613.476 260.182C614.472 256.141 610.723 252.099 608.029 249.17C595.553 237.338 573.939 240.853 561.228 246.242C559.218 247.206 557.262 248.281 555.371 249.463C557.332 245.979 559.936 242.898 563.044 240.384C568.528 236.567 574.903 234.227 581.554 233.59Z" fill="#ECECEC"/>
<path d="M390.604 592.295C386.123 589.167 380.78 587.509 375.316 587.551C363.601 588.019 360.028 597.977 347.2 598.562C339.644 598.914 337.946 595.634 331.913 597.508C326.04 599.867 321.342 604.459 318.851 610.277C313.52 621.231 315.395 635.405 319.788 636.811C322.716 637.69 324.415 632.36 329.921 632.184C336.598 632.184 340.464 639.857 343.745 638.393C346.029 637.338 344.623 633.297 347.61 629.255C349.712 626.67 352.656 624.907 355.928 624.276C354.423 625.103 353.119 626.25 352.106 627.637C351.094 629.024 350.399 630.616 350.07 632.301C349.309 639.681 359.208 646.944 367.643 648.057C371.793 648.271 375.938 647.539 379.763 645.915C383.589 644.292 386.995 641.819 389.725 638.686C393.695 634.909 396.758 630.283 398.687 625.155C398.16 627.439 393.357 645.363 377.424 651.689C372.263 653.84 366.615 654.548 361.082 653.739C351.945 652.275 350.012 647.179 341.987 646.183C338.639 645.862 335.261 646.215 332.052 647.221C328.843 648.227 325.868 649.866 323.302 652.04C309.537 663.755 317.445 687.888 318.558 691.402C320.549 697.259 322.424 703.117 327.227 704.991C334.607 708.213 338.941 698.841 352.355 698.548C360.379 698.548 361.727 701.711 376.37 702.472C380.291 702.846 384.246 702.589 388.085 701.711C393.396 700.331 398.271 697.631 402.26 693.862C401.255 695.831 399.973 697.646 398.452 699.251C389.256 708.974 375.023 706.631 375.023 708.74C375.023 710.849 387.089 714.597 396.812 710.673C397.802 710.32 398.761 709.889 399.683 709.384C394.479 714.176 387.717 716.922 380.646 717.116C369.927 716.413 368.931 705.401 358.915 704.464C348.02 703.351 345.502 715.359 332.44 716.179C322.834 716.589 317.796 709.56 311.353 712.84C308.614 714.724 305.495 715.983 302.216 716.53C300.914 716.721 299.592 716.721 298.291 716.53C307.077 710.673 311.353 702.238 309.245 695.561C308.19 692.163 305.144 688.122 301.747 688.063C295.89 688.063 291.731 698.138 290.032 703.937C289.516 705.971 289.202 708.05 289.095 710.146C288.395 702.734 289.626 695.268 292.668 688.473C295.419 683.822 298.451 679.342 301.747 675.06C306.726 667.27 314.633 654.852 310.299 648.526C308.934 646.806 307.004 645.623 304.851 645.187C296.417 642.669 287.748 649.756 287.279 649.287C292.764 646.127 297.757 642.18 302.098 637.573C311.529 625.858 309.713 609.809 308.893 603.014C307.712 593.145 304.264 583.682 298.818 575.367C302.206 578.935 306.092 581.993 310.357 584.446C322.951 592.529 337.243 593.818 337.829 592.061C338.414 590.304 334.08 589.894 330.155 584.563C328.56 582.367 327.315 579.937 326.465 577.359C337.887 591.358 345.795 593.525 351.008 592.705C356.221 591.885 360.614 586.848 372.504 585.032C375.278 584.381 378.165 584.381 380.939 585.032C384.896 586.278 388.306 588.841 390.604 592.295Z" fill="#ECECEC"/>
<path d="M299.87 210.275C297.731 217.004 293.656 222.953 288.155 227.379C279.779 233.997 269.353 235.11 269.353 236.34C269.353 237.57 274.214 237.336 278.256 236.809C291.833 234.509 304.483 228.417 314.747 219.237C311.627 222.92 308.198 226.33 304.497 229.429C297.774 235.181 290.051 239.649 281.712 242.608C263.32 248.465 256.174 238.273 234.853 243.194C228.222 244.104 221.943 246.729 216.636 250.808C204.921 261.293 208.963 277.811 206.62 324.201C204.921 351.672 202.637 359.287 196.663 363.387C188.404 368.776 173.233 364.969 170.246 357.998C167.258 351.028 174.639 333.983 175.342 332.577C176.839 329.886 177.454 326.792 177.099 323.733C176.58 320.939 175.136 318.401 172.999 316.528C175.04 317.229 176.831 318.512 178.153 320.218C184.538 328.887 172.296 343.648 177.45 350.325C179.291 352.136 181.699 353.259 184.269 353.504C186.84 353.749 189.417 353.103 191.567 351.672C197.775 346.342 192.035 329.18 186.061 311.374C180.848 295.734 177.743 291.986 179.032 284.722C180.332 280.163 182.565 275.924 185.59 272.274C188.615 268.624 192.366 265.642 196.604 263.519C191.297 267.192 187.655 272.813 186.471 279.158C185.475 285.484 187.115 293.743 190.278 294.329C193.441 294.914 201.173 285.191 201.993 274.706C203.106 261.469 194.554 256.49 193.851 243.896C193.558 238.566 195.491 230.952 205.566 221.345C201.348 231.654 202.168 234.935 203.574 236.106C207.089 238.976 214.703 229.136 229.815 226.5C243.873 224.04 248.91 230.483 258.517 226.91C263.964 224.919 271.344 219.53 276.909 203.48C276.504 209.927 274.49 216.17 271.051 221.638C267.185 227.847 262.792 230.542 263.612 231.83C264.432 233.119 275.327 230.6 283.762 225.27C290.086 221.408 295.565 216.307 299.87 210.275Z" fill="#ECECEC"/>
<path d="M407 254.38C405.865 265.149 401.379 275.29 394.173 283.374C384.613 293.219 371.679 299.078 357.974 299.775C342.862 300.067 336.888 292.57 331.147 297.197C324.47 302.528 325.29 318.811 326.344 327.07C328.101 342.299 328.98 349.914 326.813 352.667C321.483 359.168 306.312 359.696 298.405 351.788C295.81 349.102 294.041 345.727 293.309 342.065C294.673 344.154 296.435 345.954 298.496 347.361C300.556 348.768 302.874 349.755 305.316 350.265C309.539 351.118 313.927 350.299 317.558 347.981C322.654 344.056 321.541 337.555 321.19 312.017C321.19 296.319 321.19 290.637 318.788 289.817C315.332 288.763 309.709 298.135 308.948 299.247C304.612 305.891 302.556 313.766 303.09 321.681C301.671 316.991 300.96 312.114 300.982 307.213C301.45 282.144 322.83 269.668 317.5 256.957C316.51 254.558 314.829 252.507 312.669 251.068C310.51 249.628 307.97 248.864 305.375 248.874C302.451 249.436 299.83 251.041 297.999 253.389C296.167 255.737 295.25 258.67 295.417 261.643C295.02 260.869 294.744 260.04 294.597 259.183C292.606 247.175 314.864 226.323 335.892 227.084C353.464 227.729 364.827 238.799 371.036 232.942C372.677 231.073 373.761 228.782 374.165 226.328C374.569 223.874 374.276 221.356 373.32 219.06C371.89 215.551 369.193 212.708 365.764 211.094C368.727 211.284 371.607 212.148 374.186 213.62C376.764 215.091 378.972 217.132 380.642 219.587C383.747 225.444 380.349 229.252 383.102 237.862C384.918 243.368 389.37 251.1 393.821 250.865C398.273 250.631 402.08 243.368 403.252 233.293C403.94 240.648 403.103 248.066 400.792 255.083C396.281 268.203 386.792 277.458 388.081 278.512C389.37 279.567 392.181 276.638 393.118 275.935C399.874 270.367 404.726 262.833 407 254.38ZM366.936 261.467C358.618 271.015 349.364 269.316 335.54 281.265C333.549 282.964 327.574 288.118 328.629 290.051C329.683 291.984 336.302 288.704 345.791 288.47C360.493 288.06 364.944 295.44 370.802 292.921C383.278 287.533 379.529 247.175 374.961 246.648C373.028 246.238 373.789 253.677 366.936 261.467ZM326.871 277.634C329.097 280.445 343.272 272.772 352.82 265.157C358.326 260.706 363.597 256.43 362.66 252.154C361.84 250.333 360.491 248.8 358.788 247.756C357.085 246.711 355.108 246.203 353.112 246.297C347.255 246.297 342.569 252.564 333.783 265.099C328.453 272.479 325.817 276.286 326.871 277.634ZM356.861 239.092C356.393 237.335 333.432 237.218 326.286 250.163C322.596 257.074 324.294 266.27 326.696 266.856C329.097 267.442 331.323 256.547 342.393 247.41C346.971 244.231 351.811 241.448 356.861 239.092Z" fill="#ECECEC"/>
<path d="M1052.42 1113.66C1051.66 1142.54 1049.03 1206.68 1037.37 1261.97C1036.32 1266.89 1019.8 1343.98 994.845 1345.79C976.98 1347.31 969.951 1309.01 963.274 1332.44C955.425 1359.73 956.011 1443.08 957.417 1485.26C959.467 1563.16 960.521 1602.11 957.944 1615.99C951.735 1649.32 933.87 1652.13 924.557 1611.72C921.248 1595.31 919.289 1578.66 918.699 1561.93C919.578 1567.79 924.147 1597.07 932.816 1603.69C934.514 1605.04 941.894 1609.9 947.225 1591.98C953.082 1572 951.911 1538.5 951.501 1407.94C951.501 1327.75 951.501 1298.7 948.63 1294.66C944.589 1289.15 937.97 1337.06 936.916 1342.92C931.684 1380.9 929.451 1419.22 930.238 1457.55C929.067 1441.38 927.661 1415.38 927.778 1383.45C928.247 1255.41 953.492 1191.62 947.166 1126.61C944.765 1102.42 938.439 1082.38 932.874 1085.61C927.31 1088.83 921.159 1116.83 921.159 1150.86C920.808 1147.81 920.398 1143.48 920.164 1138.09C917.821 1076.88 944.003 970.157 968.721 974.082C989.691 977.362 1002.75 1033.71 1010.43 1003.37C1014.5 979.991 1015.38 956.169 1013.06 932.553C1010.66 905.96 1005.04 894.831 1003.69 892.312C1014.7 901.86 1018.98 920.779 1020.91 935.774C1024.54 964.065 1020.56 985.211 1023.78 1029.02C1025.89 1057.14 1031.1 1096.85 1036.37 1095.51C1041.65 1094.16 1046.1 1057.37 1047.44 1005.42C1047.97 1031.48 1048.09 1072.02 1044.57 1116.71C1039.24 1184.01 1028.12 1231.34 1029.64 1237.43C1030.52 1240.89 1034.44 1227.76 1035.5 1224.25C1045.75 1191.51 1050.26 1144.77 1052.42 1113.66ZM1005.56 1149.92C995.724 1198.77 984.946 1189.87 968.546 1251.02C966.203 1259.8 959.174 1286.16 960.462 1296.12C961.751 1306.08 969.483 1289.21 980.612 1287.86C997.891 1285.69 1003.16 1323.71 1009.9 1310.65C1024.54 1283.06 1020.15 1076.94 1014.76 1074.24C1012.53 1073.13 1013.24 1110.21 1005.39 1149.92H1005.56ZM958.705 1232.63C961.282 1246.98 977.976 1207.67 989.164 1168.72C995.665 1146.11 1001.87 1124.09 1000.88 1102.3C999.941 1084.73 994.552 1071.14 989.691 1071.14C982.603 1071.14 977.273 1103.18 966.964 1167.26C960.111 1206.15 956.948 1225.6 958.237 1232.63H958.705ZM993.849 1035.53C993.264 1026.56 966.085 1026.1 957.885 1092.05C953.492 1127.19 955.542 1174.05 958.354 1177.33C961.165 1180.61 963.801 1124.62 976.804 1077.76C985.825 1044.31 993.85 1040.5 993.498 1035.53H993.849Z" fill="#ECECEC"/>
<path d="M526.372 344.236C526.419 346.312 525.841 348.355 524.713 350.099C523.585 351.843 521.959 353.208 520.046 354.018C514.95 355.482 509.913 350.269 508.331 345.876C507.799 343.331 507.806 340.703 508.351 338.161C508.895 335.619 509.966 333.219 511.494 331.115C517.352 321.568 522.448 293.335 523.561 221.758C522.365 227.97 519.321 233.677 514.827 238.13C510.332 242.582 504.597 245.573 498.374 246.71C491.977 247.307 485.569 245.694 480.216 242.141C481.087 245.082 482.585 247.799 484.607 250.105C486.63 252.411 489.128 254.25 491.931 255.496C498.374 257.605 502.005 253.153 506.281 255.496C514.716 259.948 514.892 286.189 503.646 293.335C498.315 296.732 494.449 293.335 486.073 297.201C476.467 301.828 474.71 310.029 471.43 309.267C466.451 308.037 472.25 289.001 462.468 276.231C456.605 269.344 448.49 264.758 439.566 263.287C442.377 264.634 445.423 266.684 445.423 269.144C445.423 271.604 439.566 273.83 434.646 277.11C422.404 285.369 421.525 302.121 420.529 301.945C419.533 301.77 421.759 283.143 432.244 221.699C426.886 229.272 419.551 235.229 411.04 238.92C414.547 253.223 415.754 267.993 414.613 282.675C414.151 289.004 413.211 295.289 411.802 301.477C408.306 316.909 401.357 331.349 391.477 343.709C392.911 341.838 394.925 340.496 397.204 339.892C399.483 339.287 401.897 339.456 404.07 340.37C404.859 340.98 405.512 341.749 405.986 342.626C406.46 343.504 406.745 344.471 406.823 345.466C408.112 353.49 399.091 360.226 398.271 360.871C404.977 361.028 411.687 360.774 418.362 360.109C443.08 357.708 455.498 356.888 463.288 348.394C471.078 339.901 465.631 333.81 477.053 315.066C484.258 303.351 488.768 301.535 491.872 301.301C494.69 301.113 497.504 301.715 499.998 303.04C502.492 304.365 504.566 306.359 505.988 308.799C511.846 320.865 489.646 334.571 494.742 349.215C496.358 353.079 499.112 356.359 502.639 358.619C506.165 360.88 510.296 362.012 514.482 361.866C519.343 361.515 526.841 358.762 528.188 352.729C528.693 349.77 528.043 346.73 526.372 344.236ZM450.929 337.324C449.758 345.876 435.231 353.022 426.562 348.746C421.056 345.993 417.893 338.788 419.475 337.031C421.056 335.274 423.516 338.32 428.73 338.203C438.746 338.203 443.724 327.776 448.176 329.709C450.929 330.647 451.339 334.63 450.929 337.324ZM464.811 323.735C462.995 330.295 459.305 337.265 456.845 336.914C454.385 336.563 456.084 325.785 450.988 322.271C442.67 316.413 425.391 336.328 419.358 332.111C413.325 327.894 418.479 303.117 435.231 292.222C437.047 291.051 448.762 283.436 457.841 288.063C468.911 293.745 467.681 313.543 464.87 323.735H464.811Z" fill="#ECECEC"/>
<path d="M748.839 354.954C748.839 352.67 764.42 354.954 774.436 344.645C776.078 342.888 777.477 340.918 778.595 338.788C774.243 342.896 768.924 345.838 763.131 347.34C758.987 348.301 754.713 348.578 750.479 348.16C734.547 347.281 732.907 343.767 724.355 343.942C709.595 344.235 705.084 354.427 697.06 350.913C691.847 348.628 689.797 342.712 687.629 336.152C686.399 332.286 677.848 306.279 692.784 293.334C695.59 291.008 698.836 289.27 702.327 288.223C705.819 287.177 709.486 286.843 713.109 287.243C721.837 288.297 723.945 293.862 733.903 295.443C739.859 296.244 745.921 295.456 751.475 293.159C769.047 286.306 773.967 266.8 774.904 264.34C772.776 269.907 769.435 274.929 765.123 279.042C762.179 282.31 758.557 284.894 754.51 286.614C750.462 288.334 746.088 289.148 741.693 289C732.204 287.77 721.544 279.862 722.364 271.838C722.635 270.041 723.3 268.326 724.313 266.817C725.326 265.308 726.661 264.042 728.221 263.11C724.685 263.813 721.511 265.742 719.259 268.558C715.979 272.951 717.502 277.285 714.983 278.457C711.469 280.097 707.252 271.545 699.988 271.721C694.131 271.721 692.14 277.578 688.977 276.699C684.174 275.235 682.123 259.83 687.981 247.881C689.307 244.751 691.244 241.917 693.678 239.543C696.111 237.17 698.993 235.305 702.156 234.058C708.716 231.949 710.532 235.581 718.732 235.171C732.731 234.526 736.304 223.456 749.308 223.456C755.26 223.358 761.088 225.164 765.943 228.61C763.441 224.829 759.72 222.018 755.399 220.644C752.388 219.998 749.273 219.998 746.262 220.644C738.94 221.933 731.091 228.669 722.832 229.02C718.592 228.875 714.436 227.797 710.66 225.863C706.884 223.93 703.581 221.188 700.984 217.833C700.984 217.833 700.984 217.833 701.687 217.833C705.143 217.364 706.432 211.272 707.954 211.448C709.477 211.624 708.599 213.85 710.649 216.017C711.483 217.103 712.696 217.835 714.046 218.067C715.244 217.75 716.361 217.182 717.322 216.4C718.283 215.618 719.067 214.641 719.621 213.533C720.175 212.424 720.487 211.211 720.536 209.973C720.584 208.735 720.369 207.501 719.904 206.352C719.287 205.491 718.506 204.761 717.606 204.203C716.706 203.645 715.704 203.271 714.659 203.103C713.613 202.934 712.545 202.974 711.515 203.22C710.485 203.466 709.514 203.913 708.657 204.536C708.013 205.356 708.306 205.942 707.662 206.469C705.377 208.285 699.696 202.018 697.235 203.482C694.775 204.946 695.713 213.264 700.106 219.649C704.499 226.033 708.892 226.677 708.482 227.849C708.072 229.02 692.315 228.317 678.609 219.531C674.23 216.675 670.284 213.203 666.894 209.222C672.835 218.276 676.604 228.579 677.906 239.329C678.726 246.71 680.718 264.282 670.467 276.934C665.727 281.871 660.326 286.129 654.418 289.586C654.711 290.113 664.083 282.381 673.279 285.076C675.595 285.603 677.661 286.904 679.136 288.766C683.822 295.619 675.212 309.149 669.881 317.584C666.288 322.24 662.982 327.11 659.983 332.169C656.704 339.517 655.372 347.586 656.117 355.598C656.217 353.344 656.551 351.106 657.112 348.921C658.694 342.536 663.497 331.349 669.589 331.349C673.337 331.349 676.617 335.859 677.789 339.549C680.015 346.812 675.387 356.126 666.074 362.334C667.471 362.554 668.894 362.554 670.291 362.334C673.881 361.754 677.3 360.395 680.308 358.351C687.337 354.72 692.784 362.393 703.21 361.983C717.443 361.397 720.138 348.335 732.028 349.507C742.806 350.62 743.743 362.51 755.458 363.33C762.993 363.071 770.202 360.192 775.842 355.188C775.842 355.188 774.436 355.95 772.737 356.653C761.96 361.28 748.722 357.121 748.839 354.954ZM713.226 206.528C714.108 206.354 715.023 206.508 715.8 206.961C716.576 207.414 717.161 208.135 717.443 208.988C717.52 209.5 717.444 210.022 717.225 210.491C717.006 210.96 716.654 211.354 716.213 211.624C715.452 211.975 715.1 211.624 714.222 211.624C713.343 211.624 712.64 214.26 711.703 214.318C710.766 214.377 710.239 213.147 710.005 212.151C709.756 210.982 709.948 209.762 710.542 208.724C711.136 207.687 712.092 206.905 713.226 206.528ZM701.043 206.528C701.931 206.364 702.85 206.521 703.633 206.972C704.416 207.423 705.014 208.137 705.319 208.988C705.374 209.504 705.283 210.026 705.055 210.492C704.827 210.958 704.472 211.351 704.03 211.624C703.269 211.975 702.917 211.624 702.039 211.624C701.16 211.624 700.457 214.26 699.52 214.318C698.583 214.377 698.114 213.147 697.88 212.151C697.601 210.988 697.772 209.762 698.358 208.719C698.945 207.676 699.904 206.894 701.043 206.528Z" fill="#ECECEC"/>
<path d="M1124.94 225.034C1124.37 228.991 1122.97 232.784 1120.84 236.163C1115.59 243.277 1107.85 248.15 1099.17 249.811C1091.79 251.432 1084.22 252.063 1076.68 251.685C1053.77 252.447 1039.25 252.974 1033.1 261.877C1031.63 263.986 1031.81 264.806 1030.17 282.905C1028.65 299.013 1025.37 307.506 1028.47 309.205C1031.57 310.904 1036.67 302.059 1050.02 293.097C1058.81 287.24 1072.34 277.751 1081.13 281.382C1092.84 286.303 1096.42 314.125 1085.75 334.099C1080.86 342.296 1073.81 348.994 1065.37 353.465C1056.93 357.936 1047.43 360.01 1037.9 359.461C1029.64 359.461 1017.11 357.938 1011.6 349.27C999.885 330.76 1032.75 296.553 1021.15 277.282C1020.33 275.935 1017.75 271.425 1014.29 271.425C1009.55 271.425 1005.63 279.742 1004.63 285.834C1003.94 290.329 1004.57 294.929 1006.45 299.072C1008.06 302.648 1010.51 305.783 1013.59 308.209C1007.83 306.18 1002.97 302.175 999.885 296.904C996.669 289.915 996.332 281.941 998.948 274.705C1002.58 262.99 1010.66 259.827 1008.38 254.146C1007.49 252.291 1006.13 250.703 1004.43 249.541C1002.74 248.38 1000.76 247.685 998.714 247.527C995.79 247.657 992.921 248.375 990.279 249.635C992.731 246.968 995.976 245.161 999.534 244.481C1006.56 242.899 1009.55 246.648 1016.64 247.41C1021.78 247.636 1026.9 246.576 1031.54 244.326C1036.17 242.076 1040.17 238.707 1043.17 234.523C1046.83 229.378 1048.87 223.261 1049.03 216.951C1049.88 219.118 1050.33 221.419 1050.38 223.746C1050.38 234.758 1040.24 241.318 1041.82 243.544C1043.41 245.77 1049.38 242.548 1063.97 237.393C1078.55 232.239 1079.9 233 1086.05 229.31C1091.65 226.17 1096.73 222.178 1101.1 217.478C1098.63 222.864 1095.06 227.672 1090.62 231.595C1080.83 240.088 1070.7 240.146 1070.94 242.138C1071.17 244.129 1088.98 248.757 1105.26 241.669C1113.2 238.008 1120.01 232.259 1124.94 225.034ZM1072.99 342.534C1074.33 343.412 1080.95 338.433 1081.77 331.58C1082.3 327.011 1080.19 321.271 1077.14 320.744C1074.1 320.217 1071.81 328.359 1065.43 329.882C1062 330.398 1058.5 329.535 1055.71 327.48C1059.04 327.527 1062.32 326.72 1065.25 325.137C1069.98 322.02 1073.48 317.363 1075.15 311.958C1078.2 305.163 1083.12 294.034 1079.37 290.637C1071.64 283.491 1032.51 307.389 1035.44 320.627C1036.38 325.43 1043.05 328.886 1041.88 331.229C1040.71 333.572 1032.57 329.764 1029.35 333.279C1026.13 336.793 1027.71 344.994 1032.34 349.094C1042.7 358.641 1068.01 345.872 1070.47 339.253V338.902C1071.82 335.244 1074.18 332.038 1077.26 329.647C1072.46 339.956 1072.34 342.124 1072.99 342.534Z" fill="#ECECEC"/>
<path d="M1218.83 234.523C1214.36 231.38 1209.01 229.739 1203.54 229.837C1191.83 230.247 1188.31 240.205 1175.43 240.791C1167.87 241.142 1166.23 237.862 1160.14 239.736C1154.27 242.095 1149.57 246.687 1147.08 252.506C1141.75 263.459 1143.62 277.634 1148.07 279.039C1150.94 279.918 1152.64 274.588 1158.15 274.471C1164.88 274.471 1168.69 282.085 1171.97 280.621C1174.26 279.567 1172.85 275.525 1175.9 271.483C1177.98 268.902 1180.9 267.139 1184.15 266.505C1182.72 267.37 1181.48 268.534 1180.53 269.918C1179.58 271.303 1178.94 272.875 1178.65 274.529C1177.89 281.91 1187.73 289.173 1196.22 290.286C1200.35 290.509 1204.48 289.793 1208.3 288.19C1212.11 286.587 1215.51 284.139 1218.24 281.031C1222.21 277.255 1225.28 272.629 1227.21 267.5C1226.68 269.785 1221.93 287.708 1205.94 294.034C1200.8 296.183 1195.17 296.892 1189.66 296.084C1180.46 294.62 1178.53 289.524 1170.51 288.587C1167.16 288.263 1163.78 288.615 1160.57 289.621C1157.36 290.627 1154.39 292.267 1151.82 294.444C1138.12 306.159 1145.96 330.292 1147.14 333.865C1149.07 339.722 1150.94 345.287 1155.75 347.395C1163.13 350.617 1167.46 341.245 1180.87 341.011C1188.9 341.011 1190.25 344.115 1204.89 344.876C1208.81 345.232 1212.76 344.995 1216.6 344.174C1221.91 342.753 1226.78 340.036 1230.78 336.266C1229.8 338.248 1228.51 340.066 1226.97 341.655C1217.78 351.378 1203.54 349.035 1203.54 351.144C1203.54 353.253 1215.61 357.001 1225.39 353.135C1226.97 352.491 1228.2 351.788 1228.26 351.788C1223.04 356.37 1216.4 358.999 1209.46 359.227C1198.74 358.524 1197.74 347.512 1187.73 346.575C1176.83 345.462 1174.37 357.47 1161.25 357.997C1151.65 358.407 1146.67 351.378 1140.22 354.658C1137.46 356.53 1134.32 357.788 1131.03 358.348C1129.73 358.533 1128.41 358.533 1127.1 358.348C1135.89 352.491 1140.17 344.056 1138.12 337.32C1137.06 333.923 1134.02 329.94 1130.56 329.823C1124.99 329.823 1120.54 339.898 1118.84 345.755C1118.34 347.769 1118.04 349.83 1117.97 351.905C1117.24 344.499 1118.46 337.032 1121.48 330.233C1124.16 325.486 1127.14 320.909 1130.38 316.527C1135.36 308.736 1143.27 296.319 1138.94 289.993C1137.57 288.272 1135.64 287.09 1133.49 286.654C1125.05 284.135 1116.44 291.223 1115.92 290.754C1121.37 287.568 1126.34 283.624 1130.68 279.039C1140.11 267.325 1138.29 251.275 1137.47 244.481C1136.33 234.667 1132.94 225.247 1127.57 216.951C1130.77 220.583 1134.46 223.756 1138.53 226.382C1151.12 234.465 1165.41 235.753 1166 234.055C1166.58 232.356 1162.25 231.829 1158.32 226.499C1156.72 224.309 1155.47 221.877 1154.63 219.294C1166.35 233.293 1173.96 235.519 1179.18 234.64C1184.39 233.762 1188.78 228.783 1200.73 226.967C1203.49 226.317 1206.35 226.317 1209.11 226.967C1213.14 228.259 1216.58 230.935 1218.83 234.523Z" fill="#ECECEC"/>
<path d="M899.834 535.655C917.406 531.262 930.995 519.43 934.51 504.494C935.636 499.501 935.739 494.332 934.812 489.299C933.886 484.265 931.95 479.471 929.121 475.207C926.66 471.433 922.844 468.749 918.461 467.709C914.363 467.093 910.184 468.033 906.746 470.345C909.835 466.439 914.111 463.643 918.929 462.379C926.837 460.563 931.874 465.015 936.208 462.028C938.551 460.446 938.844 457.986 940.133 447.97C940.883 438.998 942.273 430.092 944.292 421.319C945.402 415.251 948.112 409.589 952.14 404.918C955.935 401.207 960.634 398.552 965.771 397.216C970.909 395.881 976.305 395.911 981.427 397.303C985.586 398.533 989.042 400.701 988.866 401.228C983.945 400.01 978.88 399.478 973.813 399.646C966.257 400.642 957.881 405.504 957.998 410.073C958.141 411.599 958.877 413.007 960.048 413.997C966.198 419.854 980.197 413.06 987.402 410.483C989.248 409.731 991.047 408.87 992.791 407.905C1002.75 402.692 1012.59 399.178 1021.61 402.048C1024.15 402.964 1026.5 404.356 1028.52 406.148C1022.68 404.373 1016.47 404.211 1010.54 405.679C1004.94 407.135 999.81 410.021 995.661 414.056C992.735 416.075 990.651 419.096 989.803 422.549C989.507 424.124 989.552 425.745 989.936 427.301C990.32 428.857 991.034 430.313 992.029 431.569C995.589 436.382 999.611 440.835 1004.04 444.865C1011.75 452.003 1017.16 461.284 1019.56 471.517C1021.84 490.963 996.129 500.042 997.301 522.651C997.658 528.201 999.389 533.576 1002.34 538.291C998.22 535.943 994.881 532.441 992.732 528.216C990.341 522.396 989.689 516.007 990.858 509.824C991.443 503.205 991.619 496.528 991.854 489.85C991.854 487.273 991.444 486.863 989.159 487.8C986.025 489.155 982.601 489.699 979.202 489.382C973.637 488.854 971.704 483.817 964.031 480.185C956.358 476.554 943.94 476.671 940.601 481.767C938.844 484.403 940.601 486.57 941.129 493.482C941.89 500.671 940.78 507.935 937.907 514.568C933.415 522.25 926.302 528.052 917.875 530.91C912.168 533.488 906.07 535.092 899.834 535.655ZM942.827 471.224C945.697 472.219 949.505 467.475 951.672 465.366C963.387 454.062 981.955 463.668 988.105 455.994C994.255 448.321 984.415 420.85 971.118 419.093C953.839 416.574 937.731 456.639 940.191 467.123C940.426 468.295 941.011 470.814 942.944 471.458L942.827 471.224ZM997.477 499.632C998.707 500.042 1001.05 496.879 1005.74 490.67C1012.18 482.06 1012.82 479.541 1013.06 477.842C1013.58 474.387 1013.06 468.705 1010.36 467.533C1007.67 466.362 1003.33 470.345 1002.57 471.048C999.949 473.868 998.199 477.387 997.535 481.181C995.661 488.151 994.782 499.046 997.477 499.866V499.632ZM983.067 463.199C976.742 463.199 971.704 469.642 972.641 473.391C974.047 478.897 989.511 481.181 992.205 476.788C992.535 475.307 992.558 473.774 992.271 472.284C991.984 470.794 991.394 469.379 990.537 468.126C989.68 466.874 988.575 465.811 987.29 465.004C986.005 464.196 984.568 463.662 983.067 463.433V463.199Z" fill="#ECECEC"/>
<path d="M831.135 882.819C848.707 878.485 862.296 866.653 865.81 851.658C866.943 846.666 867.05 841.496 866.123 836.461C865.197 831.427 863.257 826.633 860.422 822.371C857.961 818.598 854.144 815.914 849.761 814.874C845.664 814.257 841.485 815.198 838.046 817.509C841.13 813.584 845.406 810.768 850.23 809.485C858.137 807.728 863.175 812.121 867.802 809.192C870.145 807.61 870.438 805.15 871.726 795.076C872.476 786.104 873.866 777.198 875.885 768.424C877.018 762.364 879.724 756.708 883.734 752.024C887.536 748.323 892.235 745.674 897.369 744.339C902.504 743.004 907.898 743.028 913.021 744.409C915.837 744.981 918.423 746.366 920.46 748.392C915.551 747.107 910.475 746.574 905.406 746.811C897.85 747.806 889.474 752.668 889.591 757.237C889.75 758.742 890.484 760.127 891.642 761.103C897.499 766.96 911.791 760.224 918.996 757.588C920.84 756.857 922.64 756.016 924.384 755.07C934.342 749.798 944.182 746.284 953.203 749.212C955.746 750.1 958.093 751.473 960.114 753.254C954.267 751.51 948.062 751.349 942.132 752.785C936.537 754.224 931.411 757.09 927.255 761.103C924.344 763.137 922.264 766.152 921.397 769.596C921.096 771.171 921.14 772.793 921.524 774.35C921.908 775.906 922.624 777.362 923.623 778.616C927.076 783.427 931 787.881 935.338 791.913C943.063 799.066 948.469 808.369 950.86 818.622C953.144 838.069 927.43 847.089 928.602 869.757C928.966 875.287 930.697 880.641 933.639 885.338C929.536 882.998 926.199 879.519 924.033 875.322C921.645 869.501 920.994 863.113 922.159 856.93C922.744 850.252 922.92 843.633 923.154 836.956C923.154 834.32 922.744 833.91 920.46 834.906C917.318 836.233 913.901 836.775 910.502 836.487C904.645 835.902 903.005 830.63 895.332 827.233C887.658 823.835 875.241 823.777 871.902 828.814C870.145 831.508 871.902 833.617 872.429 840.529C873.224 847.7 872.113 854.953 869.208 861.557C864.718 869.253 857.607 875.075 849.175 877.958C843.475 880.573 837.377 882.216 831.135 882.819ZM874.128 818.388C876.998 819.384 880.805 814.639 882.973 812.531C894.687 801.167 913.255 810.773 919.406 803.1C925.556 795.427 915.715 767.956 902.419 766.257C884.847 763.739 869.032 803.745 871.492 814.288C871.726 815.459 872.312 818.037 874.128 818.681V818.388ZM928.777 846.796C930.007 847.148 932.35 844.043 937.036 837.776C943.479 829.166 944.124 826.647 944.358 824.948C944.885 821.551 944.358 815.869 941.664 814.639C938.969 813.409 934.635 817.451 933.873 818.212C931.224 821.014 929.47 824.542 928.836 828.346C927.196 835.374 926.083 846.211 928.777 847.089V846.796ZM914.368 810.363C908.042 810.363 903.005 816.806 903.942 820.497C905.348 826.003 920.811 828.346 923.506 823.894C923.836 822.42 923.858 820.893 923.57 819.41C923.282 817.927 922.69 816.52 921.832 815.277C920.974 814.034 919.868 812.981 918.583 812.186C917.299 811.391 915.864 810.87 914.368 810.656V810.363Z" fill="#ECECEC"/>
<path d="M1157.57 476.963C1160.15 473.26 1161.6 468.891 1161.76 464.382C1161.91 459.872 1160.76 455.414 1158.45 451.542C1156.69 449.082 1152.18 444.161 1149.07 445.333C1142.81 447.676 1141.69 473.565 1153.99 484.343C1159.5 489.146 1163.54 487.389 1168.64 492.192C1176.02 499.279 1176.08 511.287 1174.85 520.542C1172.5 508.827 1167.76 498.928 1162.14 498.459C1153.7 497.757 1140.58 517.496 1147.79 528.859C1152.94 536.884 1165.36 536.415 1166.41 536.357C1158.75 538.859 1150.44 538.547 1142.98 535.478C1127.58 527.805 1151.24 459.683 1133.14 432.74C1128.05 424.821 1120.62 418.681 1111.88 415.167C1106.61 413.176 1099.4 410.423 1094.01 412.707C1072.64 421.903 1088.16 507.363 1069.41 537.88C1065.25 544.473 1060.12 550.398 1054.18 555.452C1049.05 559.803 1043.1 563.07 1036.67 565.058C1029.99 566.971 1022.96 567.331 1016.11 566.112C1022.15 564.966 1028.04 563.158 1033.68 560.723C1041.79 557.843 1048.92 552.726 1054.24 545.963C1056.94 542.038 1059.4 536.708 1058.05 535.595C1056.7 534.482 1050.38 541.453 1041.3 542.507C1035.36 542.73 1029.55 540.772 1024.96 537.001C1031.52 538.954 1038.53 538.79 1044.99 536.532C1067.36 528.098 1075.27 491.489 1064.32 474.62C1063.44 473.214 1059.98 467.942 1056 468.235C1052.02 468.528 1047.1 476.728 1045.22 489.088C1044.64 482.277 1045.71 475.427 1048.33 469.114C1053.89 455.993 1063.79 452.889 1073.4 434.614C1076.33 429.049 1078.26 423.953 1076.09 420.966C1075.27 420.118 1074.27 419.463 1073.17 419.047C1072.06 418.632 1070.88 418.467 1069.71 418.565C1063.85 418.565 1057.99 424.773 1055.3 433.442C1055.65 429.842 1056.52 426.31 1057.87 422.958C1063.06 412.063 1071.72 403.203 1082.5 397.773C1093.27 392.344 1105.54 390.653 1117.39 392.968C1138.3 397.712 1148.66 415.519 1154.4 425.359C1158.56 432.564 1169.22 450.78 1162.43 468.177C1161.24 471.323 1159.6 474.282 1157.57 476.963ZM1132.03 416.573C1133.67 414.933 1125.18 394.959 1110.53 394.432C1098.52 393.964 1088.74 406.967 1090.03 409.193C1091.32 411.419 1099.29 404.565 1111.24 406.206C1124.18 407.963 1130.74 417.745 1132.03 416.573Z" fill="#ECECEC"/>
<path d="M483.852 623.515C497.149 607.935 515.072 617.014 530.711 600.086C537.857 591.862 542.295 581.635 543.422 570.799C540.924 579.164 536.011 586.606 529.301 592.191C522.59 597.776 514.381 601.256 505.7 602.194C498.596 602.442 491.533 601.024 485.075 598.054C478.616 595.085 472.942 590.645 468.506 585.091C464.169 590.576 458.612 594.973 452.277 597.932C445.942 600.891 439.004 602.33 432.015 602.136C423.301 601.277 415.045 597.827 408.311 592.231C401.577 586.635 396.674 579.149 394.234 570.74C395.385 581.581 399.843 591.806 407.003 600.027C422.76 616.896 440.683 607.817 453.863 623.457C456.674 626.678 459.31 643.196 464.523 676.173C466.983 692.105 468.213 701.008 463.644 704.171C459.076 707.334 452.515 703.761 448.181 701.243C454.975 710.556 462.297 715.301 466.339 712.958C467.528 712.275 468.44 711.197 468.916 709.912C469.348 711.222 470.272 712.314 471.493 712.958C475.476 715.008 482.857 710.263 489.651 701.243C485.258 703.761 478.288 707.1 474.129 704.171C469.97 701.243 470.79 692.105 473.309 676.173C478.464 643.255 481.099 626.971 483.852 623.515Z" fill="#ECECEC"/>
<path d="M1088.28 621.111C1101.57 605.589 1119.5 614.668 1135.14 597.681C1142.34 589.483 1146.82 579.249 1147.96 568.395C1145.44 576.757 1140.51 584.193 1133.8 589.775C1127.08 595.358 1118.87 598.841 1110.18 599.79C1103.03 600.091 1095.9 598.705 1089.38 595.744C1082.86 592.783 1077.12 588.33 1072.64 582.745C1068.31 588.237 1062.75 592.639 1056.41 595.599C1050.08 598.558 1043.14 599.994 1036.15 599.79C1027.45 598.909 1019.22 595.449 1012.51 589.854C1005.8 584.26 1000.91 576.787 998.482 568.395C999.59 579.236 1004.03 589.468 1011.19 597.681C1027.01 614.609 1044.93 605.53 1058.05 621.111C1060.81 624.333 1063.44 640.85 1068.65 673.827C1071.17 689.701 1072.4 698.663 1067.83 701.826C1063.27 704.989 1056.7 701.416 1052.31 698.839C1059.11 708.21 1066.49 712.896 1070.47 710.905C1071.69 710.233 1072.61 709.124 1073.05 707.8C1073.51 709.108 1074.42 710.208 1075.62 710.905C1079.67 712.896 1086.99 708.21 1093.78 698.839C1089.45 701.416 1082.48 704.696 1078.32 701.826C1074.16 698.956 1074.98 689.701 1077.44 673.827C1082.83 640.968 1085.46 624.45 1088.28 621.111Z" fill="#ECECEC"/>
<path d="M265.836 566.93C260.895 570.476 256.878 575.157 254.121 580.577C251.44 585.493 250.106 591.03 250.255 596.627C250.665 604.827 256.112 617.42 265.66 618.065C274.036 618.592 280.128 609.63 280.713 608.751C279.872 611.952 278.376 614.944 276.32 617.537C272.302 621.927 267.058 625.009 261.267 626.382C242.523 633.352 235.846 688.06 246.272 692.571C251.485 694.796 262.79 685.483 265.484 674.354C266.759 668.408 265.953 662.205 263.2 656.782C265.514 659.104 267.328 661.875 268.53 664.924C270.909 671.026 270.909 677.799 268.53 683.902C264.957 691.926 258.221 693.274 258.573 699.131C258.653 700.302 259.001 701.439 259.59 702.455C260.179 703.47 260.993 704.337 261.97 704.988C266.597 707.507 275.676 702.118 284.345 691.106C275.559 705.925 263.376 716.469 253.535 714.536C240.415 711.9 229.227 686.479 233.327 667.677C234.616 661.819 237.837 654.79 234.264 649.226C233.142 647.458 231.515 646.066 229.594 645.231C227.673 644.396 225.546 644.155 223.487 644.54C220.911 645.667 218.847 647.714 217.699 650.281C216.551 652.848 216.401 655.75 217.278 658.422C218.07 660.773 219.547 662.833 221.521 664.336C223.494 665.839 225.872 666.717 228.348 666.857C224.762 667.363 221.108 666.706 217.922 664.982C209.839 660.062 211.713 649.05 203.63 645.712C202.312 645.086 200.872 644.762 199.413 644.762C197.954 644.762 196.514 645.086 195.196 645.712C193.79 646.707 193.731 647.644 192.501 649.226C190.396 651.613 187.468 653.119 184.301 653.443C192.911 643.369 191.505 631.361 186.468 627.905C181.431 624.449 173.875 626.968 167.432 633.118C169.657 630.951 192.501 608.107 186.058 582.276C184.787 577.129 182.496 572.289 179.322 568.043C183.573 571.01 187.212 574.769 190.041 579.113C203.747 600.727 189.69 623.102 200.76 633.821C209.078 641.963 229.051 640.616 237.662 631.185C249.376 618.475 234.792 596.802 247.971 579.054C252.554 573.29 258.786 569.06 265.836 566.93Z" fill="#ECECEC"/>
<path d="M1213.97 634.412L1212.85 632.654C1213.97 637.471 1214.3 642.434 1213.85 647.356C1213.44 651.398 1212.21 659.071 1210.86 659.071C1208.64 659.071 1212.09 638.98 1201.67 625.391C1195.67 618.347 1187.37 613.657 1178.24 612.153C1181.11 613.559 1184.45 615.609 1184.39 618.011C1184.33 620.412 1178.53 622.755 1173.38 626.094C1160.9 634.529 1160.02 651.632 1158.97 651.457C1157.91 651.281 1160.26 632.303 1170.68 569.453C1165.26 577.187 1157.79 583.269 1149.13 587.025C1152.66 601.622 1153.87 616.685 1152.7 631.659C1152.23 638.126 1151.27 644.549 1149.83 650.871C1146.26 666.594 1139.19 681.31 1129.15 693.923C1130.61 692.111 1132.6 690.814 1134.85 690.224C1137.1 689.633 1139.47 689.78 1141.63 690.642C1143.21 691.946 1144.22 693.817 1144.44 695.856C1145.73 703.997 1136.47 710.909 1135.65 711.553C1142.52 711.711 1149.38 711.457 1156.21 710.792C1179.64 708.566 1191.77 707.336 1202.02 698.726C1220.35 683.731 1224.1 652.687 1213.97 634.412ZM1189.72 687.597C1188.49 696.324 1173.73 703.646 1164.82 699.311C1159.26 696.5 1155.98 689.12 1157.62 687.245C1159.26 685.371 1161.72 688.534 1167.05 688.417C1177.3 688.417 1182.4 677.756 1186.91 679.806C1189.31 680.802 1190.07 684.844 1189.72 687.597ZM1203.89 673.832C1202.02 680.509 1198.04 687.597 1195.75 687.187C1193.47 686.777 1194.99 675.94 1189.89 672.309C1181.34 666.451 1163.77 686.659 1157.62 682.325C1151.47 677.99 1156.68 653.038 1173.79 641.675C1175.66 640.445 1187.61 632.654 1196.86 637.399C1207.99 643.139 1206.53 663.347 1203.89 673.832Z" fill="#ECECEC"/>
<path d="M179.377 875.15C176.754 869.815 174.9 864.135 173.871 858.28C172.62 850.117 172.739 841.803 174.223 833.679C181.134 799.999 217.333 784.36 211.417 771.415C210.747 770.155 209.823 769.046 208.704 768.159C207.586 767.272 206.296 766.626 204.915 766.261C194.548 763.039 176.097 788.343 174.398 790.627C176.887 781.89 181.195 773.777 187.039 766.822C192.884 759.866 200.134 754.226 208.313 750.27C210.714 749.216 233.499 739.551 252.77 748.806C259.89 753.113 267.243 757.024 274.794 760.52C280.589 762.896 286.712 764.377 292.952 764.914C288.175 767.057 284.431 770.99 282.526 775.867C279.831 783.599 282.526 794.2 289.73 797.305C292.879 798.513 296.364 798.513 299.512 797.305C299.166 797.774 298.751 798.188 298.282 798.535C291.839 803.807 276.551 800.234 272.978 792.678C269.874 786 277.723 780.963 275.263 773.465C272.803 765.968 260.209 761.399 251.833 761.399C226.471 761.399 193.962 798.476 201.167 832.625C205.091 851.017 221.258 872.924 242.578 873.099C248.695 873.019 254.699 871.446 260.069 868.516C265.438 865.586 270.011 861.389 273.388 856.289C276.247 851.675 278.141 846.53 278.956 841.164C279.771 835.799 279.491 830.323 278.133 825.069C277.465 822.356 276.502 819.724 275.263 817.22C280.635 822.863 284.351 829.876 286.003 837.49C287.656 845.104 287.183 853.026 284.634 860.389C276.786 880.714 254.352 884.814 248.143 885.927C230.219 889.207 207.493 883.877 197.711 868.999C189.159 855.937 192.966 839.127 188.339 838.482C185 838.072 181.427 846.565 180.549 848.498C177.148 856.992 176.735 866.39 179.377 875.15Z" fill="#ECECEC"/>
<path d="M342.63 860.446C339.584 858.455 327.342 883.524 309.477 883.876C305.627 883.647 301.859 882.66 298.392 880.971C294.924 879.283 291.824 876.925 289.269 874.035C292.482 876.174 296.096 877.64 299.891 878.345C303.686 879.05 307.585 878.978 311.351 878.135C318.531 875.857 324.594 870.966 328.338 864.429C334.195 855.819 331.911 852.714 336.245 842.698C342.864 827.352 356.981 820.792 355.399 818.273C354.52 816.926 350.83 819.737 343.977 818.273C340.014 817.488 336.322 815.693 333.258 813.06C331.794 811.596 331.267 810.307 329.217 809.135C329.217 809.135 325.351 806.968 323.359 807.964C321.368 808.96 319.083 815.696 321.661 823.72C315.68 815.786 312.693 805.995 313.226 796.073C314.122 785.293 319.06 775.251 327.049 767.958C334.815 760.473 344.986 755.989 355.75 755.306C372.21 754.779 376.31 764.912 388.61 761.163C393.841 759.375 398.59 756.409 402.492 752.495C404.744 750.244 406.711 747.726 408.35 744.997C407.297 750.763 405.02 756.235 401.672 761.046C397.162 767.431 393.765 767.899 391.715 772.761C388.318 781.313 392.359 793.672 397.572 794.785C401.848 795.663 406.3 789.689 410.048 784.769C415.276 777.711 418.895 769.594 420.65 760.988C421.552 770.678 419.511 780.415 414.793 788.927C408.526 799.764 401.028 802.107 396.401 814.7C395.932 815.989 392.008 827.176 396.928 831.804C400.384 835.025 406.593 833.385 409.287 832.682C414.305 830.915 418.904 828.13 422.795 824.501C426.686 820.873 429.785 816.479 431.897 811.596C429.946 819.211 426.457 826.347 421.646 832.565C411.044 846.271 400.091 846.681 397.045 857.459C395.955 861.636 396.13 866.043 397.548 870.121C398.966 874.198 401.564 877.762 405.011 880.361C408.178 882.492 411.872 883.707 415.686 883.872C419.5 884.037 423.285 883.147 426.625 881.298C422.635 883.961 418.121 885.738 413.387 886.512C408.617 887.378 403.712 887.137 399.051 885.807C394.389 884.476 390.095 882.092 386.502 878.838C372.21 863.082 393.882 828.113 382.753 820.674C379.121 818.214 374.026 820.089 368.812 822.022C363.713 823.905 359.197 827.091 355.713 831.264C352.229 835.436 349.899 840.449 348.956 845.803C347.726 854.472 352.295 855.995 352.236 864.195C352.236 879.6 335.777 896.528 318.439 900.335C303.795 903.498 298.348 895.122 281.01 897.933C270.922 899.725 261.485 904.15 253.656 910.761C260.403 900.524 270.936 893.382 282.943 890.905C291.026 889.85 292.842 892.779 303.795 891.959C309.653 891.49 325.995 890.26 336.07 877.725C341.927 870.814 344.329 861.618 342.63 860.446ZM379.824 785.589C379.824 782.953 380.703 770.594 372.854 764.736C359.675 754.837 333.727 772.41 334.605 779.614C334.605 781.371 336.597 782.601 336.48 785.062C336.363 787.522 333.317 789.982 330.622 791.388C331.62 790.149 332.229 788.643 332.375 787.06C332.521 785.476 332.197 783.884 331.442 782.484C330.505 780.961 328.455 778.794 326.932 779.321C324.472 780.2 324.003 788.107 325.526 793.672C328.631 804.918 343.099 818.39 359.206 814.173C373.088 810.541 379.18 795.956 379.824 785.589Z" fill="#ECECEC"/>
<path d="M1077.15 843.696C1079.72 843.696 1083 828.818 1085.17 814.409C1086.55 818.177 1087.38 822.122 1087.63 826.124C1087.84 829.834 1087.56 833.555 1086.81 837.195C1084.12 851.428 1080.66 869.293 1067.48 879.016C1060.04 884.522 1049.91 884.874 1030.11 885.342C1008.09 885.928 997.076 886.221 989.11 879.485C976.868 868.59 979.269 847.855 974.935 847.914C972.475 847.914 970.6 854.708 969.722 857.813C968.439 862.608 968.219 867.625 969.077 872.515C967.673 870.591 966.585 868.456 965.856 866.189C962.751 856.465 967.262 846.039 971.127 837.312C974.408 829.99 977.571 825.597 976.985 818.217C976.985 817.045 976.516 813.238 974.818 812.769C973.119 812.301 969.663 817.162 968.96 818.627C965.751 824.166 964.186 830.505 964.45 836.902L963.747 835.379C959.998 825.831 965.329 815.464 968.199 809.606C977.981 789.398 985.127 774.462 980.968 761.81C978.684 754.84 973.353 749.568 974.29 748.807C975.228 748.045 979.269 751.208 982.139 755.133C985.932 760.877 987.723 767.713 987.235 774.579C985.478 818.099 978.566 850.725 991.277 863.026C995.188 866.477 1000.08 868.616 1005.27 869.141C1010.46 869.667 1015.69 868.552 1020.21 865.954C1039.83 850.784 1001.94 791.39 1028 759.701C1032.48 754.403 1038.16 750.264 1044.58 747.635C1042.99 748.925 1041.48 750.314 1040.07 751.794C1030.86 762.066 1025.48 775.206 1024.84 788.988C1024.14 796.603 1023.61 813.414 1028.53 814.761C1031.05 815.464 1034.39 812.008 1035.68 809.899C1036.96 807.79 1038.25 803.69 1036.96 784.068C1036.8 782.491 1036.8 780.901 1036.96 779.324C1041.5 789.209 1043.16 800.168 1041.77 810.953C1037.55 839.42 1027.36 847.269 1032.86 857.11C1034.53 859.916 1036.9 862.243 1039.73 863.864C1042.56 865.486 1045.77 866.347 1049.03 866.364C1051.86 866.091 1054.61 865.238 1057.1 863.857C1059.59 862.477 1061.77 860.599 1063.5 858.34C1070.7 849.612 1067.54 838.659 1064.14 804.569C1061.68 780.144 1062.21 775.282 1064.14 769.893C1068.89 758.26 1077.63 748.705 1088.8 742.949C1082.7 748.185 1078.07 754.931 1075.39 762.513C1071.11 774.931 1071.93 790.921 1076.97 792.62C1082.01 794.318 1088.28 785.357 1091.44 778.094C1093.2 773.87 1094 769.309 1093.78 764.739C1095.75 769.5 1096.29 774.727 1095.36 779.792C1093.84 787.582 1089.51 788.813 1083.65 798.302C1077.35 808.482 1074.23 820.311 1074.69 832.274C1074.45 835.73 1075.39 843.696 1077.15 843.696Z" fill="#ECECEC"/>
<path d="M886.715 1472.84C878.69 1461.53 872.599 1513.84 848.349 1549.68C839.387 1563.04 834.643 1564.09 830.308 1557.36C820.995 1542.95 817.364 1501.07 816.192 1487.65C812.678 1446.65 815.489 1401.38 821.347 1312.46C826.852 1228.06 829.664 1217.22 832.417 1212.01C839.739 1197.95 849.345 1219.27 854.499 1242.76C861.763 1276.2 863.403 1329.45 858.892 1379.06C859.83 1372.56 861.06 1362.89 862.055 1350.42C864.012 1323.5 864.286 1296.48 862.875 1269.53C862.271 1243.28 859.667 1217.12 855.085 1191.27C852.203 1175.98 847.929 1160.98 842.316 1146.46C835.287 1125.79 831.538 1097.61 831.246 1059.95C830.988 1032.19 833.401 1004.48 838.45 977.183C843.253 951.001 848.466 926.458 853.445 901.037C854.265 896.937 854.734 891.607 855.378 886.804C849.981 915.902 841.821 944.42 831.011 971.97C819.882 998.035 810.393 1006.76 805.122 1011.45C799.234 1017.09 791.396 1020.24 783.244 1020.24C775.092 1020.24 767.255 1017.09 761.367 1011.45C756.154 1006.76 746.606 998.035 735.536 971.97C724.709 944.421 716.53 915.904 711.111 886.804C711.755 891.607 712.282 896.937 713.043 901.037C718.022 926.458 723.294 951.001 728.038 977.183C733.146 1004.47 735.559 1032.19 735.243 1059.95C735.243 1097.61 731.26 1125.79 724.231 1146.46C718.589 1160.97 714.314 1175.97 711.462 1191.27C706.753 1217.11 704.051 1243.27 703.379 1269.53C701.972 1296.48 702.227 1323.49 704.14 1350.42C705.136 1362.89 706.425 1372.56 707.362 1379.06C702.852 1329.45 704.433 1276.2 711.755 1242.76C716.851 1219.33 726.457 1197.95 733.837 1212.01C736.532 1217.22 739.343 1228.06 744.908 1312.46C750.765 1401.38 753.577 1446.65 750.004 1487.65C748.832 1501.07 745.259 1542.95 735.887 1557.36C731.553 1564.09 726.867 1563.21 717.847 1549.68C693.656 1513.72 687.505 1461.53 679.539 1472.84C671.573 1484.14 665.95 1549.51 670.46 1590.69C676.669 1647.56 698.459 1619.97 713.629 1691.02C719.845 1723.88 723.41 1757.17 724.29 1790.6C724.29 1762.66 723.587 1740.75 722.708 1725.41C720.542 1703.32 719.701 1681.12 720.189 1658.92C721.185 1639.77 723.177 1626.06 727.746 1620.62C736.807 1608.65 749.511 1599.96 763.944 1595.84C771.5 1594.67 778.06 1593.91 783.274 1593.44C788.428 1593.91 794.988 1594.67 802.603 1595.84C817.036 1599.96 829.74 1608.65 838.802 1620.62C843.312 1626.06 845.362 1639.77 846.358 1658.92C846.846 1681.12 846.005 1703.32 843.839 1725.41C842.902 1740.75 842.023 1762.66 842.199 1790.6C843.079 1757.17 846.643 1723.88 852.859 1691.02C868.089 1620.09 889.819 1647.56 896.087 1590.69C900.246 1549.51 894.447 1483.85 886.715 1472.84ZM710.993 1646.92C709.353 1641.59 706.659 1633.27 703.086 1624.66C694.241 1603.22 690.141 1604.1 687.388 1586.59C684.635 1569.07 684.459 1540.08 687.388 1531.82C690.317 1523.56 696.174 1530.82 712.341 1591.33C710.065 1609.77 709.653 1628.39 711.111 1646.92H710.993ZM808.87 1581.31C807.64 1585.82 805.707 1583.83 805.122 1583.25C798.418 1579.27 790.618 1577.55 782.864 1578.33C773.785 1578.33 764.413 1579.73 760.605 1583.25C759.961 1583.83 758.028 1585.82 756.798 1581.31C755.83 1575.51 755.457 1569.62 755.685 1563.74C757.852 1423.16 748.832 1284.11 745.786 1144.06C745.142 1113.66 744.205 1075.35 749.535 1054.62C753.167 1040.38 758.614 1035.82 768.279 1035.82H797.566C807.289 1035.82 812.736 1040.38 816.368 1054.62C821.639 1075.35 820.702 1113.66 820.058 1144.06C817.071 1284.11 807.992 1423.4 810.159 1563.74C810.398 1569.62 810.005 1575.52 808.987 1581.31H808.87ZM878.28 1586.59C875.586 1604.16 871.486 1603.22 862.583 1624.66C859.068 1633.27 856.315 1641.59 854.675 1646.92C856.221 1628.4 855.867 1609.77 853.621 1591.33C869.729 1530.82 876.054 1523.91 878.573 1531.82C881.092 1539.73 881.15 1569.01 878.515 1586.59H878.28Z" fill="#ECECEC"/>
<path d="M654.126 1378.01C649.44 1269.76 598.481 1237.43 599.945 1184.36C600.707 1157.53 614.003 1161.28 618.63 1111.32C621.793 1077 616.522 1064.46 618.63 1014.56C621.207 961.019 628.998 939.932 626.538 914.98C625.073 900.571 621.09 893.776 617.283 890.379C621.049 902.021 623.024 914.167 623.14 926.402C623.666 945.07 618.959 963.513 609.551 979.646C596.958 998.213 589.578 969.454 573.704 958.852C551.622 944.15 524.209 973.905 518.586 1038.16C517.033 1059.22 517.17 1080.38 518.996 1101.42C520.76 1076 524.818 1050.79 531.121 1026.09C545.647 975.662 563.981 991.653 564.039 995.05C564.098 998.448 552.676 994.758 542.308 1029.61C538.042 1044.98 534.909 1060.64 532.937 1076.47C535.017 1070.86 537.442 1065.38 540.2 1060.07C554.902 1032.07 580.557 1014.2 593.736 1076.23C598.318 1094.56 600.465 1113.4 600.121 1132.29C596.899 1188.58 556.893 1148.98 532.234 1259.28C528.075 1278.02 525.381 1296.41 523.799 1308.6C527.505 1294.61 532.223 1280.9 537.915 1267.59C542.894 1256.29 557.362 1223.43 573.763 1229.05C592.33 1235.44 615.877 1292.08 617.4 1360.43C620.036 1480.22 554.433 1603.69 547.873 1570.07C546.057 1560.64 548.283 1535.69 550.919 1521.16C556.308 1491.58 565.972 1491.87 568.491 1491.87C567.063 1487.64 565.094 1483.6 562.634 1479.87C545.589 1454.74 533.347 1533.87 517.649 1515.01C511.44 1507.51 505.173 1481.15 504.88 1451.99C504.767 1434.94 506.734 1417.95 510.737 1401.38C509.097 1400.62 506.578 1400.67 504.118 1406.59C498.261 1420.94 497.675 1458.08 497.617 1464.34C497.35 1507.55 505.693 1550.39 522.159 1590.34C557.01 1663.73 603.225 1509.27 615.76 1512.32C617.634 1512.78 618.103 1516.06 618.337 1517.82C625.6 1572 589.05 1621.61 589.05 1621.61C555.605 1663.38 503.825 1654.12 447.067 1671.4C439.943 1673.64 432.943 1676.26 426.098 1679.25C406.233 1687.83 387.472 1698.76 370.218 1711.82C318.498 1748.72 244.636 1756.57 181.259 1756.33C172.59 1756.33 167.787 1756.04 167.787 1756.33C167.787 1757.92 303.913 1770.51 380.235 1716.09C396.513 1703.63 414.379 1693.39 433.361 1685.64C453.224 1677.98 474.03 1673.03 495.215 1670.93C534.049 1666.19 555.956 1663.32 562.985 1673.92C578.976 1698 515.482 1764.71 517.356 1766.12C519.23 1767.52 553.847 1735.01 586.473 1678.26C593.385 1666.54 634.679 1593.27 641.708 1513.72C643.9 1481.16 642.781 1448.47 638.37 1416.14C628.822 1353.17 626.655 1313.28 628.236 1306.02C630.521 1296.53 646.453 1331.91 650.143 1394.35C651.338 1416.68 651.084 1439.06 649.381 1461.36C653.457 1433.77 655.045 1405.88 654.126 1378.01Z" fill="#ECECEC"/>
<path d="M167.788 1756.51C167.495 1754.69 243.114 1749.72 294.073 1716.86C301.331 1712.92 306.972 1706.55 310.005 1698.87C316.8 1675.8 279.137 1653.65 274.392 1650.9C310.24 1663.79 331.092 1684.52 327.109 1702.27C326.523 1705.08 323.594 1716.33 292.609 1731.56C253.247 1750.95 168.139 1758.38 167.788 1756.51Z" fill="#ECECEC"/>
<path d="M1151.82 1767.4C1152.29 1767.4 1161.08 1738.82 1146.61 1715.8C1129.91 1689.32 1089.15 1681.01 1090.96 1675.91C1090.96 1675.91 1090.96 1675.56 1091.43 1675.32C1095.82 1671.22 1120.31 1672.69 1126.11 1673.04C1178.82 1676.14 1213.26 1693.01 1231.89 1704.9C1213.39 1688.01 1191.53 1675.22 1167.73 1667.39C1143.93 1659.56 1118.75 1656.85 1093.83 1659.45C1072.67 1661.57 1051.99 1667.07 1032.56 1675.73C1084.87 1679.42 1115.45 1699.16 1111.93 1717.61C1109.35 1731.09 1088.09 1745.26 1065.07 1750.06C1014.64 1760.55 981.722 1721.36 929.826 1728.57C905.752 1731.85 874.708 1745.55 841.965 1789.72C841.379 1790.48 873.946 1744.32 923.968 1739.23C969.89 1734.6 982.542 1769.28 1045.92 1768.52C1063.49 1768.52 1100.28 1767.81 1114.74 1745.09C1121.3 1734.84 1123.41 1719.61 1130.44 1719.31C1135.01 1719.31 1138.88 1725.17 1141.63 1730.15C1147.59 1741.72 1151.06 1754.41 1151.82 1767.4Z" fill="#ECECEC"/>
<path d="M309.53 1309.36C306.777 1318.73 301.154 1338 295.414 1330.74C288.092 1321.42 286.218 1275.97 286.042 1271.05C284.519 1230.05 289.381 1180.79 297.757 1157.01C302.443 1143.42 306.777 1142.31 310.76 1119.7C312.668 1108.06 313.901 1096.33 314.451 1084.55C314.041 1087.42 308.066 1126.43 299.046 1125.55C290.025 1124.68 286.452 1069.15 282.704 1023.87C279.131 980.466 278.076 942.628 277.783 918.437C277.783 940.226 276.905 969.747 274.386 1002.9C272.687 1025.63 270.52 1044.55 268.529 1059.42C272.512 1053.98 275.206 1055.91 277.022 1059.42C285.398 1075.71 286.862 1149.86 282.001 1201.47C274.972 1276.44 252.714 1314.98 248.672 1298.17C247.501 1293.25 247.325 1281.01 250.839 1250.78C248.148 1266.68 244.55 1282.4 240.062 1297.88C231.979 1324.94 228.64 1320.66 227.586 1318.67C214.231 1293.31 236.02 1021.53 216.457 970.567C214.172 964.71 208.198 951.297 200.7 952.995C194.265 955.759 188.93 960.579 185.53 966.701C203.102 950.008 210.013 974.96 211.712 981.638C222.255 1024.46 219.092 1136.39 207.729 1206.27C199.412 1257.17 187.287 1289.56 188.107 1346.85C188.107 1358.56 188.985 1367.99 189.513 1373.79C189.513 1362.08 190.45 1324.35 197.479 1297.64C199.353 1290.38 204.859 1269.41 210.306 1276.97C215.754 1284.52 218.507 1317.32 217.394 1343.8C215.519 1389.49 202.165 1391.83 192.851 1448.35C187.972 1481.48 185.506 1514.92 185.471 1548.4C186.174 1538.68 187.404 1523.68 189.688 1507.4C192.851 1485.08 197.069 1455.21 203.629 1453.68C207.495 1452.81 211.361 1461.88 213.528 1474.3C218.389 1501.83 215.168 1547.23 209.779 1572.36C203.336 1602.34 193.027 1607.21 185.178 1595.78C172.76 1577.8 169.187 1523.91 168.953 1519.64C169.33 1546.06 172.114 1572.39 177.271 1598.3C188.107 1645.16 207.553 1649.2 218.272 1610.78C227.058 1578.62 227.82 1523.97 227.996 1507.22C228.698 1453.51 223.075 1434.82 226.238 1394.64C229.401 1354.46 237.953 1336.07 239.183 1332.85C248.145 1312.29 266.537 1314.81 273.8 1354.64C276.026 1366.82 275.792 1374.73 276.495 1444.66C277.608 1553.26 278.545 1571.54 281.415 1589.99C287.272 1628.12 298.226 1644.11 298.987 1638.95C299.807 1634.79 293.598 1617.87 289.674 1585.01C284.169 1532 284.503 1478.56 290.67 1425.63C298.284 1365.36 307.422 1369.51 315.681 1301.8C319.423 1269.88 321.379 1237.77 321.538 1205.62C321.069 1224.43 319.195 1276.03 309.53 1309.36Z" fill="#ECECEC"/>
<path d="M597.366 469.875C595.866 471.43 594.031 472.623 592.001 473.364C589.972 474.105 587.8 474.374 585.651 474.151C579.442 472.335 577.861 463.256 577.685 462.436C577.111 458.104 577.704 453.697 579.403 449.671C581.102 445.644 583.845 442.145 587.35 439.534C591.333 436.839 595.023 436.605 598.361 432.095C599.89 430.017 600.967 427.643 601.524 425.124C600.133 427.418 598.219 429.352 595.939 430.766C593.659 432.181 591.077 433.038 588.404 433.266C581.375 433.266 577.743 422.02 574.522 412.941C572.144 406.142 570.724 399.045 570.304 391.854C570.198 397.585 569.25 403.269 567.493 408.724C566.134 412.647 564.368 416.416 562.221 419.97C564.531 419.029 567.117 419.029 569.426 419.97C576.513 423.25 577.802 438.011 573.643 448.32C567.786 463.315 548.691 470.988 545.293 467.649C544.298 466.653 544.181 464.193 547.168 458.16C544.494 461.683 541.385 464.851 537.913 467.59C531.06 473.038 528.19 472.159 527.311 471.749C515.948 466.712 534.516 412.472 517.822 402.281C513.825 399.794 509.171 398.569 504.467 398.766C500.147 399.118 495.892 400.044 491.816 401.519C506.752 398.18 512.668 403.159 514.074 404.506C523.035 413 520.341 435.375 510.676 449.315C503.647 459.507 493.104 465.95 494.041 477.372C494.14 479.195 494.516 480.992 495.154 482.703C495.357 476.954 497.794 471.511 501.949 467.532C503.589 466.068 508.275 461.675 512.844 463.432C515.099 464.746 516.88 466.74 517.932 469.128C518.985 471.517 519.254 474.177 518.701 476.728C517.119 485.866 505.698 486.334 497.79 497.639C493.973 503.602 491.941 510.532 491.933 517.613C492.801 514.721 494.02 511.948 495.564 509.354C498.2 504.902 501.773 498.986 507.279 498.635C508.913 498.614 510.529 498.98 511.995 499.703C513.461 500.425 514.735 501.484 515.714 502.793C519.814 508.299 517.061 517.32 512.492 522.357C509.808 525.058 506.405 526.929 502.687 527.75C498.969 528.57 495.094 528.305 491.523 526.984C488.202 525.692 485.228 523.642 482.838 520.998C480.449 518.355 478.709 515.19 477.758 511.755C478.37 517.632 480.926 523.135 485.021 527.394C489.57 531.867 495.562 534.576 501.925 535.038C508.288 535.499 514.608 533.683 519.755 529.913C525.144 524.386 528.133 516.956 528.073 509.237C528.658 498.518 523.914 494.769 526.608 486.744C528.666 481.521 532.561 477.23 537.562 474.678C545.176 470.578 560.991 471.046 566.849 479.012C568.723 481.414 568.489 482.995 569.133 496.995C570.07 518.667 570.89 522.298 573.292 525.989C578.329 533.603 587.584 536.825 588.404 535.77C589.224 534.716 583.835 531.553 580.438 524.993C578.143 519.977 577.03 514.502 577.182 508.988C577.334 503.474 578.749 498.069 581.316 493.187C587.818 481.121 595.608 482 602.637 468.469C605.63 462.493 607.289 455.937 607.499 449.257C606.906 457.179 603.275 464.566 597.366 469.875Z" fill="#ECECEC"/>
<path d="M819.949 512.461C816.61 515.449 809.113 522.009 803.958 519.783C795.172 515.917 807.18 492.605 802.728 453.067C800.092 429.111 792.712 410.953 803.49 398.594C805.621 396.187 808.184 394.2 811.046 392.736C806.996 392.355 802.923 393.169 799.331 395.079C781.759 405.388 802.084 441.001 786.503 480.831C777.249 504.261 758.329 521.833 750.48 519.549C744.623 517.792 739.761 503.617 738.063 495.475C738.063 495.006 738.063 494.596 738.063 494.303C732.205 465.016 747.025 443.578 739 421.027C737.187 416.523 734.868 412.239 732.088 408.258C727.67 402.328 722.307 397.163 716.215 392.971C719.799 396.863 722.906 401.169 725.469 405.798C740.991 433.855 736.481 475.56 712.056 491.316C708.698 493.505 705.023 495.164 701.161 496.236C704.54 496.93 708.044 496.687 711.294 495.533C715.219 494.011 716.098 491.902 717.913 492.136C722.423 492.78 727.637 506.78 721.955 512.93C718.382 516.854 712.7 515.039 703.856 520.837C701.861 522.09 700.014 523.563 698.35 525.23C710.165 522.703 722.381 522.703 734.197 525.23C744.33 527.515 750.129 531.088 759.208 529.506C765.737 527.785 771.646 524.252 776.253 519.314C787.968 508.947 791.306 497.349 793.239 497.994C794.176 497.994 793.766 500.688 793.591 503.851C793.415 507.014 792.946 522.946 799.038 527.28C804.134 530.795 813.564 527.28 819.188 523.766C839.571 510.411 837.287 476.556 836.76 476.38C836.233 476.204 835.764 498.462 819.949 512.461Z" fill="#ECECEC"/>
<path d="M992.389 695.149C988.933 698.195 981.26 704.931 975.93 702.647C966.968 698.722 979.269 674.766 974.7 634.174C971.947 609.573 964.391 590.946 975.461 578.236C977.649 575.791 980.296 573.801 983.252 572.378C979.197 572.032 975.128 572.866 971.537 574.78C953.379 585.323 974.407 621.639 958.358 662.641C948.869 686.773 929.481 704.872 921.398 702.412C915.54 700.538 910.444 686.012 908.687 677.694C908.687 677.109 908.687 676.698 908.394 676.464C902.537 646.65 917.649 624.333 909.39 601.197C907.629 596.562 905.349 592.141 902.596 588.018C898.039 581.95 892.542 576.651 886.312 572.32C889.974 576.332 893.158 580.754 895.801 585.499C911.733 614.317 907.106 657.193 882.036 673.36C878.58 675.604 874.81 677.321 870.849 678.456C874.33 679.126 877.927 678.864 881.275 677.694C885.316 676.113 886.195 673.946 888.011 674.238C892.638 674.883 898.027 689.233 892.228 695.559C888.538 699.601 882.68 697.726 873.602 703.642C871.516 704.964 869.555 706.474 867.744 708.153C879.892 705.594 892.439 705.594 904.587 708.153C914.955 710.496 920.929 714.537 930.242 712.604C936.975 710.845 943.069 707.209 947.815 702.12C959.529 691.459 963.278 679.569 965.387 680.271C966.324 680.271 965.855 682.966 965.738 686.539C965.621 690.112 965.035 706.103 971.596 710.437C976.809 714.069 986.532 710.437 992.272 706.864C1013.18 693.158 1010.9 658.365 1009.84 658.248C1008.79 658.131 1008.85 680.799 992.389 695.149Z" fill="#ECECEC"/>
<path d="M1210.74 868.586C1207.29 871.574 1199.56 878.368 1194.29 876.025C1185.27 872.101 1197.62 848.203 1193.06 807.552C1190.3 783.01 1182.75 764.325 1193.82 751.673C1196.01 749.256 1198.63 747.269 1201.55 745.815C1197.49 745.489 1193.43 746.322 1189.83 748.217C1171.62 758.819 1192.7 795.076 1176.65 836.078C1167.17 860.269 1147.72 878.368 1139.69 875.849C1133.84 874.034 1128.68 859.449 1126.93 851.131C1126.93 850.604 1126.93 850.194 1126.93 849.901C1121.07 820.087 1136.18 797.829 1127.86 774.634C1126.14 770.01 1123.88 765.606 1121.13 761.513C1116.58 755.418 1111.06 750.114 1104.78 745.815C1108.48 749.812 1111.69 754.236 1114.33 758.995C1130.21 787.754 1125.64 830.63 1100.57 846.855C1097.09 849.05 1093.33 850.745 1089.38 851.893C1092.84 852.593 1096.43 852.33 1099.75 851.131C1103.79 849.608 1104.67 847.441 1106.54 847.675C1111.17 848.32 1116.56 862.729 1110.7 869.055C1107.01 873.038 1101.21 871.164 1092.07 877.138C1089.98 878.451 1088.02 879.961 1086.22 881.648C1098.36 879.03 1110.92 879.03 1123.06 881.648C1133.43 883.991 1139.4 887.974 1148.72 886.041C1155.44 884.267 1161.53 880.633 1166.29 875.557C1178 864.896 1181.69 853.064 1183.86 853.708C1184.74 853.708 1184.33 856.461 1184.21 859.976C1184.09 863.49 1183.51 879.598 1190.07 883.933C1195.28 887.564 1205 883.933 1210.74 880.301C1231.66 866.653 1229.37 831.86 1228.32 831.685C1227.26 831.509 1227.15 854.177 1210.74 868.586Z" fill="#ECECEC"/>
<path d="M1204.66 1546.58C1200.03 1562.51 1189.66 1598.18 1182.52 1586C1170.45 1565.26 1187.03 1439.04 1180.88 1224.71C1177.19 1095.15 1167.05 996.628 1181.93 929.795C1184.09 918.956 1187.59 908.429 1192.36 898.458C1188.2 897.462 1181.93 898.458 1176.31 911.052C1151.88 966.931 1180.17 1159.76 1158.74 1375.54C1145.97 1503 1119.84 1598.47 1109.01 1585.3C1101.04 1575.63 1094.25 1498.9 1091.9 1454.91C1091.9 1452.1 1091.9 1449.87 1091.55 1448.47C1083.47 1291.2 1103.97 1173.58 1092.84 1051.45C1089.38 1014.14 1083.53 982.102 1083.53 982.102C1078.43 953.978 1071.1 926.302 1061.62 899.337C1065.02 914.039 1069.94 937.351 1074.39 968.747C1095.77 1121.04 1089.62 1346.84 1055.88 1432.12C1052.4 1441.79 1047.31 1450.81 1040.83 1458.78C1044.22 1461.18 1049.44 1462.82 1054.83 1454.73C1060.21 1446.65 1061.44 1435.11 1063.9 1436.46C1070.17 1439.97 1077.38 1515.83 1069.76 1549.16C1064.84 1570.36 1056.99 1560.46 1044.75 1591.8C1041.75 1599.58 1039.23 1607.54 1037.2 1615.64C1058.87 1599.06 1075.33 1605.85 1086.69 1615.93C1100.63 1628.29 1108.66 1649.49 1121.19 1639.36C1131.67 1630.75 1138.76 1606.03 1144.62 1584.12C1160.32 1527.89 1165.35 1465.34 1168.05 1468.79C1169.28 1470.31 1168.69 1483.26 1168.52 1501.94C1168.52 1524.38 1167.58 1605.27 1176.02 1628.17C1183.04 1647.38 1196.05 1628.99 1203.78 1609.13C1231.95 1536.97 1228.85 1353.46 1227.68 1352.58C1226.51 1351.7 1226.74 1470.78 1204.66 1546.58Z" fill="#ECECEC"/>
<path d="M805.478 619.705C805.478 619.705 819.594 616.718 822.464 612.149C823.929 605.062 806.298 591.707 788.667 592.644C782.284 592.334 776.016 594.424 771.095 598.501C757.155 612.735 780.233 645.361 772.911 689.115C772.149 693.625 770.392 704.52 762.485 708.796C760.957 709.636 759.29 710.192 757.565 710.436C760.919 706.985 763.286 702.696 764.418 698.018C765.233 695.777 765.596 693.396 765.486 691.013C765.375 688.63 764.793 686.293 763.773 684.136C761.665 680.681 758.912 680.388 755.807 675.995C754.034 673.504 752.797 670.671 752.176 667.677C753.699 669.434 758.033 673.535 760.552 672.363C761.588 671.797 762.364 670.853 762.719 669.727C766.351 659.77 752.644 617.011 762.368 599.79C765.376 594.817 769.691 590.765 774.844 588.075C797.512 574.193 819.77 590.418 840.271 577.356C846.032 573.688 850.736 568.58 853.919 562.537C853.654 566.025 853.046 569.478 852.103 572.846C848.588 584.971 842.907 587.314 843.961 592C845.777 599.673 861.533 597.857 866.571 608.049C867.386 609.997 867.805 612.088 867.805 614.199C867.805 616.311 867.386 618.402 866.571 620.35C865.34 611.505 860.069 605.589 854.856 605.53C849.643 605.472 844.195 612.208 843.727 618.592C842.79 631.186 861.299 637.57 860.772 652.565C860.651 654.868 860.115 657.13 859.19 659.243C857.199 645.771 855.266 642.432 853.743 642.373C847.885 642.373 834.999 691.282 849.408 700.244C854.504 703.466 862.002 700.889 866.981 698.428C853.391 710.905 847.007 712.135 843.551 710.143C838.865 707.566 837.694 696.964 836.229 677.342C835.882 670.701 833.557 664.317 829.552 659.008L828.79 658.13C825.675 655.353 822.01 653.261 818.035 651.989C814.059 650.718 809.861 650.296 805.712 650.749C805.712 650.749 829.142 649.695 831.836 642.139C834.531 634.583 826.74 624.567 818.657 620.935C814.474 619.267 809.898 618.84 805.478 619.705ZM803.311 589.95C803.311 590.945 815.787 589.657 825.159 598.56C829.61 602.836 831.016 607.288 833.593 606.819C836.171 606.35 838.748 600.024 836.991 595.748C832.715 585.322 803.487 588.368 803.311 589.95Z" fill="#ECECEC"/>
</svg>
