<svg width="791" height="255" viewBox="0 0 791 255" fill="none" xmlns="http://www.w3.org/2000/svg">
<path d="M177.459 231.855C172.069 221.973 167.578 212.092 162.188 201.312C137.035 131.245 291.543 66.5667 272.679 49.4989C262.798 40.5159 215.188 51.2955 203.51 53.9904C99.3065 77.3463 34.6287 127.651 0.493164 160.889C9.4762 148.312 76.849 46.804 263.696 11.7702C449.645 -23.2636 600.56 36.9227 620.322 45.0074C563.729 26.143 506.238 33.3295 476.594 60.2786C462.221 73.7531 451.441 95.3124 459.526 100.702C477.492 114.177 596.967 54.8888 620.322 45.0074C620.322 45.0074 312.204 211.194 302.323 200.414C295.137 192.329 480.187 102.499 455.933 55.7871C445.153 34.2278 395.747 33.3295 388.56 33.3295C307.713 31.5329 219.679 102.499 241.238 157.295C252.018 183.346 287.95 216.583 340.95 221.973C442.458 232.753 499.051 129.448 603.255 131.245C651.763 132.143 716.441 156.397 791 253.414C713.746 169.872 654.458 154.6 616.729 155.499C526.001 156.397 500.848 246.227 374.187 253.414C325.679 256.109 257.408 248.024 229.561 221.075C205.306 197.719 216.984 168.075 203.51 167.177C193.628 166.278 183.747 180.651 181.052 184.244C166.679 204.007 172.967 223.77 177.459 231.855Z" fill="#ECECEC" stroke="white" stroke-miterlimit="10"/>
</svg>
