<svg width="615" height="199" viewBox="0 0 615 199" fill="none" xmlns="http://www.w3.org/2000/svg">
<path d="M138.228 181.059C134.049 173.355 130.566 165.651 126.386 157.247C106.882 102.619 226.695 52.1933 212.067 38.8865C204.405 31.883 167.485 40.2872 158.43 42.3883C77.625 60.5976 27.4705 99.8176 1 125.731C7.96591 115.926 60.2102 36.7855 205.101 9.47153C349.295 -17.8424 466.323 29.0815 481.648 35.3847C437.762 20.6772 393.181 26.2801 370.193 47.2908C359.048 57.7962 350.689 74.6047 356.958 78.8069C370.89 89.3122 463.536 43.0887 481.648 35.3847C481.648 35.3847 242.717 164.951 235.055 156.547C229.482 150.243 372.98 80.2076 354.172 43.789C345.812 26.9805 307.5 26.2801 301.927 26.2801C239.234 24.8794 170.968 80.2076 187.686 122.929C196.045 143.24 223.909 169.153 265.008 173.355C343.723 181.759 387.608 101.218 468.412 102.619C506.028 103.319 556.183 122.229 614 197.868C554.093 132.734 508.118 120.828 478.861 121.529C408.506 122.229 389.001 192.265 290.782 197.868C253.166 199.969 200.225 193.665 178.631 172.655C159.823 154.445 168.878 131.334 158.43 130.633C150.767 129.933 143.105 141.139 141.015 143.94C129.869 159.348 134.745 174.756 138.228 181.059Z" stroke="white" stroke-miterlimit="10"/>
</svg>
