<svg width="1400" height="2000" viewBox="0 0 1400 2000" fill="none" xmlns="http://www.w3.org/2000/svg">
<g clip-path="url(#clip0_207_1315)">
<rect width="1399.32" height="2000" transform="translate(0.0078125)" fill="#141414"/>
<path d="M794.101 436.394C794.453 433.825 794.98 431.277 795.677 428.763C810.954 373.788 897.616 412.06 918.168 421.193C1105.06 504.287 1227.48 767.448 1294 949.077C1283.59 905.637 1098 151.483 803.007 205.857C712.509 222.5 638.59 310.1 587.894 391.272C772.864 481.395 882.476 786.133 871.241 1041.66C863.02 1231.7 789.032 1419.46 708.947 1466.45C511.097 1582.53 369.561 799.532 212.2 975.393C161.916 1031.69 130.745 1162.91 52.5093 1170.24C1.47119 1175.05 -27.0281 1123.14 -58.4729 1096.16C-228.44 950.639 -351.753 1647.41 -544.875 1572.61C-629.071 1539.99 -703.607 1358.84 -724.022 1175.35C-759.577 855.288 -589.748 461.448 -439.922 488.846C-427.454 491.069 -336.271 507.772 -317.431 633.344C-276.326 907.86 -627.906 1390.38 -614.616 1440.13C-597.283 1504.78 -10.8604 609.671 -11.4768 607.448C-55.7327 658.879 -282.698 976.955 -314.965 896.505C-329.214 860.455 -307.155 738.969 -279.272 664.406C-222.891 513.6 -115.54 483.618 -12.0935 607.448C-47.1008 556.739 -321.815 176.117 -669.422 336.597C-947.014 464.813 -1089.1 854.447 -1143.9 1045.51C-1178.77 1050.56 -1212.98 1058.61 -1246.05 1069.54C-1392.24 1118.21 -1427.73 1204.85 -1490.41 1192.65C-1551.04 1180.63 -1599.34 1074.23 -1578.58 985.908C-1558.85 901.792 -1481.23 853.726 -1346.75 772.495C-1260.55 720.422 -1168.55 676.136 -1072.18 640.313C-1418.69 722.266 -1578.58 854.447 -1659.76 967.222C-1711.21 1038.6 -1739.78 1113.94 -1820.83 1132.33C-1987.23 1169.94 -2196.66 918.255 -2186.59 932.855C-2035.18 1151.98 -1930.23 1196.02 -1859.33 1188.99C-1802.88 1183.4 -1756.15 1145.31 -1689.57 1161.47C-1638.05 1173.97 -1589.06 1216.74 -1593.65 1252.97C-1604 1331.08 -1870.22 1425.41 -2053.41 1364.25C-2284.89 1286.92 -2274 977.977 -2273.32 961.694C-2257.56 559.142 -1657.23 334.013 -1627.43 323.198C-1755.88 236.98 -1870.08 214.029 -1936.67 206.759C-2213.17 176.717 -2460.75 332.932 -2654.9 455.26C-2707.38 488.305 -2753.42 523.994 -2753.42 523.994C-2887.01 627.052 -2991.3 756.051 -3058 900.711C-2977.37 794.545 -2693.61 450.393 -2217.07 391.812C-2129.38 380.998 -1992.98 358.467 -1975.79 410.438C-1942.49 511.016 -2577.9 760.478 -2620.24 1147.41C-2620.05 1170.09 -2614.49 1192.49 -2603.93 1213.2C-2589.94 1160.47 -2562.6 1111.19 -2523.92 1069C-2515.01 1059.21 -2443.97 981.281 -2416.57 990.894C-2384.98 1002.01 -2494.46 1147.47 -2425.61 1294.25C-2394.03 1361.48 -2342.23 1391.64 -2356.42 1405.34C-2393.07 1440.85 -2709.16 1208.21 -2910.23 1282.05C-3001.41 1315.52 -3080.13 1417.36 -3034.5 1464.46C-2949.28 1552.48 -2650.86 1509.95 -2441.98 1619.78C-2347.24 1669.65 -2311.2 1729.79 -2295.72 1773.83C-2293.75 1739.14 -2301.29 1704.55 -2317.71 1672.95C-2338.74 1632.03 -2369.36 1606.86 -2352.37 1570.03C-2347.44 1558.9 -2339.82 1548.84 -2330.04 1540.53C-2302.16 1517.16 -2264.48 1512.59 -2248.93 1510.49C-2146.17 1498.47 -1995.45 1552.12 -1995.45 1552.12C-1941.74 1555.37 -1864.26 1553.99 -1784.31 1526.89C-1636.33 1476.66 -1587.76 1374.58 -1534.94 1388.16C-1489.11 1400.18 -1509.46 1480.09 -1471.03 1557.83C-1434.58 1631.55 -1337.16 1718.43 -1072.31 1780.14C-1072.31 1780.86 -1072.31 1780.92 -1072.31 1780.14C-1009.56 1455.69 -1081.56 1337.99 -1168.64 1294.25C-1213.1 1271.96 -1277.42 1260.9 -1276.47 1239.09C-1275.03 1206.47 -1128.56 1156.72 -1002.44 1179.01C-954.647 1187.87 -910.082 1206.91 -872.683 1234.47C-879.657 1294.25 -880.345 1354.46 -874.738 1414.36C-866.106 1473.76 -857.452 1533.16 -848.774 1592.56C-851.487 1501.45 -847.597 1410.28 -837.128 1319.61C-835.347 1304.52 -831.579 1275.14 -824.659 1274.84C-809.725 1274.3 -812.465 1412.49 -749.781 1545.21C-715.719 1616.15 -666.304 1680.63 -604.271 1735.08C-574.95 1751.66 -532.064 1769.5 -484.315 1763.79C-258.789 1736.94 -189.048 1225.1 -62.3779 1227.14C-50.8687 1227.14 -39.0854 1233.15 -26.8911 1245.94C33.6694 1309.09 36.4783 1456.95 153.489 1635.52C208.295 1718.73 256.729 1761.69 287.421 1784.04C171.438 1650.3 104.232 1459.72 113.481 1318.76C120.811 1206.77 176.645 1124.16 225.422 1104.63C386.414 1040.28 444.029 1675.05 643.317 1713.39C720.867 1728.29 846.441 1672.65 884.531 1434.72C907.07 1293.77 913.304 1080.24 938.173 1080.96C954.272 1081.5 968.315 1171.38 978.523 1242.76C1002.67 1419.44 1015.05 1597.21 1015.59 1775.15C1016.82 1775.15 1068.75 1281.93 982.154 931.052C916.73 664.707 781.907 523.513 794.101 436.394ZM-2457.6 1465.55C-2459.59 1474.5 -2474.45 1476.36 -2481.37 1493.24C-2492.88 1521.24 -2463.49 1543.89 -2472.6 1551.64C-2483.15 1560.54 -2528.44 1535.84 -2581.12 1517.22C-2699.98 1475.16 -2760.95 1497.81 -2796.44 1458.28C-2818.29 1433.94 -2823.84 1393.51 -2800.21 1373.44C-2734.65 1317.68 -2448.56 1424.33 -2457.6 1465.55ZM-1213.03 1321.77C-1040.73 1365.81 -1072.38 1763.31 -1072.25 1780.62C-1353.74 1671.75 -1478.01 1508.86 -1427.25 1412.01C-1395.81 1351.87 -1289.14 1302.3 -1213.03 1321.77ZM-1004.83 1043.47C-1034.98 1040.16 -1047.72 1047.13 -1054.84 1039.14C-1077.73 1013.43 -946.534 940.065 -881.384 798.45C-829.729 686.276 -860.078 619.224 -785.473 567.013C-751.631 542.98 -694.769 521.53 -669.01 539.135C-630.098 566.172 -702.511 659.299 -759.098 855.228C-803.285 1008.02 -807.053 1117.91 -852.611 1122.6C-891.043 1126.5 -917.144 1053.02 -1004.83 1043.47Z" fill="#ECECEC"/>
</g>
<defs>
<clipPath id="clip0_207_1315">
<rect width="1399.32" height="2000" fill="white" transform="translate(0.0078125)"/>
</clipPath>
</defs>
</svg>
