<svg width="1400" height="2000" viewBox="0 0 1400 2000" fill="none" xmlns="http://www.w3.org/2000/svg">
<rect width="1399.32" height="2000" transform="translate(0.0078125)" fill="#141414"/>
<path d="M623.344 708.35C636.051 704.427 638.452 663.495 628.146 658.986C622.993 656.761 615.264 663.964 614.502 664.842C611.865 667.582 609.896 670.895 608.748 674.52C607.6 678.146 607.305 681.988 607.885 685.747C607.299 684.79 606.828 683.768 606.48 682.702C605.738 677.978 605.968 673.153 607.156 668.521C608.345 663.89 610.466 659.549 613.39 655.766C616.703 651.482 620.653 647.73 625.101 644.64C629.909 641.459 633.917 637.211 636.812 632.226C639.162 627.959 639.85 622.975 638.745 618.231C637.338 612.653 634.584 607.505 630.723 603.24C626.166 599.131 620.336 596.712 614.21 596.389C616.36 595.263 618.725 594.607 621.148 594.466C623.571 594.325 625.997 594.701 628.263 595.569C631.25 597.092 632.479 599.551 633.533 599.083C634.587 598.614 634.997 591.061 631.367 586.142C629.137 583.781 626.39 581.97 623.342 580.853C620.293 579.735 617.027 579.34 613.8 579.701C617.264 577.439 621.389 576.407 625.511 576.773C634.47 578.061 638.628 587.547 641.263 586.552C642.961 585.849 643.488 580.696 639.857 564.827C642.721 570.556 644.941 576.585 646.474 582.804C654.965 617.938 637.281 644.23 644.483 648.505C649.402 651.491 662.05 641.244 668.55 631.758C672.424 625.841 675.019 619.18 676.168 612.202C677.318 605.224 676.997 598.083 675.226 591.236C676.475 593.335 677.514 595.551 678.329 597.853C681.843 607.925 679.032 614.952 680.262 615.42C682.78 616.181 701.693 590.417 691.329 574.431C688.096 569.882 683.372 566.609 677.978 565.179C681.359 565.078 684.721 565.729 687.82 567.086C690.919 568.443 693.677 570.472 695.896 573.025C700.112 579.525 696.833 588.016 699.82 589.128C702.806 590.241 706.319 581.399 714.752 578.529C720.679 577.035 726.951 577.83 732.319 580.755C727.163 579.491 721.751 579.756 716.742 581.516C701.81 587.372 704.328 604.939 687.464 624.731C674.055 640.483 656.663 647.685 657.6 649.207C658.537 650.73 661.465 647.744 666.852 646.397C685.415 641.771 705.968 650.496 711.18 659.982C712.031 661.554 712.737 663.2 713.288 664.901C714.505 668.883 714.766 673.096 714.049 677.198C714.049 675.499 712.819 662.09 702.982 657.347C701.283 656.527 698.59 655.239 697.126 656.351C692.793 659.162 699.527 676.202 702.045 682.526C708.72 699.449 713.346 711.161 723.711 714.381C733.08 717.368 741.688 711.629 741.98 712.566C738.847 715.577 735.002 717.747 730.804 718.873C726.607 720 722.192 720.046 717.972 719.007C709.072 716.079 706.261 707.296 704.855 707.706C702.337 708.935 707.139 741.552 722.832 743.191C731.616 744.069 742.215 735.169 746.958 721.174C741.629 739.853 731.792 752.502 722.247 752.385C711.589 752.385 704.094 736.164 699.82 727.029C683.072 691.251 695.721 665.486 681.316 656.293C672.532 650.437 657.893 653.775 649.929 661.27C632.362 677.725 650.573 710.107 637.105 718.363C626.741 724.746 601.971 713.561 593.832 694.121C590.855 686.371 590.465 677.867 592.719 669.878C593.15 679.18 596.535 688.102 602.381 695.35C604.196 697.517 615.146 710.868 623.344 708.35Z" fill="#ECECEC"/>
<path d="M859.332 615.19C858.221 626.061 853.713 636.305 846.449 644.469C836.759 654.343 823.724 660.233 809.91 660.982C794.568 661.333 788.537 653.721 782.798 658.347C776.064 663.792 776.591 680.247 777.879 688.562C779.695 703.962 780.573 711.633 778.348 714.385C773.019 720.944 757.677 721.529 749.714 713.566C747.09 710.847 745.301 707.433 744.561 703.728C747.382 707.97 751.755 710.934 756.74 711.985C760.98 712.834 765.385 712.016 769.037 709.701C774.19 705.719 773.078 699.102 772.726 673.337C772.726 657.468 772.726 651.73 770.267 650.968C767.808 650.207 761.132 659.283 760.371 660.455C756.019 667.176 753.964 675.128 754.515 683.116C753.031 678.381 752.319 673.438 752.407 668.477C752.817 643.18 774.483 630.591 769.037 617.767C768.05 615.338 766.355 613.263 764.172 611.812C761.989 610.36 759.42 609.599 756.799 609.627C753.844 610.19 751.195 611.806 749.342 614.176C747.49 616.545 746.56 619.507 746.727 622.51C746.331 621.715 746.055 620.867 745.907 619.992C743.916 607.871 766.402 586.79 787.6 587.551C805.577 588.196 816.878 599.263 823.437 593.407C825.076 591.526 826.158 589.226 826.562 586.764C826.965 584.302 826.674 581.776 825.72 579.471C824.963 577.677 823.859 576.051 822.472 574.684C821.086 573.318 819.444 572.238 817.639 571.507C820.583 571.734 823.438 572.62 825.992 574.1C828.546 575.58 830.735 577.615 832.396 580.056C835.558 585.912 832.396 589.835 834.914 598.501C836.67 604.357 841.179 611.911 845.688 611.618C850.197 611.325 854.062 604.123 855.233 594.051C855.928 601.485 855.071 608.983 852.715 616.069C848.206 629.361 838.603 638.73 839.95 639.901C841.296 641.072 844.049 638.027 844.985 637.325C852.012 631.671 857.04 623.913 859.332 615.19ZM818.928 622.393C810.495 631.996 801.361 630.239 787.19 642.361C785.199 644.059 779.168 649.27 780.222 651.261C781.276 653.252 788.01 649.914 797.789 649.622C812.604 649.212 817.112 656.707 823.085 654.13C835.675 648.685 831.869 607.929 827.243 607.285C825.252 607.168 826.013 614.546 819.103 622.393H818.928ZM778.465 638.73C780.69 641.541 795.037 633.753 804.64 626.082C810.495 621.631 815.531 617.24 814.594 612.965C813.758 611.144 812.397 609.615 810.686 608.572C808.976 607.529 806.993 607.019 804.991 607.109C799.135 607.109 794.334 613.433 785.433 626.082C780.222 633.518 777.352 637.325 778.641 638.73H778.465ZM808.739 599.79C808.27 597.974 784.906 597.916 777.879 610.916C774.132 617.942 775.888 627.194 778.231 627.78C780.573 628.365 782.915 617.415 794.1 608.163C798.769 604.921 803.728 602.117 808.914 599.79H808.739Z" fill="#ECECEC"/>
<path d="M786.012 799.118C784.872 809.992 780.345 820.234 773.07 828.396C763.431 838.317 750.403 844.235 736.59 844.968C721.248 844.968 715.216 837.707 709.478 842.333C702.744 847.72 703.271 864.174 704.559 872.49C706.374 887.89 707.253 895.912 705.028 898.313C699.699 904.93 684.357 905.457 676.393 897.493C673.769 894.775 671.981 891.361 671.24 887.656C672.647 889.797 674.472 891.632 676.605 893.05C678.738 894.469 681.136 895.442 683.654 895.912C687.913 896.796 692.348 895.976 696.01 893.629C701.163 889.647 700.05 883.03 699.699 857.265C699.699 841.396 699.699 835.657 697.239 834.896C693.785 833.784 688.105 843.27 687.343 844.441C682.992 851.141 680.937 859.074 681.488 867.044C680.003 862.309 679.292 857.366 679.38 852.405C679.79 827.108 701.456 814.518 696.01 801.694C695.002 799.257 693.285 797.178 691.082 795.727C688.88 794.275 686.292 793.519 683.654 793.555C680.7 794.118 678.05 795.734 676.198 798.104C674.345 800.473 673.416 803.435 673.583 806.438C673.187 805.643 672.911 804.795 672.763 803.92C670.772 791.857 693.258 770.776 714.455 771.538C732.432 772.123 743.734 783.249 750.292 777.393C751.93 775.5 753.011 773.19 753.415 770.719C753.818 768.248 753.527 765.714 752.576 763.398C751.004 759.805 748.11 756.954 744.495 755.435C747.446 755.655 750.309 756.545 752.866 758.037C755.422 759.528 757.606 761.582 759.251 764.042C762.355 769.898 758.958 773.763 761.769 782.429C763.526 788.285 768.035 795.839 772.543 795.605C777.052 795.37 780.917 788.051 782.03 778.037C782.771 785.449 781.933 792.933 779.57 799.996C775.003 813.289 765.458 822.658 766.746 823.887C768.035 825.117 770.904 821.955 771.841 821.252C778.775 815.548 783.733 807.803 786.012 799.118ZM745.607 806.262C737.175 815.924 728.04 814.167 713.87 826.23C711.82 827.986 705.847 833.139 706.901 835.13C707.955 837.121 714.689 833.784 724.468 833.491C739.283 833.081 743.792 840.576 749.765 838C762.355 832.554 758.548 791.857 753.922 791.154C751.756 791.096 752.517 798.415 745.607 806.262ZM705.145 822.599C707.37 825.41 721.658 817.68 731.32 809.951C737.175 805.501 742.211 801.167 741.274 796.834C740.431 795.019 739.069 793.493 737.36 792.451C735.651 791.409 733.671 790.897 731.671 790.979C725.815 790.979 721.014 797.303 712.113 809.951C706.726 817.388 704.032 821.194 705.145 822.599ZM735.418 783.659C734.891 781.902 711.586 781.785 704.559 794.843C700.811 801.812 702.568 811.064 704.91 811.649C707.253 812.235 709.595 801.285 720.779 792.033C725.428 788.855 730.323 786.055 735.418 783.659Z" fill="#ECECEC"/>
<path d="M1083.31 901.534C1100.88 897.084 1114.7 885.197 1118.44 870.089C1119.57 865.028 1119.67 859.792 1118.73 854.692C1117.8 849.592 1115.85 844.732 1113 840.401C1110.5 836.594 1106.65 833.874 1102.22 832.789C1098.01 832.151 1093.71 833.112 1090.16 835.482C1093.25 831.529 1097.55 828.692 1102.4 827.401C1110.42 825.645 1115.52 830.095 1119.97 827.401C1122.31 825.762 1122.6 823.302 1123.89 813.172C1124.67 804.107 1126.08 795.107 1128.11 786.236C1129.26 780.121 1131.99 774.411 1136.01 769.664C1139.86 765.889 1144.64 763.193 1149.86 761.847C1155.08 760.5 1160.56 760.551 1165.76 761.993C1168.61 762.564 1171.23 763.947 1173.31 765.975C1168.34 764.727 1163.21 764.195 1158.09 764.394C1150.42 765.39 1142.04 770.25 1142.1 774.934C1142.26 776.469 1143.02 777.879 1144.21 778.858C1150.42 784.713 1164.53 777.921 1171.79 775.286C1173.67 774.571 1175.49 773.709 1177.24 772.709C1187.31 767.439 1197.26 763.867 1206.51 766.854C1209.08 767.779 1211.45 769.191 1213.48 771.011C1207.61 769.173 1201.35 769.011 1195.39 770.543C1189.73 771.977 1184.54 774.863 1180.34 778.916C1177.44 780.983 1175.36 784.013 1174.48 787.466C1174.17 789.059 1174.21 790.701 1174.59 792.278C1174.97 793.856 1175.7 795.331 1176.71 796.6C1180.31 801.451 1184.37 805.941 1188.83 810.01C1196.66 817.201 1202.13 826.59 1204.52 836.946C1206.81 856.621 1181.1 865.756 1182.1 888.593C1182.45 894.179 1184.18 899.592 1187.13 904.345C1182.99 901.966 1179.62 898.45 1177.41 894.215C1175.02 888.334 1174.37 881.891 1175.54 875.652C1176.18 868.918 1176.3 862.184 1176.53 855.509C1176.53 852.815 1176.12 852.464 1173.84 853.401C1170.67 854.788 1167.21 855.332 1163.77 854.982C1157.91 854.455 1156.21 849.126 1148.48 845.671C1140.75 842.216 1128.17 842.158 1125.06 847.311C1123.36 850.004 1125.06 852.112 1125.65 859.022C1126.38 866.271 1125.25 873.587 1122.37 880.278C1117.77 888.186 1110.44 894.141 1101.76 897.025C1095.9 899.544 1089.67 901.068 1083.31 901.534ZM1126.64 836.712C1129.57 837.766 1133.44 832.964 1135.66 830.856C1147.37 819.145 1166.23 829.1 1172.43 821.37C1178.64 813.641 1168.69 786.236 1155.28 784.128C1137.71 781.61 1121.55 822.014 1124.07 832.671C1124.24 833.491 1124.89 836.068 1126.64 836.712ZM1181.92 865.405C1183.15 865.815 1185.49 862.653 1190.24 856.328C1196.74 847.662 1197.38 845.085 1197.61 843.387C1198.14 839.932 1197.61 834.194 1194.92 832.964C1192.23 831.735 1187.78 835.834 1187.01 836.536C1184.37 839.385 1182.62 842.948 1181.98 846.784C1180.28 853.576 1179.17 864.585 1181.92 865.405ZM1167.34 828.631C1160.96 828.631 1155.63 835.131 1156.8 838.878C1158.2 844.734 1173.84 846.784 1176.53 842.333C1176.92 840.824 1176.98 839.251 1176.72 837.716C1176.45 836.181 1175.87 834.719 1175 833.426C1174.13 832.133 1173 831.037 1171.68 830.211C1170.36 829.385 1168.88 828.846 1167.34 828.631Z" fill="#ECECEC"/>
<path d="M722.066 305.893C724.692 302.167 726.174 297.756 726.33 293.2C726.486 288.644 725.31 284.142 722.944 280.245C721.188 277.727 716.679 272.808 713.458 273.98C707.193 276.322 706.021 302.497 718.435 313.33C724.291 318.19 728.097 316.433 733.25 321.352C740.687 328.437 740.746 340.559 739.516 349.928C737.174 337.865 732.372 328.145 726.692 327.676C718.201 326.915 704.909 346.883 712.228 358.301C717.381 366.441 729.795 365.972 731.025 365.914C723.348 368.346 715.061 368.014 707.602 364.977C692.085 357.247 715.976 288.443 697.706 261.273C692.579 253.198 685.07 246.916 676.216 243.296C670.887 241.246 663.626 238.494 658.181 240.836C636.573 250.088 652.325 336.401 633.352 367.202C629.139 373.805 623.947 379.728 617.952 384.769C612.688 389.337 606.524 392.748 599.858 394.782C593.102 396.725 585.989 397.085 579.07 395.836C585.223 394.678 591.232 392.852 596.989 390.39C605.184 387.611 612.429 382.578 617.893 375.868C620.646 371.886 623.105 366.558 621.758 365.387C620.411 364.216 613.97 371.535 604.835 372.355C598.841 372.616 592.961 370.656 588.322 366.851C594.957 368.83 602.047 368.666 608.583 366.382C631.127 357.833 639.15 320.884 628.082 303.844C627.145 302.438 623.691 297.109 619.709 297.402C615.727 297.695 610.691 306.01 608.817 318.483C608.205 311.597 609.27 304.665 611.921 298.281C617.776 285.047 627.555 281.885 637.276 263.439C640.262 257.584 642.195 252.665 639.969 249.678C639.141 248.822 638.135 248.158 637.022 247.733C635.909 247.308 634.716 247.133 633.528 247.219C627.672 247.219 621.817 253.485 619.006 262.268C619.354 258.63 620.222 255.061 621.583 251.669C626.777 240.623 635.502 231.621 646.382 226.086C657.261 220.551 669.675 218.797 681.662 221.103C702.742 225.846 713.224 243.881 719.021 253.777C723.296 261.038 734.012 279.484 727.16 297.051C725.914 300.236 724.197 303.217 722.066 305.893ZM696.242 244.935C697.941 243.296 689.333 223.152 674.576 222.567C662.397 222.157 652.559 235.215 653.906 237.499C655.253 239.782 663.216 232.814 675.279 234.454C688.337 236.269 695.013 246.107 696.242 244.935Z" fill="#ECECEC"/>
<path d="M708.308 1054.66C708.308 1051.43 683.187 1036.39 663.337 1083.93C654.821 1106.85 649.253 1130.76 646.765 1155.08C644.24 1135.28 644.043 1115.26 646.179 1095.41C653.733 1034.63 691.268 1006.52 721.483 1020.46C743.149 1030.41 753.221 1057.64 770.496 1040.07C782.63 1026.14 789.235 1008.25 789.058 989.774C788.992 977.994 786.375 966.367 781.387 955.694C786.599 958.915 792.103 965.356 794.035 979.117C797.432 1002.54 786.774 1022.57 783.261 1073.16C780.04 1120 787.243 1132.18 782.91 1164.68C776.585 1211.88 758.433 1208.37 757.437 1233.72C755.388 1283.96 825.012 1314.47 831.453 1416.77C832.757 1443.21 830.631 1469.7 825.129 1495.59C827.474 1474.53 827.827 1453.3 826.183 1432.17C821.147 1373.15 799.364 1339.77 796.202 1348.67C793.743 1355.58 797.08 1393.29 810.021 1452.84C814.835 1483.41 816.386 1514.41 814.647 1545.3C811.427 1606.26 778.459 1662.94 734.015 1665.87C740.397 1663.88 765.987 1653.63 778.342 1590.86C781.211 1576.45 784.666 1558.77 782.558 1548.93C774.302 1511.05 703.214 1693.63 651.508 1617.97C629.559 1582.12 617.947 1540.9 617.955 1498.87C617.955 1493.01 618.658 1457.88 626.856 1444.29C630.193 1438.73 633.648 1438.44 635.873 1439.37C630.53 1454.75 627.914 1470.94 628.144 1487.21C628.554 1514.79 637.162 1539.92 645.711 1546.77C666.791 1564.33 683.89 1489.62 707.254 1513.39C710.346 1516.76 712.895 1520.59 714.808 1524.75C711.06 1524.34 697.885 1524.28 690.507 1552.21C686.876 1565.91 683.89 1589.51 686.349 1598.47C695.309 1630.21 784.959 1513.51 781.329 1400.26C779.279 1335.84 747.073 1282.09 721.718 1276.06C699.29 1270.73 679.498 1301.82 672.706 1312.48C665.098 1324.81 658.63 1337.8 653.382 1351.3C656.37 1335.47 660.28 1319.83 665.093 1304.46C698.822 1200.17 753.514 1237.65 757.906 1184.42C759.487 1165.09 753.455 1145.48 749.181 1131.42C731.145 1072.87 696.07 1089.67 675.926 1116.14C672.3 1121.12 669.013 1126.35 666.089 1131.77C668.862 1116.57 673.158 1101.68 678.913 1087.33C692.849 1054.42 708.425 1057.23 708.308 1054.66Z" fill="#ECECEC"/>
<path d="M654.38 778.093C649.849 774.927 644.447 773.249 638.921 773.291C627.209 773.759 623.52 783.773 610.521 784.417C602.908 784.768 601.21 781.43 595.12 783.363C592.184 784.521 589.508 786.252 587.246 788.453C584.984 790.654 583.183 793.283 581.945 796.187C576.558 807.312 578.432 821.6 582.882 823.006C585.81 823.942 587.566 818.497 593.071 818.38C599.863 818.38 603.728 826.109 607.066 824.587C609.35 823.533 607.944 819.492 610.989 815.393C613.082 812.817 615.997 811.039 619.246 810.357C617.735 811.19 616.426 812.346 615.414 813.743C614.402 815.14 613.711 816.743 613.39 818.438C612.629 825.933 622.583 833.253 631.425 834.366C635.499 834.515 639.555 833.769 643.308 832.18C647.062 830.592 650.421 828.2 653.15 825.172C657.139 821.322 660.237 816.645 662.226 811.47C661.641 813.812 656.839 831.906 640.736 838.289C635.515 840.44 629.812 841.147 624.223 840.338C614.971 838.874 613.039 833.721 604.958 832.726C601.575 832.407 598.162 832.76 594.916 833.765C591.67 834.769 588.655 836.407 586.044 838.582C572.166 850.644 580.188 874.77 581.301 878.342C583.292 884.197 585.166 890.053 590.026 892.044C597.463 895.323 601.737 885.837 615.381 885.603C623.52 885.603 624.867 888.706 639.623 889.526C643.543 889.892 647.496 889.635 651.335 888.765C656.85 887.47 661.934 884.767 666.091 880.918C665.088 882.905 663.806 884.739 662.285 886.364C652.916 896.202 638.511 893.859 638.452 895.967C638.394 898.075 650.632 901.823 660.47 897.958C662.109 897.314 663.397 896.553 663.397 896.611C658.139 901.251 651.433 903.921 644.425 904.165C633.592 903.404 632.714 892.454 622.525 891.341C611.516 890.229 608.998 902.35 595.764 903.053C586.044 903.463 581.008 896.377 574.508 899.656C571.728 901.593 568.544 902.874 565.198 903.404C563.899 903.625 562.573 903.625 561.274 903.404C570.175 897.548 574.45 888.999 572.342 882.265C571.288 878.81 568.243 874.77 564.788 874.653C558.932 874.653 554.658 884.842 553.076 890.697C552.573 892.751 552.279 894.85 552.198 896.963C551.468 889.476 552.699 881.929 555.77 875.063C558.552 870.349 561.623 865.812 564.964 861.477C569.941 853.689 577.963 841.1 573.571 834.717C572.198 832.967 570.247 831.763 568.067 831.321C559.576 828.803 550.851 836.005 550.5 835.478C556.028 832.333 561.06 828.386 565.432 823.767C574.977 812.055 573.103 795.66 572.283 788.633C571.093 778.66 567.605 769.098 562.094 760.701C565.312 764.409 569.038 767.642 573.161 770.304C585.927 778.444 600.273 779.674 600.917 777.975C601.562 776.277 597.111 775.75 593.188 770.422C591.551 768.201 590.285 765.729 589.44 763.102C601.152 777.214 608.94 779.439 614.21 778.62C619.48 777.8 623.93 772.764 635.934 770.831C638.731 770.215 641.628 770.215 644.425 770.831C648.488 772.017 652.01 774.586 654.38 778.093Z" fill="#ECECEC"/>
<path d="M1219.45 1056.3C1218.05 992.706 1213.6 972.504 1208.44 972.036C1195.74 970.923 1167.86 1088.33 1149.89 1085.4C1145.32 1084.7 1139.81 1077.79 1131.03 1077.79C1128.8 1077.92 1126.7 1078.91 1125.17 1080.54C1112.18 1092.25 1105.91 1129.55 1104.21 1139.51C1095.6 1190.39 1098.36 1256.09 1105.73 1262.48C1110.42 1266.64 1113.17 1241.87 1121.95 1241.22C1132.79 1240.4 1138.94 1276.77 1144.21 1269.74C1147.84 1264.88 1145.61 1246.32 1150.47 1227.58C1154.1 1213.35 1159.72 1207.26 1163.76 1204.15C1158.35 1215.85 1155.33 1228.51 1154.86 1241.4C1153.69 1275.65 1169.5 1309.21 1183.5 1314.42C1200.3 1320.57 1213.13 1285.67 1218.1 1272.02C1225.12 1251.7 1229.97 1230.7 1232.57 1209.37C1231.63 1219.97 1224.02 1303.06 1198.37 1332.34C1195.27 1335.91 1184.84 1347.74 1172.14 1341.88C1157.38 1335.15 1154.57 1311.49 1141.4 1306.75C1130.62 1303 1119.03 1314.89 1111.36 1334.03C1089.28 1389.31 1101.87 1499.98 1103.74 1516.5C1106.96 1544.43 1109.95 1569.55 1117.62 1579.33C1129.33 1594.32 1136.24 1550.87 1158.03 1549.64C1170.97 1548.88 1173.13 1564.05 1196.61 1567.62C1199.79 1568.45 1203.11 1568.59 1206.35 1568.01C1209.59 1567.43 1212.66 1566.16 1215.35 1564.28C1226.19 1556.37 1233.86 1539.45 1238.19 1527.8C1236.82 1536.22 1234.86 1544.54 1232.33 1552.68C1217.46 1597.83 1194.56 1586.94 1194.45 1596.72C1194.33 1606.5 1213.83 1623.42 1229.58 1605.8C1231.2 1603.92 1232.73 1601.97 1234.15 1599.94C1234.15 1600.41 1219.33 1637.42 1203.99 1634.43C1186.43 1631.15 1185.08 1580.27 1168.86 1575.87C1151.29 1570.84 1147.31 1626.47 1126.29 1628.98C1110.83 1630.86 1102.86 1598.18 1092.44 1613.47C1089.28 1618.15 1085 1628.11 1077.69 1630.62C1076.66 1630.96 1075.58 1631.09 1074.5 1631C1073.42 1630.91 1072.37 1630.6 1071.42 1630.1C1086 1599.91 1092.07 1566.33 1088.99 1532.95C1087.29 1517.14 1082.37 1498.52 1076.92 1497.82C1067.91 1497 1060.76 1544.66 1058.42 1571.54C1057.37 1583.25 1057.07 1593.56 1056.96 1600.17C1055.83 1566.59 1057.79 1532.97 1062.81 1499.75C1066.85 1475.04 1069.49 1473.46 1077.39 1437.56C1085.3 1401.67 1098.06 1343.87 1091.15 1314.59C1090.2 1308.49 1087.08 1302.94 1082.37 1298.96C1068.78 1287.25 1054.91 1320.27 1054.5 1318.05C1054.09 1315.82 1068.61 1298.26 1077.92 1264.18C1093.14 1210.24 1090.16 1135.35 1088.87 1103.96C1087.36 1060.85 1081.93 1017.97 1072.65 975.842C1077.09 990.991 1082.97 1005.68 1090.22 1019.7C1103.63 1044.35 1130.91 1058.29 1134.37 1054.84C1136.36 1052.96 1131.32 1045.11 1128.51 1040.25C1119.2 1023.33 1110.95 994.463 1118.44 942.348C1117.4 963.335 1120.48 984.323 1127.52 1004.12C1131.91 1016.42 1141.1 1042.07 1151.47 1041.54C1161.83 1041.02 1164.06 1010.68 1192.81 969.986C1201.88 957.163 1207.27 949.667 1212.25 950.78C1224.66 954 1223.2 1006.94 1219.45 1056.3Z" fill="#ECECEC"/>
<path d="M1005.73 212.786C1003.55 219.544 999.487 225.539 994.014 230.061C985.465 236.678 974.925 237.849 975.159 239.137C975.393 240.425 980.078 240.132 984.177 239.547C997.901 237.211 1010.68 231.017 1021.01 221.687C1017.85 225.466 1014.36 228.954 1010.59 232.11C1003.78 237.89 995.981 242.393 987.573 245.403C969.011 251.258 961.808 241.011 940.201 246.047C933.356 246.855 926.859 249.506 921.404 253.718C909.693 264.316 913.674 281.005 911.274 327.792C909.868 355.782 907.585 363.219 901.553 367.201C893.18 372.646 878.13 368.782 874.91 361.755C871.689 354.728 879.302 337.512 880.004 336.107C881.507 333.376 882.121 330.244 881.761 327.148C881.241 324.306 879.8 321.713 877.662 319.77C879.717 320.474 881.512 321.78 882.815 323.517C889.315 332.242 876.608 346.94 882.112 353.908C884.007 355.686 886.439 356.783 889.026 357.027C891.612 357.27 894.207 356.647 896.4 355.255C902.607 349.868 896.869 332.535 890.545 314.558C885.274 298.748 882.112 294.942 883.459 287.681C884.746 283.088 886.972 278.812 889.996 275.123C893.019 271.434 896.775 268.412 901.026 266.249C895.689 270.022 892.05 275.743 890.896 282.176C889.959 288.559 891.598 296.933 894.819 297.518C898.04 298.104 905.828 288.325 906.53 277.726C907.702 264.375 899.035 259.281 898.333 246.632C898.04 241.187 900.031 233.516 910.044 223.854C905.828 234.277 906.648 237.556 908.053 238.727C911.566 241.596 919.296 231.7 934.579 229.007C948.75 226.547 953.844 233.047 963.506 229.475C969.069 227.426 976.447 221.98 982.127 205.584C981.72 212.102 979.708 218.418 976.272 223.971C972.348 230.236 967.957 232.93 968.718 234.277C969.479 235.624 980.429 232.989 989.096 227.66C995.563 223.844 1001.21 218.79 1005.73 212.786Z" fill="#ECECEC"/>
<path d="M856.805 642.416C859.915 643.002 863.111 642.95 866.201 642.266C869.291 641.582 872.21 640.278 874.782 638.435C878.091 635.116 880.499 631.008 881.779 626.5C883.06 621.992 883.171 617.232 882.102 612.67C879.818 600.958 871.327 597.562 870.683 585.089C870.52 581.334 871.056 577.581 872.264 574.022C871.705 577.061 871.705 580.177 872.264 583.216C872.368 586.056 873.539 588.753 875.543 590.769C876.975 591.468 878.547 591.831 880.14 591.831C881.733 591.831 883.305 591.468 884.737 590.769C894.457 587.256 896.097 576.774 906.754 571.68C912.417 569.32 918.651 568.689 924.672 569.865C948.973 572.617 972.572 595.571 976.495 621.746C977.16 626.544 977.16 631.411 976.495 636.209C968.707 617.705 964.784 613.606 962.851 614.075C958.987 615.07 958.46 633.164 962.851 648.096C966.811 661.368 974.016 673.443 983.815 683.23C961.797 673.217 943.879 671.051 939.487 677.785C935.857 683.348 941.127 695.352 946.104 701.852C950.381 706.88 955.349 711.276 960.86 714.91C960.451 715.671 949.793 709.347 935.857 703.96C920.749 698.104 913.137 695.235 904.47 694.883C893.278 694.751 882.197 697.111 872.03 701.793C862.719 705.658 854.463 710.928 854.463 710.342C854.463 709.757 876.949 698.631 875.836 686.92C875.426 683.231 872.381 677.55 869.336 678.019C868.134 678.3 866.999 678.818 865.998 679.541C862.409 681.445 858.27 682.045 854.287 681.24C860.709 679.552 866.367 675.732 870.332 670.407C876.714 661.506 877.768 648.389 873.611 645.696C871.737 644.524 870.039 645.696 864.886 645.344C861.962 645.188 859.15 644.169 856.805 642.416ZM929.591 617.53C925.981 613.443 923.91 608.224 923.735 602.773C923.735 594.283 929.591 590.594 927.952 583.625C927.38 581.546 926.314 579.635 924.846 578.055C923.379 576.475 921.551 575.272 919.519 574.549C912.083 572.09 904.412 579.234 901.601 581.81C889.011 593.521 889.538 612.435 889.89 616.944C890.534 630.705 895.745 631.935 895.218 643.822C894.516 660.276 884.092 665.781 887.02 672.163C891.178 681.24 918.524 683.875 935.271 670.758C949.032 659.983 949.969 642.826 951.784 608.571C952.311 598.323 951.784 590.242 946.924 587.256C944.743 586.345 942.354 586.054 940.018 586.416C937.683 586.778 935.493 587.778 933.69 589.305C926.663 594.166 924.731 605.76 929.591 617.53ZM967.067 670.231C969.878 666.308 958.87 650.204 952.721 651.668C950.32 652.254 948.856 655.416 948.564 657.524C947.919 663.028 953.658 667.069 954.829 667.83C958.87 670.699 965.311 672.397 966.95 670.114L967.067 670.231Z" fill="#ECECEC"/>
<path d="M403.638 1303.47C407.737 1305.4 421.557 1310.44 432.214 1284.32C444.862 1253.58 446.15 1196.78 443.925 1160.94C440.236 1103.67 426.768 1088.68 425.773 1028.95C425.47 1011.35 426.311 993.747 428.291 976.253C427.336 990.955 427.336 1005.7 428.291 1020.4C429.11 1034.28 429.93 1048.69 433.502 1056.42C438.128 1066.66 444.862 1059.87 448.141 1056.42C463.542 1039.73 466.177 989.721 483.275 965.127C492.937 951.132 502.014 953.416 511.793 956.578C550.499 969.577 587.916 1079.55 594.299 1204.74C595.763 1233.67 595.236 1258.09 594.65 1274.07C582.236 1185.42 576.147 1165.8 572.867 1168.2C566.543 1172.24 565.489 1259.14 572.399 1330.35C577.583 1387.21 588.772 1443.37 605.776 1497.88C570.642 1449.92 542.242 1439.32 535.508 1471.88C529.652 1498.34 538.202 1554.85 546.107 1587.12C556.471 1629.4 570.115 1646.32 569.53 1649.42C568.944 1652.53 551.963 1622.78 529.828 1597.13C505.703 1569.32 493.64 1555.38 479.762 1553.74C456.808 1551.1 437.543 1574.76 428.115 1586.59C413.3 1605.27 400.476 1630.33 399.949 1627.58C399.129 1623.48 435.727 1571.31 433.912 1516.32C433.327 1498.75 428.466 1471.53 423.606 1473.75C421.615 1474.69 420.444 1477.09 418.336 1480.84C414.823 1487.16 409.084 1492.96 399.832 1489.09C405.219 1484.47 417.399 1471.82 425.421 1437.09C435.552 1394.64 437.133 1331.69 430.633 1319.1C427.647 1313.25 424.777 1318.4 416.755 1317.29C413.359 1317.58 408.908 1314.71 403.638 1303.47ZM519.288 1184.42C513.066 1161.36 509.916 1137.57 509.919 1113.69C509.919 1072.99 519.405 1055.13 516.536 1021.99C514.779 1001.67 509.275 984.509 503.126 978.478C491.415 966.767 479.059 1000.85 474.609 1013.2C454.583 1068.83 455.461 1159.89 455.754 1180.44C456.749 1246.26 465.064 1252.06 464.244 1308.8C463.073 1387.61 446.677 1414.2 451.128 1444.59C457.745 1488.04 501.311 1499.98 527.896 1437.74C549.855 1386.33 551.318 1304.29 554.188 1140.15C555.066 1091.08 554.188 1052.32 546.517 1038.38C539.958 1026.67 530.706 1035.98 525.436 1048.04C514.779 1072.7 511.734 1127.97 519.288 1184.42ZM578.957 1435.75C583.466 1417.07 565.899 1340.07 556.12 1347.09C552.314 1349.79 550.264 1364.66 549.503 1375.84C548.819 1392.83 552.213 1409.74 559.399 1425.15C565.841 1438.79 576.322 1446.87 578.957 1435.75Z" fill="#ECECEC"/>
<path d="M839.417 360.816C839.417 358.533 855.168 360.816 865.299 350.393C866.958 348.65 868.358 346.678 869.456 344.537C865.065 348.676 859.712 351.654 853.88 353.204C849.697 354.164 845.386 354.441 841.115 354.024C825.012 353.145 823.548 349.573 814.706 349.749C799.832 349.749 795.265 360.348 787.125 356.776C781.855 354.434 779.806 348.519 777.639 341.902C776.351 337.979 767.743 311.746 782.851 298.629C785.664 296.242 788.927 294.442 792.447 293.336C795.967 292.229 799.672 291.839 803.346 292.188C812.188 293.242 814.296 298.863 824.367 300.444C830.437 301.338 836.635 300.548 842.286 298.161C859.853 291.251 865.006 271.576 865.709 268.882C863.543 274.507 860.165 279.586 855.812 283.756C852.878 287.036 849.26 289.632 845.213 291.362C841.166 293.092 836.789 293.914 832.39 293.769C822.786 292.539 811.953 284.575 812.832 276.202C813.102 274.397 813.767 272.675 814.779 271.157C815.792 269.638 817.126 268.362 818.687 267.418C815.123 268.128 811.915 270.052 809.611 272.864C806.332 277.373 807.854 281.765 805.336 282.877C801.706 284.575 797.548 275.967 790.17 276.143C784.315 276.143 782.265 281.999 779.045 281.179C774.184 279.657 772.135 264.08 778.049 251.901C779.387 248.746 781.339 245.889 783.792 243.496C786.245 241.104 789.15 239.223 792.337 237.964C799.012 235.856 800.828 239.487 809.143 239.077C823.255 238.433 826.71 227.365 840.002 227.014C845.989 226.92 851.851 228.723 856.749 232.167C854.743 228.875 851.726 226.32 848.148 224.885C844.57 223.45 840.624 223.21 836.899 224.203C829.52 225.492 821.615 232.284 813.476 232.635C809.203 232.474 805.018 231.378 801.214 229.425C797.411 227.473 794.081 224.711 791.459 221.334C791.459 221.334 791.459 221.334 792.103 221.334C795.616 220.866 796.904 214.659 798.485 214.893C800.066 215.127 799.071 217.294 801.179 219.519C801.589 219.929 803.053 221.568 804.634 221.568C805.816 221.227 806.915 220.645 807.861 219.858C808.807 219.071 809.579 218.097 810.129 216.996C810.68 215.896 810.996 214.693 811.058 213.464C811.12 212.236 810.926 211.007 810.49 209.857C809.163 208.269 807.284 207.242 805.232 206.981C803.179 206.721 801.104 207.246 799.422 208.452C798.778 209.271 799.012 209.857 798.427 210.384C796.085 212.199 790.346 205.934 787.887 207.339C785.427 208.744 786.364 217.235 790.756 223.735C795.148 230.235 799.598 230.82 799.188 231.991C798.778 233.162 782.851 232.46 769.031 223.618C764.544 220.723 760.483 217.215 756.969 213.195C762.964 222.335 766.772 232.735 768.094 243.586C768.973 251.022 770.964 268.765 760.599 281.53C755.844 286.554 750.38 290.855 744.379 294.296C744.379 294.823 754.158 287.035 763.468 289.787C765.775 290.335 767.834 291.632 769.324 293.476C774.067 300.444 765.342 314.088 759.955 322.754C756.303 327.452 752.958 332.381 749.942 337.511C746.607 344.965 745.255 353.154 746.018 361.285C746.152 359.015 746.485 356.762 747.014 354.551C748.654 348.109 753.514 336.984 759.662 336.984C763.41 336.984 766.748 341.493 767.919 345.24C770.202 352.618 765.518 361.987 755.856 368.312C757.276 368.471 758.71 368.471 760.131 368.312C763.751 367.71 767.191 366.31 770.202 364.213C777.288 360.582 782.792 368.37 793.625 367.902C808.03 367.316 810.724 354.141 822.904 355.312C833.854 356.425 834.966 368.487 846.736 369.248C854.353 369.003 861.644 366.103 867.348 361.051C866.32 361.593 865.265 362.081 864.186 362.514C852.65 367.14 839.358 362.983 839.417 360.816ZM803.463 210.911C804.36 210.737 805.289 210.898 806.076 211.361C806.864 211.825 807.454 212.56 807.737 213.429C807.814 213.94 807.738 214.463 807.519 214.931C807.3 215.4 806.949 215.794 806.508 216.064C805.746 216.415 805.336 216.064 804.458 216.064C803.58 216.064 802.877 218.699 801.94 218.699C801.003 218.699 800.476 217.528 800.242 216.532C799.994 215.363 800.185 214.144 800.779 213.107C801.373 212.07 802.329 211.288 803.463 210.911ZM791.224 210.911C792.12 210.75 793.044 210.916 793.828 211.378C794.612 211.84 795.205 212.567 795.499 213.429C795.548 213.944 795.453 214.463 795.226 214.928C794.999 215.393 794.647 215.786 794.211 216.064C793.449 216.415 793.04 216.064 792.22 216.064C791.4 216.064 790.58 218.699 789.643 218.699C788.706 218.699 788.179 217.528 787.945 216.532C787.7 215.356 787.899 214.13 788.505 213.092C789.111 212.054 790.079 211.277 791.224 210.911Z" fill="#ECECEC"/>
<path d="M266.494 336.167C263.449 334.177 251.094 359.59 233.058 359.883C229.156 359.663 225.337 358.663 221.827 356.943C218.317 355.223 215.187 352.818 212.622 349.87C215.864 352.041 219.512 353.534 223.346 354.258C227.18 354.983 231.121 354.924 234.932 354.086C242.174 351.748 248.289 346.802 252.089 340.208C257.945 331.483 255.661 328.497 260.053 318.249C266.728 302.732 281.016 296.173 279.611 293.89C278.732 292.484 274.985 295.353 267.899 293.89C263.918 293.078 260.21 291.264 257.125 288.619C255.602 287.097 255.075 285.809 253.026 284.638C253.026 284.638 249.103 282.471 246.76 283.466C244.418 284.462 242.486 291.254 245.062 299.394C239.042 291.368 236.036 281.481 236.571 271.462C237.374 260.521 242.29 250.29 250.332 242.828C258.24 235.192 268.634 230.661 279.611 230.063C296.241 229.536 300.398 239.783 312.812 235.918C317.975 234.021 322.64 230.978 326.456 227.018C328.726 224.742 330.694 222.183 332.312 219.405C331.295 225.244 328.995 230.784 325.578 235.626C321.01 242.067 317.614 242.535 315.565 247.337C312.11 256.003 316.209 268.476 321.772 269.647C326.046 270.525 330.555 264.435 334.303 259.458C339.614 252.351 343.274 244.149 345.019 235.45C345.947 245.233 343.907 255.068 339.163 263.674C332.839 274.566 325.226 276.967 320.6 289.732C320.132 291.02 316.15 302.322 321.127 306.948C324.582 310.227 330.848 308.587 333.6 307.826C338.664 306.058 343.305 303.255 347.226 299.595C351.148 295.935 354.265 291.5 356.379 286.57C354.489 294.237 351.041 301.433 346.248 307.709C335.532 321.587 324.465 321.997 321.42 332.888C320.312 337.099 320.477 341.544 321.894 345.661C323.312 349.778 325.918 353.382 329.384 356.018C332.594 358.15 336.325 359.364 340.174 359.529C344.024 359.695 347.845 358.804 351.226 356.955C347.216 359.671 342.658 361.47 337.875 362.225C333.065 363.149 328.108 362.953 323.386 361.654C318.664 360.354 314.305 357.985 310.646 354.73C296.182 338.803 318.082 303.493 306.84 296.173C303.209 293.714 298.056 295.588 292.786 297.461C287.639 299.371 283.08 302.59 279.558 306.8C276.035 311.011 273.672 316.067 272.701 321.47C271.471 330.253 276.097 331.776 275.98 340.091C275.98 355.608 259.409 372.765 241.9 376.572C227.144 379.792 221.581 371.36 204.131 374.171C193.936 375.966 184.399 380.431 176.492 387.112C183.321 376.759 193.976 369.536 206.122 367.027C214.32 365.973 216.077 368.959 227.202 368.14C233.058 367.671 249.571 366.441 259.76 353.793C265.791 346.591 268.251 337.339 266.494 336.167ZM304.029 260.571C304.029 257.936 304.966 245.404 297.061 239.49C283.71 229.477 257.476 247.044 258.413 254.539C258.413 256.355 260.404 257.584 260.287 260.395C260.17 263.206 257.125 265.314 254.431 266.778C255.446 265.525 256.065 263.999 256.211 262.393C256.357 260.788 256.023 259.175 255.251 257.76C254.314 256.179 252.206 254.071 250.684 254.598C248.224 255.418 247.756 263.44 249.278 269.061C252.44 280.421 266.845 294.007 283.3 289.732C297.178 285.809 303.443 271.052 304.029 260.571Z" fill="#ECECEC"/>
<path d="M249.928 692.075C246.883 690.084 234.527 715.497 216.492 715.497C212.594 715.284 208.778 714.294 205.268 712.584C201.758 710.875 198.626 708.48 196.055 705.543C199.309 707.712 202.969 709.198 206.814 709.913C210.659 710.627 214.608 710.555 218.424 709.7C225.643 707.379 231.739 702.452 235.523 695.881C241.378 687.156 239.153 684.169 243.545 673.863C250.22 658.404 264.45 651.846 262.869 649.27C261.932 647.864 258.243 650.733 251.157 649.27C247.162 648.499 243.444 646.68 240.383 643.999C239.238 642.478 237.854 641.153 236.284 640.076C236.284 640.076 232.419 637.909 230.077 638.905C227.735 639.9 225.802 646.693 228.32 654.774C221.926 646.416 218.948 635.94 219.992 625.468C221.036 614.997 226.023 605.314 233.942 598.384C241.778 590.816 252.055 586.29 262.927 585.618C279.499 585.091 283.715 595.28 296.07 591.474C304.496 588.576 311.575 582.705 315.98 574.961C314.978 580.794 312.699 586.333 309.304 591.181C304.737 597.622 301.282 598.032 299.233 602.893C295.778 611.5 299.935 624.032 305.44 625.144C309.714 626.022 314.282 619.991 318.029 615.014C323.297 607.881 326.953 599.69 328.745 591.005C329.641 600.786 327.603 610.613 322.889 619.23C316.507 630.531 308.894 632.932 304.268 645.639C303.8 646.927 299.877 658.229 304.795 663.206C308.309 666.485 314.574 664.787 317.327 664.084C322.375 662.288 327.002 659.474 330.92 655.818C334.838 652.162 337.964 647.741 340.105 642.828C338.17 650.49 334.704 657.681 329.916 663.967C319.2 677.845 308.192 678.197 305.088 689.147C303.947 693.406 304.101 697.909 305.53 702.081C306.958 706.252 309.598 709.904 313.11 712.569C316.321 714.705 320.056 715.916 323.908 716.071C327.76 716.226 331.581 715.318 334.952 713.448C330.936 716.163 326.383 717.98 321.601 718.776C316.778 719.697 311.808 719.495 307.076 718.185C302.344 716.875 297.977 714.492 294.314 711.223C279.909 695.354 301.809 660.044 290.566 652.666C286.877 650.206 281.724 652.08 276.454 654.013C271.368 655.826 266.833 658.917 263.285 662.988C259.737 667.059 257.295 671.973 256.193 677.26C254.964 686.043 259.648 687.566 259.531 695.881C259.531 711.398 242.901 728.555 225.392 732.362C210.636 735.582 205.132 727.15 187.623 729.902C177.502 731.763 168.038 736.223 160.16 742.843C167 732.512 177.654 725.311 189.79 722.817C197.988 721.763 199.803 724.749 210.87 723.871C216.726 723.461 233.298 722.173 243.428 709.524C249.225 702.322 251.684 693.011 249.928 692.075ZM287.521 616.478C287.521 613.843 288.4 601.311 280.494 595.397C267.143 585.443 240.969 603.185 241.847 610.446C241.847 612.262 243.838 613.433 243.721 615.951C243.604 618.469 240.559 620.928 237.865 622.333C238.907 621.058 239.538 619.496 239.674 617.855C239.81 616.213 239.444 614.569 238.626 613.14C237.748 611.559 235.64 609.392 234.117 609.919C231.599 610.798 231.131 618.82 232.712 624.383C235.816 636.094 250.279 649.328 266.733 645.112C280.729 641.481 286.877 626.725 287.521 616.243V616.478Z" fill="#ECECEC"/>
<path d="M288.926 877.232C285.881 875.241 273.584 900.655 255.49 900.655C251.636 900.494 247.851 899.573 244.354 897.945C240.857 896.317 237.716 894.014 235.112 891.169C238.354 893.339 242.004 894.827 245.84 895.542C249.675 896.256 253.616 896.183 257.422 895.326C264.652 893.025 270.754 888.093 274.521 881.507C280.376 872.782 278.151 869.795 282.543 859.489C289.219 844.03 303.448 837.413 301.867 834.895C300.988 833.49 297.241 836.359 290.155 834.895C286.141 834.129 282.403 832.31 279.322 829.625C277.859 828.161 277.332 826.873 275.282 825.702C275.282 825.702 271.359 823.535 269.016 824.531C266.674 825.526 264.742 832.319 267.318 840.4C260.924 832.077 257.929 821.636 258.94 811.189C259.951 800.742 264.892 791.069 272.764 784.127C280.6 776.559 290.877 772.033 301.75 771.361C318.321 770.834 322.537 781.023 334.951 777.217C340.304 775.337 345.152 772.252 349.122 768.199C351.379 765.912 353.346 763.355 354.978 760.587C353.931 766.417 351.634 771.95 348.244 776.807C343.676 783.248 340.28 783.658 338.172 788.519C334.717 797.126 338.875 809.657 344.379 810.77C348.712 811.648 353.221 805.617 356.969 800.64C362.261 793.521 365.92 785.324 367.685 776.632C368.606 786.414 366.566 796.247 361.829 804.856C355.446 815.747 347.892 818.09 343.266 830.855C342.798 832.143 338.816 843.445 343.735 848.422C347.248 851.701 353.514 850.003 356.266 849.3C361.347 847.504 366.003 844.679 369.943 841.002C373.883 837.324 377.021 832.873 379.162 827.927C377.235 835.581 373.79 842.77 369.031 849.066C358.257 862.944 347.248 863.296 344.203 874.246C343.032 878.498 343.164 883.005 344.584 887.181C346.004 891.358 348.646 895.011 352.167 897.668C355.377 899.804 359.113 901.015 362.965 901.17C366.817 901.325 370.638 900.417 374.009 898.547C369.993 901.262 365.439 903.079 360.658 903.875C355.844 904.8 350.882 904.6 346.158 903.289C341.435 901.979 337.078 899.594 333.429 896.322C318.965 880.453 340.866 845.143 329.623 837.765C325.934 835.305 320.839 837.179 315.511 839.112C310.362 841.009 305.803 844.226 302.288 848.439C298.774 852.652 296.427 857.715 295.484 863.12C294.254 871.903 298.88 873.426 298.763 881.741C298.763 897.258 282.133 914.416 264.683 918.222C249.927 921.442 244.364 912.952 226.856 915.762C216.681 917.62 207.159 922.078 199.217 928.703C206.07 918.36 216.747 911.157 228.905 908.677C237.044 907.623 238.86 910.609 249.986 909.731C255.841 909.321 272.354 908.033 282.543 895.385C288.282 887.714 290.682 878.403 288.926 877.232ZM326.461 801.635C326.461 799 327.339 786.469 319.492 780.555C306.141 770.542 279.908 788.343 280.845 795.604C280.845 797.419 282.836 798.59 282.66 801.108C282.485 803.626 279.557 806.086 276.805 807.491C277.819 806.238 278.438 804.712 278.584 803.107C278.73 801.501 278.396 799.888 277.624 798.473C276.687 796.951 274.579 794.784 273.057 795.311C270.539 796.189 270.129 804.212 271.652 809.775C274.755 821.135 289.219 834.72 305.673 830.504C319.727 826.756 325.934 812.117 326.461 801.635Z" fill="#ECECEC"/>
<path d="M1214.18 480.684C1216.75 487.602 1217.45 495.073 1216.23 502.35C1215.47 507.908 1213.36 513.195 1210.08 517.748C1206.81 522.301 1202.46 525.981 1197.43 528.466C1189.47 531.687 1179.87 530.106 1179.46 526.944C1179.05 525.187 1180.92 523.43 1183.85 519.155C1186.04 515.651 1187.14 511.575 1187.01 507.444C1185.72 509.728 1177.17 525.011 1161.54 527.178C1142.62 529.696 1128.22 510.84 1123.07 497.255C1116.8 480.859 1119.61 460.423 1126.4 458.139C1133.2 455.856 1143.97 475.706 1155.04 472.31C1157.33 471.666 1159.37 470.339 1160.89 468.504C1154.53 467.575 1148.62 464.637 1144.04 460.118C1139.46 455.6 1136.44 449.737 1135.42 443.383C1134.47 438.554 1134.81 433.559 1136.4 428.902C1137.99 424.244 1140.79 420.09 1144.5 416.857C1155.86 408.19 1176.59 411.938 1189.12 430.091C1187.89 427.104 1178.29 405.263 1161.01 403.447C1155.15 403.045 1149.33 404.589 1144.44 407.839C1121.02 421.776 1121.54 456.148 1112.99 456.148C1104.45 456.148 1105.03 423.474 1081.96 409.889C1077.08 406.655 1071.28 405.112 1065.45 405.497C1047.88 407.312 1038.57 428.919 1037.28 432.14C1049.87 414.046 1070.54 410.24 1081.96 418.906C1085.6 422.099 1088.37 426.168 1089.99 430.727C1091.62 435.287 1092.06 440.187 1091.27 444.964C1090.24 451.316 1087.2 457.172 1082.61 461.68C1078.02 466.188 1072.11 469.112 1065.74 470.026C1067.26 471.861 1069.3 473.189 1071.59 473.833C1082.95 477.112 1092.85 457.202 1100.29 459.662C1107.72 462.121 1109.83 482.382 1103.63 498.778C1098.41 512.421 1084.01 531.218 1065.15 528.7C1049.52 526.651 1040.91 511.133 1039.68 508.967C1039.54 513.091 1040.62 517.165 1042.78 520.678C1045.71 524.953 1047.64 526.534 1047.23 528.466C1046.47 531.628 1037.16 533.209 1029.26 529.988C1024.27 527.629 1019.92 524.095 1016.6 519.69C1013.28 515.284 1011.07 510.138 1010.17 504.692C1008.96 497.41 1009.68 489.938 1012.28 483.026C1007.8 488.527 1005.12 495.274 1004.61 502.35C1003.43 523.137 1023.46 542.285 1041.55 546.736C1070.54 553.821 1104.21 525.538 1112.82 492.161C1112.82 491.224 1113.23 490.228 1113.4 489.291V490.111C1122.01 523.43 1155.74 551.772 1184.67 544.628C1202.76 540.236 1222.79 521.205 1221.68 500.3C1221.22 493.154 1218.6 486.315 1214.18 480.684Z" fill="#ECECEC"/>
<path d="M435.031 892.281C432.38 886.893 430.507 881.156 429.468 875.241C428.181 867.005 428.3 858.61 429.82 850.413C436.847 816.392 473.328 800.64 467.355 787.523C466.681 786.255 465.75 785.141 464.62 784.254C463.491 783.366 462.188 782.725 460.796 782.37C450.315 779.091 431.518 804.622 429.996 806.964C432.441 798.079 436.764 789.822 442.674 782.751C448.583 775.679 455.941 769.958 464.251 765.974C466.652 764.92 489.665 755.2 509.164 764.569C516.337 768.885 523.746 772.795 531.357 776.28C537.209 778.686 543.386 780.205 549.686 780.789C544.877 782.933 541.11 786.89 539.204 791.798C536.452 799.644 539.204 810.302 546.465 813.464C549.653 814.674 553.173 814.674 556.361 813.464L555.131 814.693C548.573 820.022 533.114 816.45 529.483 808.838C526.38 802.104 534.285 797.126 531.826 789.397C529.366 781.667 516.66 777.276 508.403 777.217C482.814 777.217 449.846 814.693 457.283 849.183C461.206 867.746 477.544 890.173 499.034 890.173C505.215 890.085 511.282 888.493 516.71 885.534C522.138 882.575 526.763 878.339 530.186 873.192C533.057 868.519 534.961 863.319 535.786 857.897C536.611 852.476 536.339 846.944 534.988 841.63C534.288 838.919 533.307 836.289 532.06 833.783C537.491 839.472 541.25 846.548 542.923 854.233C544.597 861.919 544.12 869.917 541.546 877.349C533.641 897.844 510.98 902.002 504.714 903.114C486.62 906.452 463.724 901.065 453.77 886.016C445.103 872.84 448.968 855.859 444.283 855.215C440.946 854.805 437.315 863.354 436.437 865.345C432.915 873.902 432.42 883.404 435.031 892.281Z" fill="#ECECEC"/>
<path d="M942.415 871.142C935.506 868.917 930.294 879.223 909.448 886.367C906.896 887.835 904.033 888.678 901.093 888.829C898.153 888.98 895.219 888.433 892.53 887.235C889.841 886.036 887.473 884.218 885.621 881.931C883.768 879.643 882.482 876.95 881.868 874.07C878.823 865.99 881.282 857.03 886.259 839.463C891.003 822.833 893.403 820.667 895.746 819.613C902.07 816.86 910.326 821.076 914.718 825.468C917.836 829.138 919.845 833.621 920.509 838.391C921.172 843.162 920.464 848.022 918.466 852.404C919.626 850.576 920.551 848.609 921.218 846.549C922.7 841.186 922.91 835.551 921.832 830.092C920.755 824.634 918.419 819.501 915.011 815.104C911.88 811.542 908.156 808.55 904.002 806.262C901.114 804.435 898.732 801.912 897.074 798.924C895.417 795.937 894.537 792.58 894.516 789.163C894.493 783.137 896.704 777.316 900.723 772.826C904.822 767.673 909.331 762.812 913.605 757.777C914.242 756.895 914.791 755.954 915.245 754.966C909.354 761.813 902.247 767.511 894.282 771.772C887.328 775.506 879.844 778.152 872.089 779.618C859.66 781.883 846.924 781.883 834.495 779.618C826.745 778.134 819.263 775.489 812.302 771.772C804.358 767.479 797.256 761.786 791.339 754.966C791.835 755.943 792.403 756.883 793.037 757.777C797.312 762.812 801.821 767.673 805.919 772.826C809.922 777.322 812.113 783.144 812.068 789.163C812.074 792.585 811.206 795.952 809.546 798.945C807.886 801.937 805.489 804.456 802.582 806.262C798.44 808.542 794.733 811.535 791.632 815.104C787.902 819.493 785.505 824.856 784.722 830.563C783.47 835.85 783.693 841.379 785.366 846.549C786.059 848.598 786.983 850.563 788.118 852.404C786.142 848.014 785.451 843.153 786.124 838.386C786.798 833.618 788.809 829.139 791.924 825.468C796.316 820.842 804.514 816.626 810.838 819.613C813.181 820.667 815.64 822.833 820.383 839.463C825.36 857.03 827.82 865.99 824.775 874.07C823.865 877.102 822.312 879.901 820.219 882.277C818.127 884.652 815.546 886.547 812.654 887.831C807.473 889.225 801.964 888.705 797.136 886.367C776.348 879.223 771.078 868.8 764.227 871.142C757.376 873.485 752.516 886.309 756.439 894.565C761.768 905.808 780.447 900.421 793.505 914.416C798.426 919.913 801.622 926.734 802.699 934.033C802.81 929.695 802.337 925.362 801.293 921.15C799.477 917.03 798.732 912.518 799.127 908.033C799.341 906.272 800.073 904.614 801.23 903.269C802.387 901.924 803.917 900.953 805.627 900.479C815.803 897.815 826.219 896.168 836.72 895.561L853.292 895.092L869.922 895.561C880.424 896.168 890.839 897.815 901.016 900.479C902.722 900.949 904.248 901.92 905.396 903.267C906.545 904.614 907.263 906.274 907.457 908.033C907.909 912.52 907.161 917.047 905.29 921.15C904.242 925.36 903.788 929.697 903.944 934.033C904.993 926.738 908.171 919.914 913.078 914.416C926.137 900.362 944.816 905.808 950.145 894.565C954.01 886.309 949.091 873.602 942.415 871.142ZM791.632 905.574C789.467 903.961 787.198 902.494 784.839 901.182C777.227 896.907 773.713 897.083 771.371 893.628C769.029 890.173 768.795 884.435 771.371 882.795C773.948 881.156 778.925 882.795 792.803 894.507C791.808 896.153 791.188 897.997 790.985 899.91C790.783 901.822 791.004 903.756 791.632 905.574ZM875.661 892.574C875.184 892.868 874.65 893.057 874.095 893.128C873.539 893.199 872.975 893.15 872.44 892.984C859.729 891.657 846.914 891.657 834.202 892.984C833.667 893.15 833.103 893.199 832.548 893.128C831.992 893.057 831.458 892.868 830.982 892.574C830.585 892.099 830.291 891.547 830.12 890.952C829.948 890.357 829.903 889.733 829.986 889.119C831.86 861.422 824.131 833.9 821.496 806.203C820.969 800.347 820.149 792.676 824.716 788.636C827.82 785.767 832.504 784.888 840.819 784.888H865.823C874.138 784.888 878.823 785.767 881.926 788.636C886.494 792.735 885.674 800.347 885.088 806.203C882.512 833.9 874.782 861.422 876.598 889.119C876.709 889.729 876.682 890.355 876.52 890.953C876.358 891.551 876.064 892.105 875.661 892.574ZM935.271 893.628C932.929 897.083 929.416 896.907 921.803 901.182C919.444 902.494 917.175 903.961 915.011 905.574C915.649 903.778 915.896 901.867 915.734 899.968C915.573 898.069 915.007 896.227 914.074 894.565C927.952 882.854 933.339 881.273 935.506 882.854C937.672 884.435 937.614 890.173 935.447 893.628H935.271Z" fill="#ECECEC"/>
<path d="M1070.61 789.573C1069.87 786.836 1068.55 784.289 1066.74 782.107C1064.93 779.924 1062.68 778.157 1060.12 776.925C1055.31 775.283 1050.05 775.59 1045.47 777.779C1040.88 779.968 1037.34 783.865 1035.59 788.636C1034.8 791.111 1034.7 793.753 1035.3 796.279C1035.9 798.806 1037.17 801.123 1038.98 802.983C1043.14 806.32 1047.65 803.393 1053.57 805.969C1056.11 807.349 1058.34 809.235 1060.12 811.511C1061.9 813.788 1063.2 816.405 1063.93 819.203C1062.75 817.523 1061.22 816.127 1059.44 815.114C1057.65 814.101 1055.67 813.498 1053.62 813.347C1047.77 813.699 1044.25 820.14 1041.44 825.059C1037.83 832.719 1035.65 840.974 1035 849.418C1032.19 869.152 1034.3 874.89 1035.59 877.701C1036.88 880.512 1039.86 886.777 1043.79 886.66C1047.71 886.543 1049.29 879.868 1058.19 864.877C1060.3 861.188 1062.23 858.202 1063.64 856.094C1061.27 860.259 1059.78 864.866 1059.26 869.629C1058.73 874.392 1059.19 879.212 1060.6 883.791C1062.01 888.371 1064.34 892.614 1067.45 896.259C1070.56 899.905 1074.39 902.875 1078.69 904.989C1076.31 904.325 1073.82 904.169 1071.38 904.532C1068.93 904.896 1066.6 905.769 1064.52 907.097C1061.48 909.493 1059.4 912.901 1058.66 916.7C1056.61 924.839 1065.74 942.114 1083.19 960.383C1075.96 956.025 1069.46 950.55 1063.93 944.163C1048.94 926.596 1052.69 916.524 1044.08 906.804C1025.28 885.489 972.054 914.65 960.753 896.849C959.581 894.975 959.699 886.777 959.816 870.323C959.816 851.995 961.162 843.738 958.293 842.801C955.424 841.864 950.915 848.188 948.866 852.229C946.783 856.538 946.009 861.363 946.64 866.107C945.157 862.595 944.393 858.822 944.393 855.01C944.393 851.198 945.157 847.425 946.64 843.914C949.802 837.297 956.302 833.139 954.838 828.162C954.558 827.331 954.113 826.566 953.529 825.912C952.946 825.258 952.236 824.728 951.442 824.356C947.05 822.424 939.731 826.698 933.875 835.482C935.569 831.887 937.714 828.522 940.258 825.468C947.343 816.978 951.969 817.739 956.185 812.293C964.969 800.582 955.775 780.087 954.019 776.047C951.486 770.132 947.916 764.719 943.478 760.061C954.179 766.963 962.737 776.719 968.189 788.226C986.342 828.279 958.879 864.994 978.261 884.552C989.387 895.737 1011.58 896.264 1020.54 887.656C1025.75 882.737 1025.81 875.944 1024.4 854.981C1020.01 791.037 1026.51 779.501 1032.89 774.407C1036.32 771.823 1040.35 770.151 1044.61 769.547C1055.56 767.849 1069.55 772.767 1071.66 781.609C1072.18 784.308 1071.81 787.104 1070.61 789.573Z" fill="#ECECEC"/>
<path d="M422.023 306.246C421.342 304.12 420.814 301.948 420.442 299.747C420.093 295.817 420.616 291.859 421.972 288.154C423.328 284.45 425.485 281.09 428.289 278.315C433.011 273.479 438.3 269.232 444.041 265.666C453 259.342 455.225 257.527 456.279 253.955C457.802 248.509 455.459 241.307 451.536 240.077C447.613 238.847 444.978 242.01 440.293 245.933C437.057 248.888 434.222 252.254 431.861 255.946C435.312 248.191 440.82 241.528 447.788 236.681C461.491 227.37 480.99 225.672 493.873 234.163C506.755 242.654 508.219 257.293 512.142 256.239C516.066 255.185 517.295 244.996 512.845 237.325C511.157 234.476 508.718 232.144 505.796 230.585C502.874 229.026 499.58 228.299 496.273 228.483C502.475 227.647 508.761 229.219 513.84 232.875C524.439 241.248 524.79 259.752 518.759 271.522C512.376 284.17 500.841 284.756 501.192 292.134C501.485 302.616 523.912 305.719 524.615 317.665C524.507 323.845 522.814 329.894 519.696 335.232C518.818 336.696 517.647 338.335 518.232 339.214C518.818 340.092 524.088 338.862 526.254 337.75C532.049 334.682 536.494 329.568 538.727 323.403C536.673 331.629 532.939 339.341 527.759 346.052C522.579 352.764 516.065 358.331 508.629 362.402C492.877 370.425 474.139 370.249 466.936 366.208C466.234 365.857 464.009 364.979 461.081 363.808C456.684 362.619 452.021 362.886 447.788 364.569C440.066 366.196 432.088 366.196 424.366 364.569C415.982 362.539 408.544 357.704 403.285 350.867C407.043 354.62 411.799 357.217 416.989 358.349C422.179 359.48 427.584 359.098 432.564 357.249C445.856 351.394 451.946 334.119 447.554 326.039C445.27 321.822 441.347 322.467 436.78 317.021C432.785 311.763 430.718 305.292 430.924 298.692C432.856 307.359 436.78 313.917 441.23 314.093C447.086 314.093 452.004 303.318 452.004 294.242C452.004 292.895 452.004 281.594 445.27 278.49C438.536 275.387 429.987 282.238 425.888 288.504C422.494 293.755 421.121 300.059 422.023 306.246ZM514.133 320.886C512.669 309.818 485.44 294.418 467.288 308.354C452.941 319.422 452.531 343.079 460.788 349.695C473.905 360.06 516.066 335.759 514.133 320.886ZM464.418 295.589C476.13 302.909 508.922 283.585 506.872 264.964C505.467 252.316 488.017 239.55 475.369 243.766C466.995 246.518 463.657 255.887 461.549 260.572C456.982 272.342 456.338 290.553 464.418 295.589Z" fill="#ECECEC"/>
<path d="M405.453 658.406C404.81 656.348 404.282 654.256 403.872 652.14C403.527 648.211 404.051 644.254 405.407 640.55C406.764 636.846 408.918 633.486 411.719 630.708C416.456 625.89 421.742 621.645 427.47 618.06C436.43 611.736 438.655 609.921 439.709 606.349C441.231 600.903 438.947 593.7 434.966 592.412C430.984 591.124 428.407 594.345 423.781 598.268C420.46 601.156 417.527 604.463 415.056 608.105C418.514 600.338 424.019 593.658 430.984 588.782C444.686 579.53 464.185 577.832 477.126 586.322C490.068 594.813 491.414 609.394 495.396 608.34C499.378 607.286 500.491 597.155 496.04 589.426C494.36 586.692 491.984 584.454 489.154 582.942C486.325 581.429 483.143 580.696 479.937 580.818C486.146 580.005 492.431 581.597 497.504 585.268C507.986 593.466 507.986 611.97 502.13 623.74C496.275 635.51 484.563 636.915 484.563 644.352C484.563 654.775 507.283 657.937 507.986 669.883C507.815 676.062 506.104 682.1 503.009 687.45C502.13 688.855 501.018 690.553 501.545 691.373C502.072 692.193 507.4 691.373 509.625 689.909C515.406 686.823 519.846 681.716 522.098 675.563C520.028 683.782 516.287 691.486 511.109 698.195C505.93 704.905 499.426 710.476 492 714.562C476.248 722.584 457.451 722.467 450.249 718.426C449.605 718.075 447.321 717.138 444.393 716.026C439.999 714.811 435.327 715.078 431.101 716.787C423.374 718.379 415.405 718.379 407.678 716.787C399.311 714.72 391.898 709.867 386.656 703.026C390.41 706.786 395.166 709.387 400.358 710.519C405.549 711.65 410.956 711.265 415.935 709.409C429.227 703.553 435.317 685.986 430.984 678.256C428.7 674.04 424.718 674.626 420.151 669.239C416.259 663.995 414.202 657.616 414.295 651.086C416.227 659.694 420.151 666.311 424.601 666.486C430.457 666.486 435.375 655.653 435.375 646.636C435.375 645.289 435.376 633.929 428.641 630.884C421.907 627.839 413.358 634.632 409.318 640.897C405.98 646.084 404.609 652.295 405.453 658.406ZM497.563 673.045C496.157 661.978 468.87 646.636 450.717 660.514C436.43 671.64 435.961 695.238 444.276 701.913C457.393 712.219 499.554 687.918 497.563 673.045ZM447.907 647.748C459.618 655.126 492.351 635.744 490.302 617.123C488.896 604.475 471.505 591.709 458.857 595.926C450.483 598.678 447.145 608.047 444.979 612.79C440.47 624.501 439.767 642.771 447.907 647.748Z" fill="#ECECEC"/>
<path d="M210.874 1337.89C209.937 1327.24 208.766 1317.69 208.356 1307.86C206.848 1273.21 211.143 1238.55 221.063 1205.32C227.608 1184.44 235.995 1164.18 246.125 1144.77C260.354 1114.56 263.692 1105.78 265.566 1088.03C268.025 1061.92 264.336 1027.49 258.07 1021.45C253.035 1016.65 247.589 1030.65 240.211 1050.21C234.538 1065.49 229.902 1081.14 226.333 1097.05C229.553 1075.91 236.873 1035.1 251.746 1004.77C273.471 960.32 304.447 952.064 325.118 993.054C345.086 1032.46 347.897 1103.61 354.396 1098.46C359.374 1094.42 362.536 1044.76 355.45 1007.99C350.297 981.284 340.518 965.122 329.803 965.591C335.658 964.068 347.721 963.717 357.441 986.788C374.247 1026.9 375.008 1115.61 365.288 1171.77C355.099 1232.08 336.771 1234.89 337.122 1270.38C337.532 1320.33 373.193 1335.44 374.189 1392.53C374.109 1421.03 371.483 1449.46 366.342 1477.49C364.616 1483.64 363.845 1490.02 364.058 1496.41C365.464 1502.79 372.959 1494.83 376.824 1489.32C381.274 1482.88 390.116 1466.31 396.674 1420.64C395.269 1438.2 385.314 1551.51 348.775 1607.37C323.713 1645.79 293.849 1645.03 282.313 1625.7C279.415 1621.61 276.267 1617.7 272.885 1613.99C265.683 1605.91 258.656 1611.76 251.688 1617.62C246.189 1621.31 239.717 1623.28 233.096 1623.28C226.475 1623.28 220.003 1621.31 214.504 1617.62C207.126 1612.94 194.536 1599.35 181.01 1551.98C194.419 1589.45 212.748 1601.69 227.855 1582.43C249.053 1555.2 258.773 1471.81 251.805 1433.28C248.174 1413.08 241.909 1415.72 234.589 1390.13C226.918 1362.78 225.162 1328.35 224.927 1302.29C227.972 1343.69 234.531 1375.14 241.323 1375.96C250.282 1377.13 258.48 1324.31 258.48 1281.04C258.48 1274.54 258.48 1220.37 247.764 1205.61C237.049 1190.86 223.463 1223.59 216.964 1253.51C211.502 1281.29 209.457 1309.62 210.874 1337.89ZM357.266 1408.16C354.923 1355.11 311.533 1281.56 283.016 1348.14C260.237 1401.31 259.593 1514.33 272.71 1546.12C293.497 1595.31 360.603 1479.08 357.5 1407.93L357.266 1408.16ZM278.39 1286.89C297.186 1322.03 349.185 1229.33 345.906 1140.5C343.68 1080.07 315.925 1018.88 295.781 1039.02C282.489 1052.08 276.692 1096.82 273.764 1119.54C266.503 1175.63 265.449 1262.82 278.39 1286.89Z" fill="#ECECEC"/>
<path d="M980.074 655.591C979.404 653.541 978.876 651.448 978.493 649.325C978.113 645.358 978.62 641.356 979.977 637.609C981.334 633.862 983.508 630.463 986.34 627.659C991.062 622.824 996.351 618.577 1002.09 615.011C1011.05 608.687 1013.28 606.872 1014.33 603.3C1015.85 597.795 1013.57 590.593 1009.59 589.363C1005.61 588.134 1003.03 591.296 998.344 595.219C995.065 598.133 992.155 601.436 989.678 605.057C993.197 597.373 998.744 590.793 1005.72 586.026C1019.42 576.715 1038.92 575.075 1051.81 583.508C1064.69 591.94 1066.15 606.93 1070.08 605.584C1074 604.237 1075.23 594.341 1070.78 586.67C1069.13 583.893 1066.76 581.608 1063.93 580.053C1061.1 578.498 1057.9 577.73 1054.68 577.828C1060.88 576.992 1067.16 578.564 1072.24 582.219C1082.84 590.652 1083.19 609.156 1077.22 620.925C1071.25 632.695 1059.3 634.101 1059.65 641.537C1059.65 651.961 1082.37 655.123 1083.08 667.01C1082.95 673.188 1081.26 679.233 1078.16 684.577C1077.28 685.982 1076.11 687.68 1076.69 688.5C1077.28 689.32 1082.55 688.207 1084.72 687.036C1090.53 683.975 1094.99 678.861 1097.25 672.69C1095.18 680.908 1091.44 688.613 1086.26 695.322C1081.08 702.032 1074.57 707.603 1067.15 711.688C1051.34 719.711 1032.6 719.535 1025.4 715.553C1023.5 714.635 1021.54 713.833 1019.54 713.152C1015.15 711.933 1010.47 712.201 1006.25 713.914C998.523 715.506 990.553 715.506 982.827 713.914C974.466 711.834 967.056 706.984 961.805 700.153C965.555 703.919 970.311 706.524 975.504 707.656C980.697 708.788 986.106 708.399 991.083 706.535C1004.38 700.68 1010.47 683.113 1006.13 675.383C1003.79 671.167 999.867 671.753 995.299 666.366C991.338 661.09 989.275 654.632 989.443 648.037C991.376 656.645 995.299 663.203 999.749 663.379C1005.61 663.379 1010.52 652.605 1010.52 643.587C1010.52 642.182 1010.52 630.88 1003.79 627.777C997.056 624.673 988.507 631.583 984.466 637.79C980.889 642.993 979.328 649.321 980.074 655.591ZM1072.18 670.23C1070.72 659.163 1043.49 643.763 1025.34 657.699C1011.05 668.825 1010.58 692.423 1018.9 699.04C1032.01 709.639 1074.18 685.104 1072.18 670.23ZM1022.47 645.227C1034.18 652.546 1066.97 633.515 1064.92 614.601C1063.52 601.953 1046.07 589.188 1033.42 593.404C1025.1 596.156 1021.71 605.525 1019.6 610.21C1015.03 621.804 1014.39 639.898 1022.47 645.227Z" fill="#ECECEC"/>
<path d="M1167.16 352.447C1167.14 329.728 1161.63 307.351 1151.12 287.214C1131.26 251.436 1098.41 239.081 1102.16 229.946C1104.74 223.797 1121.66 224.441 1135.54 226.901C1192.05 237.09 1224.84 289.381 1235.09 306.889C1232.92 302.029 1194.1 217.649 1127.87 216.478C1110.59 216.451 1093.68 221.522 1079.27 231.058C1129.63 255.067 1152.11 298.047 1141.75 326.33C1137.92 335.345 1131.74 343.16 1123.84 348.952C1115.95 354.744 1106.64 358.298 1096.89 359.239C1051.86 363.045 1033.65 299.218 992.837 302.205C952.022 305.191 925.379 371.302 926.257 371.887C927.136 372.473 953.135 310.11 992.368 309.232C1031.6 308.353 1043.37 368.315 1090.16 368.081C1109.77 368.081 1133.96 358.302 1144.32 340.559C1154.69 322.817 1150.82 302.322 1154.28 302.205C1156.44 302.205 1158.49 310.286 1161.71 323.402C1164.07 332.975 1165.89 342.671 1167.16 352.447Z" fill="#ECECEC"/>
<path d="M827.062 565.53C811.369 563.949 806.509 531.333 809.086 530.045C810.432 529.342 813.302 538.418 822.144 541.346C826.373 542.384 830.796 542.338 835.003 541.212C839.21 540.086 843.065 537.917 846.211 534.905C845.859 534.026 837.31 539.706 827.941 536.72C817.576 533.499 812.95 521.788 806.275 504.865C803.757 498.6 797.023 481.442 801.297 478.69C803.054 477.578 805.748 478.69 807.153 479.686C816.991 484.487 818.103 497.897 818.22 499.537C819.031 495.418 818.871 491.168 817.752 487.122C817.196 485.405 816.491 483.74 815.644 482.145C810.432 472.659 789.879 463.934 771.258 468.56C765.929 469.907 762.474 472.073 762.064 471.371C761.655 470.668 778.519 462.646 791.928 446.953C808.676 427.219 806.158 409.476 821.207 403.679C826.219 401.932 831.633 401.687 836.783 402.976C831.432 400 825.14 399.203 819.216 400.751C810.784 403.562 807.504 412.463 804.284 411.291C801.063 410.12 804.284 401.747 800.361 395.188C798.096 392.675 795.307 390.69 792.19 389.374C789.073 388.059 785.706 387.445 782.325 387.576C787.719 389.006 792.443 392.279 795.676 396.828C806.041 412.814 787.127 438.52 784.609 437.818C783.379 437.408 786.19 430.381 782.676 420.251C781.872 417.925 780.832 415.689 779.573 413.575C781.344 420.422 781.665 427.563 780.515 434.541C779.366 441.519 776.771 448.18 772.897 454.096C766.281 463.583 753.749 473.83 748.831 470.902C741.628 466.628 759.312 440.043 750.822 405.143C749.3 398.939 747.08 392.928 744.205 387.225C747.835 403.328 747.308 408.247 745.61 408.891C742.975 409.945 738.817 400.4 729.858 399.112C725.727 398.735 721.593 399.79 718.147 402.098C721.375 401.724 724.645 402.112 727.696 403.23C730.747 404.349 733.493 406.167 735.714 408.539C739.344 413.4 739.579 420.719 737.88 421.48C736.182 422.242 735.597 419.489 732.61 417.967C730.342 417.118 727.922 416.748 725.504 416.879C723.086 417.01 720.72 417.639 718.557 418.728C724.677 419.079 730.498 421.494 735.07 425.579C738.924 429.84 741.66 434.991 743.033 440.57C744.191 445.305 743.522 450.301 741.16 454.565C738.348 459.518 734.443 463.764 729.741 466.979C725.293 470.069 721.343 473.821 718.03 478.105C715.134 481.89 713.038 486.225 711.87 490.845C710.703 495.466 710.487 500.276 711.237 504.982C711.583 506.049 712.055 507.071 712.642 508.027C712.01 504.305 712.235 500.487 713.301 496.864C714.366 493.242 716.244 489.91 718.791 487.122C719.552 486.361 727.282 479.159 732.435 481.267C742.214 485.541 744.146 523.662 727.633 530.63C717.093 535.022 704.21 525.067 702.102 523.662C679.207 507.559 632.654 482.087 578.723 486.537C497.271 493.388 470.51 561.841 402.584 551.184C372.018 546.382 338.933 526.121 334.834 501.352C326.753 453.511 425.304 385.526 466.997 408.364C471.909 411.081 476.115 414.912 479.278 419.549C482.44 424.186 484.472 429.501 485.208 435.066C489.951 482.262 381.504 526.707 383.085 529.635C385.017 533.968 590.435 428.566 590.259 428.566C580.89 432.489 496.568 477.226 485.384 464.929C480.933 460.128 486.32 444.669 496.451 434.714C525.729 405.787 590.142 428.858 590.142 428.566C590.142 428.273 487.667 382.716 357.847 406.9C236.342 429.327 191.78 495.379 186.51 503.928C215.788 476.231 276.277 424.935 341.158 423.354C346.253 423.354 366.045 423.003 368.329 430.322C372.955 445.02 298.529 466.569 292.205 512.302C290.914 525.585 294.199 538.91 301.515 550.071C298.575 544.083 296.873 537.564 296.511 530.904C296.149 524.243 297.134 517.578 299.407 511.306C304.092 499.595 313.929 487.884 321.132 489.348C328.334 490.812 327.632 506.915 334.073 521.495C348.244 553.175 392.63 562.485 401.237 564.066C468.753 578.003 495.455 503.401 580.48 494.559C638.158 488.704 686.702 516.577 707.021 529.693C717.854 540.585 733.723 545.621 741.452 540.819C754.921 532.563 736.826 500.181 754.276 483.726C762.182 476.289 776.879 473.245 785.663 478.807C800.068 487.942 787.419 513.942 804.167 549.544C808.441 558.679 815.878 574.723 826.594 574.841C836.139 574.841 845.976 562.309 851.305 543.63C846.445 557.391 835.905 566.408 827.062 565.53Z" fill="#ECECEC"/>
<path d="M1024.69 1444.41C1033.71 1446.76 1041.32 1493.48 1045.13 1551.05C1047.06 1506.37 1047 1448.22 1035.06 1414.2C1026.92 1390.78 1020.42 1399.21 1011.63 1376.02C991.842 1323.96 993.716 1198.83 1003.67 1187.7C1008.77 1181.85 1015.97 1205.62 1018.84 1217.68C1026.51 1250.18 1026.04 1298.02 1017.37 1340.65C1020.98 1326.75 1023.68 1312.63 1025.45 1298.37C1036.4 1214.11 1019.31 1126.1 1012.57 1091.32C1003.32 1043.77 986.631 957.69 953.019 934.853C913.435 907.975 870.396 982.693 857.396 1079.72C854.82 1099.1 853.766 1116.85 853.297 1130.37C857.982 1088.51 866.941 1059.64 876.72 1058.58C877.54 1058.58 883.981 1057.76 887.026 1070.29C890.539 1084.76 887.436 1109.47 882.693 1136.41C867.234 1224.53 851.306 1239.58 842.347 1302.94C838.068 1334.98 836.403 1367.31 837.37 1399.62C840.415 1339.95 847.09 1300.6 854.937 1298.9C861.378 1297.44 866.648 1322.85 868.288 1329.53C885.855 1411.09 873.206 1588.05 837.253 1628.81C831.397 1635.48 820.564 1643.39 804.988 1631.09C810.843 1644.44 820.447 1660.72 831.338 1657.62C845.86 1653.46 855.522 1616.63 858.274 1624.18C865.594 1643.74 852.067 1674.31 852.067 1674.31C844.045 1705.05 828.645 1745.22 795.97 1756.29C766.223 1766.59 749.71 1743.05 703.45 1731.81C617.782 1710.91 583.702 1768.29 473.908 1756.81C433.796 1752.6 394.797 1738.9 388.122 1725.49C379.046 1707.22 428.351 1686.43 517.942 1681.39C482.372 1673.1 446.104 1668.16 409.612 1666.64C263.982 1660.78 183.642 1712.78 179.191 1715.77C209.29 1703.35 265.621 1685.61 356.209 1681.1C366.163 1680.57 408.09 1678.47 416.405 1682.51C416.74 1682.63 417.042 1682.83 417.283 1683.09C421.324 1688.19 352.344 1697.55 328.043 1724.55C306.904 1747.97 326.813 1776.43 327.574 1776.43C326.58 1763.08 330.334 1749.81 338.173 1738.95C342.155 1733.92 347.718 1727.65 355.74 1727.77C367.92 1727.77 374.01 1743.05 387.127 1753.24C415.819 1775.49 479.646 1775.03 509.627 1774.79C532.658 1774.7 555.632 1772.49 578.256 1768.17C649.461 1754.53 668.785 1741.47 693.437 1740.36C700.479 1740.28 707.514 1740.83 714.459 1742C764.408 1749.49 779.808 1777.13 802.997 1774.73C816.348 1773.39 833.681 1761.97 851.423 1718.23C862.072 1690.79 870.302 1662.48 876.017 1633.61C905.764 1486.28 881.112 1073.22 915.484 1028.95C924.151 1017.83 935.745 1031.12 944.236 1040.66C964.262 1063.62 974.978 1110.93 978.433 1126.68C1007.71 1256.68 969.474 1586 994.185 1622.89C996.878 1626.94 1007.48 1638.24 1020.42 1634.61C1024.67 1633.19 1028.51 1630.76 1031.6 1627.52C1030.08 1627.52 1009.94 1630.04 1001.68 1591.27C990.027 1536.35 1011.17 1440.96 1024.69 1444.41ZM976.442 1048.51C974.393 1054.37 963.794 1007.11 943.065 998.504C923.799 990.54 910.741 1021.93 908.985 1012.91C906.818 1002.08 922.57 939.479 941.894 941.645C965.199 944.28 978.901 1040.84 976.442 1048.51Z" fill="#ECECEC"/>
<path d="M859.914 1787.55L864.54 1790.6C864.54 1790.6 863.076 1789.55 859.914 1787.55Z" fill="#ECECEC"/>
<path d="M975.861 528.115C972.406 531.16 964.676 537.894 959.406 535.61C950.388 531.687 962.685 507.737 958.176 467.157C955.424 442.563 947.87 423.884 958.938 411.235C961.105 408.796 963.732 406.806 966.667 405.38C962.613 405.023 958.543 405.857 954.956 407.781C936.745 418.321 957.825 454.626 941.781 495.616C932.294 519.741 912.854 537.835 904.831 535.317C898.976 533.502 893.823 518.98 892.066 510.606C892.066 510.079 892.066 509.669 892.066 509.435C886.21 479.63 901.259 457.32 893.003 434.19C891.276 429.552 889.016 425.131 886.269 421.014C881.599 414.838 875.94 409.476 869.521 405.146C873.2 409.141 876.385 413.565 879.008 418.321C894.935 447.131 890.368 489.936 865.305 506.156C861.818 508.378 858.032 510.093 854.062 511.25C857.543 511.921 861.139 511.658 864.486 510.489C868.526 508.908 869.404 506.742 871.278 506.976C875.904 507.678 881.291 522.025 875.436 528.349C871.747 532.389 865.95 530.516 856.815 536.43C854.737 537.762 852.778 539.271 850.959 540.939C863.103 538.383 875.647 538.383 887.791 540.939C898.156 543.281 904.129 547.321 913.439 545.33C920.168 543.6 926.262 539.984 931.006 534.907C942.717 524.25 946.407 512.363 948.573 513.007C949.452 513.3 949.042 515.759 948.924 519.331C948.807 522.903 948.222 538.889 954.487 543.222C959.699 546.853 969.361 543.222 975.158 539.65C996.063 525.948 993.779 491.165 992.725 490.99C991.671 490.814 992.256 513.534 975.861 528.115Z" fill="#ECECEC"/>
<path d="M1221.26 698.925C1217.81 701.97 1210.08 708.704 1204.81 706.421C1195.79 702.497 1208.09 678.548 1203.58 637.968C1200.83 613.433 1193.27 594.753 1204.34 582.046C1206.54 579.642 1209.16 577.658 1212.07 576.19C1208.02 575.864 1203.96 576.696 1200.36 578.591C1182.15 589.19 1203.17 625.437 1187.18 666.426C1177.7 690.552 1158.26 708.646 1150.18 706.187C1144.32 704.313 1139.23 689.791 1137.47 681.476C1137.47 680.949 1137.47 680.539 1137.47 680.246C1131.61 650.44 1146.66 628.13 1138.41 605C1136.68 600.363 1134.42 595.941 1131.67 591.825C1127.09 585.779 1121.58 580.502 1115.33 576.19C1119.01 580.163 1122.2 584.568 1124.82 589.307C1140.75 618.117 1136.18 660.981 1111.12 677.142C1107.63 679.347 1103.84 681.043 1099.87 682.178C1103.35 682.881 1106.96 682.617 1110.3 681.417C1114.34 679.836 1115.22 677.669 1117.09 677.962C1121.72 678.606 1127.1 693.011 1121.25 699.335C1117.56 703.317 1111.76 701.443 1102.63 707.358C1100.55 708.69 1098.59 710.198 1096.77 711.866C1108.92 709.31 1121.46 709.31 1133.6 711.866C1143.97 714.209 1149.94 718.249 1159.25 716.317C1165.98 714.543 1172.06 710.91 1176.82 705.835C1188.53 695.178 1192.22 683.349 1194.39 683.993C1195.26 683.993 1194.85 686.746 1194.74 690.259C1194.62 693.772 1194.03 709.817 1200.3 714.209C1205.51 717.839 1215.17 714.209 1220.97 710.578C1241.88 696.876 1239.59 662.152 1238.54 661.976C1237.48 661.8 1237.66 684.579 1221.26 698.925Z" fill="#ECECEC"/>
</svg>
