<svg width="1400" height="2000" viewBox="0 0 1400 2000" fill="none" xmlns="http://www.w3.org/2000/svg">
<rect width="1399.32" height="2000" transform="translate(0.0078125)" fill="#141414"/>
<path d="M1087.95 1050.28C1082.68 1054.06 1078.4 1059.06 1075.48 1064.85C1072.59 1070.06 1071.16 1075.96 1071.34 1081.92C1071.75 1090.61 1077.58 1104.07 1087.78 1104.71C1096.64 1105.29 1103.16 1095.74 1103.75 1094.8C1102.85 1098.2 1101.26 1101.37 1099.08 1104.13C1094.82 1108.82 1089.23 1112.11 1083.06 1113.57C1063.07 1120.97 1055.96 1179.19 1067.09 1183.97C1072.63 1186.36 1084.57 1176.45 1087.55 1164.62C1088.91 1158.33 1088.05 1151.76 1085.1 1146.03C1087.63 1148.46 1089.61 1151.4 1090.93 1154.66C1093.48 1161.16 1093.48 1168.38 1090.93 1174.88C1087.14 1183.45 1079.97 1184.9 1080.38 1191.08C1080.43 1192.36 1080.79 1193.6 1081.42 1194.72C1082.05 1195.83 1082.93 1196.78 1083.99 1197.49C1088.89 1200.11 1098.56 1194.4 1107.77 1182.69C1098.44 1198.48 1085.51 1209.67 1075.02 1207.57C1061.03 1204.72 1049.14 1177.68 1053.45 1157.75C1054.85 1151.33 1058.29 1144.05 1054.5 1138.11C1053.34 1136.2 1051.64 1134.69 1049.62 1133.77C1047.59 1132.84 1045.33 1132.55 1043.14 1132.92C1040.39 1134.12 1038.18 1136.3 1036.95 1139.04C1035.73 1141.77 1035.56 1144.87 1036.49 1147.72C1037.33 1150.2 1038.89 1152.37 1040.96 1153.95C1043.04 1155.54 1045.54 1156.48 1048.15 1156.64C1044.31 1157.21 1040.4 1156.49 1037.02 1154.6C1028.45 1149.41 1030.43 1137.7 1021.81 1134.08C1020.41 1133.44 1018.89 1133.1 1017.35 1133.1C1015.81 1133.1 1014.29 1133.44 1012.89 1134.08C1011.37 1135.13 1011.32 1136.12 1009.98 1137.81C1007.74 1140.37 1004.61 1141.98 1001.23 1142.3C1010.44 1131.58 1008.93 1118.99 1003.57 1115.09C999.136 1112.11 990.453 1114.09 983.518 1120.56C985.907 1118.29 1010.21 1093.99 1003.39 1066.48C1002.01 1061.03 999.573 1055.9 996.222 1051.39C1000.83 1054.47 1004.79 1058.43 1007.88 1063.04C1022.51 1086.35 1007.53 1109.67 1019.53 1121.32C1028.45 1129.95 1049.66 1128.55 1058.81 1118.52C1071.29 1104.94 1055.73 1081.92 1069.83 1063.04C1074.47 1057.09 1080.78 1052.65 1087.95 1050.28Z" fill="#ECECEC"/>
<path d="M813.697 1443.37C808.944 1440.02 803.251 1438.26 797.437 1438.35C784.79 1438.82 781.177 1449.43 767.54 1450.01C759.439 1450.36 757.691 1446.86 751.28 1448.9C745.031 1451.39 740.022 1456.25 737.351 1462.42C731.524 1474.08 733.68 1489.17 738.4 1490.63C741.489 1491.62 743.296 1485.91 749.124 1485.79C756.292 1485.79 760.372 1493.95 763.81 1492.32C766.258 1491.21 764.801 1486.96 768.006 1482.65C770.216 1479.89 773.336 1478.01 776.806 1477.34C775.264 1478.24 773.94 1479.47 772.932 1480.94C771.924 1482.41 771.257 1484.09 770.978 1485.85C770.162 1493.72 780.653 1501.47 789.919 1502.64C794.218 1502.8 798.502 1502.02 802.462 1500.34C806.422 1498.65 809.96 1496.12 812.823 1492.9C817.07 1488.9 820.34 1483.98 822.38 1478.51C821.797 1480.96 816.552 1500.01 799.768 1506.77C794.233 1509.02 788.2 1509.77 782.284 1508.93C772.494 1507.41 770.629 1501.94 761.945 1500.95C758.375 1500.6 754.772 1500.98 751.349 1502.05C747.926 1503.12 744.752 1504.86 742.014 1507.18C727.444 1519.89 735.778 1545.3 737.002 1549.08C739.1 1555.49 741.081 1561.26 746.21 1563.54C754.077 1566.98 758.507 1557.01 772.902 1556.72C781.527 1556.72 782.925 1560.04 798.486 1560.86C802.638 1561.25 806.826 1561 810.899 1560.1C816.553 1558.61 821.743 1555.72 825.994 1551.71C824.932 1553.83 823.579 1555.79 821.972 1557.53C812.123 1567.91 796.971 1565.4 796.854 1567.62C796.738 1569.83 809.734 1573.79 820.166 1569.71C821.206 1569.32 822.219 1568.85 823.196 1568.32C817.67 1573.22 810.594 1576.03 803.207 1576.24C791.551 1575.48 790.735 1563.83 779.895 1562.78C768.239 1561.61 765.617 1574.44 751.688 1574.96C741.489 1575.37 736.186 1567.85 729.309 1571.4C726.358 1573.38 723.021 1574.71 719.518 1575.31C718.148 1575.53 716.751 1575.53 715.38 1575.31C724.705 1569.19 729.251 1560.1 727.036 1552.99C725.929 1549.38 722.665 1545.12 719.052 1545C713.224 1545 708.387 1555.73 706.813 1561.91C706.269 1564.06 705.956 1566.27 705.881 1568.49C705.092 1560.52 706.398 1552.49 709.669 1545.18C712.593 1540.22 715.824 1535.45 719.343 1530.9C724.588 1522.68 732.981 1509.45 728.377 1502.69C726.927 1500.84 724.857 1499.58 722.549 1499.14C713.574 1496.46 704.366 1504.03 704.074 1503.51C709.897 1500.16 715.199 1495.98 719.81 1491.1C729.833 1478.74 727.91 1461.55 727.036 1454.32C725.767 1443.82 722.098 1433.75 716.313 1424.89C719.691 1428.8 723.617 1432.19 727.969 1434.97C741.373 1443.54 756.525 1444.88 757.108 1443.07C757.691 1441.27 753.087 1440.74 748.949 1435.09C747.221 1432.76 745.883 1430.16 744.986 1427.4C757.166 1442.26 765.558 1444.88 771.095 1443.77C776.631 1442.67 781.352 1437.95 793.998 1435.56C796.932 1434.88 799.982 1434.88 802.915 1435.56C807.324 1436.79 811.147 1439.56 813.697 1443.37Z" fill="#ECECEC"/>
<path d="M423.115 1563.83C420.338 1558.15 418.376 1552.11 417.287 1545.88C415.94 1537.2 416.058 1528.35 417.637 1519.71C425.038 1483.87 463.502 1467.26 457.208 1453.45C456.499 1452.11 455.523 1450.94 454.34 1449.99C453.157 1449.05 451.792 1448.36 450.331 1447.97C439.258 1444.53 419.618 1471.28 417.811 1473.9C420.438 1464.59 425.019 1455.94 431.249 1448.53C437.479 1441.13 445.216 1435.13 453.944 1430.95C456.508 1429.79 480.752 1419.3 501.208 1429.38C508.752 1433.93 516.534 1438.07 524.52 1441.79C530.715 1444.27 537.229 1445.86 543.868 1446.51C541.342 1447.62 539.062 1449.23 537.161 1451.23C535.26 1453.23 533.776 1455.59 532.795 1458.17C529.882 1466.44 532.795 1477.69 540.43 1480.96C543.781 1482.28 547.511 1482.28 550.862 1480.96C550.475 1481.46 550.025 1481.91 549.521 1482.3C542.645 1488.12 526.21 1484.16 522.597 1476C519.275 1468.89 527.609 1463.36 525.044 1455.55C522.48 1447.74 509.018 1442.72 500.101 1442.72C473.118 1442.72 438.5 1482.18 446.251 1518.49C450.389 1538.01 467.581 1561.32 490.252 1561.56C496.766 1561.44 503.156 1559.75 508.871 1556.63C514.587 1553.5 519.457 1549.03 523.063 1543.61C526.127 1538.76 528.185 1533.35 529.116 1527.69C530.047 1522.04 529.832 1516.25 528.483 1510.68C527.78 1507.82 526.764 1505.04 525.452 1502.4C531.179 1508.4 535.139 1515.86 536.898 1523.96C538.656 1532.06 538.144 1540.5 535.418 1548.33C527.084 1569.89 503.19 1574.26 496.604 1575.48C477.547 1578.98 453.303 1573.27 442.93 1557.42C433.838 1543.55 437.859 1525.66 432.964 1525.01C429.409 1524.55 425.562 1533.58 424.688 1535.68C421.016 1544.62 420.462 1554.53 423.115 1563.83Z" fill="#ECECEC"/>
<path d="M831.532 354.256C828.77 348.57 826.808 342.529 825.704 336.306C824.224 327.646 824.224 318.798 825.704 310.138C833.106 274.297 871.57 257.688 865.276 243.875C864.555 242.537 863.568 241.361 862.375 240.419C861.182 239.476 859.809 238.789 858.34 238.397C847.326 234.959 827.686 261.709 825.879 264.331C828.505 255.016 833.086 246.368 839.317 238.962C845.547 231.556 853.284 225.562 862.012 221.38C864.518 220.273 888.762 209.724 909.276 219.865C916.823 224.392 924.604 228.516 932.588 232.22C938.752 234.729 945.251 236.319 951.878 236.94C946.797 239.217 942.818 243.405 940.805 248.596C937.949 256.872 940.805 268.119 948.498 271.441C951.853 272.746 955.575 272.746 958.93 271.441C958.526 271.911 958.077 272.341 957.589 272.723C950.712 278.551 934.278 274.588 930.606 266.429C927.343 259.319 935.676 253.783 933.054 245.974C930.431 238.164 917.085 233.21 908.169 233.152C881.186 233.152 846.568 272.607 854.261 308.915C858.457 328.438 875.591 351.808 898.261 351.983C904.787 351.892 911.192 350.209 916.921 347.081C922.649 343.953 927.526 339.474 931.131 334.033C934.165 329.121 936.173 323.645 937.034 317.936C937.896 312.227 937.592 306.403 936.143 300.814C935.44 297.952 934.423 295.177 933.112 292.538C938.829 298.541 942.778 306.004 944.526 314.106C946.274 322.209 945.753 330.637 943.02 338.462C934.744 360.083 910.85 364.454 904.264 365.62C885.207 369.117 860.963 363.464 850.589 347.612C841.44 333.683 845.519 315.792 840.565 315.15C837.069 314.684 833.222 323.717 832.348 325.816C828.858 334.928 828.57 344.958 831.532 354.256Z" fill="#ECECEC"/>
<path d="M683.798 291.02C687.047 291.644 690.389 291.594 693.617 290.872C696.845 290.15 699.891 288.772 702.564 286.824C710.839 280.122 711.714 267.767 710.198 259.899C707.809 247.427 698.95 244.164 698.251 231.109C698.072 227.152 698.645 223.197 699.941 219.453C699.326 222.629 699.326 225.894 699.941 229.069C700.044 232.034 701.274 234.848 703.38 236.937C704.876 237.673 706.521 238.055 708.188 238.055C709.855 238.055 711.5 237.673 712.996 236.937C723.078 233.266 724.651 222.367 735.958 217.006C741.877 214.488 748.424 213.837 754.723 215.141C780.075 217.938 804.727 241.949 808.806 269.282C809.497 274.309 809.497 279.407 808.806 284.434C800.705 265.086 796.684 260.773 794.528 261.123C790.507 262.114 789.982 281.054 794.528 296.673C798.688 310.563 806.239 323.201 816.499 333.447C793.537 323.015 774.83 320.742 770.226 327.619C766.437 333.447 771.916 345.744 777.161 352.737C781.607 357.999 786.789 362.592 792.546 366.374C792.08 367.19 780.891 360.547 766.437 354.719C750.644 348.891 742.718 345.627 733.626 345.277C721.929 345.125 710.344 347.573 699.708 352.446C689.976 356.525 681.583 361.945 681.234 361.421C680.884 360.896 704.545 349.124 703.496 337.177C703.147 333.33 699.941 327.386 696.736 327.91C695.494 328.162 694.321 328.679 693.297 329.426C689.581 331.455 685.263 332.095 681.117 331.232C687.847 329.439 693.778 325.437 697.96 319.868C704.604 310.602 705.653 296.906 701.34 294.109C699.417 292.885 697.61 294.109 692.248 293.759C689.228 293.67 686.296 292.72 683.798 291.02ZM759.56 265.028C755.875 260.74 753.813 255.295 753.733 249.642C753.733 240.725 759.968 236.879 758.104 229.594C757.492 227.419 756.369 225.421 754.828 223.769C753.287 222.116 751.372 220.856 749.245 220.095C741.552 217.589 733.51 224.99 730.596 227.671C717.425 239.851 717.949 259.724 718.183 264.212C718.824 278.548 724.01 279.83 724.01 292.185C723.253 309.669 712.355 315.206 715.443 321.849C719.756 331.349 748.371 333.971 765.855 320.334C780.249 309.145 781.182 291.195 783.047 255.412C783.63 244.688 783.047 236.238 778.035 233.149C775.758 232.196 773.262 231.893 770.824 232.274C768.386 232.655 766.101 233.704 764.223 235.305C756.705 240.609 754.782 252.731 759.677 265.028H759.56ZM798.724 319.926C801.696 315.847 790.157 299.062 783.746 300.578C781.24 301.16 779.725 304.482 779.434 306.872C778.734 312.7 784.737 316.837 785.902 317.653C790.273 320.567 797.15 322.316 798.84 319.926H798.724Z" fill="#ECECEC"/>
<path d="M356.27 339.566C353.064 337.41 340.068 364.043 321.302 364.509C317.188 364.27 313.163 363.213 309.461 361.402C305.759 359.591 302.454 357.062 299.739 353.961C303.13 356.223 306.941 357.781 310.945 358.542C314.95 359.303 319.067 359.251 323.051 358.39C330.688 355.941 337.133 350.723 341.117 343.762C347.295 334.612 344.905 331.407 349.509 320.451C356.561 304.133 371.539 297.139 369.849 294.517C368.916 293.001 365.012 296.032 357.727 294.517C353.391 293.649 349.366 291.637 346.071 288.689C344.894 287.065 343.456 285.647 341.817 284.493C341.817 284.493 337.679 282.22 335.231 283.269C332.783 284.318 330.685 291.486 333.424 300.053C327.209 291.711 324.06 281.481 324.508 271.088C325.438 259.622 330.687 248.936 339.194 241.191C347.43 233.223 358.237 228.45 369.674 227.729C387.158 227.204 391.587 237.928 404.641 233.557C413.528 230.447 420.996 224.24 425.68 216.073C424.588 222.235 422.161 228.083 418.57 233.207C413.966 240.201 410.411 240.842 408.196 246.029C404.583 255.12 408.896 268.291 414.782 269.34C419.269 270.273 424.048 263.92 428.011 258.675C433.586 251.152 437.445 242.499 439.317 233.324C440.361 243.787 438.185 254.319 433.081 263.512C426.437 275.168 418.395 277.499 413.558 290.903C413.033 292.302 408.896 304.191 414.082 309.086C417.754 312.525 424.339 310.776 427.253 310.019C441.299 306.289 448.758 292.535 451.264 287.64C449.258 295.79 445.609 303.445 440.541 310.135C429.41 324.472 417.754 324.88 414.432 336.361C413.282 340.797 413.464 345.473 414.957 349.806C416.449 354.139 419.186 357.935 422.824 360.721C426.235 363.033 430.222 364.35 434.339 364.525C438.456 364.7 442.541 363.726 446.136 361.712C441.908 364.646 437.098 366.634 432.032 367.54C426.965 368.502 421.745 368.288 416.773 366.914C411.802 365.539 407.213 363.042 403.359 359.614C388.148 342.83 411.168 305.648 399.338 297.722C395.491 295.099 390.071 297.081 384.535 299.121C379.106 301.12 374.296 304.508 370.584 308.945C366.872 313.383 364.388 318.717 363.38 324.414C362.039 333.622 366.935 335.253 366.818 344.054C366.818 360.372 349.335 378.438 330.918 382.459C315.358 385.839 309.53 376.923 291.114 379.895C280.371 381.801 270.32 386.504 261.975 393.532C265.531 388.128 270.123 383.482 275.484 379.861C280.845 376.24 286.871 373.716 293.212 372.435C301.837 371.27 303.702 374.417 315.416 373.543C321.594 373.076 338.728 371.736 349.743 358.39C355.57 350.581 358.135 340.732 356.27 339.566ZM395.841 259.841C395.841 257.102 396.774 243.872 388.498 237.695C374.453 227.146 346.77 245.854 347.703 253.547C347.703 255.411 349.801 256.694 349.684 259.374C349.568 262.055 346.362 264.561 343.448 266.076C344.512 264.755 345.163 263.148 345.318 261.459C345.474 259.769 345.127 258.071 344.323 256.577C343.332 254.945 341.117 252.672 339.544 253.255C336.921 254.129 336.397 262.58 338.028 268.466C341.35 280.471 356.794 294.75 373.87 290.32C388.614 286.474 395.2 270.914 395.841 259.841Z" fill="#ECECEC"/>
<path d="M406.44 1735.75C403.235 1733.66 390.239 1760.29 371.473 1760.7C367.362 1760.47 363.338 1759.42 359.636 1757.62C355.934 1755.82 352.627 1753.3 349.91 1750.21C353.306 1752.46 357.119 1754 361.123 1754.75C365.127 1755.5 369.241 1755.44 373.221 1754.58C380.849 1752.14 387.292 1746.95 391.288 1740.01C397.465 1730.8 395.076 1727.65 399.68 1716.7C406.731 1700.32 421.767 1693.39 420.019 1690.7C419.087 1689.25 415.182 1692.28 407.897 1690.7C403.556 1689.85 399.527 1687.84 396.241 1684.88C394.726 1683.36 394.143 1681.96 391.987 1680.74C391.987 1680.74 387.849 1678.47 385.401 1679.52C382.954 1680.56 380.856 1687.73 383.595 1696.24C377.315 1687.87 374.16 1677.56 374.678 1667.1C375.611 1655.62 380.859 1644.92 389.364 1637.15C397.618 1629.2 408.414 1624.44 419.844 1623.68C437.328 1623.16 441.757 1633.94 454.811 1629.51C460.391 1627.63 465.458 1624.48 469.614 1620.3C472.064 1618.06 474.218 1615.51 476.025 1612.73C474.921 1618.87 472.495 1624.69 468.915 1629.8C464.078 1636.62 460.523 1637.09 458.366 1642.45C454.695 1651.54 459.066 1664.71 464.894 1665.76C469.381 1666.69 474.16 1660.28 478.123 1655.04C483.71 1647.54 487.571 1638.91 489.429 1629.74C490.389 1640.07 488.216 1650.45 483.193 1659.53C476.549 1671.18 468.507 1673.45 463.67 1686.92C463.145 1688.26 459.008 1700.2 464.194 1705.1C467.866 1708.54 474.51 1706.79 477.365 1706.03C491.411 1702.3 498.87 1688.55 501.376 1683.59C499.351 1691.67 495.703 1699.24 490.653 1705.86C479.405 1720.49 467.749 1720.89 464.544 1732.43C463.394 1736.87 463.576 1741.54 465.069 1745.88C466.561 1750.21 469.298 1754.01 472.936 1756.79C476.345 1759.12 480.337 1760.43 484.458 1760.6C488.58 1760.76 492.664 1759.77 496.248 1757.73C492.033 1760.68 487.217 1762.67 482.144 1763.55C477.028 1764.53 471.754 1764.31 466.739 1762.9C461.723 1761.5 457.102 1758.95 453.238 1755.45C438.027 1738.73 461.047 1701.49 449.217 1693.56C445.37 1691 439.95 1692.98 434.414 1694.96C428.955 1696.98 424.125 1700.4 420.41 1704.88C416.696 1709.36 414.229 1714.75 413.259 1720.49C411.918 1729.69 416.872 1731.32 416.755 1740.07C416.755 1756.44 399.272 1774.51 380.797 1778.47C365.237 1781.91 359.409 1772.99 340.993 1775.97C330.242 1777.85 320.186 1782.55 311.854 1789.6C319.05 1778.69 330.286 1771.08 343.091 1768.45C351.716 1767.34 353.581 1770.49 365.295 1769.61C371.473 1769.09 388.607 1767.81 399.621 1754.46C405.741 1746.83 408.305 1736.98 406.44 1735.75ZM446.011 1656.38C446.011 1653.58 446.944 1640.41 438.668 1634.17C424.623 1623.68 396.999 1642.39 397.873 1650.03C397.873 1651.95 399.971 1653.17 399.855 1655.85C399.738 1658.53 396.533 1661.04 393.619 1662.56C394.678 1661.24 395.325 1659.65 395.481 1657.97C395.636 1656.29 395.293 1654.6 394.493 1653.11C393.502 1651.48 391.288 1649.21 389.714 1649.73C387.091 1650.67 386.625 1659.12 388.199 1665C391.521 1676.95 406.965 1691.29 424.04 1686.8C438.843 1682.66 445.37 1667.16 446.011 1656.38Z" fill="#ECECEC"/>
<path d="M706.169 1098.41C705.017 1109.89 700.263 1120.7 692.59 1129.3C682.392 1139.75 668.645 1145.99 654.068 1146.79C637.924 1146.79 631.572 1139.15 625.511 1143.99C618.401 1149.82 618.984 1167.3 620.382 1175.81C622.247 1192.01 623.18 1200.17 620.849 1203.02C615.021 1209.96 599.052 1210.54 590.66 1202.15C587.895 1199.28 586.014 1195.68 585.24 1191.78C586.697 1194 588.581 1195.91 590.781 1197.4C592.982 1198.89 595.457 1199.93 598.062 1200.46C602.539 1201.39 607.205 1200.54 611.058 1198.07C616.478 1193.93 615.312 1186.94 614.904 1159.78C614.904 1143.06 614.904 1136.99 612.34 1136.18C608.668 1135.01 602.666 1144.98 601.85 1146.2C597.356 1153.32 595.31 1161.71 596.022 1170.1C594.471 1165.1 593.723 1159.89 593.807 1154.65C594.215 1128.02 617.119 1114.73 611.291 1101.21C610.267 1098.64 608.488 1096.44 606.189 1094.9C603.89 1093.36 601.178 1092.55 598.411 1092.59C595.296 1093.18 592.501 1094.88 590.549 1097.38C588.598 1099.88 587.622 1103 587.805 1106.17C587.414 1105.31 587.139 1104.41 586.989 1103.48C584.832 1090.78 608.552 1068.52 630.873 1069.33C649.871 1070.03 661.644 1081.75 668.637 1075.16C670.358 1073.16 671.492 1070.73 671.914 1068.13C672.336 1065.52 672.028 1062.86 671.027 1060.42C669.335 1056.74 666.286 1053.86 662.518 1052.37C672.484 1054.36 676.388 1058.2 678.078 1061.41C681.4 1067.24 678.078 1071.66 680.701 1080.81C682.624 1086.64 687.345 1094.92 692.357 1094.63C697.369 1094.33 701.157 1086.7 702.322 1075.86C703.128 1083.72 702.254 1091.67 699.758 1099.17C694.921 1113.16 684.897 1123.01 686.237 1124.29C687.578 1125.57 690.608 1122.31 691.599 1121.55C698.765 1115.56 703.863 1107.47 706.169 1098.41ZM663.625 1105.93C654.709 1116.13 644.976 1114.27 630.173 1126.97C628.017 1128.84 621.665 1134.26 622.83 1136.41C623.996 1138.57 630.989 1134.96 641.071 1134.66C656.69 1134.2 661.411 1142.12 667.705 1139.38C680.992 1133.56 676.971 1090.78 672.134 1090.2C670.094 1089.96 670.852 1097.66 663.625 1105.93ZM620.965 1123.42C623.296 1126.39 638.449 1118.23 648.531 1110.07C654.359 1105.41 660.187 1100.8 659.021 1096.26C658.191 1094.27 656.776 1092.59 654.963 1091.44C653.151 1090.28 651.029 1089.71 648.881 1089.79C642.47 1089.79 637.633 1096.43 628.308 1109.78C622.655 1117.65 619.8 1121.73 620.965 1123.18V1123.42ZM652.902 1082.62C652.319 1080.76 627.726 1080.64 620.324 1094.28C616.361 1101.62 618.226 1111.41 620.732 1111.76C623.238 1112.11 625.686 1100.8 637.458 1091.13C642.307 1087.65 647.479 1084.65 652.902 1082.15V1082.62Z" fill="#ECECEC"/>
<path d="M726.622 1698.57C729.413 1694.66 730.991 1690.02 731.157 1685.22C731.322 1680.42 730.069 1675.68 727.554 1671.59C725.689 1668.9 720.911 1663.72 717.589 1664.94C710.945 1667.39 709.721 1694.96 722.834 1706.44C728.662 1711.56 732.974 1709.7 738.394 1714.83C746.262 1722.35 746.32 1735.11 745.038 1744.96C742.532 1732.31 737.52 1722 731.517 1721.65C722.542 1720.89 708.555 1741.93 716.248 1753.99C721.668 1762.56 735.072 1762.03 736.063 1761.98C733.645 1762.78 731.142 1763.31 728.603 1763.55C722.658 1764.17 716.652 1763.31 711.12 1761.04C694.743 1752.88 719.92 1680.39 700.688 1651.77C695.291 1643.25 687.364 1636.63 678.017 1632.83C672.189 1630.67 664.73 1627.76 659.018 1630.21C636.231 1639.94 652.608 1730.91 632.851 1763.32C628.411 1770.32 622.928 1776.61 616.591 1781.97C611.078 1786.79 604.602 1790.39 597.593 1792.51C590.472 1794.56 582.978 1794.96 575.68 1793.68C582.164 1792.42 588.494 1790.46 594.562 1787.85C603.279 1784.83 610.945 1779.37 616.65 1772.12C619.622 1767.92 622.478 1762.33 620.787 1761.1C619.097 1759.88 612.57 1767.51 602.954 1768.44C596.609 1768.71 590.388 1766.63 585.471 1762.62C592.457 1764.7 599.925 1764.52 606.801 1762.09C630.578 1753.12 639.029 1714.19 627.373 1696.18C626.382 1694.72 622.769 1689.13 618.515 1689.48C614.26 1689.83 609.073 1698.51 606.859 1711.62C606.247 1704.37 607.386 1697.07 610.181 1690.35C616.009 1676.42 626.615 1672.87 636.872 1653.69C640.02 1647.87 642.059 1642.04 639.728 1639.12C638.85 1638.22 637.784 1637.52 636.605 1637.08C635.426 1636.64 634.165 1636.46 632.909 1636.56C626.615 1636.56 620.729 1643.15 617.64 1652.41C618.015 1648.58 618.917 1644.81 620.321 1641.22C625.846 1629.65 635.06 1620.23 646.517 1614.46C657.973 1608.69 671.021 1606.89 683.612 1609.34C705.875 1614.36 716.948 1633.35 723.009 1643.79C727.496 1651.48 738.802 1670.83 731.576 1689.42C730.368 1692.69 728.7 1695.77 726.622 1698.57ZM699.464 1634.46C701.212 1632.77 692.121 1611.5 676.56 1611.15C663.797 1610.68 653.249 1624.44 654.764 1626.83C656.279 1629.22 664.613 1621.93 677.318 1623.68C691.247 1625.2 698.298 1635.63 699.639 1634.35L699.464 1634.46Z" fill="#ECECEC"/>
<path d="M546.599 356.759C560.003 352.621 562.509 309.495 551.669 304.775C546.249 302.443 538.09 310.02 537.274 310.602C534.48 313.479 532.397 316.969 531.193 320.794C529.988 324.619 529.696 328.673 530.339 332.632C529.705 331.629 529.196 330.553 528.824 329.426C528.034 324.479 528.257 319.423 529.479 314.564C530.701 309.706 532.897 305.146 535.934 301.161C539.457 296.67 543.643 292.74 548.347 289.505C553.321 286.1 557.464 281.618 560.469 276.393C562.899 271.881 563.584 266.632 562.392 261.648C560.904 255.838 558.024 250.477 554 246.029C549.178 241.68 543.002 239.127 536.516 238.803C538.789 237.638 541.281 236.964 543.831 236.823C546.381 236.683 548.932 237.079 551.319 237.987C554.466 239.619 555.748 242.183 557.147 241.659C558.546 241.134 558.662 233.208 554.874 228.021C552.557 225.57 549.706 223.685 546.543 222.512C543.379 221.34 539.989 220.912 536.633 221.261C540.337 218.833 544.751 217.725 549.163 218.114C558.604 219.513 563.033 229.77 565.772 228.429C567.521 227.73 568.104 222.601 564.257 205.584C567.293 211.614 569.639 217.968 571.251 224.525C580.226 261.24 561.576 289.272 569.153 293.76C574.339 296.849 587.569 286.067 594.562 276.276C598.626 270.03 601.347 263.007 602.551 255.652C603.755 248.298 603.416 240.774 601.556 233.558C602.877 235.781 603.989 238.122 604.878 240.551C608.549 251.158 605.577 258.559 606.859 258.967C609.482 259.783 629.471 232.684 618.515 215.841C615.134 210.85 610.063 207.249 604.236 205.701C607.801 205.591 611.345 206.277 614.611 207.709C617.877 209.14 620.783 211.281 623.119 213.976C627.606 220.853 624.168 229.711 627.257 230.935C630.345 232.159 634.134 222.718 643.05 219.804C649.297 218.158 655.938 218.993 661.583 222.135C656.131 220.673 650.367 220.875 645.032 222.718C629.238 228.546 631.919 247.486 614.202 268.234C600.099 284.785 581.741 292.419 582.732 293.993C583.722 295.566 586.753 292.653 592.581 291.312C612.221 286.358 633.842 295.625 639.204 305.59C640.114 307.241 640.856 308.979 641.418 310.777C642.674 314.971 642.954 319.397 642.234 323.715C642.234 321.967 640.952 307.863 630.578 302.793C628.772 301.977 625.916 300.578 624.11 301.744C619.564 304.716 626.732 322.724 629.355 329.368C636.406 347.202 641.01 359.498 652.142 362.937C662.049 366.026 671.082 360.023 671.432 361.014C668.115 364.181 664.054 366.461 659.623 367.642C655.191 368.824 650.534 368.869 646.081 367.774C636.756 364.685 633.726 355.127 632.269 356.118C629.646 357.4 634.716 391.785 651.267 393.475C660.476 394.407 671.665 385.083 676.677 370.163C670.849 389.862 660.709 403.207 650.626 403.091C639.437 403.091 631.511 386.015 626.965 376.399C609.482 338.635 622.711 311.477 607.5 301.861C598.292 296.033 582.732 299.18 574.398 307.047C556.04 324.531 575.097 358.508 560.935 367.249C549.979 373.952 523.637 362.179 515.361 341.665C512.216 333.442 511.847 324.416 514.312 315.964C514.798 325.77 518.367 335.172 524.511 342.831C526.434 345.104 537.973 359.207 546.599 356.759Z" fill="#ECECEC"/>
<path d="M293.382 1196.5C306.786 1192.36 309.292 1149.23 298.452 1144.51C293.032 1142.12 284.873 1149.76 284.057 1150.34C281.227 1153.25 279.124 1156.79 277.919 1160.67C276.714 1164.55 276.441 1168.66 277.122 1172.66C276.488 1171.66 275.979 1170.58 275.607 1169.46C274.827 1164.5 275.06 1159.43 276.292 1154.56C277.524 1149.69 279.73 1145.13 282.775 1141.13C286.301 1136.64 290.486 1132.71 295.188 1129.48C300.084 1126.05 304.131 1121.54 307.019 1116.31C309.469 1111.8 310.174 1106.55 309 1101.56C307.551 1095.67 304.646 1090.24 300.55 1085.77C295.728 1081.42 289.552 1078.87 283.066 1078.54C285.345 1077.36 287.847 1076.68 290.409 1076.54C292.971 1076.4 295.534 1076.8 297.927 1077.73C301.075 1079.3 302.357 1081.86 303.755 1081.4C305.154 1080.93 305.329 1072.95 301.482 1067.76C299.165 1065.31 296.314 1063.42 293.151 1062.25C289.987 1061.08 286.597 1060.65 283.241 1061C286.922 1058.52 291.355 1057.41 295.771 1057.85C305.212 1059.19 309.641 1069.22 312.381 1068.17C314.187 1067.47 314.712 1062.34 310.924 1045.32C313.938 1051.34 316.264 1057.67 317.859 1064.2C326.834 1100.98 308.243 1128.95 315.761 1133.5C321.006 1136.59 334.235 1125.81 341.17 1116.01C345.235 1109.77 347.955 1102.74 349.159 1095.39C350.363 1088.04 350.024 1080.51 348.164 1073.3C349.543 1075.49 350.658 1077.84 351.486 1080.29C355.157 1090.9 352.185 1098.3 353.525 1098.71C356.148 1099.52 376.079 1072.36 365.181 1055.58C361.77 1050.78 356.776 1047.33 351.078 1045.85C354.642 1045.74 358.186 1046.42 361.452 1047.85C364.718 1049.29 367.625 1051.43 369.96 1054.12C374.389 1061 370.951 1069.86 374.098 1071.02C377.245 1072.19 380.916 1062.92 389.833 1059.95C396.079 1058.3 402.723 1059.13 408.366 1062.28C402.95 1060.93 397.258 1061.2 391.989 1063.04C376.196 1068.87 378.877 1087.87 361.16 1108.61C347.057 1125.16 328.757 1132.8 329.689 1134.37C330.622 1135.95 333.769 1132.86 339.48 1131.4C359.062 1126.5 380.683 1135.71 386.103 1145.68C386.986 1147.35 387.708 1149.11 388.26 1150.92C389.519 1155.12 389.818 1159.54 389.134 1163.86C389.134 1162.11 387.793 1147.95 377.478 1142.94C375.671 1142.07 372.874 1140.72 371.067 1141.89C366.463 1144.86 373.632 1162.87 376.254 1169.46C383.306 1187.29 387.91 1199.64 399.099 1203.08C408.949 1206.17 417.982 1200.17 418.331 1201.16C414.999 1204.26 410.944 1206.47 406.536 1207.6C402.129 1208.73 397.509 1208.74 393.097 1207.63C383.714 1204.54 380.742 1194.98 379.285 1195.68C376.604 1197.02 381.674 1231.41 398.225 1233.1C407.433 1234.03 418.623 1224.7 423.635 1209.79C417.807 1229.48 407.666 1242.83 397.643 1242.71C386.395 1242.71 378.469 1225.64 373.981 1216.02C356.498 1178.26 369.669 1151.1 354.458 1141.42C345.25 1135.6 329.748 1138.8 321.414 1146.67C303.056 1164.15 322.055 1198.13 307.893 1206.81C296.995 1213.57 270.595 1201.8 262.319 1181.29C259.216 1173.12 258.788 1164.18 261.095 1155.76C261.574 1165.58 265.167 1174.99 271.352 1182.63C273.217 1185.13 284.756 1199.12 293.382 1196.5Z" fill="#ECECEC"/>
<path d="M1054.62 270.739C1068.78 254.188 1087.84 263.804 1104.62 245.854C1112.3 237.112 1117.04 226.19 1118.2 214.616C1115.52 223.508 1110.29 231.416 1103.15 237.354C1096.01 243.292 1087.28 246.998 1078.05 248.01C1070.42 248.335 1062.83 246.857 1055.89 243.698C1048.94 240.539 1042.84 235.787 1038.07 229.827C1033.47 235.681 1027.56 240.375 1020.82 243.533C1014.08 246.691 1006.7 248.224 999.256 248.01C989.994 247.088 981.22 243.414 974.064 237.463C966.908 231.512 961.697 223.555 959.102 214.616C960.227 226.24 964.954 237.221 972.622 246.028C989.465 263.978 1008.52 254.362 1022.68 270.914C1025.6 274.352 1028.51 291.894 1033.93 326.919C1036.61 343.82 1037.89 353.32 1033.06 356.642C1028.22 359.964 1021.4 356.234 1016.56 353.553C1023.79 363.46 1031.66 368.472 1035.91 366.374C1037.22 365.657 1038.2 364.469 1038.65 363.052C1039.11 364.469 1040.09 365.657 1041.39 366.374C1045.65 368.472 1053.46 363.46 1060.68 353.553C1056.08 356.234 1048.62 359.73 1044.19 356.642C1039.76 353.553 1040.63 343.82 1043.31 326.861C1048.85 291.719 1051.65 274.177 1054.62 270.739Z" fill="#ECECEC"/>
<path d="M645.566 1480.26C659.669 1463.7 678.785 1473.38 695.569 1455.43C703.196 1446.66 707.937 1435.75 709.148 1424.19C706.463 1433.08 701.226 1440.98 694.087 1446.92C686.949 1452.86 678.223 1456.57 668.994 1457.59C661.37 1457.91 653.777 1456.43 646.83 1453.27C639.884 1450.11 633.781 1445.36 629.015 1439.4C624.417 1445.26 618.51 1449.95 611.77 1453.11C605.029 1456.27 597.642 1457.8 590.201 1457.59C580.939 1456.66 572.166 1452.99 565.009 1447.04C557.853 1441.09 552.642 1433.13 550.047 1424.19C551.175 1435.74 555.858 1446.65 563.451 1455.43C580.235 1473.38 599.351 1463.7 613.513 1480.26C616.426 1483.69 619.34 1501.29 624.76 1536.26C627.441 1553.22 628.723 1562.72 623.886 1566.04C619.049 1569.36 612.23 1565.63 607.393 1562.95C614.62 1572.86 622.429 1577.87 626.742 1575.77C628.014 1575.02 628.982 1573.85 629.481 1572.45C629.936 1573.87 630.916 1575.06 632.22 1575.77C636.474 1577.87 644.284 1572.86 651.51 1562.95C646.906 1565.63 639.447 1569.13 635.017 1566.04C630.588 1562.95 631.462 1553.22 634.143 1536.26C639.796 1501.29 642.594 1483.69 645.566 1480.26Z" fill="#ECECEC"/>
<path d="M462.333 531.597C462.453 534.059 461.813 536.498 460.499 538.583C459.185 540.668 457.262 542.299 454.989 543.253C449.161 544.943 443.334 538.882 441.527 533.87C440.899 530.929 440.896 527.89 441.518 524.948C442.14 522.006 443.375 519.228 445.14 516.794C451.784 505.779 457.787 473.202 459.069 390.621C457.689 397.801 454.166 404.396 448.964 409.535C443.763 414.674 437.126 418.117 429.929 419.41C422.577 420.137 415.2 418.283 409.066 414.165C410.07 417.563 411.799 420.703 414.133 423.369C416.467 426.035 419.351 428.164 422.586 429.609C429.988 431.998 434.242 426.87 439.079 429.609C448.812 434.738 449.045 464.984 436.107 473.26C429.93 477.165 425.5 473.26 416.059 477.689C404.986 483.109 402.946 492.55 399.158 491.618C393.33 490.219 400.149 468.306 388.843 453.562C382.137 445.537 372.804 440.148 362.501 438.351C365.706 439.924 369.494 442.256 369.494 445.053C369.494 448.783 362.617 450.473 357.023 454.203C342.861 463.76 341.87 483.342 340.705 482.876C339.539 482.41 342.162 461.254 354.284 390.329C348.121 399.068 339.673 405.944 329.865 410.202C333.872 426.706 335.249 443.739 333.944 460.672C333.418 467.972 332.327 475.22 330.681 482.351C326.737 500.16 318.762 516.828 307.369 531.072C309.035 529.037 311.301 527.58 313.845 526.91C316.388 526.24 319.079 526.392 321.531 527.343C322.423 528.05 323.163 528.931 323.704 529.933C324.245 530.935 324.576 532.036 324.678 533.171C326.193 542.437 315.761 550.246 314.771 550.654C322.55 550.819 330.333 550.546 338.082 549.838C366.58 547.041 380.859 546.05 389.892 536.143C398.925 526.235 392.573 519.3 405.802 497.679C414.078 484.1 419.439 482.06 422.878 481.827C426.128 481.678 429.356 482.439 432.198 484.024C435.04 485.61 437.382 487.957 438.963 490.802C445.665 504.73 420.139 520.524 425.967 537.425C427.854 541.875 431.05 545.646 435.13 548.237C439.21 550.829 443.982 552.119 448.812 551.936C454.64 551.587 463.09 548.381 464.547 541.388C465.124 537.96 464.328 534.443 462.333 531.597ZM375.322 523.846C373.924 533.695 357.256 541.971 347.174 537.017C340.879 533.87 337.15 525.361 339.015 523.38C340.879 521.398 343.735 524.837 349.738 524.72C361.394 524.72 367.221 512.656 372.117 514.929C374.914 516.211 375.73 520.757 375.322 523.846ZM391.349 508.285C389.251 515.803 384.997 523.904 382.141 523.438C379.285 522.972 381.267 510.617 375.264 506.595C365.648 500.068 345.717 522.797 338.781 517.901C331.846 513.006 337.732 484.449 357.081 471.919C359.179 470.521 372.641 461.721 383.132 467.082C396.011 473.318 394.438 496.63 391.349 508.285Z" fill="#ECECEC"/>
<path d="M729.486 1371.68C729.548 1374.08 728.885 1376.44 727.586 1378.46C726.287 1380.47 724.411 1382.05 722.202 1382.99C716.374 1384.68 710.546 1378.62 708.681 1373.61C708.075 1370.66 708.089 1367.62 708.721 1364.68C709.353 1361.74 710.59 1358.97 712.353 1356.53C718.996 1345.52 724.941 1312.94 726.281 1230.36C724.901 1237.54 721.378 1244.13 716.177 1249.27C710.975 1254.41 704.339 1257.85 697.142 1259.15C689.789 1259.87 682.413 1258.02 676.278 1253.9C677.283 1257.3 679.012 1260.44 681.346 1263.1C683.68 1265.77 686.563 1267.9 689.799 1269.35C697.2 1271.73 701.454 1266.61 706.292 1269.35C716.024 1274.53 716.257 1304.72 703.261 1313C697.433 1316.9 692.713 1313 683.271 1317.48C672.198 1322.85 670.159 1332.29 666.371 1331.35C660.543 1329.95 667.361 1308.04 655.997 1293.3C649.26 1285.35 639.928 1280.05 629.655 1278.32C632.86 1279.89 636.648 1282.22 636.59 1285.02C636.59 1288.75 629.771 1290.44 624.177 1294.17C610.015 1303.73 609.024 1323.31 607.859 1322.9C606.693 1322.5 609.374 1300.87 621.729 1230.18C615.567 1238.92 607.119 1245.8 597.31 1250.05C601.317 1266.56 602.694 1283.59 601.39 1300.52C600.855 1307.84 599.764 1315.11 598.126 1322.26C594.166 1340.05 586.192 1356.69 574.814 1370.93C576.48 1368.89 578.747 1367.43 581.29 1366.76C583.834 1366.09 586.524 1366.24 588.976 1367.2C589.869 1367.9 590.608 1368.78 591.149 1369.79C591.69 1370.79 592.022 1371.89 592.123 1373.02C593.639 1382.29 583.148 1390.1 582.216 1390.8C589.996 1390.96 597.778 1390.69 605.527 1389.98C634.026 1387.18 648.304 1386.19 657.337 1376.29C666.371 1366.38 660.018 1359.44 673.247 1337.82C681.523 1324.24 686.885 1322.2 690.323 1321.97C693.567 1321.75 696.808 1322.45 699.68 1323.97C702.552 1325.49 704.943 1327.79 706.583 1330.6C713.285 1344.52 687.759 1360.32 693.587 1377.22C695.474 1381.67 698.67 1385.44 702.75 1388.03C706.83 1390.62 711.602 1391.91 716.432 1391.73C721.969 1391.38 730.652 1388.18 732.167 1381.18C732.564 1377.79 731.6 1374.37 729.486 1371.68ZM642.534 1363.7C641.136 1373.55 624.41 1381.82 614.386 1376.87C608.092 1373.78 604.362 1365.21 606.227 1363.23C608.092 1361.25 610.889 1364.69 616.892 1364.57C628.548 1364.57 634.375 1352.51 639.329 1354.84C642.068 1356.06 642.942 1360.61 642.534 1363.7ZM658.561 1348.08C656.463 1355.6 652.209 1363.7 649.353 1363.23C646.497 1362.77 648.479 1350.41 642.476 1346.39C632.802 1339.86 612.929 1362.59 605.935 1357.7C598.942 1352.8 604.945 1324.24 624.235 1311.71C626.391 1310.32 639.854 1301.51 650.344 1306.88C663.165 1313.46 661.825 1336.31 658.561 1348.08Z" fill="#ECECEC"/>
<path d="M479.929 803.117C485.845 804.843 492.165 804.568 497.909 802.334C503.652 800.1 508.497 796.032 511.691 790.761C525.678 770.888 527.135 734.231 524.571 711.094C520.491 674.087 505.513 664.471 504.406 625.891C504.107 614.42 505.045 602.951 507.203 591.681C506.135 601.15 506.135 610.71 507.203 620.179C508.078 629.154 509.01 638.479 513.031 643.491C518.16 650.076 525.678 645.705 529.291 643.491C546.425 632.709 549.339 600.423 568.163 584.513C578.945 575.479 589.027 576.878 599.925 579.034C642.877 587.368 684.546 658.41 691.539 739.243C692.725 754.118 692.764 769.062 691.656 783.943C677.844 726.713 671.083 714.008 667.47 715.582C660.593 718.554 659.719 774.502 667.47 820.484C673.593 858.382 686.128 894.96 704.536 928.649C665.664 897.703 633.96 891.001 626.151 911.865C619.798 928.941 629.123 965.423 637.806 986.229C649.462 1013.56 664.498 1024.52 663.857 1026.5C663.216 1028.48 644.334 1009.31 619.682 992.756C592.932 974.748 579.527 965.773 564.142 964.724C538.557 963.034 517.169 978.303 506.737 985.937C490.303 998.001 476.024 1014.14 475.441 1012.51C474.509 1009.89 515.188 976.205 513.148 940.829C512.507 929.174 507.32 911.69 501.492 913.38C499.278 913.963 497.937 915.536 495.664 917.926C493.092 920.672 489.792 922.628 486.149 923.568C482.506 924.507 478.671 924.389 475.092 923.229C480.92 920.315 494.324 912.098 503.532 889.719C514.78 862.27 516.645 821.766 509.36 813.49C506.096 809.76 503.007 813.024 493.974 812.325C491.117 811.864 488.389 810.806 485.969 809.219C483.549 807.632 481.491 805.553 479.929 803.117ZM608.142 726.305C601.386 712.014 597.826 696.422 597.71 680.614C597.71 654.331 608.317 642.908 605.112 621.403C603.189 608.29 597.011 597.217 590.192 593.313C577.08 585.853 563.501 607.766 558.547 615.75C536.459 651.65 537.45 710.453 537.8 723.916C538.849 766.401 548.173 770.131 547.241 806.788C545.901 857.666 527.426 874.741 532.671 894.206C540.014 922.238 588.386 929.931 617.991 889.719C642.352 856.558 643.984 803.583 647.131 697.399C648.122 665.695 647.131 640.693 638.622 631.66C631.396 624.026 621.139 630.087 615.311 637.896C603.363 653.981 599.983 689.823 608.375 726.305H608.142ZM674.464 888.67C679.417 876.606 659.952 826.894 649.054 831.382C644.858 833.13 642.235 843.038 641.711 849.973C641.276 861.601 645.204 872.972 652.726 881.851C660.127 890.476 671.783 895.722 674.697 888.67H674.464Z" fill="#ECECEC"/>
<path d="M757.571 1699.03C760.81 1699.64 764.14 1699.59 767.357 1698.86C770.574 1698.14 773.609 1696.77 776.278 1694.84C784.554 1688.14 785.428 1675.72 783.913 1667.91C781.523 1655.38 772.665 1652.12 772.257 1639.12C772.072 1635.17 772.625 1631.22 773.889 1627.47C773.279 1630.66 773.279 1633.95 773.889 1637.14C773.977 1640.1 775.185 1642.91 777.269 1645.01C778.76 1645.76 780.407 1646.16 782.077 1646.16C783.747 1646.16 785.394 1645.76 786.885 1645.01C797.026 1641.4 798.541 1630.44 809.847 1625.08C815.782 1622.62 822.31 1621.98 828.613 1623.21C853.964 1626.07 878.616 1650.08 882.754 1677.41C883.413 1682.44 883.413 1687.54 882.754 1692.57C874.595 1673.16 870.573 1668.9 868.475 1669.25C864.396 1670.25 863.871 1689.19 868.475 1704.75C872.662 1718.57 880.211 1731.15 890.447 1741.35C867.135 1730.85 848.719 1728.64 843.823 1735.52C840.035 1741.35 845.572 1753.58 850.759 1760.64C855.225 1765.88 860.404 1770.47 866.144 1774.27C865.736 1775.03 854.488 1768.44 840.094 1762.62C824.242 1756.5 816.316 1753.47 807.224 1753.12C795.548 1752.99 783.986 1755.43 773.364 1760.29C763.632 1764.37 755.181 1769.84 754.832 1769.26C754.482 1768.68 778.143 1757.02 777.152 1745.08C776.745 1741.17 773.539 1735.28 770.392 1735.75C769.134 1736.04 767.945 1736.57 766.895 1737.32C763.181 1739.3 758.902 1739.93 754.773 1739.13C761.48 1737.32 767.388 1733.32 771.558 1727.77C778.202 1718.5 779.309 1704.8 774.996 1702.01C773.015 1700.72 771.208 1702.01 765.846 1701.6C762.898 1701.56 760.022 1700.67 757.571 1699.03ZM833.333 1673.04C829.665 1668.72 827.606 1663.27 827.505 1657.6C827.505 1648.74 833.741 1644.84 831.876 1637.61C831.284 1635.43 830.174 1633.43 828.642 1631.78C827.109 1630.13 825.2 1628.87 823.076 1628.11C815.325 1625.55 807.283 1633 804.369 1635.69C791.198 1647.81 791.78 1667.68 791.955 1672.17C792.596 1686.56 797.783 1687.79 797.783 1700.2C797.026 1717.68 786.127 1723.16 789.158 1729.86C793.529 1739.31 822.085 1741.93 839.569 1728.35C853.964 1717.1 854.896 1699.21 857.053 1663.37C857.577 1652.7 857.053 1644.25 851.983 1641.16C849.71 1640.21 847.218 1639.9 844.782 1640.27C842.345 1640.64 840.057 1641.68 838.17 1643.26C830.478 1648.62 828.496 1660.69 833.392 1673.04H833.333ZM872.555 1727.94C875.469 1723.86 863.988 1707.02 857.519 1708.59C855.071 1709.18 853.498 1712.44 853.206 1714.83C852.507 1720.66 858.51 1724.79 859.734 1725.61C863.988 1728.58 870.865 1730.33 872.613 1727.94H872.555Z" fill="#ECECEC"/>
<path d="M213.77 704.333C214.411 696.232 217.442 665.228 232.478 646.054C246.64 627.696 268.552 623.675 282.248 639.585C315.817 678.69 288.659 824.562 315.467 841.812C317.071 842.828 318.93 843.367 320.829 843.367C322.727 843.367 324.586 842.828 326.19 841.812C352.416 825.086 332.601 685.45 365.354 653.98C372.872 646.753 375.319 652.814 386.567 642.965C404.051 627.521 413.842 598.906 419.261 577.401C418.446 582.297 417.28 589.698 415.706 598.615C407.606 644.305 402.652 657.418 398.98 678.69C391.346 723.215 394.202 776.54 402.769 781.144C407.256 783.534 413.375 773.393 419.261 759.931C426.694 742.455 432.355 724.278 436.162 705.673C436.162 709.636 435.288 716.163 434.297 724.206C423.341 815.703 395.192 837.616 393.094 892.107C391.229 940.07 410.578 992.871 426.663 993.396C439.484 993.804 452.539 964.956 460.581 925.967C450.674 992.871 424.332 1031.86 403.235 1026.73C380.506 1021.19 369.083 965.946 368.268 962.624C359.351 917.517 370.89 889.426 379.166 809.468C388.082 723.157 384.294 662.488 382.488 662.197C379.399 661.673 384.352 829.574 341.343 863.026C329.221 872.467 310.164 873.633 299.615 856.382C273.39 813.547 309.231 700.603 279.625 659.691C278.46 658.059 268.727 644.655 260.743 650.192C244.775 661.206 251.011 737.61 248.388 881.908C246.406 991.181 241.628 1013.5 232.245 1022.19C214.761 1038.15 187.195 1002.55 173.441 982.556C176.355 986.111 193.781 1006.62 209.866 995.377C231.254 979.933 231.254 921.305 231.254 905.628C231.254 872.35 224.61 833.071 216.917 832.546C210.332 832.08 204.096 859.121 201.998 871.651C200.119 883.01 199.474 894.538 200.075 906.036C198.575 900.433 197.503 894.725 196.869 888.96C193.897 861.744 201.066 838.316 206.777 820.249C233.585 735.57 242.327 710.627 237.665 687.49C237.14 684.809 235.1 674.727 231.021 673.27C223.095 670.414 214.062 702.468 213.77 704.333ZM365.295 674.261C358.36 673.328 343.091 818.443 349.677 821.998C352.882 823.746 361.74 791.809 365.82 766.458C373.046 722.341 369.375 674.844 365.295 674.261ZM379.69 912.038C377.068 912.679 371.706 963.032 387.5 990.54C397.815 1008.55 414.016 1011.4 415.24 1006.97C416.464 1002.55 404.75 995.319 394.435 972.007C381.264 941.702 381.905 911.514 379.807 912.038H379.69Z" fill="#ECECEC"/>
<path d="M902.05 1659.52C902.996 1651.73 906.949 1644.62 913.065 1639.71C917.214 1636.61 922.159 1634.77 927.32 1634.39C932.482 1634 937.645 1635.1 942.204 1637.55C962.077 1650.78 946.05 1700.08 961.844 1705.91C963.907 1706.59 966.134 1706.59 968.196 1705.91C983.699 1700.08 971.984 1653.05 991.508 1642.39C995.937 1639.94 997.336 1641.98 1004.04 1638.66C1012.85 1633.74 1019.67 1625.91 1023.33 1616.51C1022.86 1618.14 1022.16 1620.65 1021.23 1623.68C1016.51 1639.12 1013.54 1643.55 1011.38 1650.72C1006.84 1665.82 1008.53 1683.82 1013.65 1685.69C1016.28 1686.5 1019.89 1683.07 1023.39 1678.52C1027.56 1672.91 1030.92 1666.72 1033.35 1660.16C1033.35 1661.5 1032.83 1663.72 1032.24 1666.4C1025.78 1697.34 1008.93 1704.75 1007.88 1723.16C1006.78 1739.42 1018.08 1757.26 1027.7 1757.43C1035.33 1757.43 1043.03 1747.81 1047.75 1734.64C1041.92 1757.26 1026.36 1770.43 1013.89 1768.68C1000.48 1766.81 993.722 1748.16 993.315 1747C988.069 1731.73 994.888 1722.23 999.783 1695.19C1005.03 1666.05 1002.81 1645.53 1001.71 1645.42C1000.6 1645.3 1002.87 1702.01 977.463 1713.31C973.522 1715.18 969.151 1715.97 964.805 1715.58C960.46 1715.19 956.298 1713.64 952.753 1711.1C937.309 1696.59 958.58 1658.65 941.097 1644.54C940.397 1644.02 934.628 1639.47 929.907 1641.34C920.524 1645.07 924.079 1670.89 922.622 1719.72C921.457 1756.61 918.659 1764.19 913.065 1767.1C902.866 1772.52 886.489 1760.46 878.389 1753.76C880.079 1754.92 890.394 1761.86 899.894 1758.07C912.598 1752.94 912.657 1733.19 912.657 1727.88C912.657 1716.58 908.752 1703.35 904.206 1703.17C899.66 1703 896.63 1712.15 895.406 1716.34C894.336 1720.13 893.942 1724.08 894.241 1728C893.39 1726.14 892.764 1724.18 892.376 1722.17C891.457 1713.95 893.525 1705.68 898.204 1698.86C913.939 1670.3 919.126 1661.79 916.328 1653.98C916.328 1653.11 914.813 1649.67 912.424 1649.21C907.645 1648.04 902.341 1658.88 902.05 1659.52ZM991.741 1649.38C987.662 1649.03 978.628 1698.1 982.475 1699.27C984.398 1699.91 989.643 1689.07 992.091 1680.5C996.229 1665.58 994.072 1649.56 991.741 1649.38ZM1000.54 1729.75C998.968 1729.75 995.82 1747.23 1005.15 1756.26C1010.97 1762.38 1020.82 1763.32 1021.52 1761.8C1022.22 1760.29 1015.34 1757.95 1009.22 1750.15C1001.07 1739.77 1001.47 1729.57 1000.54 1729.75Z" fill="#ECECEC"/>
<path d="M821.21 470.869C821.21 467.955 793.003 454.201 770.741 497.56C761.308 518.08 755.04 539.91 752.15 562.308C749.352 544.325 749.137 526.036 751.509 507.992C760.017 452.744 802.095 427.159 835.896 439.806C860.199 448.897 871.447 473.666 890.795 457.698C901.496 448.361 908.586 435.569 910.833 421.546C913.08 407.523 910.34 393.157 903.092 380.944C907.007 383.023 910.347 386.037 912.818 389.717C915.288 393.397 916.812 397.631 917.254 402.041C921.042 423.488 909.095 441.613 905.19 487.653C901.518 530.429 909.619 541.328 904.782 570.875C897.672 613.826 877.333 610.621 876.167 633.7C873.953 679.39 951.93 707.131 959.156 800.202C960.618 824.342 958.218 848.56 952.046 871.943C954.704 852.844 955.095 833.497 953.212 814.306C947.384 760.573 923.198 730.151 919.643 738.543C916.904 744.779 920.634 779.338 935.145 833.305C940.493 861.015 942.217 889.304 940.274 917.459C936.719 972.882 899.77 1024.46 849.942 1027.08C857.11 1025.27 885.783 1015.95 899.653 958.895C902.859 945.724 906.764 929.756 904.316 920.723C895.108 886.222 815.441 1052.37 757.511 983.547C733.528 952.482 720.312 914.451 719.863 875.207C719.863 869.787 720.679 837.85 729.829 825.495C730.802 823.747 732.318 822.363 734.148 821.554C735.978 820.744 738.021 820.552 739.969 821.008C734.073 834.754 731.135 849.586 731.344 864.542C731.81 889.66 741.426 912.331 750.868 918.741C774.529 934.826 793.703 866.757 819.811 888.378C823.183 891.337 826.056 894.82 828.32 898.693C824.066 898.344 809.321 898.285 801.104 923.695C797.024 936.167 793.644 957.672 796.442 965.772C806.466 994.912 907.171 888.495 902.859 785.458C900.586 726.654 864.511 677.933 836.071 672.455C810.953 667.618 788.749 695.767 781.114 705.616C772.716 716.616 765.471 728.45 759.493 740.933C762.787 726.493 767.13 712.313 772.489 698.506C810.254 603.628 871.563 637.721 876.459 589.291C878.265 571.807 871.505 553.858 866.668 541.094C846.445 487.711 807.223 503.097 784.611 527.166C780.55 531.565 776.847 536.281 773.538 541.269C776.672 527.26 781.486 513.68 787.875 500.824C803.785 470.635 821.268 473.316 821.21 470.869Z" fill="#ECECEC"/>
<path d="M1199.8 343.474C1196.77 364.688 1190.94 395.575 1178.76 418.654C1163.61 447.793 1144.72 452.456 1145.13 458.05C1145.42 461.78 1153.99 462.363 1161.22 460.032C1174.97 455.486 1198.05 440.159 1226.9 382.171C1221.72 397.656 1215.53 412.783 1208.36 427.454C1203.41 437.595 1187.15 469.939 1167.57 485.441C1134.41 511.376 1121.59 466.443 1083.01 488.239C1068.32 496.456 1058.47 502.051 1049.5 521.633C1028.34 567.789 1035.68 640.347 1031.43 844.206C1028.92 966.067 1024.84 998.47 1013.95 1015.6C999.084 1039.38 972.159 1022.66 966.448 992.001C960.27 959.015 974.315 886.458 975.539 880.339C978.305 867.578 979.363 854.506 978.686 841.467C978.128 830.366 975.664 819.445 971.401 809.18C975.889 813.665 979.072 819.285 980.61 825.44C992.265 863.613 969.537 928.069 979.327 957.849C984.573 973.876 998.326 977.082 1004.74 963.677C1015.93 940.366 1005.61 865.011 994.888 786.51C985.505 717.857 979.852 701.306 982.241 669.544C984.285 636.196 995.211 604.001 1013.89 576.298C1002.68 597.503 996.442 620.979 995.645 644.951C993.897 672.691 996.869 709.057 1002.58 711.563C1009.28 714.535 1022.22 671.526 1023.85 625.485C1025.83 567.207 1010.45 545.294 1009.17 490.045C1008.94 455.858 1016.22 422.038 1030.5 390.971C1022.98 436.371 1024.67 450.766 1026.94 455.836C1033.24 468.366 1046.99 425.181 1074.26 413.584C1099.56 402.802 1108.59 431.067 1125.9 415.565C1135.75 406.765 1149.21 383.104 1159 311.596C1158.58 338.556 1155.2 365.389 1148.92 391.613C1141.93 418.829 1134.06 430.543 1135.46 436.371C1137.5 444.821 1156.44 430.834 1171.82 407.581C1184.08 387.616 1193.5 366.039 1199.8 343.474Z" fill="#ECECEC"/>
<path d="M766.372 1117.24C766.372 1117.24 780.417 1114.33 783.273 1109.72C784.73 1102.67 767.246 1089.38 749.704 1090.31C743.354 1090.01 737.119 1092.09 732.221 1096.14C718.35 1110.3 741.312 1142.77 734.027 1186.3C733.27 1190.79 731.579 1201.63 723.654 1205.94C722.153 1206.76 720.513 1207.29 718.816 1207.51C722.113 1204.06 724.444 1199.8 725.577 1195.16C727.209 1190.66 726.999 1185.69 724.994 1181.35C722.838 1177.91 720.157 1177.67 717.01 1173.3C715.256 1170.82 714.026 1168 713.396 1165.03C714.97 1166.72 719.224 1170.86 721.73 1169.69C722.257 1169.42 722.72 1169.04 723.092 1168.58C723.463 1168.12 723.734 1167.58 723.887 1167.01C727.5 1157.16 713.921 1114.56 723.537 1097.48C726.534 1092.54 730.827 1088.51 735.95 1085.83C758.504 1072.01 780.65 1088.16 801.048 1075.22C806.788 1071.45 811.448 1066.25 814.568 1060.13C814.285 1063.58 813.66 1067 812.704 1070.32C809.207 1082.45 803.554 1084.72 804.603 1089.44C806.409 1097.07 822.086 1095.27 827.098 1105.41C827.911 1107.34 828.33 1109.41 828.33 1111.5C828.33 1113.59 827.911 1115.66 827.098 1117.59C825.933 1108.85 820.629 1102.9 815.443 1102.84C810.256 1102.79 804.894 1109.49 804.428 1115.84C803.496 1128.43 821.912 1134.72 821.387 1149.64C821.231 1151.93 820.679 1154.18 819.755 1156.29C817.774 1142.88 815.851 1139.62 814.335 1139.56C808.508 1139.56 795.686 1188.16 810.023 1197.14C815.093 1200.29 822.553 1197.72 827.798 1195.27C814.219 1207.69 807.925 1208.91 804.486 1206.93C799.824 1204.37 798.658 1193.88 797.201 1174.29C796.884 1167.7 794.567 1161.36 790.558 1156.11L789.8 1155.24C786.711 1152.45 783.068 1150.36 779.111 1149.08C775.153 1147.81 770.971 1147.38 766.838 1147.84C766.838 1147.84 790.15 1146.79 792.889 1139.27C795.628 1131.75 787.76 1121.78 779.718 1118.23C775.469 1116.57 770.819 1116.23 766.372 1117.24ZM764.216 1087.63C764.216 1088.62 776.629 1087.63 785.954 1096.2C790.383 1100.45 791.781 1104.88 794.346 1104.42C796.91 1103.95 799.474 1097.66 797.726 1093.46C793.472 1083.03 764.39 1086.12 764.216 1087.63Z" fill="#ECECEC"/>
<path d="M974.898 1582.07C978.31 1582.07 981.076 1579.31 981.076 1575.9C981.076 1572.48 978.31 1569.72 974.898 1569.72C971.487 1569.72 968.721 1572.48 968.721 1575.9C968.721 1579.31 971.487 1582.07 974.898 1582.07Z" fill="#ECECEC"/>
<path d="M1212.09 1182.98C1218.79 1185.48 1216.17 1211.07 1211.63 1231.58C1205.8 1258.39 1190.41 1303.21 1144.96 1351.87C1161.07 1338.71 1175.18 1323.28 1186.86 1306.06C1194.08 1295.63 1214.13 1263.05 1222.58 1188.63C1229.69 1126.04 1239.48 1038.62 1197.46 1012.45C1180.39 1001.73 1164.83 1007.44 1148.22 989.433C1131.61 971.425 1129.57 943.509 1129.45 935.584C1129.1 916.701 1134.87 913.729 1134.7 898.285C1134.41 873.225 1118.96 861.569 1103.99 836.801C1099.03 828.584 1070.59 781.669 1078.69 734.114C1083.7 704.45 1104.92 664.995 1131.73 662.722C1175.96 658.876 1232.37 755.968 1207.49 799.095C1205.68 802.3 1199.27 813.373 1188.2 814.946C1150.61 820.366 1109.58 710.044 1105.73 711.676C1100.49 714.066 1186.22 915.302 1186.39 915.128C1184 907.843 1142.86 818.851 1154.98 809.002C1160.05 804.922 1176.66 812.382 1186.63 825.203C1211.86 857.665 1186.63 915.186 1186.63 915.128C1215.8 845.725 1226.44 769.936 1217.51 695.183C1203.18 578.043 1146.12 532.003 1138.72 526.175C1168.69 562.56 1190.69 604.829 1203.29 650.25C1210.64 677.35 1215.3 708.529 1207.72 711.735C1193.56 717.562 1151.13 617.731 1109.99 624.316C1103.32 625.515 1097.07 628.427 1091.86 632.767C1091.86 633.641 1104.57 626.939 1118.5 629.212C1135.57 632.009 1150.26 647.57 1147.64 653.514C1145.01 659.458 1131.38 652.64 1117.86 656.486C1090 664.47 1071.23 712.667 1072.52 754.57C1074.85 830.332 1134.35 872.118 1122.23 908.717C1115.52 928.823 1100.61 929.523 1082.01 968.453C1075.21 982.736 1069.93 997.7 1066.28 1013.09C1095.42 949.687 1109.58 935.642 1116.98 937.623C1126.54 940.129 1119.66 967.87 1138.95 991.531C1157.31 1014.2 1177.71 1006.28 1197.93 1022.94C1232.9 1051.62 1228.24 1121.08 1210.58 1165.38C1205.74 1177.67 1184.64 1230.59 1129.28 1250.7C1109.66 1257.69 1088.66 1259.86 1068.03 1257.05C1088.54 1260.78 1119.84 1262.88 1148.45 1247.32C1188.55 1225.52 1202.77 1179.48 1212.09 1182.98Z" fill="#ECECEC"/>
<path d="M601.504 533.985C597.89 537.074 589.848 544.067 584.428 541.678C575.162 537.657 587.866 512.888 583.204 470.869C580.348 445.46 572.539 426.111 583.962 412.998C586.242 410.556 588.973 408.577 592.004 407.171C587.753 406.74 583.47 407.592 579.707 409.618C560.825 420.575 582.621 458.398 566.012 500.708C556.221 525.71 536.115 544.417 527.781 541.853C521.953 539.93 516.417 524.894 514.61 516.268L514.318 515.045C508.141 484.157 523.876 461.137 515.309 437.184C513.514 432.383 511.167 427.807 508.316 423.547C503.631 417.24 497.941 411.747 491.473 407.287C495.255 411.416 498.541 415.973 501.264 420.866C517.757 450.705 512.92 494.997 487.044 511.723C483.436 514.032 479.509 515.799 475.388 516.968C478.99 517.674 482.715 517.392 486.17 516.152C490.366 514.578 491.298 512.306 493.222 512.597C498 513.296 503.537 528.157 497.534 534.685C493.688 538.822 487.685 536.899 478.244 543.077C476.155 544.439 474.204 546 472.416 547.739C484.978 545.046 497.968 545.046 510.53 547.739C521.254 550.128 527.431 554.325 537.047 552.285C543.993 550.46 550.278 546.701 555.172 541.445C567.294 530.43 571.14 518.133 573.238 518.833C574.171 518.833 573.763 521.688 573.588 525.36C573.413 529.032 572.889 545.583 579.416 550.07C584.836 553.858 594.86 550.07 600.804 546.34C622.484 532.179 620.095 496.221 619.162 496.046C618.23 495.871 618.463 519.066 601.504 533.985Z" fill="#ECECEC"/>
<path d="M535.759 414.691C549.571 412.36 555.807 395.809 569.561 396.683C573.487 396.999 577.235 398.457 580.342 400.879C577.904 396.816 574.256 393.617 569.91 391.729C563.441 389.376 556.308 389.648 550.037 392.487C536.924 397.441 536.109 406.591 526.376 408.455C523.131 408.851 519.839 408.579 516.702 407.657C513.565 406.735 510.65 405.182 508.135 403.094C520.956 414.458 529.931 415.682 535.759 414.691Z" fill="#ECECEC"/>
<path d="M298.103 481.531C296.468 483.239 294.459 484.544 292.234 485.343C290.009 486.141 287.629 486.413 285.282 486.135C278.638 484.154 276.948 474.48 276.773 473.431C276.203 468.813 276.875 464.127 278.719 459.855C280.562 455.584 283.512 451.881 287.263 449.128C291.517 446.214 295.48 445.981 298.919 441.144C300.565 438.927 301.718 436.384 302.299 433.685C300.808 436.124 298.766 438.18 296.337 439.688C293.908 441.196 291.16 442.114 288.312 442.368C280.736 442.368 276.656 430.363 273.509 420.747C270.962 413.497 269.451 405.923 269.022 398.251C268.975 404.339 268.032 410.387 266.224 416.201C264.892 420.409 263.094 424.456 260.863 428.265C263.33 427.267 266.088 427.267 268.556 428.265C276.19 431.761 277.531 447.555 273.101 458.511C266.516 474.538 246.293 482.755 242.913 479.142C241.864 478.093 241.689 475.47 244.836 469.06C241.943 472.838 238.574 476.227 234.812 479.142C227.469 484.97 224.38 483.979 223.448 483.571C211.326 478.151 231.257 420.222 213.366 409.207C209.08 406.579 204.111 405.281 199.087 405.478C194.489 405.84 189.961 406.82 185.625 408.392C201.535 404.836 207.829 410.14 209.344 411.597C218.902 420.688 215.988 444.524 205.673 459.444C198.213 470.284 187.198 476.927 188.189 489.341C188.276 491.337 188.69 493.306 189.413 495.169C189.575 489.144 192.036 483.41 196.29 479.142C197.98 477.627 202.992 473.314 207.946 474.713C210.388 476.108 212.324 478.242 213.476 480.808C214.628 483.374 214.936 486.239 214.356 488.991C212.666 498.724 200.544 499.19 192.094 511.254C187.883 517.584 185.558 524.982 185.392 532.584C186.317 529.507 187.609 526.552 189.238 523.784C192.094 519.063 195.94 512.711 201.885 512.128C203.618 512.103 205.334 512.485 206.893 513.244C208.451 514.004 209.81 515.118 210.86 516.499C215.289 522.327 212.375 532.059 207.479 537.421C204.604 540.285 200.972 542.271 197.009 543.149C193.047 544.026 188.916 543.757 185.1 542.374C181.545 541.012 178.362 538.828 175.81 536.003C173.258 533.178 171.409 529.79 170.414 526.115C170.845 531.082 172.609 535.841 175.521 539.889C178.433 543.936 182.384 547.122 186.956 549.11C191.529 551.098 196.554 551.814 201.5 551.182C206.446 550.551 211.129 548.595 215.056 545.522C220.766 539.613 223.945 531.709 223.914 523.492C224.555 511.836 219.427 508.048 222.34 499.481C224.484 493.813 228.631 489.127 233.996 486.31C242.155 481.939 258.823 482.464 265.409 490.973C267.39 493.595 267.157 495.227 267.798 510.146C268.847 533.458 269.721 537.188 272.285 541.092C277.647 549.251 287.554 552.748 288.429 551.583C289.303 550.417 283.533 547.037 279.92 539.927C277.475 534.567 276.288 528.719 276.45 522.83C276.611 516.942 278.117 511.168 280.852 505.95C287.788 493.129 296.063 494.294 303.581 479.608C306.819 473.243 308.592 466.234 308.768 459.094C308.304 467.685 304.472 475.747 298.103 481.531Z" fill="#ECECEC"/>
<path d="M958.865 1506.72C956.359 1508.7 951.23 1512.84 946.043 1511.26C939.399 1509.28 937.709 1499.61 937.535 1498.56C936.971 1493.94 937.645 1489.26 939.489 1484.99C941.332 1480.72 944.278 1477.01 948.025 1474.26C952.279 1471.34 956.184 1471.11 959.681 1466.33C961.303 1464.1 962.453 1461.56 963.061 1458.87C961.559 1461.3 959.515 1463.35 957.088 1464.86C954.661 1466.36 951.918 1467.29 949.074 1467.55C941.498 1467.55 937.418 1455.55 934.271 1445.87C931.723 1438.62 930.212 1431.05 929.783 1423.38C929.514 1433.95 926.609 1444.29 921.333 1453.45C923.8 1452.45 926.559 1452.45 929.026 1453.45C936.602 1456.89 937.942 1472.68 933.572 1483.7C927.161 1499.66 906.88 1507.88 903.325 1504.33C902.218 1503.28 902.101 1500.66 905.248 1494.19C902.496 1497.95 899.264 1501.34 895.632 1504.27C888.231 1510.1 885.2 1509.11 883.976 1508.7C871.854 1503.34 891.669 1445.41 873.894 1434.51C869.593 1431.92 864.631 1430.65 859.616 1430.84C854.998 1431.15 850.447 1432.12 846.095 1433.69C862.063 1430.14 868.358 1435.5 869.873 1436.9C879.431 1445.99 876.517 1469.88 866.201 1484.75C858.683 1495.59 847.669 1502.23 848.718 1514.64C848.856 1516.64 849.288 1518.6 850 1520.47C850.179 1514.33 852.776 1508.51 857.226 1504.27C858.916 1502.7 863.928 1498.44 868.882 1499.84C871.337 1501.21 873.289 1503.33 874.452 1505.89C875.616 1508.45 875.931 1511.31 875.351 1514.06C873.661 1523.85 861.539 1524.32 853.089 1536.38C848.885 1542.69 846.561 1550.07 846.387 1557.65C847.314 1554.59 848.606 1551.66 850.233 1548.91C853.089 1544.13 856.877 1537.78 862.879 1537.25C864.618 1537.2 866.343 1537.57 867.907 1538.33C869.47 1539.09 870.825 1540.22 871.854 1541.63C876.284 1547.45 873.37 1557.19 868.474 1562.49C865.612 1565.38 861.984 1567.38 858.018 1568.27C854.052 1569.16 849.914 1568.89 846.095 1567.5C842.609 1566.11 839.485 1563.95 836.961 1561.17C834.436 1558.39 832.577 1555.08 831.525 1551.47C831.986 1556.43 833.771 1561.18 836.693 1565.21C839.614 1569.24 843.566 1572.42 848.134 1574.4C852.703 1576.38 857.72 1577.1 862.661 1576.49C867.603 1575.87 872.288 1573.93 876.225 1570.88C881.939 1564.95 885.117 1557.03 885.084 1548.79C885.725 1537.14 880.596 1533.41 883.452 1524.84C885.595 1519.17 889.742 1514.49 895.108 1511.67C903.267 1507.3 919.993 1507.82 926.578 1516.33C928.56 1518.9 928.327 1520.59 928.968 1535.51C930.017 1558.82 930.891 1562.55 933.455 1566.45C938.817 1574.55 948.724 1578.11 949.598 1576.88C950.472 1575.66 944.703 1572.4 941.09 1565.23C938.645 1559.87 937.458 1554.02 937.619 1548.13C937.781 1542.24 939.287 1536.47 942.022 1531.25C948.899 1518.43 957.233 1519.3 964.751 1504.85C967.966 1498.5 969.737 1491.51 969.938 1484.4C969.331 1493 965.352 1501.03 958.865 1506.72Z" fill="#ECECEC"/>
<path d="M559.25 1190.15C555.579 1193.35 547.594 1200.52 541.767 1198.07C532.209 1193.93 545.263 1168.52 540.484 1125.4C537.57 1099.35 529.528 1079.53 541.3 1066.07C543.581 1063.43 546.377 1061.29 549.518 1059.78C545.147 1059.34 540.746 1060.21 536.871 1062.28C517.523 1073.53 539.902 1112.34 522.884 1155.53C512.802 1181.17 492.171 1200.34 483.604 1197.72C477.368 1195.74 471.949 1180.24 470.084 1171.5C470.084 1170.91 470.084 1170.45 470.084 1170.21C463.673 1138.57 479.874 1114.85 471.074 1090.31C469.234 1085.39 466.828 1080.7 463.906 1076.33C459.025 1069.86 453.119 1064.23 446.422 1059.66C450.316 1063.91 453.699 1068.61 456.505 1073.65C473.406 1104.24 468.51 1149.7 441.935 1166.89C438.303 1169.19 434.384 1170.99 430.279 1172.25C433.959 1172.96 437.758 1172.67 441.294 1171.44C445.607 1169.75 446.539 1167.48 448.52 1167.77C453.416 1168.47 459.127 1183.73 452.95 1190.44C448.987 1194.69 442.867 1192.71 433.193 1199C431.1 1200.4 429.148 1202 427.365 1203.78C440.255 1201.03 453.581 1201.03 466.47 1203.78C477.427 1206.29 483.954 1210.54 493.687 1208.44C500.803 1206.58 507.247 1202.74 512.277 1197.37C524.691 1186.07 528.654 1173.48 530.81 1174.06C531.743 1174.35 531.335 1176.97 531.16 1180.7C530.985 1184.43 530.46 1201.51 536.988 1206.11C542.816 1209.96 552.84 1206.11 558.959 1202.27C581.163 1187.76 578.715 1150.81 577.841 1150.63C576.967 1150.46 576.676 1174.93 559.25 1190.15Z" fill="#ECECEC"/>
<path d="M967.896 1185.95C964.225 1189.16 956.241 1196.32 950.413 1193.88C940.855 1189.74 953.909 1164.33 949.131 1121.2C946.217 1095.15 938.174 1075.34 949.947 1061.88C952.243 1059.26 955.036 1057.12 958.164 1055.58C953.793 1055.15 949.392 1056.02 945.517 1058.09C926.169 1069.34 948.548 1108.15 931.53 1151.33C921.448 1176.98 900.817 1196.15 892.25 1193.53C885.956 1191.55 880.595 1176.04 878.73 1167.3C878.73 1166.72 878.73 1166.25 878.73 1166.02C872.319 1134.37 888.521 1110.71 879.721 1086.12C877.88 1081.2 875.475 1076.5 872.552 1072.13C867.653 1065.68 861.75 1060.05 855.069 1055.46C858.948 1059.73 862.33 1064.42 865.151 1069.45C882.052 1100.05 877.156 1145.21 850.523 1162.7C846.903 1165.01 842.981 1166.82 838.867 1168.06C842.564 1168.79 846.391 1168.51 849.94 1167.24C854.253 1165.61 855.185 1163.28 857.167 1163.57C862.062 1164.27 867.773 1179.54 861.596 1186.24C857.633 1190.5 851.514 1188.52 841.781 1194.81C839.695 1196.22 837.744 1197.82 835.953 1199.59C848.843 1196.83 862.169 1196.83 875.058 1199.59C886.015 1202.09 892.542 1206.35 902.274 1204.31C909.385 1202.4 915.823 1198.54 920.865 1193.18C933.279 1181.87 937.242 1169.28 939.398 1169.87C940.33 1169.87 939.864 1172.78 939.748 1176.51C939.631 1180.24 938.99 1197.32 945.576 1201.92C951.404 1205.77 961.427 1201.92 967.547 1198.07C989.751 1183.56 987.303 1146.61 986.371 1146.5C985.438 1146.38 985.322 1170.68 967.896 1185.95Z" fill="#ECECEC"/>
<path d="M176.822 1599.03L186.497 1593.2C181.485 1596.23 177.93 1598.39 176.822 1599.03Z" fill="#ECECEC"/>
<path d="M176.821 1598.97C176.807 1598.72 176.807 1598.47 176.821 1598.21C176.807 1598.47 176.807 1598.72 176.821 1598.97Z" fill="#ECECEC"/>
<path d="M222.922 1570.3C206.721 1580.44 194.366 1588.19 186.498 1593.03C195.59 1587.61 209.518 1579.22 222.922 1570.3Z" fill="#ECECEC"/>
<path d="M560.762 1321.86C559.138 1323.56 557.138 1324.86 554.921 1325.65C552.704 1326.44 550.333 1326.7 547.998 1326.4C541.355 1324.42 539.665 1314.75 539.49 1313.7C538.875 1309.06 539.518 1304.34 541.354 1300.03C543.189 1295.72 546.148 1291.99 549.922 1289.22C554.176 1286.31 558.139 1286.07 561.577 1281.29C563.2 1279.06 564.35 1276.53 564.958 1273.83C563.45 1276.27 561.397 1278.33 558.959 1279.83C556.521 1281.34 553.767 1282.26 550.912 1282.52C543.394 1282.52 539.548 1270.51 536.11 1260.84C533.562 1253.59 532.051 1246.02 531.622 1238.34C531.476 1244.46 530.456 1250.52 528.592 1256.35C527.211 1260.54 525.415 1264.58 523.23 1268.41C525.697 1267.42 528.456 1267.42 530.923 1268.41C538.499 1271.85 539.839 1287.65 535.468 1298.66C529.058 1314.63 508.777 1322.85 505.164 1319.29C504.114 1318.24 503.94 1315.62 507.145 1309.15C504.319 1312.93 501.007 1316.32 497.296 1319.23C489.953 1325.06 486.922 1324.07 485.99 1323.66C477.015 1319.7 493.857 1264.92 475.908 1249.47C451.081 1228.26 365.178 1290.62 343.44 1306.18C307.773 1332 278.401 1354.14 247.571 1393.6C177.345 1484.57 176.879 1588.89 176.879 1598.1C176.879 1591.69 180.492 1544.02 210.681 1528.16C231.37 1517.5 259.402 1524.72 261.267 1533.12C263.132 1541.51 243.783 1556.43 222.919 1569.95C256.954 1548.56 307.831 1516.68 368.616 1478.63C347.286 1489.12 236.79 1542.33 209.981 1509.81C199.025 1496.52 206.135 1473.91 211.963 1462.72C240.811 1407.58 360.108 1400.82 387.557 1444.36C403.176 1469.13 386.333 1505.78 383.069 1512.84C351.307 1582.01 273.447 1571.11 246.172 1628.87C218.898 1686.62 266.803 1761.28 267.619 1761.28C268.435 1761.28 223.56 1689.83 250.835 1634.29C277.06 1580.91 343.381 1595.88 386.275 1526.59C391.811 1517.61 417.629 1475.95 402.185 1447.1C385.983 1416.97 333.707 1417.43 334.698 1407.58C335.281 1401.76 354.862 1396.34 373.395 1398.67C402.535 1402.22 422.058 1423.73 423.631 1421.98C424.272 1421.22 421.417 1417.08 407.896 1403.56C351.948 1366.26 258.353 1432.7 247.863 1418.13C246.172 1415.69 243.258 1405.02 286.093 1362.53C353.697 1295.51 452.246 1232.17 472.003 1252.21C479.929 1260.26 478.647 1285.26 468.39 1300.06C460.872 1310.9 449.857 1317.54 450.906 1329.96C451.031 1331.95 451.443 1333.91 452.13 1335.78C452.364 1329.66 454.953 1323.85 459.356 1319.58C461.105 1318.01 466.117 1313.76 471.012 1315.15C473.46 1316.53 475.407 1318.65 476.57 1321.21C477.733 1323.76 478.052 1326.62 477.481 1329.37C475.791 1339.17 463.611 1339.63 455.219 1351.7C450.991 1358 448.665 1365.38 448.516 1372.97C449.419 1369.9 450.711 1366.96 452.363 1364.22C455.219 1359.45 459.007 1353.09 464.951 1352.57C466.698 1352.52 468.431 1352.89 470.004 1353.65C471.577 1354.41 472.942 1355.54 473.984 1356.94C478.414 1362.77 475.441 1372.5 470.546 1377.8C467.693 1380.69 464.075 1382.69 460.119 1383.58C456.163 1384.46 452.036 1384.2 448.225 1382.82C444.674 1381.44 441.492 1379.25 438.933 1376.43C436.374 1373.6 434.507 1370.23 433.481 1366.56C433.911 1371.52 435.676 1376.28 438.588 1380.33C441.499 1384.38 445.45 1387.56 450.023 1389.55C454.596 1391.54 459.62 1392.26 464.566 1391.62C469.512 1390.99 474.196 1389.04 478.122 1385.96C483.885 1380.06 487.07 1372.12 486.98 1363.88C487.622 1352.22 482.551 1348.49 485.407 1339.92C487.531 1334.24 491.683 1329.55 497.063 1326.75C505.222 1322.38 521.948 1322.91 528.475 1331.41C530.515 1333.98 530.282 1335.67 530.923 1350.59C531.913 1373.9 532.788 1377.63 535.41 1381.53C540.772 1389.63 550.679 1393.19 551.553 1391.97C552.428 1390.74 546.6 1387.48 543.045 1380.31C540.574 1374.96 539.372 1369.11 539.534 1363.21C539.696 1357.32 541.216 1351.54 543.977 1346.33C550.854 1333.51 559.188 1334.39 566.706 1319.93C569.921 1313.58 571.692 1306.59 571.893 1299.48C571.268 1308.11 567.269 1316.15 560.762 1321.86Z" fill="#ECECEC"/>
<path d="M1227.82 1601.77C1226.71 1601.01 1223.16 1598.86 1218.15 1595.94L1227.82 1601.77Z" fill="#ECECEC"/>
<path d="M1218.33 1595.76C1210.46 1590.93 1198.11 1583.18 1181.9 1573.04C1195.31 1581.95 1209.24 1590.34 1218.33 1595.76Z" fill="#ECECEC"/>
<path d="M1022.04 1515.93C1018.83 1508.87 1001.93 1472.22 1017.55 1447.45C1045 1403.91 1164.3 1410.68 1193.14 1465.81C1198.97 1477 1206.08 1499.67 1195.13 1512.95C1168.32 1545.47 1057.82 1492.21 1036.49 1481.72C1096.98 1519.77 1147.86 1551.65 1182.19 1573.04C1161.56 1559.23 1142.09 1543.9 1143.84 1536.27C1145.59 1528.63 1173.74 1520.59 1194.43 1531.31C1224.62 1546.87 1228.05 1594.54 1228.29 1601.25C1228.29 1591.86 1227.76 1487.54 1157.36 1396.92C1134.05 1367.32 1110.39 1347.73 1061.49 1309.5C1061.49 1309.5 961.778 1231.06 897.787 1236.6C891.67 1236.78 885.681 1238.39 880.304 1241.32C855.069 1256.24 855.71 1293.13 846.56 1293.13C837.411 1293.13 837.993 1258.16 813.283 1243.53C808.125 1240.09 801.986 1238.44 795.799 1238.81C777.209 1240.73 766.951 1264.22 765.611 1267.37C779.073 1247.96 801.278 1244.06 813.458 1253.21C817.385 1256.61 820.371 1260.96 822.127 1265.85C823.882 1270.74 824.349 1276 823.482 1281.12C822.375 1287.94 819.122 1294.23 814.196 1299.07C809.27 1303.91 802.927 1307.06 796.091 1308.05C797.627 1309.91 799.641 1311.32 801.919 1312.13C814.099 1315.62 824.706 1294.29 832.69 1296.91C840.674 1299.54 842.889 1321.28 836.245 1338.88C830.417 1353.45 815.265 1373.84 794.984 1370.93C778.199 1368.71 768.991 1352.28 767.651 1349.77C767.437 1354.31 768.617 1358.81 771.031 1362.65C774.178 1367.26 776.218 1369.12 775.752 1370.99C774.994 1374.37 764.97 1376.06 756.461 1372.68C751.059 1370.02 746.394 1366.07 742.878 1361.18C739.361 1356.29 737.101 1350.61 736.297 1344.65C734.981 1336.81 735.745 1328.78 738.511 1321.33C733.726 1327.25 730.859 1334.49 730.294 1342.08C729.07 1364.4 750.575 1384.92 769.924 1389.64C800.986 1397.27 837.177 1366.91 846.386 1331.36C846.386 1330.37 846.793 1329.32 847.027 1328.27V1329.14C856.235 1364.93 892.426 1395.29 923.488 1387.42C942.837 1382.7 964.284 1362.19 963.118 1339.87C962.553 1332.28 959.686 1325.04 954.901 1319.12C957.667 1326.56 958.431 1334.6 957.115 1342.43C956.311 1348.4 954.051 1354.08 950.534 1358.97C947.018 1363.85 942.353 1367.8 936.951 1370.46C928.442 1373.84 918.418 1372.15 917.66 1368.83C917.194 1366.91 919.234 1365.04 922.381 1360.44C924.795 1356.59 925.975 1352.1 925.761 1347.56C924.421 1350.07 915.213 1366.5 898.428 1368.71C878.147 1371.45 862.704 1351.23 857.167 1336.66C850.523 1319.18 853.496 1297.15 860.722 1294.7C867.949 1292.25 879.313 1313.41 891.493 1309.91C893.771 1309.11 895.785 1307.7 897.321 1305.83C890.485 1304.84 884.142 1301.7 879.216 1296.85C874.29 1292.01 871.037 1285.73 869.93 1278.91C869.564 1273.81 870.266 1268.7 871.993 1263.89C873.719 1259.08 876.431 1254.69 879.954 1250.99C883.288 1247.23 887.228 1244.06 891.61 1241.61C912.707 1230.54 1011.9 1257.98 1118.61 1365.51C1159.69 1406.95 1159.4 1417.2 1156.84 1421.11C1146.4 1435.85 1052.75 1369.3 996.803 1406.54C983.282 1420.06 980.427 1424.02 981.068 1424.95C982.641 1426.82 1002.16 1405.31 1031.36 1401.64C1049.84 1399.37 1069.42 1404.56 1070 1410.56C1070.99 1420.47 1018.72 1419.94 1002.57 1450.07C987.071 1478.92 1012.89 1520.59 1018.42 1529.56C1061.32 1598.86 1127.64 1583.88 1153.86 1637.26C1181.14 1692.8 1136.38 1764.02 1137.08 1764.25C1137.78 1764.49 1186.03 1690.18 1158.82 1632.25C1131.6 1574.32 1053.8 1585.1 1022.04 1515.93Z" fill="#ECECEC"/>
</svg>
