<svg width="1400" height="2000" viewBox="0 0 1400 2000" fill="none" xmlns="http://www.w3.org/2000/svg">
<rect width="1399.32" height="2000" fill="#141414"/>
<path d="M1210.92 1061.44C1210.22 1057.84 1209.58 1054.94 1209.12 1052.97C1210.97 1076.14 1211.51 1099.4 1210.74 1122.63C1210.1 1141.78 1208.01 1177.6 1205.75 1177.49C1202.04 1177.49 1207.84 1082.05 1190.48 1017.61C1179.74 977.791 1163.43 961.943 1151.59 954.802C1157.94 962.847 1161.56 972.711 1161.92 982.957C1161.92 998.515 1151.76 1005.54 1143.52 1021.39C1122.68 1061.44 1121.23 1142.77 1119.54 1141.84C1117.86 1140.91 1121.69 1050.82 1139.51 752.901C1134.12 774.148 1122.1 814.551 1103.52 836.204C1109.43 906.688 1111.37 977.447 1109.33 1048.15C1107.99 1097.09 1105.15 1131.57 1104.51 1139.4C1099.47 1208.51 1087.93 1276.98 1070.03 1343.92C1077.4 1324.41 1085.88 1318.9 1090.87 1328.24C1093.85 1336.15 1095.42 1344.52 1095.51 1352.97C1096.52 1378.61 1091.53 1404.14 1080.94 1427.51C1092.45 1428.29 1104.01 1427.11 1115.13 1424.03C1153.85 1413.35 1174.34 1407.66 1191.53 1366.67C1221.71 1295.56 1228.33 1148.05 1210.92 1061.44ZM1170.28 1313.85C1168.25 1355.3 1143.64 1390.01 1128.83 1369.17C1119.54 1356.05 1114.09 1320.99 1116.82 1311.87C1118.79 1305.14 1123.72 1318.14 1132.55 1317.68C1149.56 1316.69 1158.09 1267 1165.58 1276.58C1170.28 1281.69 1171.27 1300.96 1170.63 1313.85H1170.28ZM1193.91 1248.19C1190.83 1279.89 1184.56 1313.79 1180.32 1312.05C1176.09 1310.31 1179.05 1258.41 1170.22 1241.34C1156 1213.94 1126.69 1309.44 1116.41 1288.77C1106.72 1269.26 1114.9 1148.52 1143.35 1095.69C1146.54 1089.89 1166.57 1053.08 1181.78 1075.49C1201.05 1102.77 1199.31 1198.85 1194.26 1248.19H1193.91Z" fill="#ECECEC"/>
<path d="M651.363 1087.57C655.601 1089.48 669.881 1094.42 680.969 1068.76C694.03 1038.51 695.365 982.726 692.985 947.49C689.212 891.238 675.222 876.551 674.177 817.804C673.854 800.349 674.727 782.893 676.789 765.558C675.809 780.171 675.829 794.834 676.847 809.444C677.718 823.086 678.589 837.251 682.246 844.855C687.064 854.898 693.856 848.28 697.397 844.855C713.419 828.369 716.09 779.258 733.737 755.109C743.78 741.293 753.184 743.499 763.285 746.691C803.398 759.404 842.292 867.495 848.794 990.505C850.303 1018.89 849.839 1042.75 849.2 1058.66C836.313 971.581 829.986 952.25 826.619 954.63C820.233 959.042 819.362 1044.26 826.619 1114.5C832.097 1170.5 843.779 1225.72 861.449 1279.13C825.167 1232 795.619 1221.84 788.305 1253.59C782.5 1279.6 791.033 1334.86 799.277 1366.79C810.074 1408.36 824.18 1424.84 823.6 1428.04C823.019 1431.23 805.372 1401.85 782.384 1376.66C757.422 1349.32 744.883 1335.62 730.544 1334.05C706.685 1331.44 686.716 1354.66 676.963 1366.33C661.638 1384.67 648.344 1409.28 647.938 1406.96C647.067 1402.9 685.032 1351.64 683.175 1297.89C682.536 1280.47 677.37 1253.82 672.493 1256.03C670.404 1256.96 669.184 1259.34 667.037 1263C663.379 1269.21 657.458 1274.95 647.764 1271.07C653.569 1266.6 665.759 1254.17 674.351 1220.04C684.8 1178.3 686.542 1116.59 679.75 1103.94C676.673 1098.13 673.945 1103.24 665.353 1102.2C661.348 1101.44 656.762 1098.6 651.363 1087.57ZM771.18 970.594C764.724 947.937 761.462 924.491 761.485 900.933C761.485 860.878 771.354 843.52 768.336 810.78C766.536 790.81 760.789 773.975 754.461 768.054C742.213 756.444 729.499 790.055 724.913 802.13C704.131 856.814 705.002 946.27 705.35 966.53C706.337 1031.14 714.987 1036.89 714.116 1092.67C712.897 1170.11 695.714 1196.06 700.532 1226.19C707.44 1268.86 752.778 1280.59 780.178 1219.4C802.934 1168.95 804.385 1088.26 807.404 926.998C808.275 878.757 807.404 840.734 799.393 826.918C792.659 815.308 783.022 824.596 777.566 836.438C766.536 860.587 763.401 915.097 771.18 970.594ZM833.062 1217.72C837.706 1199.43 819.536 1123.73 809.378 1130.64C805.43 1133.25 802.992 1148.06 802.528 1158.85C801.818 1175.64 805.352 1192.33 812.803 1207.38C819.478 1220.56 830.334 1228.51 833.062 1217.72Z" fill="#ECECEC"/>
<path d="M993.055 999.847C1015.23 926.007 1045.3 969.08 1071.42 888.912C1085.7 845.432 1090.7 790.632 1092.67 749.59C1083.21 832.835 1058.3 891.64 1029.74 898.607C992.648 907.663 969.138 824.592 967.164 817.335C965.248 824.534 942.434 905.863 906.385 898.607C877.824 892.801 852.804 833.59 843.516 749.59C845.431 790.748 850.482 845.548 864.704 888.912C891.001 969.08 920.898 926.007 943.073 999.847C947.659 1015.17 952.071 1093.6 960.488 1249.47C964.668 1324.93 966.7 1367.43 959.095 1382.4C952.187 1395.99 940.519 1380.43 933.32 1368.41C944.582 1412.71 956.831 1435.17 963.565 1425.65C966.02 1421.11 967.484 1416.11 967.861 1410.96C968.2 1416.11 969.646 1421.12 972.098 1425.65C978.832 1435.17 991.081 1412.71 1002.4 1368.41C995.145 1380.43 983.476 1395.99 976.568 1382.4C968.964 1367.43 970.763 1324.99 975.175 1249.47C984.057 1093.89 988.469 1015.17 993.055 999.847Z" fill="#ECECEC"/>
<path d="M1132.55 686.609C1129.36 684.519 1116.3 711.164 1097.26 711.629C1093.15 711.374 1089.13 710.31 1085.43 708.496C1081.74 706.683 1078.44 704.157 1075.72 701.064C1079.14 703.361 1083 704.936 1087.05 705.695C1091.1 706.453 1095.27 706.379 1099.29 705.475C1106.91 703.029 1113.34 697.835 1117.34 690.905C1123.55 681.675 1121.17 678.482 1125.82 667.684C1132.84 651.372 1147.88 644.464 1146.19 641.736C1145.26 640.226 1141.32 643.245 1134 641.736C1129.68 640.888 1125.67 638.881 1122.39 635.93C1121.2 634.33 1119.75 632.937 1118.1 631.809C1116.13 630.559 1113.77 630.102 1111.48 630.532C1108.34 631.867 1106.95 638.775 1109.68 647.308C1103.43 638.817 1100.34 628.403 1100.97 617.877C1101.9 606.394 1107.15 595.692 1115.66 587.922C1123.95 579.96 1134.78 575.189 1146.25 574.454C1163.67 573.932 1168.19 584.671 1181.08 580.26C1186.69 578.512 1191.81 575.492 1196.06 571.436C1198.48 569.058 1200.57 566.364 1202.27 563.425C1201.21 569.588 1198.79 575.439 1195.19 580.55C1190.37 587.342 1186.77 587.806 1184.56 593.205C1180.91 602.319 1185.26 615.496 1191.12 616.425C1195.65 617.354 1200.41 610.969 1204.36 605.686C1209.96 598.19 1213.82 589.546 1215.68 580.376C1216.67 590.702 1214.51 601.086 1209.47 610.156C1202.79 621.766 1194.78 624.146 1189.91 637.614C1189.38 639.007 1185.2 650.908 1190.43 655.784C1194.14 659.267 1200.76 657.525 1203.61 656.713C1217.65 652.997 1225.14 639.297 1227.7 634.305C1225.61 642.501 1221.88 650.185 1216.73 656.887C1205.41 671.516 1193.5 671.922 1190.54 683.474C1189.42 687.949 1189.65 692.658 1191.21 697.001C1192.77 701.344 1195.59 705.123 1199.31 707.856C1202.72 710.14 1206.68 711.44 1210.78 711.615C1214.88 711.789 1218.94 710.829 1222.53 708.842C1218.31 711.796 1213.5 713.779 1208.42 714.647C1203.3 715.654 1198.02 715.465 1192.99 714.095C1187.95 712.726 1183.3 710.213 1179.4 706.753C1164.19 689.918 1187.24 652.707 1175.39 644.754C1171.56 642.142 1166.1 644.116 1160.53 646.147C1155.1 648.163 1150.28 651.564 1146.56 656.013C1142.85 660.463 1140.36 665.807 1139.34 671.516C1138.07 680.746 1143 682.371 1142.83 691.137C1142.83 707.507 1125.41 725.561 1106.83 729.625C1091.28 732.992 1085.47 724.11 1067.01 727.07C1056.3 728.983 1046.29 733.689 1037.99 740.712C1041.53 735.298 1046.12 730.642 1051.48 727.014C1056.84 723.387 1062.87 720.86 1069.22 719.582C1077.87 718.421 1079.72 721.556 1091.45 720.685C1097.66 720.22 1115.14 718.885 1125.82 705.533C1131.85 697.697 1134.41 687.828 1132.55 686.609ZM1172.2 606.847C1172.2 604.06 1173.13 590.883 1164.83 584.613C1150.72 574.106 1123.09 592.857 1124.19 600.519C1124.19 602.377 1126.28 603.654 1126.11 606.324C1125.93 608.995 1122.8 611.549 1119.9 613.058C1120.96 611.745 1121.62 610.144 1121.77 608.46C1121.93 606.775 1121.58 605.082 1120.77 603.596C1119.78 601.913 1117.57 599.649 1115.95 600.229C1113.34 601.158 1112.87 609.575 1114.5 615.496C1117.75 627.455 1133.25 641.794 1150.37 637.324C1165 633.492 1171.56 617.877 1172.2 606.847Z" fill="#ECECEC"/>
<path d="M203.152 252.15C204.05 244.729 207.823 237.955 213.659 233.284C217.603 230.307 222.315 228.518 227.241 228.127C232.167 227.736 237.102 228.76 241.466 231.078C260.39 243.675 245.123 290.754 260.216 296.269C262.101 296.893 264.137 296.893 266.021 296.269C280.824 290.87 269.62 245.823 288.081 235.722C292.318 233.342 293.886 235.316 300.039 232.123C308.465 227.46 314.98 219.979 318.441 210.992C318.035 212.56 317.338 214.94 316.467 217.842C311.939 232.587 309.095 236.825 307.063 243.675C302.709 258.013 304.335 275.255 309.211 276.706C311.707 277.461 315.016 274.21 318.499 269.856C322.682 264.468 326.064 258.505 328.542 252.15C328.542 253.427 328.02 255.517 327.497 257.955C321.286 287.445 305.438 294.527 304.277 312.117C303.116 327.965 313.913 345.032 323.085 345.032C330.342 345.032 337.714 335.86 342.184 323.321C336.379 344.858 321.808 357.455 309.908 355.829C297.078 354.03 290.693 336.208 290.286 335.105C285.236 320.534 291.796 311.478 296.44 285.704C301.49 257.839 299.342 238.276 298.298 238.16C297.253 238.044 299.342 292.147 275.077 302.945C271.329 304.73 267.171 305.478 263.036 305.11C258.902 304.742 254.941 303.273 251.567 300.855C236.764 286.981 256.965 250.583 240.305 237.405C239.608 236.883 234.151 232.529 229.623 234.329C220.625 237.87 224.108 262.483 222.657 309.04C221.554 344.277 218.884 351.533 213.543 354.32C203.791 359.428 188.175 347.992 180.454 341.549C182.08 342.652 192.064 349.27 200.946 345.67C213.137 340.794 213.137 321.869 213.195 316.645C213.195 305.905 209.422 293.425 205.126 293.076C200.83 292.728 197.869 301.668 196.708 305.731C195.653 309.326 195.279 313.087 195.605 316.819C194.766 314.966 194.162 313.016 193.806 311.014C193.011 303.165 195.072 295.292 199.611 288.838C214.588 261.613 219.522 253.485 217.026 245.997C216.736 245.126 215.575 241.875 213.253 241.411C208.493 241.063 203.442 251.396 203.152 252.15ZM288.719 242.456C284.83 242.166 276.18 288.897 279.895 290.116C281.695 290.638 286.745 280.363 289.009 272.178C293.015 257.955 290.925 242.514 288.719 242.34V242.456ZM296.846 319.141C295.337 319.141 292.318 335.569 301.2 344.451C307.005 350.256 316.177 351.185 316.874 349.734C317.57 348.283 311.069 346.077 305.264 338.472C297.659 328.603 298.007 318.851 296.846 319.025V319.141Z" fill="#ECECEC"/>
<path d="M305.316 528.532C302.541 522.838 300.586 516.779 299.511 510.537C298.154 501.85 298.291 492.996 299.917 484.356C307.29 448.48 345.836 432.11 339.566 418.003C338.871 416.606 337.892 415.368 336.693 414.369C335.494 413.369 334.1 412.63 332.6 412.198C321.57 408.773 301.891 435.767 300.091 438.205C302.721 428.872 307.306 420.204 313.541 412.778C319.776 405.352 327.52 399.336 336.257 395.131C338.811 394.028 363.077 383.521 383.627 393.622C391.119 398.193 398.872 402.322 406.847 405.987C413.017 408.53 419.533 410.135 426.178 410.747C421.099 413.008 417.115 417.179 415.09 422.357C412.188 430.658 415.09 441.92 422.753 445.229C426.115 446.527 429.84 446.527 433.202 445.229C432.8 445.697 432.353 446.125 431.867 446.506C424.959 452.311 408.647 448.364 404.873 440.237C401.564 433.155 409.924 427.582 407.311 419.745C404.699 411.908 391.289 406.916 382.35 406.916C355.356 406.916 320.699 446.448 328.42 482.788C332.6 502.409 349.783 525.746 372.481 525.92C379.005 525.837 385.41 524.159 391.137 521.032C396.864 517.906 401.74 513.425 405.338 507.982C408.381 503.066 410.397 497.584 411.265 491.867C412.133 486.151 411.835 480.317 410.388 474.719C409.687 472.042 408.735 469.438 407.544 466.94C413.295 472.932 417.272 480.401 419.035 488.517C420.797 496.633 420.276 505.079 417.528 512.917C409.227 534.57 385.252 538.923 378.692 540.143C359.594 543.626 335.328 537.937 324.937 522.089C315.823 508.156 319.887 490.277 314.952 489.58C311.411 489.116 307.58 498.172 306.651 500.262C303.021 509.263 302.55 519.229 305.316 528.532Z" fill="#ECECEC"/>
<path d="M350.025 290.35C353.121 290.93 356.303 290.874 359.377 290.185C362.451 289.497 365.352 288.19 367.905 286.345C375.8 279.959 376.613 268.117 375.219 260.628C372.897 248.728 364.48 245.593 363.609 233.17C363.448 229.428 363.979 225.689 365.176 222.14C364.6 225.17 364.6 228.282 365.176 231.312C365.254 234.151 366.417 236.853 368.427 238.859C369.853 239.565 371.422 239.932 373.013 239.932C374.604 239.932 376.174 239.565 377.599 238.859C387.236 235.376 388.861 224.985 399.485 219.876C405.125 217.479 411.36 216.851 417.364 218.077C441.571 220.805 465.082 243.677 469.03 269.742C469.688 274.538 469.688 279.401 469.03 284.197C461.251 265.736 457.419 261.673 455.388 262.137C451.556 263.124 451.034 281.178 455.388 296.039C459.382 309.192 466.56 321.156 476.286 330.87C454.343 320.885 436.521 318.737 432.109 325.471C428.51 330.986 433.793 342.886 438.727 349.446C443.075 354.493 448.141 358.874 453.762 362.449C453.356 363.204 442.791 356.644 428.858 351.536C413.765 345.731 406.218 342.828 397.569 342.538C386.423 342.397 375.382 344.716 365.235 349.33C355.946 353.219 347.819 358.444 347.819 357.921C347.819 357.399 370.227 346.311 369.066 334.701C368.718 330.986 365.641 325.355 362.622 325.819C361.418 326.062 360.286 326.578 359.313 327.329C355.754 329.216 351.651 329.81 347.703 329.012C353.976 327.307 359.496 323.546 363.377 318.331C369.704 309.449 370.749 296.387 366.686 293.717C364.828 292.556 363.087 293.717 357.978 293.369C355.095 293.133 352.338 292.087 350.025 290.35ZM422.415 265.562C418.811 261.48 416.756 256.261 416.61 250.817C416.61 242.342 422.415 238.685 420.789 231.719C420.211 229.647 419.146 227.743 417.681 226.168C416.217 224.592 414.396 223.39 412.372 222.663C404.999 220.225 397.337 227.307 394.55 229.861C381.953 241.471 382.534 260.454 382.94 264.692C383.579 278.45 388.745 279.611 388.281 291.453C387.526 307.881 377.135 313.396 380.037 319.724C384.217 328.78 411.443 331.334 428.162 318.331C441.862 307.591 442.791 290.524 444.59 256.332C445.113 246.115 444.59 238.046 439.772 235.144C437.607 234.228 435.23 233.928 432.905 234.276C430.58 234.624 428.396 235.607 426.594 237.117C419.628 242.226 417.713 253.778 422.415 265.562ZM459.799 317.808C462.644 313.919 451.614 297.897 445.519 299.348C443.139 299.87 441.63 303.063 441.339 305.153C440.701 310.668 446.448 314.615 447.551 315.428C451.614 318.505 458.174 320.188 459.799 317.924V317.808Z" fill="#ECECEC"/>
<path d="M161.645 545.079C180.279 540.377 194.792 527.664 198.565 511.874C199.76 506.528 199.863 500.994 198.865 495.607C197.867 490.22 195.791 485.091 192.76 480.527C190.056 476.482 185.898 473.634 181.15 472.574C176.712 471.872 172.174 472.867 168.436 475.36C171.804 471.176 176.455 468.218 181.672 466.943C190.089 465.027 195.488 469.729 200.132 466.594C202.57 464.911 202.861 462.241 204.254 451.559C205.088 442.005 206.582 432.52 208.724 423.172C209.925 416.743 212.787 410.739 217.025 405.757C221.061 401.72 226.085 398.813 231.596 397.326C237.107 395.839 242.912 395.824 248.431 397.282C251.452 397.897 254.233 399.368 256.442 401.519C251.192 400.18 245.775 399.612 240.362 399.836C232.293 400.881 223.411 405.931 223.469 410.924C223.55 411.736 223.792 412.523 224.181 413.241C224.57 413.958 225.097 414.592 225.733 415.103C232.234 420.908 247.154 414.116 254.758 411.33C256.753 410.554 258.693 409.642 260.563 408.602C271.187 402.797 281.636 399.313 291.214 402.797C293.943 403.729 296.452 405.211 298.587 407.15C292.568 405.259 286.149 405.037 280.014 406.509C273.88 407.982 268.26 411.093 263.756 415.51C260.85 417.758 258.801 420.933 257.951 424.508C257.643 426.195 257.701 427.928 258.121 429.591C258.542 431.254 259.316 432.807 260.389 434.144C264.173 439.254 268.429 443.997 273.102 448.308C281.359 455.915 287.143 465.824 289.705 476.753C292.143 497.478 264.801 507.114 266.02 531.205C266.378 537.11 268.193 542.834 271.303 547.866C266.946 545.33 263.402 541.604 261.086 537.126C258.484 530.953 257.719 524.161 258.88 517.563C259.518 510.481 259.693 503.399 259.925 496.317C259.925 493.472 259.518 493.066 257.022 494.111C253.69 495.523 250.063 496.101 246.457 495.794C240.652 495.214 238.446 489.989 230.319 485.925C222.192 481.862 208.898 482.268 205.357 487.667C203.557 490.511 205.357 492.775 205.937 500.322C206.758 507.975 205.599 515.711 202.57 522.788C197.742 530.944 190.17 537.117 181.208 540.203C175.016 542.944 168.398 544.593 161.645 545.079ZM207.389 476.695C210.407 477.74 214.529 472.69 216.851 470.368C229.158 458.293 249.127 468.568 255.629 460.383C262.131 452.198 251.682 423.172 237.517 421.083C219.115 418.412 201.99 461.08 204.602 472.283C204.834 473.27 205.473 475.999 207.389 476.695ZM265.44 506.94C266.717 507.346 269.213 504.037 274.205 497.362C281.055 488.189 281.752 485.751 281.984 483.72C282.565 480.062 281.984 474.025 279.14 472.748C276.295 471.471 271.651 475.709 270.838 476.521C268.017 479.504 266.156 483.266 265.498 487.319C263.93 494.459 262.769 506.069 265.672 506.94H265.44ZM250.056 468.162C243.322 467.814 237.923 475.012 238.91 478.959C240.42 484.764 256.906 487.261 259.751 482.617C260.169 481.042 260.251 479.396 259.991 477.787C259.731 476.179 259.135 474.643 258.243 473.279C257.35 471.916 256.181 470.755 254.81 469.874C253.44 468.992 251.899 468.409 250.288 468.162H250.056Z" fill="#ECECEC"/>
<path d="M588.318 1568.86C605.734 1564.51 619.085 1552.84 622.568 1538.04C623.699 1533.1 623.814 1527.97 622.906 1522.98C621.998 1517.99 620.086 1513.24 617.286 1509.01C614.847 1505.27 611.065 1502.61 606.72 1501.58C602.662 1501.02 598.537 1501.95 595.11 1504.2C598.195 1500.35 602.424 1497.58 607.185 1496.3C615.022 1494.56 619.956 1498.91 624.252 1496.3C626.574 1494.73 626.864 1492.3 628.141 1482.37C628.887 1473.5 630.265 1464.69 632.263 1456.01C633.378 1450.03 636.04 1444.45 639.984 1439.82C643.745 1436.14 648.402 1433.51 653.493 1432.18C658.584 1430.86 663.933 1430.89 669.009 1432.27C671.781 1432.86 674.334 1434.2 676.382 1436.16C671.524 1434.96 666.521 1434.45 661.521 1434.65C653.974 1435.64 645.731 1440.46 645.847 1444.93C645.989 1446.44 646.719 1447.83 647.879 1448.81C653.974 1454.33 667.79 1447.89 674.872 1445.33C676.707 1444.6 678.491 1443.75 680.213 1442.78C690.082 1437.61 699.776 1434.13 708.658 1436.97C711.19 1437.83 713.521 1439.19 715.508 1440.98C709.899 1439.24 703.925 1439.05 698.215 1440.41C692.505 1441.78 687.269 1444.66 683.057 1448.76C680.199 1450.77 678.143 1453.73 677.252 1457.12C676.97 1458.68 677.02 1460.28 677.4 1461.82C677.78 1463.36 678.482 1464.81 679.458 1466.06C682.91 1470.78 686.797 1475.17 691.069 1479.18C698.739 1486.21 704.102 1495.39 706.452 1505.53C708.716 1524.75 683.232 1533.69 684.509 1556.09C684.84 1561.56 686.515 1566.87 689.385 1571.53C685.336 1569.19 682.05 1565.72 679.923 1561.55C677.58 1555.8 676.935 1549.49 678.065 1543.38C678.704 1536.82 678.82 1530.26 679.052 1523.64C679.052 1521.09 678.646 1520.68 676.382 1521.61C673.297 1522.96 669.921 1523.5 666.571 1523.18C660.766 1522.66 659.141 1517.72 651.594 1514.06C644.047 1510.41 631.682 1510.64 628.374 1515.63C626.632 1518.3 628.373 1520.39 628.896 1527.24C629.62 1534.33 628.521 1541.48 625.703 1548.02C621.382 1555.52 614.527 1561.22 606.372 1564.1C600.666 1566.7 594.562 1568.31 588.318 1568.86ZM630.754 1505.41C633.598 1506.4 637.371 1501.7 639.577 1499.61C651.188 1488.41 669.474 1497.87 675.511 1490.32C681.548 1482.77 671.854 1455.78 658.734 1453.87C641.667 1451.37 625.761 1490.9 628.199 1501.35C628.432 1502.28 629.012 1504.78 630.754 1505.41ZM684.799 1533.51C686.018 1533.86 688.34 1530.78 692.984 1524.63C699.312 1516.1 699.95 1513.6 700.241 1511.97C700.705 1508.55 700.241 1502.92 697.57 1501.76C694.9 1500.6 690.604 1504.54 689.849 1505.24C687.224 1508.02 685.485 1511.51 684.857 1515.28C683.232 1521.96 682.129 1532.7 684.799 1533.51ZM670.577 1497.52C664.307 1497.23 659.315 1503.85 660.243 1507.56C661.637 1512.96 676.904 1515.23 679.574 1510.93C679.958 1509.45 680.023 1507.91 679.767 1506.41C679.511 1504.9 678.939 1503.47 678.089 1502.2C677.239 1500.94 676.13 1499.86 674.835 1499.06C673.54 1498.25 672.089 1497.73 670.577 1497.52Z" fill="#ECECEC"/>
<path d="M601.381 545.075C620.073 540.373 634.528 527.66 638.301 511.87C639.497 506.524 639.599 500.991 638.601 495.603C637.604 490.216 635.527 485.087 632.496 480.523C629.792 476.478 625.634 473.63 620.886 472.57C616.431 471.882 611.879 472.875 608.115 475.356C611.551 471.139 616.287 468.179 621.583 466.939C630 465.023 635.399 469.725 639.985 466.591C642.481 464.907 642.771 462.237 644.164 451.555C644.928 441.993 646.422 432.503 648.634 423.168C649.835 416.739 652.697 410.735 656.936 405.753C660.983 401.697 666.027 398.778 671.56 397.29C677.094 395.802 682.922 395.798 688.457 397.278C692.927 398.613 696.642 400.935 696.41 401.515C691.182 400.168 685.783 399.601 680.388 399.832C672.261 400.877 663.379 405.927 663.495 410.92C663.669 412.544 664.459 414.04 665.701 415.099C672.261 420.904 687.18 414.112 694.727 411.326C696.722 410.55 698.661 409.638 700.532 408.598C711.155 402.793 721.604 399.31 731.183 402.793C733.912 403.726 736.421 405.207 738.555 407.146C732.35 405.266 725.755 405.086 719.456 406.624C713.493 408.161 708.032 411.222 703.609 415.506C700.666 417.72 698.608 420.91 697.803 424.504C697.447 426.177 697.466 427.909 697.857 429.575C698.248 431.241 699.003 432.8 700.067 434.14C703.871 439.251 708.147 443.994 712.839 448.305C721.095 455.911 726.879 465.82 729.441 476.749C731.821 497.474 704.537 507.11 705.698 531.201C706.098 537.106 707.931 542.825 711.039 547.862C706.67 545.341 703.122 541.612 700.822 537.122C698.279 530.932 697.574 524.14 698.79 517.559C699.487 510.477 699.603 503.395 699.893 496.313C699.893 493.468 699.429 493.062 696.991 494.107C693.657 495.515 690.032 496.093 686.425 495.79C680.62 495.21 678.414 489.985 670.229 485.922C662.044 481.858 648.808 482.264 645.325 487.663C643.526 490.508 645.325 492.772 645.906 500.318C646.727 507.977 645.547 515.718 642.481 522.784C637.686 530.946 630.129 537.124 621.176 540.199C614.907 542.95 608.211 544.6 601.381 545.075ZM647.183 476.691C650.202 477.736 654.265 472.686 656.645 470.364C668.952 458.289 688.864 468.564 695.423 460.379C701.983 452.194 691.476 423.168 677.312 421.079C659.025 418.408 642.017 461.134 644.513 472.28C644.745 473.266 645.383 475.995 647.299 476.691H647.183ZM705.234 506.936C706.569 507.342 709.065 504.033 714 497.358C720.908 488.186 721.546 485.747 721.837 483.716C722.359 480.058 721.837 474.021 718.992 472.744C716.148 471.467 711.445 475.705 710.633 476.517C707.834 479.516 705.977 483.27 705.292 487.315C703.841 494.455 702.68 506.065 705.524 506.936H705.234ZM689.85 468.158C683.117 467.81 677.776 475.008 678.763 478.955C680.272 484.761 696.7 487.257 699.603 482.613C700.021 481.038 700.103 479.392 699.843 477.783C699.583 476.175 698.988 474.639 698.095 473.275C697.203 471.912 696.033 470.751 694.663 469.87C693.292 468.988 691.752 468.405 690.141 468.158H689.85Z" fill="#ECECEC"/>
<path d="M935.582 720.215C954.216 715.513 968.729 702.8 972.502 687.01C973.698 681.663 973.8 676.13 972.802 670.743C971.805 665.356 969.728 660.226 966.697 655.662C963.993 651.618 959.836 648.769 955.087 647.709C950.648 646.96 946.092 647.959 942.374 650.496C945.669 646.275 950.291 643.289 955.493 642.02C963.911 640.105 969.31 644.807 973.954 641.614C976.392 639.931 976.682 637.318 978.075 626.637C978.91 617.083 980.403 607.598 982.545 598.25C983.746 591.82 986.608 585.817 990.846 580.835C994.911 576.849 999.952 574 1005.46 572.574C1010.97 571.148 1016.76 571.194 1022.25 572.708C1025.26 573.316 1028.04 574.765 1030.26 576.887C1025 575.617 1019.59 575.07 1014.18 575.262C1006.11 576.307 997.232 581.067 997.29 586.35C997.473 587.984 998.285 589.483 999.554 590.529C1006.06 596.334 1020.97 589.542 1028.58 586.756C1030.57 585.98 1032.51 585.068 1034.38 584.027C1045.01 578.222 1055.46 574.681 1065.04 578.222C1067.76 579.155 1070.27 580.637 1072.41 582.576C1066.39 580.685 1059.97 580.463 1053.84 581.935C1047.7 583.408 1042.08 586.518 1037.58 590.936C1034.67 593.184 1032.62 596.359 1031.77 599.933C1031.46 601.621 1031.52 603.354 1031.94 605.017C1032.36 606.68 1033.14 608.232 1034.21 609.57C1037.92 614.65 1042.1 619.372 1046.69 623.676C1054.97 631.264 1060.76 641.181 1063.29 652.121C1065.73 672.845 1038.39 682.482 1039.61 706.573C1039.97 712.478 1041.78 718.202 1044.89 723.234C1040.53 720.697 1036.99 716.972 1034.67 712.494C1032.16 706.296 1031.46 699.513 1032.64 692.931C1033.34 685.849 1033.51 678.767 1033.75 671.626C1033.75 668.84 1033.34 668.434 1030.84 669.478C1027.51 670.891 1023.88 671.469 1020.28 671.162C1014.47 670.581 1012.27 665.357 1004.14 661.293C996.013 657.23 982.719 657.578 979.178 662.977C977.379 665.821 979.178 668.143 979.759 675.69C980.58 683.324 979.42 691.042 976.392 698.098C971.571 706.26 963.996 712.436 955.029 715.513C948.854 718.153 942.281 719.742 935.582 720.215ZM981.326 651.831C984.345 652.876 988.466 647.826 990.788 645.503C1003.1 633.429 1023.06 643.646 1029.57 635.519C1036.07 627.392 1025.62 598.25 1011.45 596.218C993.052 593.548 975.927 636.157 978.54 647.419C978.714 648.406 979.41 651.134 981.326 651.831ZM1039.38 682.076C1040.65 682.482 1043.15 679.173 1048.14 672.497C1054.99 663.325 1055.69 660.887 1055.92 658.855C1056.5 655.198 1055.92 649.103 1053.08 647.826C1050.23 646.548 1045.59 650.844 1044.78 651.657C1041.95 654.64 1040.09 658.401 1039.44 662.454C1037.87 669.595 1036.76 681.205 1039.61 682.076H1039.38ZM1023.99 643.239C1017.26 642.949 1011.86 650.148 1012.85 654.095C1014.36 659.9 1030.84 662.396 1033.69 657.694C1034.11 656.119 1034.19 654.474 1033.93 652.865C1033.67 651.256 1033.07 649.72 1032.18 648.357C1031.29 646.993 1030.12 645.833 1028.75 644.951C1027.38 644.07 1025.84 643.486 1024.23 643.239H1023.99Z" fill="#ECECEC"/>
<path d="M570.379 389.21C557.84 388.803 555.576 395.537 531.717 397.279C525.149 397.812 518.548 397.812 511.98 397.279C488.005 395.305 485.741 388.571 473.144 388.978C452.361 389.616 431.115 414.984 433.553 432.4C433.553 433.154 433.553 433.851 433.901 434.373C437.791 419.048 445.86 409.295 453 409.702C454.845 409.912 456.606 410.587 458.119 411.663C459.631 412.739 460.846 414.181 461.65 415.855C467.745 428.975 439.648 444.881 441.39 469.03C442.008 475.34 444.336 481.361 448.124 486.445C445.682 480.141 445.356 473.214 447.195 466.708C449.227 459.916 454.858 450.047 459.444 450.802C467.397 452.137 461.417 483.891 475.64 490.799C480.405 492.541 485.625 492.593 490.423 490.944C495.222 489.295 499.307 486.046 501.995 481.743C504.095 477.733 504.849 473.153 504.143 468.682C503.989 470.728 503.416 472.721 502.46 474.536C501.503 476.352 500.184 477.952 498.584 479.237C496.983 480.521 495.136 481.463 493.156 482.004C491.177 482.545 489.107 482.674 487.076 482.382C478.194 480.466 474.131 468.74 476.627 465.431C479.123 462.122 490.095 470.423 501.821 465.431C509.251 462.238 510.993 456.084 513.837 457.013C516.682 457.942 516.566 468.623 515.753 487.78C514.418 521.74 515.347 530.854 509.426 533.873C507.104 535.034 502.401 535.963 493.287 530.157C498.886 534.911 505.582 538.192 512.769 539.702C519.957 541.213 527.407 540.905 534.446 538.807C540.303 537.048 545.737 534.104 550.41 530.157C541.238 535.963 536.593 535.034 534.213 533.873C528.408 530.854 529.279 521.74 527.886 487.78C527.131 468.74 526.26 458.174 529.86 457.013C533.459 455.852 534.446 462.238 541.876 465.431C553.486 470.423 564.11 461.599 567.012 465.431C569.915 469.262 565.503 480.466 556.621 482.382C554.59 482.674 552.52 482.545 550.541 482.004C548.561 481.463 546.714 480.521 545.113 479.237C543.513 477.952 542.194 476.352 541.237 474.536C540.281 472.721 539.708 470.728 539.554 468.682C538.819 473.153 539.573 477.742 541.702 481.743C544.372 486.05 548.447 489.303 553.238 490.953C558.029 492.603 563.243 492.549 567.999 490.799C582.105 484.355 576.126 452.427 583.963 451.092C588.549 450.337 594.18 460.206 596.154 466.998C598.032 473.495 597.726 480.429 595.283 486.735C599.066 481.654 601.375 475.628 601.959 469.32C603.758 445.345 575.662 429.265 581.699 416.145C582.508 414.464 583.731 413.017 585.255 411.94C586.779 410.863 588.552 410.193 590.407 409.992C597.547 409.586 605.558 419.338 609.447 434.664C609.634 434.017 609.77 433.357 609.854 432.69C612.466 415.217 591.219 389.848 570.379 389.21ZM516.218 433.619C513.547 447.145 501.763 461.89 489.398 460.496C475.698 458.929 464.436 437.856 470.531 421.486C476.337 406.451 495.551 397.221 507.22 404.071C516.856 409.818 517.959 424.563 516.218 433.619ZM554.009 460.496C541.702 461.89 529.918 447.145 527.247 433.619C525.506 424.563 526.551 409.818 536.187 404.129C547.797 397.221 567.36 406.451 572.933 421.544C579.029 437.915 567.709 458.929 554.009 460.496Z" fill="#ECECEC"/>
<path d="M859.067 479.366C861.871 475.452 863.461 470.8 863.636 465.988C863.812 461.177 862.566 456.421 860.054 452.314C858.138 449.644 853.378 444.477 850.011 445.696C843.393 448.192 842.174 475.766 855.294 487.261C861.099 492.369 865.453 490.511 870.851 495.678C878.746 503.166 878.804 515.996 877.527 525.864C875.031 513.151 869.981 502.644 864.001 502.644C855.003 501.831 840.781 522.904 848.734 534.978C854.133 543.512 867.542 543.047 868.529 542.989C866.113 543.767 863.623 544.292 861.099 544.557C855.172 545.155 849.189 544.278 843.683 542.003C827.371 533.585 852.507 461.138 833.583 432.112C827.995 423.586 819.874 417.028 810.362 413.362C804.557 411.214 797.069 408.253 791.322 410.749C768.566 420.502 784.878 511.584 765.141 544.267C760.719 551.281 755.236 557.567 748.886 562.901C743.361 567.734 736.87 571.335 729.846 573.466C722.718 575.534 715.209 575.931 707.902 574.627C714.392 573.418 720.722 571.47 726.769 568.822C735.526 565.861 743.231 560.415 748.944 553.148C751.905 548.969 754.749 543.28 753.066 542.061C751.382 540.842 744.823 548.504 735.186 549.433C728.865 549.706 722.664 547.64 717.771 543.628C724.761 545.743 732.242 545.58 739.134 543.164C762.935 534.166 771.352 495.155 759.684 477.16C758.755 475.708 755.098 470.077 750.86 470.426C746.622 470.774 741.398 479.482 739.25 492.601C738.637 485.337 739.772 478.032 742.559 471.297C748.364 457.364 759.045 453.881 769.262 434.608C772.397 428.803 774.487 422.998 772.165 420.038C771.279 419.137 770.206 418.442 769.023 418.001C767.839 417.56 766.574 417.383 765.315 417.483C759.045 417.483 753.124 424.101 749.989 433.331C750.407 429.494 751.324 425.727 752.718 422.127C758.263 410.543 767.494 401.124 778.965 395.346C790.436 389.569 803.5 387.759 816.109 390.199C838.401 395.25 849.431 414.232 855.526 424.682C859.996 432.344 871.374 451.791 864.117 470.368C862.897 473.604 861.194 476.638 859.067 479.366ZM831.899 415.045C833.641 413.362 824.585 391.825 808.969 391.476C796.14 391.012 785.749 404.828 787.142 407.208C788.535 409.588 797.011 402.274 809.724 404.015C823.482 405.931 830.564 416.322 831.899 415.045Z" fill="#ECECEC"/>
<path d="M978.01 458.754L976.849 456.838C978.034 461.973 978.387 467.265 977.894 472.512C977.487 476.808 976.152 484.819 974.701 484.819C972.321 484.819 976.036 463.398 964.948 448.943C958.569 441.453 949.749 436.457 940.044 434.837C943.121 436.288 946.72 438.552 946.662 441.165C946.604 443.777 940.16 446.215 935.052 449.814C921.7 458.754 920.771 477.04 919.669 476.808C918.566 476.576 921.062 456.374 932.44 389.731C926.578 397.99 918.54 404.461 909.219 408.424C912.994 423.971 914.287 440.017 913.051 455.968C912.568 462.85 911.539 469.682 909.974 476.401C906.236 493.184 898.71 508.891 887.973 522.32C889.522 520.39 891.647 519.005 894.039 518.368C896.43 517.731 898.962 517.875 901.266 518.779C902.139 519.485 902.854 520.367 903.364 521.367C903.874 522.367 904.168 523.463 904.227 524.584C905.62 533.291 895.81 540.664 894.881 541.302C902.185 541.465 909.493 541.194 916.766 540.49C941.554 538.11 954.673 536.833 965.645 527.66C984.802 511.29 989.039 478.201 978.01 458.754ZM952.177 515.354C950.842 524.7 935.11 532.769 925.648 527.777C919.843 524.816 916.243 516.979 917.985 514.947C919.727 512.916 922.397 516.341 928.028 516.224C938.941 516.224 944.34 504.614 949.158 506.994C951.771 508.155 952.583 512.509 952.177 515.354ZM967.27 500.667C965.297 507.749 961.465 515.354 958.563 514.889C955.66 514.425 957.75 502.873 952.119 499.041C943.005 492.888 924.313 514.309 917.695 509.723C911.077 505.137 916.708 478.201 935.11 466.359C937.142 465.082 949.855 456.838 959.666 461.831C971.624 468.042 970.289 489.579 967.096 500.667H967.27Z" fill="#ECECEC"/>
<path d="M1103.76 468.453C1107.03 469.09 1110.4 469.048 1113.65 468.329C1116.91 467.61 1119.98 466.23 1122.68 464.273C1131.04 457.481 1131.91 444.942 1130.4 437.047C1127.96 424.45 1118.79 421.141 1118.38 408.022C1118.19 404.084 1118.74 400.144 1120.01 396.411C1119.4 399.615 1119.4 402.903 1120.01 406.106C1120.08 409.099 1121.31 411.949 1123.43 414.059C1124.94 414.806 1126.6 415.195 1128.28 415.195C1129.96 415.195 1131.62 414.806 1133.13 414.059C1143.35 410.402 1145.09 399.372 1156.35 393.915C1162.33 391.413 1168.92 390.766 1175.27 392.058C1200.93 394.902 1225.78 419.167 1229.96 446.742C1230.65 451.827 1230.65 456.982 1229.96 462.067C1221.72 442.504 1217.71 438.15 1215.5 438.847C1211.44 439.834 1210.92 458.932 1215.5 474.722C1219.73 488.674 1227.35 501.359 1237.68 511.643C1214.46 501.077 1195.53 498.755 1190.89 505.838C1187.06 511.643 1192.63 524.124 1197.91 531.264C1202.41 536.537 1207.63 541.15 1213.41 544.964C1213.01 545.777 1201.8 539.159 1187.12 533.354C1171.09 527.2 1163.14 524.124 1153.91 523.775C1142.18 523.592 1130.54 525.99 1119.84 530.799C1110.03 534.921 1101.49 540.436 1101.14 539.855C1100.8 539.275 1124.83 527.432 1123.67 515.416C1123.26 511.468 1120.07 505.489 1116.82 506.012C1115.56 506.272 1114.37 506.807 1113.33 507.579C1109.57 509.603 1105.21 510.24 1101.03 509.379C1107.85 507.556 1113.85 503.46 1118.04 497.768C1124.71 488.364 1125.82 474.548 1121.46 471.704C1119.49 470.484 1117.69 471.704 1112.29 471.355C1109.22 471.237 1106.26 470.229 1103.76 468.453ZM1180.38 442.214C1176.54 437.924 1174.34 432.413 1174.17 426.656C1174.17 417.658 1180.5 413.769 1178.58 406.454C1177.98 404.254 1176.86 402.229 1175.32 400.552C1173.77 398.875 1171.85 397.594 1169.7 396.818C1161.86 394.264 1153.74 401.752 1150.78 404.481C1137.48 416.787 1138.06 436.815 1138.3 441.343C1138.93 455.856 1144.45 457.133 1144.1 469.672C1143.29 487.087 1132.49 492.892 1135.39 499.626C1139.81 509.204 1168.66 511.817 1186.3 498.117C1200.82 486.507 1201.8 468.685 1203.72 432.461C1204.3 421.664 1203.72 413.13 1198.61 410.053C1196.31 409.078 1193.78 408.762 1191.31 409.141C1188.84 409.521 1186.52 410.58 1184.62 412.201C1177.42 417.542 1175.39 429.791 1180.38 442.214ZM1219.97 497.652C1222.93 493.589 1211.32 476.58 1204.82 478.147C1202.27 478.728 1200.76 482.037 1200.41 484.475C1199.71 490.28 1205.81 494.518 1206.97 495.33C1211.27 498.291 1218.23 500.09 1219.97 497.652Z" fill="#ECECEC"/>
<path d="M1047.91 445.345C1062.07 428.801 1081.17 438.437 1098.01 420.441C1105.65 411.681 1110.39 400.772 1111.59 389.21C1108.92 398.081 1103.71 405.975 1096.6 411.917C1089.49 417.859 1080.8 421.59 1071.6 422.647C1063.96 422.98 1056.36 421.502 1049.41 418.334C1042.46 415.166 1036.35 410.398 1031.6 404.419C1026.98 410.276 1021.06 414.974 1014.31 418.138C1007.56 421.303 1000.16 422.847 992.704 422.647C983.433 421.707 974.654 418.023 967.488 412.067C960.321 406.11 955.094 398.152 952.475 389.21C953.597 400.766 958.26 411.694 965.826 420.499C982.661 438.495 1001.76 428.859 1015.92 445.403C1018.88 448.828 1021.73 466.418 1027.53 501.48C1030.2 518.431 1031.48 527.952 1026.66 531.319C1021.85 534.686 1014.76 530.854 1010.12 528.184C1017.38 538.111 1025.21 543.161 1029.45 541.013C1030.75 540.288 1031.74 539.111 1032.24 537.704C1032.69 539.115 1033.67 540.299 1034.97 541.013C1039.2 543.161 1047.04 538.111 1054.3 528.184C1049.65 530.854 1042.22 534.337 1037.81 531.319C1033.4 528.3 1034.21 518.431 1036.88 501.48C1042.16 466.36 1044.95 448.77 1047.91 445.345Z" fill="#ECECEC"/>
<path d="M895.065 1486.84C908.184 1471.45 925.89 1480.45 941.505 1463.62C948.604 1455.48 953.004 1445.34 954.102 1434.59C951.621 1442.86 946.757 1450.22 940.118 1455.74C933.48 1461.27 925.361 1464.71 916.776 1465.65C909.702 1465.93 902.66 1464.55 896.217 1461.62C889.774 1458.68 884.11 1454.28 879.681 1448.76C875.395 1454.18 869.906 1458.52 863.649 1461.46C857.393 1464.39 850.539 1465.82 843.631 1465.65C835.026 1464.77 826.878 1461.35 820.229 1455.82C813.58 1450.28 808.732 1442.89 806.305 1434.59C807.403 1445.34 811.803 1455.48 818.902 1463.62C834.517 1480.34 852.223 1471.34 865.342 1486.84C868.071 1490.03 870.683 1506.34 875.792 1539.08C878.288 1554.82 879.507 1563.64 874.979 1566.72C870.451 1569.79 863.949 1566.31 859.653 1563.81C866.387 1573.04 873.644 1577.69 877.591 1575.71C878.77 1575.04 879.674 1573.97 880.145 1572.69C880.617 1573.97 881.521 1575.04 882.7 1575.71C886.647 1577.69 893.904 1573.04 900.637 1563.81C896.342 1566.31 889.434 1569.62 885.312 1566.72C881.19 1563.81 882.003 1555.11 884.499 1539.08C889.666 1506.34 892.336 1490.03 895.065 1486.84Z" fill="#ECECEC"/>
<path d="M527.367 1448.82C522.615 1447.6 517.646 1447.49 512.845 1448.49C508.043 1449.5 503.538 1451.6 499.676 1454.62C495 1458.45 491.465 1463.49 489.459 1469.19C487.947 1465.29 487.824 1460.99 489.111 1457C493.813 1444.58 516.859 1438.83 535.552 1441.68C548.845 1443.71 555.057 1449.28 565.68 1445.68C566.261 1445.68 577.29 1441.68 577.29 1435.41C577.075 1433.97 576.547 1432.6 575.745 1431.38C574.943 1430.17 573.885 1429.15 572.646 1428.38C574.214 1428.52 575.727 1429.03 577.067 1429.85C578.407 1430.68 579.537 1431.81 580.367 1433.14C582.457 1437.96 575.897 1442.03 573.749 1452.42C571.601 1462.81 576.187 1464.49 573.749 1471.11C569.918 1480.75 558.714 1480.05 558.075 1485.22C556.856 1495.49 599.64 1501.76 603.587 1522.66C604.324 1528.33 602.939 1534.08 599.698 1538.8C601.173 1534.62 601.395 1530.1 600.337 1525.79C597.318 1513.78 583.908 1506.93 581.934 1508.73C579.961 1510.53 582.457 1517.84 590.468 1530.03C593.284 1535.91 594.255 1542.51 593.254 1548.96C591.281 1561.44 571.021 1572.99 543.679 1573.63C547.626 1573.22 563.358 1571.07 570.963 1558.24C572.704 1555.34 574.852 1551.68 573.517 1549.71C568.467 1541.93 524.754 1579.32 493 1563.82C484.293 1559.58 471.812 1549.59 472.334 1539.44C472.321 1537.28 472.806 1535.16 473.753 1533.22C474.7 1531.29 476.082 1529.6 477.791 1528.29C479.564 1527.33 481.605 1526.98 483.596 1527.3C482.18 1528.51 481.031 1530.01 480.222 1531.69C479.413 1533.36 478.96 1535.19 478.894 1537.06C479.282 1539.91 480.501 1542.59 482.401 1544.76C484.3 1546.93 486.795 1548.49 489.575 1549.25C502.521 1552.85 513.086 1537.64 527.425 1542.45C529.078 1543 530.643 1543.78 532.069 1544.78C529.305 1544.55 526.526 1544.96 523.942 1545.97C521.358 1546.97 519.036 1548.55 517.15 1550.58C514.886 1553.43 513.028 1558.24 514.595 1560.04C520.052 1566.55 575.201 1542.63 572.995 1519.41C571.717 1506.17 551.922 1495.26 536.306 1493.98C525.766 1493.66 515.342 1496.25 506.178 1501.47C502.013 1503.66 498.117 1506.33 494.568 1509.42C496.522 1505.95 498.901 1502.73 501.65 1499.84C522.374 1478.54 555.986 1486.2 558.714 1475.29C559.701 1471.34 555.986 1467.34 553.315 1464.49C542.286 1452.47 520.691 1455.96 508.326 1461.36C506.226 1462.26 504.19 1463.31 502.23 1464.49C504.251 1460.99 506.932 1457.91 510.125 1455.44C515.246 1451.85 521.165 1449.58 527.367 1448.82Z" fill="#ECECEC"/>
<path d="M1089 1480.51C1089.93 1473.3 1093.61 1466.72 1099.28 1462.17C1103.15 1459.24 1107.78 1457.48 1112.62 1457.12C1117.46 1456.76 1122.3 1457.81 1126.56 1460.13C1145.02 1472.38 1130.1 1518.18 1144.79 1523.64C1146.67 1524.31 1148.72 1524.31 1150.6 1523.64C1164.99 1518.42 1154.08 1474.59 1172.07 1464.66C1176.2 1462.4 1177.53 1464.31 1183.68 1461.24C1191.86 1456.64 1198.2 1449.36 1201.62 1440.63C1201.22 1442.2 1200.52 1444.52 1199.71 1447.3C1195.3 1461.64 1192.51 1465.77 1190.53 1472.44C1186.3 1486.43 1187.92 1503.15 1192.62 1504.6C1195.06 1505.36 1198.43 1502.16 1201.68 1497.93C1205.57 1492.74 1208.68 1487.01 1210.91 1480.92C1210.91 1482.14 1210.45 1484.23 1209.92 1486.72C1204.12 1515.75 1188.44 1522.36 1187.28 1539.43C1186.24 1554.52 1196.75 1571.07 1205.69 1571.24C1212.77 1571.24 1219.91 1562.3 1224.32 1550.05C1218.86 1571.07 1204.41 1583.32 1192.86 1581.69C1180.38 1579.95 1174.11 1562.65 1173.76 1561.55C1168.88 1547.38 1175.21 1538.33 1179.56 1513.48C1184.5 1486.37 1182.41 1467.04 1181.36 1467.04C1180.32 1467.04 1182.41 1519.29 1158.84 1530.09C1155.15 1531.89 1151.03 1532.66 1146.94 1532.29C1142.84 1531.92 1138.93 1530.44 1135.62 1528C1121.28 1514.59 1140.9 1479.12 1124.65 1466.29C1124.01 1465.76 1118.84 1461.53 1114.31 1463.27C1105.55 1466.75 1108.97 1490.73 1107.52 1536.01C1106.42 1570.31 1103.81 1577.34 1098.7 1580.07C1089.18 1585.06 1073.97 1573.91 1066.42 1567.64C1067.99 1568.75 1077.57 1575.19 1086.39 1571.65C1098 1566.95 1098 1548.43 1098 1543.61C1098 1533.16 1094.34 1520.86 1090.16 1520.39C1085.99 1519.93 1083.08 1528.69 1081.98 1532.64C1080.96 1536.14 1080.58 1539.8 1080.88 1543.44C1080.08 1541.73 1079.5 1539.94 1079.14 1538.1C1078.31 1530.48 1080.25 1522.82 1084.59 1516.5C1099.16 1489.97 1103.98 1482.08 1101.37 1474.82C1101.08 1474.01 1099.98 1470.82 1097.77 1470.35C1094.11 1469.89 1089 1479.93 1089 1480.51ZM1172.19 1471.22C1168.36 1471.22 1160 1516.44 1163.6 1517.66C1165.34 1518.18 1170.22 1508.14 1172.48 1500.25C1176.37 1486.2 1174.34 1471.22 1172.19 1471.22ZM1180.09 1545.88C1178.63 1545.88 1175.67 1561.9 1184.32 1570.49C1190.13 1576.29 1198.89 1577.05 1199.59 1575.66C1200.29 1574.26 1193.79 1572.06 1187.98 1564.68C1180.84 1555.05 1181.25 1545.59 1180.09 1545.76V1545.88Z" fill="#ECECEC"/>
<path d="M1093.66 1651.18C1094.56 1643.96 1098.25 1637.38 1103.93 1632.84C1107.8 1629.91 1112.43 1628.16 1117.27 1627.8C1122.11 1627.44 1126.96 1628.48 1131.22 1630.81C1149.68 1643.05 1134.76 1688.86 1149.44 1694.31C1151.32 1694.97 1153.37 1694.97 1155.25 1694.31C1169.65 1689.09 1158.73 1645.26 1176.73 1635.33C1180.85 1633.07 1182.18 1634.99 1188.34 1631.91C1196.52 1627.32 1202.85 1620.03 1206.28 1611.3C1205.87 1612.87 1205.17 1615.19 1204.3 1617.98C1199.89 1632.32 1197.16 1636.44 1195.19 1643.11C1190.95 1657.1 1192.52 1673.82 1197.28 1675.27C1199.72 1676.03 1203.08 1672.83 1206.28 1668.6C1210.21 1663.43 1213.34 1657.69 1215.56 1651.59C1215.56 1652.81 1215.1 1654.9 1214.52 1657.39C1208.71 1686.42 1193.1 1693.04 1191.94 1710.1C1190.89 1725.2 1201.4 1741.74 1210.34 1741.92C1217.36 1741.92 1224.56 1732.98 1228.92 1720.73C1223.52 1741.74 1209.06 1753.99 1197.51 1752.36C1185.03 1750.62 1178.76 1733.32 1178.41 1732.22C1173.53 1718.06 1179.86 1709 1184.22 1684.15C1189.09 1657.04 1187 1638 1186.02 1637.71C1185.03 1637.42 1187.06 1689.96 1163.49 1700.76C1159.84 1702.51 1155.78 1703.24 1151.74 1702.87C1147.7 1702.51 1143.84 1701.05 1140.56 1698.67C1126.17 1685.26 1145.84 1649.79 1129.59 1636.96C1128.95 1636.44 1123.79 1632.2 1119.26 1633.94C1110.49 1637.42 1113.86 1661.4 1112.47 1706.68C1111.36 1740.99 1108.75 1748.01 1103.58 1750.74C1094.06 1755.79 1078.91 1744.59 1071.37 1738.32C1072.93 1739.42 1082.51 1745.86 1091.33 1742.32C1102.94 1737.62 1103.24 1719.1 1103.24 1714.28C1103.24 1703.83 1099.58 1691.53 1095.4 1691.06C1091.22 1690.6 1088.32 1699.36 1087.16 1703.31C1086.14 1706.82 1085.79 1710.48 1086.11 1714.11C1085.32 1712.41 1084.73 1710.61 1084.37 1708.77C1083.53 1701.16 1085.45 1693.5 1089.77 1687.17C1104.4 1660.7 1109.16 1652.75 1106.6 1645.49C1106.31 1644.68 1105.21 1641.49 1102.94 1641.02C1098.88 1640.33 1093.95 1650.37 1093.66 1651.18ZM1177.02 1641.78C1173.19 1641.49 1164.77 1687 1168.43 1688.22C1170.17 1688.74 1175.04 1678.7 1177.31 1670.8C1181.2 1656.64 1179.17 1641.72 1177.02 1641.55V1641.78ZM1184.91 1716.43C1183.46 1716.43 1180.5 1732.45 1189.15 1741.04C1194.96 1746.85 1203.72 1747.6 1204.36 1746.21C1205 1744.82 1198.55 1742.61 1192.75 1735.24C1185.67 1725.49 1186.02 1716.02 1184.91 1716.2V1716.43Z" fill="#ECECEC"/>
<path d="M1049.76 1458.04C1045.35 1454.93 1040.07 1453.29 1034.67 1453.34C1023.06 1453.81 1019.64 1463.62 1006.92 1464.25C999.434 1464.6 997.808 1461.29 991.771 1463.21C985.99 1465.53 981.359 1470.03 978.883 1475.75C973.601 1486.6 975.458 1500.65 979.87 1501.99C982.715 1502.92 984.398 1497.63 989.855 1497.46C996.473 1497.46 1000.25 1505.06 1003.5 1503.26C1005.76 1502.22 1004.37 1498.27 1007.33 1494.27C1009.4 1491.72 1012.29 1489.97 1015.51 1489.33C1014.07 1490.17 1012.83 1491.32 1011.89 1492.69C1010.94 1494.07 1010.32 1495.64 1010.06 1497.29C1009.3 1504.6 1019.05 1511.74 1027.47 1512.84C1031.47 1513 1035.46 1512.27 1039.14 1510.7C1042.82 1509.14 1046.11 1506.78 1048.78 1503.79C1052.7 1500.06 1055.73 1495.49 1057.66 1490.44C1057.08 1492.7 1052.38 1510.4 1036.59 1516.67C1031.5 1518.77 1025.95 1519.48 1020.51 1518.71C1011.45 1517.25 1009.53 1512.2 1001.58 1511.28C998.273 1510.96 994.934 1511.31 991.763 1512.31C988.592 1513.3 985.653 1514.93 983.121 1517.08C969.537 1528.69 977.316 1552.49 978.477 1555.97C980.393 1561.78 982.25 1567.29 987.011 1569.38C994.325 1572.58 998.621 1563.58 1011.8 1563.06C1019.75 1563.06 1021.09 1566.13 1035.54 1566.89C1039.42 1567.31 1043.35 1567.07 1047.15 1566.19C1052.41 1564.82 1057.25 1562.15 1061.2 1558.41C1060.23 1560.35 1058.97 1562.13 1057.48 1563.7C1048.31 1573.33 1034.26 1571.01 1034.26 1573.1C1034.26 1575.19 1046.22 1578.91 1055.86 1575.02C1056.83 1574.64 1057.78 1574.21 1058.7 1573.74C1053.55 1578.27 1046.99 1580.88 1040.13 1581.11C1029.5 1580.41 1028.52 1569.5 1018.71 1568.57C1007.91 1567.47 1005.41 1579.37 992.467 1580.18C983.005 1580.59 978.071 1573.62 971.685 1576.87C968.96 1578.72 965.873 1579.97 962.629 1580.53C961.34 1580.72 960.029 1580.72 958.74 1580.53C967.447 1574.73 971.627 1566.42 969.595 1559.81C968.55 1556.44 965.532 1552.49 962.165 1552.38C956.65 1552.38 952.238 1562.3 950.555 1568.11C950.057 1570.1 949.766 1572.15 949.684 1574.2C948.959 1566.88 950.181 1559.49 953.225 1552.78C955.906 1548.16 958.893 1543.72 962.165 1539.49C967.041 1531.83 974.878 1519.58 970.64 1513.31C969.287 1511.6 967.375 1510.43 965.241 1510C956.882 1507.5 948.349 1514.53 947.826 1514.06C953.233 1510.91 958.159 1507 962.455 1502.45C971.801 1490.84 969.944 1474.99 969.189 1468.26C968.01 1458.5 964.593 1449.14 959.204 1440.92C962.376 1444.52 966.029 1447.66 970.06 1450.26C982.483 1458.28 996.589 1459.49 997.169 1457.81C997.75 1456.13 993.454 1455.66 989.623 1450.38C988.038 1448.2 986.786 1445.79 985.908 1443.24C997.228 1457.06 1005.06 1459.26 1010.23 1458.45C1015.4 1457.64 1019.69 1452.64 1031.48 1450.84C1034.21 1450.2 1037.05 1450.2 1039.78 1450.84C1043.87 1451.95 1047.42 1454.51 1049.76 1458.04Z" fill="#ECECEC"/>
<path d="M603.358 1753.18C603.137 1751.22 603.35 1749.24 603.982 1747.37C604.614 1745.5 605.65 1743.8 607.015 1742.38C611.95 1738.61 619.38 1743.13 622.225 1739.71C624.14 1737.33 622.921 1733.21 620.657 1727.58C618 1720.32 617.241 1712.51 618.451 1704.88C619.247 1711.36 621.387 1717.61 624.736 1723.22C628.085 1728.82 632.568 1733.67 637.898 1737.45C641.265 1739.65 652.469 1746.91 663.963 1743.25C682.772 1736.87 682.656 1707.49 682.598 1706.04C682.598 1703.2 682.598 1692.75 677.431 1690.83C673.426 1689.26 669.943 1694.14 663.905 1696.64C653.282 1701.05 632.674 1690.25 626.52 1675.04C619.322 1657.16 633.429 1643.58 624.663 1627.38C620.44 1620.45 613.931 1615.22 606.261 1612.58C614.156 1612.58 623.676 1613.57 629.481 1620.24C639.756 1633.01 625.882 1655.07 636.041 1663.66C638.973 1665.36 642.222 1666.44 645.587 1666.83C648.953 1667.22 652.362 1666.91 655.604 1665.93C660.19 1664.77 664.428 1662.68 663.905 1663.08C649.973 1673.13 647.477 1677.31 648.348 1679.16C649.218 1681.02 656.765 1682.12 662.338 1679.16C665.768 1676.73 668.355 1673.28 669.738 1669.31C671.122 1665.33 671.234 1661.03 670.059 1656.99C672.881 1662.78 673.319 1669.45 671.278 1675.56C669.943 1678.87 667.04 1683.11 668.085 1684.04C669.13 1684.97 669.768 1684.04 670.233 1684.04C678.07 1680.85 685.152 1652.69 685.152 1652.69C689.286 1637.13 696.776 1622.67 707.095 1610.31C703.864 1617.45 701.034 1624.75 698.62 1632.2C691.421 1654.43 684.862 1674.63 693.337 1683.81C697.654 1687.37 701.008 1691.96 703.09 1697.16C704.433 1700.87 704.987 1704.83 704.715 1708.77C703.322 1702.44 700.652 1697.16 697.691 1697.16C693.453 1697.16 688.171 1706.5 690.377 1712.72C691.828 1716.84 695.659 1716.95 698.388 1721.77C700.323 1725.59 700.877 1729.96 699.955 1734.14C696.182 1725.43 693.047 1723.92 691.015 1723.86C684.281 1723.86 683.41 1739.48 670.523 1748.71C662.468 1753.64 652.845 1755.34 643.587 1753.47C627.681 1751.09 621.702 1742.21 612.472 1745.46C608.641 1746.91 605.425 1749.64 603.358 1753.18Z" fill="#ECECEC"/>
<path d="M838.808 1600.09C836.657 1606.73 832.623 1612.6 827.197 1616.99C818.838 1623.49 808.505 1624.59 808.737 1625.87C808.969 1627.15 813.555 1626.8 817.561 1626.27C830.987 1624.01 843.492 1617.97 853.611 1608.86C850.525 1612.53 847.126 1615.93 843.452 1619.02C836.793 1624.7 829.162 1629.12 820.928 1632.08C802.7 1637.88 795.676 1627.78 774.487 1632.66C767.807 1633.49 761.473 1636.1 756.143 1640.21C744.533 1650.54 748.538 1666.85 746.216 1712.71C744.823 1740.05 742.559 1747.54 736.696 1751.2C728.511 1756.54 713.476 1752.83 710.631 1745.92C707.787 1739.01 714.927 1722.17 715.624 1720.84C717.101 1718.17 717.709 1715.11 717.365 1712.07C716.85 1709.27 715.421 1706.72 713.302 1704.82C715.317 1705.53 717.089 1706.8 718.41 1708.47C724.68 1717.07 712.315 1731.69 717.713 1738.25C719.53 1740.05 721.911 1741.15 724.451 1741.38C726.991 1741.62 729.534 1740.96 731.646 1739.53C737.741 1734.31 732.11 1717.36 726.247 1699.71C721.08 1684.27 718.004 1680.55 719.281 1673.41C720.573 1668.9 722.788 1664.71 725.786 1661.1C728.784 1657.5 732.499 1654.55 736.696 1652.46C731.489 1656.11 727.908 1661.65 726.711 1667.9C725.724 1674.11 727.408 1682.29 730.485 1682.87C733.561 1683.45 741.282 1673.88 742.095 1663.54C743.198 1650.42 734.78 1645.49 734.084 1633.07C734.084 1627.78 735.709 1620.24 745.694 1610.77C741.572 1620.99 742.385 1624.18 743.778 1625.35C747.203 1628.19 754.75 1618.44 769.727 1615.83C783.601 1613.45 788.536 1619.77 798.056 1616.29C803.455 1614.32 810.711 1608.98 816.226 1593.07C815.822 1599.44 813.826 1605.61 810.421 1611.01C806.647 1617.16 802.294 1619.77 803.048 1621.11C803.803 1622.44 814.658 1619.83 823.018 1614.61C829.185 1610.85 834.55 1605.92 838.808 1600.09Z" fill="#ECECEC"/>
<path d="M934.187 1696.11C936.767 1692.47 938.225 1688.16 938.38 1683.7C938.535 1679.24 937.38 1674.84 935.058 1671.03C933.316 1668.59 928.904 1663.72 925.77 1664.88C919.616 1667.2 918.455 1692.8 930.646 1703.42C936.045 1708.18 940.108 1706.44 945.101 1711.2C952.415 1718.17 952.473 1730.07 951.254 1739.24C948.932 1727.63 944.288 1717.88 938.715 1717.41C930.356 1716.72 917.41 1736.22 924.551 1747.43C929.601 1755.38 941.966 1754.92 942.953 1754.86C935.352 1757.34 927.11 1757.02 919.732 1753.93C904.581 1746.38 927.918 1679.04 910.038 1652.46C905.014 1644.61 897.669 1638.52 889.023 1635.04C883.799 1633.07 876.659 1630.34 871.608 1632.6C850.478 1641.66 865.803 1726.12 847.343 1756.25C843.203 1762.79 838.094 1768.66 832.192 1773.67C827.141 1778.13 821.207 1781.47 814.776 1783.48C808.156 1785.38 801.188 1785.76 794.4 1784.58C800.387 1783.43 806.228 1781.62 811.816 1779.18C819.927 1776.41 827.063 1771.35 832.366 1764.61C835.094 1760.72 837.474 1755.5 836.197 1754.34C834.92 1753.17 828.592 1760.14 819.653 1761.19C813.764 1761.43 807.993 1759.49 803.456 1755.73C809.929 1757.71 816.865 1757.56 823.252 1755.32C845.369 1746.96 853.206 1710.8 842.35 1694.08C841.48 1692.74 838.113 1687.52 834.165 1687.81C830.218 1688.1 825.4 1696.23 823.542 1708.42C822.929 1701.69 823.966 1694.92 826.561 1688.68C832.075 1675.68 841.828 1672.6 851.348 1654.6C854.251 1648.8 856.167 1644.04 854.019 1641.08C853.206 1640.24 852.215 1639.6 851.12 1639.2C850.024 1638.79 848.852 1638.64 847.691 1638.76C841.886 1638.76 836.081 1644.85 833.469 1653.38C833.823 1649.84 834.683 1646.36 836.023 1643.05C841.138 1632.29 849.688 1623.55 860.325 1618.19C870.962 1612.82 883.081 1611.16 894.77 1613.45C915.437 1618.09 925.712 1635.68 931.401 1645.43C935.522 1652.51 946.029 1670.51 939.354 1687.75C938.045 1690.77 936.305 1693.59 934.187 1696.11ZM909.051 1636.43C910.676 1634.87 902.259 1615.13 887.804 1614.61C876.194 1614.14 866.267 1626.97 867.545 1629.18C868.822 1631.38 876.717 1624.59 888.501 1626.22C901.156 1627.96 907.716 1637.65 909.051 1636.43Z" fill="#ECECEC"/>
<path d="M963.382 1689.14C966.397 1689.71 969.494 1689.65 972.488 1688.98C975.481 1688.31 978.307 1687.04 980.797 1685.25C984.037 1682 986.393 1677.97 987.642 1673.55C988.892 1669.13 988.993 1664.47 987.937 1660C985.673 1648.39 977.372 1645.26 976.791 1633.01C976.741 1629.3 977.391 1625.62 978.707 1622.15C978.131 1625.12 978.131 1628.18 978.707 1631.15C978.812 1633.92 979.951 1636.55 981.9 1638.52C983.299 1639.21 984.838 1639.57 986.399 1639.57C987.959 1639.57 989.499 1639.21 990.898 1638.52C1000.36 1635.1 1001.99 1624.88 1012.43 1619.83C1017.94 1617.56 1024 1616.95 1029.85 1618.09C1053.65 1620.76 1076.7 1643.22 1080.59 1668.88C1081.19 1673.59 1081.19 1678.35 1080.59 1683.05C1072.92 1664.88 1068.98 1660.87 1067.18 1661.39C1063.4 1662.32 1062.88 1680.03 1067.18 1694.66C1071.09 1707.6 1078.15 1719.37 1087.73 1728.91C1066.19 1719.1 1048.66 1717.3 1044.3 1723.63C1040.82 1729.02 1045.93 1740.58 1050.81 1747.14C1054.99 1752.06 1059.86 1756.36 1065.26 1759.91C1064.85 1760.66 1054.46 1754.45 1040.82 1749.23C1025.96 1743.42 1018.59 1740.69 1010.05 1740.34C999.104 1740.23 988.261 1742.53 978.301 1747.08C969.187 1750.85 961.292 1756.02 960.885 1755.5C960.479 1754.97 982.829 1743.89 981.726 1732.8C981.377 1729.14 978.417 1723.63 975.398 1724.09C974.223 1724.34 973.115 1724.83 972.147 1725.54C968.588 1727.43 964.485 1728.02 960.537 1727.22C966.824 1725.55 972.364 1721.81 976.269 1716.6C982.48 1707.89 983.525 1695.06 979.462 1692.45C977.662 1691.29 975.979 1692.45 970.928 1692.1C968.187 1691.84 965.574 1690.81 963.382 1689.14ZM1034.49 1664.82C1030.92 1660.83 1028.86 1655.72 1028.69 1650.37C1028.69 1642.06 1034.49 1638.41 1032.81 1631.61C1032.26 1629.58 1031.22 1627.71 1029.78 1626.16C1028.35 1624.61 1026.56 1623.44 1024.57 1622.73C1017.31 1620.35 1009.76 1627.32 1007.15 1629.82C994.787 1641.43 995.542 1659.83 995.542 1664.01C996.122 1677.47 1001.35 1678.64 1000.77 1690.25C1000.01 1706.38 989.795 1711.78 992.697 1718.05C996.761 1726.93 1023.52 1729.66 1039.89 1716.66C1053.42 1706.15 1054.29 1689.32 1056.03 1655.76C1056.61 1645.72 1056.03 1637.83 1051.33 1634.98C1049.2 1634.07 1046.86 1633.77 1044.57 1634.11C1042.28 1634.46 1040.14 1635.45 1038.38 1636.96C1031.71 1641.95 1029.85 1653.27 1034.49 1664.82ZM1071.18 1716.25C1073.91 1712.42 1063.17 1696.69 1057.13 1698.14C1054.81 1698.66 1053.36 1701.74 1053.07 1703.95C1052.37 1709.34 1058.06 1713.23 1059.17 1714.05C1063.11 1716.83 1069.56 1718.46 1071.18 1716.25Z" fill="#ECECEC"/>
<path d="M267.357 976.51C267.357 976.51 291.854 961.881 296.847 939.067C299.401 904.236 268.808 837.884 238.157 842.644C229.74 843.921 216.736 845.895 207.797 871.67C183.531 942.143 223.644 1102.89 210.931 1320.35C209.596 1342.81 206.635 1396.57 192.819 1417.99C190.857 1421.48 187.881 1424.29 184.286 1426.06C190.597 1406.1 194.495 1385.46 195.896 1364.58C197.347 1347.69 199.96 1319.24 194.851 1295.79C191.194 1278.37 186.434 1277.33 180.977 1255.56C177.757 1242.04 175.641 1228.27 174.649 1214.4C177.378 1222.88 184.344 1243.08 189.22 1237.62C191.392 1233.52 192.677 1229.01 192.994 1224.39C199.263 1175.22 175.578 963.158 192.355 878.229C196.076 857.978 203.516 838.591 214.298 821.049C253.715 752.433 292.319 832.659 327.962 768.165C334.696 755.974 343.752 734.263 351.531 693.047C351.182 705.238 350.428 723.233 348.28 744.016C342.475 804.098 332.316 815.592 334.173 838.929C337.308 876.952 364.998 869.057 373.416 918.401C376.348 938.574 376.348 959.065 373.416 979.238C371.384 935.526 362.154 906.152 353.62 905.92C345.087 905.687 334.928 938.893 334.348 970.356C332.722 1032.94 365.289 1064.46 363.954 1138.7C363.786 1149.78 362.855 1160.84 361.167 1171.79C357.568 1104.92 354.085 1088.61 351.763 1088.37C341.372 1087.39 319.196 1330.33 344.216 1374.86C353.098 1390.7 366.101 1378.05 375.215 1365.68C351.531 1427.51 340.385 1433.72 334.58 1424.95C326.395 1412.12 324.827 1359.82 321.867 1262.41C321.482 1231.86 317.586 1201.45 310.256 1171.79C309.734 1170.05 309.328 1168.6 308.863 1167.38C297.659 1133.31 280.186 1129.24 268.808 1130.63C268.808 1130.63 309.908 1125.41 314.262 1088.03C318.906 1048.26 305.322 1000.95 291.332 983.185C281.405 970.704 271.943 973.955 267.357 976.51ZM263.583 829.176C263.583 834.227 285.178 827.667 301.491 871.844C309.27 892.916 311.94 914.976 316.12 912.77C320.299 910.564 325.059 879.042 321.925 858.028C314.61 806.304 263.816 821.514 263.583 829.176Z" fill="#ECECEC"/>
<path d="M610.552 1221.14C619.898 1223.4 627.967 1269.32 631.682 1325.92C633.656 1281.98 633.598 1224.85 621.291 1191.36C612.816 1168.43 606.024 1176.67 596.91 1153.92C576.418 1102.71 578.333 979.763 588.666 968.791C593.949 963.276 601.379 986.206 604.34 998.281C612.293 1030.21 611.887 1077.23 602.831 1118.85C606.581 1105.21 609.394 1091.32 611.248 1077.29C622.858 994.508 604.863 907.954 597.838 873.762C588.318 827.321 571.019 742.451 536.188 720.043C495.088 693.63 450.505 767.064 437.037 862.384C434.844 878.906 433.507 895.531 433.032 912.191C437.85 871.033 447.138 842.53 456.949 841.602C457.82 841.602 464.553 840.789 467.63 852.921C471.287 867.144 468.095 891.409 463.16 917.88C447.138 1004.49 430.652 1019.3 421.364 1081.53C416.926 1112.98 415.197 1144.75 416.197 1176.5C419.332 1117.92 426.298 1079.26 434.193 1077.81C440.811 1076.36 446.5 1101.32 448.009 1107.94C466.237 1188.11 453.117 1361.97 415.791 1402.03C409.695 1408.59 398.375 1416.31 382.411 1404.23C388.623 1417.41 398.375 1433.26 409.695 1430.3C423.569 1426.52 432.916 1395.76 436.805 1396.57C437.27 1396.57 437.502 1397.21 437.618 1397.5C441.565 1406.38 427.749 1536.47 390.074 1536.3C374.981 1536.3 357.391 1515.22 361.861 1501.47C364.938 1492 377.535 1485.62 392.744 1485.21C379.448 1473.8 363.179 1466.41 345.839 1463.91C303.81 1458.39 266.135 1487.13 236.645 1509.42C228.692 1515.22 221.668 1522.02 221.668 1522.02C201.11 1541.19 185.223 1564.82 175.228 1591.1C187.476 1571.59 230.608 1508.55 302.94 1497.81C316.291 1495.84 337.016 1492 339.628 1501.23C344.678 1519.64 248.14 1565.38 241.696 1636.26C242.509 1640.27 243.321 1644.33 244.192 1648.34C246.299 1638.83 250.438 1629.9 256.325 1622.15C257.66 1620.35 268.457 1606.07 272.637 1607.82C276.817 1609.56 261.027 1636.84 271.302 1663.43C276.062 1675.74 283.957 1681.25 281.809 1683.8C276.004 1690.31 228.17 1647.64 197.635 1661.16C183.761 1667.03 171.803 1686.01 178.711 1694.31C191.714 1710.45 236.762 1702.67 268.806 1722.81C279.506 1729.08 287.446 1739.16 291.039 1751.03C291.419 1744.68 290.347 1738.32 287.904 1732.45C284.712 1724.96 280.068 1720.38 282.622 1713.64C283.354 1711.6 284.523 1709.73 286.047 1708.19C289.456 1705.09 293.771 1703.18 298.354 1702.73C313.969 1700.52 336.899 1710.39 336.899 1710.39C347.815 1711.34 358.801 1709.75 369.002 1705.75C391.467 1696.58 398.84 1677.83 406.851 1680.32C413.817 1682.47 410.74 1697.16 416.603 1711.44C422.466 1725.72 436.921 1740.87 477.209 1752.07C486.787 1692.69 475.815 1670.8 462.58 1663.02C455.846 1658.96 446.035 1656.93 446.209 1652.92C446.209 1647.12 468.675 1637.83 487.832 1641.89C538.046 1652.52 550.585 1758.34 550.353 1756.14C538.743 1653.91 511.923 1623.37 487.426 1616.81C474.843 1615.15 462.045 1617 450.447 1622.15C428.214 1631.04 422.815 1646.94 413.294 1644.68C403.774 1642.41 397.389 1622.27 399.885 1606.83C401.336 1598.12 406.503 1593.01 408.476 1578.62C409.025 1574.42 409.258 1570.19 409.173 1565.96C405.828 1581.6 399.286 1596.39 389.958 1609.38C381.947 1620.53 374.458 1630.86 363.08 1633.65C345.665 1638 323.083 1622.85 307.468 1597.13C330.688 1637.25 346.42 1645.32 357.217 1644.04C365.809 1642.99 372.891 1636.03 382.992 1638.99C390.829 1641.31 398.259 1649.15 397.563 1655.77C395.995 1670.05 355.534 1687.4 327.902 1676.14C294.232 1662.62 294.232 1612.29 294.464 1603.29V1602.42C295.741 1565.67 321.864 1527.71 344.736 1527.71C363.371 1527.71 366.796 1553.02 384.269 1552.61C404.297 1552.09 419.1 1517.78 431 1490.38C442.315 1463.55 450.778 1435.61 456.252 1407.02C487.135 1262.24 461.535 856.288 497.178 812.808C506.176 801.895 518.134 814.898 527.016 824.418C547.74 846.942 558.828 893.615 562.427 908.941C592.556 1036.65 553.197 1360.34 578.798 1396.57C581.526 1400.52 592.556 1411.66 605.966 1408.18C610.316 1406.77 614.287 1404.39 617.576 1401.21C616.008 1401.21 595.052 1403.71 586.577 1365.57C574.56 1311.47 596.445 1217.71 610.552 1221.14ZM262.826 1699.59C261.027 1704.7 265.497 1708.82 264.104 1710.28C262.71 1711.73 255.628 1707.37 247.617 1703.95C229.563 1696.23 220.333 1700.41 214.934 1693.15C213.163 1690.97 212.149 1688.28 212.044 1685.47C211.939 1682.66 212.75 1679.9 214.354 1677.59C224.281 1667.38 267.761 1686.94 266.6 1694.49C266.135 1696.11 263.871 1696.46 262.826 1699.59ZM422.989 1684.68C427.807 1673.65 444.003 1664.59 455.556 1668.13C481.853 1676.26 476.918 1749.4 476.976 1752.25C434.193 1732.45 415.268 1702.44 422.989 1684.68ZM560.279 832.023C558.19 837.828 547.218 791.387 525.449 782.912C505.537 775.075 491.953 805.842 490.154 797.018C488.122 786.221 504.434 724.861 524.52 727.009C549.134 729.563 563.066 824.477 560.279 832.023Z" fill="#ECECEC"/>
<path d="M935.574 676.387C933.53 682.159 929.384 686.947 923.964 689.796C921.7 690.899 917.288 692.467 916.475 691.19C915.663 689.912 916.998 688.868 917.81 687.474C920.739 682.423 922.337 676.71 922.455 670.872C921.874 659.726 900.918 656.765 900.627 647.013C900.627 640.047 911.193 639.524 917.23 627.74C923.267 615.956 922.513 599.411 912.586 591.574C907.894 588.217 902.12 586.727 896.39 587.395C899.407 587.32 902.39 588.049 905.032 589.508C907.674 590.967 909.881 593.103 911.425 595.696C915.605 602.894 913.747 612.589 910.786 613.111C907.826 613.634 905.446 600.166 893.661 592.445C886.982 588.758 879.4 587.026 871.782 587.447C864.165 587.868 856.82 590.425 850.587 594.825C844.049 599.331 838.885 605.56 835.668 612.821C837.995 609.445 840.724 606.365 843.796 603.649C848.149 599.817 851.342 597.089 854.245 597.844C857.147 598.598 860.05 605.797 858.715 610.905C857.728 614.33 855.638 616.072 847.104 621.993C841.718 625.223 836.763 629.124 832.359 633.603C829.73 636.191 827.705 639.329 826.431 642.791C825.156 646.254 824.663 649.955 824.987 653.631C824.987 655.546 825.974 657.404 826.496 659.436C825.628 653.759 826.8 647.959 829.805 643.065C833.637 637.26 841.88 630.933 847.917 633.719C853.954 636.506 854.187 647.187 854.187 648.464C854.187 656.94 849.426 667.215 844.144 666.982C840.138 666.982 836.307 660.713 834.507 652.586C834.368 658.888 836.42 665.043 840.312 670.001C844.55 675.051 848.265 674.471 850.413 678.418C854.593 686.139 843.912 701.987 836.365 707.444C811.461 725.846 769.723 670.407 704.067 657.288C619.545 640.453 587.965 712.32 484.925 696.356C452.764 691.422 402.55 676.154 399.764 651.483C397.442 630.468 429.196 609.222 454.332 597.205C463.097 592.967 527.94 562.375 572.582 575.436C574.846 576.075 591.796 581.241 597.079 591.052C608.689 613.517 549.477 639.292 523.354 650.67C502.765 659.354 481.674 666.798 460.195 672.962C460.543 673.31 509.306 660.423 716.78 603.765C630.4 620.832 594.931 640.047 585.121 635.287C577.69 631.862 587.21 616.014 606.135 607.016C606.135 607.016 644.971 583.795 716.432 604.287C719.102 605.1 574.846 549.197 448.875 574.217C353.091 593.258 239.892 663.151 174.933 692.525C184.395 688.984 198.443 683.585 215.568 676.503C256.204 659.087 274.722 646.142 315.822 627.74C388.212 595.231 464.258 576.017 469.019 579.558C469.019 579.558 350.595 630.468 353.497 669.014C354.282 675.322 357.411 681.104 362.263 685.21C361.042 679.789 361.028 674.166 362.222 668.739C363.416 663.312 365.788 658.213 369.171 653.805C371.725 650.67 377.588 643.646 384.206 643.994C393.901 644.517 391.405 661.874 404.524 675.109C410.852 681.553 426.409 706.979 510.525 703.787C632.432 699.143 644.042 646.665 704.299 664.254C746.502 676.503 817.673 724.337 837.294 716.5C845.343 712.788 854.427 711.967 863.01 714.178C865.041 714.659 866.995 715.421 868.815 716.442C875.549 720.215 893.081 720.331 907.826 712.843C914.682 708.966 920.678 703.735 925.449 697.468C930.219 691.2 933.664 684.028 935.574 676.387ZM863.533 617.465C865.274 613.053 868.641 604.287 876.478 601.733C888.088 597.786 904.633 609.744 905.91 621.528C907.826 638.944 877.291 657.056 866.261 650.206C858.657 645.503 859.295 628.495 863.533 617.465ZM869.338 662.164C886.115 649.161 911.599 663.499 912.992 673.774C914.792 687.707 875.375 710.404 863.301 700.71C855.348 694.673 855.754 672.555 869.106 662.164H869.338Z" fill="#ECECEC"/>
<path d="M1126.69 299.522C1045.41 289.596 996.535 349.969 914.567 337.546C878.982 332.205 844.5 314.325 839.391 293.021C833.586 268.117 870.565 248.496 889.025 238.743C896.978 234.563 955.957 204.261 996.593 217.032C998.625 217.671 1014.01 222.837 1018.83 232.648C1029.57 255.113 975.579 280.888 951.836 292.266C933.198 300.954 913.998 308.382 894.365 314.5C894.656 314.848 939.007 302.019 1127.73 245.361C1049.19 261.731 1017.03 280.946 1008.09 276.36C1001.35 272.935 1010 257.087 1027.24 248.089C1027.24 248.089 1062.54 224.521 1127.73 245.361C1127.73 245.361 994.561 190.445 884.323 215.291C774.084 240.136 626.751 357.806 604.169 356.064C600.664 355.759 597.291 354.582 594.358 352.639C590.985 349.905 588.447 346.279 587.031 342.175C585.615 338.07 585.378 333.651 586.347 329.419C589.424 318.447 600.512 318.099 611.309 304.108C616.104 297.783 619.579 290.557 621.526 282.862C619.351 287.84 616.162 292.31 612.165 295.988C608.167 299.666 603.447 302.471 598.306 304.225C595.577 304.979 589.25 306.663 585.767 303.354C580.774 298.71 584.78 287.332 585.244 285.939C589.888 273.167 597.493 270.787 603.878 259.816C608.617 251.15 610.64 241.259 609.684 231.429C607.897 240.172 604.211 248.417 598.886 255.578C595.171 260.57 590.585 266.666 586.289 265.737C580.484 264.634 576.536 252.037 580.02 243.387C582.109 238.221 585.825 237.582 590.12 231.313C593.68 226.465 596.136 220.897 597.319 215C595.716 217.79 593.765 220.365 591.514 222.663C587.543 226.625 582.718 229.623 577.407 231.429C564.926 235.434 560.747 225.217 544.028 225.624C533.139 226.375 522.863 230.938 515.002 238.511C506.903 245.902 501.904 256.086 501.012 267.014C500.463 277.092 503.485 287.04 509.546 295.111C506.933 286.983 508.269 280.366 511.229 279.089C514.19 277.811 517.034 280.191 517.499 280.308C519.589 281.469 520.169 282.804 521.62 284.255C524.714 286.947 528.455 288.788 532.476 289.596C539.442 290.989 543.215 288.144 544.086 289.596C545.711 292.15 531.373 298.768 524.697 314.325C520.227 324.658 522.491 327.677 516.628 336.443C512.783 343.113 506.564 348.088 499.213 350.375C495.385 351.218 491.426 351.277 487.575 350.549C483.724 349.821 480.06 348.32 476.805 346.137C479.378 349.094 482.516 351.505 486.036 353.23C489.555 354.955 493.384 355.958 497.297 356.18C515.467 355.774 527.832 330.406 530.908 332.379C532.708 333.54 530.212 342.945 524.407 350.201C514.19 362.914 497.587 364.191 491.666 364.598C480.52 365.468 478.721 362.45 470.477 363.553C464.431 364.781 458.686 367.193 453.575 370.65C448.464 374.107 444.088 378.541 440.697 383.696C448.638 376.99 458.211 372.504 468.446 370.693C485.861 367.848 491.666 376.498 506.469 373.131C523.884 369.3 540.545 352.059 540.719 336.443C540.719 328.084 536.191 326.574 537.41 317.75C538.376 312.312 540.749 307.221 544.294 302.984C547.838 298.748 552.429 295.513 557.612 293.601C562.894 291.686 568.061 289.77 571.776 292.266C583.038 299.813 561.037 335.34 575.55 351.304C583.27 359.779 598.77 359.025 602.95 358.909C609.998 358.566 616.889 356.704 623.151 353.452C646.023 339.287 669.611 325.22 693.915 311.249C745.407 281.643 795.795 254.997 844.5 230.964C844.5 230.964 888.386 210.182 902.551 220.631C902.551 220.631 794.75 271.31 797.362 310.204C798.001 316.389 800.845 322.139 805.373 326.4C804.17 321.045 804.063 315.501 805.061 310.103C806.059 304.705 808.14 299.566 811.178 294.994C813.5 291.86 818.783 284.836 824.878 285.184C833.702 285.706 831.38 303.064 843.281 316.299C861.567 336.617 910.562 344.048 939.761 344.918C1023.7 347.473 1047.74 298.884 1115.71 302.657C1184.79 306.489 1226.01 360.708 1227.4 359.721C1228.8 358.734 1194.84 307.882 1126.69 299.522ZM568.642 256.391C568.003 266.956 561.792 281.759 547.743 285.416C531.431 289.712 516.686 276.012 513.551 264.576C511.984 258.771 512.448 250.934 514.944 250.063C516.454 249.541 518.602 251.688 519.53 253.256C520.298 254.679 520.63 256.296 520.486 257.906C520.341 259.516 519.726 261.048 518.718 262.312C521.446 260.861 524.523 258.713 524.523 255.868C524.523 253.024 522.897 252.153 522.665 250.063C521.736 242.749 548.091 224.869 561.501 234.912C569.57 241.123 568.816 253.72 568.642 256.391Z" fill="#ECECEC"/>
</svg>
