<svg width="1400" height="2000" viewBox="0 0 1400 2000" fill="none" xmlns="http://www.w3.org/2000/svg">
<g clip-path="url(#clip0_207_1251)">
<rect width="1399.32" height="2000" fill="#141414"/>
<path d="M1190.25 621.679C1190.32 620.309 1190.69 618.971 1191.33 617.761C1191.98 616.551 1192.89 615.5 1193.99 614.682C1195.04 614.198 1196.2 614.027 1197.35 614.187C1198.49 614.348 1199.57 614.833 1200.44 615.587C1201.4 616.378 1202.2 617.353 1202.78 618.454C1203.36 619.555 1203.72 620.76 1203.83 622C1203.94 623.241 1203.81 624.49 1203.43 625.678C1203.06 626.865 1202.45 627.967 1201.65 628.918C1201.23 629.582 1200.74 630.185 1200.32 630.728C1198.15 633.443 1195.38 633.141 1193.26 630.306C1191.49 627.759 1190.45 624.776 1190.25 621.679ZM1194.47 629.099C1194.87 628.176 1195.49 627.367 1196.28 626.745C1197.07 626.124 1198 625.709 1199 625.54C1199.78 625.54 1200.62 624.032 1200.93 623.067C1201.23 622.102 1200.38 621.378 1199.84 620.775C1199.3 620.171 1197.55 619.99 1196.16 620.292C1193.69 620.774 1192.84 621.438 1192.42 623.972C1192.21 624.933 1192.3 625.935 1192.66 626.848C1193.03 627.762 1193.66 628.545 1194.47 629.099Z" fill="#141414"/>
<path d="M3542.8 442.273C3543.08 439.69 3543.54 437.13 3544.19 434.612C3557.64 379.173 3633.83 417.842 3651.93 427.011C3816.49 510.44 3924.23 774.664 3982.87 957.026C3973.76 913.411 3810.4 156.212 3550.64 210.806C3470.95 227.516 3406.16 315.47 3361.22 396.969C3524.1 487.457 3620.62 793.425 3610.72 1049.99C3603.48 1240.79 3538.33 1429.31 3467.81 1476.48C3293.6 1593.03 3168.96 806.877 3030.4 983.448C2986.12 1039.97 2958.67 1171.72 2889.78 1179.08C2844.84 1183.91 2819.74 1131.79 2792.05 1104.7C2642.39 958.594 2533.8 1658.18 2363.75 1583.08C2289.61 1550.32 2223.97 1368.44 2206 1184.21C2174.69 862.859 2324.17 467.429 2456.16 494.937C2467.08 497.169 2547.38 513.939 2563.97 640.018C2600.16 915.643 2290.63 1400.11 2302.34 1450.06C2317.48 1514.97 2833.86 616.25 2833.2 614.018C2794.35 665.536 2594.49 984.896 2566.32 904.242C2553.77 868.047 2573.19 746.07 2597.75 671.206C2647.39 519.791 2741.92 489.689 2833.01 614.018C2801.77 562.983 2559.74 180.825 2253.9 341.953C2009.46 470.686 1884.47 861.773 1836.21 1053.79C1805.49 1058.86 1775.34 1066.95 1746.2 1077.92C1617.53 1126.78 1586.28 1213.77 1531.08 1201.52C1477.63 1189.46 1435.17 1082.62 1453.44 993.945C1470.82 909.49 1539.17 861.23 1657.52 779.67C1733.45 727.385 1814.48 682.92 1899.37 646.956C1594.3 729.299 1453.38 862.014 1382.02 975.244C1336.71 1046.91 1311.56 1122.56 1240.19 1141.02C1093.67 1178.78 909.252 926.079 918.12 940.738C1051.44 1160.74 1143.86 1204.96 1206.23 1197.9C1256 1192.29 1297.08 1154.05 1355.78 1170.27C1401.14 1182.82 1444.21 1225.77 1440.23 1262.15C1431.12 1340.57 1196.7 1435.28 1035.39 1373.87C831.493 1296.23 841.145 986.042 841.688 969.694C855.563 565.517 1384.25 339.479 1410.49 328.621C1297.38 242.055 1197 219.011 1138.19 211.711C894.714 181.549 676.7 338.394 505.739 461.215C459.53 494.394 418.992 530.227 418.992 530.227C301.343 633.702 209.483 763.22 150.727 908.464C221.789 801.991 471.655 456.45 891.275 397.512C968.431 386.654 1088.6 364.032 1103.74 416.213C1133.06 517.317 573.544 767.786 536.444 1156.28C536.605 1179.06 541.516 1201.56 550.862 1222.33C563.156 1169.39 587.241 1119.9 621.321 1077.56C629.164 1067.72 691.721 989.481 715.851 999.133C743.66 1010.29 647.261 1156.34 707.888 1303.71C735.697 1371.22 781.303 1401.5 768.816 1415.25C736.482 1450.91 458.203 1217.33 281.149 1291.47C200.857 1325.07 131.543 1427.32 171.659 1474.61C246.764 1562.99 509.479 1520.28 693.41 1630.55C776.899 1680.62 808.63 1741.01 822.264 1785.23C823.999 1750.4 817.359 1715.67 802.899 1683.94C784.38 1642.86 757.354 1617.58 772.315 1580.6C776.712 1569.44 783.436 1559.35 792.041 1550.99C816.533 1527.52 849.772 1522.93 863.466 1520.82C953.953 1508.76 1086.67 1562.63 1086.67 1562.63C1133.96 1565.89 1202.19 1564.5 1272.59 1537.29C1402.89 1486.86 1445.66 1384.37 1492.17 1398C1532.53 1410.07 1514.61 1490.3 1548.46 1568.36C1580.55 1642.38 1666.33 1729.61 1899.55 1791.56C1899.55 1792.28 1899.55 1792.35 1899.55 1791.56C1954.86 1465.81 1891.46 1347.63 1814.73 1303.71C1775.64 1281.33 1718.99 1270.23 1719.84 1248.33C1721.11 1215.58 1850.08 1165.63 1961.14 1188.01C2003.22 1196.9 2042.46 1216.02 2075.39 1243.69C2069.22 1303.71 2068.62 1364.17 2073.58 1424.3C2081.18 1483.94 2088.81 1543.59 2096.45 1603.23C2094.06 1511.75 2097.48 1420.21 2106.7 1329.17C2108.27 1314.03 2111.59 1284.53 2117.62 1284.23C2130.77 1283.69 2128.42 1422.43 2183.62 1555.69C2213.59 1626.91 2257.08 1691.64 2311.69 1746.32C2337.57 1762.97 2375.33 1780.88 2417.38 1775.15C2615.97 1748.19 2677.38 1234.28 2788.92 1236.33C2799.05 1236.33 2809.37 1242.36 2820.17 1255.21C2873.37 1318.43 2875.78 1466.89 2978.88 1645.88C3027.14 1729.43 3069.79 1772.56 3096.82 1795C2994.87 1661.02 2935.51 1469.67 2943.65 1328.14C2950.1 1215.7 2999.21 1132.75 3042.22 1113.15C3183.98 1048.54 3234.72 1685.87 3410.2 1724.36C3478.55 1739.32 3589.13 1683.46 3622.67 1444.57C3642.51 1303.05 3648 1088.65 3669.9 1089.38C3684.08 1089.92 3696.45 1180.17 3705.37 1251.83C3726.68 1429.22 3737.59 1607.71 3738.07 1786.37C3739.16 1786.37 3784.88 1291.17 3708.63 938.868C3650.78 671.508 3532 529.744 3542.8 442.273ZM679.475 1475.58C677.725 1484.57 664.635 1486.44 658.542 1503.39C648.347 1531.5 674.287 1554.24 666.203 1562.02C656.973 1570.95 617.099 1546.16 570.709 1527.46C465.985 1485.23 412.356 1507.97 381.107 1468.28C361.864 1443.85 356.977 1403.25 377.79 1383.1C435.46 1327.12 687.257 1434.2 679.475 1475.58ZM1775.4 1331.22C1927.11 1375.44 1899.24 1774.55 1899.37 1791.92C1651.49 1682.43 1542.06 1519.07 1586.7 1421.83C1614.45 1361.44 1708.38 1311.68 1775.4 1331.22ZM1958.66 1051.8C1932.12 1048.48 1920.9 1055.48 1914.69 1047.45C1894.54 1021.63 2010.06 947.977 2067.43 805.791C2112.92 693.165 2086.19 625.842 2151.58 573.42C2181.38 549.29 2231.45 527.754 2253.83 545.429C2288.1 572.575 2224.28 666.079 2174.45 862.798C2135.6 1016.2 2132.22 1126.54 2092.16 1131.24C2058.92 1135.17 2035.94 1061.39 1958.66 1051.8Z" fill="#ECECEC"/>
</g>
<defs>
<clipPath id="clip0_207_1251">
<rect width="1399.32" height="2000" fill="white"/>
</clipPath>
</defs>
</svg>
