<svg width="1400" height="2000" viewBox="0 0 1400 2000" fill="none" xmlns="http://www.w3.org/2000/svg">
<rect width="1399.32" height="2000" transform="translate(0.0078125)" fill="#141414"/>
<path d="M836.903 309.399C832.009 312.901 828.03 317.53 825.304 322.894C822.647 327.742 821.319 333.206 821.456 338.732C821.846 346.818 827.032 359.253 836.68 359.866C844.877 360.424 850.955 351.558 851.513 350.721C850.663 353.85 849.183 356.772 847.163 359.309C843.196 363.633 838.033 366.68 832.33 368.064C814.151 374.979 807.292 428.903 817.608 433.532C822.683 435.706 833.836 426.561 836.512 415.575C837.777 409.746 836.989 403.659 834.282 398.344C836.539 400.651 838.32 403.379 839.524 406.374C841.875 412.398 841.875 419.087 839.524 425.111C836.01 433.03 829.374 434.368 829.765 440.112C829.807 441.293 830.133 442.447 830.715 443.476C831.298 444.505 832.119 445.379 833.111 446.023C837.628 448.532 846.606 443.179 855.138 432.305C846.494 446.971 834.449 457.343 824.746 455.391C811.809 452.77 800.767 427.509 804.782 409.218C806.065 403.251 809.299 396.504 805.73 391.039C804.663 389.267 803.087 387.856 801.207 386.991C799.328 386.126 797.231 385.846 795.191 386.187C792.643 387.298 790.601 389.321 789.467 391.858C788.332 394.396 788.186 397.266 789.057 399.905C789.83 402.183 791.259 404.18 793.164 405.649C795.069 407.117 797.364 407.99 799.763 408.159C796.216 408.712 792.585 408.064 789.447 406.318C781.473 401.467 783.313 390.593 775.339 387.303C774.038 386.695 772.62 386.38 771.184 386.38C769.748 386.38 768.33 386.695 767.03 387.303C765.635 388.306 765.58 389.199 764.353 390.76C762.301 393.149 759.402 394.648 756.267 394.942C764.743 384.961 763.405 373.138 758.386 369.737C754.259 366.949 746.229 368.789 739.816 374.811C742.047 372.692 764.576 350.163 758.219 324.623C756.947 319.55 754.693 314.776 751.583 310.57C755.799 313.554 759.382 317.345 762.122 321.723C775.673 343.026 761.788 365.108 772.718 375.704C780.971 383.678 800.6 382.395 809.132 373.083C820.675 360.536 806.288 339.178 819.337 321.668C823.785 315.862 829.921 311.577 836.903 309.399Z" fill="#ECECEC"/>
<path d="M935.053 995.414C922.238 1018.43 913.219 1043.36 908.342 1069.25C901.946 1097.68 898.97 1126.77 899.475 1155.9C900.367 1200.01 912.859 1268.05 934.607 1271.45C953.567 1274.4 967.508 1226 968.846 1221.26C967.137 1237.31 963.773 1253.14 958.809 1268.49C947.098 1302.62 930.926 1310.54 924.569 1316.17C881.798 1353.87 866.574 1648.92 890.385 1673.07C902.207 1685.11 927.915 1634.92 934.161 1574.98C937.105 1543.46 935.357 1511.68 928.974 1480.68C934.612 1494.79 938.652 1509.5 941.02 1524.51C946.532 1558.43 946.532 1593.02 941.02 1626.95C932.934 1670.33 917.599 1677.64 918.435 1708.98C918.825 1721.64 921.725 1735.63 926.186 1741.43C936.67 1754.93 957.415 1725.76 977.099 1666.43C957.136 1746.45 929.365 1803.22 907.003 1792.57C877.058 1778.29 851.573 1641.11 860.83 1540.12C863.841 1507.61 871.202 1470.53 863.061 1440.64C858.098 1422.57 847.837 1408.41 838.692 1414.32C827.539 1421.62 820.624 1458.93 824.527 1489.32C827.65 1513.75 837.409 1531.7 849.231 1534.38C841.368 1536.44 832.836 1534.88 825.42 1524.17C806.961 1497.69 811.311 1438.46 792.797 1420.29C791.905 1419.39 780.808 1408.85 773.67 1420.73C770.978 1426.77 768.922 1433.06 767.536 1439.52C766.246 1444.48 763.898 1449.1 760.654 1453.07C757.41 1457.03 753.347 1460.25 748.743 1462.5C768.428 1407.96 765.473 1343.22 753.706 1324.59C744.226 1309.31 725.824 1319.35 710.879 1352.48C715.953 1340.88 768.038 1217.75 753.372 1078.34C750.746 1052.36 745.61 1026.7 738.036 1001.72C748.893 1020.37 757.077 1040.45 762.35 1061.38C793.634 1177.88 761.625 1298.5 786.886 1356.49C805.846 1400.15 851.294 1392.96 870.923 1342.27C897.579 1273.51 864.343 1156.63 894.4 1061.1C906.334 1023.24 923.008 1004.95 935.053 995.414Z" fill="#ECECEC"/>
<path d="M811.304 893.033C824.409 877.698 842.086 886.62 857.701 869.947C864.761 861.82 869.143 851.713 870.248 841.005C867.766 849.253 862.91 856.587 856.285 862.092C849.66 867.596 841.56 871.026 832.997 871.954C825.945 872.269 818.918 870.919 812.485 868.013C806.052 865.106 800.394 860.725 795.969 855.225C791.664 860.606 786.172 864.917 779.922 867.82C773.671 870.722 766.834 872.138 759.945 871.954C751.363 871.102 743.232 867.698 736.603 862.182C729.973 856.665 725.148 849.289 722.75 841.005C723.829 851.72 728.214 861.834 735.297 869.947C750.855 886.676 768.756 877.698 781.693 893.033C784.426 896.212 787.27 912.495 792.121 944.95C794.631 960.62 795.802 969.431 791.341 972.833C786.879 976.234 780.188 972.442 776.061 969.933C782.753 979.134 790.002 983.818 793.961 981.811C795.145 981.13 796.038 980.039 796.471 978.744C796.917 980.048 797.831 981.141 799.036 981.811C802.995 983.818 810.189 979.134 816.937 969.933C812.643 972.442 805.784 975.509 801.657 972.833C797.53 970.156 798.367 960.899 800.821 944.95C805.951 912.495 808.572 896.379 811.304 893.033Z" fill="#ECECEC"/>
<path d="M593.322 508.368C588.928 505.252 583.65 503.63 578.266 503.739C566.555 504.185 563.209 513.944 550.383 514.557C542.911 514.892 541.238 511.658 535.271 513.554C529.485 515.866 524.853 520.378 522.389 526.101C517.147 536.919 518.988 550.916 523.337 552.254C526.237 553.147 527.91 547.905 533.319 547.737C539.955 547.737 543.691 555.321 546.926 553.816C549.212 552.812 547.818 548.853 550.774 544.838C552.864 542.312 555.758 540.58 558.971 539.93C557.506 540.746 556.244 541.882 555.278 543.253C554.313 544.624 553.669 546.195 553.394 547.849C552.67 555.154 562.373 562.292 570.96 563.407C574.948 563.555 578.919 562.822 582.591 561.261C586.264 559.699 589.546 557.348 592.207 554.373C596.124 550.63 599.154 546.057 601.073 540.99C600.516 543.276 595.831 560.954 580.05 567.199C574.977 569.311 569.426 570.005 563.99 569.207C554.956 567.813 552.837 562.738 545.141 561.79C541.848 561.447 538.52 561.764 535.351 562.721C532.182 563.679 529.235 565.258 526.683 567.367C513.132 579.133 521.107 602.721 521.999 606.402C523.951 612.369 525.791 617.555 530.531 619.785C537.836 622.964 541.684 613.707 555.29 613.484C563.265 613.484 564.603 616.551 579.046 617.276C583.069 617.768 587.148 617.541 591.091 616.607C596.337 615.247 601.153 612.581 605.088 608.856C604.118 610.885 602.859 612.763 601.352 614.432C592.207 624.079 578.154 621.737 578.098 623.801C578.042 625.864 589.976 629.377 599.623 625.752C601.185 625.139 602.412 624.414 602.467 624.47C597.31 628.988 590.751 631.588 583.898 631.831C573.302 631.106 572.299 620.287 562.484 619.284C551.722 618.224 549.268 630.046 536.33 630.436C526.906 630.827 521.943 623.856 515.586 627.146C512.862 629.013 509.757 630.251 506.496 630.771C505.239 630.953 503.962 630.953 502.704 630.771C511.348 625.195 515.53 616.663 513.523 610.082C512.463 606.737 509.452 602.777 506.106 602.666C500.53 602.666 496.18 612.592 494.953 618.336C494.462 620.347 494.164 622.401 494.061 624.47C493.354 617.148 494.564 609.768 497.574 603.056C500.146 598.439 502.976 593.971 506.05 589.673C510.902 581.977 518.709 569.709 514.471 563.519C513.095 561.746 511.106 560.552 508.894 560.173C500.53 557.719 492.165 564.69 491.719 564.244C497.118 561.14 502.039 557.271 506.329 552.756C515.642 541.269 513.802 525.32 513.077 518.628C511.878 508.895 508.463 499.566 503.095 491.359C506.328 494.895 510.045 497.956 514.136 500.449C526.572 508.423 540.624 509.706 541.238 507.977C541.851 506.249 537.502 505.858 533.654 500.616C532.025 498.492 530.71 496.145 529.75 493.646C540.903 507.42 548.822 509.594 554.008 508.758C559.194 507.921 563.488 503.181 575.254 501.174C577.974 500.586 580.788 500.586 583.507 501.174C587.529 502.33 591.008 504.88 593.322 508.368Z" fill="#ECECEC"/>
<path d="M830.883 508.368C826.486 505.259 821.211 503.638 815.827 503.739C804.116 504.185 800.77 513.944 787.944 514.557C780.528 514.892 778.855 511.658 772.888 513.554C767.102 515.866 762.47 520.378 760.006 526.101C754.764 536.919 756.605 550.916 760.954 552.254C763.854 553.147 765.527 547.905 770.936 547.737C777.516 547.737 781.308 555.321 784.543 553.816C786.773 552.812 785.435 548.853 788.391 544.838C790.481 542.312 793.375 540.58 796.588 539.93C795.123 540.746 793.861 541.882 792.895 543.253C791.93 544.624 791.286 546.195 791.011 547.849C790.231 555.154 799.99 562.292 808.577 563.407C812.565 563.555 816.536 562.822 820.208 561.261C823.88 559.699 827.163 557.348 829.824 554.373C833.741 550.63 836.771 546.057 838.69 540.99C838.133 543.276 833.448 560.954 817.667 567.199C812.593 569.305 807.043 569.999 801.607 569.207C792.573 567.813 790.454 562.738 782.758 561.79C779.465 561.441 776.136 561.755 772.965 562.712C769.795 563.67 766.849 565.253 764.3 567.367C750.749 579.133 758.724 602.721 759.616 606.402C761.568 612.369 763.408 617.555 768.148 619.785C775.453 622.964 779.301 613.707 792.907 613.484C800.882 613.484 802.22 616.551 816.607 617.276C820.45 617.688 824.335 617.442 828.095 616.551C833.362 615.205 838.199 612.537 842.148 608.8C841.177 610.829 839.919 612.707 838.411 614.376C829.266 624.024 815.213 621.681 815.102 623.745C814.99 625.808 827.035 629.321 836.683 625.696C838.244 625.083 839.471 624.358 839.471 624.414C834.345 628.948 827.797 631.552 820.957 631.775C810.362 631.05 809.358 620.232 799.543 619.228C788.781 618.168 786.327 629.99 773.39 630.381C763.966 630.771 759.003 623.8 752.645 627.091C749.921 628.957 746.817 630.195 743.556 630.715C742.298 630.898 741.021 630.898 739.764 630.715C748.407 625.139 752.59 616.607 750.582 610.027C749.523 606.681 746.511 602.721 743.11 602.61C737.533 602.61 733.239 612.536 731.957 618.28C731.466 620.292 731.167 622.346 731.064 624.414C730.357 617.092 731.568 609.712 734.578 603C737.366 598.372 740.439 593.921 743.779 589.672C748.63 581.977 756.437 569.709 752.199 563.519C750.824 561.746 748.834 560.552 746.623 560.173C738.258 557.719 729.893 564.69 729.447 564.244C734.836 561.125 739.755 557.257 744.058 552.756C753.37 541.269 751.53 525.32 750.749 518.628C749.593 508.894 746.196 499.559 740.823 491.359C744.043 494.909 747.763 497.971 751.865 500.449C764.3 508.423 778.353 509.706 778.966 507.977C779.58 506.249 775.23 505.858 771.382 500.616C769.817 498.427 768.578 496.023 767.702 493.478C778.855 507.252 786.773 509.427 791.959 508.591C797.146 507.754 801.439 503.014 813.206 501.007C815.925 500.418 818.739 500.418 821.459 501.007C825.362 502.287 828.696 504.89 830.883 508.368Z" fill="#ECECEC"/>
<path d="M716.952 858.793C712.544 855.699 707.28 854.061 701.896 854.108C690.185 854.554 686.839 864.369 674.013 865.261C666.597 865.596 664.924 862.361 658.957 864.202C653.164 866.532 648.532 871.064 646.075 876.805C640.833 887.623 642.618 901.62 647.023 902.958C649.923 903.85 651.596 898.609 657.005 898.441C663.585 898.441 667.377 906.025 670.612 904.52C672.842 903.46 671.504 899.556 674.459 895.541C676.532 892.985 679.431 891.23 682.657 890.578C681.192 891.394 679.93 892.53 678.964 893.901C677.999 895.272 677.355 896.843 677.08 898.497C676.3 905.802 686.058 912.996 694.646 914.055C698.631 914.222 702.603 913.503 706.277 911.95C709.95 910.398 713.234 908.05 715.892 905.077C719.81 901.334 722.839 896.761 724.759 891.694C724.201 893.98 719.517 911.657 703.736 917.903C698.654 919.98 693.112 920.672 687.676 919.911C678.586 918.461 676.523 913.442 668.827 912.494C665.534 912.145 662.204 912.458 659.034 913.416C655.864 914.374 652.918 915.956 650.369 918.07C636.818 929.837 644.793 953.425 645.685 957.106C647.637 963.072 649.477 968.259 654.217 970.489C661.522 973.668 665.37 964.411 678.976 964.132C686.951 964.132 688.289 967.199 702.676 967.98C706.519 968.362 710.399 968.117 714.164 967.255C719.421 965.884 724.252 963.219 728.216 959.504C727.223 961.434 725.966 963.217 724.48 964.801C715.335 974.393 701.282 972.106 701.171 974.17C701.059 976.233 713.104 979.746 722.752 976.121C724.313 975.508 725.54 974.783 725.54 974.839C720.404 979.349 713.858 981.932 707.026 982.144C696.431 981.475 695.427 970.601 685.612 969.653C674.85 968.593 672.396 980.415 659.459 980.806C650.034 981.196 645.071 974.225 638.714 977.46C635.985 979.328 632.884 980.584 629.625 981.14C628.367 981.323 627.09 981.323 625.833 981.14C634.476 975.564 638.658 967.032 636.651 960.452C635.591 957.106 632.58 953.091 629.178 953.035C623.602 953.035 619.308 962.961 618.025 968.705C617.531 970.716 617.232 972.77 617.133 974.839C616.426 967.517 617.637 960.137 620.646 953.425C623.377 948.829 626.375 944.398 629.625 940.153C634.476 932.513 642.283 920.245 638.045 914C636.65 912.26 634.666 911.089 632.468 910.709C624.104 908.256 615.739 915.226 615.293 914.78C620.771 911.627 625.767 907.702 630.126 903.125C639.439 891.638 637.599 875.689 636.818 868.997C635.671 859.252 632.252 849.911 626.836 841.729C630.093 845.346 633.849 848.482 637.989 851.041C650.425 859.016 664.477 860.242 665.091 858.569C665.704 856.897 661.355 856.395 657.507 851.153C655.934 848.968 654.694 846.563 653.826 844.015C664.979 857.845 672.898 860.019 678.084 859.183C683.27 858.346 687.564 853.606 699.33 851.599C702.683 850.71 706.233 850.931 709.449 852.228C712.666 853.524 715.376 855.828 717.175 858.793H716.952Z" fill="#ECECEC"/>
<path d="M1123.87 684.475C1119.45 681.362 1114.16 679.741 1108.75 679.846C1097.04 680.237 1093.7 690.051 1080.87 690.665C1073.4 690.999 1071.78 687.765 1065.76 689.661C1062.89 690.793 1060.28 692.486 1058.08 694.641C1055.88 696.795 1054.13 699.368 1052.93 702.208C1047.64 713.026 1049.48 727.023 1053.83 728.361C1056.72 729.254 1058.4 724.012 1063.81 723.845C1070.44 723.845 1074.24 731.429 1077.47 729.923C1079.7 728.919 1078.31 724.96 1081.32 720.945C1083.39 718.416 1086.26 716.667 1089.46 715.982C1088.01 716.831 1086.76 717.983 1085.8 719.359C1084.84 720.735 1084.18 722.304 1083.88 723.956C1083.16 731.261 1092.86 738.399 1101.45 739.459C1105.43 739.625 1109.41 738.906 1113.08 737.353C1116.75 735.801 1120.04 733.454 1122.69 730.481C1126.81 726.703 1130 722.028 1132.01 716.818C1131.45 719.105 1126.77 736.782 1111.04 743.028C1105.95 745.13 1100.38 745.823 1094.92 745.035C1085.89 743.641 1083.77 738.566 1076.08 737.618C1072.78 737.276 1069.45 737.592 1066.29 738.55C1063.12 739.507 1060.17 741.086 1057.62 743.195C1044.07 754.961 1052.04 778.55 1052.99 782.23C1054.94 788.197 1056.72 793.383 1061.46 795.614C1068.77 798.792 1072.9 789.535 1086.28 789.312C1094.2 789.312 1095.54 792.324 1109.98 793.104C1113.82 793.513 1117.71 793.267 1121.47 792.379C1126.63 791.058 1131.38 788.471 1135.3 784.851C1134.33 786.88 1133.07 788.758 1131.56 790.428C1122.47 800.075 1108.36 797.733 1108.31 799.796C1108.25 801.859 1120.24 805.372 1129.83 801.748C1131.39 801.134 1132.62 800.409 1132.68 800.465C1127.45 804.746 1120.92 807.108 1114.16 807.157C1103.57 806.432 1102.56 795.614 1092.75 794.61C1081.99 793.55 1079.48 805.372 1066.6 805.763C1057.12 806.153 1052.15 799.183 1045.8 802.473C1043.08 804.311 1040 805.547 1036.76 806.097C1035.48 806.278 1034.19 806.278 1032.91 806.097C1041.56 800.521 1045.74 791.989 1043.73 785.409C1042.67 782.063 1039.66 778.104 1036.32 777.992C1030.74 777.992 1026.44 787.918 1025.16 793.662C1024.64 795.668 1024.34 797.725 1024.27 799.796C1023.56 792.474 1024.77 785.094 1027.78 778.382C1030.48 773.796 1033.46 769.382 1036.71 765.166C1041.61 757.471 1049.42 745.202 1045.13 739.012C1043.76 737.231 1041.76 736.035 1039.55 735.667C1031.24 733.213 1022.82 740.184 1022.43 739.737C1027.87 736.729 1032.84 732.954 1037.21 728.529C1046.52 717.041 1044.74 701.093 1043.95 694.401C1042.78 684.661 1039.36 675.327 1033.97 667.132C1037.12 670.73 1040.76 673.866 1044.79 676.445C1057.23 684.419 1071.28 685.701 1071.89 683.973C1072.23 683.081 1068.16 681.854 1064.36 676.612C1062.76 674.448 1061.52 672.037 1060.68 669.474C1071.84 683.248 1079.76 685.423 1084.89 684.586C1090.02 683.75 1094.37 679.01 1106.13 677.002C1108.87 676.418 1111.7 676.418 1114.44 677.002C1118.34 678.344 1121.67 680.981 1123.87 684.475Z" fill="#ECECEC"/>
<path d="M677.13 1120.39C662.296 1098.08 650.362 1094.23 642.277 1094.96C615.286 1097.41 607.535 1150.72 578.259 1154.29C561.027 1156.19 557.235 1138.4 543.462 1148.71C525.059 1162.38 516.137 1205.76 513.739 1217.3C501.582 1276.53 505.765 1353.04 515.914 1360.45C522.55 1365.3 526.398 1336.53 538.889 1335.75C554.168 1334.8 562.923 1377.13 570.396 1369.21C575.582 1363.63 572.403 1341.94 579.262 1320.02C584.449 1303.29 592.367 1296.43 598.111 1293.09C590.56 1306.24 586.241 1320.99 585.508 1336.14C583.779 1375.95 606.253 1414.99 626.105 1421.12C649.861 1428.32 668.04 1387.67 675.178 1371.83C685.001 1348.46 691.858 1323.96 695.588 1298.89C694.305 1311.21 683.487 1407.91 647.128 1441.98C642.779 1446.11 628.001 1459.88 609.933 1453.13C589.077 1445.27 584.727 1417.72 566.437 1412.54C551.101 1408.13 534.707 1422.02 523.832 1444.32C492.548 1508.62 510.393 1637.49 513.07 1656.73C517.587 1689.24 521.825 1718.46 532.755 1729.84C549.484 1747.29 559.076 1696.71 589.969 1695.26C608.316 1694.37 611.383 1711.99 644.674 1716.23C653.707 1718.25 663.168 1716.84 671.218 1712.27C686.554 1703.13 697.372 1683.39 703.618 1669.83C701.519 1679.72 698.61 1689.42 694.918 1698.83C673.895 1751.36 641.384 1738.76 641.217 1750.08C641.05 1761.4 668.709 1781.2 690.959 1760.62C694.584 1757.27 697.428 1753.43 697.484 1753.59C697.539 1753.76 676.405 1797.2 654.712 1793.74C630.287 1789.9 627.945 1730.62 605.249 1725.32C580.434 1719.41 574.746 1784.21 544.911 1787.11C523.052 1789.28 511.453 1751.25 496.954 1769.04C492.437 1774.62 486.414 1786.1 476.042 1789C473.104 1789.78 469.993 1789.59 467.176 1788.45C487.587 1754.45 496.358 1714.73 492.158 1675.3C489.76 1656.9 482.79 1635.2 474.983 1634.65C462.268 1633.7 452.175 1689.07 448.829 1720.52C447.379 1734.41 446.933 1746.18 446.766 1753.98C445.095 1714.77 447.826 1675.49 454.907 1636.88C460.484 1608.1 464.332 1606.26 475.596 1564.38C486.86 1522.5 504.872 1455.53 495.002 1421.4C493.415 1413.97 488.968 1407.46 482.622 1403.28C463.384 1389.84 443.587 1428.04 443.085 1425.59C442.583 1423.13 463.16 1402.5 476.544 1362.85C498.069 1300.06 493.887 1212.9 492.102 1176.37C489.881 1125.94 482.158 1075.9 469.072 1027.15C475.48 1045.05 483.859 1062.18 494.054 1078.23C522.773 1121.78 555.395 1128.42 556.622 1119.38C557.403 1114.25 548.034 1107.5 539.168 1078.84C535.33 1066.07 532.495 1053.02 530.691 1039.81C556.734 1115.25 574.746 1127.19 586.456 1122.67C598.167 1118.15 608.372 1092.45 635.473 1081.13C646.626 1076.39 652.983 1080.07 654.656 1081.13C666.757 1088.77 673.951 1109.62 677.13 1120.39Z" fill="#ECECEC"/>
<path d="M615.743 739.012C618.755 739.593 621.855 739.546 624.849 738.874C627.843 738.203 630.666 736.921 633.141 735.108C640.837 728.919 641.618 717.431 640.223 710.126C637.993 698.583 629.795 695.515 629.071 683.415C628.922 679.784 629.432 676.157 630.576 672.708C630.022 675.656 630.022 678.682 630.576 681.63C630.657 684.383 631.795 687 633.755 688.935C635.13 689.627 636.649 689.987 638.188 689.987C639.728 689.987 641.246 689.627 642.621 688.935C652.046 685.534 653.774 675.44 663.923 670.477C669.419 668.173 675.48 667.571 681.322 668.748C704.855 671.369 727.718 693.619 731.51 718.937C732.143 723.599 732.143 728.326 731.51 732.989C723.982 715.033 720.357 711.074 718.238 711.576C714.502 712.468 714 730.034 718.238 744.477C722.099 757.295 729.095 768.948 738.592 778.382C717.29 768.679 699.892 766.615 695.654 773.14C692.14 778.716 697.271 789.869 702.067 796.45C706.187 801.323 710.996 805.568 716.342 809.052C715.952 809.833 705.635 803.476 692.14 798.513C677.474 792.936 670.169 790.037 661.693 789.702C650.869 789.595 640.152 791.86 630.297 796.338C621.264 800.13 613.568 805.205 613.122 804.703C612.676 804.201 634.926 793.55 633.811 782.397C633.476 778.828 630.52 773.307 627.565 773.753C626.407 774.034 625.311 774.525 624.331 775.203C620.919 777.035 616.977 777.626 613.178 776.876C619.399 775.207 624.879 771.495 628.736 766.337C634.926 757.749 635.93 745.034 631.915 742.469C630.13 741.298 628.401 742.469 623.494 742.135C620.663 741.864 617.971 740.78 615.743 739.012ZM685.895 714.922C682.396 710.956 680.42 705.877 680.318 700.59C680.318 692.337 685.895 688.768 684.333 682.02C683.775 680.04 682.757 678.22 681.362 676.708C679.966 675.196 678.233 674.035 676.303 673.321C669.11 670.979 661.637 677.894 658.96 680.347C646.748 691.5 647.306 710.07 647.473 714.197C648.031 727.524 653.049 728.695 652.603 740.183C651.934 756.132 641.785 761.485 644.629 767.675C648.7 776.486 675.188 778.828 691.36 766.281C704.743 755.909 705.635 739.291 707.364 706.055C707.866 696.129 707.364 688.322 702.68 685.478C700.571 684.585 698.255 684.294 695.991 684.639C693.726 684.984 691.602 685.95 689.854 687.43C683.385 692.225 681.545 703.49 685.895 714.922ZM722.198 765.779C724.93 762.043 714.279 746.429 708.312 747.878C705.97 748.436 704.576 751.447 704.297 753.455C703.628 759.031 709.204 762.656 710.32 763.437C714.446 766.392 720.859 768.121 722.421 765.779H722.198Z" fill="#ECECEC"/>
<path d="M266.767 915.84C269.811 916.434 272.945 916.399 275.975 915.737C279.006 915.075 281.869 913.801 284.389 911.992C287.596 908.774 289.93 904.791 291.17 900.419C292.409 896.048 292.513 891.432 291.471 887.01C289.24 875.411 280.987 872.399 280.318 860.298C280.147 856.662 280.677 853.027 281.879 849.591C281.32 852.539 281.32 855.566 281.879 858.514C282.003 861.257 283.135 863.858 285.058 865.819C286.443 866.511 287.97 866.871 289.519 866.871C291.067 866.871 292.595 866.511 293.98 865.819C303.349 862.473 305.133 852.324 315.282 847.361C320.778 845.057 326.839 844.455 332.681 845.632C356.213 848.253 379.021 870.503 382.869 895.82C383.479 900.466 383.479 905.172 382.869 909.817C375.341 891.861 371.716 887.902 369.653 888.404C365.917 889.352 365.415 906.862 369.653 921.361C373.513 934.166 380.487 945.815 389.951 955.266C368.649 945.562 351.306 943.443 347.012 949.689C343.555 955.266 348.629 966.419 353.481 972.999C357.617 977.852 362.402 982.111 367.701 985.657C367.311 986.382 357.05 980.081 343.555 975.062C328.889 969.486 321.528 966.586 313.107 966.251C302.261 966.159 291.526 968.443 281.656 972.943C272.678 976.679 264.927 981.754 264.536 981.252C264.146 980.75 286.285 970.099 285.225 958.946C284.835 955.377 281.879 949.912 278.924 950.358C277.774 950.582 276.688 951.058 275.745 951.752C272.333 953.584 268.391 954.175 264.592 953.425C270.854 951.845 276.373 948.139 280.206 942.942C286.34 934.354 287.344 921.639 283.385 919.018C281.545 917.847 279.872 919.019 274.909 918.684C271.97 918.58 269.131 917.589 266.767 915.84ZM337.086 891.75C333.644 887.772 331.675 882.731 331.51 877.474C331.51 869.221 337.086 865.652 335.581 858.904C335.026 856.883 333.991 855.027 332.563 853.492C331.136 851.958 329.359 850.792 327.383 850.093C320.245 847.751 312.773 854.61 310.04 857.12C297.828 868.273 298.386 886.787 298.553 890.969C299.166 904.297 304.129 905.468 303.739 916.955C303.014 932.904 292.921 938.257 295.765 944.447C299.78 953.202 326.268 955.6 342.495 943.053C355.823 932.625 356.715 916.007 358.5 882.827C359.002 872.901 358.5 865.038 353.816 862.194C351.708 861.295 349.391 861.001 347.125 861.346C344.859 861.691 342.735 862.66 340.99 864.146C334.577 869.109 332.513 880.318 337.086 891.75ZM373.612 942.663C376.345 938.871 365.638 923.312 359.671 924.707C357.385 925.264 355.935 928.331 355.712 930.283C355.042 935.859 360.619 939.54 361.734 940.265C365.47 943.22 371.828 944.893 373.612 942.663Z" fill="#ECECEC"/>
<path d="M472.252 703.486C473.134 696.275 476.795 689.692 482.457 685.139C486.336 682.236 490.966 680.504 495.798 680.148C500.63 679.792 505.463 680.828 509.726 683.132C528.128 695.4 513.239 741.127 527.961 746.536C529.773 747.124 531.725 747.124 533.537 746.536C547.925 741.294 537.051 697.519 554.951 687.649C559.078 685.362 560.528 687.258 566.606 684.191C574.782 679.62 581.111 672.344 584.506 663.614L582.555 670.306C578.149 684.582 575.417 688.708 573.409 695.4C569.227 709.341 570.788 726.071 575.473 727.521C577.926 728.246 581.049 725.067 584.506 720.829C588.399 715.738 591.518 710.101 593.763 704.099C593.763 705.326 593.261 707.389 592.76 709.676C586.737 738.395 571.346 745.254 570.454 762.318C569.45 777.374 579.934 793.881 588.856 794.104C595.882 794.104 603.02 785.181 607.426 772.913C601.849 793.936 587.573 806.372 576.03 804.532C563.595 802.803 557.293 785.46 556.959 784.401C552.051 770.236 558.409 761.425 563.204 736.331C568.112 709.286 565.993 690.27 564.989 690.158C563.985 690.047 566.048 742.633 542.683 753.117C539.043 754.877 534.993 755.615 530.965 755.252C526.938 754.889 523.085 753.437 519.819 751.053C505.432 737.614 525.061 702.203 508.666 689.378C508.053 688.876 502.7 684.638 498.35 686.422C489.595 689.879 492.774 713.802 491.547 758.916C490.487 793.156 487.866 800.182 482.736 802.914C473.256 807.877 458.088 796.725 450.504 790.479C452.121 791.594 461.657 798.007 470.468 794.494C482.29 789.754 482.346 771.407 482.346 766.612C482.346 756.184 478.721 743.86 474.538 743.692C470.356 743.525 467.512 752.001 466.341 755.961C465.3 759.447 464.94 763.101 465.282 766.723C464.445 764.955 463.863 763.078 463.553 761.147C462.744 753.533 464.726 745.885 469.129 739.621C483.684 713.133 488.48 705.27 485.859 698.021C485.58 697.185 484.465 694.006 482.234 693.56C477.494 692.891 472.531 702.928 472.252 703.486ZM555.453 694.062C551.605 694.062 543.241 739.287 546.865 740.402C548.65 740.96 553.501 730.922 555.732 723.004C559.635 709.174 557.628 694.285 555.453 694.062ZM563.204 768.619C561.754 768.619 558.855 784.624 567.442 793.211C573.019 798.788 581.997 799.736 582.666 798.397C583.335 797.059 577.09 794.773 571.513 787.245C564.097 777.932 564.431 768.452 563.204 768.619Z" fill="#ECECEC"/>
<path d="M324.586 427.957C321.575 426.005 309.53 450.709 291.908 451.099C288.102 450.868 284.378 449.887 280.952 448.212C277.526 446.538 274.465 444.202 271.944 441.341C275.107 443.475 278.674 444.937 282.424 445.637C286.174 446.338 290.029 446.261 293.748 445.411C300.805 443.143 306.767 438.333 310.478 431.916C316.054 423.384 313.991 420.429 318.285 410.391C324.753 395.279 338.695 388.866 337.133 386.357C336.241 385.018 332.616 387.806 325.98 386.357C322.076 385.573 318.444 383.785 315.441 381.17C313.991 379.721 313.433 378.438 311.426 377.323C311.426 377.323 307.634 375.204 305.347 376.152C303.061 377.1 301.165 383.791 303.674 391.71C297.869 383.867 294.989 374.24 295.533 364.497C296.374 353.803 301.26 343.832 309.195 336.614C316.846 329.239 326.863 324.814 337.468 324.123C353.695 323.677 357.766 333.659 369.867 329.7C375.047 327.973 379.746 325.05 383.585 321.168C385.763 318.952 387.638 316.458 389.162 313.751C388.194 319.467 385.965 324.897 382.637 329.644C378.176 335.89 374.83 336.336 372.823 341.354C369.421 349.775 373.436 361.987 378.845 363.103C383.027 363.939 387.489 358.028 391.169 353.177C396.27 346.233 399.791 338.258 401.486 329.811C402.499 339.456 400.554 349.18 395.909 357.694C389.719 368.345 382.303 370.631 377.786 383.122C377.339 384.349 373.436 395.39 378.287 399.852C381.689 403.03 387.823 401.413 390.5 400.688C395.448 398.957 399.985 396.221 403.824 392.65C407.663 389.08 410.721 384.754 412.806 379.944C410.936 387.425 407.558 394.446 402.88 400.577C392.396 414.127 381.633 414.518 378.678 425.169C377.587 429.283 377.748 433.629 379.138 437.651C380.529 441.674 383.086 445.191 386.485 447.753C389.603 449.86 393.243 451.063 397.002 451.231C400.762 451.398 404.494 450.523 407.787 448.701C403.848 451.314 399.401 453.063 394.738 453.832C390.011 454.737 385.139 454.533 380.504 453.236C375.869 451.94 371.598 449.586 368.027 446.359C353.918 430.801 375.276 396.171 364.291 388.922C360.722 386.524 355.703 388.364 350.572 390.26C345.532 392.112 341.065 395.256 337.621 399.376C334.176 403.496 331.873 408.448 330.943 413.737C329.716 422.269 334.289 423.775 334.178 431.916C334.178 447.029 317.95 463.814 300.719 467.55C286.332 470.673 280.922 462.42 263.803 465.152C253.846 466.915 244.534 471.283 236.812 477.811C243.489 467.712 253.897 460.674 265.754 458.237C273.784 457.178 275.513 460.077 286.387 459.241C291.964 458.795 308.247 457.568 318.173 445.244C323.917 438.162 326.315 429.072 324.586 427.957ZM361.279 354.069C361.279 351.504 362.171 339.291 354.42 333.492C341.427 323.733 315.775 341.076 316.723 348.214C316.723 349.942 318.619 351.113 318.508 353.79C318.396 356.467 315.441 358.586 312.931 359.98C313.925 358.768 314.532 357.284 314.671 355.723C314.81 354.161 314.476 352.594 313.712 351.225C312.82 349.663 310.756 347.6 309.307 348.102C306.853 348.938 306.407 356.746 307.912 362.21C310.924 373.363 325.255 386.635 341.371 382.453C354.643 378.717 360.666 364.33 361.279 354.069Z" fill="#ECECEC"/>
<path d="M615.349 323.061C614.845 327.028 613.474 330.836 611.334 334.214C606.143 341.241 598.499 346.058 589.921 347.709C582.605 349.341 575.099 349.961 567.615 349.549C545.309 350.33 530.698 350.832 524.62 359.587C523.17 361.706 523.393 362.487 521.72 380.387C520.27 396.28 517.036 404.645 520.103 406.318C523.17 407.991 528.412 399.235 541.35 390.313C550.049 384.346 563.655 375.201 572.02 378.881C583.452 383.789 587.132 411.225 576.649 430.631C571.805 438.617 564.885 445.139 556.625 449.499C548.365 453.86 539.077 455.896 529.75 455.391C521.553 455.391 509.229 453.941 503.82 445.353C492.109 427.118 524.174 393.603 513.021 374.309C512.24 373.026 509.675 368.732 506.274 368.732C501.589 368.732 497.686 376.985 496.738 382.952C496.036 387.383 496.657 391.922 498.522 396.001C500.101 399.551 502.534 402.654 505.604 405.035C499.895 403.065 495.085 399.106 492.054 393.882C488.904 387.058 488.544 379.275 491.05 372.19C494.619 360.702 502.203 357.468 500.362 351.836C499.528 349.944 498.183 348.321 496.48 347.15C494.776 345.978 492.78 345.303 490.715 345.2C487.831 345.29 484.998 345.994 482.406 347.263C484.819 344.648 488.003 342.87 491.496 342.188C498.466 340.627 501.422 344.307 508.225 345.032C513.291 345.276 518.339 344.256 522.913 342.066C527.488 339.876 531.447 336.584 534.435 332.485C537.943 327.412 539.882 321.42 540.011 315.254C541.016 317.374 541.621 319.662 541.796 322.001C541.796 332.876 531.814 339.233 533.375 341.519C534.937 343.805 540.848 340.515 555.235 335.441C569.622 330.366 570.905 331.091 576.983 327.522C582.411 324.28 587.333 320.26 591.593 315.588C589.146 320.877 585.634 325.604 581.277 329.474C571.574 337.894 561.592 337.95 561.759 339.902C561.927 341.854 579.604 346.426 595.664 339.456C603.596 335.884 610.402 330.216 615.349 323.061ZM564.157 439.107C565.44 439.944 571.964 435.036 572.745 428.289C573.303 423.716 571.184 418.14 568.228 417.582C565.273 417.024 562.986 425.11 556.573 426.56C554.89 426.824 553.172 426.753 551.516 426.351C549.861 425.949 548.301 425.224 546.926 424.218C550.218 424.277 553.468 423.469 556.35 421.876C561.031 418.815 564.501 414.222 566.165 408.883C569.12 402.191 573.972 391.261 570.291 387.86C562.707 380.833 524.286 404.589 526.962 417.471C527.91 422.211 534.49 425.612 533.319 427.899C532.148 430.185 524.118 426.449 520.94 429.962C517.761 433.475 519.378 441.115 523.895 445.52C534.156 455 559.083 442.397 561.536 435.817C562.858 432.182 565.177 428.993 568.228 426.616C563.544 436.207 563.488 438.55 564.157 439.107Z" fill="#ECECEC"/>
<path d="M517.762 849.594C517.222 853.56 515.833 857.364 513.692 860.747C508.493 867.707 500.871 872.463 492.334 874.074C485.01 875.652 477.509 876.252 470.028 875.859C447.387 876.639 433.112 877.141 427.033 885.896C425.583 888.015 425.806 888.852 424.134 906.697C422.628 922.59 419.394 931.01 422.461 932.627C425.528 934.244 430.77 925.601 443.763 916.678C452.406 910.712 465.734 901.51 474.377 905.526C485.53 910.377 489.49 937.813 479.006 957.219C474.162 965.301 467.202 971.905 458.877 976.318C450.553 980.731 441.18 982.785 431.773 982.258C423.632 982.258 411.252 980.752 405.843 972.164C394.69 953.929 426.643 920.47 415.211 901.176C414.43 899.838 411.865 895.599 408.464 895.599C403.779 895.599 399.932 903.853 398.928 909.875C398.29 914.306 398.908 918.827 400.712 922.924C402.289 926.46 404.723 929.546 407.794 931.902C402.085 929.932 397.275 925.974 394.244 920.749C391.07 913.85 390.73 905.981 393.296 898.834C396.865 887.681 404.449 884.112 402.608 878.535C401.737 876.703 400.395 875.133 398.72 873.987C397.045 872.841 395.097 872.159 393.073 872.011C390.188 872.102 387.356 872.805 384.764 874.074C387.206 871.467 390.405 869.692 393.909 869C400.824 867.438 403.835 871.119 410.638 871.844C415.7 872.113 420.749 871.105 425.319 868.913C429.889 866.72 433.835 863.413 436.792 859.297C440.317 854.253 442.258 848.273 442.369 842.121C443.212 844.271 443.647 846.559 443.651 848.869C443.651 859.687 433.669 866.044 435.231 868.331C436.792 870.617 442.703 867.383 457.09 862.308C471.478 857.233 472.816 857.958 478.839 854.334C484.289 851.125 489.217 847.1 493.449 842.4C491.025 847.718 487.51 852.468 483.133 856.341C473.429 864.706 463.448 864.762 463.671 866.769C463.894 868.777 481.46 873.238 497.52 866.267C505.685 862.698 512.695 856.924 517.762 849.594ZM466.515 965.528C467.797 966.365 474.322 961.458 475.102 954.71C475.66 950.193 473.597 944.561 470.585 944.059C467.574 943.557 465.344 951.531 458.931 953.037C455.534 953.516 452.082 952.678 449.283 950.695C452.573 950.726 455.815 949.92 458.708 948.353C463.323 945.274 466.747 940.709 468.411 935.415C471.366 928.668 476.218 917.738 472.593 914.392C464.953 907.31 426.587 931.122 429.208 944.003C430.156 948.687 436.736 952.089 435.565 954.375C434.394 956.662 426.364 952.981 423.186 956.439C420.007 959.896 421.624 967.592 426.141 971.997C436.402 981.477 461.329 968.874 463.782 962.294V962.015C465.103 958.38 467.447 955.205 470.53 952.87C465.957 962.796 465.846 965.082 466.515 965.528Z" fill="#ECECEC"/>
<path d="M736.079 437.212C736.135 439.263 735.568 441.283 734.453 443.005C733.338 444.727 731.727 446.071 729.833 446.859C724.814 448.309 719.795 443.123 718.29 438.829C717.747 436.321 717.744 433.725 718.283 431.215C718.821 428.706 719.888 426.34 721.413 424.275C726.989 414.851 732.175 386.968 733.29 316.37C732.101 322.533 729.063 328.188 724.58 332.581C720.097 336.974 714.382 339.898 708.196 340.962C701.893 341.586 695.569 340.01 690.296 336.501C691.178 339.448 692.686 342.169 694.717 344.479C696.747 346.789 699.253 348.633 702.062 349.885C708.419 351.948 711.933 347.543 716.171 349.885C724.48 354.29 724.647 380.109 713.606 387.191C708.364 390.537 704.572 387.191 696.486 390.983C687.006 395.612 685.333 403.698 682.043 402.917C677.135 401.69 682.879 382.953 673.176 370.35C667.466 363.612 659.572 359.092 650.87 357.58C653.659 358.863 656.893 360.87 656.837 363.157C656.781 365.443 651.261 367.785 646.186 371.02C634.085 379.161 633.249 395.723 632.301 395.556C631.353 395.389 633.527 376.986 643.844 316.37C638.568 323.763 631.35 329.553 622.988 333.1C626.425 347.212 627.61 361.779 626.501 376.261C626.023 382.511 625.092 388.717 623.713 394.831C620.287 410.056 613.441 424.301 603.693 436.487C605.111 434.842 607.002 433.676 609.109 433.147C611.215 432.618 613.433 432.752 615.46 433.532C616.234 434.137 616.876 434.895 617.346 435.758C617.816 436.621 618.104 437.572 618.192 438.551C619.475 446.469 610.552 453.161 609.716 453.774C616.342 453.925 622.971 453.682 629.568 453.049C653.937 450.707 666.206 449.815 673.901 441.339C681.597 432.863 676.187 426.951 687.508 408.438C694.59 396.839 699.162 395.11 702.118 394.887C704.892 394.715 707.66 395.318 710.112 396.627C712.564 397.937 714.603 399.902 716.003 402.303C721.58 414.181 699.887 427.732 704.85 442.175C706.456 445.985 709.183 449.215 712.67 451.437C716.157 453.658 720.237 454.765 724.368 454.611C729.108 454.611 736.581 451.544 737.863 445.633C738.138 444.181 738.122 442.689 737.816 441.243C737.51 439.798 736.919 438.428 736.079 437.212ZM661.577 430.353C660.406 438.829 646.13 445.911 637.543 441.506C631.966 438.829 628.955 431.691 630.516 429.851C632.078 428.011 634.531 431.134 639.662 431.022C649.588 431.022 654.495 420.706 658.845 422.658C661.187 423.829 661.967 427.955 661.577 430.353ZM675.295 416.802C673.511 423.215 669.719 430.13 667.432 429.74C665.146 429.349 666.652 418.587 661.856 415.352C653.547 409.776 636.539 429.182 630.572 425C624.605 420.817 629.735 396.448 646.242 385.964C648.082 384.793 659.57 377.265 668.548 381.838C679.254 387.414 678.083 406.932 675.295 416.802Z" fill="#ECECEC"/>
<path d="M1195.8 1360.01C1194.8 1355.77 1193.91 1352.37 1193.24 1350.02C1195.9 1377.45 1196.68 1405.02 1195.58 1432.56C1194.69 1455.25 1191.68 1497.63 1188.44 1497.47C1182.87 1497.47 1191.45 1384.6 1166.69 1308.31C1151.41 1261.25 1128.22 1242.51 1111.38 1233.98C1120.15 1242.99 1125.34 1254.88 1125.99 1267.44C1125.99 1285.89 1111.6 1294.15 1099.89 1312.89C1070.16 1360.34 1068.1 1456.53 1065.7 1455.42C1063.31 1454.3 1068.72 1347.74 1094.14 995.528C1086.45 1020.68 1069.55 1068.47 1042.9 1094.12C1051.35 1177.48 1054.22 1261.32 1051.48 1345.06C1049.59 1403 1045.46 1443.76 1044.62 1453.02C1037.33 1535.27 1020.85 1616.45 995.496 1695.04C1005.92 1671.95 1017.8 1665.43 1025.11 1676.41C1030.4 1684.61 1031.46 1700.45 1031.8 1705.69C1033.06 1736.46 1025.87 1767 1011 1793.97C1027.36 1794.88 1043.77 1793.47 1059.74 1789.78C1114.83 1777.18 1144.11 1770.43 1168.53 1721.92C1211.03 1637.1 1220.4 1462.56 1195.8 1360.01ZM1138.25 1658.68C1135.41 1707.75 1100.33 1748.8 1079.2 1724.15C1065.98 1708.65 1058.23 1667.1 1062.08 1656.34C1064.98 1648.37 1071.95 1663.76 1084.38 1663.14C1108.64 1662.03 1120.69 1603.2 1131.39 1614.52C1137.58 1620.65 1139.15 1643.63 1138.25 1658.68ZM1171.71 1581C1167.36 1618.53 1158.44 1658.63 1152.42 1656.28C1145.22 1653.5 1150.58 1592.77 1138.03 1572.64C1117.73 1540.18 1076.02 1653.22 1061.35 1628.74C1047.58 1605.71 1059.18 1462.78 1099.78 1400.1C1104.24 1393.19 1132.57 1349.63 1154.48 1376.18C1181.64 1408.97 1178.74 1522.62 1171.88 1581H1171.71Z" fill="#ECECEC"/>
<path d="M803.332 682.184C798.539 680.96 793.528 680.862 788.691 681.897C783.854 682.933 779.322 685.073 775.449 688.151C770.785 691.982 767.256 697.015 765.244 702.705C763.732 698.794 763.614 694.481 764.91 690.493C769.594 678.113 792.792 672.369 811.139 675.213C824.466 677.277 830.6 682.797 841.196 679.228C841.809 679.228 852.683 675.213 852.349 668.968C852.139 667.536 851.615 666.169 850.815 664.964C850.014 663.759 848.958 662.746 847.72 661.997C849.289 662.139 850.805 662.64 852.149 663.462C853.493 664.284 854.63 665.405 855.472 666.737C857.535 671.533 850.955 675.604 848.836 685.976C846.716 696.348 851.289 698.021 848.836 704.601C844.988 714.249 833.835 713.524 833.166 718.71C831.939 728.97 874.71 735.439 878.614 756.072C879.364 761.735 877.994 767.475 874.766 772.188C876.183 768.019 876.395 763.535 875.379 759.251C872.312 747.206 858.65 740.346 856.977 742.187C855.304 744.027 857.535 751.332 865.509 763.433C868.356 769.299 869.329 775.899 868.297 782.337C866.346 794.773 845.992 806.372 818.834 806.929C822.738 806.539 838.463 804.476 846.047 791.65C847.776 788.694 849.895 785.07 848.612 783.062C843.538 775.367 799.93 812.617 768.2 797.171C759.501 792.988 747.009 782.951 747.567 772.857C747.554 770.691 748.052 768.552 749.021 766.614C749.99 764.676 751.402 762.994 753.143 761.704C754.865 760.835 756.803 760.486 758.72 760.701C757.292 761.906 756.133 763.397 755.317 765.078C754.5 766.759 754.045 768.592 753.98 770.459C754.38 773.311 755.608 775.982 757.511 778.143C759.414 780.304 761.909 781.859 764.687 782.616C777.624 786.241 788.108 770.961 802.439 775.813C804.081 776.38 805.638 777.168 807.068 778.155C804.327 777.912 801.567 778.287 798.99 779.252C796.413 780.217 794.086 781.748 792.179 783.731C789.948 786.575 788.108 791.371 789.613 793.211C795.19 799.68 850.174 775.869 847.943 752.726C846.661 739.51 826.864 728.58 811.306 727.353C800.863 727.016 790.526 729.542 781.416 734.658C777.169 736.905 773.186 739.617 769.538 742.744C771.51 739.28 773.908 736.077 776.676 733.209C797.365 711.906 830.935 719.546 833.612 708.728C834.616 704.769 830.935 700.754 828.035 697.91C816.882 685.92 795.469 689.378 783.089 694.787C780.998 695.696 778.967 696.739 777.011 697.91C779.044 694.433 781.711 691.369 784.873 688.876C790.33 685.059 796.697 682.75 803.332 682.184Z" fill="#ECECEC"/>
<path d="M1011.39 653.58C1009.26 660.151 1005.26 665.962 999.898 670.309C991.589 676.778 981.272 677.893 981.495 679.12C981.718 680.347 986.347 680.124 990.306 679.566C1003.62 677.251 1016.01 671.22 1026.05 662.168C1023 665.867 1019.6 669.266 1015.9 672.317C1009.32 677.987 1001.76 682.41 993.596 685.366C975.417 690.942 968.391 681.072 947.256 685.979C940.579 686.771 934.24 689.353 928.909 693.452C917.31 703.824 921.381 720.107 919.039 765.946C917.645 793.326 915.414 800.576 909.503 804.423C901.361 810 886.64 806.041 883.461 798.847C880.282 791.653 887.811 775.147 888.48 773.809C889.928 771.132 890.53 768.08 890.209 765.054C889.686 762.268 888.278 759.725 886.193 757.804C888.202 758.521 889.963 759.798 891.268 761.485C897.569 770.017 885.19 784.515 890.543 791.207C892.371 792.981 894.751 794.075 897.287 794.308C899.824 794.542 902.363 793.9 904.484 792.49C910.563 787.248 904.93 770.184 898.908 752.73C893.777 737.339 890.655 733.602 891.993 726.464C893.833 716.427 902.588 709.735 909.336 705.553C904.101 709.168 900.496 714.696 899.298 720.944C898.35 727.189 900.023 735.331 903.09 735.889C906.157 736.446 913.908 726.911 914.745 716.594C915.86 703.545 907.44 698.582 906.715 686.202C906.715 680.626 908.388 673.432 918.37 663.896C914.299 674.046 915.08 677.28 916.474 678.395C919.875 681.239 927.627 671.536 942.349 668.971C956.234 666.517 961.197 672.875 970.677 669.417C976.253 667.41 983.28 662.112 988.8 646.052C988.455 652.406 986.539 658.576 983.224 664.008C979.376 670.142 975.082 672.763 975.863 674.046C976.644 675.328 987.351 672.819 995.771 667.577C1001.85 663.984 1007.15 659.227 1011.39 653.58Z" fill="#ECECEC"/>
<path d="M621.426 880.097C620.333 890.736 615.924 900.763 608.823 908.76C599.35 918.399 586.626 924.164 573.134 924.932C558.189 924.932 552.278 917.794 546.645 922.311C540.065 927.608 540.567 943.669 541.85 951.81C543.578 966.867 544.471 974.395 542.296 977.072C537.054 983.485 522.109 984.042 514.413 976.235C511.854 973.586 510.112 970.256 509.395 966.644C512.157 970.672 516.375 973.471 521.161 974.451C523.225 974.896 525.357 974.928 527.434 974.545C529.511 974.162 531.492 973.372 533.262 972.22C538.281 968.372 537.165 961.904 536.831 936.698C536.831 921.251 536.831 915.619 534.433 914.838C531.031 913.779 525.455 923.036 524.73 924.151C520.457 930.766 518.496 938.61 519.153 946.457C517.696 941.842 516.999 937.02 517.09 932.181C517.48 907.422 538.615 895.153 533.318 882.606C532.35 880.239 530.697 878.215 528.571 876.794C526.444 875.373 523.941 874.62 521.384 874.632C518.496 875.182 515.908 876.765 514.102 879.084C512.296 881.403 511.395 884.3 511.569 887.235C511.157 886.469 510.874 885.64 510.733 884.781C508.781 872.959 530.752 852.382 551.497 853.107C569.063 853.72 579.993 864.594 586.461 858.683C588.071 856.841 589.134 854.585 589.528 852.171C589.922 849.756 589.632 847.279 588.692 845.021C587.17 841.487 584.329 838.686 580.773 837.214C583.668 837.436 586.475 838.309 588.985 839.767C591.496 841.225 593.645 843.23 595.272 845.634C598.283 851.211 594.938 855.17 597.67 863.646C599.454 869.223 603.804 876.695 608.21 876.472C612.615 876.249 616.407 869.111 617.522 859.074C618.216 866.323 617.38 873.637 615.069 880.543C610.663 893.536 601.295 902.849 602.577 903.853C603.86 904.856 606.648 902.012 607.54 901.287C614.279 895.857 619.137 888.443 621.426 880.097ZM581.944 887.123C573.691 896.547 564.713 894.819 550.939 906.641C548.987 908.314 543.076 913.388 544.136 915.34C545.195 917.292 551.72 914.002 560.865 913.723C575.42 913.333 579.77 920.638 585.625 918.128C597.893 912.552 594.157 873.015 589.696 872.513C587.967 872.29 588.692 879.651 581.944 887.123ZM542.407 903.072C544.582 905.86 558.579 898.276 568.003 890.748C573.58 886.398 578.654 882.104 577.706 877.922C576.939 876.087 575.632 874.529 573.959 873.453C572.286 872.378 570.326 871.836 568.338 871.899C562.371 871.899 557.91 878.089 549.266 890.469C543.969 897.942 541.348 901.957 542.407 903.072ZM572.018 865.04C571.516 863.312 548.709 863.2 541.85 876.193C538.169 883.052 539.898 892.086 542.24 892.923C544.582 893.759 546.757 882.829 557.687 873.795C562.194 870.457 566.99 867.527 572.018 865.04Z" fill="#ECECEC"/>
<path d="M455.077 1236.99C453.683 1267.44 448.553 1335.08 425.968 1393.47C423.96 1398.6 391.617 1479.68 343.548 1481.91C309.029 1483.47 295.423 1442.87 282.207 1467.8C267.039 1496.63 268.154 1584.52 271.054 1629.07C275.124 1711.27 277.132 1752.37 272.113 1766.98C260.068 1802.11 225.494 1805.12 207.426 1762.46C201.01 1745.62 197.12 1727.91 195.883 1709.93C197.556 1716.12 206.478 1746.79 223.263 1753.98C226.553 1755.43 240.885 1760.56 251.146 1741.83C262.689 1720.75 260.235 1685.39 259.399 1547.66C258.897 1463.06 259.399 1432.33 253.822 1428.15C245.959 1422.3 233.134 1472.76 231.516 1479.01C221.487 1518.51 217.15 1559.24 218.635 1599.96C215.266 1574.08 213.664 1547.99 213.839 1521.89C214.787 1386.77 263.637 1319.47 251.369 1250.88C246.796 1225.34 234.639 1204.2 223.765 1207.49C211.274 1211.23 200.79 1240.39 201.125 1276.36C200.186 1271.91 199.571 1267.4 199.284 1262.87C194.712 1198.23 245.458 1085.65 293.304 1089.72C333.845 1093.12 359.162 1152.62 374.107 1120.72C381.356 1105.16 383.475 1071.93 379.181 1046.05C374.553 1018.17 363.679 1006.29 361.002 1003.62C382.304 1013.65 390.669 1033.67 394.461 1049.45C401.487 1079.29 393.792 1101.59 400.037 1147.82C404.052 1177.49 414.201 1219.37 424.406 1218.03C434.611 1216.69 443.199 1177.71 445.82 1122.9C447.501 1162.15 445.635 1201.47 440.244 1240.39C430.039 1311.32 408.458 1361.29 411.413 1367.76C413.03 1371.38 420.726 1357.55 422.566 1353.82C442.195 1319.13 451.006 1270 455.077 1236.99ZM363.958 1275.24C344.942 1326.77 324.086 1317.4 292.356 1381.92C287.783 1391.18 274.232 1418.78 276.63 1429.49C279.028 1440.2 294.196 1422.18 315.665 1420.74C349.124 1418.5 359.329 1458.54 372.768 1444.83C401.153 1415.72 392.565 1198.23 382.248 1195.39C377.843 1194.16 379.46 1233.31 363.958 1275.24ZM272.671 1362.46C277.69 1377.63 309.977 1336.14 331.726 1295.04C344.328 1271.23 356.318 1247.98 354.031 1225C352.247 1206.71 341.819 1192.1 332.339 1192.1C318.621 1192.1 308.304 1225.89 288.285 1293.48C276.24 1334.52 270.217 1355.04 272.671 1362.46ZM340.982 1154.51C339.811 1145.03 287.17 1144.53 271.332 1214.13C262.856 1251.54 266.815 1301.01 272.169 1304.13C278.359 1307.7 282.708 1248.7 307.97 1199.41C326.149 1164.05 341.652 1159.76 340.982 1154.51Z" fill="#ECECEC"/>
<path d="M832.994 979.414C850.281 975.064 863.665 963.409 867.178 948.632C868.294 943.691 868.401 938.575 867.49 933.592C866.58 928.609 864.672 923.861 861.88 919.634C859.419 915.941 855.655 913.312 851.341 912.273C847.218 911.623 843.001 912.538 839.519 914.838C842.578 910.983 846.804 908.225 851.564 906.975C859.371 905.247 864.334 909.596 868.628 906.641C870.914 905.079 871.193 902.681 872.476 892.755C873.216 883.912 874.595 875.134 876.602 866.49C877.701 860.5 880.355 854.904 884.298 850.263C888.073 846.582 892.748 843.955 897.855 842.644C902.963 841.333 908.325 841.383 913.407 842.79C916.177 843.346 918.731 844.681 920.768 846.638C915.893 845.479 910.886 844.973 905.879 845.132C898.406 846.08 890.153 850.709 890.264 855.393C890.436 856.892 891.174 858.268 892.328 859.241C898.35 864.817 912.18 858.348 919.262 855.783C921.169 855.058 923.031 854.22 924.839 853.274C934.653 848.088 944.356 844.63 953.223 847.697C955.748 848.579 958.077 849.942 960.082 851.712C954.315 849.993 948.195 849.839 942.349 851.266C936.83 852.676 931.775 855.502 927.683 859.464C924.893 861.505 922.917 864.468 922.106 867.828C921.822 869.389 921.874 870.992 922.259 872.53C922.644 874.069 923.352 875.508 924.337 876.751C927.842 881.493 931.801 885.882 936.159 889.856C943.787 896.898 949.129 906.067 951.494 916.176C953.725 935.36 928.463 944.059 929.523 966.365C929.877 971.819 931.562 977.103 934.43 981.756C930.403 979.418 927.132 975.973 925.006 971.83C922.638 966.098 921.979 959.804 923.11 953.706C923.779 947.182 923.891 940.546 924.114 934.021C924.114 931.4 923.723 931.01 921.437 931.958C918.375 933.319 915.012 933.857 911.678 933.519C906.102 933.017 904.261 927.943 896.677 924.43C889.093 920.916 876.825 920.972 873.591 925.991C871.918 928.612 873.591 930.731 874.148 937.757C874.905 944.831 873.809 951.979 870.97 958.502C866.564 966.104 859.55 971.85 851.229 974.674C845.457 977.258 839.294 978.86 832.994 979.414ZM875.375 916.065C878.164 917.069 881.956 912.384 884.13 910.488C895.283 899.336 914.02 908.76 920.043 901.176C926.065 893.592 916.362 866.713 903.313 864.817C886.584 862.308 870.412 901.845 872.81 912.217C872.977 913.109 873.591 915.451 875.487 916.065H875.375ZM929.3 943.947C930.527 944.282 932.813 941.215 937.441 935.081C943.799 926.549 944.412 923.928 944.691 922.422C945.193 919.02 944.691 913.444 942.014 912.217C939.337 910.99 935.044 915.005 934.319 915.73C931.729 918.504 930.004 921.973 929.356 925.712C927.738 932.571 926.623 943.278 929.3 944.115V943.947ZM915.08 907.979C908.834 907.979 903.927 914.336 904.763 918.017C906.157 923.593 921.493 925.712 924.058 921.363C924.407 919.9 924.447 918.381 924.175 916.903C923.904 915.424 923.328 914.018 922.483 912.775C921.638 911.531 920.544 910.477 919.269 909.68C917.994 908.884 916.568 908.361 915.08 908.146V907.979Z" fill="#ECECEC"/>
<path d="M999.012 844.296C995.891 849.569 993.383 855.182 991.539 861.025C984.736 882.383 989.42 910.6 1002.3 915.674C1005.8 916.629 1009.45 916.932 1013.06 916.567C1019.2 917.049 1025.36 916.035 1031.02 913.611C1038.16 909.485 1037.94 900.451 1041.17 891.305C1047.69 873.07 1062.47 852.27 1082.44 844.965C1092.8 841.32 1103.98 840.606 1114.72 842.902C1106.8 844.073 1085.22 847.865 1084.78 854.779C1084.44 859.966 1095.93 867.326 1104.96 865.263C1111.04 863.869 1112.66 858.962 1120.52 852.326C1126.28 847.457 1132.87 843.678 1139.98 841.173C1128.01 851.241 1118.34 863.776 1111.66 877.922C1105.68 891.116 1102.17 905.289 1101.28 919.745C1099 939.486 1096.27 962.907 1108.14 970.547C1111.79 972.689 1116.06 973.534 1120.24 972.945C1117.86 974.444 1115.2 975.445 1112.42 975.886C1109.64 976.326 1106.8 976.199 1104.07 975.51C1094.48 972.108 1093.98 959.561 1085.89 958.781C1083.16 958.464 1080.42 959.165 1078.17 960.75C1075.93 962.335 1074.35 964.691 1073.74 967.368C1073.86 969.359 1074.54 971.275 1075.7 972.894C1076.87 974.513 1078.47 975.768 1080.32 976.514C1075.91 977.084 1071.43 976.857 1067.1 975.845C1061.49 974.357 1056.23 971.779 1051.62 968.258C1047.01 964.737 1043.13 960.342 1040.22 955.323C1033.47 942.776 1038.94 936.029 1032.19 929.448C1028.38 926.485 1023.8 924.683 1018.99 924.258C1014.19 923.832 1009.36 924.802 1005.09 927.05C988.361 935.582 984.234 964.078 993.937 972.61C996.014 974.105 998.406 975.104 1000.93 975.529C1003.45 975.954 1006.04 975.795 1008.49 975.064C1003.7 979.581 997.84 983.54 992.766 982.034C984.68 979.637 983.453 964.747 979.55 964.97C977.598 964.97 975.367 968.651 973.081 981.7C971.391 979.468 970.202 976.898 969.596 974.165C968.989 971.432 968.98 968.6 969.568 965.863C971.575 960.007 976.984 960.286 980.721 953.26C985.293 945.174 983.844 933.742 979.382 931.4C977.486 930.396 976.204 931.4 971.854 931.735C967.575 932.202 963.262 931.241 959.586 929.002C971.798 927.943 977.208 923.426 979.884 920.136C989.978 907.254 976.483 888.629 984.568 865.654C987.544 857.45 992.506 850.112 999.012 844.296ZM1096.49 897.049C1093.92 896.324 1090.91 907.421 1081.77 908.202C1079.31 908.425 1076.84 907.962 1074.63 906.864C1077.6 905.755 1080.28 903.984 1082.46 901.684C1084.65 899.384 1086.28 896.617 1087.23 893.592C1088.26 889.853 1088.13 885.892 1086.88 882.223C1085.63 878.554 1083.3 875.346 1080.2 873.014C1073.12 868.274 1063.48 871.23 1057.9 874.353C1033.7 889.298 1039.55 956.606 1057.9 962.517C1069.78 966.309 1085.78 944.282 1087.01 942.442C1101.51 922.868 1099.95 898.053 1096.49 897.049Z" fill="#ECECEC"/>
<path d="M272.001 747.54C271.369 745.568 270.866 743.556 270.496 741.518C270.164 737.784 270.662 734.023 271.954 730.504C273.246 726.985 275.299 723.796 277.968 721.163C282.464 716.541 287.5 712.478 292.969 709.063C301.501 703.096 303.62 701.311 304.624 697.91C306.074 692.723 303.899 685.864 300.107 684.638C296.315 683.411 293.861 686.478 289.4 690.214C286.251 692.963 283.476 696.112 281.147 699.583C284.439 692.186 289.683 685.824 296.315 681.18C309.364 672.369 327.933 670.752 340.202 678.838C352.47 686.924 353.864 700.809 357.656 699.806C361.448 698.802 362.507 689.155 358.269 681.794C356.705 679.138 354.457 676.952 351.759 675.461C349.062 673.97 346.015 673.23 342.934 673.317C348.847 672.549 354.83 674.065 359.663 677.555C369.757 685.53 370.091 703.151 364.403 714.36C358.715 725.569 347.339 726.907 347.674 733.989C347.674 743.915 369.311 746.927 369.98 758.303C369.87 764.187 368.258 769.946 365.296 775.032C364.459 776.426 363.344 777.988 363.902 778.768C364.459 779.549 369.478 778.768 371.541 777.374C377.077 774.459 381.33 769.589 383.475 763.712C381.503 771.539 377.941 778.876 373.009 785.265C368.078 791.655 361.884 796.96 354.812 800.851C339.755 808.491 321.911 808.379 315.052 804.532C314.438 804.197 312.263 803.305 309.475 802.245C305.291 801.084 300.841 801.339 296.817 802.97C289.459 804.486 281.869 804.486 274.511 802.97C266.416 801.27 259.152 796.84 253.934 790.423C257.518 793.989 262.051 796.451 266.993 797.518C271.935 798.586 277.079 798.214 281.816 796.446C294.475 790.869 300.274 774.474 296.147 766.779C293.973 762.764 290.181 763.322 285.831 758.191C282.059 753.167 280.094 747.017 280.255 740.737C282.095 748.99 285.831 755.236 290.069 755.403C295.646 755.403 300.33 745.087 300.33 736.499C300.33 735.216 300.33 724.398 293.917 721.498C287.504 718.598 279.362 725.067 275.515 731.034C272.447 735.955 271.203 741.796 272.001 747.54ZM359.719 761.426C358.325 750.886 332.394 736.276 315.107 749.492C301.501 760.087 301.055 782.56 308.973 788.918C321.465 798.732 361.615 775.59 359.719 761.426ZM312.263 737.391C323.416 744.362 354.589 725.903 352.637 708.17C351.299 696.181 334.681 683.968 322.691 687.983C314.717 690.66 311.538 699.527 309.475 704.044C305.293 715.252 304.679 732.595 312.263 737.391Z" fill="#ECECEC"/>
<path d="M425.412 445.856C422.736 443.57 414.259 446.47 412.81 451.098C412.308 453.05 412.81 455.671 414.427 456.117C416.044 456.563 418.888 451.935 420.003 452.381C421.118 452.827 420.784 457.957 417.159 472.512C427.308 453.663 427.531 447.641 425.412 445.856Z" fill="#ECECEC"/>
<path d="M1152.2 796.617C1149.52 794.33 1141.04 797.286 1139.65 801.859C1139.09 803.81 1139.65 806.431 1141.21 806.877C1142.77 807.324 1145.67 802.695 1146.79 803.141C1147.9 803.587 1147.57 808.718 1144 823.272C1154.31 804.424 1154.31 798.401 1152.2 796.617Z" fill="#ECECEC"/>
<path d="M192.069 213.517L195.222 208.455H196.381V215H195.376V209.938L192.239 215H191.063V208.455H192.069V213.517ZM197.333 209.392V208.455H202.651V209.392H200.503V215H199.497V209.392H197.333ZM206.522 215.136C205.892 215.136 205.347 214.997 204.89 214.719C204.436 214.438 204.085 214.045 203.838 213.543C203.593 213.037 203.471 212.449 203.471 211.778C203.471 211.108 203.593 210.517 203.838 210.006C204.085 209.491 204.428 209.091 204.869 208.804C205.312 208.514 205.829 208.369 206.42 208.369C206.761 208.369 207.097 208.426 207.43 208.54C207.762 208.653 208.065 208.838 208.338 209.094C208.61 209.347 208.828 209.682 208.99 210.099C209.151 210.517 209.232 211.031 209.232 211.642V212.068H204.187V211.199H208.21C208.21 210.83 208.136 210.5 207.988 210.21C207.843 209.92 207.636 209.692 207.366 209.524C207.099 209.357 206.784 209.273 206.42 209.273C206.019 209.273 205.673 209.372 205.38 209.571C205.09 209.767 204.867 210.023 204.711 210.338C204.555 210.653 204.477 210.991 204.477 211.352V211.932C204.477 212.426 204.562 212.845 204.732 213.189C204.906 213.53 205.146 213.79 205.453 213.969C205.759 214.145 206.116 214.233 206.522 214.233C206.786 214.233 207.025 214.196 207.238 214.122C207.454 214.045 207.64 213.932 207.796 213.781C207.953 213.628 208.073 213.437 208.159 213.21L209.13 213.483C209.028 213.812 208.856 214.102 208.615 214.352C208.373 214.599 208.075 214.793 207.72 214.932C207.365 215.068 206.965 215.136 206.522 215.136ZM216.796 215.136C216.183 215.136 215.654 214.991 215.211 214.702C214.768 214.412 214.427 214.013 214.188 213.504C213.95 212.996 213.83 212.415 213.83 211.761C213.83 211.097 213.953 210.51 214.197 210.001C214.444 209.49 214.788 209.091 215.228 208.804C215.671 208.514 216.188 208.369 216.779 208.369C217.24 208.369 217.654 208.455 218.024 208.625C218.393 208.795 218.695 209.034 218.931 209.341C219.167 209.648 219.313 210.006 219.37 210.415H218.365C218.288 210.116 218.117 209.852 217.853 209.622C217.592 209.389 217.24 209.273 216.796 209.273C216.404 209.273 216.061 209.375 215.765 209.58C215.472 209.781 215.244 210.067 215.079 210.436C214.917 210.803 214.836 211.233 214.836 211.727C214.836 212.233 214.916 212.673 215.075 213.048C215.237 213.423 215.464 213.714 215.757 213.922C216.052 214.129 216.399 214.233 216.796 214.233C217.058 214.233 217.295 214.188 217.508 214.097C217.721 214.006 217.901 213.875 218.049 213.705C218.197 213.534 218.302 213.33 218.365 213.091H219.37C219.313 213.477 219.173 213.825 218.948 214.135C218.727 214.442 218.433 214.686 218.066 214.868C217.703 215.047 217.279 215.136 216.796 215.136ZM220.84 215V208.455H223.517C224.221 208.455 224.781 208.614 225.195 208.932C225.61 209.25 225.818 209.67 225.818 210.193C225.818 210.591 225.7 210.899 225.464 211.118C225.228 211.334 224.926 211.48 224.556 211.557C224.798 211.591 225.032 211.676 225.259 211.812C225.49 211.949 225.68 212.136 225.83 212.375C225.981 212.611 226.056 212.901 226.056 213.244C226.056 213.58 225.971 213.879 225.801 214.143C225.63 214.408 225.386 214.616 225.068 214.77C224.749 214.923 224.369 215 223.926 215H220.84ZM221.795 214.08H223.926C224.272 214.08 224.544 213.997 224.74 213.832C224.936 213.668 225.034 213.443 225.034 213.159C225.034 212.821 224.936 212.555 224.74 212.362C224.544 212.166 224.272 212.068 223.926 212.068H221.795V214.08ZM221.795 211.199H223.517C223.786 211.199 224.018 211.162 224.211 211.088C224.404 211.011 224.552 210.903 224.654 210.764C224.759 210.622 224.812 210.455 224.812 210.261C224.812 209.986 224.697 209.77 224.467 209.614C224.237 209.455 223.92 209.375 223.517 209.375H221.795V211.199ZM230.238 215.136C229.647 215.136 229.128 214.996 228.682 214.714C228.239 214.433 227.893 214.04 227.643 213.534C227.395 213.028 227.272 212.437 227.272 211.761C227.272 211.08 227.395 210.484 227.643 209.976C227.893 209.467 228.239 209.072 228.682 208.791C229.128 208.51 229.647 208.369 230.238 208.369C230.829 208.369 231.346 208.51 231.789 208.791C232.235 209.072 232.581 209.467 232.829 209.976C233.079 210.484 233.204 211.08 233.204 211.761C233.204 212.437 233.079 213.028 232.829 213.534C232.581 214.04 232.235 214.433 231.789 214.714C231.346 214.996 230.829 215.136 230.238 215.136ZM230.238 214.233C230.687 214.233 231.056 214.118 231.346 213.888C231.635 213.658 231.85 213.355 231.989 212.98C232.128 212.605 232.198 212.199 232.198 211.761C232.198 211.324 232.128 210.916 231.989 210.538C231.85 210.161 231.635 209.855 231.346 209.622C231.056 209.389 230.687 209.273 230.238 209.273C229.789 209.273 229.42 209.389 229.13 209.622C228.84 209.855 228.626 210.161 228.486 210.538C228.347 210.916 228.278 211.324 228.278 211.761C228.278 212.199 228.347 212.605 228.486 212.98C228.626 213.355 228.84 213.658 229.13 213.888C229.42 214.118 229.789 214.233 230.238 214.233ZM237.483 215.136C236.852 215.136 236.308 214.997 235.851 214.719C235.396 214.438 235.046 214.045 234.798 213.543C234.554 213.037 234.432 212.449 234.432 211.778C234.432 211.108 234.554 210.517 234.798 210.006C235.046 209.491 235.389 209.091 235.83 208.804C236.273 208.514 236.79 208.369 237.381 208.369C237.722 208.369 238.058 208.426 238.391 208.54C238.723 208.653 239.026 208.838 239.298 209.094C239.571 209.347 239.789 209.682 239.95 210.099C240.112 210.517 240.193 211.031 240.193 211.642V212.068H235.148V211.199H239.171C239.171 210.83 239.097 210.5 238.949 210.21C238.804 209.92 238.597 209.692 238.327 209.524C238.06 209.357 237.744 209.273 237.381 209.273C236.98 209.273 236.634 209.372 236.341 209.571C236.051 209.767 235.828 210.023 235.672 210.338C235.516 210.653 235.438 210.991 235.438 211.352V211.932C235.438 212.426 235.523 212.845 235.693 213.189C235.867 213.53 236.107 213.79 236.414 213.969C236.72 214.145 237.077 214.233 237.483 214.233C237.747 214.233 237.986 214.196 238.199 214.122C238.415 214.045 238.601 213.932 238.757 213.781C238.914 213.628 239.034 213.437 239.119 213.21L240.091 213.483C239.989 213.812 239.817 214.102 239.575 214.352C239.334 214.599 239.036 214.793 238.681 214.932C238.325 215.068 237.926 215.136 237.483 215.136Z" fill="#141414"/>
<path d="M660.462 544.726C660.462 544.726 673.901 541.938 676.633 537.532C678.027 530.841 661.242 518.07 644.457 519.018C638.375 518.685 632.393 520.679 627.728 524.595C614.456 538.146 636.427 569.207 629.456 610.863C628.731 615.212 627.059 625.529 619.475 629.656C618.032 630.436 616.467 630.964 614.846 631.217C617.976 627.884 620.219 623.819 621.371 619.395C622.895 615.163 622.715 610.504 620.869 606.402C618.861 603.112 616.24 602.888 613.285 598.706C611.593 596.33 610.398 593.636 609.771 590.788C611.277 592.405 615.348 596.364 617.802 595.249C618.299 594.988 618.735 594.624 619.081 594.182C619.427 593.74 619.676 593.229 619.809 592.684C623.322 583.259 610.273 542.495 619.53 526.156C622.387 521.416 626.498 517.557 631.408 515.003C652.989 501.843 674.18 517.234 693.697 504.854C699.185 501.255 703.628 496.273 706.579 490.411C706.331 493.736 705.733 497.026 704.794 500.226C701.449 511.602 696.039 513.777 697.043 518.293C698.772 525.599 713.773 523.87 718.513 533.573C719.32 535.419 719.737 537.413 719.737 539.428C719.737 541.444 719.32 543.437 718.513 545.284C717.397 536.863 712.323 531.231 707.694 531.175C703.066 531.119 697.545 537.532 697.099 543.555C696.207 555.6 713.828 561.623 713.326 575.898C713.225 578.093 712.715 580.249 711.821 582.256C709.925 569.43 708.085 566.307 706.579 566.251C701.002 566.251 688.79 612.759 702.508 621.347C707.36 624.358 714.498 621.96 719.238 619.562C706.3 631.44 700.222 632.667 696.932 630.715C692.471 628.261 691.355 618.224 689.961 599.487C689.6 593.188 687.388 587.136 683.604 582.088L682.823 581.252C679.885 578.578 676.41 576.564 672.631 575.342C668.851 574.121 664.854 573.721 660.908 574.17C660.908 574.17 683.214 573.166 685.779 565.972C688.344 558.779 680.871 549.243 673.232 545.841C669.182 544.202 664.734 543.813 660.462 544.726ZM658.398 516.397C658.398 517.401 670.22 516.397 679.199 524.595C683.437 528.666 684.775 532.904 687.173 532.513C689.571 532.123 692.08 525.989 690.463 521.974C686.392 511.992 658.51 514.948 658.398 516.397Z" fill="#ECECEC"/>
<path d="M979.717 437.545C976.315 440.5 968.564 447.192 963.433 444.905C954.511 441.058 966.723 417.358 962.206 377.151C959.474 352.838 952.001 334.324 962.987 321.777C965.125 319.343 967.721 317.354 970.627 315.922C966.559 315.516 962.463 316.332 958.861 318.264C940.849 328.748 961.649 364.939 945.812 405.424C936.387 429.347 917.149 447.248 909.174 444.794C903.598 442.954 898.3 428.566 896.571 420.313C896.571 419.811 896.571 419.365 896.571 419.142C890.605 389.587 905.717 367.56 897.519 344.641C895.801 340.047 893.556 335.668 890.828 331.592C886.308 325.571 880.847 320.317 874.656 316.033C878.281 320.012 881.443 324.39 884.08 329.082C899.806 357.578 895.233 400.015 870.474 416.019C867.01 418.209 863.256 419.898 859.321 421.038C862.767 421.711 866.331 421.441 869.637 420.257C873.596 418.752 874.489 416.577 876.329 416.856C880.901 417.525 886.199 431.745 880.455 437.991C876.831 441.95 871.031 440.11 862.053 445.965C860.057 447.293 858.19 448.805 856.477 450.482C868.497 447.903 880.927 447.903 892.947 450.482C903.207 452.768 909.118 456.783 918.375 454.832C924.91 453.096 930.836 449.583 935.495 444.682C947.038 434.143 950.719 422.377 952.726 423.046C953.619 423.046 953.228 425.778 953.117 429.236C953.005 432.693 952.392 448.642 958.693 452.936C963.879 456.56 973.471 452.936 979.215 449.367C999.903 435.816 997.617 401.409 996.781 401.242C995.944 401.074 996 423.269 979.717 437.545Z" fill="#ECECEC"/>
<path d="M1122.59 437.547C1119.13 440.503 1111.43 447.195 1106.25 444.908C1097.38 441.061 1109.54 417.361 1105.08 377.154C1102.34 352.841 1094.87 334.327 1105.8 321.78C1107.96 319.342 1110.57 317.353 1113.5 315.925C1109.43 315.512 1105.33 316.328 1101.73 318.267C1083.66 328.75 1104.52 364.942 1088.63 405.427C1079.26 429.35 1060.02 447.25 1052.04 444.797C1046.47 442.957 1041.17 428.569 1039.44 420.316L1039.16 419.145C1033.25 389.59 1048.31 367.563 1040.11 344.643C1038.39 340.049 1036.15 335.67 1033.42 331.594C1028.94 325.56 1023.49 320.303 1017.3 316.036C1020.93 320.004 1024.07 324.384 1026.67 329.085C1042.45 357.581 1037.82 400.018 1013.07 416.022C1009.61 418.232 1005.86 419.923 1001.91 421.041C1005.36 421.716 1008.92 421.447 1012.23 420.26C1016.24 418.755 1017.14 416.58 1018.98 416.859C1023.55 417.528 1028.85 431.748 1023.1 437.993C1019.42 441.953 1013.68 440.113 1004.64 445.968C1002.66 447.305 1000.79 448.817 999.068 450.485C1011.09 447.908 1023.52 447.908 1035.54 450.485C1045.8 452.771 1051.71 456.786 1060.91 454.834C1067.55 453.16 1073.58 449.642 1078.31 444.685C1089.91 434.146 1093.59 422.379 1095.6 423.049C1096.49 423.049 1096.1 425.781 1095.93 429.238C1095.76 432.696 1095.26 448.645 1101.51 452.938C1106.69 456.563 1116.29 452.938 1121.97 449.369C1142.72 435.819 1140.43 401.412 1139.54 401.245C1138.65 401.077 1138.81 423.272 1122.59 437.547Z" fill="#ECECEC"/>
<path d="M1059.51 323.393C1072.73 321.163 1078.7 305.326 1091.86 306.106C1095.62 306.45 1099.2 307.862 1102.17 310.177C1099.89 306.186 1096.39 303.023 1092.19 301.143C1086 298.891 1079.18 299.151 1073.18 301.868C1060.63 306.608 1059.85 315.363 1050.54 317.148C1047.43 317.526 1044.28 317.266 1041.28 316.384C1038.28 315.502 1035.49 314.016 1033.08 312.017C1045.52 323.17 1053.94 324.341 1059.51 323.393Z" fill="#ECECEC"/>
<path d="M968.172 569.205C966.707 570.715 964.913 571.868 962.931 572.574C960.949 573.279 958.831 573.52 956.741 573.276C950.83 571.492 949.324 562.848 949.157 562.123C948.649 558.007 949.244 553.829 950.88 550.018C952.516 546.207 955.135 542.898 958.469 540.431C962.261 537.866 965.83 537.643 969.009 533.349C970.488 531.385 971.516 529.119 972.02 526.713C970.695 528.897 968.873 530.737 966.703 532.084C964.532 533.431 962.074 534.246 959.529 534.464C952.781 534.464 949.38 523.757 946.313 515.114C944.068 508.583 942.754 501.768 942.409 494.871C942.308 500.308 941.407 505.701 939.732 510.876C938.501 514.615 936.894 518.221 934.937 521.638C937.141 520.771 939.592 520.771 941.796 521.638C948.543 524.761 949.77 538.869 945.811 548.628C940.234 562.904 922.055 570.209 918.821 567.031C917.873 566.083 917.761 563.796 920.549 558.052C918.025 561.405 915.083 564.422 911.794 567.031C905.27 572.161 902.537 571.324 901.701 570.934C890.883 566.138 908.56 514.5 892.667 504.797C888.852 502.452 884.428 501.288 879.953 501.451C875.838 501.78 871.787 502.662 867.908 504.072C882.128 500.894 887.76 505.634 889.098 506.916C897.63 515.058 895.065 536.304 885.864 549.576C879.172 559.279 869.134 565.413 870.027 576.288C870.128 578.04 870.485 579.769 871.086 581.418C871.276 575.928 873.596 570.728 877.555 566.919C879.116 565.581 883.577 561.343 887.927 563.016C890.079 564.276 891.777 566.184 892.778 568.468C893.78 570.751 894.034 573.293 893.504 575.73C891.942 584.373 881.124 584.82 873.596 595.582C869.83 601.22 867.759 607.819 867.629 614.598C868.447 611.86 869.609 609.237 871.086 606.791C873.596 602.553 876.997 596.865 882.239 596.586C883.793 596.541 885.335 596.873 886.733 597.553C888.131 598.232 889.344 599.24 890.269 600.489C894.228 605.731 891.608 614.319 887.258 619.115C884.698 621.678 881.46 623.458 877.925 624.248C874.389 625.038 870.702 624.805 867.294 623.576C864.135 622.342 861.306 620.389 859.031 617.873C856.757 615.356 855.099 612.345 854.189 609.077C854.564 613.513 856.132 617.764 858.728 621.38C861.324 624.995 864.851 627.841 868.934 629.613C873.017 631.386 877.504 632.02 881.918 631.448C886.332 630.876 890.509 629.119 894.005 626.364C899.136 621.103 901.982 614.028 901.924 606.679C902.482 596.474 897.909 592.905 900.474 585.266C902.382 580.189 906.122 576.011 910.958 573.555C918.207 569.652 933.264 570.098 938.84 577.682C940.625 580.024 940.402 581.529 940.959 594.801C941.852 615.434 942.688 618.892 944.974 622.684C949.77 629.933 958.581 633 959.362 631.996C960.142 630.993 954.956 627.981 951.778 621.736C949.593 616.96 948.533 611.748 948.678 606.498C948.823 601.249 950.169 596.103 952.614 591.455C958.748 580.024 966.221 580.804 972.857 567.923C975.751 562.247 977.35 556 977.541 549.632C977.018 557.11 973.669 564.108 968.172 569.205Z" fill="#ECECEC"/>
<path d="M468.016 643.264C468.709 639.565 470.684 636.228 473.593 633.84C475.633 632.54 477.926 631.689 480.32 631.343C482.713 630.997 485.154 631.164 487.478 631.832C483.31 629.736 479.609 626.819 476.596 623.256C473.584 619.694 471.322 615.56 469.947 611.101C468.572 606.643 468.113 601.953 468.595 597.313C469.078 592.672 470.493 588.177 472.756 584.098C471.362 586.161 469.522 589.116 467.18 592.63C458.536 607.352 456.919 613.82 453.127 613.988C449.335 614.155 446.157 607.407 445.153 605.232C444.149 603.058 441.807 596.868 444.539 577.35C445.161 569.094 447.297 561.022 450.841 553.539C453.573 548.52 457.031 542.386 462.719 541.884C464.708 542.01 466.646 542.575 468.391 543.54C470.136 544.504 471.646 545.843 472.812 547.46C472.08 544.79 470.819 542.293 469.105 540.119C467.39 537.944 465.256 536.136 462.83 534.802C457.254 532.237 452.681 535.136 448.61 531.846C446.837 530.036 445.592 527.774 445.012 525.307C444.432 522.839 444.539 520.26 445.32 517.849C446.365 514.06 448.647 510.729 451.803 508.385C454.96 506.042 458.809 504.822 462.739 504.918C466.668 505.014 470.453 506.421 473.491 508.916C476.529 511.411 478.645 514.85 479.504 518.686C480.568 516.366 480.862 513.767 480.34 511.269C478.333 502.681 464.615 497.83 453.964 499.503C449.769 500.052 445.79 501.685 442.42 504.243C436.23 509.206 429.873 520.47 434.111 582.982C435.505 603.392 435.45 610.028 430.375 614.88C421.676 623.133 399.983 622.798 389.109 611.98C370.595 593.187 399.76 558.223 379.183 517.738C375.596 510.51 370.828 503.933 365.075 498.276C340.873 475.357 306.243 478.145 291.019 479.372C271.446 480.989 246.407 482.996 228.786 503.295C219.306 514.677 213.683 528.775 212.726 543.557C266.26 550.081 304.18 579.135 307.972 611.645C309.366 624.025 306.745 645.104 292.581 654.64C267.654 671.76 232.745 637.186 212.893 651.015C186.293 669.473 217.131 753.845 217.577 753.734C218.023 753.622 189.695 678.675 215.57 658.934C236.258 643.264 272.505 676.834 298.157 658.042C312.99 646.889 317.34 623.914 313.994 607.519C308.418 580.863 281.651 566.643 284.272 563.186C286 560.844 298.77 565.863 309.031 574.729C316.943 582.166 323.393 591.017 328.047 600.827C325.813 594.062 323.015 587.495 319.682 581.198C291.8 539.709 226.667 553.65 219.863 531.735C215.458 517.459 239.158 499.168 241.835 497.105C255.553 486.509 269.048 485.394 292.023 483.498C311.708 481.825 347.788 478.814 361.338 497.83C363.005 500.406 364.388 503.154 365.465 506.027C366.19 507.756 375.503 530.898 367.528 541.493C363.569 547.07 358.941 546.066 351.97 554.319C349.485 557.235 347.386 560.459 345.724 563.911C351.301 555.323 358.773 551.197 363.067 552.758C363.852 553.107 364.553 553.622 365.12 554.266C365.688 554.911 366.11 555.671 366.357 556.494C367.863 561.29 361.506 565.416 358.383 571.829C356.934 575.262 356.187 578.95 356.187 582.676C356.187 586.401 356.934 590.09 358.383 593.522C357.753 588.907 358.51 584.21 360.558 580.027C362.565 576.012 367.138 569.878 369.815 570.77C372.491 571.662 371.432 579.748 371.265 597.704C371.265 613.764 371.265 621.739 372.213 623.579C383.365 640.978 435.227 612.426 453.573 633.282C461.994 642.818 458.313 652.8 472.979 669.808C478.373 676.041 484.715 681.386 491.772 685.645C474.931 668.079 466.009 651.015 468.016 643.264Z" fill="#ECECEC"/>
<path d="M1198.36 651.011C1178.51 637.237 1143.49 671.811 1118.68 654.692C1104.57 644.989 1101.95 624.077 1103.34 611.697C1107.08 579.186 1145.05 550.356 1198.59 543.608C1198.06 528.731 1192.39 514.498 1182.53 503.346C1162.17 481.71 1127.32 482.156 1091.35 482.658C1079.75 482.413 1068.15 483.122 1056.66 484.777C1033.95 488.481 1012.18 496.609 992.591 508.7C995.484 523.178 996.682 537.943 996.16 552.698C995.672 559.078 994.721 565.415 993.316 571.658C989.814 587.183 982.835 601.712 972.906 614.151C974.347 612.367 976.317 611.087 978.532 610.496C980.747 609.905 983.092 610.032 985.23 610.861C986.019 611.489 986.669 612.275 987.139 613.167C987.61 614.06 987.89 615.04 987.963 616.047C989.301 624.077 980.156 630.936 979.319 631.493C986.094 631.701 992.875 631.458 999.617 630.769C1022.48 628.594 1034.69 627.367 1044.84 618.891C1062.46 604.057 1066.37 573.387 1056 555.375C1055.55 554.65 1055.21 554.036 1054.94 553.646C1056.05 558.393 1056.37 563.293 1055.88 568.145C1055.55 572.104 1054.27 579.298 1052.93 579.298C1050.75 579.298 1054.21 559.501 1043.89 545.839C1038 538.91 1029.84 534.288 1020.86 532.79C1023.71 534.184 1027 536.192 1027 538.366C1027 540.541 1020.98 543.051 1016.12 546.341C1003.69 554.761 1003.13 571.714 1001.9 571.379C1000.68 571.045 1008.76 547.233 1009.77 515.614C1009.77 508.755 1009.77 508.477 1010.32 506.581C1017.18 486.728 1061.91 486.951 1109.08 487.119C1147.28 487.119 1159.27 491.134 1169.09 498.272C1172.1 500.446 1195.74 515.726 1191.39 531.061C1184.42 554.427 1111.43 540.764 1091.52 580.525C1088.2 587.044 1085.43 593.835 1083.26 600.823C1087.92 591.033 1094.37 582.201 1102.28 574.781C1112.54 565.914 1125.26 560.895 1127.04 563.237C1129.66 566.695 1102.73 580.915 1097.32 607.57C1093.97 623.965 1098.32 647.219 1113.15 658.093C1138.81 676.886 1175.05 643.316 1195.69 658.985C1221.73 678.615 1193.29 753.785 1193.73 753.785C1194.18 753.785 1224.96 669.413 1198.36 651.011ZM1032.35 607.905C1031.18 616.493 1016.57 623.686 1007.81 619.393C1002.24 616.66 999.06 609.355 1000.68 607.459C1002.29 605.563 1004.8 608.741 1009.99 608.686C1020.08 608.686 1025.1 598.146 1029.56 600.154C1031.96 601.157 1032.74 605.173 1032.35 607.849V607.905ZM1016.4 562.513C1018.3 561.286 1030.07 553.646 1039.15 558.33C1050.31 563.907 1049.19 583.982 1046.35 594.243C1044.51 600.823 1040.77 607.849 1038.32 607.459C1035.86 607.069 1037.54 596.306 1032.3 592.793C1023.88 587.216 1006.53 606.901 1000.45 602.607C994.376 598.313 999.562 573.442 1016.4 562.457V562.513Z" fill="#ECECEC"/>
</svg>
