<svg width="1400" height="2000" viewBox="0 0 1400 2000" fill="none" xmlns="http://www.w3.org/2000/svg">
<rect width="1399.32" height="2000" fill="#141414"/>
<path d="M694.587 225.832C689.75 222.464 683.984 220.688 678.09 220.752C665.299 221.23 661.653 231.989 647.786 232.706C639.597 233.065 637.804 229.478 631.289 231.57C628.155 232.82 625.3 234.678 622.889 237.038C620.478 239.398 618.559 242.212 617.242 245.318C611.265 257.272 613.477 272.454 618.258 273.949C621.366 274.905 623.219 269.107 629.137 268.988C636.369 268.988 640.493 277.236 644.08 275.622C646.53 274.487 645.036 270.183 648.264 265.82C650.523 263.042 653.667 261.122 657.17 260.38C655.6 261.3 654.251 262.552 653.219 264.05C652.186 265.547 651.494 267.253 651.193 269.047C650.356 277.057 660.995 284.887 670.379 286.082C674.74 286.235 679.081 285.432 683.098 283.728C687.115 282.024 690.71 279.462 693.631 276.22C697.928 272.16 701.24 267.171 703.314 261.636C702.716 264.086 697.337 283.452 680.361 290.266C674.692 292.604 668.497 293.368 662.43 292.478C652.567 290.924 650.475 285.365 641.808 284.349C638.198 284.005 634.555 284.389 631.095 285.477C627.636 286.565 624.429 288.336 621.665 290.685C606.842 303.596 615.27 329.357 616.525 333.183C618.677 339.698 620.709 345.555 625.849 347.827C633.859 351.353 638.342 341.192 652.986 340.893C661.653 340.893 663.147 344.24 678.867 345.137C683.089 345.535 687.347 345.252 691.479 344.3C697.219 342.821 702.486 339.899 706.781 335.813C705.736 337.999 704.366 340.015 702.716 341.79C692.734 352.31 677.313 349.799 677.253 352.071C677.193 354.342 690.283 358.048 700.803 354.163C702.537 353.505 703.912 352.728 703.912 352.788C698.387 357.663 691.367 360.509 684.007 360.857C672.711 359.781 671.336 347.946 660.756 346.87C648.802 345.675 646.291 358.825 632.185 359.243C621.785 359.662 616.405 352.071 609.412 355.597C606.481 357.681 603.104 359.052 599.55 359.602C598.164 359.829 596.751 359.829 595.366 359.602C604.81 353.625 609.412 344.181 607.32 337.008C606.184 333.302 602.897 328.939 599.251 328.819C593.274 328.819 588.432 339.758 586.818 346.034C586.287 348.23 585.967 350.471 585.862 352.728C585.099 344.719 586.417 336.648 589.687 329.297C592.654 324.279 595.928 319.448 599.49 314.833C604.81 306.465 613.357 293.016 608.695 286.202C607.197 284.317 605.079 283.025 602.718 282.556C593.572 279.866 584.308 287.517 583.949 287.039C589.842 283.64 595.217 279.413 599.908 274.487C610.129 261.875 608.097 244.601 607.26 237.129C606.009 226.456 602.284 216.223 596.382 207.243C599.874 211.187 603.897 214.627 608.336 217.464C621.964 226.191 637.326 227.506 638.222 225.713C639.119 223.92 633.56 223.382 629.376 217.404C627.607 215.031 626.234 212.387 625.311 209.574C637.684 224.697 646.172 227.087 651.85 226.191C657.528 225.294 662.191 220.214 675.042 217.883C678.03 217.184 681.139 217.184 684.127 217.883C688.445 219.21 692.152 222.027 694.587 225.832Z" fill="#ECECEC"/>
<path d="M996.604 402.699C991.779 399.299 986.008 397.5 980.106 397.559C967.315 398.037 963.609 408.796 949.742 409.513C941.613 409.872 939.82 406.345 933.245 408.377C930.112 409.627 927.257 411.485 924.846 413.845C922.435 416.204 920.515 419.019 919.199 422.125C913.222 434.079 915.433 449.261 920.215 450.756C923.323 451.712 925.176 445.974 931.093 445.795C938.326 445.795 942.51 454.103 946.036 452.429C948.487 451.294 946.993 446.99 950.22 442.627C952.466 439.844 955.619 437.94 959.127 437.247C957.535 438.14 956.169 439.385 955.132 440.887C954.096 442.39 953.418 444.109 953.149 445.914C952.313 453.864 962.952 461.694 972.336 462.889C976.677 463.025 980.995 462.213 984.99 460.509C988.985 458.806 992.56 456.253 995.468 453.027C999.815 449.02 1003.19 444.072 1005.33 438.562C1004.73 441.013 999.353 460.379 982.378 467.193C976.808 469.508 970.715 470.273 964.745 469.404C954.883 467.85 952.791 462.351 944.124 461.276C940.479 460.894 936.794 461.254 933.292 462.332C929.789 463.411 926.541 465.186 923.742 467.552C909.157 480.403 917.764 506.164 918.9 510.289C920.992 516.804 923.024 522.602 928.165 524.873C936.174 528.399 940.657 518.298 955.301 517.999C964.028 517.999 965.462 521.346 981.242 522.183C985.441 522.59 989.678 522.328 993.794 521.406C999.517 519.884 1004.77 516.968 1009.1 512.918C1008.03 515.095 1006.67 517.108 1005.03 518.896C995.049 529.416 979.688 526.845 979.569 529.117C979.449 531.388 992.599 535.094 1003.12 531.209C1004.85 530.551 1006.23 529.774 1006.23 529.834C1000.62 534.789 993.447 537.623 985.964 537.843C974.368 537.066 973.293 525.232 962.534 524.156C950.579 523.02 948.069 536.11 933.963 536.528C923.562 536.947 918.183 529.356 911.249 532.942C908.269 534.965 904.883 536.312 901.327 536.887C899.939 537.076 898.531 537.076 897.143 536.887C906.587 530.91 911.189 521.406 909.097 514.233C907.962 510.528 904.674 506.224 900.968 506.104C894.991 506.104 890.15 516.983 888.536 523.259C888.007 525.455 887.687 527.697 887.579 529.953C886.817 521.944 888.134 513.874 891.405 506.523C894.372 501.504 897.645 496.673 901.207 492.058C906.527 483.69 915.075 470.241 910.412 463.427C908.934 461.531 906.804 460.253 904.435 459.841C895.35 457.151 886.025 464.802 885.727 464.264C891.611 460.88 896.968 456.651 901.626 451.712C911.847 439.16 909.874 421.826 908.978 414.414C907.706 403.747 903.982 393.518 898.099 384.528C901.576 388.489 905.601 391.931 910.054 394.749C923.682 403.476 939.043 404.851 939.94 402.998C940.836 401.145 935.875 400.607 931.691 394.869C929.935 392.509 928.564 389.887 927.627 387.099C939.999 402.161 948.487 404.552 954.165 403.655C959.844 402.759 964.506 397.678 977.357 395.347C980.931 394.4 984.712 394.6 988.166 395.92C991.62 397.239 994.571 399.61 996.604 402.699Z" fill="#ECECEC"/>
<path d="M1001.45 980.216C1000.38 1002.9 997.404 1025.46 992.542 1047.64C979.691 1103.23 958.054 1120.8 945.262 1130.6C928.108 1143.81 919.56 1139.51 896.249 1141.78C846.34 1146.68 814.72 1149.79 801.272 1203.64C798.044 1216.49 798.582 1221.58 794.876 1331.5C791.589 1429.28 784.476 1480.93 791.29 1491.15C798.104 1501.37 809.58 1447.69 838.211 1392.76C857.398 1356 886.805 1299.64 905.932 1322.41C931.156 1352.3 939.285 1521.33 916.094 1640.7C894.755 1750.56 850.344 1797.84 811.791 1794.61C793.86 1793.05 766.425 1785.58 754.53 1732.74C729.187 1620.55 800.495 1414.4 775.211 1295.75C773.478 1287.68 767.799 1261.2 760.328 1261.26C749.987 1261.26 741.38 1312.01 739.288 1348.83C737.728 1375.71 739.03 1402.68 743.173 1429.28C745.813 1448.33 751.084 1466.92 758.834 1484.51C752.856 1478.18 737.435 1459.89 728.948 1416.19C718.009 1360.31 724.943 1298.44 726.856 1281.41C734.745 1210.94 751.9 1190.85 747.417 1156.42C744.488 1134.07 734.566 1117.87 726.318 1116.38C715.858 1114.4 708.386 1131.56 707.968 1129.11C707.549 1126.66 716.216 1105.5 728.111 1097.97C743.472 1088.28 750.047 1111 765.408 1115.42C787.106 1121.4 810.417 1087.03 823.327 1038.08C831.626 1003.46 835.898 967.997 836.059 932.398C837.919 946.148 838.877 960.005 838.928 973.88C838.928 1040.65 816.812 1079.68 820.279 1093.84C822.969 1104.9 836.836 1087.87 868.575 1056.54C899.059 1026.66 903.243 1029.77 916.691 1007.65C930.193 984.451 941.002 959.785 948.908 934.132C944.411 963.423 936.756 992.142 926.075 1019.79C904.677 1071.43 882.621 1071.85 883.04 1084.04C883.637 1100 922.429 1123.97 957.874 1080.99C980.528 1054.21 994.335 1008.91 1001.45 980.216ZM888.539 1693.77C891.348 1698.97 905.813 1668.73 907.546 1627.31C908.742 1599.33 904.139 1564.73 897.564 1561.56C889.615 1557.67 885.969 1607.64 871.743 1616.79C863.434 1622.11 855.485 1611.23 850.524 1602.38C855.365 1602.38 863.315 1600.47 871.324 1588.04C883.279 1570.11 887.881 1540.22 892.962 1508.12C899.537 1466.7 910.236 1399.46 902.167 1378.66C885.311 1335.38 800.554 1480.27 806.532 1560.84C808.624 1589.83 823.148 1610.87 820.578 1624.92C817.828 1639.92 800.315 1616.19 793.322 1637.47C786.926 1656.77 789.795 1707.52 799.837 1733.1C822.431 1791.32 877.541 1713.74 882.92 1673.33C882.92 1672.85 882.92 1672.61 882.92 1671.54C884.996 1652.09 890.015 1633.06 897.803 1615.11C887.284 1676.56 887.104 1690.84 888.539 1693.77Z" fill="#ECECEC"/>
<path d="M1211.49 1036.7C1197.27 1011.36 1185.91 1007.23 1178.14 1008.01C1152.32 1010.76 1144.91 1071.13 1116.93 1074.77C1100.44 1076.93 1096.79 1056.84 1083.58 1068.44C1066.01 1083.86 1057.46 1132.63 1055.19 1145.72C1043.23 1212.37 1047.6 1298.5 1057.22 1306.81C1063.62 1312.25 1067.32 1279.85 1079.28 1279.02C1093.86 1277.94 1102.23 1325.58 1109.16 1316.37C1114.12 1309.98 1111.07 1285.71 1117.65 1261.08C1122.61 1242.44 1130.14 1234.49 1135.58 1230.72C1128.27 1245.98 1124.2 1262.58 1123.63 1279.49C1121.95 1324.44 1143.41 1368.37 1162.42 1375.13C1185.19 1383.2 1202.59 1337.47 1209.4 1319.6C1218.86 1293.03 1225.41 1265.51 1228.94 1237.53C1227.69 1251.4 1217.35 1360.25 1182.56 1398.62C1178.38 1403.22 1164.27 1418.76 1146.7 1411.11C1126.73 1402.27 1122.79 1371.18 1104.86 1365.33C1090.21 1360.43 1074.49 1376.03 1064.15 1401.19C1034.27 1473.57 1051.3 1618.64 1053.81 1640.28C1058.18 1676.92 1062.18 1709.79 1072.64 1722.58C1088.78 1742.25 1097.86 1685.35 1127.39 1683.67C1144.97 1682.72 1147.89 1702.5 1179.75 1707.28C1184.05 1708.38 1188.53 1708.55 1192.9 1707.79C1197.27 1707.03 1201.43 1705.35 1205.1 1702.86C1219.8 1692.52 1230.2 1670.34 1236.12 1655.04C1234.38 1666.12 1231.86 1677.07 1228.59 1687.8C1208.44 1746.97 1177.36 1732.74 1177.24 1745.54C1177.24 1757.49 1203.54 1780.5 1224.76 1757.49C1228.23 1753.72 1230.74 1749.36 1231.04 1749.54C1231.34 1749.72 1210.89 1798.61 1190.09 1794.79C1166.72 1790.42 1164.51 1723.72 1142.81 1717.74C1118.9 1711.11 1113.58 1783.97 1085.07 1787.32C1064.15 1789.77 1053.22 1746.91 1039.17 1766.93C1034.87 1772.91 1029.07 1786.18 1019.15 1789.41C1016.36 1790.29 1013.34 1790.05 1010.72 1788.75C1029.84 1753.9 1039.11 1702.02 1034.63 1661.44C1032.35 1640.76 1025.72 1616.31 1018.25 1615.65C1006.29 1614.64 996.432 1676.92 993.204 1712.36C991.77 1727.96 991.351 1741.23 991.232 1749.84C989.651 1705.86 992.253 1661.83 999.002 1618.34C1004.44 1585.94 1008.03 1583.85 1018.79 1536.81C1029.55 1489.77 1046.82 1414.22 1037.38 1375.85C1036.03 1367.82 1031.77 1360.56 1025.42 1355.46C1007.01 1340.34 988.183 1383.32 987.585 1380.45C986.988 1377.58 1006.77 1354.45 1019.8 1309.8C1040.36 1239.15 1036.36 1141 1034.63 1099.94C1032.56 1043.37 1025.17 987.111 1012.57 931.92C1018.63 951.825 1026.64 971.085 1036.48 989.421C1063.91 1038.43 1095 1046.08 1096.25 1035.74C1097.03 1029.77 1088.06 1022.41 1079.57 990.138C1075.88 975.714 1073.16 961.056 1071.45 946.265C1096.37 1031.14 1113.58 1044.59 1125.24 1039.51C1136.9 1034.43 1146.22 1005.5 1172.16 992.768C1183.04 987.388 1188.9 991.572 1190.45 992.768C1201.63 1001.08 1208.44 1024.33 1211.49 1036.7Z" fill="#ECECEC"/>
<path d="M332.721 531.925C351.668 527.143 366.313 514.412 370.138 498.273C371.328 492.853 371.412 487.248 370.385 481.794C369.358 476.341 367.241 471.15 364.161 466.534C361.478 462.505 357.384 459.626 352.685 458.465C348.162 457.768 343.542 458.769 339.714 461.274C343.049 457.068 347.666 454.067 352.864 452.727C361.411 450.754 366.85 455.536 371.513 452.368C374.023 450.635 374.382 448.005 375.757 437.126C376.664 427.548 378.221 418.042 380.419 408.675C381.638 402.061 384.564 395.879 388.906 390.743C393.024 386.711 398.127 383.827 403.706 382.38C409.285 380.933 415.146 380.973 420.705 382.495C425.188 383.87 428.954 386.201 428.774 386.798C423.478 385.355 418.004 384.671 412.516 384.766C404.328 385.842 395.302 390.743 395.421 396.063C395.614 397.684 396.402 399.175 397.633 400.247C404.268 406.224 419.39 399.291 427.101 396.482C429.15 395.671 431.146 394.733 433.078 393.672C443.837 388.054 454.416 384.228 464.159 387.695C466.9 388.672 469.434 390.152 471.631 392.058C465.503 390.176 458.983 389.971 452.75 391.464C446.516 392.957 440.796 396.093 436.186 400.546C433.168 402.785 431.049 406.028 430.209 409.691C429.886 411.396 429.938 413.15 430.361 414.832C430.784 416.515 431.568 418.085 432.659 419.434C436.457 424.685 440.783 429.532 445.57 433.899C453.812 441.561 459.577 451.509 462.127 462.47C464.578 483.45 436.903 493.193 438.218 517.639C438.61 523.612 440.457 529.399 443.598 534.495C439.186 531.926 435.599 528.152 433.257 523.616C430.777 517.502 430.033 510.821 431.105 504.31C431.763 497.197 431.942 489.965 432.181 482.792C432.181 479.983 431.763 479.565 429.252 480.581C425.889 482.047 422.204 482.623 418.553 482.254C412.576 481.716 410.424 476.277 402.176 472.332C393.927 468.387 380.478 468.566 376.952 474.066C375.099 476.935 376.952 479.206 377.55 486.916C378.328 494.659 377.135 502.472 374.083 509.63C369.257 518.01 361.576 524.375 352.445 527.561C346.151 530.079 339.489 531.552 332.721 531.925ZM379.104 462.47C382.152 463.546 386.276 458.405 388.667 456.074C401.16 444.12 421.363 454.221 427.937 445.973C434.512 437.724 423.933 408.675 409.707 406.344C391.058 403.594 373.844 446.81 376.354 458.166C376.534 459.182 377.191 461.932 379.104 462.47ZM438.099 493.133C439.414 493.491 441.984 490.144 447.005 483.45C453.938 474.125 454.655 471.495 454.895 469.583C455.433 465.877 454.895 459.72 452.026 458.465C449.156 457.21 444.375 461.454 443.598 462.29C440.737 465.314 438.843 469.123 438.158 473.229C436.365 480.401 435.17 492.356 438.099 493.312V493.133ZM422.498 453.803C415.684 453.803 410.544 460.796 411.261 464.801C412.755 470.778 429.492 473.169 432.361 468.447C432.724 466.845 432.754 465.185 432.447 463.571C432.141 461.957 431.505 460.424 430.58 459.067C429.654 457.709 428.459 456.557 427.069 455.683C425.678 454.808 424.122 454.229 422.498 453.982V453.803Z" fill="#ECECEC"/>
<path d="M249.817 327.744C246.529 325.592 233.32 352.609 213.954 353.028C209.792 352.795 205.719 351.734 201.973 349.907C198.226 348.08 194.883 345.524 192.137 342.388C195.613 344.71 199.525 346.3 203.636 347.06C207.747 347.821 211.969 347.736 216.046 346.811C223.781 344.364 230.311 339.093 234.336 332.048C240.313 322.723 238.161 319.496 242.883 308.557C249.996 292 265.238 284.947 263.505 282.258C262.548 280.763 258.603 283.812 251.192 282.258C246.928 281.405 242.955 279.47 239.656 276.639C238.042 275.025 237.504 273.65 235.292 272.395C235.292 272.395 231.108 270.064 228.598 271.14C226.087 272.216 224.055 279.508 226.805 288.175C220.353 279.593 217.135 269.01 217.719 258.289C218.657 246.636 224.001 235.778 232.662 227.925C241.02 219.852 251.969 215.002 263.564 214.237C281.496 213.759 285.799 224.637 299.069 220.214C304.689 218.321 309.814 215.197 314.072 211.069C316.496 208.64 318.622 205.931 320.407 203C319.301 209.211 316.853 215.106 313.235 220.274C308.334 227.148 304.687 227.626 302.476 233.125C298.77 242.33 303.193 255.719 309.111 257.034C313.713 257.99 318.555 251.535 322.559 246.155C328.22 238.561 332.12 229.802 333.976 220.513C335.044 230.946 332.962 241.46 327.999 250.698C320.945 262.234 312.816 264.744 308.094 278.372C307.616 279.747 303.372 291.821 308.632 296.782C312.398 300.309 319.092 298.516 322.021 297.739C336.247 293.973 343.838 280.225 346.348 275.025C344.313 283.213 340.632 290.9 335.53 297.619C324.054 312.442 312.278 312.861 308.991 324.516C307.807 329.024 307.988 333.781 309.509 338.186C311.031 342.591 313.825 346.446 317.538 349.262C320.969 351.527 324.953 352.813 329.061 352.982C333.169 353.15 337.245 352.195 340.849 350.218C336.58 353.227 331.704 355.267 326.564 356.196C321.418 357.17 316.117 356.949 311.07 355.55C306.023 354.151 301.365 351.611 297.455 348.126C282.034 331.151 305.405 293.435 293.45 285.366C289.505 282.736 284.006 284.768 278.388 286.8C272.88 288.823 268 292.256 264.235 296.756C260.469 301.256 257.95 306.665 256.93 312.442C255.615 321.827 260.576 323.44 260.456 332.346C260.277 348.903 242.345 366.835 223.756 371.019C207.976 374.486 202.059 365.46 183.41 368.449C172.527 370.381 162.344 375.143 153.883 382.256C157.481 376.78 162.128 372.07 167.554 368.398C172.981 364.725 179.081 362.163 185.502 360.858C194.289 359.662 196.201 362.89 208.036 361.993C214.372 361.515 231.945 360.14 242.883 346.632C249.04 338.921 251.67 328.939 249.817 327.744ZM290.163 246.932C290.163 244.123 291.119 230.734 282.691 224.458C268.466 213.759 240.433 232.707 241.389 240.477C241.389 242.449 243.541 243.705 243.361 246.454C243.182 249.204 240.014 251.774 237.085 253.268C238.174 251.935 238.84 250.307 239 248.593C239.159 246.879 238.805 245.157 237.982 243.645C236.966 242.031 234.754 239.7 233.081 240.298C230.451 241.194 229.973 249.742 231.586 255.719C234.934 267.673 250.594 282.377 267.987 277.834C282.691 273.89 289.266 258.17 290.163 246.932Z" fill="#ECECEC"/>
<path d="M247.727 682.851C244.499 680.699 231.29 707.716 211.864 708.134C207.694 707.899 203.613 706.838 199.857 705.011C196.101 703.185 192.746 700.63 189.987 697.495C193.46 699.823 197.373 701.417 201.484 702.177C205.596 702.938 209.82 702.85 213.896 701.918C221.645 699.468 228.194 694.199 232.246 687.154C238.223 677.83 236.071 674.602 240.793 663.664C247.906 647.107 263.148 639.755 261.415 637.364C260.458 635.87 256.454 638.918 249.102 637.364C244.835 636.522 240.859 634.586 237.566 631.745C235.952 630.191 235.354 628.757 233.202 627.502C233.202 627.502 229.018 625.171 226.508 626.246C223.997 627.322 221.965 634.615 224.655 643.281C217.849 634.355 214.682 623.179 215.791 612.009C216.9 600.839 222.204 590.505 230.632 583.091C239.017 575.031 249.987 570.203 261.594 569.463C279.526 568.925 283.829 579.804 297.039 575.44C302.685 573.487 307.814 570.278 312.042 566.056C314.473 563.693 316.583 561.02 318.318 558.106C317.23 564.342 314.781 570.26 311.145 575.44C306.303 582.015 302.657 582.732 300.446 587.992C296.74 597.197 301.163 610.586 307.081 611.901C311.623 612.858 316.465 606.402 320.469 601.023C326.148 593.469 330.087 584.754 332.005 575.5C332.893 585.862 330.711 596.256 325.729 605.386C318.975 617.34 310.846 619.552 305.885 633.18C305.347 634.555 301.163 646.629 306.423 651.59C310.189 655.116 316.883 653.323 319.812 652.546C334.038 648.781 341.569 635.033 344.139 629.833C342.078 638.022 338.377 645.708 333.261 652.427C321.844 667.25 310.009 667.668 306.782 679.324C305.582 683.831 305.754 688.593 307.277 693.002C308.799 697.41 311.603 701.264 315.329 704.07C318.75 706.36 322.737 707.661 326.85 707.83C330.963 707.999 335.043 707.028 338.64 705.026C334.37 708.035 329.495 710.075 324.355 711.003C319.209 711.982 313.907 711.763 308.859 710.364C303.811 708.965 299.153 706.422 295.246 702.934C279.824 685.959 303.195 648.243 291.181 640.173C287.296 637.543 281.797 639.576 276.119 641.608C270.619 643.634 265.748 647.069 261.993 651.569C258.238 656.069 255.73 661.477 254.72 667.25C253.405 676.634 258.366 678.248 258.247 687.154C258.247 703.771 240.315 722.061 221.786 726.125C206.006 729.592 200.089 720.567 181.38 723.555C170.474 725.508 160.272 730.29 151.793 737.422C155.408 731.949 160.067 727.241 165.503 723.57C170.938 719.898 177.045 717.334 183.472 716.024C192.259 714.828 194.112 718.056 206.006 717.16C211.983 716.681 229.915 715.307 240.793 701.798C247.01 694.028 249.64 684.106 247.727 682.851ZM287.894 602.039C287.894 599.23 288.85 585.841 280.422 579.565C266.256 568.865 238.163 587.992 239.12 595.643C239.12 597.556 241.212 598.811 241.092 601.62C240.973 604.43 237.745 606.94 234.816 608.434C235.895 607.094 236.551 605.464 236.7 603.75C236.849 602.036 236.484 600.317 235.653 598.811C234.697 597.197 232.425 594.866 230.811 595.464C228.182 596.36 227.703 604.908 229.317 610.885C232.664 622.839 248.325 637.543 265.659 633.001C280.602 628.996 287.236 613.276 287.894 602.039Z" fill="#ECECEC"/>
<path d="M862.478 872.982C859.19 870.83 846.04 897.847 826.615 898.266C822.451 898.016 818.378 896.941 814.633 895.104C810.888 893.268 807.545 890.706 804.798 887.567C808.263 889.912 812.174 891.52 816.287 892.291C820.399 893.062 824.627 892.98 828.707 892.049C836.445 889.579 842.986 884.316 847.057 877.286C853.034 867.961 850.882 864.734 855.604 853.795C862.717 837.239 877.959 829.887 876.225 827.436C875.269 825.942 871.264 829.05 863.912 827.436C859.626 826.599 855.63 824.663 852.317 821.817C851.132 820.17 849.677 818.735 848.013 817.574C848.013 817.574 843.829 815.242 841.318 816.318C838.808 817.394 836.716 824.627 839.466 833.294C832.664 824.376 829.498 813.211 830.607 802.051C831.717 790.89 837.019 780.567 845.443 773.163C853.816 765.077 864.788 760.226 876.405 759.475C894.336 758.937 898.64 769.876 911.849 765.452C920.813 762.387 928.369 756.19 933.128 747.999C932.041 754.234 929.592 760.153 925.956 765.333C921.054 772.207 917.408 772.685 915.256 778.184C911.551 787.389 915.914 800.718 921.891 802.093C926.434 802.989 931.275 796.534 935.28 791.214C940.935 783.609 944.852 774.856 946.756 765.572C947.644 775.934 945.461 786.328 940.48 795.458C933.666 807.054 925.537 809.624 920.636 823.252C920.098 824.627 915.914 836.701 921.174 841.662C924.939 845.188 931.634 843.395 934.503 842.618C948.729 838.793 956.32 825.105 958.89 819.905C956.816 828.089 953.116 835.773 948.011 842.499C936.595 857.322 924.76 857.681 921.532 869.396C920.339 873.888 920.509 878.634 922.02 883.03C923.531 887.426 926.316 891.273 930.02 894.082C933.452 896.368 937.444 897.671 941.564 897.85C945.683 898.029 949.774 897.077 953.391 895.098C949.085 897.97 944.214 899.886 939.105 900.716C933.964 901.708 928.664 901.501 923.615 900.112C918.567 898.723 913.907 896.189 909.996 892.707C894.575 875.672 917.946 837.956 905.932 829.946C902.047 827.316 896.548 829.289 890.869 831.381C885.368 833.415 880.494 836.851 876.73 841.348C872.966 845.846 870.443 851.25 869.411 857.023C868.096 866.407 873.117 868.021 872.998 876.927C872.998 893.484 855.066 911.834 836.537 915.898C820.757 919.305 814.839 910.28 796.131 913.268C785.238 915.207 775.052 919.991 766.604 927.136C773.922 916.087 785.307 908.375 798.283 905.677C807.069 904.542 808.922 907.769 820.817 906.813C826.794 906.335 844.725 905.02 855.604 891.511C861.76 884.16 864.331 874.178 862.478 872.982ZM902.644 792.111C902.644 789.361 903.601 775.972 895.173 769.636C880.887 758.997 852.854 777.945 853.871 785.715C853.871 787.628 855.963 788.943 855.843 791.692C855.723 794.442 852.496 796.952 849.866 798.506C850.93 797.159 851.577 795.53 851.725 793.82C851.874 792.11 851.518 790.393 850.703 788.883C849.746 787.209 847.475 784.938 845.861 785.476C843.171 786.432 842.693 794.98 844.367 800.957C847.714 812.911 863.374 827.615 880.708 823.073C895.352 819.128 901.987 803.169 902.644 792.111Z" fill="#ECECEC"/>
<path d="M538.577 769.281C533.751 765.891 527.977 764.112 522.08 764.2C509.288 764.678 505.583 775.378 491.715 776.155C483.586 776.573 481.793 772.987 475.218 775.019C472.085 776.268 469.23 778.127 466.819 780.486C464.408 782.846 462.488 785.66 461.172 788.766C455.195 800.721 457.406 815.903 462.188 817.397C465.296 818.354 467.149 812.616 473.067 812.436C480.299 812.436 484.483 820.744 488.01 819.131C490.46 817.995 488.966 813.632 492.194 809.268C494.456 806.505 497.601 804.605 501.1 803.889C499.525 804.802 498.172 806.053 497.138 807.551C496.104 809.05 495.416 810.759 495.122 812.556C494.286 820.565 504.925 828.336 514.309 829.591C518.67 829.744 523.011 828.94 527.028 827.236C531.045 825.533 534.64 822.97 537.561 819.728C541.842 815.597 545.132 810.55 547.184 804.965C546.586 807.475 541.207 826.781 524.231 833.595C518.571 835.965 512.372 836.75 506.3 835.867C496.437 834.253 494.345 828.754 485.678 827.678C482.064 827.346 478.42 827.741 474.96 828.839C471.501 829.938 468.296 831.717 465.535 834.074C450.712 846.925 459.14 872.686 460.455 876.572C462.547 883.087 464.579 888.944 469.719 891.216C477.729 894.682 482.212 884.581 496.856 884.282C505.583 884.282 507.017 887.629 522.797 888.466C526.996 888.873 531.232 888.611 535.349 887.689C541.072 886.167 546.329 883.251 550.651 879.201C549.589 881.378 548.22 883.391 546.586 885.179C536.604 895.699 521.243 893.188 521.123 895.459C521.004 897.731 534.154 901.437 544.673 897.551C545.741 897.144 546.779 896.665 547.781 896.117C542.166 901.072 535.004 903.924 527.519 904.186C515.923 903.409 514.847 891.514 504.088 890.498C492.134 889.303 489.623 902.453 475.517 902.811C465.117 903.29 459.737 895.639 452.804 899.225C449.817 901.248 446.435 902.613 442.882 903.23C441.494 903.425 440.086 903.425 438.698 903.23C448.142 897.253 452.744 887.809 450.652 880.576C449.516 876.93 446.229 872.567 442.523 872.447C436.546 872.447 431.704 883.326 430.091 889.662C429.56 891.837 429.24 894.059 429.134 896.296C428.368 888.306 429.686 880.254 432.96 872.925C435.909 867.876 439.183 863.025 442.762 858.401C448.082 850.033 456.629 836.644 451.967 829.83C450.488 827.924 448.361 826.627 445.99 826.184C436.905 823.494 427.58 831.145 427.281 830.607C433.166 827.222 438.523 822.993 443.181 818.055C453.402 805.503 451.429 788.169 450.533 780.757C449.282 770.084 445.557 759.851 439.654 750.871C443.134 754.81 447.16 758.232 451.608 761.032C465.236 769.759 480.598 771.134 481.494 769.281C482.391 767.428 477.43 766.95 473.246 761.212C471.477 758.839 470.104 756.194 469.181 753.382C481.554 768.504 490.042 770.895 495.72 769.938C501.398 768.982 506.061 763.961 518.912 761.63C521.904 760.965 525.005 760.965 527.997 761.63C532.288 762.91 536.017 765.607 538.577 769.281Z" fill="#ECECEC"/>
<path d="M1034.39 477.89C1033.77 475.93 1033.27 473.934 1032.9 471.913C1032.57 468.19 1033.06 464.439 1034.34 460.928C1035.62 457.416 1037.66 454.229 1040.31 451.591C1044.79 447.025 1049.81 443.011 1055.25 439.636C1063.74 433.659 1065.83 431.926 1066.85 428.399C1068.28 423.259 1066.07 416.445 1062.36 415.249C1058.66 414.054 1056.09 417.042 1051.72 420.928C1048.52 423.658 1045.69 426.792 1043.3 430.252C1046.58 422.896 1051.81 416.574 1058.42 411.962C1064.73 407.51 1072.18 404.925 1079.89 404.502C1087.61 404.079 1095.29 405.836 1102.05 409.571C1114.01 417.401 1115.68 431.507 1119.39 430.491C1123.09 429.475 1124.29 419.852 1120.04 412.559C1118.48 409.933 1116.24 407.772 1113.56 406.301C1110.88 404.83 1107.86 404.102 1104.8 404.191C1110.61 403.496 1116.47 404.988 1121.24 408.375C1131.28 416.325 1131.58 433.838 1125.9 445.016C1120.22 456.193 1109.05 457.508 1109.05 464.561C1109.34 474.423 1130.56 477.412 1131.16 488.47C1131.06 494.393 1129.46 500.193 1126.5 505.326C1125.66 506.7 1124.53 508.254 1125.12 509.091C1125.72 509.928 1130.44 508.733 1132.72 507.657C1138.25 504.776 1142.51 499.939 1144.67 494.088C1142.72 501.876 1139.17 509.177 1134.27 515.533C1129.36 521.889 1123.2 527.164 1116.16 531.027C1101.22 538.619 1083.46 538.499 1076.59 534.674C1074.76 533.822 1072.88 533.064 1070.97 532.402C1066.8 531.261 1062.37 531.513 1058.36 533.12C1051.04 534.63 1043.5 534.63 1036.18 533.12C1028.27 531.141 1021.26 526.55 1016.28 520.089C1019.85 523.675 1024.38 526.148 1029.32 527.209C1034.26 528.27 1039.41 527.873 1044.13 526.066C1056.74 520.687 1062.54 504.19 1058.36 496.539C1056.21 492.534 1052.38 493.132 1048.14 487.992C1044.19 483.059 1042.08 476.913 1042.16 470.598C1043.95 478.847 1047.84 485.063 1051.9 485.242C1057.22 485.242 1062.12 474.961 1062.06 466.414C1062.06 465.159 1062.06 454.46 1055.73 451.471C1049.39 448.482 1041.26 455.057 1037.38 460.975C1034.36 466.064 1033.3 472.076 1034.39 477.89ZM1121.66 491.757C1120.28 481.237 1094.46 466.713 1077.49 479.803C1063.92 490.383 1063.5 512.737 1071.51 519.013C1083.58 528.876 1123.51 505.864 1121.66 491.757ZM1074.56 467.849C1085.79 474.842 1116.76 456.492 1114.78 438.859C1113.47 426.905 1096.85 414.95 1084.9 418.716C1076.95 421.346 1073.54 430.252 1071.81 434.675C1067.5 445.793 1067.2 463.067 1074.56 467.789V467.849Z" fill="#ECECEC"/>
<path d="M1052.2 845.906C1051.56 843.948 1051.04 841.951 1050.65 839.928C1050.33 836.209 1050.83 832.466 1052.12 828.963C1053.41 825.461 1055.46 822.287 1058.12 819.666C1062.58 815.101 1067.58 811.088 1073 807.711C1081.49 801.734 1083.64 800.001 1084.6 796.474C1086.09 791.334 1083.88 784.52 1080.11 783.324C1076.35 782.129 1074.14 785.117 1069.48 789.301C1066.36 792.044 1063.6 795.178 1061.29 798.626C1064.51 791.247 1069.72 784.912 1076.35 780.336C1082.67 775.878 1090.13 773.29 1097.85 772.868C1105.58 772.445 1113.27 774.204 1120.04 777.945C1132 785.775 1133.67 799.881 1137.38 798.865C1141.08 797.849 1142.22 788.226 1138.03 780.933C1136.47 778.307 1134.23 776.146 1131.55 774.675C1128.87 773.204 1125.85 772.476 1122.79 772.565C1128.58 771.868 1134.42 773.36 1139.17 776.749C1149.21 784.699 1149.57 802.212 1143.89 813.39C1138.21 824.567 1126.92 825.882 1127.1 832.935C1127.1 842.797 1148.61 845.786 1149.21 856.844C1149.08 862.77 1147.46 868.568 1144.49 873.699C1143.71 875.074 1142.58 876.628 1143.11 877.405C1143.65 878.182 1148.43 877.106 1150.76 876.031C1156.31 873.14 1160.58 868.279 1162.72 862.403C1160.76 870.204 1157.21 877.516 1152.29 883.882C1147.38 890.249 1141.2 895.532 1134.15 899.401C1119.21 906.992 1101.45 906.873 1094.64 903.048C1093.98 902.689 1091.83 901.852 1088.96 900.776C1084.79 899.604 1080.36 899.856 1076.35 901.493C1069.05 903.006 1061.53 903.006 1054.23 901.493C1046.31 899.505 1039.28 894.917 1034.27 888.463C1037.85 892.029 1042.38 894.49 1047.32 895.55C1052.26 896.61 1057.4 896.225 1062.12 894.44C1074.74 889.061 1080.53 872.564 1076.41 864.913C1074.26 860.908 1070.43 861.446 1066.19 856.366C1062.27 851.421 1060.16 845.282 1060.21 838.972C1062 847.161 1066.19 853.377 1069.95 853.556C1075.33 853.556 1080.17 843.335 1080.17 834.788C1080.17 833.473 1080.17 822.834 1073.78 819.845C1067.38 816.856 1059.31 823.371 1055.49 829.349C1052.46 834.3 1051.29 840.171 1052.2 845.906ZM1139.47 859.773C1138.09 849.253 1112.27 834.728 1095.3 847.818C1081.73 858.338 1081.31 880.753 1089.32 887.029C1101.39 896.891 1141.32 873.879 1139.47 859.773ZM1092.37 835.864C1103.6 842.797 1134.21 824.447 1132.59 806.815C1131.28 794.86 1114.66 782.906 1102.71 786.731C1094.76 789.361 1091.29 798.207 1089.56 802.69C1085.14 813.748 1084.66 831.022 1092.37 835.804V835.864Z" fill="#ECECEC"/>
<path d="M711.378 452.729L710.183 450.817C711.433 455.998 711.796 461.353 711.258 466.656C710.84 471.02 709.465 479.148 708.031 479.148C705.64 479.148 709.406 457.451 698.168 442.807C691.706 435.252 682.803 430.198 673.004 428.522C676.053 430.016 679.699 432.287 679.639 434.917C679.639 438.504 673.064 440.058 667.685 443.644C654.176 452.789 653.22 471.259 652.144 471.02C651.068 470.78 653.579 450.518 665.114 382.736C659.241 391.043 651.198 397.577 641.863 401.624C645.663 417.382 646.974 433.637 645.748 449.8C645.279 456.776 644.3 463.708 642.82 470.541C638.978 487.514 631.334 503.394 620.465 516.984C625.247 512.561 630.746 511.306 633.973 513.458C634.84 514.13 635.554 514.978 636.069 515.947C636.584 516.915 636.888 517.982 636.962 519.076C638.396 527.922 628.415 535.334 627.518 535.992C634.919 536.214 642.326 535.954 649.693 535.215C674.738 532.764 688.067 531.509 699.125 522.184C718.312 505.926 722.555 472.454 711.378 452.729ZM685.198 510.29C683.883 519.674 667.984 527.564 658.36 522.842C652.383 519.853 648.797 511.904 650.59 509.811C652.383 507.719 655.073 511.246 660.811 511.126C671.809 511.126 677.308 499.65 682.149 501.802C684.66 502.818 685.616 507.182 685.198 510.29ZM700.499 495.347C698.527 502.579 694.522 510.29 691.713 509.811C688.904 509.333 690.876 497.857 685.198 493.733C675.993 487.756 656.986 509.214 650.351 504.552C643.716 499.889 649.335 472.633 667.804 460.679C669.836 459.304 682.687 450.996 692.669 456.077C704.923 462.113 703.608 483.99 700.499 495.167V495.347Z" fill="#ECECEC"/>
<path d="M593.51 468.445C596.339 464.471 597.943 459.755 598.124 454.88C598.305 450.004 597.054 445.183 594.526 441.01C592.613 438.32 587.772 433.06 584.365 434.316C577.67 436.826 576.415 464.74 589.685 476.156C595.662 481.356 600.025 479.443 605.464 484.644C613.474 492.294 613.474 505.265 612.219 515.247C609.648 502.396 604.568 491.936 598.531 491.338C589.386 490.561 575.22 511.9 582.99 524.153C588.549 532.82 602.117 532.282 603.133 532.282C600.695 533.175 598.171 533.816 595.602 534.195C589.602 534.804 583.545 533.921 577.969 531.624C561.412 523.436 586.875 449.916 567.39 420.628C561.928 411.994 553.903 405.285 544.437 401.441C538.46 399.229 530.988 396.301 525.131 398.751C502.059 408.673 518.616 501.141 498.652 534.195C494.149 541.296 488.586 547.665 482.155 553.082C476.548 557.987 469.969 561.653 462.848 563.841C455.613 565.867 448.017 566.255 440.613 564.977C447.182 563.666 453.594 561.662 459.74 559C468.617 555.964 476.423 550.421 482.215 543.041C485.203 538.857 487.773 533.119 486.399 531.863C485.024 530.608 478.031 538.379 468.467 539.335C461.956 539.633 455.565 537.503 450.535 533.358C457.62 535.496 465.203 535.308 472.173 532.82C496.082 523.734 504.868 484.225 493.033 465.995C492.077 464.5 488.371 458.822 484.067 459.181C479.764 459.539 474.504 468.326 472.472 481.655C471.831 474.298 472.979 466.895 475.819 460.077C481.796 445.911 492.495 442.564 502.896 422.899C506.064 416.922 508.096 411.363 505.765 408.135C504.878 407.212 503.793 406.501 502.593 406.056C501.392 405.611 500.106 405.443 498.831 405.565C492.495 405.565 486.458 412.26 483.35 421.584C483.724 417.707 484.65 413.903 486.1 410.287C491.686 398.531 501.03 388.97 512.654 383.115C524.279 377.259 537.523 375.442 550.295 377.951C572.829 383.031 584.066 402.278 590.222 412.857C594.765 420.628 606.241 440.293 598.949 459.121C597.601 462.478 595.768 465.619 593.51 468.445ZM565.955 403.354C567.748 401.68 558.543 380.102 542.764 379.445C529.793 378.967 519.273 392.953 520.708 395.344C522.142 397.735 530.63 390.383 543.541 392.176C557.467 394.149 564.64 404.669 565.955 403.354Z" fill="#ECECEC"/>
<path d="M967.505 711.957C981.073 707.773 983.583 664.139 972.585 659.238C967.086 656.847 958.838 664.557 958.001 665.215C955.171 668.149 953.065 671.703 951.851 675.594C950.636 679.486 950.348 683.607 951.008 687.629C950.358 686.601 949.836 685.497 949.454 684.342C948.652 679.319 948.88 674.186 950.124 669.254C951.367 664.322 953.6 659.694 956.686 655.651C960.268 651.058 964.52 647.028 969.298 643.697C974.235 640.235 978.322 635.698 981.252 630.428C983.792 625.882 984.518 620.544 983.285 615.485C981.779 609.722 978.932 604.397 974.976 599.944C970.098 595.581 963.879 593.009 957.343 592.652C959.641 591.454 962.168 590.76 964.755 590.616C967.342 590.472 969.93 590.88 972.346 591.815C975.574 593.429 976.829 596.059 977.965 595.521C979.101 594.983 979.579 586.973 975.694 581.714C973.353 579.222 970.468 577.305 967.264 576.112C964.06 574.92 960.624 574.484 957.224 574.84C960.952 572.344 965.432 571.224 969.896 571.672C979.459 573.047 983.942 583.208 986.751 582.132C988.544 581.415 989.082 576.155 985.257 558.94C988.319 565.052 990.685 571.488 992.31 578.127C1001.4 615.365 982.508 643.876 990.158 648.359C995.478 651.527 1008.87 640.529 1015.92 630.428C1020.05 624.106 1022.82 616.992 1024.04 609.541C1025.27 602.089 1024.92 594.464 1023.03 587.153C1024.38 589.387 1025.5 591.749 1026.38 594.206C1030.15 604.965 1027.1 612.496 1028.41 612.914C1031.1 613.751 1051.3 586.196 1040.37 569.161C1036.9 564.306 1031.85 560.816 1026.08 559.299C1029.69 559.187 1033.28 559.88 1036.59 561.327C1039.9 562.774 1042.84 564.94 1045.21 567.667C1049.75 574.66 1046.28 583.686 1049.39 584.881C1052.5 586.077 1056.39 576.633 1065.41 573.585C1071.76 571.962 1078.49 572.817 1084.24 575.975C1078.74 574.591 1072.96 574.862 1067.62 576.752C1051.6 582.73 1054.29 601.916 1036.36 622.956C1022.02 639.752 1003.43 647.463 1004.44 649.077C1005.46 650.69 1008.57 647.522 1014.31 646.088C1034.21 641.127 1056.15 650.451 1061.71 660.553C1062.61 662.26 1063.37 664.039 1063.98 665.872C1065.23 670.118 1065.52 674.592 1064.81 678.963C1064.81 677.229 1063.44 662.884 1052.86 657.803C1051.01 656.907 1048.14 655.532 1046.28 656.668C1041.68 659.716 1048.91 677.946 1051.54 684.701C1058.72 702.632 1063.5 715.244 1074.74 718.711C1084.72 721.879 1093.92 715.842 1094.22 716.798C1090.87 720.006 1086.76 722.317 1082.28 723.519C1077.8 724.72 1073.09 724.773 1068.58 723.672C1059.08 720.504 1056.03 710.821 1054.59 711.718C1051.84 713.033 1056.98 747.88 1073.78 749.613C1083.16 750.569 1094.46 741.066 1099.54 726.123C1093.92 746.086 1083.34 759.595 1073.18 759.475C1061.77 759.475 1053.76 742.141 1049.27 732.399C1031.34 694.145 1044.97 666.649 1029.55 656.787C1020.16 650.81 1004.44 654.097 996.016 662.107C977.367 679.68 996.673 714.288 982.328 723.134C971.211 729.948 944.493 717.994 936.065 697.193C932.918 688.916 932.479 679.854 934.81 671.312C935.329 681.245 938.968 690.762 945.21 698.508C947.003 700.421 958.718 714.646 967.505 711.957Z" fill="#ECECEC"/>
<path d="M1111.67 652.724C1114.98 653.345 1118.38 653.289 1121.67 652.56C1124.96 651.83 1128.06 650.443 1130.8 648.48C1139.28 641.606 1140.18 628.934 1138.63 620.925C1136.18 608.134 1127.09 604.787 1126.67 591.457C1126.47 587.403 1127.04 583.347 1128.35 579.503C1127.72 582.761 1127.72 586.108 1128.35 589.365C1128.45 592.377 1129.69 595.237 1131.81 597.375C1133.34 598.143 1135.03 598.542 1136.74 598.542C1138.46 598.542 1140.15 598.143 1141.68 597.375C1152.02 593.669 1153.63 582.492 1165.17 576.993C1171.23 574.473 1177.91 573.807 1184.35 575.08C1210.29 578.009 1235.52 602.515 1239.7 630.488C1240.38 635.626 1240.38 640.831 1239.7 645.969C1231.39 626.185 1227.27 622.061 1225.06 622.061C1220.93 623.077 1220.4 642.443 1225.06 658.402C1229.36 672.514 1237.08 685.346 1247.53 695.759C1223.98 685.06 1204.85 682.789 1200.13 689.782C1196.31 695.759 1201.93 708.312 1207.25 715.544C1211.67 721.074 1216.84 725.962 1222.61 730.069C1222.19 730.846 1210.65 724.091 1195.95 718.114C1179.75 712.137 1171.68 708.79 1162.36 708.431C1150.4 708.302 1138.56 710.813 1127.69 715.783C1117.71 719.967 1109.1 725.526 1108.74 724.988C1108.38 724.45 1132.65 712.376 1131.57 700.183C1131.16 696.238 1127.93 690.201 1124.64 690.679C1123.36 690.949 1122.16 691.5 1121.11 692.293C1117.3 694.315 1112.91 694.949 1108.68 694.086C1115.55 692.277 1121.6 688.188 1125.84 682.49C1132.65 672.986 1133.79 659 1129.36 656.131C1127.33 654.875 1125.48 656.131 1120.04 655.772C1117.02 655.564 1114.12 654.507 1111.67 652.724ZM1189.37 626.185C1185.61 621.754 1183.5 616.157 1183.4 610.345C1183.4 601.26 1189.79 597.315 1187.88 589.903C1187.25 587.681 1186.11 585.639 1184.54 583.945C1182.97 582.251 1181.02 580.954 1178.85 580.161C1170.9 577.59 1162.72 585.181 1159.73 587.931C1146.22 600.363 1146.82 620.686 1147.06 625.288C1147.71 639.992 1153.03 641.247 1153.03 653.919C1152.26 671.851 1141.08 677.469 1144.25 684.283C1148.67 693.966 1177.9 696.656 1195.77 682.729C1210.53 671.253 1211.49 652.843 1213.7 616.263C1214.3 605.325 1213.7 596.717 1208.56 593.549C1206.23 592.571 1203.67 592.254 1201.18 592.634C1198.68 593.013 1196.33 594.075 1194.39 595.701C1186.21 601.14 1184.23 613.513 1189.25 626.185H1189.37ZM1229.48 682.311C1232.47 678.127 1220.69 660.972 1214.12 662.526C1211.55 663.124 1210 666.471 1209.7 668.922C1208.98 674.899 1215.14 679.083 1216.33 679.98C1220.51 682.968 1227.57 684.761 1229.36 682.311H1229.48Z" fill="#ECECEC"/>
<path d="M349.516 1247.34C378.446 1152.9 417.537 1207.95 451.966 1105.5C470.614 1049.91 477.189 979.977 479.7 927.198C467.387 1033.65 434.871 1108.79 397.454 1117.75C348.978 1129.35 318.136 1023.13 315.626 1014.17C313.056 1023.43 283.289 1127.31 236.129 1117.75C198.772 1110.16 166.017 1034.61 153.883 927.198C156.393 979.857 162.968 1049.91 181.617 1105.5C216.046 1207.95 255.136 1152.9 284.066 1247.34C290.043 1266.94 296.021 1366.88 307.198 1566.76C312.697 1663.35 315.327 1717.56 305.405 1736.69C296.319 1754.08 281.078 1734.18 271.634 1718.76C286.397 1775.36 302.416 1804.11 311.203 1791.92C314.409 1786.14 316.326 1779.74 316.821 1773.15C317.277 1779.74 319.174 1786.15 322.38 1791.92C331.166 1803.87 347.185 1775.36 361.949 1718.76C352.505 1734.12 337.263 1754.02 328.178 1736.69C318.256 1717.56 320.886 1663.35 326.385 1566.76C337.98 1367.12 343.479 1266.88 349.516 1247.34Z" fill="#ECECEC"/>
<path d="M696.613 1036.7C682.448 1011.36 671.031 1007.23 663.321 1008.01C637.499 1010.76 630.087 1071.13 602.054 1074.78C585.557 1076.93 581.971 1056.84 568.761 1068.44C551.129 1083.86 542.641 1132.64 540.31 1145.73C528.355 1212.37 532.719 1298.5 542.402 1306.81C548.738 1312.25 552.444 1279.85 564.398 1279.02C579.042 1277.94 587.41 1325.58 594.284 1316.37C599.245 1309.98 596.256 1285.71 602.772 1261.09C607.733 1242.44 615.324 1234.49 620.703 1230.72C613.361 1245.97 609.289 1262.58 608.749 1279.49C607.075 1324.44 628.533 1368.38 647.541 1375.13C670.254 1383.2 687.707 1337.47 694.462 1319.6C704.097 1293.07 710.831 1265.58 714.545 1237.59C713.29 1251.46 702.949 1360.31 668.162 1398.68C663.978 1403.28 649.872 1418.82 632.299 1411.17C612.335 1402.33 608.39 1371.24 590.458 1365.39C575.755 1360.49 560.094 1376.09 549.694 1401.25C519.808 1473.63 536.843 1618.7 539.413 1640.34C543.717 1676.98 547.781 1709.85 558.241 1722.64C574.38 1742.31 583.405 1685.41 612.933 1683.73C630.864 1682.78 633.435 1702.56 665.293 1707.34C669.599 1708.45 674.09 1708.62 678.47 1707.86C682.849 1707.1 687.017 1705.41 690.696 1702.92C705.4 1692.58 715.741 1670.4 721.658 1655.1C719.69 1666.17 716.913 1677.08 713.35 1687.74C693.266 1746.91 662.185 1732.69 662.006 1745.48C662.006 1757.43 688.305 1780.44 709.823 1757.43C711.952 1754.89 713.947 1752.23 715.8 1749.48C715.8 1750.08 695.657 1798.55 674.916 1794.73C651.486 1790.37 649.274 1723.66 627.577 1717.68C603.668 1711.05 598.408 1783.91 569.837 1787.26C548.917 1789.71 538.039 1746.85 523.992 1766.88C519.629 1772.85 513.891 1786.12 503.968 1789.35C501.16 1790.23 498.119 1790 495.481 1788.69C514.608 1753.85 523.873 1701.96 519.39 1661.38C517.059 1640.7 510.424 1616.25 502.952 1615.59C490.998 1614.58 481.136 1676.86 477.968 1712.3C476.533 1727.9 476.115 1741.17 475.995 1749.78C474.355 1705.8 476.957 1661.76 483.766 1618.28C489.205 1585.89 492.791 1583.79 503.55 1536.75C514.309 1489.71 531.523 1414.16 522.139 1375.79C520.791 1367.76 516.536 1360.5 510.185 1355.41C491.715 1340.28 472.947 1383.26 472.289 1380.39C471.632 1377.52 491.476 1354.39 504.506 1309.74C525.068 1239.09 521.063 1140.94 519.39 1099.88C517.259 1043.31 509.875 987.063 497.334 931.861C503.367 951.777 511.377 971.04 521.243 989.362C548.738 1038.37 579.759 1046.03 581.015 1035.69C581.732 1029.71 572.766 1022.36 564.278 990.079C560.611 975.649 557.896 960.993 556.149 946.207C581.134 1031.08 597.99 1044.53 609.944 1039.45C621.899 1034.37 630.864 1005.44 656.865 992.709C667.744 987.33 673.601 991.514 675.155 992.709C686.871 1001.08 693.744 1024.33 696.613 1036.7Z" fill="#ECECEC"/>
<path d="M905.34 353.029C890.577 344.302 882.806 323.561 886.452 319.497C888.126 317.703 892.011 319.497 896.315 320.991C903.422 324.049 909.413 329.226 913.469 335.814C909.976 327.339 904.672 319.729 897.929 313.519C879.997 297.799 862.424 302.88 858.12 290.806C854.415 280.466 864.098 266.897 867.923 260.92C871.748 254.943 875.693 249.743 880.475 249.504C888.544 249.145 891.593 261.458 904.862 266.718C908.823 268.23 913.065 268.862 917.295 268.571C912.905 267.467 908.711 265.693 904.862 263.311C894.94 257.035 884.061 244.543 886.931 238.147C889.8 231.751 906.297 236.772 913.35 225.416C914.23 223.923 914.894 222.313 915.322 220.634C912.197 223.65 908.48 225.983 904.405 227.486C900.33 228.988 895.987 229.626 891.653 229.36C885.657 228.762 879.976 226.39 875.335 222.546C873.661 233.963 868.581 256.856 851.426 269.647C850.529 270.364 832.658 283.454 825.963 277.417C824.689 275.883 823.88 274.016 823.632 272.038C820.165 257.633 828.832 248.786 826.322 235.517C825.507 231.531 823.857 227.762 821.48 224.459C819.124 227.788 817.494 231.576 816.698 235.577C814.188 248.786 822.676 257.633 819.328 272.038C818.492 275.803 817.595 276.879 816.997 277.417C810.363 283.394 792.491 270.364 791.594 269.707C774.38 256.856 769.299 233.843 767.686 222.546C763.025 226.434 757.292 228.811 751.248 229.36C746.966 229.617 742.676 228.99 738.645 227.52C734.615 226.049 730.929 223.767 727.818 220.813C728.236 222.496 728.9 224.107 729.79 225.595C736.843 237.011 753.34 231.572 756.209 238.386C759.078 245.2 747.961 257.274 738.278 263.49C734.468 265.92 730.289 267.717 725.905 268.81C730.112 269.039 734.322 268.409 738.278 266.957C751.607 261.876 754.655 249.324 762.665 249.743C767.506 249.743 770.734 254.644 775.277 261.159C779.819 267.674 788.725 280.525 785.079 291.045C780.776 303 762.904 298.038 745.271 313.818C738.495 319.999 733.185 327.617 729.73 336.113C733.753 329.496 739.754 324.311 746.885 321.29C751.188 319.556 755.074 318.002 756.687 319.795C760.334 323.8 752.563 344.601 737.859 353.268C726.503 359.962 713.951 357.631 714.249 358.707C714.548 359.783 729.671 360.679 734.094 360.859C736.305 360.859 737.501 360.859 745.152 361.217C764.996 361.696 766.968 361.696 769.897 360.5C775.886 357.652 780.611 352.693 783.166 346.573C780.73 349.798 777.496 352.332 773.782 353.925C771.919 354.835 769.878 355.325 767.805 355.36C765.852 355.533 763.885 355.251 762.06 354.535C760.235 353.819 758.6 352.69 757.285 351.235C755.97 349.024 755.492 344.362 764.279 330.614C778.863 307.722 810.004 279.928 819.627 287.937C822.257 290.149 821.122 300.908 818.791 322.366C815.503 352.252 812.813 356.615 809.406 358.229C807.553 358.946 802.951 359.783 794.284 351.594C793.616 353.325 793.616 355.243 794.284 356.974C796.794 362.234 807.733 362.951 821.54 358.049C835.407 362.712 846.345 362.174 848.856 356.974C849.512 355.241 849.512 353.327 848.856 351.594C840.189 359.783 835.586 358.946 833.734 358.169C830.267 356.794 827.756 352.192 824.349 322.306C822.018 300.908 820.883 290.149 823.513 287.937C833.076 279.928 864.277 307.722 878.861 330.614C887.588 344.302 887.17 348.964 885.795 351.176C884.495 352.636 882.873 353.774 881.058 354.501C879.243 355.227 877.283 355.521 875.335 355.36C873.271 355.252 871.245 354.766 869.358 353.925C865.668 352.291 862.443 349.764 859.973 346.573C862.584 352.662 867.322 357.591 873.303 360.44C876.231 361.696 878.144 361.636 897.988 361.158C905.699 361.158 906.894 361.158 909.106 361.158C913.529 361.158 928.95 360.201 928.95 359.006C928.95 357.81 916.697 359.723 905.34 353.029Z" fill="#ECECEC"/>
<path d="M400.081 895.758C385.317 887.091 377.546 866.291 381.193 862.286C382.866 860.493 386.751 862.286 391.055 863.78C398.156 866.819 404.146 871.975 408.21 878.544C404.68 870.088 399.381 862.486 392.669 856.249C375.036 840.529 357.164 845.61 352.861 833.536C349.155 823.255 358.838 809.627 362.663 803.65C366.489 797.673 370.434 792.472 375.215 792.233C383.285 791.815 386.333 804.188 399.602 809.448C403.573 810.919 407.81 811.531 412.035 811.241C407.627 810.191 403.425 808.413 399.602 805.981C389.68 800.004 378.802 787.212 381.671 780.877C384.54 774.541 401.037 779.502 408.03 768.085C408.96 766.611 409.646 764.996 410.062 763.304C406.951 766.257 403.265 768.54 399.235 770.01C395.204 771.481 390.915 772.107 386.632 771.851C380.636 771.253 374.955 768.88 370.314 765.037C368.64 776.454 363.56 799.346 346.405 812.197C345.509 812.855 327.637 826.004 320.942 819.908C319.654 818.383 318.843 816.512 318.611 814.528C315.145 800.123 323.812 791.277 321.241 778.067C320.472 774.059 318.841 770.265 316.46 766.95C314.096 770.253 312.466 774.023 311.678 778.008C309.108 791.277 317.655 800.123 314.308 814.528C314.059 816.507 313.251 818.373 311.977 819.908C305.342 825.885 287.47 812.855 286.574 812.137C269.359 799.346 264.279 776.274 262.665 765.037C258.04 768.869 252.382 771.241 246.407 771.851C242.116 772.098 237.82 771.467 233.781 769.997C229.742 768.528 226.045 766.25 222.916 763.304C223.364 764.967 224.048 766.557 224.949 768.026C232.002 779.442 248.499 774.003 251.308 780.817C254.117 787.631 243.06 799.705 233.377 805.981C229.527 808.363 225.334 810.137 220.944 811.241C225.174 811.534 229.416 810.902 233.377 809.388C246.706 804.367 249.754 791.815 257.764 792.174C262.605 792.174 265.833 797.075 270.375 803.59C274.918 810.105 283.824 822.956 280.178 833.476C275.874 845.43 258.003 840.469 240.37 856.189C233.467 862.396 228.017 870.05 224.411 878.604C228.495 872.016 234.504 866.842 241.625 863.78C245.929 862.047 249.814 860.493 251.428 862.286C255.074 866.351 247.303 887.091 232.6 895.758C221.243 902.513 208.691 900.122 208.99 901.257C209.288 902.393 224.411 903.17 228.834 903.409H239.892C259.736 903.887 261.708 903.947 264.578 902.692C270.558 899.843 275.296 894.913 277.907 888.825C275.437 892.016 272.212 894.542 268.522 896.177C266.637 897.024 264.61 897.51 262.545 897.611C260.597 897.768 258.639 897.471 256.825 896.746C255.01 896.02 253.388 894.884 252.085 893.427C250.77 891.216 250.292 886.553 259.078 872.866C273.663 849.973 304.804 822.179 314.427 830.188C317.057 832.4 315.922 843.159 313.591 864.557C310.303 894.443 307.613 898.807 304.206 900.421C302.353 901.138 297.691 902.034 289.084 893.786C288.464 895.546 288.464 897.465 289.084 899.225C291.654 904.425 302.533 905.202 316.4 900.301C330.267 904.963 341.205 904.485 343.716 899.225C344.372 897.492 344.372 895.579 343.716 893.846C335.049 902.034 330.386 901.198 328.593 900.48C325.127 899.106 322.616 894.503 319.209 864.617C316.818 843.159 315.742 832.4 318.372 830.188C327.936 822.179 359.077 849.973 373.721 872.866C382.448 886.613 382.029 891.275 380.655 893.487C379.343 894.929 377.718 896.051 375.905 896.766C374.091 897.481 372.137 897.771 370.195 897.611C368.127 897.531 366.096 897.044 364.217 896.177C360.504 894.583 357.269 892.049 354.833 888.825C357.305 894.977 361.938 900.015 367.863 902.991C370.732 904.186 372.705 904.186 392.549 903.708C400.26 903.708 401.455 903.708 403.607 903.349C408.09 903.349 423.451 902.453 423.511 901.198C423.571 899.942 411.437 902.453 400.081 895.758Z" fill="#ECECEC"/>
<path d="M869.951 412.562C869.166 409.624 867.755 406.891 865.816 404.549C863.876 402.207 861.454 400.312 858.713 398.994C853.567 397.247 847.941 397.59 843.045 399.948C838.15 402.307 834.375 406.493 832.533 411.606C831.693 414.252 831.582 417.076 832.214 419.779C832.845 422.483 834.194 424.966 836.12 426.967C840.603 430.553 845.384 427.385 851.72 430.135C854.511 431.614 856.962 433.66 858.917 436.14C860.873 438.62 862.289 441.481 863.077 444.54C861.781 442.797 860.12 441.359 858.21 440.327C856.3 439.294 854.187 438.692 852.019 438.563C846.042 438.921 842.037 445.855 839.048 451.354C835.144 459.516 832.793 468.333 832.115 477.355C829.126 498.454 831.398 504.611 832.772 507.599C834.147 510.588 837.315 517.342 841.499 517.163C845.683 516.983 847.476 509.93 856.92 493.852C859.192 489.967 861.224 486.799 862.897 484.468C860.418 489.082 858.887 494.145 858.395 499.36C857.902 504.574 858.457 509.835 860.028 514.832C863.253 524.347 870.076 532.221 879.036 536.768C876.494 536.035 873.824 535.853 871.206 536.234C868.588 536.616 866.081 537.552 863.854 538.98C860.703 541.588 858.585 545.232 857.877 549.26C855.665 557.987 865.408 576.457 884.057 595.942C876.305 591.298 869.343 585.446 863.435 578.608C847.417 560.019 851.481 549.141 842.276 538.681C822.193 515.908 765.29 547.109 753.216 528.041C751.961 526.069 752.08 517.282 752.2 499.709C752.2 480.104 753.634 471.318 750.586 470.302C747.538 469.285 742.696 476.279 740.484 480.403C738.274 485.01 737.444 490.158 738.094 495.226C736.509 491.44 735.693 487.377 735.693 483.272C735.693 479.168 736.509 475.104 738.094 471.318C741.501 464.265 748.434 459.782 746.88 454.462C746.582 453.579 746.104 452.767 745.476 452.078C744.849 451.389 744.085 450.837 743.234 450.457C738.512 448.365 730.622 452.908 724.227 462.412C726.019 458.543 728.309 454.926 731.041 451.653C738.632 442.627 743.712 443.404 748.076 437.606C757.4 425.174 747.657 403.178 745.804 398.814C743.046 392.514 739.202 386.748 734.448 381.779C745.873 389.078 755.025 399.431 760.867 411.665C780.293 454.522 750.945 493.732 771.685 514.593C783.64 526.547 807.549 527.145 816.873 517.94C822.432 512.68 822.492 505.388 820.938 483.033C816.156 414.654 822.791 402.162 829.664 396.722C833.328 393.943 837.656 392.171 842.216 391.582C854.171 389.789 868.875 394.989 871.086 404.433C871.568 407.195 871.171 410.038 869.951 412.562Z" fill="#ECECEC"/>
<path d="M267.396 440.713C267.396 440.713 281.801 437.664 284.729 432.942C286.224 425.77 268.232 412.142 250.241 413.098C243.722 412.746 237.313 414.883 232.309 419.075C218.084 433.6 241.634 466.893 234.162 511.542C233.385 516.145 231.592 527.203 223.523 531.626C221.953 532.456 220.256 533.022 218.502 533.299C221.882 529.746 224.291 525.382 225.495 520.628C226.328 518.34 226.698 515.91 226.585 513.479C226.473 511.047 225.879 508.662 224.838 506.462C222.686 502.935 219.877 502.636 216.709 498.153C214.896 495.606 213.615 492.719 212.943 489.666C214.557 491.399 218.921 495.643 221.551 494.448C222.607 493.87 223.4 492.906 223.762 491.758C227.468 481.597 213.481 437.963 223.403 420.39C226.581 415.378 231.066 411.328 236.374 408.675C259.506 394.569 282.219 411.126 303.139 397.796C309.021 393.938 313.784 388.599 316.947 382.315C316.681 385.88 316.04 389.406 315.034 392.835C311.448 405.208 305.65 407.599 306.785 412.381C308.638 420.211 324.717 418.358 329.798 428.758C330.66 430.738 331.105 432.875 331.105 435.034C331.105 437.194 330.66 439.33 329.798 441.31C328.602 432.285 323.163 426.248 318.202 426.188C313.241 426.128 307.323 433.002 306.845 439.457C305.889 452.368 324.777 458.883 324.239 474.125C324.13 476.477 323.583 478.788 322.625 480.939C320.593 467.192 318.62 463.844 317.006 463.785C311.029 463.785 297.939 513.694 312.643 522.839C317.843 526.127 325.494 523.497 330.575 520.927C316.707 533.718 310.192 534.973 306.666 532.881C301.884 530.251 300.689 519.432 299.194 499.409C298.812 492.638 296.442 486.131 292.38 480.7L291.543 479.803C288.37 476.976 284.642 474.841 280.598 473.534C276.553 472.227 272.281 471.777 268.053 472.212C268.053 472.212 291.962 471.137 294.711 463.426C297.461 455.715 289.451 445.494 281.263 441.848C276.855 440.103 272.028 439.708 267.396 440.713ZM265.184 410.348C265.184 411.365 277.856 409.99 287.479 419.135C292.022 423.439 293.456 428.041 296.026 427.563C298.597 427.085 301.286 420.629 299.553 416.266C295.19 405.626 265.304 408.675 265.184 410.348Z" fill="#ECECEC"/>
<path d="M1120.99 330.969C1114.12 328.698 1109.04 339.038 1088.06 346.151C1083.24 348.476 1077.75 349.006 1072.58 347.645C1069.72 346.338 1067.17 344.435 1065.11 342.064C1063.05 339.693 1061.52 336.909 1060.62 333.898C1057.57 325.769 1060.02 316.803 1064.98 299.23C1069.95 281.657 1072.22 280.402 1074.55 279.386C1080.53 276.577 1089.07 280.82 1093.5 285.363C1096.61 289.027 1098.62 293.502 1099.29 298.265C1099.95 303.028 1099.25 307.882 1097.26 312.26C1098.41 310.513 1099.34 308.625 1100.01 306.642C1101.67 301.461 1101.92 295.932 1100.73 290.623C1099.9 284.909 1097.47 279.544 1093.73 275.142C1090.66 271.552 1086.95 268.554 1082.8 266.296C1079.9 264.501 1077.5 262.005 1075.81 259.039C1074.13 256.072 1073.22 252.73 1073.17 249.321C1073.09 243.313 1075.22 237.485 1079.15 232.943C1083.27 227.803 1087.82 222.901 1092.06 217.881C1092.72 217.01 1093.28 216.068 1093.73 215.071C1087.81 221.903 1080.7 227.613 1072.75 231.927C1065.81 235.651 1058.33 238.273 1050.58 239.697C1044.39 240.982 1038.07 241.584 1031.75 241.49C1025.43 241.587 1019.11 240.986 1012.92 239.697C1005.17 238.273 997.692 235.651 990.748 231.927C982.8 227.613 975.693 221.903 969.768 215.071C970.218 216.068 970.78 217.01 971.441 217.881C975.685 222.901 980.168 227.803 984.292 232.943C988.22 237.488 990.347 243.314 990.27 249.321C990.24 252.737 989.355 256.092 987.695 259.078C986.035 262.065 983.652 264.587 980.766 266.415C976.613 268.702 972.892 271.696 969.768 275.262C966.041 279.664 963.637 285.031 962.834 290.743C961.63 296.165 961.962 301.816 963.791 307.06C964.463 309.043 965.387 310.931 966.54 312.679C964.551 308.3 963.849 303.446 964.516 298.683C965.182 293.92 967.191 289.446 970.306 285.782C974.669 281.119 982.918 276.875 989.254 279.804C991.585 280.82 994.035 282.972 998.757 299.649C1003.48 316.325 1006.23 326.187 1003.18 334.316C1002.27 337.322 1000.74 340.101 998.676 342.471C996.615 344.84 994.076 346.746 991.226 348.064C986.052 349.424 980.563 348.894 975.745 346.57C954.885 339.457 949.625 329.116 942.751 331.387C935.877 333.659 930.797 346.51 934.981 354.639C940.3 365.936 958.889 360.616 972.099 374.483C976.994 380.033 980.171 386.886 981.244 394.208C981.405 389.861 980.942 385.513 979.869 381.297C978.035 377.171 977.294 372.643 977.717 368.147C977.914 366.383 978.634 364.717 979.784 363.364C980.934 362.012 982.463 361.034 984.173 360.556C994.367 357.913 1004.8 356.291 1015.31 355.715L1031.93 355.177L1048.55 355.715C1059.04 356.289 1069.46 357.911 1079.63 360.556C1081.35 361.031 1082.88 362.007 1084.04 363.359C1085.2 364.711 1085.94 366.378 1086.14 368.147C1086.55 372.648 1085.78 377.176 1083.93 381.297C1082.92 385.523 1082.46 389.863 1082.56 394.208C1083.65 386.881 1086.85 380.03 1091.76 374.483C1104.79 360.496 1123.5 365.936 1128.88 354.639C1132.53 346.091 1127.57 333.121 1120.99 330.969ZM970.126 365.338C967.909 363.703 965.594 362.206 963.193 360.855C955.602 356.611 952.075 356.791 949.744 353.324C947.413 349.857 947.174 344.119 949.744 342.505C952.314 340.891 957.335 342.505 971.202 354.459C970.241 356.083 969.637 357.894 969.431 359.77C969.225 361.646 969.421 363.544 970.007 365.338H970.126ZM1054.23 352.367C1053.75 352.666 1053.21 352.859 1052.66 352.931C1052.1 353.003 1051.53 352.954 1051 352.786C1038.28 351.431 1025.46 351.431 1012.74 352.786C1012.21 352.958 1011.64 353.009 1011.08 352.937C1010.53 352.865 1009.99 352.67 1009.52 352.367C1009.1 351.902 1008.8 351.347 1008.63 350.746C1008.47 350.144 1008.44 349.513 1008.56 348.901C1010.35 321.166 1002.58 293.612 1000.01 265.937C999.474 259.96 998.697 252.369 1003.24 248.304C1006.35 245.435 1011.01 244.539 1019.32 244.539H1044.36C1052.67 244.539 1057.39 245.435 1060.5 248.304C1065.04 252.369 1064.27 259.96 1063.67 265.937C1061.22 293.612 1053.21 321.166 1055.24 348.901C1055.34 349.527 1055.28 350.167 1055.08 350.769C1054.89 351.371 1054.55 351.918 1054.11 352.367H1054.23ZM1114 353.443C1111.67 356.91 1108.02 356.731 1100.49 360.975C1098.14 362.274 1095.88 363.732 1093.73 365.338C1094.37 363.544 1094.62 361.633 1094.45 359.735C1094.29 357.837 1093.72 355.997 1092.78 354.34C1106.65 342.386 1112.08 341.071 1114.24 342.386C1116.39 343.701 1116.15 349.977 1113.76 353.443H1114Z" fill="#ECECEC"/>
<path d="M1134.03 360.858C1133.8 358.855 1134.03 356.828 1134.69 354.925C1135.36 353.022 1136.43 351.291 1137.85 349.86C1142.87 345.974 1150.34 350.637 1153.27 347.11C1155.25 344.719 1153.99 340.535 1151.72 334.797C1148.99 327.41 1148.2 319.443 1149.45 311.665C1150.23 318.274 1152.4 324.643 1155.81 330.359C1159.22 336.074 1163.79 341.008 1169.23 344.839C1172.7 347.05 1184.06 354.402 1195.77 350.457C1214.9 344.002 1214.78 314.116 1214.72 312.622C1214.72 309.753 1214.72 299.113 1209.46 297.141C1205.39 295.527 1201.81 300.548 1195.71 303.118C1184.89 307.601 1163.91 296.663 1157.64 281.182C1150.34 263.25 1164.69 249.144 1155.72 232.707C1151.53 225.523 1144.89 220.091 1137.01 217.405C1145.08 217.405 1154.95 218.361 1160.57 225.175C1171.03 238.146 1156.86 261.038 1167.2 269.347C1170.18 271.068 1173.49 272.162 1176.91 272.563C1180.33 272.964 1183.8 272.663 1187.1 271.678C1191.77 270.482 1196.07 268.331 1195.53 268.749C1181.37 278.97 1178.86 283.214 1179.69 285.067C1180.53 286.92 1188.3 288.115 1193.98 285.067C1197.39 282.625 1199.99 279.203 1201.42 275.254C1202.85 271.305 1203.05 267.015 1201.99 262.951C1204.85 268.845 1205.28 275.631 1203.18 281.839C1201.81 285.246 1198.88 289.55 1199.89 290.506C1200.91 291.462 1201.69 290.506 1202.11 290.207C1210.06 286.92 1217.29 258.349 1217.29 258.349C1221.46 242.489 1229.1 227.75 1239.64 215.193C1236.34 222.43 1233.47 229.854 1231.04 237.429C1223.68 260.082 1216.99 280.644 1225.66 289.908C1230.01 293.587 1233.42 298.262 1235.58 303.536C1236.93 307.368 1237.48 311.437 1237.19 315.491C1235.82 309.035 1233.07 303.835 1230.02 303.536C1225.72 303.536 1220.34 313.04 1222.61 319.376C1224.1 323.56 1227.99 323.679 1230.8 328.581C1232.74 332.462 1233.29 336.895 1232.35 341.133C1228.53 332.346 1225.3 330.792 1223.27 330.733C1216.39 330.733 1215.5 346.572 1202.41 356.016C1194.15 361.078 1184.28 362.809 1174.79 360.858C1158.65 358.467 1152.56 349.441 1143.17 352.729C1139.29 354.32 1136.06 357.188 1134.03 360.858Z" fill="#ECECEC"/>
<path d="M433.978 251.357C434.937 243.679 438.837 236.673 444.856 231.812C448.975 228.714 453.896 226.864 459.035 226.482C464.175 226.101 469.315 227.204 473.846 229.66C493.391 242.75 477.611 291.344 493.391 297.083C495.332 297.725 497.428 297.725 499.368 297.083C514.67 291.524 503.134 244.961 522.201 234.442C526.565 232.051 528.178 234.083 534.574 230.795C543.248 225.92 549.965 218.189 553.582 208.919C553.163 210.533 552.446 213.043 551.549 215.972C547.186 231.214 543.958 235.338 541.866 242.69C537.383 257.514 539.057 275.326 544.078 276.88C546.648 277.657 550.055 274.25 553.701 269.767C557.822 264.297 561.124 258.257 563.504 251.835C563.504 253.15 563.026 255.302 562.428 257.812C556.032 288.296 539.655 295.648 538.519 313.759C537.443 329.778 548.62 347.351 558.064 347.53C565.596 347.53 573.187 338.086 577.849 325.056C571.872 347.351 556.749 360.381 544.436 358.648C532.123 356.914 524.592 338.385 524.174 337.249C518.974 322.247 525.728 312.862 530.51 286.204C535.769 257.394 533.498 237.191 532.482 237.072C531.466 236.952 533.558 292.899 508.573 304.016C504.699 305.877 500.395 306.659 496.114 306.281C491.833 305.902 487.733 304.376 484.246 301.864C469.004 287.579 489.865 249.923 472.591 236.115C471.933 235.577 466.255 231.094 461.593 232.947C452.328 236.653 455.914 262.116 454.42 310.232C453.224 346.634 450.475 354.105 444.976 356.974C434.874 362.294 418.796 350.459 410.727 343.764C412.46 344.96 422.681 351.834 432.005 348.068C444.557 343.047 444.557 323.502 444.617 318.182C444.617 307.064 440.732 293.974 436.249 293.795C431.766 293.616 428.598 302.94 427.642 307.064C426.522 310.78 426.136 314.678 426.506 318.541C425.675 316.725 425.053 314.819 424.653 312.862C423.816 304.741 425.939 296.591 430.631 289.91C446.112 261.757 451.252 253.389 448.562 245.679C448.562 244.782 447.068 241.435 444.677 240.897C439.596 240.06 434.277 250.7 433.978 251.357ZM522.44 241.315C518.376 241.016 509.47 289.133 513.355 290.567C515.208 291.165 520.408 280.526 522.739 272.038C526.863 257.334 524.712 241.315 522.44 241.315ZM530.808 320.573C529.314 320.573 526.206 337.608 535.351 346.753C541.328 352.73 550.832 353.687 551.549 352.252C552.267 350.818 545.572 348.427 539.595 340.298C531.645 330.495 532.064 320.394 530.808 320.573Z" fill="#ECECEC"/>
<path d="M464.521 623.853C464.521 623.853 478.926 620.805 481.855 616.143C483.349 608.91 465.358 595.282 447.366 596.239C440.848 595.887 434.439 598.023 429.435 602.216C415.209 616.74 438.759 650.033 431.288 694.683C430.511 699.285 428.718 710.343 420.648 714.766C419.078 715.597 417.382 716.162 415.628 716.44C419.051 712.918 421.466 708.542 422.621 703.768C423.472 701.489 423.862 699.063 423.77 696.632C423.678 694.2 423.104 691.811 422.083 689.602C419.931 686.076 417.122 685.777 413.954 681.294C412.155 678.746 410.894 675.858 410.248 672.807C411.802 674.6 415.926 678.784 418.795 677.588C419.852 677.011 420.645 676.047 421.007 674.899C424.713 664.737 410.726 621.104 420.648 603.531C423.703 598.444 428.111 594.305 433.38 591.576C456.512 577.41 479.225 593.967 500.145 580.638C506.027 576.78 510.79 571.441 513.952 565.157C513.706 568.837 513.085 572.482 512.099 576.036C508.513 588.409 502.655 590.799 503.791 595.581C505.644 603.411 521.723 601.558 526.863 611.959C527.705 613.944 528.139 616.078 528.139 618.235C528.139 620.391 527.705 622.525 526.863 624.511C525.668 615.485 520.288 609.448 515.267 609.388C510.247 609.329 504.389 616.202 503.911 622.658C502.954 635.569 521.842 642.084 521.304 657.326C521.196 659.678 520.648 661.989 519.69 664.14C517.658 650.392 515.686 647.045 514.132 646.985C508.155 646.985 495.005 696.895 509.709 706.04C514.909 709.327 522.56 706.697 527.64 704.127C513.773 716.918 507.258 718.173 503.731 716.081C498.95 713.451 497.754 702.633 496.26 682.609C495.906 675.833 493.533 669.317 489.446 663.9L488.609 663.004C485.437 660.174 481.71 658.037 477.665 656.729C473.62 655.422 469.347 654.974 465.119 655.413C465.119 655.413 489.027 654.337 491.777 646.686C494.527 639.035 486.517 628.755 478.328 625.049C473.945 623.296 469.14 622.88 464.521 623.853ZM462.309 593.489C462.309 594.505 475.041 593.489 484.604 602.276C489.147 606.579 490.582 611.182 493.152 610.703C495.722 610.225 498.471 603.77 496.678 599.407C492.315 588.707 462.489 591.816 462.309 593.429V593.489Z" fill="#ECECEC"/>
<path d="M858.658 685.36C851.784 683.149 846.703 693.429 825.723 700.542C820.897 702.907 815.382 703.458 810.183 702.096C807.315 700.789 804.763 698.879 802.7 696.496C800.637 694.113 799.112 691.314 798.228 688.289C795.18 680.22 797.571 671.254 802.592 653.681C807.373 637.005 809.764 634.853 812.095 633.777C818.431 631.027 826.68 635.212 831.103 639.754C834.217 643.431 836.223 647.916 836.89 652.687C837.556 657.459 836.855 662.322 834.868 666.711C835.977 664.813 836.898 662.811 837.618 660.734C839.263 655.569 839.49 650.057 838.275 644.775C837.375 639.23 834.931 634.051 831.222 629.832C828.133 626.231 824.404 623.231 820.224 620.986C817.333 619.153 814.951 616.62 813.3 613.621C811.649 610.622 810.782 607.255 810.78 603.831C810.713 597.844 812.839 592.04 816.758 587.513C820.882 582.313 825.365 577.472 829.668 572.451C830.274 571.544 830.833 570.606 831.342 569.642C820.142 582.362 804.98 590.933 788.306 593.969C775.88 596.28 763.135 596.28 750.71 593.969C733.931 590.891 718.695 582.209 707.494 569.343C708.004 570.307 708.562 571.245 709.168 572.152C713.472 577.173 717.955 582.014 722.079 587.215C725.998 591.741 728.124 597.546 728.056 603.532C728.054 606.956 727.187 610.323 725.536 613.322C723.885 616.321 721.504 618.854 718.612 620.687C714.471 623.04 710.803 626.141 707.793 629.832C704.035 634.214 701.627 639.591 700.86 645.313C699.645 650.595 699.872 656.107 701.517 661.272C702.237 663.349 703.158 665.351 704.267 667.249C702.28 662.86 701.579 657.997 702.245 653.225C702.912 648.454 704.919 643.969 708.032 640.292C712.455 635.63 720.704 631.446 727.04 634.315C729.371 635.391 731.762 637.543 736.544 654.219C741.564 671.792 743.955 680.758 740.907 688.827C740.023 691.852 738.498 694.651 736.435 697.034C734.372 699.416 731.82 701.327 728.953 702.634C723.754 703.996 718.238 703.445 713.412 701.08C692.611 693.967 687.351 683.687 680.478 685.898C673.604 688.11 668.523 701.08 672.707 709.209C678.027 720.446 696.616 715.186 709.826 729.053C714.727 734.576 717.906 741.411 718.971 748.718C719.102 744.392 718.639 740.068 717.596 735.867C715.767 731.74 715.026 727.213 715.444 722.718C715.633 720.95 716.35 719.281 717.501 717.927C718.653 716.573 720.185 715.597 721.899 715.127C732.076 712.484 742.485 710.843 752.981 710.225L769.657 709.747L786.274 710.225C796.769 710.843 807.179 712.484 817.355 715.127C819.069 715.597 820.602 716.573 821.753 717.927C822.905 719.281 823.622 720.95 823.811 722.718C824.229 727.213 823.488 731.74 821.659 735.867C820.615 740.068 820.153 744.392 820.284 748.718C821.348 741.411 824.527 734.576 829.429 729.053C842.519 715.007 861.228 720.446 866.548 709.209C870.313 700.542 865.352 687.572 858.658 685.36ZM707.793 719.789C705.615 718.175 703.34 716.698 700.979 715.366C693.388 711.122 689.802 711.301 687.471 707.834C685.14 704.368 684.96 698.689 687.471 697.016C689.981 695.342 695.062 697.016 708.929 708.97C707.986 710.591 707.397 712.393 707.201 714.258C707.006 716.122 707.207 718.008 707.793 719.789ZM791.892 706.818C791.414 707.111 790.876 707.295 790.318 707.357C789.761 707.419 789.196 707.358 788.665 707.177C775.925 705.902 763.09 705.902 750.351 707.177C749.82 707.358 749.255 707.419 748.697 707.357C748.139 707.295 747.602 707.111 747.123 706.818C746.739 706.334 746.457 705.778 746.292 705.182C746.128 704.587 746.085 703.964 746.167 703.352C748.02 675.617 740.19 648.062 737.679 620.388C737.141 614.411 736.304 606.82 740.847 602.456C745.594 599.293 751.334 597.975 756.986 598.751H782.03C787.682 597.975 793.422 599.293 798.168 602.456C802.711 606.581 801.874 614.411 801.336 620.388C798.766 648.062 790.996 675.617 792.849 703.352C792.93 703.964 792.888 704.587 792.723 705.182C792.559 705.778 792.276 706.334 791.892 706.818ZM851.664 707.834C849.333 711.301 845.687 711.122 838.156 715.366C835.796 716.698 833.52 718.175 831.342 719.789C831.99 717.999 832.246 716.09 832.091 714.192C831.936 712.294 831.375 710.452 830.445 708.791C844.312 696.836 849.692 695.462 851.903 696.836C854.115 698.211 853.876 704.368 851.545 707.834H851.664Z" fill="#ECECEC"/>
<path d="M537.862 650.749C540.966 651.352 544.161 651.308 547.246 650.619C550.332 649.93 553.242 648.611 555.794 646.744C559.098 643.462 561.499 639.383 562.766 634.902C564.033 630.42 564.123 625.688 563.026 621.162C560.755 609.207 552.387 606.219 551.729 593.846C551.54 590.123 552.026 586.397 553.164 582.848C552.576 585.868 552.576 588.973 553.164 591.993C553.269 594.799 554.42 597.465 556.392 599.464C557.811 600.175 559.377 600.544 560.964 600.544C562.552 600.544 564.117 600.175 565.537 599.464C575.16 595.998 576.774 585.597 587.354 580.517C593.021 578.149 599.27 577.545 605.285 578.783C629.194 581.473 652.744 604.246 656.689 630.187C657.306 634.969 657.306 639.81 656.689 644.592C648.919 626.183 645.153 622.118 643.121 622.656C639.236 623.553 638.757 641.544 643.121 656.367C647.111 669.483 654.277 681.411 663.981 691.095C642.164 681.173 624.352 679.141 619.989 685.715C616.403 691.214 621.663 702.93 626.564 709.624C630.817 714.609 635.746 718.975 641.208 722.595C640.79 723.312 630.27 717.036 616.403 711.716C601.4 705.739 593.869 703.049 585.262 702.75C574.198 702.632 563.242 704.937 553.164 709.505C543.959 713.33 535.95 718.53 535.591 718.052C535.232 717.574 557.886 706.098 556.75 695.04C556.392 691.334 553.403 685.715 550.355 686.194C549.175 686.452 548.058 686.939 547.067 687.628C543.498 689.715 539.286 690.417 535.232 689.601C541.593 687.872 547.204 684.09 551.192 678.842C557.169 669.995 558.543 657.025 554.419 654.335C552.566 653.14 550.833 654.335 545.752 653.977C542.858 653.718 540.108 652.593 537.862 650.749ZM609.947 626.063C606.309 622.027 604.195 616.848 603.97 611.419C603.97 602.991 609.947 599.464 608.154 592.411C607.574 590.352 606.513 588.459 605.058 586.89C603.603 585.321 601.796 584.12 599.786 583.386C592.434 580.935 584.783 587.988 581.855 590.558C569.362 602.094 569.9 620.982 569.9 625.226C570.498 638.854 575.877 640.109 575.16 651.885C574.443 668.202 564.042 673.701 566.971 680.037C571.096 689.003 598.292 691.513 614.789 678.603C628.477 667.903 629.373 650.928 631.166 616.918C631.704 606.697 631.166 598.986 626.385 595.759C624.216 594.865 621.844 594.582 619.526 594.94C617.208 595.299 615.033 596.284 613.235 597.791C606.959 602.872 605.285 614.348 609.947 626.063ZM647.126 678.184C649.935 674.299 638.996 658.34 632.9 659.834C630.509 660.372 629.074 663.48 628.776 665.811C628.118 671.31 633.856 675.255 634.753 676.032C638.997 678.782 645.512 680.455 647.126 678.184Z" fill="#ECECEC"/>
<path d="M1142.93 537.605C1146.43 537.605 1149.27 534.769 1149.27 531.269C1149.27 527.77 1146.43 524.934 1142.93 524.934C1139.43 524.934 1136.59 527.77 1136.59 531.269C1136.59 534.769 1139.43 537.605 1142.93 537.605Z" fill="#ECECEC"/>
<path d="M688.668 888.227C685.022 891.455 676.714 898.627 671.215 896.177C661.651 891.993 674.741 866.291 669.9 823.494C666.971 797.433 658.962 777.649 670.737 764.2C673.067 761.712 675.845 759.685 678.925 758.223C674.565 757.788 670.175 758.662 666.314 760.733C647.007 771.971 669.302 810.762 652.327 854.157C642.285 879.799 621.604 898.986 613.057 896.356C607.08 894.383 601.461 878.962 599.548 870.116C599.548 869.518 599.548 869.1 599.548 868.801C593.153 837.182 609.351 813.512 600.564 788.946C598.73 784.037 596.323 779.362 593.392 775.019C588.547 768.565 582.694 762.934 576.058 758.343C579.976 762.581 583.367 767.277 586.159 772.329C603.015 802.873 598.114 848.359 571.575 865.514C567.863 867.86 563.839 869.671 559.621 870.893C563.317 871.582 567.128 871.294 570.678 870.056C574.982 868.383 575.879 866.111 577.851 866.35C582.752 867.068 588.491 882.369 582.274 889.064C578.389 893.308 572.233 891.335 562.549 897.611C560.398 898.996 558.395 900.598 556.572 902.393C569.439 899.661 582.736 899.661 595.603 902.393C606.601 904.903 612.997 909.147 622.859 907.115C629.967 905.204 636.403 901.355 641.448 895.997C653.821 884.7 657.826 872.089 659.978 872.806C660.934 872.806 660.456 875.675 660.336 879.44C660.217 883.206 659.619 900.241 666.314 904.844C671.872 908.669 682.153 904.844 688.31 901.018C710.485 886.494 708.034 849.554 707.138 849.435C706.241 849.315 706.122 872.985 688.668 888.227Z" fill="#ECECEC"/>
<path d="M621.245 765.932C635.411 763.481 641.806 746.565 655.972 747.402C660.003 747.757 663.844 749.272 667.03 751.766C664.54 747.482 660.78 744.077 656.271 742.023C649.63 739.621 642.311 739.921 635.889 742.86C622.5 747.94 621.603 757.324 611.621 759.177C608.305 759.626 604.932 759.374 601.72 758.437C598.507 757.5 595.527 755.899 592.973 753.738C606.063 765.692 615.327 766.948 621.245 765.932Z" fill="#ECECEC"/>
</svg>
