<svg width="1400" height="2000" viewBox="0 0 1400 2000" fill="none" xmlns="http://www.w3.org/2000/svg">
<g clip-path="url(#clip0_207_1283)">
<rect width="1399.32" height="2000" transform="translate(0.0078125)" fill="#141414"/>
<path d="M2100.8 442.476C2101.06 439.915 2101.5 437.376 2102.12 434.878C2115.52 379.899 2191.08 418.247 2209.03 427.34C2372.17 510.077 2479.08 772.109 2537.22 952.958C2528.19 909.705 2366.13 158.788 2108.52 212.929C2029.55 229.5 1965.3 316.725 1920.55 397.548C2082.08 487.284 2177.8 790.714 2167.93 1045.15C2160.81 1234.37 2096.14 1421.32 2026.26 1468.11C1853.49 1583.69 1729.83 804.055 1592.48 979.161C1548.51 1035.22 1521.29 1165.87 1452.97 1173.17C1408.4 1177.96 1383.57 1126.27 1356.05 1099.41C1207.62 954.514 1099.94 1648.3 931.296 1573.82C857.831 1541.33 792.682 1360.96 774.914 1178.26C744.165 859.572 892.41 467.423 1023.19 494.703C1034.01 496.916 1113.64 513.547 1130.09 638.58C1165.99 911.919 859.028 1392.37 870.574 1441.9C885.65 1506.28 1397.69 615.01 1397.03 612.796C1358.5 663.886 1160.24 980.597 1132.37 900.612C1119.92 864.717 1139.13 743.752 1163.47 669.51C1212.77 519.35 1306.51 489.498 1396.79 612.796C1365.8 562.185 1125.79 183.196 822.475 342.988C580.485 470.773 456.349 858.735 408.489 1048.98C378.044 1054.01 348.168 1062.03 319.291 1072.91C191.626 1121.24 160.636 1207.51 105.897 1195.37C52.9523 1183.4 10.8359 1077.45 28.9028 989.511C46.1323 905.757 113.913 857.897 231.349 777.014C306.641 725.151 386.998 681.054 471.185 645.4C168.414 727.121 28.843 858.735 -42.049 971.025C-87.037 1042.1 -111.984 1117.12 -182.756 1135.42C-328.01 1172.87 -510.953 922.268 -502.159 936.806C-369.947 1154.99 -278.296 1198.84 -216.378 1191.84C-167.022 1186.27 -126.282 1148.35 -68.1324 1164.44C-23.0846 1176.88 19.6301 1219.48 15.6218 1255.55C6.16956 1333.14 -226.129 1427.07 -386.1 1366.35C-588.247 1289.35 -578.675 981.734 -578.136 965.521C-564.377 564.697 -40.1346 340.535 -14.111 329.766C-126.043 243.918 -225.591 221.065 -283.86 213.826C-525.371 183.914 -741.577 339.458 -911.06 461.261C-957.005 494.164 -997.147 529.7 -997.147 529.7C-1113.81 632.316 -1204.89 760.761 -1263.13 904.799C-1192.65 799.209 -945.04 456.534 -528.781 398.086C-452.206 387.318 -333.095 364.883 -318.079 416.632C-289.005 516.778 -843.817 765.169 -880.848 1150.44C-880.681 1173.02 -875.833 1195.33 -866.61 1215.95C-854.394 1163.45 -830.512 1114.37 -796.735 1072.37C-788.958 1062.62 -726.92 985.024 -702.99 994.596C-675.411 1005.66 -771.011 1150.5 -710.827 1296.65C-683.248 1363.59 -638.021 1393.63 -650.404 1407.27C-682.47 1442.62 -958.501 1210.98 -1134.03 1284.51C-1213.65 1317.83 -1282.45 1419.23 -1242.61 1466.13C-1168.13 1553.78 -907.59 1511.42 -725.185 1620.78C-642.388 1670.43 -610.92 1730.32 -597.4 1774.17C-595.709 1739.64 -602.293 1705.2 -616.604 1673.72C-634.97 1632.98 -661.771 1607.92 -646.935 1571.24C-642.625 1560.16 -635.972 1550.14 -627.432 1541.87C-603.083 1518.6 -570.12 1514.05 -556.54 1511.96C-466.803 1499.99 -335.189 1553.42 -335.189 1553.42C-288.346 1556.65 -220.625 1555.27 -150.87 1528.29C-21.589 1478.28 20.7667 1376.64 66.9513 1390.16C106.914 1402.12 89.1461 1481.69 122.708 1559.1C154.534 1632.5 239.665 1719.01 470.946 1780.45C470.946 1781.17 470.946 1781.23 470.946 1780.45C525.745 1457.4 462.87 1340.2 386.833 1296.65C348.067 1274.46 291.832 1263.45 292.669 1241.73C293.925 1209.25 421.83 1159.71 531.967 1181.91C573.682 1190.72 612.578 1209.69 645.215 1237.12C639.125 1296.65 638.524 1356.61 643.42 1416.24C650.998 1475.39 658.556 1534.53 666.094 1593.68C663.76 1502.96 667.157 1412.19 676.264 1321.9C677.879 1306.88 681.169 1277.63 687.152 1277.33C700.194 1276.79 697.86 1414.38 752.54 1546.54C782.288 1617.22 825.437 1681.48 879.607 1735.76C905.272 1752.27 942.722 1770.04 984.42 1764.36C1181.3 1737.62 1242.2 1227.97 1352.82 1230.01C1362.87 1230.01 1373.16 1235.99 1383.87 1248.73C1436.63 1311.43 1439.03 1458.65 1541.21 1636.15C1589.07 1719.01 1631.42 1761.79 1658.22 1784.04C1557.06 1651.17 1498.25 1461.41 1506.27 1321.06C1512.67 1209.55 1561.43 1127.29 1604.02 1107.84C1744.67 1043.77 1794.98 1675.82 1968.95 1713.99C2036.73 1728.82 2146.39 1673.42 2179.59 1436.52C2199.34 1296.17 2204.78 1083.56 2226.44 1084.27C2240.55 1084.81 2252.76 1174.31 2261.67 1245.38C2282.8 1421.3 2293.6 1598.3 2294.04 1775.49C2295.17 1775.49 2340.46 1284.39 2264.84 935.011C2207.71 669.809 2090.1 529.221 2100.8 442.476ZM-738.825 1467.21C-740.56 1476.12 -753.482 1477.98 -759.584 1494.79C-769.635 1522.67 -743.97 1545.22 -751.927 1552.94C-761.14 1561.79 -800.684 1537.2 -846.629 1518.66C-950.484 1476.78 -1003.67 1499.34 -1034.66 1459.97C-1053.74 1435.74 -1058.59 1395.48 -1038.01 1375.5C-980.935 1319.98 -730.868 1426.17 -738.825 1467.21ZM348.067 1324.05C498.465 1367.9 470.886 1763.7 471.006 1780.93C225.127 1672.35 116.665 1510.34 160.936 1413.91C188.455 1354.02 281.362 1304.67 348.067 1324.05ZM529.813 1046.94C503.491 1043.65 492.363 1050.59 486.141 1042.64C466.22 1017.03 580.485 943.985 637.677 802.978C682.725 691.286 656.223 624.522 721.431 572.534C750.925 548.604 800.639 527.247 823.133 544.776C857.053 571.697 793.819 664.425 744.404 859.512C705.877 1011.65 702.527 1121.07 662.803 1125.73C629.242 1129.62 606.449 1056.45 529.813 1046.94Z" fill="#ECECEC"/>
</g>
<defs>
<clipPath id="clip0_207_1283">
<rect width="1399.32" height="2000" fill="white" transform="translate(0.0078125)"/>
</clipPath>
</defs>
</svg>
