<svg width="1400" height="2000" viewBox="0 0 1400 2000" fill="none" xmlns="http://www.w3.org/2000/svg">
<rect width="1399.32" height="2000" fill="#141414"/>
<path d="M671.611 1394.79C668.39 1392.7 655.562 1419.01 636.828 1419.43C632.737 1419.21 628.73 1418.18 625.042 1416.4C621.354 1414.62 618.059 1412.12 615.349 1409.05C618.718 1411.31 622.514 1412.87 626.504 1413.62C630.495 1414.37 634.597 1414.29 638.558 1413.4C646.093 1410.98 652.468 1405.86 656.457 1399.02C662.423 1389.95 660.156 1386.79 664.75 1376.11C671.671 1360 686.527 1353.2 684.857 1350.52C683.902 1349.08 680.024 1352.07 672.924 1350.52C668.754 1349.69 664.869 1347.8 661.648 1345.03C660.156 1343.48 659.56 1342.1 657.412 1340.91C657.412 1340.91 653.355 1338.64 650.908 1339.66C648.462 1340.67 646.493 1347.77 649.119 1356.18C642.871 1347.85 639.766 1337.58 640.348 1327.19C641.267 1315.86 646.448 1305.31 654.846 1297.65C662.916 1289.85 673.479 1285.14 684.678 1284.35C701.92 1283.81 706.276 1294.43 719.163 1290.32C724.667 1288.43 729.667 1285.3 733.78 1281.19C736.089 1278.82 738.093 1276.18 739.747 1273.31C738.641 1279.37 736.262 1285.13 732.766 1290.2C727.993 1296.88 724.413 1297.3 722.265 1302.67C718.686 1311.62 722.981 1324.62 728.709 1325.82C733.184 1326.71 737.897 1320.45 741.835 1315.26C747.316 1307.83 751.105 1299.3 752.932 1290.26C753.916 1300.44 751.838 1310.68 746.966 1319.67C740.343 1331.01 732.468 1333.45 727.635 1346.7C727.158 1348.07 723.041 1359.82 728.172 1364.6C731.811 1368 738.315 1366.27 741.179 1365.49C746.467 1363.65 751.318 1360.73 755.425 1356.92C759.532 1353.11 762.806 1348.49 765.044 1343.36C762.998 1351.33 759.388 1358.81 754.424 1365.37C743.267 1379.81 731.811 1380.17 728.649 1391.56C727.532 1395.92 727.723 1400.5 729.198 1404.75C730.673 1408.99 733.367 1412.71 736.942 1415.43C740.28 1417.66 744.166 1418.92 748.175 1419.09C752.183 1419.26 756.161 1418.32 759.674 1416.38C755.502 1419.22 750.755 1421.09 745.773 1421.87C740.766 1422.85 735.601 1422.65 730.684 1421.3C725.767 1419.94 721.231 1417.46 717.433 1414.06C702.398 1397.53 725.189 1360.84 713.495 1352.96C709.676 1350.4 704.307 1352.37 698.818 1354.39C693.46 1356.36 688.713 1359.7 685.048 1364.08C681.384 1368.45 678.932 1373.71 677.936 1379.33C676.683 1388.46 681.516 1390.07 681.396 1398.72C681.396 1414.83 664.094 1432.67 645.897 1436.61C630.563 1440.01 624.836 1431.18 606.638 1434.1C596.035 1436 586.116 1440.65 577.881 1447.59C584.988 1436.81 596.083 1429.3 608.727 1426.71C617.199 1425.57 619.048 1428.73 630.623 1427.84C636.589 1427.36 653.951 1426.05 664.512 1412.92C670.895 1405.7 673.401 1395.86 671.611 1394.79ZM710.81 1316.15C710.81 1313.41 711.705 1300.4 703.531 1294.25C689.63 1283.87 662.364 1302.31 663.318 1309.89C663.318 1311.8 665.407 1313.05 665.287 1315.85C665.168 1318.66 662.006 1320.98 659.321 1322.47C660.356 1321.16 660.986 1319.58 661.134 1317.92C661.282 1316.25 660.943 1314.58 660.156 1313.11C659.202 1311.5 656.994 1309.23 655.443 1309.77C652.818 1310.66 652.34 1319.01 653.951 1324.86C657.233 1336.79 672.447 1350.81 689.331 1346.4C703.591 1342.16 710.034 1327.07 710.81 1316.15Z" fill="#ECECEC"/>
<path d="M812.831 281.3C812.491 280.661 812.112 280.043 811.698 279.45C812.891 284.489 813.234 289.692 812.712 294.843C812.354 299.08 810.982 306.776 809.55 306.776C808.118 306.776 810.922 285.655 799.944 271.396C793.696 264.009 785.026 259.082 775.482 257.494C778.465 258.926 781.985 261.134 781.926 263.461C781.866 265.788 775.542 268.472 770.351 271.993C757.225 280.882 756.33 298.841 755.256 298.602C754.182 298.364 756.569 278.496 767.845 212.688C762.102 220.763 754.263 227.117 745.173 231.064C748.883 246.401 750.152 262.227 748.932 277.959C748.414 284.743 747.417 291.482 745.949 298.125C742.199 314.651 734.754 330.113 724.172 343.35C725.717 341.464 727.817 340.115 730.174 339.493C732.531 338.872 735.024 339.01 737.298 339.889C738.14 340.55 738.835 341.38 739.339 342.325C739.842 343.27 740.143 344.31 740.221 345.378C741.653 353.97 731.928 361.248 731.033 361.845C738.242 362.037 745.455 361.778 752.631 361.069C777.033 358.743 789.921 357.49 800.779 348.421C819.573 333.087 823.69 300.452 812.831 281.3ZM787.355 337.145C786.102 346.273 770.59 353.97 761.223 349.375C755.256 346.452 751.915 338.696 753.645 336.667C755.376 334.639 758.001 338.04 763.609 337.98C774.348 337.98 779.658 326.763 784.432 328.851C786.937 329.985 787.773 334.281 787.355 337.145ZM802.271 322.587C800.302 329.627 796.304 337.085 793.679 336.667C791.054 336.25 792.904 324.735 787.355 321.036C778.346 315.069 759.91 336.071 753.407 331.536C746.903 327.002 752.452 300.511 770.411 288.818C772.38 287.565 784.909 279.391 794.634 284.343C806.567 290.428 805.254 311.668 802.271 322.587Z" fill="#ECECEC"/>
<path d="M359.872 403.905C359.265 408.003 357.801 411.927 355.576 415.42C350.151 422.835 342.111 427.911 333.083 429.62C325.412 431.328 317.542 431.971 309.695 431.529C285.83 432.365 270.795 432.902 264.411 442.149C262.86 444.357 263.098 445.192 261.368 463.986C259.817 480.751 256.416 489.581 259.638 491.312C262.86 493.042 268.349 483.913 282.012 474.487C291.14 468.52 305.221 458.557 314.289 462.554C326.222 467.685 330.219 496.562 319.182 516.967C314.065 525.491 306.71 532.45 297.917 537.088C289.124 541.727 279.228 543.868 269.303 543.278C260.712 543.278 247.705 541.727 241.978 532.718C230.045 513.506 263.934 478.186 251.882 457.9C251.047 456.528 248.362 451.934 244.782 451.934C239.83 451.934 235.773 460.645 234.759 466.91C234.029 471.586 234.671 476.373 236.608 480.692C238.308 484.399 240.864 487.651 244.066 490.178C238.033 488.045 232.97 483.808 229.806 478.245C226.442 471.004 226.077 462.725 228.792 455.216C232.551 443.283 240.725 439.703 238.637 433.797C237.698 431.874 236.275 430.23 234.506 429.027C232.738 427.824 230.686 427.103 228.554 426.935C225.529 427.061 222.563 427.813 219.843 429.143C222.354 426.371 225.709 424.505 229.389 423.833C236.727 422.162 239.89 426.04 247.288 426.816C252.621 427.07 257.933 425.992 262.745 423.68C267.557 421.367 271.718 417.893 274.852 413.571C278.55 408.317 280.625 402.094 280.818 395.672C281.717 397.932 282.182 400.34 282.191 402.772C282.191 414.167 271.63 420.671 273.301 423.296C274.971 425.921 281.176 422.282 296.331 416.912C311.485 411.542 312.857 412.318 319.241 408.559C325.056 405.173 330.343 400.951 334.933 396.03C332.366 401.619 328.645 406.6 324.014 410.647C313.812 419.537 303.311 419.597 303.55 421.685C303.789 423.773 322.284 428.487 339.348 421.148C347.598 417.323 354.681 411.372 359.872 403.905ZM306.175 525.976C307.547 526.871 314.468 521.68 315.244 514.58C315.841 509.807 313.633 503.901 310.471 503.364C307.309 502.827 304.982 511.239 298.18 512.79C294.629 513.326 291.009 512.448 288.097 510.344C291.55 510.363 294.954 509.522 298.001 507.898C302.893 504.621 306.531 499.784 308.323 494.176C311.426 487.135 316.557 475.62 312.678 472.041C304.684 464.642 264.232 489.402 267.036 503.244C267.991 508.196 274.971 511.776 273.718 514.163C272.466 516.549 264.053 512.671 260.712 516.311C257.371 519.95 259.041 528.243 263.814 532.777C274.613 542.682 300.865 529.436 303.431 522.515C304.768 518.699 307.169 515.345 310.352 512.85C305.101 523.052 305.101 525.499 305.877 525.976H306.175Z" fill="#ECECEC"/>
<path d="M466.188 413.571C461.561 410.277 455.996 408.562 450.318 408.678C437.968 409.156 434.447 419.477 421.083 420.074C413.267 420.432 411.537 417.031 405.213 419C402.191 420.202 399.438 421.992 397.114 424.266C394.789 426.539 392.938 429.251 391.669 432.245C386.12 443.641 388.03 458.378 392.683 459.81C395.667 460.704 397.456 455.156 403.184 455.037C410.105 455.037 414.102 462.972 417.503 461.42C419.89 460.347 418.458 456.17 421.56 451.994C423.789 449.253 426.918 447.393 430.39 446.743C428.837 447.604 427.495 448.8 426.463 450.245C425.431 451.69 424.734 453.348 424.424 455.096C423.648 462.793 433.851 470.31 442.92 471.503C447.117 471.664 451.298 470.897 455.165 469.257C459.032 467.617 462.49 465.145 465.293 462.017C469.426 458.093 472.61 453.277 474.601 447.937C474.064 450.323 469.112 468.938 452.525 475.501C447.171 477.72 441.32 478.461 435.581 477.649C426.035 476.157 424.066 470.847 415.713 469.833C412.237 469.48 408.726 469.826 405.385 470.85C402.045 471.875 398.943 473.558 396.263 475.799C382.004 488.209 390.297 513.029 391.371 516.728C393.459 522.694 395.368 528.661 400.38 530.809C408.017 534.209 412.313 524.425 426.453 524.186C434.805 524.186 436.237 527.408 451.392 528.183C455.382 528.585 459.411 528.343 463.324 527.467C468.832 526.011 473.908 523.248 478.121 519.413C477.052 521.439 475.707 523.306 474.123 524.962C464.577 535.104 449.721 532.658 449.662 534.866C449.602 537.073 462.191 540.832 472.334 536.894C474.004 536.238 475.317 535.462 475.317 535.522C469.915 540.3 463.015 543.044 455.807 543.278C444.65 542.502 443.874 531.346 433.254 530.093C421.918 528.959 419.293 541.429 405.69 542.025C395.726 542.443 390.536 535.104 383.853 538.565C380.986 540.516 377.729 541.819 374.307 542.383C372.961 542.572 371.596 542.572 370.25 542.383C379.379 536.417 383.794 527.527 381.646 520.547C380.572 517.026 377.41 512.85 373.83 512.731C367.864 512.731 363.449 523.231 361.897 529.257C361.37 531.369 361.05 533.527 360.943 535.701C360.213 527.882 361.528 520.007 364.761 512.85C367.639 508.042 370.786 503.401 374.188 498.948C379.319 490.894 387.552 477.947 383.078 471.384C381.659 469.583 379.653 468.337 377.41 467.864C368.639 465.299 359.511 472.637 359.511 472.16C365.168 468.939 370.333 464.92 374.844 460.227C384.689 448.295 382.779 431.35 381.944 424.429C380.684 414.186 377.092 404.369 371.443 395.731C374.718 399.473 378.492 402.746 382.66 405.457C395.786 413.869 410.582 415.182 411.179 413.392C411.776 411.602 407.301 411.125 403.244 405.636C401.593 403.331 400.286 400.799 399.366 398.118C411.298 412.616 419.472 414.943 424.901 414.048C430.331 413.153 434.865 408.082 447.275 406.053C450.145 405.426 453.116 405.426 455.986 406.053C460.159 407.293 463.768 409.952 466.188 413.571Z" fill="#ECECEC"/>
<path d="M669.042 414.169C661.025 412.08 652.514 413.095 645.213 417.011C637.912 420.927 632.359 427.455 629.665 435.29C628.076 431.265 627.95 426.81 629.307 422.701C634.139 409.874 657.945 403.907 677.037 406.89C690.819 408.979 697.143 414.706 708.121 411.007C708.778 411.007 720.054 406.89 720.054 400.387C719.822 398.905 719.269 397.491 718.434 396.244C717.6 394.998 716.503 393.948 715.221 393.168C716.843 393.329 718.407 393.858 719.793 394.717C721.179 395.575 722.35 396.739 723.216 398.12C725.364 403.072 718.622 407.308 716.415 417.988C714.207 428.667 718.92 430.457 716.415 437.319C712.417 447.282 700.843 446.507 700.186 451.876C698.933 462.496 743.144 468.94 747.201 490.538C747.973 496.39 746.549 502.321 743.203 507.184C744.692 502.883 744.92 498.246 743.86 493.819C740.697 481.35 726.856 474.31 724.827 475.921C722.799 477.531 725.364 485.347 733.657 497.936C736.594 504.012 737.594 510.843 736.521 517.506C734.492 530.333 713.551 542.326 685.33 542.922C689.387 542.505 705.616 540.357 713.491 527.111C715.281 524.069 717.548 520.31 716.176 518.222C710.926 510.227 665.761 548.829 632.648 532.839C623.698 528.484 610.751 518.162 611.348 507.661C611.311 505.436 611.799 503.233 612.774 501.232C613.748 499.232 615.181 497.489 616.956 496.146C618.787 495.181 620.871 494.806 622.923 495.072C621.442 496.326 620.241 497.876 619.398 499.624C618.556 501.371 618.089 503.276 618.03 505.215C618.437 508.163 619.7 510.927 621.662 513.164C623.624 515.402 626.199 517.015 629.068 517.804C642.432 521.503 653.351 505.871 668.147 510.704C669.859 511.304 671.483 512.126 672.98 513.15C670.121 512.912 667.245 513.325 664.568 514.358C661.891 515.391 659.484 517.018 657.527 519.117C655.2 522.04 653.291 526.992 654.902 528.901C660.868 535.584 717.548 511.002 715.221 487.137C713.909 473.474 693.444 462.138 677.335 460.886C666.442 460.526 655.663 463.19 646.191 468.582C641.775 470.943 637.634 473.785 633.841 477.054C635.839 473.461 638.307 470.15 641.18 467.21C662.599 445.134 697.322 453.07 700.127 441.793C701.141 437.736 697.322 433.62 694.578 430.636C683.123 418.226 660.868 421.806 648.1 427.415C645.93 428.362 643.818 429.438 641.776 430.636C643.873 427.017 646.648 423.837 649.95 421.269C655.581 417.269 662.166 414.821 669.042 414.169Z" fill="#ECECEC"/>
<path d="M1036.63 540.296C1056.67 535.285 1072.42 521.741 1076.3 504.499C1076.3 503.425 1080.72 484.512 1070.34 470.849C1067.55 466.624 1063.3 463.583 1058.4 462.317C1053.64 461.517 1048.74 462.585 1044.74 465.3C1048.25 460.815 1053.13 457.607 1058.64 456.172C1067.71 454.143 1073.5 459.214 1078.45 455.814C1081.08 453.964 1081.43 451.16 1082.93 439.705C1083.78 429.42 1085.37 419.211 1087.7 409.157C1089 402.223 1092.09 395.746 1096.65 390.363C1100.96 386.163 1106.29 383.149 1112.11 381.613C1117.93 380.076 1124.05 380.069 1129.88 381.593C1133.11 382.236 1136.09 383.788 1138.47 386.068C1132.83 384.682 1127.03 384.08 1121.23 384.278C1112.52 385.411 1102.97 390.841 1103.33 396.21C1103.51 397.957 1104.36 399.565 1105.72 400.685C1112.7 407.069 1128.75 399.671 1136.98 396.688C1139.03 395.82 1141.02 394.823 1142.95 393.704C1154.34 387.738 1165.62 383.741 1175.94 387.261C1178.86 388.245 1181.54 389.83 1183.82 391.915C1177.15 389.886 1170.06 389.701 1163.29 391.378C1156.89 393.08 1151.05 396.433 1146.35 401.103C1143.1 403.473 1140.79 406.919 1139.84 410.828C1139.51 412.632 1139.57 414.486 1140.01 416.266C1140.45 418.046 1141.27 419.711 1142.41 421.149C1146.5 426.635 1151.1 431.728 1156.13 436.363C1165.03 444.519 1171.26 455.163 1174.03 466.911C1176.6 489.165 1147.3 499.487 1148.55 525.44C1149.02 531.81 1151.07 537.963 1154.52 543.339C1149.8 540.672 1145.98 536.664 1143.54 531.824C1140.83 525.174 1140.07 517.891 1141.34 510.823C1142.11 503.246 1142.23 495.549 1142.53 487.972C1142.53 484.989 1142.05 484.512 1139.43 485.585C1135.84 487.125 1131.92 487.76 1128.03 487.435C1121.65 486.779 1119.44 481.051 1110.67 476.815C1101.9 472.579 1087.7 472.877 1083.94 478.665C1081.97 481.707 1083.94 484.154 1084.54 492.327C1085.39 500.463 1084.14 508.681 1080.9 516.193C1075.74 525.008 1067.59 531.678 1057.93 534.986C1051.17 537.932 1043.97 539.727 1036.63 540.296ZM1085.79 466.851C1089.07 467.985 1093.43 462.556 1095.93 460.05C1109.18 447.103 1130.6 458.081 1137.7 449.31C1144.8 440.54 1133.46 409.336 1118.25 407.129C1098.5 404.265 1080.06 450.026 1082.87 462.078C1083.04 463.152 1083.76 466.135 1085.79 466.851ZM1148.38 499.368C1149.75 499.785 1152.43 496.205 1157.8 489.046C1165.14 479.202 1165.92 476.338 1166.22 474.369C1166.75 470.431 1166.22 463.987 1163.11 462.436C1160.01 460.885 1155.06 465.658 1154.16 466.553C1151.07 469.736 1149 473.764 1148.2 478.128C1146.35 485.943 1145.27 498.413 1148.38 499.368ZM1131.85 457.604C1124.63 457.246 1118.84 465.002 1119.92 469.536C1121.53 475.86 1139.19 478.486 1142.29 473.414C1142.77 471.688 1142.87 469.879 1142.58 468.111C1142.3 466.342 1141.64 464.655 1140.65 463.162C1139.67 461.67 1138.37 460.406 1136.85 459.458C1135.33 458.509 1133.62 457.897 1131.85 457.663V457.604Z" fill="#ECECEC"/>
<path d="M644.345 264.113C644.345 264.113 658.724 261.071 661.647 256.417C663.079 249.198 645.18 235.594 627.281 236.549C620.776 236.21 614.383 238.341 609.383 242.515C595.183 257.014 618.69 290.246 611.232 334.814C610.456 339.408 608.726 350.446 600.612 354.861C599.045 355.69 597.351 356.254 595.6 356.531C599.017 353.016 601.428 348.648 602.581 343.883C603.412 341.6 603.782 339.174 603.669 336.747C603.556 334.32 602.963 331.939 601.925 329.743C599.777 326.223 596.973 325.924 593.81 321.45C592.015 318.906 590.756 316.023 590.111 312.977C591.663 314.708 596.078 318.944 598.643 317.75C599.698 317.174 600.489 316.212 600.851 315.066C604.55 304.923 590.589 261.369 600.493 243.828C603.582 238.783 607.972 234.662 613.201 231.895C636.291 217.815 658.962 234.342 679.845 221.037C685.716 217.186 690.47 211.856 693.627 205.584C693.387 209.14 692.767 212.66 691.777 216.085C688.197 228.435 682.41 230.821 683.484 235.594C685.334 243.41 701.383 241.561 706.514 251.942C707.344 253.926 707.772 256.056 707.772 258.207C707.772 260.358 707.344 262.487 706.514 264.471C705.321 255.462 699.891 249.436 694.581 249.377C689.271 249.317 683.961 256.298 683.484 262.801C682.529 275.688 701.383 282.191 700.906 297.405C700.734 299.693 700.169 301.933 699.235 304.028C697.206 290.305 695.238 286.964 693.686 286.905C687.72 286.905 674.594 336.723 689.271 345.852C694.462 349.133 702.099 346.508 707.17 343.943C693.328 356.71 686.825 357.963 683.305 356.173C678.532 353.548 677.339 342.749 675.847 322.762C675.674 316.023 673.469 309.493 669.523 304.028L669.046 303.372C665.824 300.501 662.034 298.342 657.921 297.036C653.809 295.731 649.467 295.308 645.18 295.794C645.18 295.794 669.046 294.721 671.79 287.084C674.535 279.447 666.599 269.185 658.366 265.486C653.937 263.628 649.05 263.15 644.345 264.113ZM642.137 233.805C642.137 234.819 654.846 233.506 664.392 242.575C668.926 246.871 670.358 251.465 672.983 250.988C675.608 250.51 678.234 244.067 676.444 239.711C672.088 229.091 642.316 232.432 642.137 233.805Z" fill="#ECECEC"/>
<path d="M424.424 1324.92C424.424 1324.92 438.803 1321.94 441.726 1317.23C443.218 1310.07 425.319 1296.47 407.36 1297.42C400.855 1297.08 394.459 1299.21 389.462 1303.39C375.262 1317.88 398.769 1351.12 391.311 1395.69C390.536 1400.34 388.805 1411.38 380.691 1415.79C379.124 1416.62 377.431 1417.18 375.679 1417.46C379.097 1413.95 381.507 1409.58 382.66 1404.81C383.491 1402.53 383.861 1400.1 383.748 1397.68C383.635 1395.25 383.042 1392.87 382.004 1390.67C379.856 1387.15 377.111 1386.85 373.89 1382.38C372.094 1379.84 370.835 1376.95 370.19 1373.91C371.742 1375.64 376.157 1379.87 378.722 1378.68C379.253 1378.39 379.721 1378 380.099 1377.53C380.478 1377.06 380.76 1376.52 380.93 1375.94C384.629 1365.85 370.668 1322.24 380.572 1304.76C383.659 1299.71 388.049 1295.59 393.28 1292.83C416.37 1278.75 439.042 1295.21 459.924 1281.97C465.795 1278.12 470.549 1272.79 473.706 1266.51C473.572 1270.1 473.052 1273.66 472.155 1277.13C468.575 1289.48 462.787 1291.81 463.861 1296.64C465.711 1304.46 481.76 1302.61 486.891 1312.99C487.725 1314.98 488.154 1317.11 488.154 1319.26C488.154 1321.41 487.725 1323.54 486.891 1325.52C485.698 1316.51 480.269 1310.49 474.959 1310.43C469.649 1310.37 464.1 1317.23 463.623 1323.67C462.668 1336.56 481.522 1343.06 481.044 1358.28C480.893 1360.62 480.328 1362.93 479.374 1365.08C477.345 1351.36 475.376 1348.01 473.825 1347.95C467.859 1347.95 454.733 1397.71 469.41 1406.9C474.601 1410.18 482.238 1407.56 487.309 1404.99C473.467 1417.7 466.964 1419.01 463.444 1416.93C458.671 1414.3 457.477 1403.56 455.986 1383.51C455.661 1376.76 453.289 1370.27 449.184 1364.9L448.409 1364C445.244 1361.16 441.514 1359.01 437.464 1357.71C433.413 1356.4 429.132 1355.97 424.901 1356.43C424.901 1356.43 448.767 1355.35 451.511 1347.66C454.256 1339.96 446.32 1329.76 438.087 1326.12C433.748 1324.39 428.997 1323.98 424.424 1324.92ZM422.276 1294.44C422.276 1295.51 434.984 1294.14 444.531 1303.27C449.065 1307.56 450.497 1312.1 453.122 1311.68C455.747 1311.26 458.372 1304.7 456.582 1300.4C452.227 1289.96 422.455 1293.06 422.276 1294.44Z" fill="#ECECEC"/>
<path d="M258.561 1512.03C258.561 1512.03 272.94 1508.99 275.863 1504.33C277.355 1497.11 259.396 1483.51 241.438 1484.46C234.931 1484.11 228.534 1486.25 223.539 1490.43C209.339 1504.93 232.846 1538.16 225.389 1582.73C224.613 1587.32 222.823 1598.36 214.709 1602.78C213.145 1603.71 211.428 1604.35 209.638 1604.68C213.011 1601.14 215.415 1596.78 216.618 1592.04C218.263 1587.42 218.028 1582.34 215.962 1577.9C213.814 1574.38 211.01 1574.08 207.848 1569.6C206.038 1567.06 204.759 1564.18 204.089 1561.13C205.7 1562.92 210.055 1567.1 212.68 1565.9C213.204 1565.63 213.665 1565.25 214.035 1564.79C214.404 1564.32 214.674 1563.79 214.828 1563.22C218.587 1553.08 204.626 1509.52 214.53 1491.98C217.579 1486.9 221.979 1482.77 227.238 1480.05C250.328 1465.91 273 1482.44 293.882 1469.13C299.753 1465.28 304.507 1459.95 307.664 1453.68C307.399 1457.24 306.759 1460.76 305.755 1464.18C302.175 1476.53 296.388 1478.92 297.521 1483.69C299.371 1491.5 315.42 1489.65 320.491 1500.04C321.352 1502.01 321.796 1504.14 321.796 1506.3C321.796 1508.46 321.352 1510.59 320.491 1512.57C319.298 1503.56 313.869 1497.53 308.917 1497.47C303.965 1497.41 298.058 1504.27 297.581 1510.72C296.626 1523.6 315.48 1530.11 314.943 1545.32C314.834 1547.67 314.288 1549.97 313.332 1552.12C311.303 1538.4 309.334 1535.06 307.724 1535C301.757 1535 288.691 1584.82 303.368 1593.95C308.559 1597.23 316.196 1594.6 321.267 1592.1C307.425 1604.8 300.922 1606.06 297.402 1604.03C292.629 1601.4 291.436 1590.6 289.944 1570.62C289.562 1563.86 287.196 1557.36 283.142 1551.94L282.307 1551.05C279.144 1548.22 275.422 1546.09 271.383 1544.8C267.343 1543.5 263.076 1543.07 258.86 1543.53C258.86 1543.53 282.725 1542.4 285.469 1534.76C288.214 1527.12 280.219 1516.86 272.045 1513.16C267.754 1511.49 263.071 1511.1 258.561 1512.03ZM256.354 1481.72C256.354 1482.73 269.002 1481.72 278.608 1490.49C283.142 1494.85 284.574 1499.38 287.14 1498.9C289.705 1498.43 292.39 1491.98 290.66 1487.63C286.305 1477.01 256.473 1480.11 256.354 1481.72Z" fill="#ECECEC"/>
<path d="M1226.65 1339.36L1225.58 1337.57C1226.71 1342.44 1227.05 1347.45 1226.59 1352.43C1226.17 1356.55 1224.92 1364.36 1223.55 1364.36C1221.28 1364.36 1224.8 1344.08 1214.24 1330.35C1208.23 1323.22 1199.87 1318.47 1190.68 1316.93C1193.54 1318.3 1196.64 1320.45 1196.64 1322.9C1196.64 1325.34 1190.68 1327.67 1185.48 1331.07C1172.84 1339.6 1171.94 1356.9 1170.93 1356.72C1169.91 1356.55 1172.18 1337.33 1182.86 1273.97C1177.37 1281.84 1169.81 1288.03 1161.02 1291.87C1164.62 1306.62 1165.85 1321.84 1164.66 1336.98C1164.19 1343.52 1163.23 1350.02 1161.8 1356.43C1158.19 1372.34 1151.03 1387.22 1140.86 1399.98C1142.32 1398.15 1144.34 1396.84 1146.6 1396.24C1148.87 1395.64 1151.27 1395.78 1153.45 1396.64C1154.25 1397.28 1154.92 1398.07 1155.41 1398.97C1155.9 1399.87 1156.21 1400.87 1156.31 1401.89C1157.62 1410.18 1148.31 1417.16 1147.42 1417.76C1154.35 1417.92 1161.28 1417.68 1168.18 1417.04C1191.69 1414.78 1203.98 1413.52 1214.54 1404.81C1233.16 1389.24 1237.15 1357.86 1226.65 1339.36ZM1202.13 1393.06C1200.94 1401.89 1185.96 1409.29 1177.01 1404.99C1171.34 1402.19 1168.06 1394.73 1169.67 1392.76C1171.28 1390.79 1173.91 1394.13 1179.28 1394.01C1189.6 1394.01 1194.73 1383.21 1199.27 1385.24C1201.77 1386.32 1202.55 1390.37 1202.13 1393.12V1393.06ZM1216.51 1379.1C1214.6 1385.84 1210.54 1393.06 1208.28 1392.64C1206.01 1392.22 1207.5 1381.25 1202.31 1377.61C1193.66 1371.64 1175.88 1392.1 1169.61 1387.69C1163.35 1383.27 1168.72 1357.86 1186.02 1346.58C1187.93 1345.33 1199.98 1337.51 1209.29 1342.29C1220.63 1348.13 1219.37 1368.66 1216.51 1379.16V1379.1Z" fill="#ECECEC"/>
<path d="M620.838 1314.48C619.632 1325.57 614.978 1336.01 607.533 1344.31C597.62 1354.52 584.213 1360.59 570.005 1361.32C554.254 1361.62 548.049 1353.86 542.142 1358.63C535.221 1364.18 535.758 1381.07 537.13 1389.66C538.98 1405.47 539.875 1413.52 537.608 1416.21C532.119 1422.95 516.368 1423.55 508.134 1415.31C505.445 1412.52 503.604 1409.02 502.824 1405.23C505.725 1409.59 510.226 1412.63 515.353 1413.7C519.731 1414.6 524.285 1413.76 528.062 1411.37C533.312 1407.32 532.178 1400.52 531.82 1373.97C531.82 1357.68 531.82 1351.77 529.315 1351C525.675 1349.86 519.888 1359.59 519.112 1360.78C514.66 1367.69 512.567 1375.85 513.146 1384.05C511.64 1379.18 510.895 1374.11 510.938 1369.01C511.416 1343 533.67 1330.05 528.062 1316.87C527.051 1314.37 525.308 1312.23 523.061 1310.74C520.814 1309.25 518.169 1308.47 515.473 1308.52C512.442 1309.1 509.726 1310.77 507.828 1313.2C505.93 1315.64 504.979 1318.68 505.151 1321.76C504.749 1320.93 504.468 1320.05 504.316 1319.14C502.228 1306.73 525.377 1285.07 547.154 1285.84C565.649 1286.5 576.985 1297.78 583.966 1291.81C585.664 1289.87 586.783 1287.5 587.195 1284.95C587.606 1282.41 587.294 1279.8 586.293 1277.43C584.705 1273.73 581.728 1270.79 578 1269.26C581.036 1269.49 583.98 1270.41 586.614 1271.94C589.247 1273.47 591.503 1275.57 593.214 1278.09C596.436 1284.05 593.214 1288.11 595.779 1297C597.629 1302.97 602.223 1310.78 606.877 1310.54C611.53 1310.3 615.468 1302.79 616.602 1292.23C617.367 1299.86 616.513 1307.56 614.096 1314.84C609.382 1328.5 599.598 1338.11 600.91 1339.36C602.223 1340.61 605.206 1337.39 606.101 1336.68C613.196 1330.99 618.346 1323.23 620.838 1314.48ZM579.074 1321.88C570.363 1331.78 561.175 1329.99 546.438 1342.4C544.35 1344.19 538.145 1349.5 539.278 1351.53C540.412 1353.56 547.273 1350.16 557.177 1349.86C572.451 1349.44 577.045 1357.14 583.19 1354.52C596.137 1348.91 592.199 1306.78 587.486 1306.78C585.517 1306.37 586.352 1313.77 579.551 1321.88H579.074ZM537.309 1338.64C539.636 1341.57 554.373 1333.57 564.217 1325.7C570.184 1321.1 575.434 1316.63 574.48 1312.21C573.67 1310.27 572.29 1308.62 570.521 1307.48C568.752 1306.34 566.679 1305.77 564.575 1305.83C558.609 1305.83 553.657 1312.33 544.529 1325.34C539.338 1333.28 536.593 1337.21 537.787 1338.64H537.309ZM568.454 1298.61C567.917 1296.82 543.932 1296.7 536.713 1310.13C532.835 1317.29 534.684 1326.83 537.13 1327.43C539.577 1328.02 541.904 1316.75 553.418 1307.26C558.291 1303.94 563.441 1301.05 568.812 1298.61H568.454Z" fill="#ECECEC"/>
<path d="M862.592 1273.85C857.779 1277.28 853.869 1281.82 851.196 1287.09C848.599 1291.87 847.303 1297.24 847.438 1302.67C847.855 1310.6 853.404 1322.83 862.413 1323.43C870.468 1323.97 876.434 1315.26 876.971 1314.42C876.155 1317.52 874.691 1320.4 872.675 1322.89C868.807 1327.17 863.729 1330.16 858.117 1331.48C840.218 1338.29 833.476 1391.15 843.56 1395.68C848.631 1397.83 859.549 1388.82 862.174 1377.78C863.42 1372.06 862.661 1366.07 860.027 1360.84C863.337 1364.26 865.584 1368.56 866.494 1373.23C867.405 1377.9 866.941 1382.74 865.158 1387.15C861.697 1394.97 855.194 1396.28 855.552 1401.89C855.571 1403.07 855.88 1404.24 856.452 1405.28C857.024 1406.32 857.841 1407.2 858.833 1407.85C863.308 1410.3 872.138 1405.05 880.491 1394.37C872.019 1408.75 860.205 1418.95 850.659 1417.04C837.892 1414.48 826.794 1389.83 831.03 1371.7C832.283 1365.73 835.386 1359.17 831.925 1353.8C830.881 1352.05 829.329 1350.65 827.476 1349.8C825.622 1348.95 823.554 1348.68 821.544 1349.02C819.062 1350.14 817.08 1352.14 815.979 1354.62C814.878 1357.11 814.735 1359.92 815.578 1362.51C816.328 1364.75 817.727 1366.72 819.596 1368.16C821.465 1369.6 823.721 1370.46 826.078 1370.62C822.605 1371.17 819.049 1370.51 815.995 1368.77C808.12 1364.06 810.029 1353.38 802.094 1350.1C800.811 1349.51 799.417 1349.21 798.007 1349.21C796.597 1349.21 795.203 1349.51 793.92 1350.1C792.548 1351.05 792.548 1351.95 791.354 1353.44C789.311 1355.79 786.456 1357.28 783.36 1357.62C791.712 1347.77 790.4 1336.14 785.448 1332.8C780.496 1329.46 773.515 1331.84 767.549 1337.81C769.697 1335.72 791.832 1313.59 785.448 1288.47C784.181 1283.51 781.951 1278.84 778.885 1274.74C783.021 1277.58 786.55 1281.21 789.266 1285.42C802.571 1306.37 788.908 1328.08 799.707 1338.52C807.762 1346.34 827.152 1345.09 835.505 1335.96C846.841 1323.61 832.641 1302.55 845.469 1285.36C849.888 1279.89 855.856 1275.88 862.592 1273.85Z" fill="#ECECEC"/>
<path d="M892.182 1417.34C891.958 1415.37 892.173 1413.37 892.813 1411.49C893.452 1409.62 894.5 1407.9 895.881 1406.48C900.833 1402.66 908.291 1407.25 911.154 1403.79C913.123 1401.41 911.87 1397.29 909.603 1391.86C906.932 1384.56 906.173 1376.69 907.396 1369.01C908.169 1375.53 910.306 1381.82 913.667 1387.46C917.028 1393.11 921.539 1397.98 926.905 1401.77C930.366 1403.97 941.583 1411.25 953.157 1407.31C972.07 1400.93 971.951 1371.52 971.891 1369.97C971.891 1367.1 971.891 1356.6 966.701 1354.63C962.644 1353.08 959.183 1357.97 953.098 1360.6C942.418 1365.01 921.655 1354.21 915.51 1338.88C908.291 1320.98 922.49 1307.32 913.601 1291.15C909.382 1284.17 902.831 1278.91 895.105 1276.29C903.04 1276.29 913.004 1277.25 918.374 1283.99C928.695 1296.82 914.734 1319.25 924.937 1327.66C927.893 1329.36 931.163 1330.43 934.548 1330.82C937.933 1331.21 941.361 1330.91 944.625 1329.93C949.219 1328.74 953.456 1326.65 952.919 1327.07C938.957 1337.15 936.452 1341.33 937.287 1343.18C938.122 1345.03 945.759 1346.22 951.427 1343.18C954.802 1340.75 957.361 1337.36 958.768 1333.45C960.174 1329.54 960.36 1325.3 959.302 1321.28C962.1 1327.14 962.528 1333.85 960.496 1340.01C959.183 1343.36 956.26 1347.59 957.274 1348.55C958.288 1349.5 959.004 1348.55 959.422 1348.25C967.297 1345.03 974.457 1316.75 974.457 1316.75C978.617 1301.1 986.152 1286.56 996.532 1274.15C993.28 1281.3 990.432 1288.63 988 1296.1C980.781 1318.48 974.159 1338.82 982.69 1348.01C987.015 1351.6 990.378 1356.22 992.475 1361.43C993.83 1365.26 994.398 1369.32 994.146 1373.37C992.714 1366.98 990.029 1361.85 987.046 1361.43C982.81 1361.43 977.44 1370.8 979.707 1377.07C981.139 1381.24 985.017 1381.3 987.762 1386.19C989.704 1390.02 990.253 1394.41 989.313 1398.6C985.554 1389.89 982.392 1388.34 980.363 1388.28C973.562 1388.28 972.667 1403.97 959.72 1413.28C951.606 1418.2 941.941 1419.91 932.633 1418.05C916.703 1415.67 910.617 1406.72 901.37 1410C897.579 1411.36 894.348 1413.94 892.182 1417.34Z" fill="#ECECEC"/>
<path d="M1014.67 1405.59C1012 1400.2 1010.11 1394.45 1009.07 1388.52C1007.79 1380.29 1007.93 1371.89 1009.48 1363.7C1016.46 1329.64 1053.04 1313.83 1047.07 1300.7C1046.38 1299.44 1045.44 1298.33 1044.32 1297.44C1043.19 1296.55 1041.89 1295.89 1040.51 1295.51C1029.95 1292.23 1011.33 1317.82 1009.6 1320.15C1012.1 1311.3 1016.45 1303.09 1022.37 1296.06C1028.28 1289.02 1035.63 1283.32 1043.91 1279.34C1046.35 1278.27 1069.38 1268.48 1088.89 1277.85C1096.09 1282.24 1103.52 1286.22 1111.15 1289.78C1116.99 1292.2 1123.17 1293.71 1129.47 1294.26C1124.64 1296.43 1120.87 1300.42 1118.96 1305.35C1116.22 1313.17 1118.96 1323.85 1126.24 1327.01C1129.43 1328.24 1132.96 1328.24 1136.15 1327.01C1135.78 1327.47 1135.36 1327.89 1134.89 1328.26C1130.63 1330.59 1125.66 1331.26 1120.93 1330.16C1116.2 1329.06 1112.04 1326.26 1109.24 1322.3C1106.14 1315.61 1114.07 1310.36 1111.57 1302.91C1109.06 1295.45 1096.35 1290.97 1087.7 1290.97C1062.11 1290.97 1029.17 1328.5 1036.51 1363.05C1040.51 1381.6 1056.8 1403.8 1078.27 1403.98C1084.47 1403.88 1090.55 1402.28 1095.99 1399.31C1101.43 1396.33 1106.06 1392.08 1109.48 1386.91C1112.37 1382.25 1114.29 1377.05 1115.11 1371.62C1115.93 1366.2 1115.64 1360.66 1114.25 1355.35C1113.56 1352.64 1112.6 1350 1111.39 1347.47C1116.81 1353.18 1120.56 1360.26 1122.23 1367.96C1123.89 1375.65 1123.4 1383.65 1120.81 1391.09C1112.94 1411.67 1090.21 1415.79 1083.94 1416.92C1066.04 1420.26 1042.83 1414.89 1032.93 1399.8C1024.28 1386.61 1028.1 1369.61 1023.44 1368.95C1020.1 1368.54 1016.46 1377.13 1015.63 1379.1C1012.34 1387.57 1012 1396.9 1014.67 1405.59Z" fill="#ECECEC"/>
<path d="M651.979 1573.48C645.118 1571.27 640.047 1581.53 619.045 1588.63C616.504 1590.13 613.643 1590.99 610.7 1591.16C607.758 1591.33 604.817 1590.79 602.123 1589.59C599.429 1588.4 597.059 1586.58 595.208 1584.28C593.357 1581.99 592.08 1579.29 591.481 1576.4C588.438 1568.35 590.884 1559.4 595.896 1541.86C600.609 1525.21 603.055 1523.06 605.382 1521.99C608.777 1521.1 612.353 1521.19 615.7 1522.24C619.046 1523.3 622.026 1525.28 624.295 1527.96C627.413 1531.62 629.427 1536.09 630.103 1540.86C630.779 1545.62 630.089 1550.48 628.114 1554.86C631.176 1549.01 632.474 1542.39 631.849 1535.82C631.224 1529.24 628.704 1522.99 624.594 1517.81C621.489 1514.3 617.768 1511.39 613.616 1509.22C610.734 1507.38 608.356 1504.85 606.7 1501.86C605.043 1498.87 604.159 1495.52 604.129 1492.1C604.062 1486.12 606.184 1480.33 610.096 1475.81C614.212 1470.62 618.687 1465.79 622.983 1460.78C623.59 1459.88 624.128 1458.95 624.594 1457.97C618.728 1464.8 611.648 1470.49 603.712 1474.74C596.768 1478.49 589.279 1481.12 581.517 1482.55C569.114 1484.86 556.392 1484.86 543.989 1482.55C527.241 1479.48 512.033 1470.81 500.853 1457.97C501.316 1458.96 501.876 1459.9 502.523 1460.78C506.819 1465.79 511.294 1470.62 515.41 1475.81C519.322 1480.33 521.444 1486.12 521.377 1492.1C521.42 1495.48 520.619 1498.81 519.045 1501.8C517.472 1504.79 515.177 1507.34 512.368 1509.22C508.195 1511.46 504.473 1514.46 501.39 1518.05C496.849 1523 494.047 1529.3 493.412 1535.99C492.777 1542.67 494.342 1549.39 497.87 1555.1C495.886 1550.72 495.186 1545.87 495.852 1541.1C496.517 1536.34 498.52 1531.87 501.628 1528.19C506.043 1523.54 514.277 1519.36 520.541 1522.23C522.928 1523.3 525.315 1525.45 530.088 1542.1C535.04 1559.64 537.486 1568.59 534.443 1576.64C533.561 1579.66 532.038 1582.46 529.979 1584.83C527.92 1587.21 525.373 1589.12 522.51 1590.42C517.321 1591.78 511.816 1591.23 506.998 1588.87C486.235 1581.77 480.985 1571.51 474.124 1573.72C467.262 1575.93 462.191 1588.87 466.367 1596.99C471.677 1608.2 490.233 1602.95 503.359 1616.79C508.279 1622.3 511.474 1629.12 512.547 1636.42C512.678 1632.11 512.216 1627.79 511.174 1623.6C509.361 1619.47 508.602 1614.96 508.967 1610.47C509.175 1608.7 509.905 1607.04 511.064 1605.69C512.222 1604.34 513.756 1603.37 515.47 1602.89C525.628 1600.26 536.019 1598.62 546.495 1598L563.081 1597.52L579.668 1598C590.164 1598.61 600.575 1600.25 610.752 1602.89C612.463 1603.36 613.993 1604.34 615.142 1605.69C616.292 1607.04 617.007 1608.71 617.196 1610.47C617.613 1614.96 616.873 1619.48 615.048 1623.6C613.976 1627.78 613.514 1632.1 613.675 1636.42C614.68 1629.08 617.812 1622.2 622.685 1616.62C635.751 1602.59 654.425 1608.02 659.735 1596.81C663.613 1588.63 658.602 1575.69 651.979 1573.48ZM501.33 1607.85C499.188 1606.22 496.936 1604.74 494.588 1603.43C486.951 1599.19 483.431 1599.37 481.104 1595.91C478.777 1592.45 478.598 1586.78 481.104 1585.11C483.61 1583.44 488.681 1585.11 502.523 1597.05C501.572 1598.66 500.974 1600.46 500.768 1602.32C500.563 1604.18 500.754 1606.06 501.33 1607.85ZM585.515 1594.9C585.026 1595.19 584.48 1595.38 583.913 1595.44C583.347 1595.5 582.773 1595.44 582.233 1595.26C575.902 1594.46 569.52 1594.14 563.141 1594.3C556.762 1594.14 550.379 1594.46 544.049 1595.26C543.518 1595.44 542.955 1595.5 542.398 1595.44C541.841 1595.37 541.305 1595.19 540.827 1594.9C540.444 1594.42 540.162 1593.86 539.998 1593.27C539.834 1592.67 539.791 1592.05 539.872 1591.44C541.722 1563.75 533.906 1536.25 531.4 1508.63C530.863 1502.66 530.028 1495.08 534.562 1490.73C539.301 1487.57 545.03 1486.25 550.671 1487.03H575.67C581.293 1486.24 587.009 1487.56 591.719 1490.73C596.314 1494.84 595.478 1502.36 594.941 1508.63C592.376 1536.25 584.62 1563.75 586.469 1591.44C586.55 1592.05 586.508 1592.67 586.344 1593.27C586.18 1593.86 585.898 1594.42 585.515 1594.9ZM645.178 1595.91C642.791 1599.37 639.211 1599.19 631.694 1603.43C629.338 1604.76 627.066 1606.23 624.892 1607.85C625.539 1606.06 625.794 1604.15 625.64 1602.26C625.485 1600.36 624.925 1598.53 623.997 1596.87C637.839 1584.93 643.209 1583.56 645.416 1584.93C647.624 1586.31 647.206 1592.75 645.178 1595.91Z" fill="#ECECEC"/>
<path d="M331.772 1539.05C334.87 1539.65 338.058 1539.6 341.137 1538.92C344.217 1538.23 347.122 1536.91 349.67 1535.05C352.997 1531.74 355.402 1527.61 356.647 1523.08C357.892 1518.55 357.934 1513.77 356.77 1509.22C354.503 1497.29 346.091 1494.3 345.494 1481.95C345.321 1478.23 345.847 1474.51 347.045 1470.98C346.458 1473.99 346.458 1477.09 347.045 1480.1C347.12 1482.91 348.274 1485.58 350.267 1487.56C351.684 1488.27 353.247 1488.64 354.831 1488.64C356.416 1488.64 357.978 1488.27 359.396 1487.56C369.001 1484.1 370.612 1473.72 381.173 1468.65C386.829 1466.29 393.067 1465.68 399.071 1466.92C422.937 1469.6 446.444 1492.34 450.382 1518.23C451.034 1523 451.034 1527.84 450.382 1532.61C442.685 1514.23 438.867 1510.17 436.838 1510.71C433.02 1511.61 432.542 1529.57 436.838 1544.36C440.822 1557.45 447.974 1569.36 457.661 1579.03C435.824 1569.12 418.104 1567.09 413.749 1573.66C410.169 1579.15 415.359 1590.84 420.312 1597.52C424.497 1602.56 429.378 1606.98 434.81 1610.65C434.452 1611.36 423.951 1605.1 410.109 1599.79C395.134 1593.82 387.616 1591.14 378.965 1590.84C367.901 1590.71 356.944 1593.01 346.866 1597.58C337.619 1601.4 329.624 1606.59 329.325 1606.11C329.027 1605.64 351.58 1594.18 350.446 1583.14C350.088 1579.44 347.105 1573.84 344.062 1574.31C342.873 1574.57 341.754 1575.08 340.781 1575.8C337.232 1577.68 333.141 1578.27 329.206 1577.47C335.577 1575.76 341.2 1571.98 345.196 1566.74C351.46 1557.91 352.475 1544.96 348.418 1542.27C346.568 1541.08 344.838 1542.27 339.766 1541.92C336.875 1541.78 334.089 1540.79 331.772 1539.05ZM403.725 1514.41C400.089 1510.39 397.978 1505.21 397.759 1499.79C397.759 1491.38 403.725 1487.86 401.876 1480.82C401.319 1478.75 400.268 1476.85 398.813 1475.28C397.357 1473.71 395.542 1472.52 393.523 1471.81C386.244 1469.42 378.607 1476.41 375.624 1478.97C363.154 1490.49 363.691 1509.34 363.691 1513.58C364.348 1527.18 369.658 1528.43 369.001 1540.19C368.285 1556.47 357.904 1561.96 360.827 1568.29C364.944 1577.24 392.031 1579.74 408.558 1566.85C422.221 1556.23 423.116 1539.23 424.906 1505.28C425.443 1495.08 424.906 1487.38 420.132 1484.16C417.968 1483.27 415.6 1482.99 413.287 1483.34C410.973 1483.7 408.801 1484.69 407.007 1486.19C400.921 1491.32 399.012 1502.6 403.725 1514.29V1514.41ZM440.836 1566.44C443.64 1562.62 432.721 1546.63 426.636 1548.12C424.249 1548.66 422.817 1551.76 422.519 1554.09C421.863 1559.58 427.59 1563.51 428.485 1564.35C432.721 1566.91 439.225 1568.88 440.836 1566.32V1566.44Z" fill="#ECECEC"/>
<path d="M629.012 1716.61C632.181 1717.21 635.438 1717.16 638.586 1716.46C641.734 1715.76 644.708 1714.43 647.329 1712.56C650.705 1709.16 653.161 1704.97 654.466 1700.37C655.771 1695.76 655.881 1690.9 654.787 1686.24C652.4 1674.01 643.749 1670.79 642.854 1658.08C642.674 1654.26 643.2 1650.44 644.405 1646.81C643.812 1649.9 643.812 1653.08 644.405 1656.17C644.5 1659.07 645.695 1661.82 647.747 1663.87C649.197 1664.61 650.802 1664.99 652.43 1664.99C654.058 1664.99 655.663 1664.61 657.114 1663.87C667.018 1660.29 668.688 1649.61 679.607 1644.42C685.389 1641.98 691.77 1641.34 697.923 1642.57C722.683 1645.32 746.787 1668.82 750.785 1695.49C751.431 1700.4 751.431 1705.38 750.785 1710.29C742.849 1691.38 738.852 1687.2 736.823 1687.74C732.886 1688.69 732.349 1707.19 736.823 1722.4C740.851 1735.94 748.217 1748.25 758.242 1758.2C735.749 1748 717.493 1745.79 712.958 1752.65C709.319 1758.32 714.688 1770.55 719.76 1777.23C724.118 1782.35 729.18 1786.83 734.795 1790.53C734.377 1791.31 723.519 1784.87 709.319 1779.38C693.866 1773.41 686.11 1770.49 677.22 1770.13C665.803 1769.99 654.496 1772.38 644.107 1777.11C634.621 1781.11 626.208 1786.42 626.208 1785.88C626.208 1785.34 649.178 1773.95 647.985 1762.02C647.627 1758.2 644.525 1752.41 641.422 1752.89C640.189 1753.15 639.028 1753.68 638.021 1754.44C634.364 1756.38 630.147 1756.99 626.089 1756.17C632.662 1754.45 638.451 1750.53 642.496 1745.07C648.999 1736.06 650.073 1722.64 645.837 1719.89C643.928 1718.7 642.138 1719.89 636.948 1719.54C634.076 1719.35 631.32 1718.33 629.012 1716.61ZM703.114 1691.26C699.423 1687.08 697.312 1681.74 697.148 1676.16C697.148 1667.45 703.114 1663.69 701.384 1656.59C700.804 1654.49 699.733 1652.56 698.26 1650.95C696.788 1649.34 694.954 1648.11 692.911 1647.34C685.334 1644.84 677.459 1652.12 674.595 1654.74C661.767 1666.67 662.304 1686.01 662.662 1690.54C663.259 1704.56 668.629 1705.81 668.092 1717.93C667.316 1734.69 656.636 1740.36 659.679 1746.86C663.915 1756.11 691.838 1758.79 708.901 1745.37C722.982 1734.45 723.936 1716.91 725.726 1681.95C726.323 1671.45 725.726 1663.21 720.834 1660.23C718.608 1659.29 716.166 1658.98 713.776 1659.34C711.387 1659.7 709.142 1660.71 707.29 1662.26C700.25 1667.33 698.281 1679.2 703.114 1691.26ZM741.417 1744.95C744.281 1740.96 733.005 1724.55 726.74 1726.04C724.294 1726.58 722.803 1729.8 722.504 1732.01C721.848 1737.67 727.695 1741.73 728.888 1742.57C733.005 1745.49 739.747 1747.22 741.417 1744.89V1744.95Z" fill="#ECECEC"/>
<path d="M1091.34 1592.75C1088.51 1587.1 1086.5 1581.07 1085.37 1574.85C1084.06 1566.32 1084.2 1557.62 1085.79 1549.14C1093.01 1513.87 1130.89 1497.53 1124.75 1483.92C1124.04 1482.6 1123.06 1481.44 1121.88 1480.52C1120.7 1479.6 1119.34 1478.93 1117.89 1478.55C1107.03 1475.15 1087.7 1501.64 1085.97 1504.09C1088.58 1494.89 1093.12 1486.35 1099.29 1479.04C1105.46 1471.74 1113.13 1465.83 1121.77 1461.73C1124.27 1460.66 1148.14 1450.57 1168.36 1460.24C1175.8 1464.66 1183.49 1468.64 1191.39 1472.17C1197.47 1474.66 1203.88 1476.23 1210.42 1476.82C1205.42 1479.06 1201.5 1483.17 1199.51 1488.28C1196.64 1496.39 1199.51 1507.49 1207.02 1510.71C1210.32 1512.01 1213.99 1512.01 1217.29 1510.71C1216.92 1511.19 1216.5 1511.63 1216.03 1512.03C1209.23 1517.57 1193.18 1513.81 1189.48 1506.06C1186.2 1499.08 1194.43 1493.65 1191.87 1485.89C1189.3 1478.14 1176.18 1473.42 1167.23 1473.42C1140.68 1473.42 1106.61 1512.26 1114.19 1548.06C1118.3 1567.27 1135.19 1590.24 1157.5 1590.42C1163.94 1590.3 1170.24 1588.61 1175.87 1585.49C1181.5 1582.37 1186.27 1577.92 1189.78 1572.52C1192.77 1567.69 1194.75 1562.3 1195.62 1556.69C1196.48 1551.07 1196.2 1545.33 1194.79 1539.83C1194.08 1537 1193.06 1534.26 1191.75 1531.65C1197.4 1537.55 1201.3 1544.9 1203.03 1552.88C1204.76 1560.87 1204.24 1569.17 1201.53 1576.88C1193.36 1598.12 1169.85 1602.47 1163.41 1603.61C1144.62 1607.07 1120.75 1601.46 1110.55 1585.71C1101.6 1572.05 1105.54 1554.45 1100.7 1553.79C1097.24 1553.31 1093.43 1562.2 1092.59 1564.23C1088.91 1573.31 1088.47 1583.38 1091.34 1592.75Z" fill="#ECECEC"/>
<path d="M942.422 1530.46C945.613 1531.06 948.894 1531.01 952.064 1530.3C955.234 1529.59 958.226 1528.25 960.857 1526.34C964.283 1522.93 966.774 1518.7 968.091 1514.05C969.407 1509.4 969.505 1504.49 968.375 1499.79C965.988 1487.5 957.278 1484.28 956.442 1471.45C956.212 1467.6 956.76 1463.75 958.053 1460.12C957.454 1463.23 957.454 1466.43 958.053 1469.54C958.136 1472.47 959.356 1475.25 961.454 1477.3C962.915 1478.04 964.53 1478.42 966.167 1478.42C967.805 1478.42 969.419 1478.04 970.881 1477.3C980.844 1473.72 982.813 1462.98 993.493 1457.67C999.326 1455.27 1005.73 1454.62 1011.93 1455.82C1036.93 1458.63 1061.21 1482.25 1065.27 1509.16C1065.92 1514.11 1065.92 1519.13 1065.27 1524.08C1057.27 1505.04 1053.34 1500.81 1051.25 1501.34C1047.25 1502.3 1046.71 1520.91 1051.25 1536.31C1055.35 1549.84 1062.75 1562.14 1072.79 1572.1C1050.17 1561.78 1031.74 1559.58 1027.2 1566.5C1023.5 1572.46 1028.93 1584.39 1034.06 1591.26C1038.47 1596.39 1043.55 1600.91 1049.16 1604.68C1048.74 1605.46 1037.82 1598.71 1023.5 1593.4C1007.93 1587.44 1000.18 1584.45 991.226 1584.1C979.711 1584 968.312 1586.4 957.814 1591.14C948.268 1595.19 939.916 1600.56 939.617 1600.03C939.319 1599.49 962.767 1588.09 961.573 1576.16C961.215 1572.34 958.053 1566.56 954.891 1567.03C953.668 1567.3 952.511 1567.8 951.49 1568.52C947.849 1570.51 943.622 1571.15 939.558 1570.31C946.154 1568.54 951.969 1564.61 956.084 1559.16C962.588 1550.03 963.661 1536.55 959.425 1533.8C957.516 1532.55 955.726 1533.8 950.476 1533.38C947.566 1533.2 944.771 1532.19 942.422 1530.46ZM1017.12 1504.86C1013.42 1500.67 1011.3 1495.3 1011.15 1489.71C1011.15 1480.94 1017.12 1477.12 1015.45 1469.96C1014.86 1467.83 1013.77 1465.87 1012.27 1464.25C1010.76 1462.63 1008.88 1461.39 1006.8 1460.65C999.161 1458.15 991.286 1465.43 988.362 1468.11C975.415 1480.04 976.012 1499.61 976.429 1503.91C977.026 1518.05 982.396 1519.3 981.918 1531.47C981.143 1548.42 970.403 1554.09 973.446 1560.65C977.742 1570.02 1005.84 1572.58 1023.03 1559.22C1037.23 1548.18 1038.18 1530.52 1040.03 1495.26C1040.57 1484.7 1040.03 1476.4 1035.08 1473.36C1032.83 1472.43 1030.36 1472.13 1027.96 1472.5C1025.55 1472.87 1023.29 1473.89 1021.42 1475.45C1014.2 1480.82 1012.23 1492.75 1017.12 1504.86ZM1055.66 1558.92C1058.59 1554.92 1047.25 1538.34 1040.87 1539.83C1038.42 1540.42 1036.93 1543.7 1036.63 1545.79C1035.91 1551.76 1041.88 1555.58 1043.01 1556.41C1047.19 1559.52 1053.99 1561.25 1055.66 1558.92Z" fill="#ECECEC"/>
<path d="M784.671 1497.59C785.629 1489.92 789.521 1482.93 795.53 1478.08C799.641 1474.98 804.553 1473.14 809.683 1472.76C814.813 1472.38 819.944 1473.48 824.467 1475.93C843.976 1489 828.225 1537.5 843.797 1543.23C845.734 1543.87 847.827 1543.87 849.764 1543.23C865.037 1537.68 853.523 1491.2 872.555 1480.7C876.91 1478.32 878.521 1480.34 884.905 1477.06C893.601 1472.31 900.389 1464.7 904.117 1455.52C903.699 1457.14 902.983 1459.64 902.088 1462.62C897.375 1477.78 894.451 1482.19 892.363 1489.23C887.888 1504.09 889.559 1521.81 894.571 1523.36C897.136 1524.14 900.537 1520.74 904.176 1516.26C908.267 1510.79 911.562 1504.76 913.961 1498.36C913.961 1499.68 913.424 1501.82 912.887 1504.33C906.503 1534.76 890.156 1542.1 889.022 1560.17C887.948 1576.16 899.105 1593.7 908.532 1593.88C916.049 1593.88 923.627 1584.46 928.28 1571.45C922.314 1593.7 907.219 1606.71 894.929 1604.98C881.743 1603.13 875.121 1584.75 874.703 1583.62C869.512 1568.65 876.254 1559.28 881.027 1532.67C886.218 1503.91 884.01 1483.75 882.936 1483.63C881.862 1483.51 884.07 1539.35 859.071 1550.51C855.199 1552.36 850.9 1553.13 846.627 1552.74C842.353 1552.35 838.264 1550.82 834.788 1548.3C819.515 1534.04 840.397 1496.45 822.856 1482.67C822.199 1482.13 816.531 1477.66 811.878 1479.51C802.63 1483.21 805.911 1508.62 804.718 1556.65C803.525 1592.99 800.78 1600.45 795.291 1603.31C785.208 1608.62 769.159 1596.81 761.104 1590.12C762.835 1591.32 773.037 1598.18 782.345 1594.42C794.874 1589.41 794.874 1569.9 794.933 1564.59C794.933 1553.49 791.055 1540.42 786.581 1540.25C782.106 1540.07 779.123 1549.08 777.929 1553.25C776.811 1556.96 776.426 1560.85 776.796 1564.71C775.933 1562.8 775.312 1560.8 774.946 1558.74C774.111 1550.64 776.229 1542.5 780.913 1535.83C796.365 1507.73 801.496 1499.38 798.812 1491.68C798.812 1490.79 797.32 1487.44 794.933 1486.97C790.22 1486.31 784.97 1496.93 784.671 1497.59ZM872.973 1487.56C868.916 1487.27 860.026 1535.29 863.844 1536.73C865.753 1537.32 870.884 1526.7 873.271 1518.23C877.388 1503.55 875.24 1487.74 872.973 1487.56ZM881.325 1566.68C879.774 1566.68 876.672 1583.68 885.86 1592.81C891.826 1598.78 901.313 1599.73 902.029 1598.3C902.745 1596.87 896.062 1594.48 890.096 1586.37C882.161 1576.58 882.578 1566.5 881.325 1566.68Z" fill="#ECECEC"/>
<path d="M825.418 879.955C846.599 918.498 844.212 959.128 822.793 979.354C806.744 994.449 781.029 997.611 760.027 991.287C697.202 972.254 687.298 867.307 659.018 870.35C639.926 872.378 624.234 922.256 600.548 933.175C592.101 936.694 582.805 937.649 573.819 935.919C570.672 934.704 567.925 932.639 565.884 929.953C552.161 911.457 563.139 866.471 564.452 861.281C575.609 817.011 591.479 808.181 615.941 757.706C639.806 708.543 642.491 684.857 653.708 684.917C675.306 684.917 677.573 773.516 717.667 781.273C724.258 782.2 730.977 781.481 737.223 779.18C743.469 776.879 749.049 773.068 753.465 768.087C767.963 751.024 758.178 721.311 763.19 720.357C765.516 719.879 768.38 726.323 773.273 735.213C780.731 749.174 787.771 760.271 793.081 768.207C778.344 721.669 746.603 620.242 749.288 613.381C749.579 612.591 750.098 611.906 750.78 611.412C755.374 608.31 765.755 616.841 768.679 619.109C796.78 642.139 812.531 688.855 820.645 720.058C819.571 712.899 800.181 588.442 753.405 580.029C739.086 577.464 726.497 586.592 717.607 596.019C745.35 619.884 758.536 672.268 753.405 710.274C749.765 738.375 735.864 762.24 722.738 765.402C696.606 771.727 681.63 676.266 652.992 677.578C644.997 677.996 641.059 685.275 602.636 740.523C577.757 776.321 573.282 782.287 567.793 780.974C552.4 776.44 541.004 726.681 550.61 692.315C556.577 671.91 565.765 670.121 578.473 644.585C588.159 624.23 594.428 602.42 597.028 580.029C592.739 590.667 587.276 600.793 580.74 610.219C570.966 624.969 557.573 636.965 541.84 645.062C507.414 660.932 496.019 620.242 449.72 622.271C407.956 624.061 377.528 662.006 369.473 673.163C367.564 675.729 364.939 679.13 361.896 684.261C343.181 715.119 332.494 750.174 330.812 786.225C327.59 848.215 354.319 849.587 351.455 901.076C348.472 956.264 315.001 996.179 292.389 1024.76C258.977 1066.94 210.352 1105 199.076 1096.35C189.231 1088.72 214.469 1050.41 257.426 946.42C272.819 909.31 311.839 811.939 304.321 725.01C302.71 706.157 297.997 676.922 279.8 669.226C263.929 662.364 242.391 673.939 239.468 667.973C237.737 664.512 243.047 658.665 245.434 656.04C248.504 652.878 252.236 650.436 256.363 648.888C260.489 647.341 264.907 646.727 269.299 647.091L251.937 645.36C212.798 645.957 198.24 719.521 187.083 714.331C181.475 711.646 181.117 690.466 181.117 685.096C180.653 649.372 191.445 614.408 211.963 585.16C208.562 588.442 149.018 646.852 166.858 716.419C171.599 734.343 180.559 750.872 192.99 764.627C194.303 727.158 211.724 696.074 238.871 684.678C244.241 682.471 261.662 675.132 275.802 682.59C284.394 687.124 302.71 702.875 295.61 778.946C279.8 948.21 168.528 1090.51 189.589 1108.11C202.059 1118.49 252.176 1078.28 275.922 1054.77C292.329 1038.6 356.705 975.118 354.438 894.811C353.842 872.736 347.875 838.907 359.211 834.253C362.259 833.671 365.4 833.786 368.397 834.593C371.394 835.399 374.169 836.874 376.514 838.907C381.096 843.516 384.904 848.835 387.79 854.658C395.28 864.619 405.718 871.968 417.621 875.66C436.833 881.626 447.155 869.693 449.601 875.66C454.075 885.862 414.579 912.054 395.904 973.746C383.971 1014.56 389.938 1026.55 373.769 1061.33C366.729 1076.37 352.708 1106.32 326.039 1116.4C295.491 1128.03 269.657 1104.94 264.168 1099.75C277.354 1118.61 297.102 1140.27 320.788 1139.49C370.786 1137.94 404.973 1037.23 413.445 1045.22C418.278 1049.82 411.536 1086.99 395.546 1115.68C386.586 1132.09 373.598 1145.94 357.806 1155.94C342.014 1165.94 323.936 1171.76 305.276 1172.84C274.43 1176.24 269.478 1164.31 246.806 1168.61C213.395 1174.93 186.308 1207.92 164.65 1248.43C181.714 1228.51 207.548 1204.64 241.257 1196.89C289.763 1185.73 305.097 1219.38 345.966 1206.55C394.472 1191.34 439.995 1123.02 440.532 1061.33C440.89 1028.16 427.943 1022.07 431.404 987.17C435.341 946.42 457.596 906.983 487.009 891.709C501.687 884.012 515.886 876.555 526.089 886.339C557.233 916.171 496.257 1056.92 536.589 1120.28C544.673 1132.3 556.215 1141.59 569.691 1146.92C583.167 1152.25 597.942 1153.36 612.063 1150.11C626.076 1146.53 638.872 1139.26 649.114 1129.05C640.493 1136.34 629.392 1140.02 618.123 1139.33C606.854 1138.64 596.284 1133.64 588.616 1125.35C567.435 1104.23 560.634 1062.94 566.481 1033.23C568.189 1025.43 570.854 1017.88 574.416 1010.74C591.062 972.194 609.856 964.319 630.141 932.459C652.694 897.019 649.591 875.242 659.078 874.824C678.17 873.989 674.471 962.41 726.855 992.122C757.581 1009.48 811.159 1008.77 834.248 974.223C851.67 948.747 848.448 910.503 825.418 879.955ZM517.975 743.745C516.244 785.509 499.061 844.277 460.34 858.835C415.294 875.719 374.664 821.665 366.013 776.38C361.717 754.126 362.97 722.206 369.891 718.746C374.127 716.658 379.914 725.189 382.48 731.394C384.63 737.185 385.544 743.362 385.164 749.527C384.783 755.692 383.117 761.709 380.272 767.192C387.849 761.226 396.202 752.933 396.56 741.835C396.918 731.752 392.086 726.92 391.429 719.76C388.864 690.824 461.533 620.123 498.823 660.097C520.421 683.485 518.392 733.602 517.975 743.745Z" fill="#ECECEC"/>
<path d="M1213.17 1019.57C1194.14 1010.68 1179.58 1051.73 1121.89 1080.07C1100.53 1090.57 1089.31 1091.34 1078.93 1086.03C1056.74 1074.64 1048.14 1041.7 1045.4 1031.2C1036.93 998.924 1043.73 963.305 1057.33 893.32C1070.46 826.975 1077.2 818.384 1083.7 814.326C1095.99 806.511 1122.9 821.426 1136.21 838.192C1163.71 873.333 1148.62 937.232 1148.62 937.232C1134.66 972.135 1136.03 981.323 1139.61 983.411C1149.63 989.378 1194.97 950.239 1218.06 901.196C1225.94 884.49 1257.56 820.054 1227.79 772.741C1202.19 732.17 1144.98 725.488 1147.54 715.882C1148.68 711.706 1160.55 708.126 1213.17 712.78C1176.6 708.126 1146.77 689.571 1142.11 667.615C1136.15 638.5 1172.42 594.289 1237.57 589.397C1230.59 589.397 1160.01 588.681 1129.41 639.096C1122.23 649.58 1118.1 661.847 1117.47 674.536C1116.88 729.068 1198.73 735.87 1218.9 800.664C1239.07 865.458 1184.53 936.576 1172.6 951.969C1171.29 953.64 1149.21 981.801 1143.07 978.519C1136.92 975.238 1146.41 945.466 1147.3 943.378C1148.01 941.866 1148.63 940.311 1149.15 938.724C1151.07 933.525 1152.7 928.227 1154.05 922.854C1158.66 901.96 1159.31 880.385 1155.96 859.253C1154.22 846.127 1150.76 819.875 1136.74 797.68C1129.76 786.702 1130.78 785.748 1106.32 762.42C1089.55 746.191 1080.72 723.997 1080 694.404C1079.66 671.53 1085.58 648.999 1097.13 629.252C1108.52 608.668 1120.99 589.397 1132.93 569.589C1134.73 565.967 1136.26 562.218 1137.52 558.372C1122.39 584.037 1102.72 606.74 1079.47 625.374C1046.97 650.529 1006.9 663.926 965.809 663.379C924.818 663.859 884.868 650.465 852.449 625.374C829.197 606.774 809.508 584.114 794.338 558.491C795.62 562.328 797.154 566.075 798.932 569.708C810.864 589.755 823.274 609.026 834.729 629.371C846.278 649.118 852.2 671.65 851.853 694.523C851.137 724.355 842.307 746.311 825.601 762.539C801.318 786.046 802.094 786.822 795.173 797.8C781.092 819.994 777.692 846.246 775.961 859.372C772.577 880.503 773.225 902.083 777.871 922.973C779.694 930.728 782.23 938.297 785.448 945.585C774.708 906.506 778.527 864.622 795.889 838.192C807.821 819.756 830.911 802.931 848.392 814.326C854.895 818.384 861.637 826.975 874.763 893.32C888.665 963.305 895.407 998.924 886.994 1031.2C884.19 1041.7 875.599 1074.64 853.404 1086.03C843.023 1091.28 831.866 1090.51 810.447 1080.07C752.812 1051.73 738.195 1010.68 719.162 1019.57C700.13 1028.46 686.944 1079.65 697.743 1112.28C712.54 1157.03 764.327 1135.43 800.543 1191.28C816.95 1216.63 823.214 1247.18 825.899 1269.56C826.306 1252.39 825.027 1235.22 822.081 1218.3C818.441 1197.48 813.131 1184.77 816.115 1165.98C818.501 1150.95 823.334 1140.09 834.013 1135.85C861.698 1125.35 890.718 1118.78 920.227 1116.34C938.125 1115.45 953.936 1114.85 966.227 1114.43C978.517 1114.01 994.149 1115.45 1012.29 1116.34C1041.84 1118.77 1070.9 1125.34 1098.62 1135.85C1109.36 1140.09 1114.19 1150.95 1116.52 1165.98C1119.44 1184.77 1114.13 1197.48 1110.55 1218.3C1107.64 1235.23 1106.36 1252.39 1106.73 1269.56C1109.42 1247.18 1115.68 1216.63 1132.15 1191.28C1168.31 1135.43 1220.15 1157.03 1234.89 1112.28C1245.45 1079.65 1231.67 1028.22 1213.17 1019.57ZM795.531 1156.79C789.582 1150.53 783.202 1144.69 776.439 1139.31C755.378 1122.43 745.593 1123.14 739.09 1109.48C732.586 1095.82 732.109 1072.91 738.433 1066.4C744.758 1059.9 759.435 1065.63 798.096 1113.18C790.877 1127.38 793.204 1142.53 795.232 1156.55L795.531 1156.79ZM1028.22 1105.18C1027.06 1106.32 1025.58 1107.07 1023.98 1107.33C1022.38 1107.6 1020.73 1107.37 1019.27 1106.68C1001.81 1103.42 984.036 1102.12 966.286 1102.8C948.537 1102.12 930.768 1103.42 913.306 1106.68C911.84 1107.37 910.197 1107.6 908.597 1107.33C906.996 1107.07 905.517 1106.32 904.356 1105.18C902.036 1100.96 901.097 1096.12 901.671 1091.34C906.802 980.965 885.264 871.364 878.164 761.226C876.613 737.361 874.405 707.172 886.994 690.824C895.645 679.607 908.592 676.028 931.622 676.028H1000.95C1023.98 676.028 1036.75 679.607 1045.64 690.824C1058.23 707.172 1056.02 737.242 1054.47 761.226C1047.31 871.364 1025.77 980.965 1030.6 1091.34C1031.2 1096.02 1030.35 1100.77 1028.16 1104.95L1028.22 1105.18ZM1193.48 1109.3C1186.98 1123.08 1177.2 1122.37 1156.13 1139.13C1149.45 1144.52 1143.17 1150.38 1137.34 1156.67C1139.31 1142.65 1141.64 1127.5 1134.72 1112.88C1173.14 1065.15 1188.41 1059.9 1194.38 1066.1C1200.34 1072.31 1200.05 1095.22 1193.42 1109.06L1193.48 1109.3Z" fill="#ECECEC"/>
<path d="M610.219 476.396C608.641 478.036 606.705 479.288 604.562 480.054C602.419 480.82 600.128 481.079 597.868 480.811C591.425 478.902 589.754 469.535 589.635 468.521C589.021 464.004 589.634 459.406 591.407 455.207C593.181 451.008 596.052 447.364 599.718 444.656C603.835 441.851 607.713 441.613 611.173 436.959C612.736 434.794 613.851 432.34 614.455 429.74C612.995 432.101 611.006 434.09 608.645 435.55C606.284 437.01 603.616 437.901 600.852 438.152C593.573 438.152 589.814 426.22 586.533 417.211C584.067 410.192 582.601 402.861 582.177 395.434C582.165 401.436 581.28 407.405 579.552 413.154C578.221 417.293 576.482 421.29 574.361 425.086C576.734 424.124 579.387 424.124 581.759 425.086C589.158 428.487 590.47 443.761 586.175 454.381C580.208 469.893 560.34 477.828 556.88 474.368C555.866 473.353 555.687 470.788 558.789 464.583C556.043 468.225 552.834 471.494 549.243 474.308C542.143 479.916 539.22 479.021 538.265 478.604C526.333 473.413 545.723 417.33 528.48 407.008C524.355 404.44 519.553 403.172 514.698 403.369C510.237 403.715 505.843 404.658 501.632 406.173C517.085 402.712 523.111 407.903 524.602 409.275C533.85 418.106 531.046 441.195 521.082 455.634C513.803 466.134 503.183 472.817 503.899 484.57C503.999 486.471 504.402 488.344 505.092 490.119C505.284 484.178 507.789 478.548 512.073 474.427C513.744 472.936 518.576 468.461 523.349 470.132C525.671 471.521 527.496 473.605 528.567 476.089C529.638 478.574 529.9 481.332 529.316 483.974C527.645 493.4 515.891 493.878 507.718 505.512C503.641 511.636 501.405 518.8 501.274 526.155C502.144 523.186 503.387 520.34 504.973 517.683C507.718 513.029 511.417 506.884 516.906 506.586C518.589 506.555 520.255 506.923 521.769 507.659C523.283 508.396 524.601 509.479 525.617 510.822C529.912 516.788 527.049 525.857 522.335 531.048C519.564 533.838 516.051 535.776 512.213 536.632C508.375 537.489 504.372 537.228 500.677 535.88C497.246 534.535 494.172 532.412 491.698 529.679C489.224 526.946 487.417 523.678 486.418 520.129C486.826 524.947 488.531 529.565 491.351 533.492C494.171 537.42 498.001 540.511 502.436 542.438C506.871 544.365 511.744 545.055 516.539 544.437C521.335 543.818 525.873 541.913 529.674 538.923C535.225 533.208 538.291 525.53 538.205 517.564C538.862 506.466 533.91 502.648 536.714 494.355C538.789 488.847 542.826 484.299 548.05 481.587C555.925 477.351 571.915 477.888 578.478 486.121C580.387 488.627 580.208 490.238 580.805 504.677C581.759 527.05 582.654 530.869 585.16 534.508C590.351 542.384 599.897 545.665 600.732 544.651C601.568 543.637 596.019 540.295 592.558 533.494C590.167 528.315 589.003 522.654 589.159 516.952C589.314 511.25 590.784 505.66 593.453 500.619C600.136 488.21 608.19 489.045 615.409 475.084C618.548 468.918 620.281 462.132 620.481 455.216C619.889 463.327 616.217 470.905 610.219 476.396Z" fill="#ECECEC"/>
<path d="M1026.07 476.396C1024.49 478.036 1022.56 479.288 1020.41 480.054C1018.27 480.82 1015.98 481.079 1013.72 480.811C1007.28 478.902 1005.67 469.535 1005.49 468.521C1004.87 463.998 1005.48 459.391 1007.27 455.19C1009.05 450.988 1011.94 447.348 1015.63 444.656C1019.75 441.851 1023.56 441.613 1027.02 436.959C1028.61 434.809 1029.73 432.349 1030.31 429.74C1028.85 432.101 1026.86 434.09 1024.5 435.55C1022.14 437.01 1019.47 437.901 1016.7 438.152C1009.42 438.152 1005.72 426.22 1002.38 417.211C999.918 410.192 998.452 402.861 998.028 395.434C997.924 401.354 996.938 407.225 995.105 412.855C993.8 417.005 992.06 421.005 989.914 424.788C992.307 423.829 994.978 423.829 997.372 424.788C1004.71 428.189 1006.02 443.462 1001.73 454.082C995.761 469.595 975.953 477.53 972.433 474.069C971.419 473.055 971.24 470.49 974.342 464.285C971.595 467.927 968.386 471.196 964.796 474.01C957.696 479.618 954.772 478.723 953.818 478.306C941.885 473.115 961.276 417.032 944.093 406.71C939.941 404.154 935.123 402.887 930.251 403.07C925.79 403.417 921.395 404.36 917.185 405.875C932.638 402.414 938.723 407.605 940.155 408.977C949.403 417.807 946.658 440.897 936.635 455.335C929.356 465.836 918.736 472.518 919.452 484.272C919.552 486.173 919.955 488.046 920.645 489.82C920.837 483.88 923.342 478.249 927.626 474.129C929.296 472.638 934.189 468.163 938.902 469.833C941.278 471.179 943.165 473.245 944.291 475.733C945.417 478.221 945.724 481.002 945.167 483.675C943.556 493.102 931.743 493.579 923.569 505.214C919.492 511.337 917.256 518.501 917.125 525.857C917.996 522.888 919.238 520.041 920.824 517.385C923.628 512.731 927.268 506.586 933.055 506.288C934.739 506.252 936.407 506.618 937.922 507.355C939.436 508.091 940.754 509.177 941.766 510.524C946.062 516.49 943.198 525.559 938.485 530.749C935.713 533.54 932.201 535.478 928.363 536.334C924.525 537.19 920.521 536.93 916.827 535.582C913.395 534.236 910.322 532.114 907.848 529.381C905.374 526.648 903.566 523.379 902.567 519.831C902.976 524.649 904.68 529.267 907.5 533.194C910.32 537.122 914.151 540.213 918.585 542.14C923.02 544.066 927.893 544.757 932.689 544.138C937.484 543.519 942.023 541.614 945.823 538.625C951.358 532.895 954.44 525.232 954.415 517.266C955.011 506.168 950.059 502.35 952.863 494.057C954.938 488.548 958.975 484.001 964.199 481.289C972.075 477.053 988.065 477.59 994.627 485.823C996.537 488.329 996.358 489.94 996.954 504.378C997.969 526.752 998.804 530.57 1001.31 534.21C1006.5 542.085 1016.05 545.367 1016.94 544.352C1017.84 543.338 1012.17 539.997 1008.71 533.196C1006.32 528.017 1005.15 522.356 1005.31 516.654C1005.46 510.951 1006.93 505.362 1009.6 500.321C1016.29 487.911 1024.34 488.747 1031.62 474.785C1034.71 468.604 1036.42 461.825 1036.63 454.918C1036.04 463.178 1032.25 470.881 1026.07 476.396Z" fill="#ECECEC"/>
<path d="M881.563 523.828C877.924 527.049 869.631 534.209 864.142 531.763C854.595 527.586 867.662 501.931 862.829 459.213C859.965 433.2 851.911 413.451 863.664 400.027C865.966 397.351 868.761 395.143 871.898 393.524C867.542 393.144 863.169 394.035 859.309 396.089C840.038 407.306 862.352 446.027 845.348 489.342C835.324 514.938 814.741 534.09 806.149 531.107C800.183 529.197 794.575 513.804 792.665 504.974V503.662C786.281 472.1 802.45 448.473 793.68 423.952C791.842 419.037 789.439 414.351 786.52 409.991C781.665 403.583 775.825 397.985 769.218 393.404C773.136 397.607 776.523 402.276 779.301 407.306C796.185 437.853 791.233 483.257 764.743 500.38C761.037 502.706 757.019 504.494 752.81 505.69C756.492 506.435 760.307 506.167 763.848 504.914C768.144 503.244 769.039 500.977 771.008 501.215C775.9 501.931 781.628 517.145 775.423 523.828C771.545 528.123 765.399 526.095 755.734 532.419C753.573 533.782 751.572 535.383 749.768 537.192C762.628 534.435 775.927 534.435 788.787 537.192C799.765 539.698 806.089 543.934 815.934 541.846C823.045 539.978 829.479 536.129 834.489 530.749C846.899 519.472 850.837 506.883 852.985 507.599C853.939 507.599 853.462 510.523 853.343 514.282C853.223 518.04 852.627 535.044 859.309 539.638C864.798 543.457 875.06 539.638 881.205 535.82C903.34 521.322 900.894 484.45 899.999 484.271C899.104 484.092 898.985 508.614 881.563 523.828Z" fill="#ECECEC"/>
<path d="M499.837 353.967C496.263 351.243 493.566 347.53 492.082 343.288C490.597 339.046 490.389 334.461 491.484 330.102C494.706 318.707 506.162 318.17 517.319 303.91C522.294 297.363 525.887 289.873 527.879 281.895C525.651 287.036 522.379 291.658 518.271 295.468C514.163 299.279 509.308 302.194 504.014 304.03C501.15 304.805 494.647 306.535 491.007 303.075C485.876 298.302 489.993 286.548 490.47 285.176C495.303 271.931 503.178 269.425 509.801 258.089C514.683 249.122 516.761 238.896 515.767 228.735C513.941 237.79 510.13 246.327 504.61 253.734C500.732 258.924 496.019 265.189 491.544 264.294C485.578 263.101 481.521 250.094 485.101 241.145C487.248 235.775 491.067 235.178 495.542 228.616C499.094 223.598 501.479 217.849 502.522 211.791C500.86 214.648 498.856 217.292 496.556 219.666C492.451 223.78 487.447 226.884 481.938 228.735C469.051 232.911 464.696 222.291 447.453 222.769C436.254 223.557 425.691 228.268 417.622 236.073C409.192 243.71 403.987 254.27 403.064 265.607C402.646 280.701 412.431 289.472 409.03 292.992C405.629 296.512 393.398 292.574 378.781 283.983C328.962 254.39 321.922 212.327 293.94 210.001C286.721 209.404 275.325 211.194 260.231 225.513C274.406 232.541 286.684 242.875 296.028 255.643C306.146 267.592 312.205 282.447 313.331 298.063C314.047 317.513 305.754 345.794 289.883 349.851C262.319 356.831 238.871 284.221 205.937 288.577C174.137 292.097 159.519 364.588 160.772 365.124C162.025 365.661 179.805 294.424 209.636 293.469C238.215 292.574 253.429 358.144 285.766 355.041C291.023 354.213 296.048 352.293 300.518 349.406C304.987 346.518 308.803 342.727 311.72 338.276C321.922 322.644 315.956 301.941 320.311 301.166C323.175 300.629 326.994 309.459 327.71 311.01C331.476 319.846 332.875 329.511 331.767 339.052C332.602 333.085 333.437 327.119 334.213 320.735C333.415 304.402 327.391 288.758 317.03 276.107C290.778 239.832 274.013 227.721 277.652 220.501C280.158 215.848 290.718 215.669 297.878 217.578C314.285 221.993 316.374 238.579 344.952 265.308C346.444 266.681 348.89 268.888 351.694 271.275C360.107 278.494 377.647 290.307 413.624 299.078C410.402 287.98 410.402 279.448 413.624 277.957C414.737 277.718 415.886 277.706 417.003 277.921C418.121 278.137 419.183 278.575 420.128 279.21C422.275 280.403 422.812 281.775 424.364 283.267C427.549 286.06 431.42 287.954 435.58 288.756C442.799 290.307 446.678 287.324 447.513 288.756C449.243 291.381 434.387 298.242 427.466 314.351C422.872 325.031 425.259 328.133 419.113 337.202C415.18 344.099 408.787 349.255 401.214 351.641C397.252 352.511 393.154 352.575 389.166 351.826C385.179 351.078 381.383 349.534 378.005 347.285C380.691 350.36 383.964 352.867 387.632 354.66C391.3 356.453 395.289 357.495 399.365 357.726C418.099 357.309 430.927 330.997 434.148 333.085C435.938 334.279 433.373 344.004 427.347 351.521C416.786 364.647 399.603 365.96 393.518 366.437C381.943 367.332 380.094 364.17 371.562 365.303C358.986 367.911 347.958 375.399 340.895 386.126C349.092 379.16 358.998 374.505 369.593 372.642C387.79 369.719 393.458 378.608 408.911 375.148C426.81 371.21 444.172 353.371 444.41 337.262C444.41 328.551 439.637 327 440.95 317.871C441.953 312.247 444.408 306.983 448.07 302.598C451.733 298.214 456.476 294.861 461.832 292.873C467.321 290.904 472.691 288.935 476.449 291.5C488.382 299.316 465.412 336.069 480.447 352.595C484.243 355.983 488.769 358.451 493.674 359.806C498.579 361.162 503.73 361.369 508.727 360.411C513.7 359.598 518.441 357.726 522.629 354.922C519.113 356.886 515.121 357.836 511.098 357.668C507.074 357.499 503.177 356.218 499.837 353.967ZM473.228 254.39C472.571 265.308 466.128 280.642 451.57 284.221C434.685 288.637 419.412 274.556 416.19 262.743C414.579 256.776 415.056 248.543 417.681 247.648C419.233 247.111 421.44 249.378 422.395 250.989C423.181 252.463 423.521 254.133 423.372 255.797C423.224 257.461 422.594 259.045 421.559 260.356C424.364 258.805 427.526 256.597 427.526 253.674C427.526 250.75 425.855 249.796 425.617 247.708C424.781 240.548 452.047 222.112 466.187 232.434C474.123 238.4 473.347 251.645 473.228 254.39Z" fill="#ECECEC"/>
<path d="M1195.99 288.573C1163.06 284.457 1139.55 356.828 1112.04 349.847C1096.17 345.79 1087.82 317.57 1088.6 298.06C1089.74 282.563 1095.71 267.814 1105.66 255.878C1115.07 243.251 1127.34 233.029 1141.46 226.047C1127.02 212.742 1115.15 210.534 1107.75 210.534C1070.04 210.534 1040.87 273.3 1034.12 287.559C1018.67 320.493 1013.06 353.188 999.043 353.188C996.557 353.108 994.158 352.253 992.182 350.742C981.144 343.404 981.621 324.61 984.843 296.628C985.799 281.227 989.539 266.127 995.881 252.06C1003.03 237.019 1013.32 223.691 1026.07 212.98C1018.52 215.7 1011.51 219.741 1005.37 224.913C996.955 232.073 995.225 237.263 988.781 238.755C979.175 240.903 966.944 232.788 967.243 227.598C967.72 220.2 990.75 216.202 999.162 214.949C987.724 212.489 975.826 213.253 964.796 217.157C943.497 224.913 927.805 246.988 920.884 266.498C917.424 276.104 917.603 285.71 910.026 290.065C904.01 292.646 897.464 293.751 890.934 293.287C887.134 293.548 883.318 293.144 879.657 292.094C865.994 286.664 860.983 256.654 868.262 233.922C870.25 227.819 872.911 221.955 876.197 216.441C869.343 222.6 864.099 230.343 860.923 238.993C852.332 263.455 866.889 283.263 855.971 296.986C853.248 300.002 849.913 302.404 846.189 304.029C842.465 305.655 838.436 306.467 834.373 306.413C838.296 308.778 842.882 309.805 847.439 309.336C852.033 308.68 853.406 307.904 855.434 308.978C860.207 311.424 861.699 323.655 856.866 332.247C852.869 339.466 847.081 339.406 844.933 345.611C844.297 348.53 844.304 351.552 844.953 354.468C845.602 357.383 846.878 360.123 848.692 362.496C851.079 348.415 853.525 344.597 855.553 344.597C859.73 344.597 860.983 360.229 869.634 362.794C875.063 364.405 881.268 360.169 886.399 355.336C883.789 356.146 881.025 356.331 878.33 355.875C875.635 355.419 873.085 354.335 870.887 352.711C860.446 343.642 864.921 313.274 882.819 304.205C887.36 301.815 892.495 300.786 897.606 301.241C902.718 301.696 907.589 303.616 911.637 306.771C918.856 313.751 913.009 320.97 920.228 334.335C926.504 345.096 936.775 352.944 948.807 356.172C953.423 357.223 958.188 357.465 962.887 356.888C960.916 356.103 959.21 354.771 957.973 353.047C956.736 351.323 956.019 349.281 955.907 347.163C956.573 344.332 958.251 341.842 960.624 340.161C962.997 338.48 965.902 337.724 968.794 338.034C977.266 339.108 977.564 352.532 988.184 355.933C992.666 357.061 997.391 356.727 1001.67 354.978C1004.11 353.995 1006.4 352.669 1008.47 351.041C1018.73 342.509 1040.39 290.841 1051.73 269.302C1059.96 253.551 1076.25 223.6 1104.17 218.35C1105.18 218.35 1121.17 215.248 1124.34 221.274C1128.03 228.194 1111.27 240.306 1084.9 276.581C1074.57 289.262 1068.61 304.932 1067.89 321.269L1070.4 339.526C1069.29 329.99 1070.67 320.331 1074.4 311.484C1075.11 309.933 1078.93 301.103 1081.86 301.64C1086.15 302.475 1080.18 323.118 1090.45 338.81C1093.42 343.212 1097.27 346.953 1101.76 349.797C1106.24 352.641 1111.27 354.527 1116.52 355.336C1148.92 358.379 1164.25 292.809 1192.71 293.764C1222.24 294.719 1240.14 365.897 1241.45 365.36C1242.77 364.823 1227.79 292.631 1195.99 288.573ZM970.345 320.97C968.913 322.939 951.969 346.387 939.32 342.33C919.691 336.065 913.427 264.41 939.32 248.48C942.743 246.165 946.724 244.811 950.848 244.559C954.973 244.307 959.089 245.167 962.768 247.048C966.068 249.525 968.545 252.939 969.875 256.845C971.206 260.751 971.328 264.968 970.226 268.944C969.226 272.166 967.502 275.115 965.185 277.566C962.869 280.017 960.021 281.905 956.861 283.084C959.201 284.267 961.828 284.763 964.438 284.516C973.865 283.383 977.385 271.51 980.07 272.584C983.71 273.419 985.261 299.85 970.345 320.97Z" fill="#ECECEC"/>
<path d="M565.467 1696.8C579.309 1680.63 597.924 1690.06 614.331 1672.52C621.808 1663.98 626.438 1653.32 627.577 1642.03C624.963 1650.72 619.845 1658.44 612.862 1664.24C605.878 1670.03 597.341 1673.64 588.318 1674.61C580.864 1674.9 573.445 1673.44 566.665 1670.33C559.884 1667.22 553.934 1662.55 549.299 1656.71C544.82 1662.46 539.052 1667.07 532.46 1670.18C525.869 1673.29 518.638 1674.81 511.353 1674.61C502.312 1673.71 493.746 1670.13 486.759 1664.33C479.773 1658.52 474.686 1650.75 472.154 1642.03C473.265 1653.33 477.899 1663.99 485.4 1672.52C501.807 1690.06 520.422 1680.63 534.264 1696.8C537.127 1700.2 539.872 1717.32 545.301 1751.51C547.509 1765.65 549.776 1776.99 544.406 1780.63C542.699 1781.37 540.848 1781.71 538.989 1781.64C537.13 1781.57 535.311 1781.08 533.667 1780.21C504.73 1768.93 434.03 1664.7 366.312 1646.03C304.203 1628.9 220.555 1676.87 220.615 1676.99C259.635 1655.57 280.755 1679.8 280.755 1679.8C291.077 1688.98 296.268 1705.27 292.211 1708.85C286.841 1713.51 267.63 1693.76 220.615 1676.99C333.557 1735.16 360.107 1748.59 360.286 1748.05C348.174 1741.45 336.674 1733.78 325.92 1725.14C314.704 1715.95 278.19 1685.94 285.827 1663.93C288.459 1657.7 293.429 1652.75 299.669 1650.14C325.264 1637.61 358.675 1666.01 363.508 1670.19C373.233 1678.72 396.919 1699.43 393.34 1725.98C390.237 1747.69 369.474 1766.19 348.294 1771.74C299.132 1784.44 269.837 1722.4 221.57 1732.66C180.76 1741.19 160.296 1793.57 161.131 1794.23C161.966 1794.89 186.368 1739.52 227.536 1735.58C268.703 1731.64 282.605 1781.64 332.841 1779.02C350.322 1778.12 379.617 1770.42 390.535 1749.6C397.695 1736 396.502 1718.1 401.573 1717.62C405.093 1717.26 408.554 1724.96 409.747 1727.71C416.847 1743.58 412.372 1759.74 413.386 1759.98C414.401 1760.22 415.057 1756.7 418.159 1743.34C429.018 1710.76 351.575 1656.71 355.334 1651.52C360.406 1644.42 404.854 1668.1 438.862 1701.04C438.862 1701.04 505.446 1765.89 528.775 1783.49C534.383 1787.73 542.378 1792.86 547.151 1790.11C548.349 1789.35 549.269 1788.22 549.776 1786.89C550.252 1788.25 551.205 1789.4 552.461 1790.11C556.637 1792.2 564.393 1787.25 571.374 1777.58C566.84 1780.21 559.441 1783.55 555.265 1780.63C551.089 1777.7 551.745 1768.04 554.37 1751.51C559.859 1717.32 562.604 1700.14 565.467 1696.8Z" fill="#ECECEC"/>
<path d="M1179.16 1732.24C1130.54 1721.98 1101.24 1784.03 1052.2 1771.32C1030.9 1765.77 1010.44 1747.45 1007.21 1725.56C1003.57 1699.96 1025.83 1679.8 1037.05 1669.77C1041.82 1665.48 1077.08 1634.33 1101.36 1647.46C1107.72 1650.89 1112.5 1656.64 1114.73 1663.51C1121.11 1686.54 1088.83 1713.09 1074.57 1724.72C1063.83 1733.38 1052.33 1741.05 1040.21 1747.63C1040.21 1747.99 1066.94 1734.75 1179.88 1676.58C1179.52 1676.58 1105.72 1636.06 1057.09 1637.79C1021.29 1639.11 973.564 1663.93 917.66 1766.61C914.498 1772.16 909.068 1779.67 902.565 1779.43C893.079 1779.02 882.101 1761.54 883.175 1745.96C884.428 1728.06 900.656 1720.73 907.04 1690.48C907.577 1687.85 907.935 1685.7 908.114 1684.51C905.756 1690.92 902.48 1696.95 898.389 1702.41C894.988 1706.88 891.408 1710.22 888.843 1709.45C883.891 1707.9 882.22 1690.3 886.635 1675.56C888.783 1668.58 891.647 1664.22 896.301 1649.13C897.196 1646.21 897.911 1643.76 898.329 1642.15C894.74 1651.33 888.077 1658.99 879.476 1663.81C873.032 1667.03 871.6 1665.06 867.245 1667.45C848.332 1677.83 859.787 1723.95 844.632 1729.5C842.693 1730.12 840.606 1730.12 838.666 1729.5C823.154 1723.53 838.666 1675.8 819.455 1662.67C814.971 1660.24 809.879 1659.14 804.789 1659.52C799.7 1659.9 794.828 1661.74 790.757 1664.82C784.752 1669.59 780.871 1676.54 779.958 1684.15C779.958 1683.56 785.447 1672.94 790.041 1673.89C792.368 1674.37 793.561 1677.71 793.859 1678.6C796.604 1686.24 791.532 1694.53 775.96 1722.46C771.278 1729.04 769.157 1737.1 769.994 1745.13C770.36 1747.19 770.981 1749.19 771.844 1751.09C771.485 1747.26 771.849 1743.4 772.917 1739.7C774.17 1735.58 777.75 1726.63 781.569 1726.81C785.387 1726.99 789.862 1739.94 789.802 1750.97C789.802 1756.11 789.802 1775.5 777.333 1780.45C768.025 1784.15 757.942 1777.41 756.271 1776.21C764.266 1782.83 780.137 1794.59 790.22 1789.28C795.649 1786.41 798.394 1779.08 799.527 1742.98C801.019 1695.25 797.439 1670.07 806.687 1666.43C811.281 1664.58 816.889 1669.06 817.605 1669.59C834.669 1683.08 813.966 1720.37 829.12 1734.57C832.555 1737 836.572 1738.48 840.764 1738.85C844.955 1739.23 849.171 1738.49 852.985 1736.72C877.805 1725.68 874.941 1670.25 876.85 1670.37C878.76 1670.49 880.132 1690.54 874.941 1719.06C870.168 1745.49 863.546 1754.85 868.975 1769.65C869.631 1771.56 875.776 1788.03 889.022 1790.83C904.057 1793.99 918.853 1777.76 925.237 1765.47C937.112 1738.43 954.157 1713.97 975.414 1693.46C1001.78 1668.22 1040.09 1644.54 1045.04 1651.7C1049.16 1657.66 971.297 1710.88 982.156 1743.52C985.258 1756.94 986.451 1760.22 986.929 1760.16C987.406 1760.1 983.468 1743.82 990.568 1727.89C991.761 1725.2 995.222 1717.44 998.742 1717.8C1004.05 1718.28 1002.68 1736.18 1009.78 1749.78C1020.76 1770.6 1050.05 1778.3 1067.53 1779.2C1117.77 1781.82 1132.15 1731.88 1172.84 1735.76C1213.53 1739.64 1238.83 1795.13 1239.66 1794.41C1240.5 1793.69 1219.91 1740.83 1179.16 1732.24ZM1179.76 1676.58C1132.75 1693.34 1113.47 1713.09 1108.16 1708.44C1104.17 1704.92 1109.36 1688.57 1119.62 1679.38C1119.56 1679.38 1140.68 1655.16 1179.76 1676.58ZM867.543 1704.56C865.216 1712.91 860.085 1723.47 858.236 1722.87C854.417 1721.74 863.247 1673.77 867.245 1674.13C869.512 1674.31 871.898 1690 867.543 1704.56ZM880.072 1778.6C870.944 1769.47 874.106 1752.82 875.538 1752.65C876.97 1752.47 876.373 1762.43 884.07 1772.45C890.036 1780.21 896.659 1782.72 896.002 1783.97C895.346 1785.22 885.979 1784.51 880.072 1778.6Z" fill="#ECECEC"/>
<path d="M289.946 1401.11C286.246 1404.33 278.013 1411.49 272.464 1409.04C262.978 1404.93 275.984 1379.57 271.211 1336.55C268.288 1310.54 260.293 1290.73 271.987 1277.31C274.322 1274.81 277.117 1272.78 280.221 1271.34C275.849 1270.91 271.447 1271.78 267.572 1273.85C248.301 1285.06 270.615 1323.79 253.611 1367.1C243.587 1392.7 223.004 1411.85 214.472 1409.22C208.506 1407.25 202.838 1391.86 200.988 1383.03L200.69 1381.78C194.365 1350.16 210.474 1326.53 201.704 1302.01C199.857 1297.12 197.455 1292.45 194.544 1288.11C189.749 1281.65 183.923 1276.03 177.302 1271.46C181.177 1275.71 184.541 1280.39 187.325 1285.42C204.21 1315.91 199.258 1361.31 172.767 1378.44C169.074 1380.8 165.054 1382.61 160.835 1383.81C164.522 1384.53 168.335 1384.24 171.872 1382.97C176.168 1381.36 177.123 1379.03 179.092 1379.33C183.984 1380.05 189.652 1395.26 183.507 1401.94C179.569 1406.18 173.424 1404.21 163.758 1410.48C161.636 1411.89 159.64 1413.49 157.792 1415.25C170.655 1412.52 183.949 1412.52 196.812 1415.25C207.79 1417.7 214.114 1421.93 223.958 1419.9C231.069 1418.03 237.503 1414.19 242.513 1408.81C254.923 1397.53 258.861 1384.94 261.009 1385.66C261.964 1385.96 261.546 1388.58 261.367 1392.28C261.188 1395.98 260.651 1413.04 267.333 1417.64C272.882 1421.51 283.144 1417.64 289.23 1413.82C311.424 1399.32 308.978 1362.51 308.023 1362.33C307.069 1362.15 307.308 1385.9 289.946 1401.11Z" fill="#ECECEC"/>
</svg>
