<svg width="1400" height="2000" viewBox="0 0 1400 2000" fill="none" xmlns="http://www.w3.org/2000/svg">
<rect width="1399.32" height="2000" transform="translate(0.0078125)" fill="#141414"/>
<path d="M592.541 232.609C587.631 229.157 581.759 227.338 575.756 227.408C562.754 227.881 559.031 238.815 544.905 239.524C536.572 239.879 534.74 236.273 528.121 238.342C521.667 240.925 516.502 245.962 513.759 252.349C507.849 264.169 509.976 279.95 514.823 281.486C518.014 282.491 519.905 276.581 525.934 276.463C533.322 276.463 537.754 284.855 541.123 283.2C543.605 282.077 542.069 277.645 545.378 273.212C547.682 270.378 550.9 268.435 554.48 267.716C552.926 268.68 551.596 269.964 550.577 271.482C549.558 273.001 548.874 274.718 548.57 276.522C547.742 284.678 558.558 292.597 568.132 293.838C572.569 294.004 576.988 293.19 581.074 291.453C585.16 289.717 588.813 287.101 591.773 283.791C596.112 279.642 599.464 274.573 601.584 268.957C600.993 271.439 595.674 291.179 577.943 298.094C572.34 300.414 566.217 301.189 560.213 300.34C550.106 298.744 548.038 293.129 539.173 292.065C535.493 291.714 531.78 292.109 528.256 293.226C524.732 294.343 521.47 296.159 518.664 298.567C503.593 311.628 512.163 337.928 513.463 341.829C515.65 348.448 517.66 354.418 522.979 356.723C531.076 360.269 535.626 349.985 550.52 349.689C559.385 349.689 560.863 353.058 576.939 353.945C581.211 354.367 585.523 354.087 589.704 353.117C595.572 351.614 600.961 348.645 605.366 344.489C604.239 346.638 602.828 348.626 601.17 350.399C591.005 361.096 575.343 358.555 575.284 360.86C575.225 363.165 588.522 367.184 598.924 362.987C600.697 362.278 602.057 361.51 602.116 361.569C596.381 366.575 589.097 369.455 581.489 369.725C569.669 368.957 568.546 356.9 557.849 355.777C546.028 354.595 543.132 367.597 528.771 368.366C518.192 368.838 512.695 361.096 505.603 364.701C502.597 366.788 499.165 368.181 495.556 368.779C494.144 368.974 492.712 368.974 491.3 368.779C500.934 362.455 505.603 353.058 503.121 345.73C501.998 342.006 498.629 337.574 494.846 337.455C488.936 337.455 483.853 348.507 482.258 355.186C481.69 357.411 481.354 359.689 481.253 361.983C480.515 353.899 481.858 345.76 485.154 338.342C488.177 333.217 491.513 328.282 495.142 323.567C500.579 315.056 509.267 301.403 504.539 294.429C503.048 292.566 500.961 291.272 498.629 290.765C489.35 288.046 479.835 295.789 479.539 295.257C485.555 291.824 491.031 287.522 495.792 282.491C506.135 269.725 504.125 251.935 503.239 244.548C501.933 233.68 498.13 223.263 492.128 214.11C495.562 218.113 499.541 221.614 503.948 224.512C517.837 233.377 533.499 234.796 534.149 232.905C534.799 231.013 530.012 230.482 525.697 224.63C523.946 222.212 522.571 219.542 521.619 216.711C534.208 232.077 542.837 234.441 548.629 233.614C554.421 232.786 559.149 227.704 572.27 225.103C575.308 224.446 578.451 224.446 581.489 225.103C585.932 226.249 589.838 228.902 592.541 232.609Z" fill="#ECECEC"/>
<path d="M1035.97 232.609C1031.04 229.156 1025.15 227.337 1019.13 227.408C1006.13 227.881 1002.4 238.815 988.278 239.524C979.945 239.879 978.172 236.273 971.493 238.342C968.299 239.61 965.389 241.502 962.933 243.907C960.477 246.312 958.525 249.182 957.19 252.349C951.28 264.169 953.349 279.95 958.195 281.486C961.387 282.491 963.278 276.581 969.306 276.463C976.694 276.463 981.127 284.855 984.495 283.2C986.978 282.077 985.441 277.645 988.751 273.212C991.054 270.378 994.272 268.435 997.852 267.716C996.299 268.68 994.968 269.964 993.949 271.482C992.93 273.001 992.246 274.718 991.942 276.522C991.115 284.678 1001.93 292.597 1011.5 293.838C1015.94 294.004 1020.36 293.19 1024.45 291.453C1028.53 289.717 1032.19 287.101 1035.15 283.791C1039.5 279.658 1042.86 274.584 1044.96 268.957C1044.37 271.439 1039.05 291.179 1021.32 298.094C1015.71 300.414 1009.59 301.189 1003.59 300.34C993.479 298.744 991.41 293.129 982.604 292.065C978.915 291.72 975.195 292.117 971.662 293.233C968.13 294.35 964.857 296.163 962.037 298.567C946.966 311.628 955.536 337.928 956.836 341.829C959.023 348.448 961.032 354.418 966.351 356.723C974.448 360.269 979.058 349.985 993.952 349.689C1002.82 349.689 1004.24 353.058 1020.31 353.945C1024.6 354.366 1028.93 354.087 1033.14 353.117C1038.98 351.602 1044.35 348.634 1048.74 344.489C1047.61 346.638 1046.2 348.626 1044.54 350.399C1034.38 361.096 1018.72 358.555 1018.66 360.86C1018.6 363.165 1031.89 367.184 1042.65 362.987C1044.37 362.278 1045.78 361.51 1045.78 361.569C1040.05 366.575 1032.77 369.455 1025.16 369.725C1013.34 368.957 1012.21 356.9 1001.52 355.777C989.696 354.595 986.8 367.597 972.439 368.366C961.919 368.838 956.363 361.096 949.33 364.701C946.296 366.775 942.848 368.167 939.224 368.779C937.812 368.972 936.38 368.972 934.968 368.779C944.602 362.455 949.271 353.058 946.789 345.73C945.666 342.006 942.297 337.574 938.573 337.455C932.663 337.455 927.521 348.507 925.926 355.186C925.358 357.411 925.022 359.689 924.921 361.983C924.188 353.893 925.552 345.751 928.881 338.342C931.879 333.215 935.195 328.28 938.81 323.567C944.247 315.056 952.935 301.403 948.207 294.429C946.716 292.566 944.629 291.272 942.297 290.765C933.018 288.046 923.503 295.789 923.207 295.257C929.223 291.824 934.699 287.522 939.46 282.491C949.803 269.725 947.793 251.935 946.907 244.548C945.627 233.674 941.822 223.251 935.796 214.11C939.235 218.108 943.213 221.609 947.616 224.512C961.446 233.377 977.167 234.796 977.758 232.905C978.349 231.013 973.621 230.482 969.365 224.63C967.578 222.225 966.182 219.552 965.228 216.711C977.817 232.077 986.505 234.441 992.238 233.614C997.971 232.786 1002.82 227.704 1015.88 225.103C1018.92 224.446 1022.06 224.446 1025.1 225.103C1029.46 226.316 1033.29 228.96 1035.97 232.609Z" fill="#ECECEC"/>
<path d="M621.437 356.843C618.631 350.955 616.643 344.711 615.527 338.285C614.128 329.343 614.267 320.229 615.941 311.334C623.506 274.337 663.222 257.138 656.78 242.895C656.048 241.478 655.037 240.224 653.808 239.209C652.579 238.193 651.158 237.436 649.629 236.985C638.222 233.498 617.891 261.275 616.118 263.817C618.806 254.194 623.518 245.256 629.939 237.601C636.361 229.946 644.343 223.752 653.352 219.431C656.012 218.249 681.012 207.611 702.17 217.836C709.985 222.535 718.055 226.797 726.343 230.602C732.726 233.205 739.456 234.858 746.319 235.507C741.092 237.787 736.973 242.033 734.853 247.327C731.898 255.838 734.853 267.422 742.773 270.968C746.232 272.314 750.07 272.314 753.529 270.968C753.122 271.464 752.667 271.92 752.17 272.327C745.078 278.237 728.529 274.219 724.333 265.826C720.964 258.498 729.534 252.824 726.875 244.727C724.215 236.63 710.326 231.488 701.165 231.488C673.328 231.488 637.572 272.209 645.492 309.739C649.806 329.892 667.537 354.006 690.941 354.183C697.633 354.078 704.2 352.35 710.078 349.149C715.956 345.947 720.969 341.368 724.688 335.802C727.836 330.741 729.921 325.091 730.815 319.198C731.709 313.305 731.394 307.291 729.889 301.524C729.164 298.56 728.113 295.686 726.756 292.954C732.649 299.129 736.726 306.809 738.54 315.15C740.354 323.491 739.835 332.17 737.04 340.235C728.47 362.516 703.766 367.067 696.969 368.308C677.288 371.914 652.288 366.063 641.591 349.691C632.194 335.33 636.331 316.89 631.248 316.181C627.643 315.708 623.683 325.046 622.738 327.174C618.91 336.621 618.451 347.097 621.437 356.843Z" fill="#ECECEC"/>
<path d="M364.755 528.351C361.445 526.165 348.029 553.647 328.348 554.061C324.112 553.834 319.966 552.753 316.157 550.885C312.349 549.016 308.957 546.397 306.185 543.186C309.699 545.56 313.662 547.189 317.83 547.971C321.997 548.754 326.281 548.674 330.417 547.737C338.321 545.254 345.006 539.897 349.152 532.725C355.535 523.209 353.053 519.959 357.84 509.084C365.11 492.24 380.594 485.089 378.821 482.311C377.876 480.774 373.798 483.907 366.292 482.311C361.904 481.405 357.829 479.367 354.471 476.401C352.876 474.805 352.285 473.387 350.039 472.146C348.047 470.799 345.606 470.29 343.242 470.727C340.051 472.087 338.573 479.238 341.41 488.044C334.851 479.322 331.585 468.562 332.19 457.666C333.137 445.818 338.544 434.771 347.32 426.756C355.797 418.507 366.908 413.507 378.703 412.63C396.434 412.098 401.28 423.209 414.755 418.836C420.511 416.862 425.745 413.609 430.062 409.321C432.521 406.856 434.665 404.097 436.445 401.105C435.319 407.478 432.818 413.528 429.117 418.836C424.152 425.81 420.429 426.342 418.183 431.897C414.46 441.295 418.951 454.888 424.98 456.129C429.59 457.075 434.554 450.219 438.632 445.077C444.442 437.343 448.477 428.424 450.452 418.954C451.443 429.606 449.219 440.31 444.069 449.687C437.155 461.507 428.88 464.108 423.857 477.938C423.384 479.356 419.069 491.649 424.448 496.732C428.23 500.278 435.027 498.446 438.041 497.678C452.521 493.836 460.204 479.947 462.805 474.569C460.722 482.904 456.961 490.727 451.753 497.559C439.932 512.63 428.112 513.044 424.743 524.923C423.558 529.509 423.751 534.343 425.296 538.82C426.841 543.298 429.67 547.221 433.431 550.101C436.91 552.395 440.948 553.701 445.112 553.878C449.276 554.055 453.41 553.097 457.072 551.105C452.707 554.099 447.748 556.115 442.533 557.016C437.311 558.006 431.932 557.786 426.809 556.372C421.686 554.958 416.956 552.388 412.982 548.86C397.261 531.543 421.079 493.127 408.845 484.971C404.885 482.252 399.27 484.321 393.538 486.389C387.94 488.463 382.982 491.965 379.156 496.548C375.33 501.13 372.77 506.634 371.729 512.512C370.37 522.087 375.452 523.741 375.334 532.784C375.334 549.628 357.249 568.245 338.218 572.441C322.143 575.928 316.114 566.531 296.847 569.782C285.866 571.858 275.618 576.768 267.119 584.025C270.786 578.447 275.519 573.648 281.047 569.905C286.575 566.163 292.788 563.55 299.33 562.217C308.254 561.034 310.204 564.285 322.261 563.339C328.644 562.867 346.611 561.507 357.722 547.737C363.987 539.699 366.883 529.592 364.755 528.351ZM405.594 446.082C405.594 443.186 406.599 429.592 398.029 423.15C383.49 412.276 354.944 431.602 355.949 439.522C356.244 441.472 358.136 442.772 358.017 445.432C357.899 448.091 354.59 450.81 351.575 452.347C352.677 450.982 353.349 449.322 353.507 447.576C353.665 445.829 353.301 444.075 352.462 442.536C351.457 440.881 349.152 438.517 347.497 439.108C344.779 440.053 344.306 448.741 345.961 454.829C349.389 467.181 365.346 481.957 383.017 477.347C398.207 473.505 404.944 457.488 405.594 446.082Z" fill="#ECECEC"/>
<path d="M485.742 256.485C484.541 268.377 479.618 279.587 471.676 288.519C461.103 299.198 446.91 305.524 431.9 306.249C415.293 306.545 408.733 298.329 402.35 303.353C395.08 309.263 395.612 326.994 397.09 336.214C399.04 352.939 399.986 361.332 397.562 364.287C391.652 371.438 375.104 372.088 366.357 363.4C363.591 360.459 361.725 356.788 360.979 352.821C362.486 355.109 364.433 357.076 366.705 358.608C368.977 360.14 371.531 361.206 374.217 361.745C378.78 362.76 383.56 361.932 387.515 359.441C393.071 355.126 391.889 347.916 391.475 319.842C391.475 302.644 391.475 296.202 388.815 295.493C385.033 294.311 378.886 304.594 378.059 305.894C373.346 313.21 371.147 321.862 371.794 330.54C370.195 325.374 369.417 319.989 369.489 314.582C369.962 287.1 393.484 273.211 387.574 259.381C386.496 256.75 384.652 254.503 382.28 252.932C379.909 251.362 377.12 250.541 374.276 250.575C371.065 251.187 368.185 252.944 366.174 255.521C364.162 258.098 363.156 261.319 363.343 264.582C362.924 263.721 362.626 262.806 362.456 261.864C360.269 248.684 384.737 225.753 407.787 226.403C427.409 227.112 439.584 239.228 446.794 232.727C448.549 230.67 449.703 228.171 450.13 225.502C450.558 222.833 450.242 220.098 449.217 217.597C447.559 213.676 444.413 210.572 440.47 208.968C443.679 209.219 446.789 210.189 449.572 211.805C452.355 213.422 454.738 215.643 456.546 218.306C459.915 224.216 456.191 228.944 459.265 238.341C461.215 244.251 466.12 252.939 471.085 252.644C476.049 252.348 480.127 244.429 481.369 233.259C482.129 241.238 481.223 249.288 478.709 256.899C473.744 271.379 463.343 281.545 464.761 282.845C466.179 284.145 469.253 280.776 470.257 280.008C477.743 273.972 483.157 265.748 485.742 256.485ZM441.77 264.287C432.551 274.748 422.503 272.857 407.255 285.977C405.009 287.868 398.508 293.483 399.631 295.67C400.754 297.857 408.083 294.192 418.484 293.897C434.619 293.424 439.525 301.58 446.026 298.802C459.678 292.892 455.541 248.566 450.577 247.975C448.449 247.738 449.217 255.717 441.77 264.287ZM397.74 282.017C400.163 285.091 415.47 276.639 426.227 268.306C432.137 263.459 438.047 258.672 437.042 254.003C436.202 251.933 434.751 250.167 432.882 248.943C431.013 247.718 428.815 247.092 426.581 247.147C419.962 247.147 414.761 254.062 405.305 267.774C399.454 276.344 396.44 280.54 397.74 282.017ZM430.718 239.642C430.127 237.75 404.714 237.632 397.09 251.816C393.012 259.441 394.903 269.547 397.503 270.138C400.104 270.729 402.35 258.968 414.761 248.802C423.508 241.533 431.014 240.705 430.718 239.642Z" fill="#ECECEC"/>
<path d="M741.472 897.268C740.053 916.299 735.089 958.615 712.985 995.14C711.093 998.332 679.474 1049.1 632.547 1050.46C598.859 1051.46 585.266 1026.17 572.855 1041.65C558.02 1059.38 559.143 1114.64 562.098 1142.54C566.058 1193.96 568.008 1219.67 563.103 1228.77C551.282 1250.81 517.595 1252.41 499.923 1225.93C493.8 1215.83 489.948 1204.52 488.635 1192.78C490.29 1196.62 498.978 1215.83 515.408 1220.32C520.195 1221.77 525.297 1221.82 530.114 1220.47C534.931 1219.12 539.261 1216.42 542.595 1212.69C553.942 1199.51 551.519 1177.23 550.691 1091.24C550.219 1038.05 550.692 1019.14 545.313 1016.48C537.571 1012.81 525.1 1044.43 523.446 1048.27C513.717 1072.27 509.398 1098.12 510.798 1123.98C507.542 1107.9 505.977 1091.52 506.129 1075.1C507.074 990.53 554.77 948.45 542.772 905.542C538.339 889.525 526.342 876.346 515.822 878.414C503.647 880.719 493.422 898.982 493.718 921.499C492.839 918.747 492.225 915.917 491.885 913.048C487.453 872.622 536.98 802.173 583.729 804.715C623.387 806.842 648.032 844.076 662.63 824.159C669.722 814.407 671.791 793.604 667.654 777.41C665.325 766.635 658.986 757.148 649.923 750.873C657.293 752.597 664.123 756.116 669.804 761.117C675.485 766.118 679.843 772.446 682.488 779.537C689.344 798.213 681.779 812.161 687.985 841.062C691.885 859.62 701.814 885.861 711.625 884.975C721.436 884.088 730.006 859.797 732.547 825.518C734.168 850.14 732.338 874.867 727.11 898.982C717.063 943.367 696.022 974.632 698.918 978.651C700.514 980.897 708.02 972.268 710.029 969.963C728.883 948.45 737.453 917.54 741.472 897.268ZM652.465 920.908C633.907 953.119 613.517 947.209 582.547 987.634C578.115 993.544 564.817 1010.68 567.181 1017.18C569.545 1023.69 584.32 1012.63 605.301 1011.75C638.044 1010.33 647.973 1035.39 661.034 1026.76C688.812 1008.56 680.42 872.504 670.313 870.731C665.999 870.258 667.595 894.786 652.465 920.908ZM563.339 975.459C568.245 984.915 599.746 958.97 620.963 933.261C633.316 918.367 645.018 903.71 642.89 889.466C642.151 884.168 639.671 879.267 635.84 875.533C632.01 871.799 627.047 869.444 621.732 868.84C608.257 868.84 598.091 889.998 578.706 932.315C566.826 958.083 560.916 970.908 563.339 975.577V975.459ZM630.065 845.436C628.942 839.525 577.524 839.171 562.039 882.729C553.706 906.369 557.606 937.043 562.866 938.994C568.126 940.944 573.15 904.36 597.795 873.627C615.526 851.287 630.715 848.745 630.065 845.495V845.436Z" fill="#ECECEC"/>
<path d="M221.61 358.792C235.381 354.537 238.041 310.033 226.811 305.128C221.197 302.704 212.804 310.565 211.977 311.392C209.088 314.361 206.936 317.967 205.694 321.919C204.452 325.871 204.154 330.059 204.826 334.147C204.141 333.124 203.604 332.009 203.23 330.837C202.41 325.724 202.643 320.497 203.913 315.477C205.183 310.457 207.465 305.749 210.617 301.641C214.288 297.091 218.61 293.109 223.443 289.82C228.563 286.302 232.825 281.677 235.913 276.286C238.429 271.643 239.145 266.235 237.922 261.097C236.411 255.028 233.427 249.426 229.234 244.785C224.34 240.364 218.088 237.738 211.504 237.338C213.847 236.11 216.426 235.401 219.068 235.258C221.709 235.115 224.35 235.543 226.811 236.511C230.062 238.165 231.362 240.766 232.721 240.293C234.081 239.82 234.317 231.546 230.357 226.227C227.971 223.696 225.036 221.746 221.777 220.527C218.519 219.307 215.025 218.851 211.563 219.194C215.381 216.67 219.953 215.543 224.506 216.002C234.199 217.362 238.809 227.823 241.587 226.641C244.364 225.459 244.01 220.73 240.109 203C243.224 209.209 245.623 215.752 247.26 222.504C256.539 260.447 237.331 289.347 245.133 294.017C250.511 297.208 264.164 286.038 271.315 275.754C275.496 269.257 278.271 261.957 279.462 254.323C280.653 246.689 280.233 238.89 278.23 231.428C279.592 233.712 280.72 236.128 281.599 238.638C285.44 249.572 282.367 257.255 283.726 257.669C286.386 258.496 307.012 230.482 295.547 213.165C292.051 208.192 286.895 204.63 281.007 203.118C284.71 202.992 288.395 203.696 291.79 205.179C295.185 206.662 298.206 208.886 300.629 211.688C305.239 218.78 301.693 228 304.885 229.418C308.076 230.837 311.977 220.73 321.138 217.598C327.593 215.888 334.46 216.757 340.286 220.021C334.694 218.619 328.812 218.907 323.383 220.849C307.13 226.759 309.849 246.381 291.587 268.13C276.989 285.21 258.076 293.071 259.081 294.726C259.554 295.494 263.277 293.13 269.128 291.712C289.4 286.629 311.681 296.144 317.414 306.428C318.314 308.174 319.065 309.993 319.66 311.865C320.977 316.17 321.28 320.721 320.546 325.163C320.546 323.39 319.187 308.792 308.726 303.591C306.835 302.704 303.939 301.286 302.048 302.468C297.32 305.541 304.707 324.158 307.426 330.955C314.695 349.395 319.778 362.102 331.067 365.648C341.232 368.839 350.57 362.693 350.925 363.638C347.515 366.916 343.333 369.279 338.766 370.509C334.199 371.739 329.396 371.794 324.802 370.671C315.168 367.48 312.036 357.61 310.558 358.378C307.781 359.738 313.041 395.199 330.121 396.972C339.636 397.917 351.161 388.284 356.303 373.035C350.393 393.307 339.873 407.078 329.471 406.96C317.651 406.96 309.731 389.229 305.062 379.418C286.859 340.47 300.629 312.456 284.908 302.586C275.393 296.676 259.376 299.868 250.807 307.965C231.835 325.695 251.516 361.156 236.859 370.08C225.57 377.054 198.324 364.879 189.577 343.721C186.357 335.295 185.902 326.063 188.277 317.362C188.807 327.482 192.508 337.18 198.856 345.08C200.747 347.09 212.686 361.57 221.61 358.792Z" fill="#ECECEC"/>
<path d="M852.054 271.143C866.652 254.003 886.333 263.991 903.709 245.434C911.613 236.397 916.49 225.113 917.657 213.164C914.902 222.338 909.512 230.501 902.157 236.637C894.801 242.773 885.805 246.613 876.286 247.679C868.403 248.025 860.55 246.509 853.362 243.254C846.175 239.999 839.855 235.097 834.915 228.944C830.148 234.962 824.045 239.788 817.09 243.04C810.135 246.292 802.519 247.88 794.844 247.679C785.293 246.704 776.253 242.897 768.881 236.747C761.51 230.597 756.144 222.385 753.473 213.164C754.691 225.111 759.585 236.385 767.48 245.434C784.796 263.991 804.536 254.003 819.135 271.143C822.149 274.63 825.045 292.774 830.955 328.944C833.733 346.379 835.033 356.19 830.068 359.677C825.104 363.164 817.775 359.204 812.988 356.426C820.494 366.651 828.532 371.852 832.964 369.665C834.29 368.927 835.299 367.728 835.801 366.296C836.277 367.743 837.294 368.95 838.638 369.665C843.012 371.852 851.109 366.651 858.555 356.426C853.768 359.204 846.085 362.809 841.534 359.677C836.983 356.545 837.87 346.379 840.648 328.944C846.085 292.774 848.981 274.63 852.054 271.143Z" fill="#ECECEC"/>
<path d="M368.718 941.709C398.269 889.227 438.222 919.842 473.328 862.868C492.359 832.017 499.037 793.069 501.697 763.813C489.108 822.915 455.834 864.759 417.713 869.724C368.186 876.166 336.744 817.123 334.203 812.159C331.543 817.3 301.165 875.043 252.997 869.724C214.877 865.468 181.425 823.506 169.014 763.813C171.614 793.364 178.352 832.017 197.382 862.868C232.489 919.842 272.382 889.227 301.992 941.709C307.903 952.584 313.813 1008.32 325.633 1119.01C331.189 1172.68 333.907 1202.82 323.801 1213.58C314.522 1223.27 298.978 1212.22 289.285 1203.65C304.416 1235.09 320.728 1250.93 329.711 1244.31C332.787 1241.57 334.866 1237.89 335.621 1233.85C336.402 1237.89 338.477 1241.56 341.531 1244.31C350.515 1251.05 366.827 1235.09 381.957 1203.65C372.264 1212.22 356.72 1223.27 347.441 1213.58C337.335 1202.94 340.054 1172.8 345.609 1119.01C356.72 1008.32 362.631 952.584 368.718 941.709Z" fill="#ECECEC"/>
<path d="M540.886 543.543C538.076 537.656 536.088 531.412 534.976 524.985C533.611 516.021 533.751 506.893 535.389 497.975C543.013 460.978 582.671 443.838 576.228 429.595C575.53 428.165 574.536 426.9 573.314 425.881C572.092 424.863 570.668 424.114 569.136 423.685C557.671 420.138 537.399 447.916 535.567 450.458C538.282 440.839 543.011 431.907 549.44 424.255C555.87 416.603 563.853 410.405 572.86 406.072C575.46 404.949 600.519 394.252 621.678 404.536C629.506 409.212 637.574 413.473 645.85 417.302C652.216 419.884 658.927 421.517 665.767 422.148C660.574 424.456 656.482 428.696 654.361 433.968C651.406 442.479 654.361 454.122 662.28 457.609C665.745 458.926 669.572 458.926 673.037 457.609C672.627 458.086 672.172 458.521 671.678 458.909C664.526 464.819 647.741 460.859 643.841 452.408C640.413 445.138 649.042 439.406 646.382 431.309C643.723 423.212 629.656 418.543 620.436 418.543C592.6 418.543 556.843 459.323 564.822 496.852C569.136 517.006 586.867 541.06 610.271 541.297C616.994 541.197 623.592 539.461 629.493 536.238C635.393 533.014 640.42 528.401 644.136 522.798C647.283 517.725 649.366 512.065 650.26 506.163C651.154 500.26 650.84 494.238 649.337 488.46C648.577 485.508 647.528 482.637 646.205 479.89C652.075 486.08 656.136 493.759 657.949 502.095C659.762 510.43 659.257 519.103 656.488 527.172C647.919 549.453 623.214 553.945 616.418 555.186C596.737 558.791 571.737 552.94 561.039 536.569C551.583 522.207 555.779 503.767 550.697 503.117C547.032 502.585 543.072 511.923 542.186 514.11C538.419 523.488 537.96 533.869 540.886 543.543Z" fill="#ECECEC"/>
<path d="M765.469 458.731C780.067 441.651 799.748 451.58 817.064 433.022C824.948 423.99 829.842 412.737 831.072 400.812C828.307 409.975 822.912 418.124 815.558 424.25C808.203 430.375 799.212 434.206 789.7 435.268C781.818 435.613 773.964 434.097 766.777 430.842C759.589 427.587 753.269 422.685 748.329 416.533C743.556 422.559 737.444 427.39 730.478 430.642C723.512 433.894 715.884 435.478 708.199 435.268C698.656 434.297 689.621 430.498 682.25 424.36C674.879 418.221 669.509 410.021 666.828 400.812C668.058 412.737 672.951 423.99 680.835 433.022C698.152 451.58 717.833 441.651 732.49 458.731C735.504 462.277 738.4 480.362 744.31 516.533C747.029 534.263 748.388 543.778 743.365 547.265C738.341 550.752 731.131 546.793 726.343 544.015C733.79 554.298 741.887 559.499 746.32 557.254C747.645 556.515 748.655 555.317 749.157 553.885C749.619 555.321 750.612 556.526 751.934 557.254C756.367 559.499 764.464 554.298 771.911 544.015C767.124 546.793 759.44 550.398 754.89 547.265C750.339 544.133 751.225 533.968 753.944 516.533C759.499 480.362 762.395 462.277 765.469 458.731Z" fill="#ECECEC"/>
<path d="M828.295 479.656C831.65 480.275 835.096 480.212 838.426 479.47C841.757 478.729 844.904 477.325 847.68 475.341C856.191 468.367 857.077 455.601 855.541 447.504C853.059 434.62 843.72 431.251 843.248 417.953C843.064 413.94 843.646 409.929 844.962 406.133C844.309 409.411 844.309 412.785 844.962 416.062C845.037 419.139 846.309 422.065 848.508 424.218C850.042 424.979 851.731 425.374 853.443 425.374C855.155 425.374 856.844 424.979 858.378 424.218C868.839 420.436 870.612 409.147 882.018 403.592C888.126 401.04 894.858 400.381 901.345 401.701C927.586 404.597 952.999 429.419 957.255 457.611C957.925 462.79 957.925 468.034 957.255 473.214C948.862 453.237 944.725 448.864 942.479 449.573C938.342 450.578 937.751 470.14 942.479 486.216C946.782 500.484 954.56 513.461 965.115 523.982C941.475 513.166 922.089 510.861 917.302 518.072C913.401 523.982 919.134 536.748 924.453 544.017C929.086 549.41 934.435 554.142 940.352 558.083C939.879 558.911 928.531 552.173 913.46 546.263C897.089 539.998 888.933 536.866 879.536 536.511C867.474 536.394 855.533 538.916 844.548 543.899C834.501 548.095 825.813 553.769 825.458 553.178C825.103 552.587 849.69 540.53 848.449 528.178C848.094 524.159 844.784 518.072 841.475 518.604C840.181 518.842 838.965 519.389 837.928 520.199C834.074 522.26 829.621 522.908 825.34 522.031C832.308 520.183 838.437 516.014 842.716 510.211C849.572 500.637 850.694 486.57 846.262 483.615C844.252 482.315 842.361 483.615 836.806 483.202C833.69 482.85 830.739 481.62 828.295 479.656ZM906.605 452.823C902.722 448.391 900.489 442.755 900.281 436.866C900.281 427.705 906.723 423.745 904.772 416.18C904.117 414.003 902.957 412.011 901.385 410.368C899.814 408.724 897.876 407.476 895.73 406.724C887.692 404.065 879.418 411.748 876.404 414.526C862.81 427.055 863.401 447.563 863.579 452.232C864.288 467.067 869.902 468.367 869.489 481.133C868.661 498.864 857.668 504.774 860.564 511.748C865.056 521.559 894.607 524.218 912.633 510.211C927.467 498.391 928.472 480.128 930.363 443.131C930.954 432.079 930.363 423.391 925.163 420.199C922.809 419.208 920.227 418.887 917.702 419.273C915.178 419.659 912.81 420.737 910.86 422.386C903.59 427.587 901.522 440.057 906.605 452.823ZM947.089 509.502C950.103 505.306 938.224 487.93 931.605 489.526C929.004 490.117 927.408 493.485 927.113 495.968C926.404 501.878 932.609 506.251 933.85 507.079C938.224 510.152 945.316 511.925 947.089 509.502Z" fill="#ECECEC"/>
<path d="M1073.39 393.718C1067.95 397.615 1063.53 402.764 1060.51 408.73C1057.53 414.156 1056.07 420.277 1056.25 426.46C1056.66 435.444 1062.69 449.332 1073.15 450.101C1082.31 450.692 1089.05 440.822 1089.7 439.876C1088.76 443.385 1087.11 446.663 1084.86 449.51C1080.46 454.33 1074.71 457.709 1068.37 459.202C1047.74 466.886 1040.41 526.992 1051.88 531.897C1057.79 534.38 1069.96 524.155 1072.98 511.921C1074.33 505.421 1073.46 498.655 1070.49 492.713C1072.89 495.19 1074.79 498.097 1076.11 501.283C1078.76 507.985 1078.76 515.444 1076.11 522.146C1072.21 531.011 1064.82 532.488 1065.23 538.871C1065.29 540.191 1065.65 541.479 1066.3 542.63C1066.94 543.781 1067.86 544.761 1068.96 545.491C1074.04 548.209 1084.03 542.299 1093.48 530.183C1083.91 546.495 1070.49 558.079 1059.68 555.893C1045.26 552.997 1032.96 525.042 1037.46 504.474C1038.87 497.855 1042.42 490.29 1038.52 484.202C1037.32 482.221 1035.55 480.651 1033.44 479.701C1031.33 478.751 1028.98 478.465 1026.7 478.883C1023.87 480.125 1021.6 482.371 1020.34 485.188C1019.07 488.005 1018.9 491.192 1019.84 494.131C1020.71 496.643 1022.29 498.847 1024.39 500.474C1026.49 502.101 1029.02 503.081 1031.66 503.292C1027.84 503.851 1023.94 503.146 1020.55 501.283C1011.63 495.905 1013.76 483.552 1004.83 480.124C1003.38 479.452 1001.79 479.103 1000.19 479.103C998.59 479.103 997.007 479.452 995.553 480.124C994.016 481.188 993.957 482.252 992.598 483.907C990.32 486.607 987.073 488.305 983.555 488.635C993.071 477.524 991.534 464.344 985.919 460.503C981.369 457.429 972.444 459.439 965.293 466.413C967.716 464.049 992.834 438.99 985.801 410.562C984.356 404.919 981.848 399.604 978.414 394.9C983.111 398.148 987.126 402.284 990.234 407.075C1005.3 430.715 989.879 455.361 1002.05 467.181C1011.21 476.046 1033.14 474.628 1042.6 464.285C1055.42 450.278 1039.41 426.46 1053.95 407.016C1058.93 400.719 1065.71 396.082 1073.39 393.718Z" fill="#ECECEC"/>
<path d="M473.272 722.624C473.376 725.132 472.706 727.612 471.353 729.727C469.999 731.841 468.028 733.488 465.707 734.444C459.796 736.158 453.886 729.953 451.818 724.752C451.173 721.7 451.171 718.547 451.812 715.494C452.453 712.442 453.723 709.556 455.541 707.021C462.456 695.674 468.603 662.045 469.962 576.998C468.511 584.372 464.87 591.137 459.514 596.409C454.157 601.682 447.335 605.215 439.938 606.548C432.344 607.272 424.732 605.374 418.366 601.17C419.438 604.654 421.234 607.872 423.638 610.613C426.042 613.353 428.999 615.553 432.314 617.069C439.997 619.551 444.135 614.232 449.395 617.069C459.442 622.388 459.678 653.593 446.262 662.104C439.938 666.182 435.388 662.104 425.636 666.714C414.17 672.269 412.042 682.021 408.201 681.076C402.291 679.657 409.205 657.021 397.503 641.773C390.519 633.586 380.871 628.125 370.258 626.348C373.567 627.943 377.527 630.366 377.468 633.262C377.468 637.104 370.376 638.818 364.584 642.719C349.986 652.589 348.981 672.269 347.799 672.269C346.617 672.269 349.276 649.87 361.747 576.702C355.442 585.649 346.791 592.684 336.747 597.033C340.887 614.039 342.304 631.593 340.943 649.043C340.401 656.601 339.294 664.108 337.633 671.501C333.53 689.868 325.35 707.077 313.697 721.856C315.389 719.741 317.712 718.222 320.327 717.521C322.942 716.819 325.713 716.971 328.236 717.955C330.078 719.409 331.269 721.535 331.546 723.865C333.083 733.44 322.267 741.596 321.321 742.187C329.211 742.399 337.106 742.123 344.962 741.359C374.513 738.522 389.17 737.459 398.508 727.234C407.846 717.009 401.227 709.858 414.879 687.518C423.449 673.511 429.005 671.442 432.61 671.147C436.016 670.908 439.42 671.636 442.431 673.246C445.442 674.856 447.938 677.283 449.631 680.248C456.546 694.61 430.187 710.922 436.215 728.416C438.16 733.027 441.465 736.934 445.689 739.617C449.913 742.299 454.856 743.629 459.856 743.428C465.766 743.073 474.572 739.764 476.109 732.553C476.315 730.793 476.171 729.009 475.684 727.305C475.197 725.6 474.377 724.01 473.272 722.624ZM383.496 714.35C382.078 724.574 364.82 733.085 354.477 727.943C347.917 724.752 344.135 716.123 346.026 713.877C347.917 711.631 350.872 715.414 357.078 715.295C368.898 715.295 374.808 702.825 380.187 705.189C383.201 706.43 384.087 711.158 383.674 714.35H383.496ZM400.045 698.215C398.094 706.016 393.662 714.35 390.529 714.054C387.397 713.759 389.643 700.816 383.437 696.678C373.508 689.882 352.941 713.404 345.73 708.499C338.52 703.593 344.667 673.983 364.643 661.217C366.83 659.74 380.778 650.697 391.534 656.253C405.009 662.459 403.591 686.099 400.222 698.215H400.045Z" fill="#ECECEC"/>
<path d="M703.06 671.087C705.887 678.63 706.662 686.788 705.306 694.728C704.477 700.753 702.186 706.484 698.631 711.419C695.077 716.354 690.368 720.343 684.915 723.038C676.346 726.466 666.239 724.752 665.471 721.383C664.998 719.492 667.067 717.541 670.258 712.931C672.685 709.044 673.861 704.506 673.627 699.929C672.268 702.411 662.989 719.019 646.027 721.324C625.577 724.042 609.975 703.593 604.655 688.877C597.918 671.146 600.932 649.042 608.261 646.56C615.589 644.078 627.055 665.414 639.348 661.927C641.681 661.125 643.733 659.668 645.258 657.73C638.361 656.74 631.96 653.575 626.986 648.697C622.011 643.818 618.723 637.479 617.599 630.603C616.722 625.431 617.191 620.121 618.961 615.184C620.731 610.246 623.742 605.848 627.705 602.411C640.057 593.014 662.457 597.092 676.05 616.714C674.691 613.522 664.23 589.823 645.554 587.872C639.286 587.467 633.058 589.128 627.823 592.6C602.114 607.671 602.705 644.787 593.485 644.787C584.265 644.787 584.856 609.326 559.856 594.669C554.619 591.205 548.393 589.545 542.126 589.941C523.391 591.891 512.989 615.591 511.629 618.782C525.223 599.161 547.622 595.142 559.975 604.48C563.937 607.904 566.949 612.292 568.719 617.22C570.49 622.148 570.959 627.45 570.081 632.612C568.968 639.499 565.685 645.851 560.71 650.742C555.734 655.632 549.327 658.805 542.421 659.799C543.95 661.72 546.003 663.157 548.332 663.936C560.625 667.482 571.381 646.206 579.419 648.629C587.457 651.052 589.762 673.215 583.024 690.946C577.114 705.662 561.807 726.407 541.653 723.333C524.691 721.087 515.412 704.48 514.053 701.938C513.819 706.515 514.995 711.053 517.421 714.941C520.613 719.61 522.681 721.501 522.209 723.392C521.44 726.82 511.334 728.534 502.764 725.106C497.304 722.406 492.59 718.408 489.035 713.462C485.48 708.516 483.193 702.773 482.374 696.737C481.054 688.796 481.828 680.648 484.62 673.097C479.822 679.103 476.939 686.413 476.346 694.078C475.105 716.596 496.795 737.34 516.358 742.128C547.741 749.811 584.265 719.137 593.544 683.026C593.544 682.021 593.958 680.957 594.194 679.894V680.78C603.473 716.891 639.998 747.565 671.381 739.882C690.944 735.094 712.752 714.35 711.393 691.832C710.787 684.231 707.88 676.995 703.06 671.087Z" fill="#ECECEC"/>
<path d="M1197.69 245.377C1196.9 242.392 1195.47 239.614 1193.5 237.236C1191.53 234.858 1189.07 232.937 1186.28 231.607C1181.04 229.854 1175.33 230.214 1170.35 232.609C1165.37 235.003 1161.52 239.245 1159.63 244.432C1158.77 247.13 1158.66 250.01 1159.3 252.767C1159.95 255.524 1161.32 258.055 1163.29 260.094C1167.84 263.758 1172.75 260.507 1179.13 263.344C1181.91 264.834 1184.36 266.885 1186.31 269.367C1188.26 271.849 1189.68 274.708 1190.48 277.765C1189.19 275.927 1187.51 274.403 1185.56 273.307C1183.6 272.212 1181.42 271.574 1179.19 271.441C1172.86 271.796 1169.02 278.829 1166.01 284.444C1162.02 292.754 1159.59 301.73 1158.86 310.921C1155.84 332.375 1158.09 338.64 1159.51 341.654C1160.93 344.668 1164.12 351.583 1168.43 351.465C1172.75 351.347 1174.34 344.077 1184.09 327.824C1186.4 323.864 1188.47 320.614 1190 318.25C1187.47 322.944 1185.91 328.097 1185.4 333.406C1184.89 338.715 1185.45 344.071 1187.05 349.16C1190.45 358.77 1197.44 366.69 1206.55 371.264C1203.96 370.523 1201.24 370.34 1198.57 370.727C1195.9 371.115 1193.34 372.063 1191.07 373.51C1187.94 376.203 1185.85 379.902 1185.16 383.971C1182.91 392.836 1192.84 411.63 1211.81 431.252C1203.93 426.486 1196.84 420.502 1190.83 413.521C1174.52 394.668 1178.66 383.498 1169.26 372.919C1148.81 349.751 1090.95 381.488 1078.66 362.103C1077.36 360.094 1077.47 351.11 1077.65 333.261C1077.65 313.285 1079.07 304.361 1076 303.297C1072.92 302.233 1067.9 309.207 1065.71 313.581C1063.43 318.253 1062.59 323.499 1063.29 328.652C1061.67 324.827 1060.84 320.717 1060.84 316.565C1060.84 312.413 1061.67 308.303 1063.29 304.479C1066.72 297.328 1073.81 292.659 1072.15 287.399C1071.87 286.489 1071.4 285.65 1070.77 284.937C1070.13 284.224 1069.36 283.653 1068.49 283.261C1063.7 281.193 1055.67 285.803 1049.16 295.377C1050.99 291.449 1053.31 287.773 1056.08 284.444C1063.82 275.224 1068.96 276.051 1073.4 270.141C1082.91 257.493 1072.98 235.094 1071.09 230.661C1068.2 224.22 1064.2 218.338 1059.27 213.285C1070.9 220.794 1080.22 231.395 1086.16 243.9C1105.67 287.931 1076.11 327.883 1097.04 349.16C1108.86 361.335 1133.27 361.867 1143.02 352.529C1148.93 347.15 1148.93 339.763 1147.15 317.068C1142.43 247.446 1149.52 234.916 1156.43 229.361C1160.19 226.55 1164.61 224.74 1169.26 224.101C1181.08 222.269 1196.39 227.588 1198.81 237.221C1199.34 239.99 1198.94 242.855 1197.69 245.377Z" fill="#ECECEC"/>
<path d="M713.221 1240.47C713.221 1223.03 714.521 1201.99 721.377 1190.94C732.192 1173.51 748.327 1194.43 754.592 1178.53C758.847 1167.77 756.128 1148.98 751.223 1123.09C745.31 1088.71 743.682 1053.73 746.377 1018.96C747.322 1034.14 753.351 1120.14 788.93 1168.31C796.377 1178.47 820.845 1211.63 846.081 1193.72C887.452 1164.52 886.92 1030.01 886.861 1023.21C886.861 1010.27 886.329 962.277 875.514 953.412C866.767 946.26 859.143 968.66 845.963 980.126C822.736 1000.28 777.523 950.929 764.107 881.071C748.386 799.215 779.296 736.922 759.97 662.395C750.159 624.57 732.488 605.007 719.663 594.487C736.98 593.66 758.493 598.861 770.313 629.594C792.831 688.104 762.452 790.409 784.615 828.707C795.076 846.792 815.289 845.61 827.523 839.109C833.84 835.277 839.883 831.012 845.608 826.343C815.112 872.561 809.675 891.355 811.507 900.043C813.634 909.617 830.006 913.754 842.24 898.802C856.128 881.958 863.162 842.478 859.438 799.097C867.003 840.468 865.348 867.064 862.039 884.44C859.143 899.629 852.76 919.014 855.006 923.388C856.128 925.516 858.788 922.738 859.734 921.969C876.873 907.253 892.417 778.353 892.417 778.353C900.374 711.846 916.512 646.577 940.467 584.026C934.556 612.159 927.937 645.669 921.968 684.145C906.188 786.213 891.826 879.18 910.147 920.847C917.358 937.1 925.809 949.334 931.483 982.135C934.405 999.707 935.613 1017.52 935.088 1035.33C932.015 1006.25 926.164 982.726 919.604 982.135C910.384 981.071 898.741 1024.92 903.646 1053.53C906.838 1072.32 915.467 1072.8 921.377 1094.9C925.642 1113.43 926.8 1132.55 924.805 1151.46C916.53 1111.63 909.615 1104.65 905.242 1104.48C890.466 1103.83 888.516 1175.87 860.325 1218.42C838.753 1250.93 810.325 1242.95 801.223 1240.11C766.412 1229.24 753.233 1188.46 733.079 1203.41C723.15 1210.5 716.826 1228.23 713.221 1240.47Z" fill="#ECECEC"/>
<path d="M1235.09 620.551C1233.99 638.074 1230.94 655.419 1225.99 672.265C1212.87 714.936 1190.53 728.353 1177.76 735.918C1160.03 746.024 1151.52 742.714 1127.71 744.487C1076.76 748.27 1044.49 750.397 1030.78 791.769C1027.53 801.639 1028 805.598 1024.22 889.877C1020.91 964.936 1013.58 1004.53 1020.55 1012.39C1027.53 1020.26 1039.29 979.003 1068.49 936.863C1088.05 908.731 1118.07 865.409 1137.63 882.903C1163.34 906.012 1171.62 1035.56 1147.98 1127.11C1126.23 1211.45 1080.78 1247.68 1041.59 1245.31C1023.15 1244.13 995.259 1238.4 983.084 1198.03C957.256 1111.98 1030.07 953.766 1004.24 862.75C1002.47 856.84 996.677 836.213 989.053 836.272C978.474 836.272 969.727 875.22 967.54 903.471C965.997 924.125 967.35 944.893 971.559 965.173C974.377 980.136 979.776 994.495 987.516 1007.61C981.192 1002.7 965.708 988.695 956.961 955.185C945.85 912.277 952.942 864.818 954.892 851.698C962.93 797.679 980.424 782.253 975.873 755.835C972.859 738.695 962.753 726.284 954.36 725.102C943.663 723.624 936.098 736.922 935.625 734.913C939.497 724.808 946.742 716.352 956.133 710.977C971.795 703.53 978.533 720.965 994.254 724.393C1016.36 729.18 1040.18 702.584 1053.36 665.291C1061.79 639.021 1066.15 611.616 1066.3 584.026C1068.22 594.517 1069.19 605.159 1069.19 615.823C1069.19 667.064 1046.68 697.029 1050.16 707.903C1052.94 716.355 1067.07 703.293 1099.45 679.239C1130.6 656.189 1134.92 658.731 1148.57 641.769C1162.04 624.527 1173.11 605.541 1181.49 585.327C1176.66 608.215 1168.71 630.329 1157.85 651.048C1136.04 690.705 1113.52 691 1113.99 700.338C1114.53 712.632 1154.12 731.012 1190.35 698.033C1213.46 677.052 1227.65 642.537 1235.09 620.551ZM1119.61 1167.83C1122.5 1171.85 1137.34 1148.62 1139.05 1116.83C1140.23 1095.37 1135.51 1068.84 1128.83 1066.35C1120.73 1063.4 1117.01 1101.82 1102.47 1108.73C1094.02 1112.81 1085.86 1104.48 1080.78 1097.68C1084.93 1097.57 1089 1096.52 1092.69 1094.6C1096.37 1092.69 1099.58 1089.96 1102.06 1086.63C1113.88 1072.68 1118.96 1049.92 1124.16 1025.34C1130.84 993.601 1141.89 941.946 1133.5 925.988C1116.3 892.773 1029.77 1004 1035.68 1065.82C1037.81 1088.05 1052.71 1104.18 1050.05 1115C1047.39 1125.81 1029.36 1108.26 1022.21 1124.63C1015.71 1139.4 1018.6 1178.35 1028.89 1198.21C1051.94 1242.83 1108.2 1183.32 1113.7 1152.35C1113.7 1151.99 1113.7 1151.76 1113.7 1150.99C1116.1 1135.69 1121.39 1120.98 1129.3 1107.67C1118.31 1154.83 1118.13 1165.76 1119.61 1167.83Z" fill="#ECECEC"/>
<path d="M1228.89 1331.13L1227.71 1329.12C1228.97 1334.42 1229.35 1339.89 1228.83 1345.31C1228.36 1349.75 1227 1358.02 1225.52 1357.96C1223.04 1357.96 1226.88 1335.92 1215.47 1321.02C1208.91 1313.3 1199.82 1308.14 1189.82 1306.48C1192.95 1307.96 1196.62 1310.27 1196.62 1312.99C1196.62 1315.7 1189.94 1318.19 1184.8 1321.85C1171.03 1331.13 1170.08 1349.92 1168.96 1349.75C1167.84 1349.57 1170.38 1328.71 1182.14 1259.79C1176.19 1268.29 1168 1274.98 1158.5 1279.12C1162.4 1295.14 1163.73 1311.68 1162.46 1328.12C1161.93 1335.22 1160.86 1342.27 1159.27 1349.21C1155.39 1366.5 1147.63 1382.67 1136.57 1396.5C1138.15 1394.48 1140.34 1393.04 1142.81 1392.38C1145.29 1391.72 1147.91 1391.88 1150.28 1392.83C1151.18 1393.55 1151.91 1394.45 1152.44 1395.46C1152.97 1396.48 1153.28 1397.6 1153.36 1398.74C1154.77 1407.73 1144.67 1415.29 1143.72 1416C1151.26 1416.16 1158.8 1415.89 1166.3 1415.17C1191.77 1412.69 1205.31 1411.39 1216.65 1401.93C1235.98 1385.27 1240.29 1351.17 1228.89 1331.13ZM1202.29 1389.46C1200.93 1399.1 1184.56 1407.19 1174.93 1402.29C1169.02 1399.27 1165.23 1391.12 1167.01 1389.05C1168.78 1386.98 1171.56 1390.47 1177.41 1390.35C1188.64 1390.35 1194.25 1378.53 1199.16 1380.83C1201.88 1381.9 1202.71 1386.51 1202.29 1389.46ZM1217.84 1374.33C1215.83 1381.66 1211.92 1389.46 1208.91 1389.05C1205.9 1388.64 1208.08 1376.64 1202.23 1372.68C1192.84 1366.35 1173.57 1388.4 1166.77 1383.67C1159.97 1378.94 1165.77 1351.22 1184.5 1338.99C1186.57 1337.63 1199.63 1329.12 1209.8 1334.32C1222.33 1340.53 1220.97 1362.87 1217.95 1374.33H1217.84Z" fill="#ECECEC"/>
<path d="M680.121 1387.81C676.812 1385.62 663.396 1413.11 643.774 1413.52C639.535 1413.3 635.384 1412.22 631.567 1410.37C627.75 1408.51 624.344 1405.9 621.552 1402.71C625.071 1405.07 629.034 1406.69 633.2 1407.47C637.365 1408.25 641.647 1408.18 645.783 1407.26C653.661 1404.72 660.317 1399.35 664.459 1392.19C670.842 1382.67 668.36 1379.42 673.147 1368.25C680.417 1351.41 695.901 1344.25 694.128 1341.48C693.183 1339.94 689.105 1343.07 681.599 1341.48C677.215 1340.56 673.142 1338.52 669.779 1335.57C668.183 1333.97 667.592 1332.55 665.346 1331.31C665.346 1331.31 661.091 1328.95 658.549 1330.01C656.008 1331.07 653.939 1338.52 656.717 1347.33C650.158 1338.6 646.892 1327.85 647.497 1316.95C648.444 1305.1 653.851 1294.05 662.627 1286.04C671.185 1277.84 682.361 1272.92 694.187 1272.15C711.918 1271.62 716.764 1282.73 730.24 1278.36C736.006 1276.4 741.245 1273.15 745.547 1268.84C748.005 1266.38 750.149 1263.62 751.93 1260.62C750.803 1267 748.302 1273.05 744.601 1278.36C739.637 1285.33 735.913 1285.86 733.667 1291.42C729.944 1300.81 734.436 1314.41 740.464 1315.65C745.074 1316.59 750.039 1310.03 754.117 1304.6C759.926 1296.86 763.962 1287.94 765.937 1278.47C766.927 1289.13 764.704 1299.83 759.554 1309.21C752.639 1321.03 744.365 1323.63 739.341 1337.46C738.868 1338.88 734.554 1351.17 739.932 1356.25C743.715 1359.8 750.511 1358.02 753.526 1357.2C768.005 1353.36 775.689 1339.47 778.289 1334.09C776.207 1342.42 772.446 1350.25 767.237 1357.08C755.417 1372.15 743.596 1372.56 740.287 1384.44C739.037 1389.03 739.198 1393.88 740.748 1398.37C742.297 1402.86 745.164 1406.78 748.975 1409.62C752.449 1411.93 756.488 1413.24 760.655 1413.42C764.822 1413.59 768.958 1412.63 772.615 1410.62C768.271 1413.66 763.303 1415.68 758.076 1416.54C752.855 1417.53 747.476 1417.31 742.353 1415.89C737.23 1414.48 732.5 1411.91 728.526 1408.38C712.805 1391.06 736.622 1352.65 724.388 1344.49C720.429 1341.77 714.814 1343.84 709.081 1345.91C703.483 1347.98 698.525 1351.48 694.699 1356.07C690.874 1360.65 688.313 1366.15 687.273 1372.03C685.913 1381.61 690.996 1383.26 690.878 1392.3C690.878 1409.15 672.793 1427.76 653.762 1431.96C637.686 1435.45 631.658 1426.05 612.391 1429.36C601.314 1431.31 590.954 1436.16 582.367 1443.43C586.034 1437.85 590.767 1433.05 596.295 1429.31C601.823 1425.56 608.036 1422.95 614.578 1421.62C623.502 1420.44 625.452 1423.69 637.509 1422.74C643.892 1422.27 661.859 1420.91 672.97 1407.14C679.412 1399.22 682.072 1389.11 680.121 1387.81ZM720.961 1305.54C720.961 1302.65 721.965 1289.05 713.395 1282.61C698.856 1271.74 670.31 1291.06 671.374 1298.98C671.374 1300.93 673.502 1302.23 673.384 1304.89C673.266 1307.55 669.956 1310.27 666.942 1311.81C668.045 1310.46 668.719 1308.8 668.877 1307.07C669.035 1305.33 668.67 1303.58 667.828 1302.06C666.823 1300.34 664.518 1297.98 662.923 1298.57C660.204 1299.51 659.672 1308.2 661.386 1314.29C664.755 1326.7 680.712 1341.48 698.384 1336.81C713.632 1333.02 720.369 1316.89 721.02 1305.6L720.961 1305.54Z" fill="#ECECEC"/>
<path d="M639.282 1304.71C638.11 1316.25 633.309 1327.11 625.571 1335.74C615.384 1346.31 601.577 1352.65 586.918 1353.47C570.725 1353.77 564.342 1345.79 558.195 1350.63C551.103 1356.54 551.635 1373.8 553.053 1382.61C554.944 1398.92 555.89 1407.08 553.526 1409.97C547.616 1416.95 531.658 1417.54 523.207 1409.09C520.423 1406.22 518.533 1402.61 517.77 1398.68C519.231 1400.9 521.116 1402.81 523.317 1404.31C525.517 1405.8 527.991 1406.84 530.595 1407.37C535.109 1408.32 539.816 1407.47 543.715 1405.01C549.152 1400.81 547.97 1393.78 547.557 1366.47C547.557 1349.69 547.557 1343.66 545.015 1342.83C541.292 1341.71 535.264 1351.7 534.495 1352.94C529.94 1360.07 527.863 1368.5 528.585 1376.93C527.023 1371.85 526.305 1366.54 526.457 1361.21C526.93 1334.38 550.098 1321.08 544.188 1307.49C543.073 1304.91 541.197 1302.73 538.811 1301.24C536.424 1299.75 533.641 1299.02 530.831 1299.16C527.709 1299.77 524.912 1301.48 522.957 1303.99C521.002 1306.5 520.02 1309.63 520.193 1312.81C519.773 1311.97 519.474 1311.07 519.306 1310.15C517.179 1297.32 540.996 1274.98 563.455 1275.81C582.486 1276.52 594.365 1288.28 601.398 1281.72C603.13 1279.72 604.269 1277.28 604.687 1274.67C605.105 1272.06 604.785 1269.39 603.762 1266.95C602.971 1265.05 601.812 1263.32 600.352 1261.87C598.891 1260.42 597.158 1259.27 595.252 1258.5C598.376 1258.75 601.405 1259.69 604.116 1261.27C606.826 1262.84 609.149 1265.01 610.914 1267.6C614.164 1273.51 610.559 1277.94 613.514 1287.1C615.405 1293.01 620.193 1301.28 624.98 1300.99C629.767 1300.69 633.786 1293.01 635.027 1282.14C635.801 1290 634.895 1297.94 632.368 1305.42C627.58 1319.49 617.474 1329.42 618.833 1330.72C620.193 1332.02 623.207 1328.65 624.212 1327.94C631.562 1321.98 636.837 1313.85 639.282 1304.71ZM596.493 1312.34C587.569 1322.5 577.758 1320.67 562.864 1333.44C560.736 1335.27 554.353 1340.76 555.535 1342.89C556.718 1345.02 563.751 1341.47 573.857 1341.18C589.578 1340.71 594.306 1348.63 600.63 1345.91C613.987 1340 609.909 1297.03 605.063 1296.5C603.29 1296.26 603.762 1304 596.493 1312.34ZM553.644 1329.59C556.008 1332.61 571.375 1324.39 581.363 1316.24C587.273 1311.51 592.888 1306.9 591.883 1302.35C591.046 1300.36 589.626 1298.68 587.811 1297.52C585.996 1296.36 583.871 1295.77 581.717 1295.85C575.275 1295.85 570.429 1302.53 561.032 1315.94C555.358 1324.04 552.462 1328.12 553.644 1329.59ZM585.736 1288.22C585.204 1286.33 560.441 1286.21 553.053 1300.04C549.034 1307.43 550.926 1317.24 553.408 1317.77C555.89 1318.31 558.372 1306.84 570.193 1297.03C575.054 1293.71 580.196 1290.82 585.559 1288.4L585.736 1288.22Z" fill="#ECECEC"/>
<path d="M872.145 1259.92C866.925 1263.63 862.686 1268.56 859.793 1274.28C856.92 1279.46 855.492 1285.32 855.656 1291.24C856.069 1299.81 861.566 1313.11 871.909 1313.82C880.715 1314.35 887.157 1304.89 887.748 1304C886.84 1307.37 885.25 1310.5 883.079 1313.22C878.88 1317.86 873.379 1321.11 867.299 1322.56C847.5 1329.89 840.467 1387.57 851.46 1392.24C856.956 1394.61 868.835 1384.8 871.731 1373.09C873.033 1366.87 872.179 1360.39 869.308 1354.71C871.836 1357.14 873.846 1360.06 875.218 1363.28C877.736 1369.7 877.736 1376.84 875.218 1383.26C871.495 1391.71 864.403 1393.19 864.817 1399.28C864.866 1400.54 865.213 1401.77 865.83 1402.86C866.446 1403.96 867.314 1404.9 868.363 1405.6C873.268 1408.26 882.843 1402.59 892.003 1391C882.783 1406.61 869.899 1417.72 859.556 1415.59C845.727 1412.81 833.906 1386.04 838.221 1366.3C839.58 1359.97 843.008 1352.7 839.225 1346.85C838.063 1344.98 836.37 1343.49 834.361 1342.57C832.351 1341.66 830.116 1341.36 827.937 1341.71C825.21 1342.89 823.026 1345.05 821.821 1347.77C820.617 1350.49 820.479 1353.56 821.436 1356.37C822.25 1358.8 823.769 1360.94 825.8 1362.51C827.831 1364.07 830.282 1365 832.842 1365.18C829.056 1365.78 825.179 1365.07 821.85 1363.17C813.28 1358.02 815.289 1346.44 806.779 1342.89C805.39 1342.25 803.877 1341.91 802.346 1341.91C800.815 1341.91 799.302 1342.25 797.913 1342.89C796.377 1343.96 796.377 1344.96 795.077 1346.62C792.842 1349.14 789.743 1350.75 786.389 1351.11C795.49 1340.41 794.013 1327.47 788.635 1324.16C784.261 1321.14 775.691 1323.15 768.895 1329.54C771.199 1327.29 795.313 1303.24 788.516 1275.99C787.135 1270.6 784.727 1265.52 781.424 1261.04C785.896 1264.22 789.71 1268.23 792.653 1272.86C807.133 1295.67 792.299 1319.19 804.001 1330.54C812.807 1339.05 833.552 1337.63 842.89 1327.76C855.183 1314.35 839.816 1291.48 853.764 1272.86C858.438 1266.78 864.848 1262.27 872.145 1259.92Z" fill="#ECECEC"/>
<path d="M891.591 1415.82C891.345 1413.68 891.578 1411.51 892.273 1409.46C892.968 1407.42 894.108 1405.55 895.61 1404C900.988 1399.87 909.085 1404.83 912.218 1401.05C914.345 1398.51 912.927 1394.01 910.504 1387.81C907.622 1379.89 906.789 1371.37 908.08 1363.05C908.954 1370.11 911.293 1376.91 914.947 1383.01C918.6 1389.12 923.488 1394.4 929.298 1398.51C933.021 1400.93 945.255 1408.79 957.844 1404.42C978.352 1397.5 978.234 1365.41 978.175 1363.81C978.175 1360.74 978.175 1349.27 972.265 1347.21C967.95 1345.49 964.109 1350.81 957.489 1353.53C945.669 1358.38 923.388 1346.61 916.709 1329.89C908.849 1310.39 924.274 1295.55 914.641 1277.82C910.038 1270.26 902.926 1264.55 894.546 1261.69C903.175 1261.69 913.872 1262.69 919.783 1270.02C931.012 1283.97 915.823 1308.32 926.934 1317.3C930.144 1319.15 933.697 1320.32 937.376 1320.75C941.054 1321.17 944.781 1320.84 948.329 1319.78C953.293 1318.48 957.962 1316.24 957.371 1316.65C942.182 1327.64 939.641 1332.19 940.35 1334.38C941.059 1336.57 949.57 1337.63 955.657 1334.38C959.306 1331.77 962.078 1328.11 963.608 1323.89C965.137 1319.67 965.353 1315.09 964.227 1310.74C965.775 1313.88 966.688 1317.29 966.911 1320.78C967.134 1324.27 966.664 1327.76 965.527 1331.07C964.109 1334.68 960.917 1339.29 962.04 1340.35C963.163 1341.41 963.931 1340.35 964.404 1340C972.974 1336.51 980.716 1305.78 980.716 1305.78C985.219 1288.78 993.412 1272.98 1004.71 1259.5C1001.18 1267.2 998.085 1275.09 995.433 1283.14C987.572 1307.43 980.421 1329.53 989.523 1339.52C994.242 1343.43 997.918 1348.44 1000.22 1354.12C1001.64 1358.18 1002.24 1362.48 1001.99 1366.77C1000.46 1359.79 997.56 1354.24 994.251 1354.06C989.641 1353.77 983.849 1364.23 986.331 1371.02C987.927 1375.52 992.241 1375.63 995.078 1380.95C997.168 1385.12 997.773 1389.87 996.792 1394.43C992.655 1384.97 989.227 1383.26 986.981 1383.2C979.652 1383.2 978.648 1400.22 964.582 1410.39C955.74 1415.79 945.177 1417.62 935.031 1415.53C917.655 1412.93 911.095 1403.23 901.047 1406.78C896.962 1408.64 893.627 1411.82 891.591 1415.82Z" fill="#ECECEC"/>
<path d="M1015.47 1403.06C1012.66 1397.17 1010.67 1390.92 1009.56 1384.5C1008.16 1375.54 1008.3 1366.4 1009.97 1357.49C1017.59 1320.49 1057.25 1303.35 1050.81 1289.11C1050.09 1287.68 1049.09 1286.42 1047.86 1285.4C1046.63 1284.38 1045.19 1283.63 1043.66 1283.2C1032.25 1279.65 1011.98 1307.43 1010.15 1309.97C1012.85 1300.35 1017.58 1291.41 1024.01 1283.76C1030.44 1276.1 1038.43 1269.91 1047.44 1265.59C1050.04 1264.46 1075.1 1253.77 1096.26 1264.05C1104.09 1268.73 1112.15 1272.99 1120.43 1276.82C1126.8 1279.4 1133.51 1281.03 1140.35 1281.66C1135.15 1283.97 1131.06 1288.21 1128.94 1293.48C1125.93 1301.99 1128.94 1313.64 1136.86 1317.12C1140.32 1318.44 1144.15 1318.44 1147.62 1317.12L1146.26 1318.48C1139.11 1324.39 1122.62 1320.37 1118.42 1311.92C1114.99 1304.65 1123.62 1298.92 1120.96 1290.82C1118.3 1282.73 1104.41 1277.64 1095.19 1277.58C1067.36 1277.58 1031.6 1318.36 1039.58 1355.89C1043.89 1376.05 1061.62 1400.1 1085.03 1400.34C1091.75 1400.24 1098.35 1398.5 1104.25 1395.28C1110.15 1392.06 1115.18 1387.44 1118.89 1381.84C1122.04 1376.77 1124.12 1371.11 1125.02 1365.2C1125.91 1359.3 1125.6 1353.28 1124.09 1347.5C1123.34 1344.57 1122.29 1341.72 1120.96 1338.99C1126.83 1345.18 1130.89 1352.86 1132.71 1361.19C1134.52 1369.53 1134.01 1378.2 1131.25 1386.27C1122.62 1408.55 1097.97 1413.04 1091.17 1414.29C1071.49 1417.89 1046.49 1412.04 1035.74 1395.67C1026.34 1381.37 1030.54 1362.87 1025.45 1362.22C1021.79 1361.69 1017.83 1371.02 1016.94 1373.21C1013.03 1382.69 1012.5 1393.23 1015.47 1403.06Z" fill="#ECECEC"/>
<path d="M574.215 1777.29C571.4 1771.41 569.412 1765.16 568.304 1758.73C566.905 1749.79 567.045 1740.68 568.718 1731.78C576.283 1694.79 615.999 1677.59 609.557 1663.34C608.846 1661.91 607.842 1660.65 606.61 1659.63C605.378 1658.61 603.946 1657.86 602.406 1657.43C590.999 1653.89 570.728 1681.66 568.895 1684.21C571.583 1674.58 576.295 1665.65 582.717 1657.99C589.138 1650.34 597.12 1644.14 606.129 1639.82C608.789 1638.64 633.789 1628 654.947 1638.23C662.763 1642.92 670.833 1647.19 679.12 1650.99C685.503 1653.59 692.233 1655.25 699.096 1655.9C693.88 1658.19 689.766 1662.43 687.631 1667.72C684.676 1676.23 687.631 1687.81 695.55 1691.36C699.009 1692.7 702.848 1692.7 706.307 1691.36C705.931 1691.88 705.472 1692.34 704.947 1692.72C697.855 1698.63 681.307 1694.61 677.111 1686.22C673.742 1678.89 682.311 1673.21 679.652 1665.12C676.992 1657.02 663.103 1651.88 653.943 1651.88C626.106 1651.88 590.349 1692.6 598.328 1730.13C602.583 1750.34 620.314 1774.4 643.718 1774.57C650.441 1774.47 657.039 1772.74 662.94 1769.51C668.84 1766.29 673.867 1761.68 677.583 1756.07C680.719 1751.01 682.801 1745.36 683.705 1739.47C684.609 1733.58 684.316 1727.57 682.843 1721.8C682.067 1718.84 680.998 1715.97 679.652 1713.23C685.544 1719.4 689.622 1727.08 691.436 1735.42C693.25 1743.76 692.731 1752.44 689.936 1760.51C681.366 1782.85 656.661 1787.34 649.865 1788.58C630.184 1792.19 605.184 1786.33 594.486 1769.96C585.089 1755.6 589.226 1737.16 584.144 1736.45C580.538 1735.98 576.579 1745.32 575.633 1747.45C571.725 1756.93 571.224 1767.48 574.215 1777.29Z" fill="#ECECEC"/>
<path d="M421.674 1712.04C425.02 1712.66 428.456 1712.6 431.777 1711.85C435.098 1711.11 438.235 1709.71 441.001 1707.73C449.57 1700.81 450.457 1687.99 448.861 1679.89C446.379 1667.01 437.041 1663.64 436.568 1650.34C436.424 1646.33 437.005 1642.32 438.282 1638.52C437.658 1641.82 437.658 1645.21 438.282 1648.51C438.43 1651.55 439.692 1654.43 441.828 1656.6C443.372 1657.37 445.071 1657.76 446.793 1657.76C448.514 1657.76 450.213 1657.37 451.757 1656.6C462.218 1652.82 463.991 1641.53 475.398 1636.04C481.52 1633.47 488.271 1632.79 494.783 1634.09C520.965 1636.98 546.379 1661.81 550.634 1690C551.335 1695.19 551.335 1700.46 550.634 1705.66C542.242 1685.68 538.105 1681.25 535.918 1682.02C531.722 1683.02 531.19 1702.59 535.918 1718.66C540.195 1732.94 547.977 1745.92 558.554 1756.43C534.913 1745.61 515.469 1743.31 510.74 1750.52C506.84 1756.43 512.514 1769.19 517.892 1776.46C522.476 1781.88 527.809 1786.62 533.731 1790.53C533.317 1791.36 521.911 1784.62 506.84 1778.71C490.528 1772.38 482.313 1769.25 472.975 1768.9C460.884 1768.62 448.88 1771.01 437.809 1775.87C427.821 1780.13 419.074 1785.74 418.719 1785.15C418.365 1784.56 443.01 1772.5 441.769 1760.15C441.355 1756.19 438.046 1750.04 434.795 1750.58C433.492 1750.84 432.261 1751.38 431.19 1752.17C427.357 1754.23 422.922 1754.88 418.66 1754C425.615 1752.16 431.727 1747.99 435.977 1742.18C442.833 1732.61 443.956 1718.54 439.523 1715.59C437.514 1714.29 435.622 1715.59 430.126 1715.17C427.06 1715 424.117 1713.9 421.674 1712.04ZM499.984 1685.21C496.041 1680.81 493.798 1675.16 493.66 1669.25C493.66 1660.09 500.102 1656.13 498.152 1648.63C497.536 1646.38 496.387 1644.31 494.802 1642.61C493.218 1640.9 491.245 1639.6 489.05 1638.82C481.071 1636.21 472.738 1643.84 469.724 1646.62C456.131 1659.15 456.722 1679.71 456.958 1684.32C457.608 1699.16 463.282 1700.46 462.868 1713.22C462.1 1730.95 451.048 1736.86 454.003 1743.84C458.495 1753.65 487.986 1756.31 506.012 1742.3C520.906 1730.48 521.852 1712.22 523.743 1675.22C524.334 1664.17 523.743 1655.48 518.542 1652.29C516.199 1651.3 513.625 1650.98 511.11 1651.36C508.594 1651.75 506.236 1652.83 504.298 1654.48C496.911 1659.97 494.901 1672.5 499.984 1685.21ZM540.41 1741.89C543.483 1737.69 531.603 1720.32 524.925 1721.91C522.384 1722.5 520.788 1725.93 520.492 1728.35C519.724 1734.26 525.93 1738.64 527.171 1739.52C531.544 1742.42 538.636 1744.37 540.41 1741.89Z" fill="#ECECEC"/>
<path d="M866.943 1712.04C870.289 1712.66 873.726 1712.6 877.047 1711.86C880.369 1711.12 883.506 1709.71 886.27 1707.73C894.839 1700.81 895.726 1687.99 894.13 1679.89C891.707 1667 882.31 1663.64 881.837 1650.34C881.693 1646.33 882.274 1642.32 883.551 1638.52C882.903 1641.81 882.903 1645.21 883.551 1648.51C883.626 1651.55 884.875 1654.45 887.038 1656.6C888.582 1657.36 890.281 1657.76 892.002 1657.76C893.724 1657.76 895.423 1657.36 896.967 1656.6C907.428 1652.82 909.201 1641.53 920.608 1636.03C926.731 1633.47 933.481 1632.79 939.993 1634.08C966.175 1636.98 991.589 1661.8 995.844 1689.99C996.545 1695.19 996.545 1700.46 995.844 1705.66C987.452 1685.68 983.314 1681.25 981.128 1682.02C976.931 1683.02 976.4 1702.58 981.128 1718.66C985.405 1732.94 993.187 1745.92 1003.76 1756.42C980.123 1745.61 960.679 1743.3 955.95 1750.51C952.05 1756.42 957.723 1769.19 963.102 1776.46C967.683 1781.9 973.04 1786.64 979 1790.53C978.527 1791.35 967.18 1784.62 952.05 1778.71C935.738 1772.38 927.582 1769.25 918.184 1768.9C906.12 1768.76 894.174 1771.28 883.196 1776.28C873.149 1780.54 864.402 1786.15 864.106 1785.56C863.811 1784.97 888.338 1772.91 887.097 1760.56C886.683 1756.6 883.433 1750.46 880.123 1750.99C878.82 1751.25 877.589 1751.8 876.518 1752.58C872.685 1754.64 868.25 1755.29 863.988 1754.42C870.949 1752.59 877.065 1748.41 881.305 1742.6C888.161 1733.02 889.284 1718.95 884.851 1716C882.842 1714.7 880.95 1716 875.454 1715.59C872.324 1715.29 869.356 1714.06 866.943 1712.04ZM945.253 1685.21C941.31 1680.81 939.067 1675.15 938.929 1669.25C938.929 1660.09 945.371 1656.13 943.421 1648.62C942.805 1646.38 941.656 1644.31 940.071 1642.6C938.487 1640.9 936.514 1639.6 934.319 1638.81C926.34 1636.21 918.007 1643.84 914.993 1646.61C901.4 1659.14 901.991 1679.71 902.227 1684.32C902.877 1699.16 908.551 1700.46 908.137 1713.22C907.369 1730.95 896.317 1736.86 899.272 1743.84C903.764 1753.65 933.255 1756.31 951.281 1742.3C966.175 1730.48 967.121 1712.22 969.012 1675.22C969.603 1664.17 969.012 1655.48 963.811 1652.29C961.468 1651.29 958.894 1650.97 956.379 1651.36C953.863 1651.75 951.505 1652.82 949.567 1654.47C942.18 1659.97 940.17 1672.5 945.253 1685.21ZM985.679 1741.89C988.752 1737.69 976.872 1720.31 970.194 1721.91C967.653 1722.5 966.057 1725.93 965.761 1728.35C964.993 1734.26 971.258 1738.64 972.44 1739.52C976.813 1742.42 983.905 1744.37 985.679 1741.89Z" fill="#ECECEC"/>
<path d="M259.976 1677.41C260.976 1669.38 265.069 1662.07 271.383 1657.02C275.69 1653.78 280.838 1651.84 286.213 1651.45C291.588 1651.05 296.964 1652.2 301.702 1654.77C322.21 1668.42 305.662 1719.31 321.974 1725.34C324.101 1726.06 326.406 1726.06 328.534 1725.34C344.55 1719.43 332.435 1670.73 352.174 1659.74C356.784 1657.25 358.085 1659.32 365.118 1655.89C374.202 1650.8 381.24 1642.72 385.035 1633.02C384.562 1634.74 383.853 1637.34 382.848 1640.41C377.943 1656.37 374.929 1660.98 372.683 1668.37C368.014 1683.91 369.787 1702.53 374.988 1704.12C377.706 1704.95 381.489 1701.46 385.035 1696.73C389.417 1690.99 392.904 1684.61 395.378 1677.82C395.378 1679.18 394.787 1681.49 394.255 1684.26C387.517 1716.24 370.614 1723.86 369.078 1742.89C367.955 1759.62 379.598 1778 389.527 1778.35C397.387 1778.35 405.366 1768.42 410.212 1754.71C404.302 1778.35 388.167 1791.71 375.283 1790.17C361.453 1788.28 354.479 1769.02 354.066 1767.77C348.628 1752.05 355.662 1742.24 360.685 1714.58C366.182 1684.44 363.818 1663.28 362.695 1663.16C361.572 1663.05 363.877 1721.62 337.636 1733.26C333.575 1735.2 329.066 1736.02 324.582 1735.61C320.098 1735.2 315.808 1733.6 312.163 1730.95C296.205 1716 318.073 1676.58 299.988 1662.28C299.279 1661.75 293.368 1657.02 288.463 1658.97C278.77 1662.81 282.553 1689.46 280.957 1739.88C279.716 1778 276.82 1785.8 271.087 1788.81C260.508 1794.37 243.664 1781.96 235.271 1774.98C236.985 1776.23 247.624 1783.38 257.494 1779.48C270.614 1774.22 270.673 1753.77 270.673 1748.27C270.673 1736.45 266.654 1722.98 261.926 1722.8C257.198 1722.62 254.125 1732.08 252.825 1736.45C251.722 1740.29 251.322 1744.29 251.643 1748.27C250.779 1746.38 250.125 1744.4 249.692 1742.36C248.774 1733.92 250.867 1725.42 255.602 1718.37C271.855 1688.81 277.175 1680.07 274.338 1672.03C273.983 1671.08 272.742 1667.6 270.26 1667.06C265.827 1665.59 260.508 1676.88 259.976 1677.41ZM352.588 1666.95C348.333 1666.59 339.054 1717.24 343.073 1718.48C345.023 1719.13 350.461 1707.96 352.943 1699.1C357.257 1683.85 355.071 1667.24 352.588 1667.06V1666.95ZM361.394 1749.69C359.74 1749.69 356.489 1767.42 366.122 1777.11C372.387 1783.38 382.316 1784.38 383.026 1783.02C383.735 1781.66 376.643 1779 370.378 1770.79C362.222 1760.15 362.635 1749.87 361.394 1750.04V1749.69Z" fill="#ECECEC"/>
<path d="M1017.35 1677.41C1018.35 1669.38 1022.45 1662.07 1028.76 1657.02C1033.08 1653.78 1038.24 1651.85 1043.62 1651.45C1049 1651.05 1054.39 1652.2 1059.14 1654.77C1079.59 1668.42 1063.04 1719.31 1079.41 1725.34C1081.52 1726.06 1083.8 1726.06 1085.91 1725.34C1101.93 1719.43 1089.81 1670.73 1109.55 1659.74C1114.16 1657.25 1115.46 1659.32 1122.49 1655.89C1131.59 1650.82 1138.64 1642.73 1142.41 1633.02C1141.94 1634.74 1141.23 1637.34 1140.28 1640.41C1135.38 1656.37 1132.31 1660.98 1130.06 1668.37C1125.39 1683.91 1127.16 1702.53 1132.42 1704.12C1135.14 1704.95 1138.87 1701.46 1142.47 1696.73C1146.81 1690.97 1150.27 1684.6 1152.75 1677.82C1152.75 1679.18 1152.22 1681.49 1151.63 1684.26C1144.89 1716.24 1127.99 1723.86 1126.45 1742.89C1125.33 1759.62 1137.03 1778 1146.96 1778.35C1154.76 1778.35 1162.74 1768.42 1167.65 1754.71C1161.74 1778.35 1145.54 1791.71 1132.66 1790.17C1118.83 1788.28 1111.86 1769.02 1111.44 1767.77C1106.01 1752.05 1113.04 1742.24 1118.12 1714.58C1123.56 1684.44 1121.25 1663.28 1120.13 1663.16C1119.01 1663.05 1121.25 1721.62 1095.07 1733.26C1087.62 1736.57 1075.98 1736.98 1069.6 1730.95C1053.58 1716 1075.51 1676.58 1057.42 1662.28C1056.71 1661.75 1050.75 1657.02 1045.9 1658.97C1036.15 1662.81 1039.99 1689.46 1038.33 1739.88C1037.15 1778 1034.26 1785.8 1028.52 1788.81C1017.94 1794.37 1001.04 1781.96 992.648 1774.98C994.421 1776.23 1005.06 1783.38 1014.87 1779.48C1027.99 1774.22 1028.05 1753.77 1028.05 1748.27C1028.05 1736.45 1024.03 1722.98 1019.36 1722.8C1014.69 1722.62 1011.5 1732.08 1010.26 1736.45C1009.13 1740.28 1008.73 1744.29 1009.08 1748.27C1008.16 1746.4 1007.51 1744.41 1007.13 1742.36C1006.16 1733.91 1008.25 1725.4 1013.04 1718.37C1029.23 1688.81 1034.61 1680.07 1031.71 1672.03C1031.42 1671.08 1030.18 1667.6 1027.7 1667.06C1023.2 1665.59 1017.71 1676.88 1017.35 1677.41ZM1109.97 1666.95C1105.77 1666.59 1096.43 1717.24 1100.45 1718.48C1102.4 1719.13 1107.84 1707.96 1110.32 1699.1C1114.63 1683.85 1112.39 1667.24 1109.97 1667.06V1666.95ZM1118.77 1749.69C1117.18 1749.69 1113.92 1767.42 1123.5 1777.11C1129.82 1783.38 1139.69 1784.38 1140.46 1783.02C1141.23 1781.66 1134.02 1779 1127.75 1770.79C1119.66 1760.15 1120.07 1749.87 1118.77 1750.04V1749.69Z" fill="#ECECEC"/>
<path d="M801.703 1691.06C816.301 1673.98 835.982 1683.97 853.357 1665.41C861.254 1656.37 866.131 1645.09 867.305 1633.14C864.561 1642.32 859.173 1650.48 851.814 1656.61C844.456 1662.74 835.454 1666.56 825.934 1667.6C818.048 1667.97 810.187 1666.46 802.996 1663.21C795.804 1659.95 789.487 1655.04 784.563 1648.87C779.815 1654.9 773.716 1659.75 766.756 1663C759.797 1666.25 752.171 1667.83 744.492 1667.6C734.947 1666.64 725.907 1662.84 718.535 1656.7C711.163 1650.56 705.795 1642.36 703.121 1633.14C704.347 1645.09 709.24 1656.36 717.128 1665.41C734.445 1683.97 754.185 1673.98 768.783 1691.06C771.797 1694.61 774.693 1712.75 780.603 1748.87C783.381 1766.6 784.681 1776.17 779.717 1779.6C774.752 1783.03 767.424 1779.18 762.636 1776.41C770.142 1786.63 778.18 1791.83 782.613 1789.65C783.936 1788.88 784.941 1787.66 785.45 1786.22C785.913 1787.69 786.931 1788.92 788.287 1789.65C792.66 1791.83 800.757 1786.63 808.204 1776.41C803.417 1779.18 795.733 1782.79 791.183 1779.6C786.632 1776.41 787.518 1766.36 790.296 1748.87C795.733 1712.87 798.629 1694.61 801.703 1691.06Z" fill="#ECECEC"/>
<path d="M448.445 1324.04C448.445 1324.04 462.63 1321.08 465.585 1316.41C467.062 1309.32 449.273 1295.79 431.483 1296.79C425.035 1296.43 418.691 1298.54 413.752 1302.7C399.627 1317.06 422.972 1349.98 415.585 1394.13C414.816 1398.74 413.043 1409.68 405.005 1414.05C403.477 1414.88 401.817 1415.44 400.1 1415.7C403.416 1412.18 405.776 1407.87 406.956 1403.17C407.79 1400.91 408.167 1398.5 408.065 1396.08C407.964 1393.67 407.386 1391.3 406.365 1389.11C404.237 1385.62 401.459 1385.38 398.268 1380.95C396.511 1378.42 395.266 1375.57 394.604 1372.56C396.199 1374.27 400.218 1378.47 403.055 1377.29C403.596 1377.02 404.071 1376.64 404.449 1376.17C404.827 1375.7 405.097 1375.15 405.242 1374.57C408.906 1364.58 395.135 1321.38 404.887 1304.06C407.927 1299.05 412.28 1294.96 417.476 1292.24C440.407 1278.23 462.807 1294.6 483.551 1281.48C489.368 1277.67 494.077 1272.39 497.204 1266.18C496.945 1269.68 496.311 1273.15 495.313 1276.52C491.767 1288.81 486.034 1291.12 487.157 1295.9C488.93 1303.65 504.887 1301.82 509.911 1312.1C510.767 1314.06 511.209 1316.17 511.209 1318.3C511.209 1320.44 510.767 1322.55 509.911 1324.51C508.729 1315.59 503.351 1309.62 498.09 1309.56C492.83 1309.5 487.393 1316.29 486.92 1322.68C485.975 1335.44 504.651 1341.83 504.119 1356.96C503.99 1359.29 503.429 1361.57 502.464 1363.69C500.455 1350.1 498.504 1346.79 496.968 1346.73C491.057 1346.73 478.114 1396.02 492.594 1405.12C497.795 1408.32 505.301 1405.77 510.62 1403.23C496.849 1415.82 490.466 1417.06 486.979 1415.05C482.192 1412.45 481.069 1401.81 479.592 1381.96C479.222 1375.55 477.028 1369.37 473.268 1364.17C473.042 1363.85 472.784 1363.55 472.499 1363.28C469.367 1360.46 465.672 1358.33 461.659 1357.04C457.646 1355.74 453.405 1355.31 449.213 1355.77C449.213 1355.77 472.854 1354.71 475.632 1347.09C478.41 1339.46 470.431 1329.36 462.334 1325.75C457.992 1323.76 453.141 1323.16 448.445 1324.04ZM446.258 1294.01C446.258 1295.08 458.788 1294.01 468.244 1302.7C472.795 1307.02 474.154 1311.51 476.755 1311.09C479.355 1310.68 481.956 1304.18 480.183 1299.92C475.927 1289.34 446.377 1292.48 446.258 1294.01Z" fill="#ECECEC"/>
<path d="M623.333 1528.82C626.481 1529.42 629.719 1529.38 632.848 1528.69C635.977 1527.99 638.933 1526.67 641.537 1524.81C644.885 1521.45 647.317 1517.29 648.6 1512.73C649.883 1508.17 649.974 1503.35 648.865 1498.74C646.56 1486.63 637.991 1483.43 637.34 1470.85C637.176 1467.06 637.717 1463.27 638.936 1459.68C638.349 1462.74 638.349 1465.89 638.936 1468.95C639.041 1471.82 640.223 1474.54 642.246 1476.58C643.683 1477.31 645.273 1477.69 646.885 1477.69C648.498 1477.69 650.088 1477.31 651.525 1476.58C661.336 1473.03 662.99 1462.45 673.747 1457.31C679.469 1454.87 685.797 1454.23 691.891 1455.48C716.477 1458.2 740.295 1481.43 744.314 1507.9C744.923 1512.77 744.923 1517.69 744.314 1522.56C736.395 1503.82 732.494 1499.69 730.485 1500.16C726.525 1501.17 726.052 1519.49 730.485 1534.56C734.489 1547.96 741.783 1560.15 751.702 1570.02C729.421 1559.91 711.336 1557.67 706.844 1564.52C703.18 1570.43 708.558 1582.25 713.582 1588.87C717.883 1593.96 722.899 1598.4 728.475 1602.05C728.061 1602.82 717.305 1596.14 703.239 1591C687.931 1585.09 680.248 1582.13 671.442 1581.84C660.172 1581.72 649.014 1584.08 638.759 1588.75C629.362 1592.71 621.028 1597.97 621.028 1597.44C621.028 1596.91 643.782 1585.62 642.6 1573.8C642.246 1570.02 639.173 1564.29 636.04 1564.76C634.841 1565.03 633.713 1565.56 632.73 1566.3C629.107 1568.22 624.93 1568.82 620.91 1568.01C627.422 1566.3 633.156 1562.42 637.163 1557.02C643.546 1548.03 644.61 1534.79 640.473 1532.08C638.582 1530.89 636.808 1532.08 631.667 1531.72C628.661 1531.62 625.757 1530.61 623.333 1528.82ZM696.797 1503.71C693.14 1499.57 691.049 1494.28 690.886 1488.75C690.886 1480.13 696.797 1476.4 695.142 1469.37C694.564 1467.27 693.489 1465.34 692.008 1463.75C690.526 1462.15 688.682 1460.94 686.631 1460.21C679.125 1457.73 671.324 1464.94 668.487 1467.54C655.78 1479.36 656.312 1498.51 656.667 1503C657.317 1516.95 662.577 1518.13 662.045 1530.13C661.336 1546.79 650.756 1552.41 653.771 1558.85C657.967 1568.01 685.626 1570.67 702.529 1557.37C716.477 1546.56 717.364 1529.18 719.196 1494.55C719.728 1484.14 719.196 1475.99 714.35 1473.03C712.145 1472.1 709.726 1471.79 707.359 1472.15C704.992 1472.5 702.768 1473.5 700.934 1475.04C693.96 1480.01 691.95 1491.77 696.797 1503.71ZM734.74 1556.9C737.577 1552.94 726.407 1536.69 720.201 1538.16C717.778 1538.69 716.3 1541.89 716.005 1544.07C715.295 1549.98 721.146 1553.71 722.269 1554.53C726.407 1557.43 733.321 1559.2 734.74 1556.84V1556.9Z" fill="#ECECEC"/>
<path d="M307.784 672.09C306.141 673.824 304.114 675.15 301.867 675.961C299.619 676.772 297.213 677.045 294.841 676.759C288.103 674.75 286.389 664.939 286.212 663.875C285.629 659.183 286.308 654.421 288.178 650.079C290.048 645.736 293.041 641.971 296.85 639.17C301.165 636.274 305.125 636.038 308.671 631.133C310.316 628.87 311.482 626.296 312.099 623.568C310.581 626.049 308.501 628.139 306.027 629.669C303.552 631.198 300.753 632.125 297.855 632.374C290.231 632.374 286.33 620.199 282.902 610.447C280.303 603.097 278.751 595.417 278.292 587.634C278.173 593.82 277.138 599.955 275.219 605.837C273.843 610.095 272.02 614.196 269.782 618.071C272.284 617.059 275.081 617.059 277.583 618.071C285.266 621.617 286.626 637.634 282.193 648.745C275.692 664.998 255.125 673.331 251.519 669.667C250.396 668.603 250.278 665.943 253.47 659.442C250.588 663.26 247.231 666.696 243.482 669.667C236.035 675.577 232.961 674.572 232.016 674.099C219.723 668.662 239.817 609.915 221.791 598.922C217.448 596.25 212.407 594.933 207.311 595.14C202.625 595.479 198.01 596.473 193.6 598.095C209.794 594.49 216.177 599.868 217.654 601.286C227.406 610.565 224.451 634.738 213.99 649.868C206.366 660.861 195.196 667.598 195.964 680.187C196.097 682.211 196.536 684.204 197.264 686.097C197.446 679.869 200.08 673.964 204.593 669.667C206.307 668.13 211.389 663.757 216.413 665.175C218.907 666.574 220.889 668.734 222.069 671.339C223.249 673.944 223.566 676.857 222.973 679.655C221.259 689.525 208.966 689.998 200.396 702.232C196.126 708.652 193.769 716.154 193.6 723.863C194.527 720.739 195.837 717.741 197.5 714.939C200.396 710.151 204.238 703.65 210.326 703.118C212.083 703.098 213.821 703.488 215.401 704.257C216.981 705.027 218.36 706.155 219.427 707.551C223.919 713.461 220.964 723.331 215.999 728.768C213.083 731.673 209.4 733.688 205.382 734.577C201.363 735.467 197.174 735.194 193.304 733.792C189.705 732.389 186.481 730.17 183.886 727.308C181.291 724.447 179.397 721.022 178.352 717.303C179.005 723.658 181.701 729.63 186.035 734.324C190.98 739.151 197.478 742.068 204.371 742.555C211.265 743.042 218.108 741.068 223.683 736.984C229.474 730.992 232.697 722.976 232.666 714.643C233.316 702.823 228.115 698.981 231.011 690.293C233.203 684.556 237.404 679.81 242.831 676.936C251.106 672.504 268.068 673.036 274.687 681.664C276.756 684.265 276.519 685.979 277.169 701.109C278.174 724.75 279.12 728.532 281.72 732.492C287.158 740.766 297.205 744.312 298.091 743.071C298.978 741.83 293.068 738.52 289.463 731.251C286.97 725.819 285.759 719.887 285.923 713.913C286.087 707.938 287.622 702.082 290.408 696.795C297.382 683.792 305.834 684.974 313.458 670.081C316.714 663.615 318.51 656.513 318.718 649.277C318.219 658.024 314.29 666.222 307.784 672.09Z" fill="#ECECEC"/>
<path d="M1177.18 1526.05C1135.21 1521.91 1105.66 1593.66 1070.2 1586.69C1049.93 1582.73 1039.35 1554.71 1040.3 1535.39C1041.24 1516.06 1054.13 1502.05 1062.05 1493.66C1074.96 1480.46 1090.62 1470.25 1107.91 1463.76C1088.58 1448.92 1074.1 1447.5 1065 1448.45C1029.89 1452.05 1014.76 1497.44 960.332 1526.05C960.332 1526.05 935.982 1538.87 928.949 1531.25C925.521 1527.53 925.462 1517.42 919.847 1510.68C918.783 1509.44 917.66 1508.32 917.66 1508.32C914.931 1505.97 912.026 1503.84 908.973 1501.94C906.115 1500.13 903.756 1497.64 902.114 1494.69C900.472 1491.73 899.599 1488.41 899.575 1485.03C899.51 1479.1 901.611 1473.34 905.486 1468.84C909.564 1463.76 913.996 1458.97 918.251 1453.95C918.866 1453.07 919.4 1452.14 919.847 1451.17C914.026 1457.94 907.015 1463.59 899.162 1467.83C892.26 1471.5 884.849 1474.11 877.176 1475.58C864.89 1477.86 852.287 1477.86 840.001 1475.58C832.323 1474.12 824.91 1471.51 818.015 1467.83C810.156 1463.57 803.129 1457.92 797.27 1451.17C797.716 1452.15 798.271 1453.09 798.925 1453.95C803.181 1458.97 807.613 1463.76 811.691 1468.84C815.57 1473.34 817.672 1479.1 817.601 1485.03C817.606 1488.41 816.751 1491.74 815.118 1494.69C813.484 1497.65 811.126 1500.14 808.263 1501.94C804.144 1504.18 800.461 1507.14 797.389 1510.68C793.69 1515.03 791.311 1520.34 790.533 1525.99C789.593 1529.61 789.408 1533.38 789.987 1537.07C790.567 1540.76 791.899 1544.29 793.902 1547.44C791.93 1543.11 791.233 1538.3 791.892 1533.58C792.551 1528.86 794.54 1524.42 797.625 1520.79C801.999 1516.18 810.155 1512.04 816.36 1514.88C818.724 1515.88 821.088 1518.01 825.817 1534.5C830.545 1550.99 833.145 1560.74 830.131 1568.78C829.26 1571.77 827.753 1574.53 825.712 1576.87C823.671 1579.22 821.146 1581.1 818.311 1582.37C813.178 1583.75 807.721 1583.22 802.944 1580.9C782.377 1573.86 777.176 1563.64 770.379 1565.88C763.582 1568.13 758.559 1580.84 762.696 1588.93C767.956 1600.05 786.337 1594.84 799.339 1608.5C804.218 1613.97 807.383 1620.75 808.441 1628C808.57 1623.7 808.113 1619.41 807.081 1615.23C805.28 1611.15 804.528 1606.68 804.895 1602.23C805.109 1600.48 805.834 1598.84 806.981 1597.5C808.127 1596.17 809.642 1595.2 811.337 1594.73C821.397 1592.11 831.692 1590.51 842.069 1589.94C848.571 1589.94 853.89 1589.52 858.5 1589.47C863.11 1589.41 868.488 1589.47 874.93 1589.94C885.327 1590.51 895.642 1592.11 905.722 1594.73C907.413 1595.2 908.924 1596.17 910.061 1597.5C911.199 1598.84 911.91 1600.49 912.105 1602.23C912.524 1606.68 911.791 1611.15 909.977 1615.23C908.917 1619.4 908.459 1623.7 908.618 1628C909.679 1620.76 912.82 1613.98 917.66 1608.5C930.604 1594.67 949.102 1600.05 954.363 1588.93C958.204 1580.84 953.299 1568.01 946.679 1565.88C940.06 1563.76 934.859 1573.86 914.055 1580.9C911.535 1582.36 908.703 1583.21 905.792 1583.37C902.881 1583.53 899.974 1582.99 897.31 1581.81C894.645 1580.63 892.299 1578.83 890.463 1576.56C888.628 1574.3 887.355 1571.63 886.75 1568.78C883.736 1560.74 886.159 1551.88 891.124 1534.5C896.088 1517.13 898.216 1515.88 900.521 1514.88C906.845 1512.1 915.001 1516.89 919.256 1520.79C920.584 1522.09 921.754 1523.53 922.743 1525.1C924.628 1528 926.307 1531.02 927.767 1534.15C931.786 1539.35 963.228 1533.32 999.753 1503.24C1029.3 1479 1034.8 1461.39 1059.68 1455.96C1068.78 1454.06 1082.26 1454.18 1085.39 1458.85C1090.06 1465.71 1068.72 1477.7 1035.15 1513.7C1027.71 1521.68 1013.58 1537.34 1013.58 1557.91C1014.59 1563.82 1015.65 1569.73 1016.71 1575.99C1015.34 1566.44 1017.15 1556.7 1021.86 1548.27C1022.74 1546.68 1027.77 1537.99 1031.25 1538.52C1036.81 1539.29 1029.19 1559.8 1042.25 1575.28C1050.79 1584.73 1062.55 1590.65 1075.23 1591.89C1116.6 1594.96 1135.75 1530.01 1172.15 1530.9C1209.74 1531.84 1232.55 1602.35 1234.15 1601.82C1235.75 1601.29 1217.96 1530.01 1177.18 1526.05ZM797.98 1599.75C795.854 1598.16 793.623 1596.72 791.301 1595.44C783.736 1591.24 780.249 1591.42 777.944 1587.99C775.639 1584.56 775.462 1578.89 777.944 1577.29C780.426 1575.7 785.45 1577.29 799.162 1589.11C798.221 1590.7 797.629 1592.47 797.425 1594.3C797.221 1596.14 797.41 1597.99 797.98 1599.75ZM940.415 1577.29C942.66 1578.89 942.483 1584.56 940.415 1587.99C938.346 1591.42 934.504 1591.24 927.058 1595.44C924.727 1596.74 922.477 1598.18 920.32 1599.75C920.96 1597.99 921.212 1596.11 921.059 1594.24C920.906 1592.38 920.352 1590.57 919.434 1588.93C932.909 1576.94 938.228 1575.75 940.178 1577.29H940.415ZM890.533 1501.46C887.991 1528.89 880.308 1556.07 882.14 1583.56C882.218 1584.16 882.174 1584.78 882.011 1585.36C881.849 1585.95 881.571 1586.5 881.195 1586.98C880.705 1587.26 880.165 1587.43 879.606 1587.5C879.047 1587.56 878.482 1587.5 877.944 1587.34C865.367 1586.08 852.696 1586.08 840.119 1587.34C839.592 1587.51 839.036 1587.56 838.486 1587.5C837.936 1587.44 837.405 1587.26 836.928 1586.98C836.551 1586.5 836.273 1585.95 836.111 1585.36C835.949 1584.78 835.905 1584.16 835.982 1583.56C837.814 1556.07 830.072 1528.89 827.59 1501.46C827.058 1495.55 826.23 1488.05 830.722 1484.03C835.394 1480.85 841.082 1479.52 846.679 1480.31H871.443C879.658 1480.31 884.268 1481.19 887.341 1484.03C891.892 1488.28 891.065 1495.55 890.533 1501.46Z" fill="#ECECEC"/>
<path d="M598.566 1592.54C584.086 1583.49 596.911 1533.97 602.939 1534.14C604.476 1534.14 606.426 1537.57 608.436 1551.11C609.409 1548.99 609.97 1546.7 610.09 1544.37C610.859 1529.3 591.946 1522.86 592.892 1510.09C593.365 1503.71 598.802 1496.91 604.062 1496.97C609.322 1497.03 614.405 1502.88 615.882 1511.92C616.735 1509.96 617.175 1507.85 617.175 1505.72C617.175 1503.58 616.735 1501.47 615.882 1499.51C610.977 1489.46 594.901 1491.06 593.128 1483.32C592.005 1478.59 597.738 1476.23 601.284 1463.99C602.279 1460.6 602.913 1457.11 603.176 1453.59C600.048 1459.8 595.339 1465.08 589.523 1468.9C568.778 1482.08 546.379 1465.71 523.447 1479.71C518.26 1482.44 513.91 1486.53 510.859 1491.53C501.107 1508.91 514.878 1552.05 511.213 1562.1C511.042 1562.67 510.76 1563.19 510.385 1563.65C510.01 1564.1 509.548 1564.48 509.027 1564.76C499.689 1570.67 473.92 1542.06 444.96 1515.47C400.398 1474.63 369.96 1447.44 334.322 1448.57C318.797 1449.42 303.853 1454.76 291.296 1463.93C308.64 1470.31 324.361 1480.44 337.336 1493.6C345.256 1501.99 358.258 1515.76 359.204 1535.39C360.15 1555.01 349.511 1582.67 329.18 1586.69C294.015 1593.6 264.169 1521.67 221.97 1525.99C181.308 1529.95 162.868 1601.52 164.287 1602.05C165.705 1602.58 188.755 1532.02 226.521 1531.13C263.046 1530.24 282.49 1595.2 323.861 1592.12C336.568 1590.87 348.361 1584.96 356.958 1575.52C370.02 1560.03 362.395 1539.52 367.951 1538.75C371.615 1538.22 376.521 1546.91 377.407 1548.51C382.173 1556.93 383.982 1566.71 382.549 1576.28L385.741 1558.14C385.741 1537.57 371.556 1521.91 364.05 1513.93C336.273 1484.38 310.15 1468.07 313.637 1459.09C316.355 1451.93 337.691 1454.12 340.705 1454.48C361.45 1456.6 377.703 1465.29 409.795 1489.52C470.079 1535.56 481.84 1557.25 499.334 1565.11C504.856 1567.2 509.421 1571.23 512.159 1576.46C513.841 1580.95 514.049 1585.86 512.75 1590.47C511.601 1595.17 509.237 1599.49 505.894 1603C507.612 1602.73 509.271 1602.17 510.8 1601.34C518.837 1596.97 520.611 1586.04 521.379 1581.49C528.767 1537.16 505.421 1504.65 519.547 1490.06C524.503 1485.93 530.834 1483.82 537.277 1484.14C555.008 1483.2 572.738 1496.67 571.379 1503.83C568.424 1508.44 554.239 1511.45 554.239 1511.45C558.919 1510.48 563.782 1510.96 568.187 1512.81C576.284 1516.41 584.145 1526.05 581.485 1534.2C578.826 1542.36 555.067 1542.89 555.067 1542.89C559.253 1542.43 563.49 1542.85 567.502 1544.14C571.514 1545.42 575.211 1547.53 578.353 1550.34L579.121 1551.23C583.036 1556.6 585.277 1563.02 585.563 1569.67C587.277 1589.46 588.164 1600.16 592.951 1602.76C596.202 1604.53 602.585 1603.29 616.592 1590.94C611.272 1593.19 603.767 1595.79 598.566 1592.54ZM582.431 1498.39C580.008 1498.86 578.471 1494.37 573.92 1490.06C564.464 1481.07 551.816 1482.37 551.934 1481.37C552.053 1480.36 581.485 1476.7 585.859 1487.28C587.632 1491.53 585.15 1497.92 582.431 1498.39Z" fill="#ECECEC"/>
<path d="M295.962 1396.2C292.357 1399.33 284.142 1406.43 278.705 1404C269.308 1399.92 282.192 1374.81 277.464 1332.19C274.568 1306.43 266.589 1286.8 278.232 1273.51C280.544 1271.03 283.314 1269.02 286.388 1267.6C282.058 1267.16 277.697 1268.03 273.858 1270.08C254.769 1281.19 276.873 1319.55 260.029 1362.45C250.099 1387.81 229.709 1406.78 221.258 1404.18C215.052 1402.23 209.733 1386.98 207.901 1378.23L207.605 1376.99C201.282 1345.67 217.298 1322.26 208.61 1298.03C206.789 1293.16 204.409 1288.52 201.518 1284.2C196.751 1277.82 190.983 1272.25 184.438 1267.71C188.269 1271.88 191.601 1276.48 194.367 1281.43C211.092 1311.63 206.187 1356.6 179.946 1373.56C176.276 1375.88 172.296 1377.68 168.126 1378.88C171.778 1379.6 175.556 1379.31 179.059 1378.06C183.315 1376.46 184.26 1374.16 186.152 1374.45C191.057 1375.16 196.672 1390.23 190.584 1396.85C186.683 1401.05 180.596 1399.1 171.021 1405.3C168.902 1406.7 166.923 1408.31 165.111 1410.09C177.851 1407.36 191.024 1407.36 203.764 1410.09C214.638 1412.51 220.903 1416.71 230.655 1414.7C237.699 1412.85 244.073 1409.04 249.036 1403.71C261.329 1392.54 265.229 1380.07 267.357 1380.77C268.303 1381.07 267.83 1383.67 267.712 1387.34C267.594 1391 267.003 1407.9 273.622 1412.45C279.118 1416.29 289.284 1412.45 295.312 1408.67C317.239 1394.31 314.816 1357.84 313.929 1357.67C313.043 1357.49 313.22 1381.07 295.962 1396.2Z" fill="#ECECEC"/>
</svg>
