<svg width="1400" height="2000" viewBox="0 0 1400 2000" fill="none" xmlns="http://www.w3.org/2000/svg">
<rect width="1399.32" height="2000" transform="translate(0.0078125)" fill="#141414"/>
<path d="M1068.3 1256.08C1062.91 1259.95 1058.54 1265.06 1055.54 1270.99C1052.56 1276.33 1051.08 1282.39 1051.25 1288.51C1051.73 1297.39 1057.69 1311.17 1068.06 1311.88C1077.19 1312.48 1083.86 1302.64 1084.52 1301.75C1083.56 1305.22 1081.92 1308.46 1079.69 1311.29C1075.29 1316.04 1069.59 1319.4 1063.29 1320.94C1042.79 1328.51 1035.51 1388.19 1046.96 1393.14C1052.56 1395.52 1064.84 1385.39 1067.89 1373.29C1069.28 1366.83 1068.4 1360.09 1065.38 1354.21C1067.95 1356.73 1069.98 1359.76 1071.34 1363.09C1073.99 1369.73 1073.99 1377.14 1071.34 1383.78C1067.47 1392.54 1060.14 1394.03 1060.55 1400.35C1060.61 1401.66 1060.97 1402.93 1061.61 1404.07C1062.26 1405.21 1063.16 1406.19 1064.25 1406.91C1069.26 1409.65 1079.21 1403.75 1088.63 1391.77C1079.09 1407.98 1065.8 1419.43 1055.07 1417.28C1040.7 1414.42 1028.54 1386.64 1032.95 1366.25C1034.38 1359.63 1037.9 1352.18 1034.02 1346.1C1032.81 1344.11 1031.02 1342.53 1028.89 1341.58C1026.76 1340.63 1024.39 1340.36 1022.1 1340.8C1019.3 1342.03 1017.05 1344.27 1015.8 1347.06C1014.54 1349.86 1014.37 1353.02 1015.3 1355.94C1016.16 1358.47 1017.75 1360.69 1019.88 1362.31C1022 1363.94 1024.56 1364.89 1027.23 1365.06C1023.29 1365.68 1019.26 1364.96 1015.78 1363.03C1006.96 1357.67 1009.04 1345.68 1000.22 1341.99C998.785 1341.31 997.218 1340.96 995.631 1340.96C994.044 1340.96 992.477 1341.31 991.041 1341.99C989.491 1343.06 989.431 1344.07 988.119 1345.74C985.808 1348.37 982.595 1350.03 979.117 1350.39C988.537 1339.36 987.046 1326.55 981.442 1322.49C976.912 1319.45 968.029 1321.48 960.994 1328.45C963.379 1326.07 988.358 1301.21 981.323 1273.01C979.908 1267.42 977.417 1262.15 973.99 1257.51C978.615 1260.68 982.566 1264.73 985.616 1269.43C1000.58 1292.98 985.258 1317.13 997.539 1329.05C1006.6 1337.87 1028.42 1336.44 1037.78 1326.19C1050.54 1312.3 1034.62 1288.63 1049.05 1269.32C1053.97 1263.05 1060.69 1258.43 1068.3 1256.08Z" fill="#ECECEC"/>
<path d="M479.181 1091.3C474.298 1087.88 468.455 1086.08 462.489 1086.18C449.552 1086.65 445.856 1097.5 431.846 1098.1C423.619 1098.46 421.771 1094.88 415.154 1096.97C411.98 1098.23 409.091 1100.12 406.654 1102.51C404.218 1104.91 402.284 1107.77 400.965 1110.92C395.004 1122.84 397.15 1138.34 401.979 1139.83C405.138 1140.84 407.046 1135 413.008 1134.82C420.34 1134.82 424.513 1143.23 428.09 1141.56C430.535 1140.43 429.044 1136.02 432.323 1131.6C434.604 1128.81 437.786 1126.89 441.325 1126.18C439.761 1127.13 438.42 1128.4 437.391 1129.91C436.363 1131.42 435.671 1133.14 435.364 1134.94C434.529 1142.99 445.319 1150.92 454.798 1152.11C459.206 1152.29 463.6 1151.5 467.662 1149.77C471.723 1148.05 475.353 1145.45 478.287 1142.16C482.71 1138.06 486.135 1133 488.302 1127.37C487.706 1129.88 482.341 1149.43 465.112 1156.34C459.465 1158.7 453.284 1159.49 447.227 1158.61C437.212 1157 435.304 1151.4 426.362 1150.38C422.705 1150.03 419.013 1150.41 415.509 1151.52C412.005 1152.63 408.762 1154.43 405.973 1156.82C391.009 1169.82 399.534 1195.87 400.786 1199.74C402.992 1206.3 405.019 1212.26 410.206 1214.53C418.313 1218.05 422.844 1207.85 437.629 1207.55C446.452 1207.55 447.883 1210.95 463.86 1211.79C468.107 1212.19 472.391 1211.93 476.558 1211.01C482.363 1209.5 487.693 1206.54 492.058 1202.43C490.948 1204.6 489.544 1206.6 487.885 1208.39C477.81 1219 462.25 1216.44 462.191 1218.76C462.131 1221.09 475.366 1225.02 486.037 1220.91C487.766 1220.19 489.137 1219.42 489.197 1219.48C483.51 1224.48 476.259 1227.35 468.689 1227.59C456.766 1226.81 455.871 1214.83 444.842 1213.75C432.919 1212.56 430.237 1225.68 415.929 1226.27C405.436 1226.69 400.011 1219 392.977 1222.58C389.978 1224.65 386.558 1226.03 382.961 1226.63C381.557 1226.83 380.133 1226.83 378.729 1226.63C388.267 1220.37 392.917 1211.01 390.652 1203.74C389.519 1200.04 386.18 1195.63 382.484 1195.51C376.523 1195.51 371.515 1206.54 369.905 1212.92C369.433 1215.06 369.154 1217.23 369.071 1219.42C368.27 1211.27 369.605 1203.05 372.946 1195.57C375.941 1190.49 379.246 1185.59 382.842 1180.91C388.267 1172.44 396.852 1158.91 392.142 1151.99C390.659 1150.1 388.542 1148.81 386.18 1148.36C376.94 1145.61 367.521 1153.36 367.223 1152.83C373.191 1149.39 378.632 1145.12 383.379 1140.13C393.632 1127.43 391.665 1109.84 390.771 1102.45C389.464 1091.66 385.69 1081.32 379.742 1072.23C383.229 1076.21 387.24 1079.7 391.665 1082.6C405.436 1091.36 420.937 1092.73 421.473 1090.89C422.01 1089.04 417.36 1088.5 413.067 1082.72C411.332 1080.31 409.965 1077.66 409.013 1074.85C421.533 1090.05 430.117 1092.73 435.84 1091.6C441.564 1090.47 446.333 1085.64 459.269 1083.2C462.29 1082.5 465.43 1082.5 468.45 1083.2C472.878 1084.54 476.683 1087.41 479.181 1091.3Z" fill="#ECECEC"/>
<path d="M674.846 1464.86C669.967 1461.41 664.125 1459.6 658.154 1459.67C645.217 1460.15 641.521 1471 627.511 1471.59C619.225 1472.01 617.436 1468.37 610.819 1470.46C607.656 1471.73 604.774 1473.61 602.339 1475.99C599.904 1478.37 597.964 1481.21 596.63 1484.35C590.669 1496.27 592.815 1511.83 597.644 1513.32C600.803 1514.28 602.652 1508.43 608.673 1508.32C616.006 1508.32 620.179 1516.66 623.756 1515.05C626.2 1513.86 624.709 1509.51 627.988 1505.1C630.285 1502.31 633.457 1500.37 636.99 1499.61C635.421 1500.55 634.076 1501.82 633.046 1503.34C632.017 1504.85 631.329 1506.57 631.029 1508.37C630.194 1516.48 640.985 1524.35 650.463 1525.6C654.868 1525.76 659.252 1524.95 663.31 1523.23C667.367 1521.51 670.999 1518.92 673.952 1515.65C678.288 1511.52 681.631 1506.47 683.729 1500.86C683.133 1503.37 677.767 1522.92 660.539 1529.78C654.89 1532.13 648.711 1532.91 642.654 1532.04C632.698 1530.49 630.731 1524.89 621.848 1523.82C618.206 1523.48 614.535 1523.89 611.052 1525C607.57 1526.12 604.348 1527.93 601.578 1530.31C586.555 1543.31 595.14 1569.36 596.392 1573.3C598.538 1579.85 600.565 1585.76 605.811 1588.08C613.919 1591.6 618.45 1581.34 633.234 1581.11C641.998 1581.11 643.488 1584.44 659.406 1585.34C663.656 1585.74 667.942 1585.45 672.104 1584.5C677.917 1583.01 683.251 1580.05 687.604 1575.92C686.517 1578.09 685.132 1580.09 683.491 1581.88C673.416 1592.49 657.856 1589.93 657.796 1592.25C657.737 1594.58 670.971 1598.51 681.643 1594.34C682.707 1593.93 683.743 1593.46 684.743 1592.91C679.077 1597.92 671.85 1600.8 664.294 1601.08C652.371 1600.3 651.477 1588.32 640.448 1587.19C628.525 1585.99 625.782 1599.11 611.534 1599.71C601.042 1600.12 595.617 1592.43 588.582 1596.07C585.571 1598.11 582.154 1599.47 578.567 1600.06C577.162 1600.25 575.739 1600.25 574.334 1600.06C583.873 1593.8 588.523 1584.44 586.257 1577.17C585.125 1573.42 581.786 1569.06 578.03 1568.94C572.069 1568.94 567.121 1579.91 565.511 1586.29C564.954 1588.5 564.634 1590.76 564.557 1593.03C563.745 1584.88 565.081 1576.66 568.432 1569.18C571.427 1564.1 574.732 1559.2 578.328 1554.52C583.694 1546.05 592.338 1532.52 587.628 1525.6C586.148 1523.7 584.033 1522.39 581.667 1521.91C572.426 1519.23 563.007 1526.92 562.709 1526.44C568.634 1522.97 574.051 1518.7 578.805 1513.74C589.119 1501.04 587.092 1483.4 586.257 1476C584.952 1465.23 581.178 1454.91 575.228 1445.84C578.703 1449.81 582.716 1453.29 587.151 1456.15C600.863 1464.97 616.423 1466.35 616.959 1464.5C617.496 1462.65 612.846 1462.11 608.554 1456.27C606.81 1453.87 605.442 1451.22 604.5 1448.4C616.959 1463.66 625.604 1466.29 631.267 1465.15C636.931 1464.02 641.76 1459.19 654.756 1456.75C657.78 1456.08 660.912 1456.08 663.937 1456.75C668.421 1458.07 672.289 1460.94 674.846 1464.86Z" fill="#ECECEC"/>
<path d="M169.062 898.803C164.495 877.376 161.368 855.667 159.702 833.822C157.572 802.351 157.811 770.765 160.417 739.331C172.341 609.785 233.566 549.752 223.551 499.794C223.132 495.933 221.939 492.196 220.044 488.805C218.15 485.415 215.591 482.441 212.522 480.061C194.756 467.661 163.458 564.954 160.417 573.837C162.206 559.589 175.023 461.223 218.006 418.478C222.06 414.424 260.751 377.284 293.48 412.934C304.568 424.857 311.842 439.94 330.859 457.646C339.35 466.081 350.023 471.985 361.68 474.696C358.759 477.736 348.148 489.898 343.796 516.427C339.205 546.235 343.796 586.893 356.077 598.876C358.303 601.043 361.286 602.255 364.393 602.255C367.499 602.255 370.483 601.043 372.709 598.876C372.114 600.488 371.417 602.061 370.623 603.585C359.594 623.974 333.601 610.322 327.58 580.812C322.274 555.237 335.628 535.266 331.455 506.948C327.342 477.021 306.297 461.104 292.049 461.104C249.007 460.746 193.743 603.824 206.083 735.336C212.7 806.041 240.124 890.337 276.311 890.993C295.984 891.351 316.79 867.147 328.653 826.191C343.378 775.696 338.311 720.552 336.701 706.184C335.595 696.169 333.963 686.22 331.813 676.376C350.711 724.069 356.911 788.096 347.73 842.287C334.496 920.145 296.341 935.705 285.611 940.057C255.147 952.636 216.516 932.128 199.943 874.837C185.635 824.76 192.073 760.017 184.264 757.633C178.6 755.904 172.341 788.573 171.029 796.085C165.262 830.035 164.599 864.657 169.062 898.803Z" fill="#ECECEC"/>
<path d="M824.948 1341.27C828.267 1341.93 831.685 1341.89 834.988 1341.16C838.291 1340.43 841.409 1339.03 844.144 1337.04C852.67 1330.12 853.504 1317.43 851.954 1309.38C849.51 1296.56 840.448 1293.22 840.031 1279.87C839.817 1275.82 840.383 1271.78 841.7 1267.95C841.074 1271.21 841.074 1274.57 841.7 1277.84C841.806 1280.87 843.064 1283.75 845.218 1285.89C846.743 1286.66 848.427 1287.06 850.136 1287.06C851.844 1287.06 853.529 1286.66 855.054 1285.89C865.427 1282.13 866.977 1270.99 878.901 1265.44C884.992 1262.93 891.69 1262.26 898.156 1263.53C924.149 1266.46 949.426 1291.08 953.599 1319.1C954.306 1324.24 954.306 1329.45 953.599 1334.6C945.313 1314.74 941.139 1310.39 938.993 1310.75C934.82 1311.76 934.284 1331.14 938.993 1347.12C943.23 1361.3 950.958 1374.19 961.468 1384.61C937.622 1373.88 918.724 1371.56 913.776 1378.65C909.96 1384.61 915.564 1397.25 920.93 1404.47C925.494 1409.83 930.792 1414.53 936.668 1418.42C936.251 1419.19 924.745 1412.45 909.96 1406.49C893.745 1400.23 885.637 1397.13 876.277 1396.78C864.296 1396.65 852.432 1399.15 841.521 1404.11C831.566 1408.28 822.921 1413.89 822.564 1413.35C822.206 1412.81 846.41 1400.71 845.456 1388.49C845.039 1384.55 841.76 1378.47 838.481 1378.95C837.212 1379.25 836.016 1379.79 834.964 1380.56C831.142 1382.58 826.746 1383.23 822.504 1382.41C829.388 1380.57 835.455 1376.48 839.733 1370.78C846.529 1361.24 847.662 1347.23 843.191 1344.37C841.223 1343.06 839.375 1344.37 833.891 1343.96C830.707 1343.99 827.589 1343.05 824.948 1341.27ZM902.449 1314.68C898.701 1310.24 896.596 1304.64 896.487 1298.83C896.487 1289.71 902.866 1285.77 900.958 1278.32C900.342 1276.09 899.196 1274.04 897.618 1272.35C896.041 1270.66 894.078 1269.37 891.897 1268.6C883.968 1265.98 875.741 1273.61 872.76 1276.35C859.227 1288.81 859.823 1309.2 860.062 1313.79C860.718 1328.52 866.322 1329.83 866.023 1342.53C865.248 1360.41 854.1 1366.37 857.2 1372.87C861.671 1382.59 891.003 1385.27 908.887 1371.38C923.672 1359.87 924.626 1341.57 926.772 1304.79C927.309 1293.82 926.772 1285.12 921.585 1281.96C919.246 1280.98 916.684 1280.67 914.181 1281.06C911.678 1281.45 909.33 1282.52 907.397 1284.16C899.647 1289.77 897.679 1302.05 902.687 1314.68H902.449ZM942.63 1370.96C945.67 1366.79 933.866 1349.5 927.249 1351.11C924.685 1351.71 923.135 1355.04 922.837 1357.55C922.122 1363.51 928.262 1367.74 929.514 1368.58C934.045 1371.56 941.378 1373.23 942.868 1370.96H942.63Z" fill="#ECECEC"/>
<path d="M383.385 1081.11C382.706 1085.35 381.186 1089.4 378.914 1093.04C373.144 1100.85 364.619 1106.18 355.067 1107.94C347.01 1109.73 338.747 1110.41 330.505 1109.97C305.586 1110.8 289.728 1111.4 282.813 1121.06C281.203 1123.38 281.442 1124.27 279.594 1144.01C277.984 1161.59 274.407 1170.89 277.805 1172.74C281.203 1174.59 286.986 1164.93 301.294 1154.86C310.892 1148.24 325.617 1138.11 335.215 1142.22C347.854 1147.64 351.908 1177.99 340.282 1199.39C334.952 1208.33 327.27 1215.64 318.071 1220.52C308.873 1225.4 298.513 1227.66 288.119 1227.05C279.057 1227.05 265.405 1225.44 259.443 1215.96C246.745 1195.81 282.455 1158.73 269.757 1137.45C268.922 1136.02 266.061 1131.49 262.365 1131.49C257.178 1131.49 252.886 1140.61 251.813 1147.23C251.043 1152.12 251.727 1157.14 253.78 1161.65C255.54 1165.66 258.289 1169.14 261.768 1171.79C255.462 1169.64 250.147 1165.27 246.805 1159.51C243.248 1151.88 242.862 1143.15 245.732 1135.24C249.726 1122.61 258.311 1119.03 256.045 1112.83C255.086 1110.8 253.603 1109.06 251.748 1107.79C249.894 1106.52 247.735 1105.77 245.493 1105.62C242.301 1105.71 239.168 1106.51 236.312 1107.94C238.96 1105.01 242.503 1103.04 246.388 1102.34C254.078 1100.55 257.357 1104.66 265.047 1105.44C270.652 1105.72 276.237 1104.59 281.297 1102.17C286.357 1099.74 290.73 1096.09 294.021 1091.55C297.981 1086 300.202 1079.4 300.4 1072.59C301.328 1074.96 301.813 1077.49 301.83 1080.04C301.83 1091.96 290.801 1099.06 292.53 1101.56C294.259 1104.06 300.817 1100.49 316.675 1094.88C332.532 1089.28 334.023 1090.06 340.521 1086.06C346.713 1082.56 352.324 1078.11 357.154 1072.89C354.438 1078.75 350.541 1083.98 345.708 1088.27C334.977 1097.57 323.948 1097.63 324.186 1099.83C324.425 1102.04 343.859 1106.99 361.625 1099.3C370.378 1095.3 377.893 1089.02 383.385 1081.11ZM326.75 1209.29C328.121 1210.18 335.394 1204.76 336.288 1197.36C336.825 1192.36 334.559 1186.16 331.221 1185.44C327.882 1184.73 325.259 1193.73 318.344 1195.34C316.494 1195.64 314.6 1195.58 312.777 1195.14C310.954 1194.7 309.238 1193.89 307.732 1192.77C311.35 1192.8 314.917 1191.92 318.105 1190.21C323.283 1186.83 327.12 1181.75 328.955 1175.84C332.234 1168.39 337.6 1156.29 333.546 1152.59C325.14 1144.78 282.694 1170.83 285.853 1185.32C286.867 1190.51 294.14 1194.32 292.888 1196.83C291.636 1199.33 282.753 1195.28 279.236 1199.09C275.719 1202.91 277.447 1211.67 282.515 1216.32C293.782 1226.75 321.384 1212.8 324.246 1205.59V1205.23C325.74 1201.23 328.321 1197.72 331.698 1195.1C326.094 1206.31 326.034 1208.87 326.75 1209.35V1209.29Z" fill="#ECECEC"/>
<path d="M830.439 1454.66C829.755 1458.89 828.235 1462.95 825.967 1466.58C820.177 1474.38 811.662 1479.7 802.121 1481.49C794.056 1483.22 785.797 1483.88 777.559 1483.46C752.58 1484.35 736.782 1484.89 729.867 1494.6C728.257 1496.93 728.496 1497.82 726.647 1517.56C725.038 1535.14 721.461 1544.38 724.859 1546.23C728.257 1548.08 734.04 1538.42 748.348 1528.35C757.946 1521.73 772.671 1511.59 782.269 1515.71C794.848 1521.07 798.961 1551.48 787.336 1572.88C781.996 1581.81 774.312 1589.12 765.116 1593.99C755.92 1598.87 745.564 1601.13 735.173 1600.54C726.111 1600.24 712.459 1598.93 706.438 1589.39C693.799 1569.24 729.509 1532.22 716.811 1510.88C715.976 1509.45 713.115 1504.92 709.359 1504.92C704.172 1504.92 699.88 1514.04 698.866 1520.66C698.09 1525.57 698.753 1530.6 700.774 1535.14C702.543 1539.04 705.246 1542.44 708.643 1545.04C702.337 1542.89 697.022 1538.52 693.68 1532.76C691.917 1528.99 690.915 1524.92 690.731 1520.76C690.547 1516.61 691.184 1512.46 692.607 1508.55C696.541 1495.92 705.186 1492.28 702.92 1486.08C701.948 1484.06 700.46 1482.34 698.607 1481.08C696.754 1479.83 694.602 1479.08 692.368 1478.92C689.182 1479.02 686.052 1479.79 683.188 1481.19C685.865 1478.3 689.394 1476.34 693.263 1475.59C700.953 1473.86 704.232 1477.97 711.922 1478.75C717.525 1479.02 723.107 1477.89 728.165 1475.46C733.223 1473.04 737.598 1469.39 740.896 1464.86C744.858 1459.29 747.078 1452.67 747.275 1445.84C748.191 1448.22 748.676 1450.74 748.705 1453.29C748.705 1465.21 737.676 1472.31 739.405 1474.87C741.134 1477.43 747.692 1473.8 763.252 1468.13C778.811 1462.47 780.6 1463.36 787.098 1459.37C793.113 1455.79 798.558 1451.33 803.254 1446.14C800.555 1452.02 796.657 1457.28 791.808 1461.58C781.077 1470.82 770.048 1470.88 770.286 1473.08C770.525 1475.29 789.959 1480.3 807.725 1472.55C816.815 1468.82 824.682 1462.62 830.439 1454.66ZM773.744 1582.84C775.175 1583.79 782.448 1578.36 783.282 1570.91C783.879 1565.9 781.613 1559.64 778.275 1558.99C774.936 1558.33 772.313 1567.22 765.398 1568.89C761.643 1569.44 757.818 1568.52 754.726 1566.32C758.372 1566.36 761.967 1565.46 765.159 1563.7C770.326 1560.31 774.16 1555.23 776.009 1549.33C779.288 1541.94 784.654 1529.84 780.6 1526.08C772.134 1518.33 729.747 1544.38 732.907 1558.81C733.921 1564.06 741.194 1567.81 739.942 1570.38C738.69 1572.94 729.807 1568.77 726.29 1572.58C722.772 1576.4 724.501 1585.16 729.509 1589.81C740.836 1600.3 768.438 1586.35 771.24 1579.08V1578.78C772.697 1574.76 775.284 1571.24 778.692 1568.65C773.148 1579.79 773.029 1582.36 773.744 1582.84Z" fill="#ECECEC"/>
<path d="M1228.97 646.926C1228.25 644.005 1227.59 641.68 1227.12 640.07C1229.03 658.844 1229.58 677.732 1228.79 696.586C1228.13 712.086 1225.99 741.119 1223.66 741C1219.9 741 1225.87 663.499 1208.16 611.514C1197.19 579.322 1180.62 566.504 1168.52 560.662C1174.72 566.686 1178.46 574.804 1179.01 583.435C1179.01 596.074 1168.69 601.737 1160.35 614.614C1139.07 647.045 1137.58 712.861 1135.85 712.086C1134.12 711.311 1138.11 638.46 1156 397.374C1150.45 414.603 1138.41 447.332 1119.33 464.859C1125.33 521.841 1127.32 579.173 1125.29 636.433C1123.92 676.078 1121 703.978 1120.41 710.297C1115.14 766.697 1103.33 822.294 1085.23 875.97C1092.74 860.172 1101.39 855.7 1106.46 863.212C1109.44 869.477 1111.07 876.304 1111.22 883.243C1112.09 904.38 1106.92 925.325 1096.32 943.634C1108.02 944.277 1119.75 943.334 1131.2 940.832C1170.6 932.188 1191.53 927.597 1208.99 894.391C1239.88 836.683 1246.55 717.094 1228.97 646.926ZM1187.77 851.289C1185.74 884.912 1160.65 912.991 1145.56 896.12C1136.08 885.508 1130.54 857.072 1133.28 849.739C1135.37 844.254 1140.32 854.806 1149.38 854.389C1166.73 853.614 1175.37 813.373 1183 821.123C1187.12 825.296 1188.43 840.916 1187.77 851.289ZM1211.62 798.171C1208.52 823.866 1202.08 851.289 1197.79 849.679C1193.49 848.07 1196.48 806.219 1187.47 792.448C1172.99 770.211 1143.12 847.593 1132.69 830.841C1122.79 815.042 1131.14 717.571 1160.11 674.468C1163.33 669.759 1183.6 639.951 1199.28 658.134C1218.83 680.43 1216.74 758.169 1211.86 798.171H1211.62Z" fill="#ECECEC"/>
<path d="M553.227 1089.58C547.972 1088.27 542.487 1088.18 537.195 1089.33C531.903 1090.48 526.945 1092.83 522.704 1096.19C517.549 1100.4 513.651 1105.95 511.436 1112.23C509.769 1107.92 509.622 1103.16 511.019 1098.76C516.205 1085.04 541.661 1078.73 562.169 1081.89C576.835 1084.09 583.691 1090.23 595.375 1086.3C596.091 1086.3 608.073 1081.89 608.014 1074.97C607.776 1073.37 607.187 1071.85 606.29 1070.51C605.393 1069.17 604.211 1068.05 602.827 1067.22C604.554 1067.42 606.217 1067.99 607.7 1068.89C609.183 1069.8 610.45 1071.02 611.412 1072.47C613.677 1077.83 606.464 1082.3 604.079 1093.75C601.695 1105.19 606.762 1107.04 604.079 1114.38C599.787 1125.05 587.446 1124.21 586.791 1129.94C585.419 1141.32 632.635 1148.18 636.987 1171.25C637.818 1177.54 636.289 1183.91 632.695 1189.13C634.295 1184.53 634.543 1179.57 633.41 1174.83C630.012 1161.47 615.525 1153.96 613.081 1155.99C610.637 1158.01 613.677 1166.06 622.5 1179.48C625.547 1185.98 626.565 1193.25 625.422 1200.34C623.275 1214.11 600.86 1226.93 570.694 1227.59C575.046 1227.11 592.394 1224.78 600.502 1210.66C602.41 1207.38 604.795 1203.38 603.364 1201.18C597.76 1192.59 549.71 1233.85 514.417 1216.74C504.819 1212.09 491.048 1201.06 491.644 1189.85C491.607 1187.48 492.127 1185.13 493.162 1183C494.198 1180.87 495.719 1179.01 497.605 1177.57C499.435 1176.61 501.511 1176.21 503.567 1176.44C502.009 1177.78 500.745 1179.44 499.852 1181.29C498.96 1183.15 498.459 1185.17 498.38 1187.23C498.816 1190.4 500.18 1193.37 502.302 1195.77C504.424 1198.17 507.208 1199.88 510.304 1200.7C524.611 1204.69 536.236 1187.76 552.035 1193.13C553.86 1193.77 555.601 1194.63 557.221 1195.69C554.2 1195.42 551.156 1195.81 548.303 1196.84C545.449 1197.87 542.857 1199.51 540.708 1201.65C538.263 1204.75 536.177 1210.12 537.906 1212.09C543.867 1219.3 604.795 1192.95 602.35 1167.37C600.92 1152.77 579.1 1140.73 561.871 1139.35C550.236 1138.97 538.722 1141.82 528.606 1147.58C523.947 1150.02 519.568 1152.96 515.55 1156.35C517.67 1152.49 520.296 1148.95 523.359 1145.79C546.252 1122.25 583.392 1130.71 586.373 1118.73C587.446 1114.32 583.333 1109.9 580.412 1106.8C568.19 1093.57 544.642 1097.39 530.752 1103.35C528.439 1104.39 526.19 1105.56 524.015 1106.86C526.217 1102.98 529.177 1099.57 532.719 1096.85C538.792 1092.65 545.868 1090.14 553.227 1089.58Z" fill="#ECECEC"/>
<path d="M826.859 1654.02C821.994 1650.6 816.173 1648.8 810.226 1648.89C797.29 1649.37 793.594 1660.22 779.524 1660.81C771.297 1661.17 769.509 1657.59 762.891 1659.68C759.711 1660.93 756.811 1662.8 754.365 1665.19C751.918 1667.57 749.972 1670.42 748.643 1673.57C742.682 1685.49 744.828 1700.99 749.657 1702.49C752.876 1703.5 754.724 1697.66 760.686 1697.48C768.018 1697.48 772.191 1705.88 775.768 1704.21C778.272 1703.08 776.722 1698.67 780.001 1694.26C782.293 1691.44 785.5 1689.52 789.063 1688.83C787.48 1689.76 786.124 1691.03 785.093 1692.54C784.062 1694.06 783.381 1695.78 783.101 1697.6C782.267 1705.64 792.997 1713.57 802.536 1714.77C806.944 1714.95 811.337 1714.15 815.399 1712.43C819.461 1710.71 823.09 1708.1 826.025 1704.81C830.34 1700.67 833.68 1695.62 835.802 1690.03C835.146 1692.53 829.84 1712.08 812.551 1719C806.906 1721.36 800.723 1722.15 794.667 1721.26C784.651 1719.65 782.743 1714.05 773.801 1713.04C770.144 1712.68 766.453 1713.07 762.949 1714.17C759.445 1715.28 756.201 1717.08 753.413 1719.48C738.449 1732.47 746.974 1758.52 748.286 1762.4C750.432 1768.96 752.459 1774.92 757.705 1777.18C765.753 1780.7 770.284 1770.51 785.068 1770.21C793.892 1770.21 795.322 1773.61 811.299 1774.44C815.547 1774.85 819.831 1774.59 823.998 1773.67C829.803 1772.15 835.133 1769.2 839.498 1765.08C838.41 1767.26 837.003 1769.27 835.325 1771.04C825.25 1781.65 809.69 1779.09 809.63 1781.42C809.571 1783.74 822.805 1787.68 833.477 1783.56C835.205 1782.85 836.636 1782.07 836.636 1782.13C830.957 1787.15 823.701 1790.02 816.128 1790.24C804.205 1789.46 803.311 1777.48 792.282 1776.41C780.359 1775.22 777.676 1788.33 763.368 1788.93C752.936 1789.35 747.451 1781.65 740.416 1785.23C737.417 1787.3 733.997 1788.69 730.401 1789.29C728.997 1789.48 727.572 1789.48 726.168 1789.29C735.766 1783.03 740.357 1773.67 738.091 1766.39C736.899 1762.7 733.62 1758.29 729.864 1758.17C723.903 1758.17 718.955 1769.2 717.345 1775.57C716.775 1777.78 716.435 1780.04 716.331 1782.31C715.531 1774.16 716.866 1765.94 720.206 1758.46C723.205 1753.37 726.531 1748.47 730.162 1743.8C735.528 1735.33 744.172 1721.8 739.462 1714.89C737.965 1713.01 735.854 1711.72 733.501 1711.25C724.32 1708.51 714.901 1716.26 714.543 1715.72C720.524 1712.31 725.968 1708.03 730.699 1703.02C741.012 1690.32 738.985 1672.74 738.151 1665.34C736.854 1654.54 733.057 1644.2 727.062 1635.12C730.549 1639.1 734.56 1642.59 738.985 1645.49C752.757 1654.26 768.316 1655.63 768.793 1653.78C769.27 1651.93 764.68 1651.39 760.447 1645.61C758.692 1643.22 757.324 1640.56 756.393 1637.74C768.853 1652.94 777.438 1655.63 783.161 1654.49C788.884 1653.36 793.653 1648.53 806.649 1646.09C809.65 1645.39 812.77 1645.39 815.771 1646.09C820.303 1647.31 824.242 1650.12 826.859 1654.02Z" fill="#ECECEC"/>
<path d="M1060.62 1706L1059.43 1704.04C1060.67 1709.29 1061.05 1714.7 1060.56 1720.07C1060.14 1724.48 1058.71 1732.71 1057.22 1732.71C1054.84 1732.71 1058.65 1710.77 1047.27 1695.99C1040.77 1688.3 1031.74 1683.18 1021.81 1681.56C1024.91 1683.05 1028.61 1685.32 1028.55 1688C1028.49 1690.68 1021.93 1693.19 1016.62 1696.82C1002.97 1706.06 1002.02 1724.72 1000.88 1724.48C999.752 1724.25 1002.26 1703.62 1013.94 1635.06C1008.01 1643.49 999.856 1650.11 990.393 1654.2C994.297 1670.1 995.625 1686.52 994.327 1702.84C993.804 1709.9 992.768 1716.92 991.227 1723.83C987.339 1740.99 979.614 1757.05 968.633 1770.81C973.462 1766.27 979.006 1764.84 982.225 1767.17C983.097 1767.86 983.821 1768.71 984.354 1769.68C984.887 1770.66 985.217 1771.73 985.325 1772.83C986.756 1781.78 976.681 1789.35 975.787 1790C983.249 1790.17 990.714 1789.89 998.143 1789.17C1023.48 1786.72 1036.95 1785.41 1048.16 1775.99C1067.54 1759.78 1071.83 1725.92 1060.62 1706ZM1034.21 1763.95C1032.9 1773.49 1016.74 1781.48 1007.03 1776.71C1001.06 1773.67 997.427 1765.62 999.156 1763.53C1000.88 1761.45 1003.69 1764.96 1009.47 1764.84C1020.62 1764.84 1026.22 1753.22 1031.11 1755.42C1033.67 1756.62 1034.51 1761.03 1034.09 1763.95H1034.21ZM1049.65 1748.87C1047.62 1756.2 1043.69 1763.95 1040.77 1763.53C1037.85 1763.12 1039.93 1751.19 1034.15 1747.26C1024.85 1741 1005.65 1762.94 998.918 1758.17C992.181 1753.4 997.904 1725.97 1016.8 1713.81C1018.89 1712.5 1031.89 1704.04 1041.96 1709.16C1054 1715.48 1052.63 1737.54 1049.53 1748.81L1049.65 1748.87Z" fill="#ECECEC"/>
<path d="M722.885 1677.57C721.718 1689.33 716.831 1700.42 708.935 1709.22C698.523 1719.97 684.416 1726.36 669.469 1727.11C652.955 1727.46 646.457 1719.3 640.198 1724.25C632.924 1730.21 633.521 1748.09 634.951 1756.86C636.859 1773.43 637.873 1781.77 635.428 1784.7C629.467 1791.85 613.132 1792.45 604.488 1783.8C601.659 1780.87 599.735 1777.19 598.943 1773.19C600.434 1775.46 602.36 1777.42 604.612 1778.94C606.863 1780.47 609.394 1781.53 612.059 1782.07C616.658 1783.04 621.456 1782.17 625.413 1779.63C630.957 1775.34 629.765 1768.24 629.347 1740.34C629.347 1723.23 629.347 1717.03 626.724 1716.5C622.909 1715.3 616.828 1725.5 615.993 1726.75C611.413 1734.06 609.321 1742.65 610.032 1751.25C608.445 1746.14 607.68 1740.81 607.767 1735.45C608.243 1708.09 631.613 1694.5 625.651 1680.61C624.57 1677.99 622.732 1675.76 620.374 1674.2C618.016 1672.64 615.245 1671.82 612.417 1671.84C609.273 1672.46 606.454 1674.19 604.465 1676.7C602.477 1679.21 601.449 1682.35 601.566 1685.55C601.167 1684.68 600.886 1683.76 600.732 1682.81C598.526 1669.76 622.849 1647.04 645.742 1647.82C665.177 1648.47 677.279 1660.52 684.432 1654.08C686.198 1652.03 687.361 1649.52 687.792 1646.85C688.223 1644.18 687.907 1641.44 686.877 1638.94C685.186 1635.06 682.069 1631.99 678.173 1630.35C681.362 1630.61 684.452 1631.58 687.217 1633.19C689.982 1634.8 692.351 1637 694.15 1639.65C697.488 1645.61 693.792 1650.2 696.833 1659.56C698.74 1665.52 703.629 1674.05 708.756 1673.75C713.883 1673.45 717.817 1665.58 719.069 1654.49C719.828 1662.54 718.914 1670.66 716.387 1678.34C711.438 1692.71 701.125 1702.78 702.556 1704.1C703.986 1705.41 707.027 1702.01 707.981 1701.29C715.318 1695.15 720.533 1686.84 722.885 1677.57ZM679.067 1685.32C669.946 1695.75 659.99 1693.84 644.788 1706.9C642.642 1708.8 636.084 1714.35 637.276 1716.56C638.469 1718.76 645.682 1715.06 655.996 1714.77C672.032 1714.29 676.861 1722.4 683.3 1719.6C696.892 1713.63 692.779 1669.76 687.831 1669.16C685.923 1668.92 686.698 1676.85 679.067 1685.32ZM635.369 1703.2C637.813 1706.24 653.253 1697.9 663.627 1689.55C669.588 1684.72 675.55 1680.07 674.357 1675.42C673.511 1673.39 672.065 1671.66 670.212 1670.46C668.359 1669.27 666.187 1668.67 663.984 1668.74C657.426 1668.74 652.478 1675.6 642.94 1689.25C637.336 1697.3 634.355 1701.47 635.547 1702.96L635.369 1703.2ZM668.098 1661.17C667.561 1659.2 642.344 1659.14 634.713 1673.1C630.659 1680.67 632.567 1690.98 635.13 1691.28C637.694 1691.58 640.198 1680.07 652.24 1670.11C657.291 1666.57 662.66 1663.49 668.277 1660.93L668.098 1661.17Z" fill="#ECECEC"/>
<path d="M367.699 1417.7C386.836 1412.93 401.68 1399.82 405.496 1383.72C406.738 1378.25 406.85 1372.58 405.825 1367.07C404.8 1361.55 402.659 1356.31 399.534 1351.65C396.771 1347.48 392.495 1344.55 387.611 1343.48C383.054 1342.76 378.393 1343.78 374.555 1346.34C378.019 1341.95 382.841 1338.82 388.267 1337.46C396.911 1335.49 402.396 1340.32 407.105 1337.1C409.669 1335.37 409.967 1332.69 411.398 1321.78C412.216 1311.99 413.73 1302.26 415.928 1292.69C417.162 1286.08 420.101 1279.92 424.453 1274.8C428.622 1270.74 433.781 1267.84 439.417 1266.38C445.054 1264.93 450.973 1264.98 456.586 1266.52C459.655 1267.16 462.483 1268.65 464.754 1270.81C459.393 1269.5 453.875 1268.93 448.359 1269.14C440.073 1270.21 430.952 1275.4 431.071 1280.53C431.24 1282.18 432.054 1283.7 433.336 1284.76C440.013 1290.72 455.275 1283.74 463.144 1280.88C465.198 1280.12 467.191 1279.2 469.106 1278.14C480.015 1272.18 490.746 1268.6 500.523 1272.18C503.314 1273.13 505.887 1274.63 508.094 1276.59C501.736 1274.69 494.984 1274.53 488.54 1276.11C482.421 1277.67 476.812 1280.79 472.265 1285.18C469.255 1287.46 467.145 1290.73 466.304 1294.42C465.964 1296.13 466.006 1297.91 466.429 1299.61C466.851 1301.31 467.643 1302.89 468.748 1304.25C472.634 1309.5 477.005 1314.37 481.804 1318.8C490.284 1326.55 496.21 1336.7 498.794 1347.89C501.239 1369.11 473.338 1378.95 474.531 1403.63C474.906 1409.68 476.769 1415.53 479.956 1420.68C475.489 1418.11 471.864 1414.3 469.523 1409.71C466.912 1403.36 466.187 1396.38 467.436 1389.62C468.152 1382.41 468.271 1375.14 468.569 1367.86C468.569 1365 468.092 1364.58 465.588 1365.66C462.17 1367.12 458.438 1367.69 454.738 1367.33C448.777 1366.79 446.571 1361.36 438.225 1357.31C429.879 1353.26 416.286 1353.5 412.709 1359.04C410.801 1361.96 412.709 1364.29 413.305 1372.04C414.144 1379.86 412.932 1387.77 409.788 1394.99C404.887 1403.37 397.146 1409.71 387.969 1412.87C381.53 1415.6 374.678 1417.24 367.699 1417.7ZM414.557 1347.71C417.717 1348.79 421.83 1343.6 424.275 1341.27C436.854 1328.87 457.302 1339.37 463.979 1331.02C470.656 1322.67 459.925 1292.87 445.438 1290.78C426.6 1288.04 409.013 1331.68 411.696 1343.18C411.994 1344.2 412.65 1347 414.557 1347.71ZM474.173 1378.65C475.485 1379.07 478.048 1375.67 483.115 1368.88C490.15 1359.46 490.866 1356.95 491.164 1354.87C491.7 1351.11 491.164 1344.97 488.183 1343.66C485.202 1342.35 480.552 1346.7 479.717 1347.53C476.83 1350.58 474.92 1354.42 474.233 1358.56C472.504 1365.9 471.252 1377.76 474.233 1378.65H474.173ZM458.494 1338.95C451.579 1338.65 446.094 1345.98 447.107 1350.04C448.657 1356 465.469 1358.56 468.45 1353.73C468.869 1352.1 468.938 1350.4 468.652 1348.74C468.367 1347.08 467.733 1345.5 466.792 1344.11C465.852 1342.71 464.626 1341.53 463.196 1340.64C461.765 1339.75 460.163 1339.17 458.494 1338.95Z" fill="#ECECEC"/>
<path d="M468.627 1787.02C487.764 1782.19 502.608 1769.14 506.483 1752.98C507.686 1747.52 507.778 1741.87 506.754 1736.37C505.73 1730.87 503.61 1725.63 500.521 1720.97C497.758 1716.8 493.482 1713.87 488.598 1712.8C484.04 1712.03 479.361 1713.06 475.542 1715.66C479.019 1711.37 483.82 1708.35 489.194 1707.08C497.839 1705.11 503.323 1709.94 508.033 1706.72C510.596 1704.99 510.895 1702.31 512.325 1691.34C513.139 1681.56 514.653 1671.86 516.856 1662.3C518.089 1655.7 521.028 1649.54 525.381 1644.42C529.562 1640.36 534.731 1637.46 540.377 1636C546.023 1634.55 551.951 1634.59 557.574 1636.13C562.105 1637.44 565.92 1639.89 565.682 1640.43C560.32 1639.11 554.805 1638.53 549.287 1638.7C541.001 1639.83 531.879 1645.02 531.999 1650.08C532.177 1651.75 532.988 1653.29 534.264 1654.38C540.941 1660.34 556.203 1653.36 564.072 1650.5C566.127 1649.72 568.119 1648.78 570.033 1647.7C580.943 1642.03 591.674 1638.16 601.451 1641.74C604.242 1642.69 606.815 1644.19 609.022 1646.15C602.669 1644.22 595.908 1644.05 589.468 1645.67C583.344 1647.22 577.733 1650.34 573.193 1654.73C570.183 1657.02 568.072 1660.29 567.231 1663.97C566.891 1665.69 566.934 1667.46 567.356 1669.16C567.779 1670.86 568.571 1672.45 569.676 1673.81C573.547 1679.05 577.919 1683.9 582.732 1688.3C591.202 1696.08 597.124 1706.24 599.722 1717.45C602.166 1738.61 574.266 1748.51 575.459 1773.19C575.833 1779.23 577.697 1785.09 580.884 1790.24C576.417 1787.67 572.792 1783.86 570.451 1779.27C567.869 1772.91 567.145 1765.94 568.364 1759.18C569.08 1751.97 569.199 1744.69 569.497 1737.42C569.497 1734.56 569.02 1734.14 566.516 1735.15C563.111 1736.66 559.371 1737.26 555.666 1736.88C549.704 1736.29 547.499 1730.92 539.152 1726.81C530.806 1722.69 517.214 1723.05 513.637 1728.6C511.729 1731.46 513.637 1733.78 514.233 1741.59C515.071 1749.42 513.859 1757.33 510.716 1764.55C505.814 1772.92 498.074 1779.27 488.896 1782.43C482.446 1785.09 475.593 1786.64 468.627 1787.02ZM515.485 1716.97C518.645 1718.1 522.818 1712.92 525.202 1710.53C537.841 1698.19 558.23 1708.69 564.906 1700.28C571.583 1691.87 560.853 1662.18 546.366 1660.1C527.527 1657.36 510 1700.99 512.683 1712.5C512.921 1713.51 513.577 1716.32 515.485 1716.97ZM575.101 1747.97C576.412 1748.39 578.976 1744.99 584.103 1738.2C591.078 1728.78 591.793 1726.27 592.091 1724.19C592.628 1720.43 592.091 1714.23 589.111 1712.92C586.13 1711.61 581.48 1716.02 580.645 1716.79C577.783 1719.88 575.877 1723.73 575.16 1727.88C573.432 1735.21 572.18 1747.08 575.16 1747.97H575.101ZM559.362 1708.27C552.447 1707.91 546.962 1715.3 547.976 1719.36C549.526 1725.32 566.337 1727.82 569.318 1723.05C569.737 1721.43 569.808 1719.73 569.526 1718.07C569.244 1716.42 568.615 1714.84 567.681 1713.44C566.746 1712.05 565.528 1710.87 564.104 1709.97C562.681 1709.08 561.085 1708.5 559.422 1708.27H559.362Z" fill="#ECECEC"/>
<path d="M564.317 717.455C573.558 683.772 573.975 645.916 565.867 619.864C562.887 610.266 555.256 591.487 549.95 596.018C539.338 604.901 537.431 704.519 558.296 745.952C567.596 764.373 574.512 757.875 583.156 776.296C595.675 803.362 595.795 849.624 593.768 885.214C589.714 839.37 581.844 802.169 572.187 800.381C557.879 797.579 535.523 873.529 547.804 917.168C556.508 948.049 577.612 946.261 579.4 946.082C575.859 948.759 571.798 950.668 567.477 951.686C562.467 952.562 557.317 952.182 552.49 950.579C547.662 948.977 543.308 946.203 539.815 942.505C513.823 913.114 553.885 650.984 523.242 547.55C519.546 535.15 508.219 497.354 487.115 479.111C478.113 471.361 465.892 460.809 456.77 469.692C420.464 504.865 446.517 833.348 415.039 950.851C408.834 974.152 400.14 996.717 389.107 1018.16C382.608 1030.08 373.249 1046.83 358.762 1056.31C353.759 1059.91 347.923 1062.18 341.803 1062.91C335.683 1063.64 329.477 1062.81 323.768 1060.48C334.996 1055.33 345.197 1048.18 353.874 1039.38C370.776 1024.18 383.032 1004.5 389.226 982.626C393.876 967.544 397.989 947.215 395.783 942.743C392.862 936.782 382.668 965.994 367.287 969.332C355.781 971.836 345.825 958.899 339.506 948.228C344.517 951.899 350.642 953.726 356.845 953.401C363.048 953.075 368.948 950.616 373.547 946.44C411.522 914.009 424.936 773.196 406.335 708.274C404.785 702.909 399.003 682.699 392.266 683.832C384.218 685.263 377.124 716.561 373.964 764.015C372.927 738.266 374.686 712.481 379.21 687.111C388.63 636.676 405.441 624.693 421.776 554.525C426.784 533.123 430.063 513.45 426.366 502.004C423.207 492.167 416.351 492.763 415.457 492.823C405.441 493.657 396.022 516.669 391.074 549.935C391.647 536.421 393.101 522.959 395.426 509.635C409.137 432.134 454.565 372.935 496.415 394.338C532.184 412.52 549.533 481.019 559.25 518.815C566.404 546.537 584.468 616.585 572.962 683.653C571.05 695.146 568.158 706.455 564.317 717.455ZM520.977 485.252C523.838 479.29 509.054 402.266 484.492 400.18C464.103 398.451 447.47 448.29 449.736 456.875C451.584 464.028 465.415 438.99 485.505 445.428C507.623 452.284 518.89 489.842 520.977 485.252Z" fill="#ECECEC"/>
<path d="M763.607 1201.71C760.329 1199.57 746.975 1226.87 727.48 1227.29C723.273 1227.04 719.157 1225.95 715.371 1224.1C711.585 1222.25 708.204 1219.66 705.422 1216.5C708.887 1218.82 712.785 1220.42 716.883 1221.2C720.981 1221.98 725.194 1221.92 729.269 1221.03C737.082 1218.52 743.674 1213.19 747.75 1206.06C754.069 1196.64 751.625 1193.37 756.394 1182.22C763.607 1165.47 778.988 1158.37 777.259 1155.63C776.306 1154.08 772.252 1157.18 764.8 1155.63C760.364 1154.74 756.248 1152.68 752.877 1149.67C751.267 1148.06 750.671 1146.63 748.465 1145.38C748.465 1145.38 744.232 1143.05 741.728 1144.12C739.225 1145.2 737.138 1152.53 739.88 1161.29C733.382 1152.62 730.133 1141.95 730.7 1131.13C731.693 1119.38 737.079 1108.44 745.782 1100.48C754.25 1092.32 765.34 1087.42 777.081 1086.65C794.965 1086.12 799.556 1097.15 812.85 1092.62C821.909 1089.38 829.532 1083.04 834.371 1074.73C833.26 1081.04 830.777 1087.02 827.098 1092.26C822.21 1099.17 818.514 1099.65 816.248 1105.19C812.552 1114.49 816.964 1128.03 822.985 1129.04C827.575 1129.99 832.523 1123.5 836.577 1118.07C842.28 1110.38 846.228 1101.52 848.143 1092.14C849.085 1102.72 846.865 1113.34 841.764 1122.66C834.908 1134.58 826.681 1136.97 821.733 1150.74C821.196 1152.17 816.904 1164.39 822.269 1169.4C826.025 1172.92 832.821 1171.13 835.743 1170.35C850.17 1166.48 857.8 1152.47 860.424 1147.34C858.355 1155.63 854.6 1163.4 849.395 1170.18C837.829 1185.2 825.906 1185.62 822.627 1197.36C821.425 1201.92 821.599 1206.72 823.126 1211.18C824.654 1215.64 827.468 1219.54 831.212 1222.4C834.704 1224.76 838.786 1226.1 842.999 1226.27C847.212 1226.44 851.388 1225.43 855.058 1223.35C850.747 1226.38 845.82 1228.41 840.631 1229.31C835.429 1230.3 830.07 1230.08 824.966 1228.68C819.861 1227.27 815.146 1224.72 811.181 1221.21C795.621 1204.04 819.229 1165.88 807.127 1157.78C803.133 1155.09 797.588 1157.12 791.925 1159.21C786.356 1161.25 781.421 1164.73 777.613 1169.28C773.805 1173.83 771.258 1179.3 770.225 1185.14C768.913 1194.62 773.921 1196.23 773.802 1205.23C773.802 1221.98 755.917 1240.52 736.959 1244.64C720.982 1248.09 715.021 1238.97 696.122 1242.01C685.133 1243.96 674.852 1248.77 666.314 1255.96C669.966 1250.43 674.673 1245.67 680.167 1241.95C685.66 1238.24 691.831 1235.65 698.328 1234.32C707.151 1233.19 709.059 1236.41 721.101 1235.51C727.421 1235.04 744.948 1233.67 756.215 1220.01C762.832 1213.04 765.515 1202.96 763.607 1201.71ZM804.206 1120.04C804.206 1117.18 805.16 1103.7 796.635 1097.32C782.208 1086.53 753.89 1105.67 754.904 1113.54C754.904 1115.51 757.05 1116.76 756.871 1119.5C756.692 1122.24 753.473 1124.87 750.552 1126.42C751.645 1125.07 752.309 1123.42 752.458 1121.69C752.607 1119.95 752.233 1118.22 751.386 1116.7C750.432 1114.97 748.167 1112.71 746.498 1113.24C743.815 1114.2 743.338 1122.84 745.007 1128.86C748.346 1141.14 764.204 1155.81 781.731 1151.22C796.813 1147.28 803.55 1131.37 804.265 1120.04H804.206Z" fill="#ECECEC"/>
<path d="M914.671 1091.01C909.408 1089.68 903.91 1089.59 898.605 1090.74C893.3 1091.88 888.332 1094.24 884.088 1097.63C878.935 1101.83 875.053 1107.38 872.88 1113.66C871.154 1109.36 871.006 1104.59 872.463 1100.19C877.59 1086.48 903.046 1080.16 923.554 1083.26C938.279 1085.52 945.075 1091.66 956.82 1087.73C957.475 1087.73 969.458 1083.32 969.398 1076.34C969.152 1074.76 968.56 1073.25 967.663 1071.92C966.767 1070.59 965.588 1069.47 964.212 1068.65C965.949 1068.81 967.627 1069.37 969.115 1070.28C970.604 1071.19 971.863 1072.42 972.797 1073.9C975.122 1079.2 967.849 1083.74 965.523 1095.18C963.198 1106.63 968.206 1108.48 965.225 1115.81C960.993 1126.48 948.652 1125.65 947.937 1131.37C946.566 1142.75 993.841 1149.61 998.193 1172.68C999.024 1178.97 997.494 1185.34 993.901 1190.57C995.471 1185.96 995.719 1181 994.616 1176.26C991.218 1162.9 976.433 1155.39 974.287 1157.42C972.141 1159.45 974.824 1167.5 983.647 1180.91C986.798 1187.38 987.88 1194.67 986.747 1201.77C984.601 1215.55 962.245 1228.3 932.079 1229.02C936.371 1228.54 953.779 1226.22 961.887 1212.09C963.854 1208.81 966.179 1204.81 964.748 1202.61C959.145 1194.02 911.094 1235.28 875.802 1218.17C866.263 1213.52 852.432 1202.49 853.028 1191.28C853.014 1188.92 853.545 1186.58 854.578 1184.45C855.612 1182.32 857.121 1180.45 858.99 1179C860.808 1178 862.895 1177.61 864.952 1177.87C863.372 1179.2 862.088 1180.85 861.185 1182.71C860.281 1184.57 859.777 1186.59 859.705 1188.66C860.163 1191.82 861.535 1194.78 863.654 1197.18C865.772 1199.57 868.544 1201.29 871.629 1202.13C885.936 1206.13 897.561 1189.2 913.36 1194.56C915.162 1195.22 916.882 1196.08 918.487 1197.12C915.465 1196.84 912.417 1197.22 909.562 1198.25C906.707 1199.29 904.115 1200.94 901.973 1203.09C899.529 1206.19 897.502 1211.55 899.171 1213.52C905.133 1220.73 966.12 1194.38 963.616 1168.81C962.245 1154.2 940.366 1142.1 923.137 1140.79C911.516 1140.36 900.01 1143.22 889.931 1149.01C885.254 1151.45 880.856 1154.39 876.815 1157.78C878.981 1153.94 881.625 1150.4 884.684 1147.23C907.517 1123.38 944.658 1132.14 947.639 1120.16C948.712 1115.75 944.658 1111.34 941.677 1108.24C929.396 1095 905.908 1098.82 891.958 1104.78C889.645 1105.78 887.413 1106.96 885.281 1108.3C887.49 1104.42 890.425 1101 893.925 1098.22C900.081 1094.03 907.24 1091.54 914.671 1091.01Z" fill="#ECECEC"/>
<path d="M1157.43 1208.21C1157.48 1210.67 1156.79 1213.08 1155.45 1215.15C1154.11 1217.21 1152.19 1218.82 1149.92 1219.78C1143.96 1221.5 1138 1215.3 1136.09 1210.18C1135.45 1207.16 1135.45 1204.03 1136.1 1201.01C1136.75 1197.99 1138.02 1195.14 1139.84 1192.65C1146.64 1181.38 1152.78 1148 1154.09 1063.34C1152.68 1070.69 1149.07 1077.44 1143.75 1082.71C1138.43 1087.98 1131.65 1091.51 1124.28 1092.85C1116.75 1093.56 1109.19 1091.67 1102.88 1087.49C1103.93 1090.96 1105.71 1094.17 1108.11 1096.9C1110.51 1099.62 1113.46 1101.8 1116.77 1103.29C1124.34 1105.73 1128.7 1100.48 1133.7 1103.29C1143.66 1108.59 1143.9 1139.59 1130.6 1148C1124.28 1152.05 1119.75 1148 1110.1 1152.59C1098.71 1158.13 1096.62 1167.79 1092.75 1166.9C1086.79 1165.41 1093.76 1143.05 1082.14 1127.85C1075.24 1119.7 1065.67 1114.26 1055.13 1112.53C1058.41 1114.08 1062.28 1116.52 1062.28 1119.38C1062.28 1123.2 1055.25 1124.87 1049.47 1128.74C1034.98 1138.52 1033.97 1158.55 1032.77 1158.13C1031.58 1157.72 1034.26 1135.96 1046.66 1063.28C1040.36 1072.22 1031.72 1079.26 1021.69 1083.61C1025.78 1100.54 1027.19 1118 1025.86 1135.36C1025.28 1142.84 1024.16 1150.27 1022.52 1157.6C1018.44 1175.84 1010.29 1192.91 998.674 1207.55C1000.37 1205.46 1002.68 1203.96 1005.29 1203.27C1007.9 1202.58 1010.65 1202.75 1013.16 1203.74C1014.08 1204.46 1014.84 1205.36 1015.4 1206.39C1015.97 1207.41 1016.32 1208.54 1016.44 1209.7C1017.93 1219.18 1007.26 1227.23 1006.25 1227.88C1014.2 1228.11 1022.17 1227.83 1030.09 1227.05C1059.3 1224.25 1073.97 1223.17 1083.21 1213.04C1092.45 1202.9 1085.95 1195.75 1099.48 1173.63C1108.01 1159.68 1113.49 1157.6 1117.01 1157.36C1120.34 1157.14 1123.65 1157.86 1126.59 1159.43C1129.53 1161 1131.97 1163.36 1133.64 1166.24C1140.56 1180.49 1114.39 1196.7 1120.35 1213.93C1122.3 1218.49 1125.58 1222.34 1129.76 1225C1133.94 1227.66 1138.83 1229 1143.78 1228.84C1149.74 1228.48 1158.38 1225.14 1159.93 1217.99C1160.39 1214.53 1159.49 1211.02 1157.43 1208.21ZM1068.01 1199.98C1066.64 1210.12 1049.47 1218.58 1039.15 1213.52C1032.71 1210.3 1028.9 1201.59 1030.81 1199.51C1032.71 1197.42 1035.64 1201.06 1041.78 1200.94C1053.7 1200.94 1059.66 1188.54 1064.73 1190.92C1067.83 1192.17 1068.72 1196.88 1068.25 1199.98H1068.01ZM1084.46 1184.01C1082.31 1191.7 1077.96 1199.98 1075.04 1199.51C1072.12 1199.03 1074.15 1186.39 1068.01 1182.28C1058.05 1175.54 1037.66 1198.85 1030.51 1193.84C1023.35 1188.84 1029.5 1159.56 1049.29 1146.69C1051.49 1145.26 1065.32 1136.31 1076.06 1141.74C1089.41 1148.48 1088.04 1171.9 1084.46 1184.01Z" fill="#ECECEC"/>
<path d="M230.641 1405.36C244.353 1401.13 246.916 1356.9 235.828 1352.07C230.283 1349.68 221.937 1357.43 221.043 1358.03C218.181 1361.03 216.06 1364.65 214.849 1368.62C213.637 1372.58 213.37 1376.78 214.068 1380.86C213.42 1379.84 212.899 1378.73 212.518 1377.58C211.742 1372.5 212.007 1367.31 213.299 1362.32C214.59 1357.34 216.88 1352.68 220.029 1348.61C223.659 1344.02 227.96 1340 232.787 1336.69C237.857 1333.2 242.076 1328.61 245.128 1323.27C247.665 1318.65 248.388 1313.25 247.155 1308.13C245.672 1302.11 242.7 1296.55 238.51 1291.97C233.577 1287.52 227.26 1284.91 220.626 1284.58C222.956 1283.37 225.516 1282.68 228.137 1282.53C230.758 1282.39 233.379 1282.8 235.828 1283.75C239.047 1285.36 240.358 1287.98 241.491 1287.5C242.624 1287.03 243.101 1278.8 239.166 1273.55C236.765 1270.94 233.779 1268.93 230.452 1267.7C227.125 1266.47 223.553 1266.04 220.029 1266.46C223.807 1263.95 228.332 1262.81 232.847 1263.24C242.505 1264.67 247.035 1275.16 249.897 1273.85C251.685 1273.08 252.282 1267.89 248.347 1250.42C251.463 1256.59 253.863 1263.09 255.501 1269.8C264.682 1307.47 245.605 1336.15 253.355 1340.8C258.66 1343.96 272.253 1332.87 279.347 1322.91C283.523 1316.52 286.321 1309.33 287.563 1301.8C288.805 1294.26 288.464 1286.55 286.561 1279.16C287.924 1281.42 289.062 1283.82 289.959 1286.31C293.715 1297.16 290.674 1304.73 291.986 1305.15C294.728 1306.04 315.176 1278.2 303.909 1260.97C300.393 1256.05 295.269 1252.51 289.422 1250.96C296.278 1251.5 304.803 1253.28 308.797 1259.48C312.792 1265.68 309.87 1275.64 313.03 1276.83C316.19 1278.02 320.065 1268.49 329.186 1265.45C335.595 1263.76 342.409 1264.61 348.203 1267.83C342.66 1266.45 336.83 1266.74 331.451 1268.66C315.236 1274.63 317.978 1294.06 299.855 1315.34C285.368 1332.33 266.589 1340.14 267.543 1341.75C268.497 1343.36 271.716 1340.14 277.559 1338.71C297.649 1333.71 319.826 1343.12 325.251 1353.38C326.159 1355.1 326.917 1356.89 327.517 1358.74C328.802 1363.03 329.087 1367.56 328.351 1371.98C328.351 1370.19 326.98 1355.7 316.428 1350.52C314.58 1349.62 311.659 1348.25 309.811 1349.44C305.161 1352.48 312.434 1370.91 315.176 1377.7C322.39 1396 327.398 1408.64 338.546 1412.16C348.68 1415.32 357.98 1409.18 358.278 1410.19C354.886 1413.43 350.731 1415.76 346.198 1416.97C341.665 1418.18 336.901 1418.23 332.346 1417.11C322.747 1413.95 319.707 1404.17 318.157 1405.18C315.474 1406.56 320.661 1441.79 337.592 1443.52C347.071 1444.53 358.517 1434.93 363.644 1419.67C357.682 1439.82 347.309 1453.47 336.996 1453.35C325.49 1453.35 317.382 1435.89 312.732 1425.99C294.847 1387.36 308.32 1359.52 292.761 1349.62C283.282 1343.66 267.424 1346.88 258.839 1354.93C240.06 1372.81 259.555 1407.69 245.068 1416.63C233.86 1423.55 206.795 1411.44 198.329 1390.46C195.093 1382.1 194.634 1372.93 197.018 1364.29C197.837 1374.17 201.712 1383.54 208.106 1391.12C209.954 1393.68 221.818 1408.11 230.641 1405.36Z" fill="#ECECEC"/>
<path d="M1085.89 1417.16C1085.64 1415 1085.88 1412.8 1086.59 1410.74C1087.3 1408.67 1088.47 1406.8 1090 1405.24C1095.42 1401.01 1103.59 1406.08 1106.75 1402.26C1108.9 1399.64 1107.53 1395.11 1105.02 1388.91C1102.12 1380.88 1101.3 1372.24 1102.64 1363.81C1103.51 1370.94 1105.86 1377.8 1109.54 1383.96C1113.23 1390.13 1118.17 1395.44 1124.04 1399.58C1127.8 1402.02 1140.14 1410.01 1152.83 1405.54C1173.64 1398.51 1173.46 1366.13 1173.4 1364.46C1173.4 1361.36 1173.4 1349.8 1167.44 1347.71C1163.03 1345.98 1159.21 1351.35 1152.54 1354.09C1140.61 1358.98 1118.02 1347.12 1111.28 1330.25C1103.35 1310.51 1118.91 1295.49 1109.2 1277.6C1104.55 1269.94 1097.35 1264.16 1088.87 1261.27C1097.63 1261.27 1108.48 1262.34 1114.38 1269.74C1125.77 1283.8 1110.45 1308.43 1121.6 1317.43C1124.85 1319.29 1128.44 1320.47 1132.16 1320.9C1135.88 1321.33 1139.65 1321 1143.24 1319.93C1148.3 1318.62 1152.95 1316.35 1152.36 1316.77C1137.04 1327.86 1134.47 1332.45 1135.19 1334.66C1135.9 1336.86 1144.49 1338 1150.69 1334.36C1154.37 1331.72 1157.17 1328.03 1158.71 1323.78C1160.25 1319.52 1160.47 1314.9 1159.33 1310.51C1162.43 1316.91 1162.9 1324.27 1160.64 1331.02C1159.21 1334.72 1155.99 1339.37 1157.13 1340.44C1158.26 1341.51 1159.03 1340.44 1159.51 1340.08C1168.16 1336.56 1175.97 1305.5 1175.97 1305.5C1180.53 1288.32 1188.81 1272.34 1200.23 1258.71C1196.65 1266.47 1193.52 1274.43 1190.87 1282.55C1182.88 1307.11 1175.67 1329.41 1184.91 1339.49C1189.65 1343.45 1193.34 1348.53 1195.64 1354.27C1197.08 1358.36 1197.71 1362.7 1197.49 1367.03C1195.94 1360.05 1193.02 1354.39 1189.68 1354.21C1185.03 1353.91 1179.18 1364.46 1181.63 1371.38C1183.24 1375.91 1187.59 1376.03 1190.51 1381.4C1192.6 1385.6 1193.19 1390.4 1192.18 1394.99C1188.07 1385.45 1184.55 1383.72 1182.34 1383.66C1174.89 1383.66 1173.88 1400.89 1159.69 1411.14C1150.75 1416.54 1140.12 1418.39 1129.88 1416.33C1112.42 1413.71 1105.74 1403.93 1095.6 1407.51C1091.34 1409.5 1087.91 1412.92 1085.89 1417.16Z" fill="#ECECEC"/>
<path d="M807.844 1349.38C810.455 1356.43 811.174 1364.03 809.93 1371.44C809.177 1377.11 807.036 1382.5 803.697 1387.14C800.359 1391.77 795.926 1395.52 790.793 1398.03C782.686 1401.31 773.207 1399.7 772.491 1396.48C772.074 1394.69 773.982 1392.9 777.022 1388.55C779.257 1384.88 780.356 1380.63 780.182 1376.33C778.87 1378.71 770.166 1394.21 754.249 1396.42C734.993 1398.98 720.328 1379.85 715.081 1365.96C708.762 1349.26 711.564 1328.46 718.479 1326.13C725.395 1323.81 736.364 1344.02 747.632 1340.62C749.96 1339.92 752.033 1338.55 753.593 1336.68C747.105 1335.76 741.081 1332.79 736.405 1328.2C731.728 1323.61 728.643 1317.64 727.601 1311.17C726.776 1306.31 727.214 1301.31 728.874 1296.67C730.534 1292.02 733.36 1287.88 737.08 1284.64C748.645 1275.82 769.749 1279.69 782.507 1298.11C781.255 1295.13 771.478 1272.84 753.891 1270.99C747.929 1270.59 742.001 1272.16 737.02 1275.46C713.174 1289.65 713.71 1324.64 705.006 1324.7C696.302 1324.76 696.958 1291.61 673.112 1277.84C668.149 1274.55 662.243 1272.98 656.3 1273.37C638.415 1275.22 628.937 1297.22 627.625 1300.5C640.442 1282.08 661.487 1278.2 673.112 1287.02C676.849 1290.27 679.693 1294.41 681.374 1299.07C683.054 1303.72 683.514 1308.73 682.71 1313.61C681.668 1320.08 678.583 1326.05 673.906 1330.64C669.229 1335.23 663.206 1338.21 656.717 1339.13C658.256 1341.02 660.336 1342.39 662.679 1343.06C674.245 1346.34 684.32 1326.07 691.891 1328.64C699.462 1331.2 701.608 1351.77 695.289 1368.46C690.043 1382.29 675.377 1401.49 656.121 1398.86C640.204 1396.78 631.44 1380.98 630.188 1378.77C629.974 1383.07 631.076 1387.34 633.348 1390.99C636.329 1395.35 638.296 1396.96 637.879 1398.92C637.104 1402.14 627.625 1403.75 619.577 1400.53C614.438 1398 609.999 1394.25 606.652 1389.61C603.304 1384.96 601.151 1379.56 600.381 1373.88C599.183 1366.47 599.922 1358.87 602.527 1351.83C597.998 1357.45 595.276 1364.3 594.717 1371.5C593.584 1392.72 613.973 1412.16 632.335 1416.69C661.844 1423.9 696.183 1395.11 704.887 1361.19C704.887 1360.17 705.304 1359.22 705.483 1358.21C705.505 1358.48 705.505 1358.76 705.483 1359.04C714.247 1393.02 748.585 1421.82 778.095 1414.6C796.457 1410.07 816.846 1390.76 815.713 1369.41C815.189 1362.09 812.444 1355.1 807.844 1349.38Z" fill="#ECECEC"/>
<path d="M840.927 346.05C838.066 343.606 829.004 346.766 827.514 351.654C826.917 353.8 827.514 356.602 829.242 357.02C830.971 357.437 833.952 352.548 835.204 353.025C836.456 353.502 836.039 358.987 832.223 374.547C842.954 354.456 843.193 347.839 840.927 346.05Z" fill="#ECECEC"/>
<path d="M499.335 1405.48C496.474 1403.04 487.412 1406.2 485.922 1411.09C485.326 1413.23 485.922 1416.03 487.651 1416.45C489.379 1416.87 492.36 1411.98 493.612 1412.46C494.864 1412.93 494.447 1418.42 490.631 1433.98C501.362 1413.89 501.601 1407.39 499.335 1405.48Z" fill="#ECECEC"/>
<path d="M941.378 1634.82C936.203 1638.57 931.994 1643.49 929.097 1649.19C926.235 1654.36 924.814 1660.21 924.983 1666.12C925.401 1674.7 930.945 1688 941.199 1688.65C949.963 1689.25 956.401 1679.77 956.997 1678.88C956.117 1682.24 954.555 1685.39 952.407 1688.12C948.157 1692.72 942.638 1695.95 936.549 1697.42C916.816 1704.75 909.781 1762.34 920.81 1767.05C926.235 1769.37 938.159 1759.6 941.02 1747.91C942.359 1741.67 941.495 1735.16 938.576 1729.49C940.989 1731.96 942.893 1734.87 944.18 1738.08C946.732 1744.49 946.732 1751.63 944.18 1758.05C940.424 1766.51 933.33 1767.94 933.747 1774.08C933.806 1775.34 934.161 1776.57 934.782 1777.67C935.404 1778.77 936.274 1779.7 937.324 1780.4C942.153 1783.03 951.751 1777.3 960.813 1765.74C951.632 1781.36 938.814 1792.45 928.441 1790.36C914.61 1787.56 902.866 1760.55 907.158 1741.12C908.529 1734.8 911.928 1727.52 908.172 1721.68C907.016 1719.8 905.327 1718.31 903.32 1717.4C901.313 1716.49 899.079 1716.19 896.904 1716.55C894.18 1717.74 891.998 1719.9 890.785 1722.62C889.572 1725.33 889.416 1728.4 890.347 1731.22C891.166 1733.64 892.685 1735.77 894.711 1737.33C896.738 1738.89 899.182 1739.81 901.733 1739.98C897.96 1740.57 894.098 1739.88 890.764 1738.02C882.239 1732.83 884.266 1721.26 875.741 1717.75C874.35 1717.1 872.834 1716.76 871.299 1716.76C869.765 1716.76 868.249 1717.1 866.858 1717.75C865.368 1718.82 865.308 1719.77 864.056 1721.44C861.818 1723.97 858.711 1725.57 855.352 1725.91C864.473 1715.24 862.983 1702.66 857.618 1699.03C853.266 1696.05 844.681 1698.01 837.885 1704.39C840.21 1702.13 864.235 1678.16 857.498 1650.74C856.135 1645.35 853.724 1640.29 850.404 1635.83C854.893 1638.93 858.723 1642.88 861.671 1647.46C876.098 1670.17 861.314 1693.72 872.939 1705.05C881.762 1713.51 902.747 1712.14 911.808 1702.25C924.089 1688.83 908.768 1666.06 922.658 1647.4C927.48 1641.41 934.008 1637.02 941.378 1634.82Z" fill="#ECECEC"/>
<path d="M1085.18 754.891C1078.5 673.456 1004.81 649.192 1006.96 609.19C1008.03 589.04 1027.23 591.842 1033.91 554.284C1038.5 528.411 1030.87 518.872 1034.26 481.434C1037.96 441.193 1049.23 425.335 1045.65 406.616C1045.15 402.665 1043.66 398.904 1041.33 395.676C1038.99 392.448 1035.89 389.855 1032.3 388.135C1037.41 396.25 1040.19 405.612 1040.34 415.2C1040.12 422.874 1038.26 430.41 1034.87 437.301C1031.49 444.191 1026.67 450.276 1020.73 455.143C1002.49 469.093 991.877 447.453 968.985 439.524C937.09 428.435 897.446 450.791 889.457 499.139C887.204 514.973 887.405 531.06 890.053 546.832C892.774 527.125 898.694 507.995 907.58 490.197C928.506 452.281 954.975 464.264 955.273 466.828C955.571 469.391 938.879 466.828 923.915 492.82C917.879 503.983 913.329 515.888 910.382 528.232C913.53 523.851 917.019 519.725 920.815 515.891C942.098 494.787 979.119 481.374 998.316 527.815C1002.91 539.022 1009.29 554.582 1007.56 570.023C1002.97 612.35 945.138 582.542 909.548 665.408C904.639 677.448 900.653 689.844 897.625 702.489C903.187 691.634 909.86 681.385 917.536 671.906C924.75 663.381 945.615 638.64 969.283 642.933C996.11 647.702 1030.09 690.625 1032.3 741.776C1036.11 831.855 941.383 924.737 931.963 899.46C929.34 892.365 932.5 873.586 936.315 862.677C944.125 840.44 958.015 840.5 962.01 840.798C959.861 837.377 957.162 834.336 954.021 831.796C929.34 812.897 911.277 872.394 889.04 858.325C880.098 852.721 871.155 832.869 870.619 810.93C870.419 797.784 873.191 784.762 878.726 772.836C876.925 772.443 875.047 772.61 873.342 773.313C871.638 774.016 870.189 775.222 869.188 776.77C860.603 787.561 859.888 815.521 859.828 820.23C858.874 859.696 880.336 898.625 895.24 915.019C949.848 975.231 1024.96 829.888 1033.67 860.054C1036.11 871.357 1034.55 883.156 1029.26 893.438C1015.31 922.412 968.448 949.06 962.785 952.22C973.422 954.078 984.322 953.815 994.858 951.445C998.915 950.521 1002.9 949.305 1006.78 947.808C991.385 968.5 969.889 983.845 945.317 991.685C882.78 1009.57 854.344 951.623 784.355 961.46C730.223 969.031 674.9 1013.56 648.192 1001.7C642.859 999.434 638.095 996.013 634.242 991.685C628.101 981.774 625.281 970.163 626.194 958.539C625.598 958.539 609.74 983.22 626.194 1004.14C645.092 1028.29 699.163 1037.65 696.004 1042.06L695.288 1042.54C688.731 1045.94 655.823 1043.37 648.013 1042.54C576.951 1037.05 532.835 1020.54 509.287 1009.15C512.745 1011.84 575.461 1058.99 689.863 1056.13C718.519 1055.51 747.031 1051.89 774.935 1045.34C710.133 1039.38 700.475 1028.89 699.76 1022.8C698.031 1008.26 743.697 984.949 789.541 980.716C861.08 974.099 878.428 1019.23 933.633 1012.19C999.21 1003.79 1056.92 929.566 1067.41 857.192C1070.84 832.574 1069.18 807.514 1062.52 783.566C1048.81 736.232 1045.35 706.066 1047.92 700.701C1051.25 693.606 1074.27 720.195 1079.57 767.172C1081.31 783.963 1080.95 800.905 1078.5 817.607C1084.26 797.231 1086.52 776.024 1085.18 754.891Z" fill="#ECECEC"/>
<path d="M560.557 1505.45C552.688 1502.06 549.767 1490.55 552.748 1482.08C554.824 1476.78 558.888 1472.51 564.075 1470.16C557.273 1469.55 550.602 1467.92 544.282 1465.33C533.236 1460.76 523.533 1453.46 516.084 1444.11C390.891 1446.97 319.352 1485.84 277.621 1520.48C218.541 1569.96 157.018 1658.43 158.27 1659.38C158.27 1659.38 187.362 1604.65 217.886 1608.35C226.59 1609.36 235.77 1615.21 235.77 1620.27C235.77 1635.18 164.53 1656.64 158.568 1659.2C158.568 1659.2 324.717 1603.82 325.075 1596.85C325.075 1593.27 238.632 1627.61 223.251 1604.24C216.515 1594.1 225.755 1576.93 231.836 1569C259.14 1533.24 334.077 1536.69 347.014 1563.04C357.446 1584.27 326.744 1618.96 323.167 1622.66C279.35 1671.19 228.259 1649.13 188.674 1691.69C152.904 1730.03 157.972 1787.08 158.866 1787.44C159.76 1787.79 156.243 1729.85 193.741 1693.78C228.199 1660.63 260.511 1681.14 314.344 1640.13C324.836 1632.08 360.487 1604.77 355.717 1577.83C353.154 1562.92 338.906 1553.62 343.079 1546.89C346.477 1541.28 360.248 1541.28 368.952 1546.89C377.656 1552.49 380.279 1563.22 381.352 1562.8C382.138 1557.46 380.883 1552.01 377.835 1547.54C362.216 1523.7 295.923 1549.57 289.544 1535.62C286.146 1528.23 301.825 1514.4 310.588 1506.65C342.9 1478.15 377.179 1469.86 413.843 1461.52C458.257 1451.38 468.332 1456.45 472.445 1461.87C475.186 1466.26 476.206 1471.51 475.307 1476.6C473.638 1507.18 438.464 1514.1 435.066 1545.1L434.708 1571.93C435.815 1578.32 437.822 1584.52 440.67 1590.35C437.807 1580.76 438.269 1570.49 441.982 1561.19C442.876 1559.05 446.81 1549.81 450.447 1550.29C455.455 1551 451.341 1569.3 460.701 1583.55C471.372 1599.83 496.172 1605.61 515.726 1602.03C522.463 1600.84 546.965 1596.07 555.49 1574.19C558.275 1566.16 558.797 1557.52 556.999 1549.21C555.201 1540.91 551.152 1533.25 545.296 1527.09C546.636 1529.82 547.675 1532.67 548.396 1535.62C549.878 1541.35 550.183 1547.32 549.292 1553.17C548.4 1559.02 546.331 1564.63 543.209 1569.66C539.526 1575.23 534.537 1579.81 528.677 1583.01C522.816 1586.22 516.263 1587.93 509.586 1588.02C486.336 1588.02 468.749 1564.18 464.516 1543.91C456.587 1506.65 492.059 1466.11 519.721 1466.41C528.842 1466.41 542.375 1470.94 545.236 1479.58C548.098 1488.23 539.275 1493.29 542.732 1500.51C546.667 1508.91 563.3 1512.79 570.394 1507C570.895 1506.59 571.354 1506.13 571.765 1505.63C569.977 1506.34 568.067 1506.69 566.143 1506.66C564.22 1506.63 562.322 1506.22 560.557 1505.45Z" fill="#ECECEC"/>
<path d="M820.421 878.953C814.459 890.876 801.105 917.882 791.924 908.761C776.424 893.141 797.886 798.054 789.838 636.614C785.068 538.964 771.953 464.742 791.149 414.367C794.188 405.783 798.73 397.81 804.563 390.818C800.581 390.217 796.511 390.788 792.848 392.46C789.186 394.133 786.089 396.835 783.936 400.238C752.458 442.386 788.884 587.67 761.103 750.182C744.649 846.164 711.085 918.061 696.956 908.224C686.762 900.951 677.998 843.124 674.958 809.977C674.958 807.831 674.6 806.221 674.541 805.148C664.108 686.692 690.458 598.043 676.15 506.056C673.28 488.375 669.298 470.893 664.227 453.713C657.367 431.87 647.899 410.933 636.029 391.355C642.748 408.364 648.227 425.837 652.423 443.638C679.966 558.16 672.037 728.482 628.577 792.748C623.631 800.6 617.214 807.422 609.679 812.839C612.632 814.149 615.908 814.553 619.091 814.002C622.275 813.45 625.223 811.966 627.563 809.739C634.538 803.777 636.029 794.954 639.486 796.027C647.535 798.65 656.775 855.643 646.7 880.92C640.321 896.897 630.306 889.385 614.507 913.053C610.768 918.739 607.498 924.72 604.73 930.938C632.631 918.538 653.854 923.605 668.46 930.938C686.345 940.238 696.777 956.215 712.874 948.465C726.347 941.967 735.289 923.307 743.158 906.734C763.428 864.406 769.866 817.31 773.384 819.873C774.934 821.006 774.218 830.783 773.98 844.852C773.98 861.724 772.787 922.711 783.578 940.238C792.64 954.724 809.392 940.894 819.347 925.87C855.534 871.501 851.54 733.252 850.05 732.655C848.559 732.059 848.857 821.781 820.421 878.953Z" fill="#ECECEC"/>
<path d="M457.545 1718.23C455.878 1719.98 453.822 1721.31 451.543 1722.12C449.264 1722.93 446.827 1723.19 444.429 1722.88C437.633 1720.85 435.904 1710.95 435.725 1709.88C435.162 1705.15 435.87 1700.35 437.777 1695.98C439.684 1691.61 442.721 1687.83 446.575 1685.02C450.927 1682.1 454.981 1681.86 458.499 1676.91C460.182 1674.65 461.361 1672.04 461.956 1669.28C460.431 1671.78 458.342 1673.88 455.858 1675.42C453.373 1676.97 450.561 1677.91 447.648 1678.17C439.958 1678.17 435.725 1665.88 432.506 1655.99C429.892 1648.57 428.346 1640.83 427.916 1632.98C427.717 1643.8 424.74 1654.39 419.271 1663.74C421.795 1662.72 424.617 1662.72 427.141 1663.74C434.95 1667.32 436.321 1683.47 431.791 1694.68C425.233 1711.01 404.546 1719.42 400.85 1715.78C399.777 1714.71 399.598 1712.03 402.817 1705.47C399.967 1709.29 396.642 1712.74 392.921 1715.72C385.41 1721.68 382.31 1720.73 381.296 1720.25C368.896 1714.77 389.165 1655.51 370.983 1644.42C366.61 1641.71 361.519 1640.38 356.377 1640.61C351.669 1640.95 347.033 1641.95 342.605 1643.59C358.881 1639.89 365.319 1645.38 366.869 1646.81C376.646 1656.17 373.725 1680.55 363.173 1695.75C355.482 1706.84 344.215 1713.64 344.99 1726.39C345.079 1728.44 345.502 1730.45 346.242 1732.36C346.426 1726.07 349.082 1720.12 353.634 1715.78C355.423 1714.17 360.55 1709.82 365.557 1711.25C368.06 1712.68 370.048 1714.86 371.236 1717.48C372.425 1720.1 372.753 1723.04 372.175 1725.86C370.386 1735.81 357.986 1736.29 349.342 1748.63C345.034 1755.11 342.656 1762.67 342.486 1770.45C343.422 1767.3 344.743 1764.28 346.421 1761.45C349.342 1756.62 353.277 1750.06 359.357 1749.53C361.131 1749.5 362.886 1749.89 364.48 1750.67C366.075 1751.44 367.465 1752.58 368.538 1754C373.069 1759.96 370.088 1769.91 365.081 1775.4C362.139 1778.33 358.424 1780.36 354.37 1781.26C350.317 1782.16 346.092 1781.88 342.188 1780.47C338.608 1779.04 335.405 1776.81 332.83 1773.95C330.255 1771.08 328.377 1767.66 327.344 1763.95C327.947 1770.36 330.674 1776.38 335.094 1781.06C340.065 1785.94 346.605 1788.89 353.549 1789.39C360.492 1789.89 367.389 1787.91 373.009 1783.8C378.873 1777.77 382.128 1769.68 382.071 1761.27C382.727 1749.35 377.481 1745.47 380.461 1736.71C382.634 1730.9 386.882 1726.1 392.385 1723.23C400.731 1718.76 417.781 1719.3 424.518 1728C426.544 1730.63 426.366 1732.36 427.021 1747.62C428.035 1771.46 428.929 1775.28 431.552 1779.27C437.037 1787.62 447.172 1791.2 448.066 1789.94C448.96 1788.69 443.058 1785.35 439.362 1778.02C436.861 1772.54 435.647 1766.56 435.812 1760.53C435.977 1754.51 437.518 1748.6 440.316 1743.27C447.41 1730.15 455.935 1731.04 463.566 1716.32C466.878 1709.81 468.691 1702.64 468.872 1695.33C468.273 1704.16 464.2 1712.4 457.545 1718.23Z" fill="#ECECEC"/>
<path d="M1166.02 298.236C1105.69 288.041 1069.26 350.042 1008.39 337.344C981.924 331.799 956.29 313.497 952.534 291.618C948.063 265.983 975.665 245.893 989.376 235.877C995.338 231.525 1039.16 200.406 1069.32 213.521C1076.68 216.578 1082.6 222.308 1085.89 229.558C1093.88 252.629 1053.7 279.099 1036.06 290.784C1022.46 299.542 1008.19 307.197 993.371 313.676C993.371 314.034 1026.52 300.799 1166.79 242.614C1108.37 259.426 1084.46 279.159 1077.85 274.449C1072.84 270.932 1079.28 254.656 1092.03 245.416C1092.03 245.416 1118.33 221.272 1166.79 242.614L1166.2 242.256C1117.19 215.25 1047.5 196.114 994.026 205.354C913.187 219.364 843.258 302.766 774.461 345.749C767.606 350.042 750.615 360.057 737.023 354.274C733.784 352.95 730.846 350.984 728.388 348.494C725.929 346.004 723.999 343.043 722.715 339.788C721.285 335.469 721.161 330.823 722.357 326.434C725.636 314.511 737.559 314.511 749.184 299.249C754.325 292.416 758.017 284.606 760.034 276.297C757.411 281.603 749.78 295.434 735.413 299.249C732.432 300.084 725.696 301.872 721.88 298.295C716.574 293.287 720.807 281.066 721.344 279.695C726.351 265.924 734.578 263.36 741.375 251.616C746.503 242.308 748.725 231.676 747.754 221.093C745.839 230.478 741.891 239.33 736.188 247.026C732.134 252.391 727.246 258.949 722.596 257.995C716.634 256.743 712.163 243.27 715.919 234.149C718.124 228.604 721.88 228.187 726.769 221.152C730.428 215.909 732.891 209.926 733.982 203.625C732.226 206.62 730.103 209.383 727.663 211.852C723.382 216.112 718.181 219.334 712.461 221.272C699.107 225.623 694.576 214.595 676.691 215.31C665.007 215.941 653.912 220.645 645.334 228.604C636.634 236.578 631.268 247.544 630.31 259.306C629.786 270.002 633.012 280.544 639.432 289.114C636.689 280.41 638.06 273.376 641.28 271.945C644.499 270.514 647.837 273.137 648.016 273.257C649.736 274.383 651.231 275.818 652.428 277.489C655.805 280.496 659.919 282.553 664.351 283.451C671.803 285.001 675.857 281.901 676.811 283.451C678.54 286.253 663.159 293.347 655.945 310.039C651.176 321.128 653.62 324.407 647.301 333.886C645.356 338.165 642.545 341.996 639.046 345.135C635.548 348.275 631.436 350.656 626.972 352.128C598.297 358.448 576.239 299.666 517.875 256.326C487.088 233.472 451.38 218.139 413.607 211.554C325.733 197.664 233.15 242.197 232.792 242.435C373.008 300.62 405.678 313.974 406.155 313.497C391.221 307.093 376.827 299.497 363.112 290.784C344.453 278.443 306.477 245.833 313.333 229.558C320.189 213.283 373.366 211.673 409.791 235.877C414.68 239.097 451.523 262.943 446.694 291.618C442.878 313.318 417.243 331.799 390.774 337.344C330.025 350.042 293.6 288.22 233.269 298.236C182.655 306.82 157.199 359.103 158.213 359.759C159.226 360.415 190.226 305.151 241.258 301.157C292.289 297.162 309.458 347.18 372.055 344.617C393.755 343.663 430.12 336.032 443.594 315.166C452.476 301.574 450.747 283.749 457.305 283.212C461.717 282.914 465.95 290.605 467.5 293.287C476.263 309.205 470.719 325.361 471.971 325.54C473.223 325.718 474.057 322.32 477.932 308.907C483.894 300.143 463.326 277.132 455.099 267.951C424.04 233.314 398.166 220.735 399.836 217.218C402.161 212.27 460.048 220.616 514.477 259.962C576.298 304.674 594.899 361.309 626.376 355.348C645.512 351.592 658.389 327.03 662.503 329.772C664.411 331.024 661.788 341.099 655.528 348.849C644.559 362.501 626.674 363.873 620.355 364.35C608.431 365.303 606.404 362.025 597.581 363.217C584.558 365.938 573.137 373.695 565.806 384.798C574.343 377.609 584.625 372.797 595.614 370.848C614.512 367.807 620.533 376.809 636.451 373.471C655.23 369.357 673.115 350.817 673.115 334.065C673.115 325.063 668.226 323.393 669.538 313.974C670.605 308.157 673.174 302.72 676.991 298.202C680.808 293.685 685.74 290.243 691.297 288.22C697.259 286.134 702.565 284.107 706.499 286.73C718.423 294.897 694.994 332.992 710.613 350.221C718.124 358.567 731.061 358.567 740.003 358.328C773.09 357.434 797.652 338.536 829.427 313.616C903.112 255.431 919.685 242.077 948.182 228.902C982.282 213.045 1010.96 207.62 1013.1 212.15C1017.28 221.093 916.764 264.612 921.534 309.086C921.97 315.069 924.032 320.82 927.495 325.718C929.045 325.718 923.68 308.43 932.026 293.466C933.516 290.784 937.988 283.093 942.161 283.391C948.718 283.928 947.049 301.753 955.872 315.345C969.465 336.211 1005.83 343.842 1027.41 344.796C1089.77 347.359 1107.65 297.461 1158.15 301.336C1208.64 305.211 1240.12 360.653 1241.19 359.998C1242.27 359.342 1216.63 306.82 1166.02 298.236ZM321.381 274.449C314.764 279.159 290.858 259.426 232.494 242.614C280.962 221.272 307.193 245.416 307.193 245.416C320.01 254.656 326.508 270.932 321.381 274.449ZM702.922 248.039C702.267 259.366 695.59 275.283 680.447 279.218C662.92 283.809 647.062 269.143 643.724 256.862C642.055 250.901 642.532 242.137 645.214 241.243C646.884 240.647 649.149 242.972 650.162 244.641C650.986 246.169 651.34 247.906 651.181 249.635C651.022 251.363 650.357 253.006 649.268 254.358C652.249 252.808 655.23 250.483 655.647 247.502C656.064 244.522 653.859 243.449 653.62 241.541C652.607 233.672 680.924 214.475 695.351 225.266C704.174 231.645 703.399 245.177 703.221 248.039H702.922Z" fill="#ECECEC"/>
<path d="M1206.97 1697.6C1167.45 1655.03 1116.3 1677.09 1072.54 1628.62C1068.96 1624.63 1038.26 1589.93 1048.69 1568.71C1061.57 1542.48 1136.57 1538.9 1163.87 1574.67C1169.83 1582.66 1179.13 1599.77 1172.39 1609.96C1157.07 1633.27 1070.39 1598.93 1070.57 1602.57C1070.93 1609.55 1237.14 1665.11 1237.08 1664.87C1231.12 1662.25 1159.58 1641.02 1159.58 1625.94C1159.58 1620.63 1168.64 1614.79 1177.46 1614.02C1194.57 1611.93 1209.3 1627.91 1219.19 1639.29C1226.5 1646.8 1232.44 1655.54 1236.72 1665.11C1234.99 1666.3 1198.39 1587.61 1123.45 1525.19C1060.08 1472.13 969.403 1430.64 944.603 1455.2C939.883 1460.52 937.33 1467.41 937.449 1474.52C935.321 1481.1 932.118 1487.28 927.97 1492.82C923.916 1498.24 919.027 1504.74 914.377 1503.79C908.416 1502.59 903.945 1489.06 907.7 1479.94C909.906 1474.4 913.662 1473.98 918.55 1467C922.191 1461.75 924.652 1455.77 925.764 1449.48C924.004 1452.45 921.881 1455.19 919.445 1457.64C915.146 1461.9 909.953 1465.13 904.243 1467.12C890.889 1471.42 886.358 1460.39 868.473 1461.16C856.733 1461.92 845.643 1466.82 837.175 1474.99C828.677 1482.5 823.337 1492.94 822.231 1504.22C821.125 1515.51 824.334 1526.79 831.213 1535.8C828.471 1527.04 829.902 1520 833.061 1518.63C835.385 1518.2 837.785 1518.65 839.798 1519.88C842.063 1521.14 842.66 1522.57 844.21 1524.18C847.581 1527.19 851.697 1529.25 856.133 1530.14C863.585 1531.69 867.639 1528.59 868.592 1530.14C870.321 1532.88 854.94 1539.97 847.727 1556.73C842.958 1567.75 845.402 1571.03 839.083 1580.57C835.021 1587.7 828.423 1593.05 820.602 1595.54C816.481 1596.47 812.213 1596.54 808.062 1595.76C803.91 1594.98 799.961 1593.37 796.457 1591C799.234 1594.18 802.615 1596.76 806.402 1598.62C810.189 1600.47 814.306 1601.55 818.515 1601.8C838.01 1601.38 851.363 1574.07 854.642 1576.22C856.55 1577.47 853.927 1587.55 847.667 1595.36C836.698 1609.01 818.813 1610.38 812.494 1610.86C800.571 1611.75 798.544 1608.53 789.721 1609.66C783.216 1610.99 777.038 1613.59 771.543 1617.31C766.048 1621.04 761.346 1625.81 757.707 1631.36C766.224 1624.13 776.512 1619.3 787.515 1617.35C806.413 1614.31 812.434 1623.32 828.352 1619.98C847.25 1615.86 864.956 1597.32 865.194 1580.57C865.194 1571.57 860.306 1569.96 861.617 1560.48C862.662 1554.64 865.213 1549.18 869.02 1544.63C872.826 1540.08 877.755 1536.61 883.318 1534.55C889.279 1532.46 894.585 1530.44 898.52 1533.12C910.443 1541.23 887.014 1579.38 902.633 1596.55C906.572 1600.08 911.276 1602.65 916.375 1604.06C921.475 1605.46 926.831 1605.67 932.024 1604.66C937.217 1603.77 942.146 1601.73 946.451 1598.7C942.785 1600.78 938.607 1601.8 934.391 1601.63C930.175 1601.47 926.091 1600.12 922.604 1597.74C918.861 1594.89 916.043 1591 914.505 1586.56C912.966 1582.11 912.777 1577.31 913.96 1572.76C917.239 1560.84 929.162 1560.84 940.787 1545.52C945.956 1538.73 949.688 1530.96 951.757 1522.69C949.193 1527.99 941.503 1541.88 927.135 1545.7C924.154 1546.47 917.418 1548.26 913.602 1544.74C908.297 1539.74 912.529 1527.51 913.066 1526.08C918.074 1512.31 926.301 1509.75 933.097 1498C937.036 1491 939.224 1483.14 939.476 1475.11C939.423 1472.74 939.843 1470.37 940.713 1468.16C941.583 1465.95 942.885 1463.94 944.543 1462.23C949.566 1456.4 956.577 1452.64 964.216 1451.68C988.539 1447.03 1036.89 1468.43 1084.76 1513.15C1105.57 1532.52 1107.41 1538.66 1105.86 1542.06C1099.48 1555.89 1033.13 1530.14 1017.51 1553.98C1014.5 1558.46 1013.24 1563.9 1014 1569.25C1015.13 1569.72 1017.63 1558.99 1026.46 1553.33C1035.28 1547.66 1048.87 1547.72 1052.33 1553.33C1056.5 1560.06 1042.25 1569.42 1039.63 1584.27C1034.92 1611.21 1070.51 1638.52 1081 1646.57C1134.66 1687.88 1167.21 1667.37 1201.67 1700.58C1239.1 1736.35 1235.77 1794.41 1236.48 1794.24C1237.2 1794.06 1242.56 1735.93 1206.97 1697.6ZM895.36 1493.59C894.704 1504.92 888.027 1520.84 872.885 1524.77C855.358 1529.36 839.5 1514.7 836.161 1502.42C834.492 1496.45 834.969 1487.75 837.652 1486.8C839.321 1486.26 841.586 1488.58 842.6 1490.25C843.423 1491.78 843.778 1493.52 843.618 1495.25C843.459 1496.98 842.794 1498.62 841.706 1499.97C844.686 1498.42 847.667 1496.1 848.085 1493.06C848.502 1490.02 846.296 1489.06 846.058 1487.09C845.044 1479.23 873.362 1460.09 887.789 1470.88C896.314 1477.26 895.539 1490.79 895.36 1493.59Z" fill="#ECECEC"/>
</svg>
